<svg xmlns="http://www.w3.org/2000/svg" viewBox="0 0 299 156"><title>logo</title><path fill="none" d="M0 0h299v156H0z"/><path d="M53.3 65.2C52.7 69 50.2 80.3 37 80.3c-9.2 0-13.7-7-13.7-17.1 0-12.1 6.4-22.2 17.2-22.2 7.1 0 13.4 3.6 13.6 14.9h-9.3c.1-3.5-1.3-5.5-4.4-5.5-5.4 0-7.4 7.4-7.4 12.7 0 3.1.6 7.9 5.1 7.9s4.8-2.5 5.4-5.8h9.6z"/><path d="M140.8 135.5c.1-20.5-11.3-33.2-27.4-33.2l50.8-83.2c.4-.6.7-.3.5.6l-24 115.3" fill="#d31245"/><path d="M75.6 41c9 0 14.5 5 14.5 16.4s-7 22.9-17.9 22.9c-9 0-14.5-5.6-14.5-16.4 0-12.6 7-22.9 17.9-22.9zm-3.1 30c5.9 0 7.8-8.2 7.8-13.8 0-3.4-1.1-6.8-4.9-6.8-5.9 0-7.8 8.2-7.8 13.8 0 3.4 1.1 6.8 4.9 6.8zM97.9 41.7h9.1l8.1 18.6h.1l3.3-18.6h9.3l-6.7 38.1h-9.6l-7.9-18h-.1l-3.2 18h-9l6.6-38.1zM159.8 78.3h14.6l.7 19.4h.1l9-19.4h14.9l-7.3 39.5h-9.7l3.3-21.1h-.1l-9.2 21.1h-7.7l-3.2-21.1h-.1l-2.7 21.1h-9.7l7.1-39.5zM205.7 78.3h27.7l-1.8 9h-16.2l-.9 5.8h10.4l-1.7 9.4h-10.4l-.9 6h16.6l-1.8 9.3h-28.1l7.1-39.5zM247.4 87.5h-10.2l1.8-9.2h30.8l-1.8 9.2h-10.1l-5.3 30.3h-10.5l5.3-30.3zM280 86.3a4.3 4.3 0 1 1 1.3-3.1 4.1 4.1 0 0 1-1.3 3.1zm-5.7-5.7a3.6 3.6 0 0 0-1.1 2.6 3.6 3.6 0 0 0 1.1 2.6 3.7 3.7 0 1 0 0-5.1zm2.5.2l1.3.2a1.2 1.2 0 0 1 .7 1.2 1 1 0 0 1-.5.9l-.7.2a1.2 1.2 0 0 1 .8.5 1.3 1.3 0 0 1 .3.7v1h-.8V85a1.1 1.1 0 0 0-.5-1.1l-.9-.2h-.5v1.8h-.8v-4.7h1.7zm.9.8l-1-.2h-.7v1.7h1.6a.7.7 0 0 0 .5-.7.7.7 0 0 0-.4-.7z"/></svg>