<svg xmlns="http://www.w3.org/2000/svg" viewBox="0 0 299 156"><title>logo</title><rect width="299" height="156" style="fill:none"/><path d="M211.3,369.2c-0.6,3.8-3.1,15.1-16.3,15.1-9.2,0-13.7-7-13.7-17.1,0-12.1,6.4-22.2,17.2-22.2,7.1,0,13.4,3.6,13.6,14.9h-9.3c0.1-3.5-1.3-5.5-4.4-5.5-5.4,0-7.4,7.4-7.4,12.7,0,3.1.6,7.9,5.1,7.9s4.8-2.5,5.4-5.8h9.6Z" transform="translate(-158 -304)" style="fill:#fff"/><path d="M298.8,439.5c0.1-20.5-11.3-33.2-27.4-33.2l50.8-83.2c0.4-.6.7-0.3,0.5,0.6L298.7,439" transform="translate(-158 -304)" style="fill:#d31245"/><path d="M233.6,345c9,0,14.5,5,14.5,16.4s-7,22.9-17.9,22.9c-9,0-14.5-5.6-14.5-16.4,0-12.6,7-22.9,17.9-22.9h0ZM230.5,375c5.9,0,7.8-8.2,7.8-13.8,0-3.4-1.1-6.8-4.9-6.8-5.9,0-7.8,8.2-7.8,13.8,0,3.4,1.1,6.8,4.9,6.8h0Z" transform="translate(-158 -304)" style="fill:#fff"/><polygon points="97.9 41.7 107 41.7 115.1 60.3 115.2 60.3 118.5 41.7 127.8 41.7 121.1 79.8 111.5 79.8 103.6 61.8 103.5 61.8 100.3 79.8 91.3 79.8 97.9 41.7 97.9 41.7" style="fill:#fff"/><polygon points="159.8 78.3 174.4 78.3 175.1 97.7 175.2 97.7 184.2 78.3 199.1 78.3 191.8 117.8 182.1 117.8 185.4 96.7 185.3 96.7 176.1 117.8 168.4 117.8 165.2 96.7 165.1 96.7 162.4 117.8 152.7 117.8 159.8 78.3 159.8 78.3" style="fill:#fff"/><polygon points="205.7 78.3 233.4 78.3 231.6 87.3 215.4 87.3 214.5 93.1 224.9 93.1 223.2 102.5 212.8 102.5 211.9 108.5 228.5 108.5 226.7 117.8 198.6 117.8 205.7 78.3 205.7 78.3" style="fill:#fff"/><polygon points="247.4 87.5 237.2 87.5 239 78.3 269.8 78.3 268 87.5 257.9 87.5 252.6 117.8 242.1 117.8 247.4 87.5 247.4 87.5" style="fill:#fff"/><path d="M438,390.3a4.3,4.3,0,1,1,1.3-3.1A4.1,4.1,0,0,1,438,390.3Zm-5.7-5.7a3.6,3.6,0,0,0-1.1,2.6,3.6,3.6,0,0,0,1.1,2.6A3.7,3.7,0,1,0,432.3,384.7Zm2.5,0.2,1.3,0.2a1.2,1.2,0,0,1,.7,1.2,1,1,0,0,1-.5.9l-0.7.2a1.2,1.2,0,0,1,.8.5,1.3,1.3,0,0,1,.3.7V389c0,0.1,0,.2,0,0.3v0.2h-0.8V389a1.1,1.1,0,0,0-.5-1.1l-0.9-.2H434v1.8h-0.8v-4.7h1.7Zm0.9,0.8-1-.2H434v1.7h1.6a0.7,0.7,0,0,0,.5-0.7A0.7,0.7,0,0,0,435.7,385.7Z" transform="translate(-158 -304)" style="fill:#fff"/></svg>