<?xml version="1.0" standalone="no"?>
<!DOCTYPE svg PUBLIC "-//W3C//DTD SVG 1.1//EN" "http://www.w3.org/Graphics/SVG/1.1/DTD/svg11.dtd" >
<svg>
<metadata>
Created by FontForge 20090622 at Thu Jul 27 07:51:51 2017
 By deploy user
&#194;&#169; 2014 The Monotype Corporation. All Rights Reserved.
</metadata>
<defs>
<font id="ArialNovaCond" horiz-adv-x="1024" >
  <font-face 
    font-family="Arial Nova Cond"
    font-weight="400"
    font-stretch="condensed"
    units-per-em="2048"
    panose-1="2 11 5 6 2 2 2 2 2 4"
    ascent="1638"
    descent="-410"
    x-height="1062"
    cap-height="1466"
    bbox="-825 -466 1992 1988"
    underline-thickness="102"
    underline-position="-154"
    unicode-range="U+0020-U+2122"
  />
<missing-glyph horiz-adv-x="1042" 
d="M892 0h-742v1491h742v-1491zM768 1368h-495v-1243h495v1243z" />
    <glyph glyph-name=".notdef" horiz-adv-x="1042" 
d="M892 0h-742v1491h742v-1491zM768 1368h-495v-1243h495v1243z" />
    <glyph glyph-name="glyph1" horiz-adv-x="0" 
 />
    <glyph glyph-name="glyph2" horiz-adv-x="565" 
 />
    <glyph glyph-name="space" unicode=" " horiz-adv-x="565" 
 />
    <glyph glyph-name="exclam" unicode="!" horiz-adv-x="513" 
d="M294 363h-75l-59 775v328h194v-328zM156 0v222h201v-222h-201z" />
    <glyph glyph-name="quotedbl" unicode="&#x22;" horiz-adv-x="705" 
d="M264 944h-91l-43 280v242h175v-242zM535 944h-91l-44 280v242h175v-242z" />
    <glyph glyph-name="numbersign" unicode="#" 
d="M721 538h283v-134h-310l-87 -428h-136l87 428h-224l-87 -428h-136l87 428h-177v134h205l78 382h-283v134h310l88 429h133l-87 -429h226l88 429h133l-87 -429h179v-134h-206zM438 920l-77 -382h225l78 382h-226z" />
    <glyph glyph-name="dollar" unicode="$" 
d="M560 -24v-186h-90v186q-169 14 -271.5 126t-122.5 300l167 21q16 -128 74.5 -204t152.5 -91v543q-189 81 -277 190t-88 252q0 95 42 175.5t124.5 132t198.5 60.5v95h90v-95q143 -12 229.5 -101t116.5 -249l-166 -23q-13 91 -60.5 150.5t-119.5 74.5v-517
q191 -82 284.5 -185.5t93.5 -260.5q0 -104 -45 -190.5t-131 -140.5t-202 -63zM470 855v481q-98 -12 -146 -72.5t-48 -146.5q0 -82 44.5 -145.5t149.5 -116.5zM765 361q0 89 -46 154t-159 118v-506q94 13 149.5 77.5t55.5 156.5z" />
    <glyph glyph-name="percent" unicode="%" horiz-adv-x="1444" 
d="M589 1094q0 -175 -56 -293t-204 -118q-118 0 -187.5 93t-69.5 304q0 212 64 311.5t196 99.5q122 0 189.5 -100.5t67.5 -296.5zM329 -56l654 1547h134l-658 -1547h-130zM212 1096q0 -125 12 -189.5t37.5 -88.5t70.5 -24q42 0 66.5 26t36.5 90.5t12 181.5q0 151 -28 219
t-89 68q-40 0 -65 -22.5t-39 -84t-14 -176.5zM1372 341q0 -397 -261 -397q-118 0 -187.5 92.5t-69.5 305.5q0 210 64 309t195 99q132 0 195.5 -99t63.5 -310zM994 344q0 -121 14.5 -184t40 -84t66.5 -21q60 0 88.5 72.5t28.5 230.5q0 149 -28.5 215t-90.5 66
q-40 0 -65.5 -23t-39.5 -87.5t-14 -184.5z" />
    <glyph glyph-name="ampersand" unicode="&#x26;" horiz-adv-x="1288" 
d="M1218 72l-113 -103q-101 93 -177 191q-172 -185 -394 -185q-140 0 -237 55t-145 146t-48 196q0 108 46 192.5t116.5 146.5t172.5 129l-41 57q-65 90 -90.5 154.5t-25.5 135.5q0 83 40.5 152.5t115.5 110.5t172 41q96 0 169 -42t112 -112t39 -151q0 -83 -35.5 -150
t-92.5 -119t-139 -107l268 -379q51 104 86 227l152 -39q-57 -191 -141 -325q51 -70 95.5 -123t94.5 -99zM761 1186q0 48 -21.5 86t-57.5 59.5t-80 21.5q-41 0 -76 -20t-56.5 -56t-21.5 -81q0 -55 24.5 -102.5t71.5 -114.5l33 -47q89 63 136.5 122t47.5 132zM839 282
l-314 438q-76 -50 -128 -96.5t-84 -103.5t-32 -127q0 -81 34.5 -143t96 -96.5t140.5 -34.5q159 0 287 163z" />
    <glyph glyph-name="quotesingle" unicode="'" horiz-adv-x="435" 
d="M264 944h-91l-43 280v242h175v-242z" />
    <glyph glyph-name="parenleft" unicode="(" horiz-adv-x="683" 
d="M309 530q0 -476 299 -961h-129q-165 213 -260 463.5t-95 499.5q0 486 355 959h129q-118 -195 -183.5 -359.5t-90.5 -306.5t-25 -295z" />
    <glyph glyph-name="parenright" unicode=")" horiz-adv-x="683" 
d="M559 532q0 -253 -97 -505t-258 -458h-129q299 483 299 961q0 152 -25 294.5t-91 307.5t-183 359h129q355 -473 355 -959z" />
    <glyph glyph-name="asterisk" unicode="*" horiz-adv-x="811" 
d="M454 1243q102 52 236 96l46 -142q-116 -39 -248 -56q46 -40 171 -189l-120 -85q-59 78 -137 215q-68 -133 -130 -215l-118 85q122 148 165 189q-131 25 -244 56l46 143q163 -56 231 -98q-20 192 -20 249h145q0 -93 -23 -248z" />
    <glyph glyph-name="plus" unicode="+" 
d="M989 807v-168h-381v-402h-168v402h-381v168h381v402h168v-402h381z" />
    <glyph glyph-name="comma" unicode="," horiz-adv-x="513" 
d="M193 -310l-51 75q57 33 84.5 90t28.5 142v3h-97v222h201v-230q0 -105 -41.5 -183t-124.5 -119z" />
    <glyph glyph-name="hyphen" unicode="-" horiz-adv-x="683" 
d="M65 440v181h553v-181h-553z" />
    <glyph glyph-name="period" unicode="." horiz-adv-x="513" 
d="M156 0v222h201v-222h-201z" />
    <glyph glyph-name="slash" unicode="/" horiz-adv-x="512" 
d="M1 -25l425 1516h144l-424 -1516h-145z" />
    <glyph glyph-name="zero" unicode="0" 
d="M944 759q0 -290 -45 -460.5t-141.5 -247.5t-257.5 -77q-168 0 -260.5 95t-126 259.5t-33.5 407.5q0 257 48 419.5t146 239.5t251 77q145 0 237 -71t137 -227.5t45 -414.5zM252 739q0 -225 22 -359t77.5 -200.5t156.5 -66.5q95 0 153 63t84.5 199.5t26.5 363.5
q0 209 -20.5 336t-75 193t-154.5 66q-94 0 -153 -59.5t-88 -190t-29 -345.5z" />
    <glyph glyph-name="one" unicode="1" 
d="M536 0v1163q-53 -61 -129.5 -112t-180.5 -96v163q245 117 376 348h103v-1466h-169z" />
    <glyph glyph-name="two" unicode="2" 
d="M922 1069q0 -153 -85.5 -286.5t-213.5 -253.5q-173 -162 -244.5 -248t-81.5 -131h626v-150h-863q19 106 54.5 180t116.5 168.5t259 270.5q96 96 150 162t83 135t29 152q0 60 -26.5 116.5t-78 92t-123.5 35.5q-217 0 -251 -286l-174 19q33 209 139.5 314t281.5 105
q115 0 206.5 -51t143.5 -141t52 -203z" />
    <glyph glyph-name="three" unicode="3" 
d="M897 1136q0 -125 -54.5 -204t-171.5 -140q93 -19 157 -74t95.5 -133t31.5 -167q0 -119 -49 -220t-145 -162t-230 -61q-201 0 -314 108.5t-131 301.5l172 14q19 -145 90.5 -210t172.5 -65q72 0 129.5 34t90.5 102.5t33 165.5q0 274 -305 274h-90l19 144q162 -2 245.5 66.5
t83.5 191.5q0 100 -58 157t-152 57q-93 0 -153 -63t-92 -191l-164 24q33 186 141.5 281.5t273.5 95.5q103 0 189 -41.5t135.5 -116.5t49.5 -169z" />
    <glyph glyph-name="four" unicode="4" 
d="M983 503v-155h-147v-348h-165v348h-604v155l640 963h129v-963h147zM671 503v657l-438 -657h438z" />
    <glyph glyph-name="five" unicode="5" 
d="M389 1290l-78 -418q94 81 236 81q118 0 211.5 -60.5t147 -169.5t53.5 -250q0 -144 -54 -256t-154.5 -175t-235.5 -63q-367 0 -433 400l172 15q56 -276 263 -276q75 0 135.5 43.5t95.5 125.5t35 194q0 106 -37 179.5t-98.5 109.5t-136.5 36q-142 0 -243 -135l-152 21
l146 750h636v-152h-509z" />
    <glyph glyph-name="six" unicode="6" 
d="M907 1111l-167 -18q-25 120 -76.5 179t-132.5 59q-86 0 -148.5 -71.5t-96.5 -199.5t-36 -295q115 180 298 180q111 0 198.5 -58.5t137 -165t49.5 -244.5t-44 -252t-135 -182t-225 -68q-143 0 -243.5 85t-153 246.5t-52.5 388.5q0 249 56 423t159 262.5t243 88.5
q101 0 180 -46t127 -127t62 -185zM286 473q0 -108 33.5 -189t90.5 -124t124 -43q64 0 116.5 41.5t82.5 119.5t30 181q0 98 -28.5 176.5t-81.5 123.5t-124 45q-67 0 -122.5 -42.5t-88 -118t-32.5 -170.5z" />
    <glyph glyph-name="seven" unicode="7" 
d="M395 0h-177q51 749 522 1285h-651v157h855v-137q-164 -158 -282 -369t-184.5 -449.5t-82.5 -486.5z" />
    <glyph glyph-name="eight" unicode="8" 
d="M953 417q0 -119 -54.5 -219t-153 -158.5t-225.5 -58.5q-130 0 -229.5 59.5t-153 160t-53.5 218.5q0 278 272 367q-214 108 -214 303q0 103 45 190t129 139t198 52q107 0 193.5 -46.5t136.5 -130.5t50 -190q0 -226 -213 -309q95 -28 156 -87t88.5 -134t27.5 -156z
M520 1328q-61 0 -107 -31t-71 -85t-25 -120q0 -73 28 -127t74 -82t97 -28q52 0 99 28t77 83.5t30 132.5q0 66 -24.5 118t-70.5 81.5t-107 29.5zM517 718q-76 0 -134 -40.5t-90 -111t-32 -156.5q0 -83 32.5 -149t91.5 -103t136 -37q78 0 136 37t88.5 103.5t30.5 153.5
q0 90 -32 158.5t-90.5 106.5t-136.5 38z" />
    <glyph glyph-name="nine" unicode="9" 
d="M117 332l167 18q25 -119 76.5 -178t132.5 -59q89 0 152 74t95 202t34 290q-57 -89 -134.5 -135t-163.5 -46q-118 0 -205 62.5t-133.5 169.5t-46.5 237q0 141 46.5 255t139.5 180.5t226 66.5q140 0 239 -84t150.5 -245.5t51.5 -391.5q0 -251 -54 -424t-156.5 -261
t-247.5 -88q-106 0 -184 47t-123.5 127t-61.5 183zM497 1326q-69 0 -122.5 -39.5t-83.5 -117t-30 -185.5q0 -102 29 -180.5t82 -121.5t122 -43q64 0 120.5 43t90 119t33.5 169q0 114 -34.5 194.5t-89.5 121t-117 40.5z" />
    <glyph glyph-name="colon" unicode=":" horiz-adv-x="512" 
d="M156 837v225h200v-225h-200zM156 0v221h200v-221h-200z" />
    <glyph glyph-name="semicolon" unicode=";" horiz-adv-x="512" 
d="M155 837v225h201v-225h-201zM191 -310l-51 75q112 63 113 226v9h-97v222h201v-230q0 -105 -41.5 -183t-124.5 -119z" />
    <glyph glyph-name="less" unicode="&#x3c;" 
d="M272 722l648 -321v-176l-816 421v155l816 420v-174z" />
    <glyph glyph-name="equal" unicode="=" 
d="M47 862v166h931v-166h-931zM47 418v167h931v-167h-931z" />
    <glyph glyph-name="greater" unicode="&#x3e;" 
d="M104 225v176l648 321l-648 325v174l816 -420v-155z" />
    <glyph glyph-name="question" unicode="?" horiz-adv-x="943" 
d="M863 1121q0 -119 -49 -209t-161 -192q-59 -54 -86 -89t-41.5 -92.5t-15.5 -159.5v-19h-161v70q0 89 17.5 152t59.5 121.5t122 128.5q150 133 150 278q0 67 -26.5 121.5t-76 86t-116.5 31.5q-202 0 -245 -297l-164 20q16 138 72 232t142 140.5t192 46.5q119 0 206.5 -49.5
t134 -133.5t46.5 -187zM329 0v222h201v-222h-201z" />
    <glyph glyph-name="at" unicode="@" horiz-adv-x="1643" 
d="M1582 783q0 -209 -78 -365.5t-198.5 -239t-241.5 -82.5q-129 0 -148 136q-58 -74 -115.5 -105t-132.5 -31q-86 0 -153 48.5t-105 145t-38 235.5q0 180 53 329t146 235t208 86q176 0 247 -174l25 144h155l-101 -606q-12 -71 -21.5 -133t-9.5 -87q0 -56 53 -56
q89 0 162.5 72t115 188t41.5 241q0 175 -74.5 309t-204.5 208t-293 74q-187 0 -340 -95t-241 -265.5t-88 -387.5q0 -206 82 -367.5t232 -252t346 -90.5q308 0 521 199h176q-64 -96 -173.5 -171.5t-246 -117.5t-279.5 -42q-238 0 -418 108.5t-278 300.5t-98 436
q0 250 100 451t282 315.5t420 114.5q205 0 367 -90.5t253 -251.5t91 -366zM539 508q0 -94 23 -154t60 -87t81 -27q131 0 203 187q70 183 70 384q0 103 -46.5 162t-130.5 59q-81 0 -140 -76t-89.5 -196.5t-30.5 -251.5z" />
    <glyph glyph-name="A" unicode="A" horiz-adv-x="1130" 
d="M305 423l-126 -423h-184l469 1466h205l466 -1466h-191l-125 423h-514zM564 1290l-215 -721h428z" />
    <glyph glyph-name="B" unicode="B" horiz-adv-x="1140" 
d="M999 1092q0 -228 -197 -322q248 -74 248 -354q0 -193 -111.5 -304.5t-362.5 -111.5h-414v1466h396q221 0 331 -100t110 -274zM342 838h212q144 0 205 62.5t61 177.5q0 72 -26 122.5t-93 79t-184 28.5h-175v-470zM342 158h202q106 0 176 22t109 80t39 164q0 95 -36.5 151
t-110 80.5t-190.5 24.5h-189v-522z" />
    <glyph glyph-name="C" unicode="C" horiz-adv-x="1140" 
d="M1051 1062l-168 -40q-58 311 -281 311q-169 0 -246 -151t-77 -465q0 -584 324 -584q253 0 295 375l171 -44q-64 -489 -464 -489q-244 0 -376 185t-132 581q0 366 125 558t381 192q382 0 448 -429z" />
    <glyph glyph-name="D" unicode="D" horiz-adv-x="1261" 
d="M1161 741q0 -260 -69.5 -423t-214 -240.5t-374.5 -77.5h-341v1466h341q226 0 368.5 -62.5t216 -221t73.5 -441.5zM342 155h164q182 0 285.5 67.5t145.5 192.5t42 314q0 220 -45 344.5t-143 177.5t-269 53h-180v-1149z" />
    <glyph glyph-name="E" unicode="E" horiz-adv-x="1029" 
d="M342 1308v-474h504v-158h-504v-518h596v-158h-776v1466h748v-158h-568z" />
    <glyph glyph-name="F" unicode="F" horiz-adv-x="937" 
d="M342 1308v-473h447v-158h-447v-677h-180v1466h684v-158h-504z" />
    <glyph glyph-name="G" unicode="G" horiz-adv-x="1263" 
d="M1122 1054l-165 -47q-58 327 -316 327q-362 0 -362 -592q0 -293 90.5 -451t300.5 -158q155 0 288 114v347h-295v158h475v-575q-192 -202 -469 -202q-283 0 -427.5 198.5t-144.5 565.5q0 240 65 409t186.5 256t289.5 87q194 0 319.5 -108.5t164.5 -328.5z" />
    <glyph glyph-name="H" unicode="H" horiz-adv-x="1260" 
d="M918 0v695h-576v-695h-180v1466h180v-616h576v616h180v-1466h-180z" />
    <glyph glyph-name="I" unicode="I" horiz-adv-x="504" 
d="M162 0v1466h180v-1466h-180z" />
    <glyph glyph-name="J" unicode="J" horiz-adv-x="917" 
d="M400 -25q-351 0 -351 443l171 20q1 -112 19 -178.5t56 -96.5t103 -30q66 0 105 29.5t57.5 101.5t18.5 201v1001h180v-998q0 -167 -29 -271.5t-107 -163t-223 -58.5z" />
    <glyph glyph-name="K" unicode="K" horiz-adv-x="1140" 
d="M342 512v-512h-180v1466h180v-719l544 719h212l-454 -573l500 -893h-210l-401 753z" />
    <glyph glyph-name="L" unicode="L" horiz-adv-x="1027" 
d="M966 156v-156h-804v1466h180v-1310h624z" />
    <glyph glyph-name="M" unicode="M" horiz-adv-x="1600" 
d="M1262 0l19 1293l-398 -1293h-165l-393 1285l10 -1285h-173v1466h268l372 -1224l372 1224h264v-1466h-176z" />
    <glyph glyph-name="N" unicode="N" horiz-adv-x="1261" 
d="M905 0l-596 1214h-2l27 -1214h-172v1466h190l597 -1211h2l-25 1211h173v-1466h-194z" />
    <glyph glyph-name="O" unicode="O" horiz-adv-x="1259" 
d="M1162 737q0 -360 -128 -561t-397 -201q-257 0 -398.5 187t-141.5 585q0 365 136.5 554.5t401.5 189.5q164 0 281.5 -81t181.5 -249.5t64 -423.5zM279 718q0 -302 92.5 -443t259.5 -141q349 0 349 592q0 304 -88.5 455.5t-267.5 151.5q-187 0 -266 -156t-79 -459z" />
    <glyph glyph-name="P" unicode="P" horiz-adv-x="1120" 
d="M1043 1032q0 -219 -129 -323t-389 -104h-183v-605h-180v1466h367q256 0 385 -108t129 -326zM342 761h178q175 0 256.5 67.5t81.5 206.5q0 137 -81.5 206t-254.5 69h-180v-549z" />
    <glyph glyph-name="Q" unicode="Q" horiz-adv-x="1259" 
d="M912 51q-115 -76 -275 -76q-257 0 -398.5 187t-141.5 585q0 365 136.5 554.5t401.5 189.5q164 0 281.5 -81t181.5 -249.5t64 -423.5q0 -387 -141 -580q58 -54 96.5 -86t72.5 -50l-73 -133q-48 26 -95 65t-110 98zM779 168q-77 64 -150 93l63 138q89 -32 197 -123
q91 146 91 450t-88.5 455.5t-267.5 151.5q-187 0 -266 -156t-79 -459q0 -302 92.5 -443t259.5 -141q86 0 148 34z" />
    <glyph glyph-name="R" unicode="R" horiz-adv-x="1176" 
d="M1047 1070q0 -101 -35.5 -184t-105 -138t-169.5 -72q58 -21 113.5 -82t100.5 -160l205 -434h-209l-192 409q-51 111 -93.5 162.5t-100.5 68.5t-164 17h-55v-657h-180v1466h408q236 0 356.5 -105t120.5 -291zM863 1062q0 138 -83 193.5t-234 55.5h-204v-499h196
q168 0 246.5 59.5t78.5 190.5z" />
    <glyph glyph-name="S" unicode="S" horiz-adv-x="1131" 
d="M557 1336q-72 0 -127 -28.5t-85 -77.5t-30 -109q0 -54 17.5 -94.5t80.5 -88t191 -102.5q164 -70 258.5 -135.5t136 -139.5t41.5 -172q0 -127 -58.5 -220.5t-163 -143.5t-239.5 -50q-451 0 -491 485l171 15q14 -173 96.5 -259t235.5 -86q85 0 148 33.5t96.5 87.5t33.5 114
q0 68 -27 114.5t-99 92.5t-215 108q-144 62 -228 127t-120 137t-36 163q0 112 53.5 199.5t150 136t221.5 48.5q123 0 219 -51t151.5 -149t59.5 -235l-172 -14q-15 151 -80.5 222.5t-189.5 71.5z" />
    <glyph glyph-name="T" unicode="T" horiz-adv-x="1025" 
d="M600 1309v-1309h-180v1309h-373v157h931v-157h-378z" />
    <glyph glyph-name="U" unicode="U" horiz-adv-x="1259" 
d="M636 -25q-197 0 -300.5 74.5t-138 199.5t-34.5 314v903h180v-901q0 -135 19 -226t81 -148.5t182 -57.5q112 0 175.5 44.5t89.5 137.5t26 250v901h180v-900q0 -190 -37.5 -318t-138.5 -200.5t-284 -72.5z" />
    <glyph glyph-name="V" unicode="V" horiz-adv-x="1131" 
d="M474 0l-469 1466h189l347 -1173q20 -66 24 -90q4 24 24 90l357 1173h180l-473 -1466h-179z" />
    <glyph glyph-name="W" unicode="W" horiz-adv-x="1628" 
d="M1091 0l-277 1274l-284 -1274h-191l-329 1466h184l249 -1221l259 1221h221l261 -1216l260 1216h174l-335 -1466h-192z" />
    <glyph glyph-name="X" unicode="X" horiz-adv-x="1130" 
d="M1124 0h-206l-237 414q-75 131 -111 209q-63 -122 -128 -229l-235 -394h-201l469 770l-398 696h206l192 -348q78 -142 109 -203q46 93 93 171l227 380h183l-410 -683z" />
    <glyph glyph-name="Y" unicode="Y" horiz-adv-x="1134" 
d="M564 790q73 148 140 270l222 406h198l-478 -847v-619h-182v619l-454 847h205l210 -397q79 -149 139 -279z" />
    <glyph glyph-name="Z" unicode="Z" horiz-adv-x="1027" 
d="M375 383q-82 -135 -149 -225h741v-158h-922v158l529 865q118 191 182 285h-625v158h813v-158z" />
    <glyph glyph-name="bracketleft" unicode="[" horiz-adv-x="683" 
d="M373 1317v-1575h217v-149h-397v1873h397v-149h-217z" />
    <glyph glyph-name="backslash" unicode="\" horiz-adv-x="512" 
d="M367 -25l-425 1516h145l424 -1516h-144z" />
    <glyph glyph-name="bracketright" unicode="]" horiz-adv-x="683" 
d="M93 -407v149h217v1575h-217v149h397v-1873h-397z" />
    <glyph glyph-name="asciicircum" unicode="^" horiz-adv-x="933" 
d="M672 665l-207 597l-200 -597h-175l304 801h144l305 -801h-171z" />
    <glyph glyph-name="underscore" unicode="_" 
d="M-12 -256v102h1048v-102h-1048z" />
    <glyph glyph-name="grave" unicode="`" horiz-adv-x="683" 
d="M319 1211l-234 254h234l129 -254h-129z" />
    <glyph glyph-name="a" unicode="a" horiz-adv-x="917" 
d="M792 749v-507q0 -69 13.5 -131.5t42.5 -110.5h-175q-19 39 -35 114q-107 -140 -279 -140q-131 0 -203 79.5t-72 217.5q0 91 33.5 152.5t103.5 103t185 70.5q148 37 217 66v63q0 114 -41 166.5t-123 52.5q-171 0 -181 -197l-166 13q11 162 97 243.5t256 81.5
q161 0 244 -84.5t83 -252.5zM408 456q-84 -26 -122.5 -66.5t-38.5 -114.5q0 -78 39 -122t114 -44q67 0 118 37t78 99.5t27 137.5v142q-66 -23 -215 -69z" />
    <glyph glyph-name="b" unicode="b" horiz-adv-x="1023" 
d="M566 1086q177 0 274.5 -136.5t97.5 -421.5q0 -289 -100 -421t-273 -132q-185 0 -287 158v-133h-150v1466h169v-520q95 140 269 140zM284 527q0 -206 66 -310.5t186 -104.5q130 0 180.5 118t50.5 314q0 201 -56.5 301t-172.5 100q-132 0 -193 -120t-61 -298z" />
    <glyph glyph-name="c" unicode="c" horiz-adv-x="922" 
d="M877 749l-158 -31q-36 230 -221 230q-117 0 -176.5 -104t-59.5 -311q0 -209 60 -314.5t178 -105.5q186 0 228 277l164 -18q-64 -397 -398 -397q-127 0 -219 64.5t-141 187.5t-49 295q0 174 49.5 301t143 195t223.5 68q312 0 376 -337z" />
    <glyph glyph-name="d" unicode="d" 
d="M746 0v133q-101 -158 -287 -158q-178 0 -276 138t-98 401q0 274 87 423t288 149q172 0 267 -140v520h169v-1466h-150zM257 526q0 -414 231 -414q73 0 129 41.5t89 131t33 227.5q0 233 -69 333t-186 100q-107 0 -167 -94t-60 -325z" />
    <glyph glyph-name="e" unicode="e" horiz-adv-x="965" 
d="M886 586q0 -21 -3 -95h-626q7 -379 238 -379q89 0 148.5 60.5t68.5 176.5l166 -15q-10 -103 -55.5 -184t-128 -128t-199.5 -47q-207 0 -308.5 143.5t-101.5 405.5q0 268 103 415t306 147q172 0 282 -116t110 -384zM258 628h464q0 157 -58 239t-176 82q-113 0 -169 -83
t-61 -238z" />
    <glyph glyph-name="f" unicode="f" horiz-adv-x="576" 
d="M493 1338q-54 0 -81.5 -19.5t-37 -54t-9.5 -90.5v-112h203v-130h-203v-932h-169v932h-156v130h156v134q0 295 276 295q68 0 135 -17l-29 -147q-47 11 -85 11z" />
    <glyph glyph-name="g" unicode="g" horiz-adv-x="1023" 
d="M748 929v133h147v-1084q0 -192 -95.5 -300.5t-304.5 -108.5q-379 0 -379 311v23l177 -30v-25q0 -40 24 -72t67.5 -50.5t100.5 -18.5q241 0 241 262v166q-99 -135 -269 -135q-183 0 -277.5 140t-94.5 401q0 240 88 392.5t287 152.5q179 0 288 -157zM257 545
q0 -407 229 -407q119 0 186.5 106t67.5 325q0 131 -35 216.5t-91.5 124.5t-124.5 39q-104 0 -168 -96.5t-64 -307.5z" />
    <glyph glyph-name="h" unicode="h" horiz-adv-x="1025" 
d="M596 1086q145 0 225 -85t80 -276v-725h-169v734q0 105 -42 156.5t-140 51.5q-76 0 -133 -34t-88.5 -100t-31.5 -159v-649h-169v1466h169v-533q120 153 299 153z" />
    <glyph glyph-name="i" unicode="i" horiz-adv-x="425" 
d="M128 1262v204h169v-204h-169zM128 0v1062h169v-1062h-169z" />
    <glyph glyph-name="j" unicode="j" horiz-adv-x="439" 
d="M142 1262v204h169v-204h-169zM55 -436q-63 0 -141 25l34 147q55 -20 87 -20q36 0 59.5 16.5t35.5 59t12 118.5v1152h169v-1174q0 -163 -60.5 -243.5t-195.5 -80.5z" />
    <glyph glyph-name="k" unicode="k" horiz-adv-x="912" 
d="M667 1062h204l-359 -385l381 -677h-189l-301 556l-106 -107v-449h-169v1466h169v-812z" />
    <glyph glyph-name="l" unicode="l" horiz-adv-x="425" 
d="M128 0v1466h169v-1466h-169z" />
    <glyph glyph-name="m" unicode="m" horiz-adv-x="1588" 
d="M1464 723v-723h-169v681q0 137 -43.5 199t-129.5 62q-124 0 -180.5 -100t-56.5 -270v-572h-169v701q0 102 -38.5 170.5t-136.5 68.5q-125 0 -184.5 -98.5t-59.5 -275.5v-566h-169v1062h155v-159q123 183 301 183q97 0 164 -45.5t105 -137.5q125 183 315 183
q138 0 217 -88t79 -275z" />
    <glyph glyph-name="n" unicode="n" horiz-adv-x="1026" 
d="M902 709v-709h-169v707q0 90 -19 141t-59 72.5t-107 21.5q-78 0 -134.5 -37.5t-86.5 -104.5t-30 -156v-644h-169v1062h151v-154q130 178 322 178q146 0 223.5 -86.5t77.5 -290.5z" />
    <glyph glyph-name="o" unicode="o" horiz-adv-x="1025" 
d="M85 543q0 156 48 278.5t144.5 193.5t236.5 71t235.5 -69t143 -193t47.5 -290q0 -261 -107.5 -410t-318.5 -149q-218 0 -323.5 149.5t-105.5 418.5zM510 947q-74 0 -131 -44.5t-89.5 -135.5t-32.5 -227q0 -205 65.5 -315.5t188.5 -110.5q117 0 187 100.5t70 335.5
q0 194 -68.5 295.5t-189.5 101.5z" />
    <glyph glyph-name="p" unicode="p" 
d="M939 548q0 -300 -98 -436.5t-278 -136.5q-174 0 -266 139v-519h-169v1467h150v-134q102 158 287 158q118 0 201.5 -61.5t128 -182t44.5 -294.5zM285 549q0 -225 68 -329.5t186 -104.5q107 0 167.5 94t60.5 326q0 412 -232 412q-115 0 -182.5 -99t-67.5 -299z" />
    <glyph glyph-name="q" unicode="q" 
d="M745 928v134h151v-1467h-169v519q-95 -139 -268 -139q-179 0 -276.5 136.5t-97.5 420.5q0 273 95 413.5t279 140.5q185 0 286 -158zM257 515q0 -203 56.5 -302.5t170.5 -99.5q129 0 192 110.5t63 335.5q0 130 -35 217.5t-92.5 129t-125.5 41.5q-124 0 -176.5 -116
t-52.5 -316z" />
    <glyph glyph-name="r" unicode="r" horiz-adv-x="684" 
d="M498 909q-99 0 -150 -98.5t-51 -283.5v-527h-169v1062h147v-180q53 114 108 159t132 45q93 0 180 -63l-59 -157q-70 43 -138 43z" />
    <glyph glyph-name="s" unicode="s" horiz-adv-x="920" 
d="M459 947q-62 0 -104.5 -20t-62.5 -52t-20 -68q0 -39 19 -67.5t71.5 -58t153.5 -67.5q135 -50 205 -98t94.5 -99.5t24.5 -123.5q0 -91 -43 -163t-126.5 -113.5t-198.5 -41.5q-329 0 -402 317l163 25q20 -102 88.5 -153.5t154.5 -51.5q60 0 105 22t69 59.5t24 82.5
q0 51 -29 83.5t-84.5 57.5t-185.5 73q-105 39 -165 83.5t-85 98.5t-25 125q0 81 44.5 147t125.5 104t187 38q324 0 364 -291l-169 -15q-30 167 -193 167z" />
    <glyph glyph-name="t" unicode="t" horiz-adv-x="564" 
d="M504 1062v-130h-170v-650q0 -76 23 -112.5t86 -36.5q24 0 67 9l24 -142q-62 -17 -120 -17q-127 0 -188 66.5t-61 206.5v676h-125v130h125v264l169 108v-372h170z" />
    <glyph glyph-name="u" unicode="u" horiz-adv-x="1026" 
d="M745 0v155q-122 -176 -315 -176q-160 0 -233 93t-73 293v697h169v-682q0 -92 16.5 -148t57 -83.5t112.5 -27.5q119 0 184.5 91t65.5 248v602h169v-1062h-153z" />
    <glyph glyph-name="v" unicode="v" horiz-adv-x="910" 
d="M376 0l-356 1062h181l204 -634q20 -62 53 -211q33 135 56 208l206 637h170l-360 -1062h-154z" />
    <glyph glyph-name="w" unicode="w" horiz-adv-x="1367" 
d="M869 0l-128 533q-43 178 -61 320q-11 -62 -76 -328l-125 -525h-159l-305 1062h177l166 -616q20 -74 49 -222q24 157 42 228l154 610h172l137 -624q19 -85 41 -227q35 143 54 211l177 640h168l-318 -1062h-165z" />
    <glyph glyph-name="x" unicode="x" horiz-adv-x="917" 
d="M895 0h-194l-167 284q-30 50 -73 135q-13 -27 -38.5 -75t-43.5 -76l-163 -268h-193l344 543l-319 519h189l133 -222q27 -44 91 -163q64 122 86 158l137 227h186l-319 -505z" />
    <glyph glyph-name="y" unicode="y" horiz-adv-x="917" 
d="M235 -431q-41 0 -86 8t-82 20l34 145q60 -21 104 -21q40 0 66 19.5t40 47t26 67.5l46 147l-351 1060h182l257 -811l262 811h168l-421 -1250q-33 -99 -73.5 -152.5t-81.5 -72t-90 -18.5z" />
    <glyph glyph-name="z" unicode="z" horiz-adv-x="789" 
d="M290 266q-36 -54 -96 -129h585v-137h-768v137l406 594q69 100 140 190h-508v141h701v-119z" />
    <glyph glyph-name="braceleft" unicode="{" horiz-adv-x="555" 
d="M366 1081v-199q0 -129 -28.5 -221.5t-120.5 -127.5q92 -37 120.5 -137t28.5 -233v-169q0 -123 11 -177t42.5 -75t103.5 -27v-144h-5q-165 1 -236 95.5t-71 267.5v205q0 128 -13 193t-48 92.5t-106 30.5v155q68 1 104 29t49.5 90.5t13.5 177.5v192q0 134 28 218t96 127.5
t188 46.5v-142q-76 -7 -108 -31.5t-40.5 -74t-8.5 -162.5z" />
    <glyph glyph-name="bar" unicode="|" horiz-adv-x="533" 
d="M188 -407v1873h157v-1873h-157z" />
    <glyph glyph-name="braceright" unicode="}" horiz-adv-x="555" 
d="M344 1099v-192q0 -115 13.5 -177.5t49.5 -90.5t104 -29v-155q-71 -3 -106 -30.5t-48 -92.5t-13 -193v-205q0 -173 -71 -267.5t-236 -95.5h-5v144q72 6 103.5 27t42.5 75t11 177v169q0 133 28.5 231.5t120.5 138.5q-92 38 -120.5 129t-28.5 220v199q0 113 -8.5 162.5
t-40.5 74t-108 31.5v142q120 -3 188 -46.5t96 -127.5t28 -218z" />
    <glyph glyph-name="asciitilde" unicode="~" 
d="M712 577q-50 0 -98.5 16.5t-115.5 50.5q-58 30 -100 44.5t-81 14.5q-117 0 -234 -123v175q123 114 253 114q45 0 93 -16t116 -49q62 -30 103.5 -45t82.5 -15q96 0 209 125v-186q-112 -106 -228 -106z" />
    <glyph glyph-name="Euro" unicode="&#x20ac;" 
d="M290 922h599l-26 -140h-587q-2 -24 -2 -67l1 -47h573l-26 -140h-537q27 -204 115.5 -308.5t227.5 -104.5q170 0 308 145v-192q-64 -47 -139 -70t-175 -23q-126 0 -232 54t-180.5 177.5t-97.5 321.5h-100l26 140h64v39q0 27 2 75h-92l26 140h78q38 275 173 413t350 138
q192 0 340 -136l-43 -147q-133 143 -299 143q-146 0 -232.5 -116.5t-114.5 -294.5z" />
    <glyph glyph-name="quotesinglbase" unicode="&#x201a;" horiz-adv-x="448" 
d="M177 -310l-51 75q113 66 113 232v3h-97v222h201v-230q0 -105 -41.5 -183t-124.5 -119z" />
    <glyph glyph-name="florin" unicode="&#x192;" 
d="M1087 1444l-39 -144q-52 14 -87 20t-64 6q-39 0 -62.5 -14t-41.5 -60t-35 -129l-25 -129h209l-29 -132h-201l-176 -976q-21 -113 -56 -181.5t-93 -102t-147 -33.5q-70 0 -177 24l30 147q75 -20 132 -20q54 0 83 22.5t47 78t38 173.5l149 868h-205l28 132h198l22 130
q23 137 56 214.5t87 112t143 34.5q84 0 216 -41z" />
    <glyph glyph-name="quotedblbase" unicode="&#x201e;" horiz-adv-x="778" 
d="M177 -310l-51 75q113 65 113 229v6h-97v222h201v-230q0 -105 -41.5 -183t-124.5 -119zM507 -310l-51 75q113 65 113 229v6h-96v222h200v-230q0 -105 -41.5 -183t-124.5 -119z" />
    <glyph glyph-name="ellipsis" unicode="&#x2026;" horiz-adv-x="2048" 
d="M241 0v222h201v-222h-201zM924 0v222h201v-222h-201zM1606 0v222h201v-222h-201z" />
    <glyph glyph-name="dagger" unicode="&#x2020;" horiz-adv-x="943" 
d="M855 1022v-159h-302v-1270h-166v1270h-299v159h299v444h166v-444h302z" />
    <glyph glyph-name="daggerdbl" unicode="&#x2021;" horiz-adv-x="943" 
d="M855 1069v-157h-301v-765h301v-157h-301v-397h-166v397h-300v157h300v767h-300v155h300v397h166v-397h301z" />
    <glyph glyph-name="circumflex" unicode="&#x2c6;" horiz-adv-x="683" 
d="M460 1190l-117 158l-125 -158h-176l189 248h213l196 -248h-180z" />
    <glyph glyph-name="perthousand" unicode="&#x2030;" horiz-adv-x="2064" 
d="M589 1094q0 -175 -56 -293t-204 -118q-118 0 -187.5 93t-69.5 304q0 212 64 311.5t196 99.5q122 0 189.5 -100.5t67.5 -296.5zM329 -56l654 1547h134l-658 -1547h-130zM212 1096q0 -125 12 -189.5t37.5 -88.5t70.5 -24q42 0 66.5 26t36.5 90.5t12 181.5q0 151 -28 219
t-89 68q-40 0 -65 -22.5t-39 -84t-14 -176.5zM1372 341q0 -397 -261 -397q-118 0 -187.5 92.5t-69.5 305.5q0 210 64 309t195 99q132 0 195.5 -99t63.5 -310zM1992 341q0 -397 -261 -397q-118 0 -187.5 92.5t-69.5 305.5q0 210 64 309t195 99q132 0 195.5 -99t63.5 -310z
M994 344q0 -121 14.5 -184t40 -84t66.5 -21q60 0 88.5 72.5t28.5 230.5q0 149 -28.5 215t-90.5 66q-40 0 -65.5 -23t-39.5 -87.5t-14 -184.5zM1614 344q0 -121 14.5 -184t40 -84t66.5 -21q60 0 88.5 72.5t28.5 230.5q0 149 -28.5 215t-90.5 66q-40 0 -65.5 -23t-39.5 -87.5
t-14 -184.5z" />
    <glyph glyph-name="Scaron" unicode="&#x160;" horiz-adv-x="1131" 
d="M557 1336q-72 0 -127 -28.5t-85 -77.5t-30 -109q0 -54 17.5 -94.5t80.5 -88t191 -102.5q164 -70 258.5 -135.5t136 -139.5t41.5 -172q0 -127 -58.5 -220.5t-163 -143.5t-239.5 -50q-451 0 -491 485l171 15q14 -173 96.5 -259t235.5 -86q85 0 148 33.5t96.5 87.5t33.5 114
q0 68 -27 114.5t-99 92.5t-215 108q-144 62 -228 127t-120 137t-36 163q0 112 53.5 199.5t150 136t221.5 48.5q123 0 219 -51t151.5 -149t59.5 -235l-172 -14q-15 151 -80.5 222.5t-189.5 71.5zM689 1833h176l-189 -248h-213l-196 248h180l118 -158z" />
    <glyph glyph-name="guilsinglleft" unicode="&#x2039;" horiz-adv-x="576" 
d="M489 72h-137l-266 455l270 454h133l-220 -454z" />
    <glyph glyph-name="OE" unicode="&#x152;" horiz-adv-x="1748" 
d="M882 1314v152h750v-157h-572v-475h509v-162h-509v-513h597v-159h-775v164q-104 -189 -333 -189q-246 0 -349 194.5t-103 552.5q0 220 34 385t134 274.5t285 109.5q220 0 332 -177zM280 719q0 -192 23 -316.5t87 -194t182 -69.5q122 0 189.5 78.5t93 219t25.5 351.5
q0 203 -37 322.5t-105 169.5t-168 50q-117 0 -181 -76.5t-86.5 -208t-22.5 -326.5z" />
    <glyph glyph-name="Zcaron" unicode="&#x17d;" horiz-adv-x="1027" 
d="M375 383q-82 -135 -149 -225h741v-158h-922v158l529 865q118 191 182 285h-625v158h813v-158zM649 1833h176l-189 -248h-213l-196 248h180l118 -158z" />
    <glyph glyph-name="quoteleft" unicode="&#x2018;" horiz-adv-x="412" 
d="M209 1187v-6h97v-222h-201v230q0 103 41.5 180.5t125.5 121.5l50 -76q-113 -63 -113 -228z" />
    <glyph glyph-name="quoteright" unicode="&#x2019;" horiz-adv-x="412" 
d="M142 934l-52 74q113 66 113 229v7h-97v222h201v-230q0 -103 -41.5 -181t-123.5 -121z" />
    <glyph glyph-name="quotedblleft" unicode="&#x201c;" horiz-adv-x="742" 
d="M209 1191v-10h97v-222h-201v230q0 103 41.5 180.5t125.5 121.5l50 -76q-113 -64 -113 -224zM540 1192v-11h96v-222h-201v231q0 104 41.5 181.5t125.5 119.5l50 -76q-112 -65 -112 -223z" />
    <glyph glyph-name="quotedblright" unicode="&#x201d;" horiz-adv-x="742" 
d="M142 934l-52 74q113 65 113 230v6h-97v222h201v-230q0 -103 -41.5 -181t-123.5 -121zM471 934l-51 74q113 65 113 230v6h-96v222h200v-231q0 -105 -41.5 -183t-124.5 -118z" />
    <glyph glyph-name="bullet" unicode="&#x2022;" horiz-adv-x="760" 
d="M630 731q0 -67 -34 -124.5t-91.5 -91.5t-124.5 -34q-68 0 -125.5 33.5t-91 91t-33.5 125.5q0 70 35 127.5t92.5 90t122.5 32.5q66 0 123.5 -33t92 -90.5t34.5 -126.5z" />
    <glyph glyph-name="endash" unicode="&#x2013;" horiz-adv-x="931" 
d="M-4 458v145h939v-145h-939z" />
    <glyph glyph-name="emdash" unicode="&#x2014;" horiz-adv-x="1740" 
d="M-4 458v145h1748v-145h-1748z" />
    <glyph glyph-name="tilde" unicode="&#x2dc;" horiz-adv-x="683" 
d="M484 1202q-48 0 -150 46q-105 47 -131 47q-60 0 -70 -91h-120q0 63 25.5 112t67.5 75.5t86 26.5q60 0 152 -45q91 -45 129 -45q75 0 81 96h115q-5 -81 -33.5 -130.5t-69 -70.5t-82.5 -21z" />
    <glyph glyph-name="trademark" unicode="&#x2122;" horiz-adv-x="1536" 
d="M412 1337v-687h-143v687h-226v129h594v-129h-225zM1235 1462l2 4h236v-816h-146v651l-173 -651h-133l-171 651v-651h-143v816h237l141 -557z" />
    <glyph glyph-name="scaron" unicode="&#x161;" horiz-adv-x="920" 
d="M459 947q-62 0 -104.5 -20t-62.5 -52t-20 -68q0 -39 19 -67.5t71.5 -58t153.5 -67.5q135 -50 205 -98t94.5 -99.5t24.5 -123.5q0 -91 -43 -163t-126.5 -113.5t-198.5 -41.5q-329 0 -402 317l163 25q20 -102 88.5 -153.5t154.5 -51.5q60 0 105 22t69 59.5t24 82.5
q0 51 -29 83.5t-84.5 57.5t-185.5 73q-105 39 -165 83.5t-85 98.5t-25 125q0 81 44.5 147t125.5 104t187 38q324 0 364 -291l-169 -15q-30 167 -193 167zM585 1438h176l-189 -248h-213l-196 248h180l118 -158z" />
    <glyph glyph-name="guilsinglright" unicode="&#x203a;" horiz-adv-x="576" 
d="M222 72h-136l221 455l-221 454h133l270 -454z" />
    <glyph glyph-name="oe" unicode="&#x153;" horiz-adv-x="1484" 
d="M1405 590q0 -39 -3 -96h-565v-61q0 -173 51 -246t149 -73q169 0 191 239l169 -14q-26 -180 -120 -270t-235 -90q-205 0 -294 173q-101 -171 -287 -171q-188 0 -282 130.5t-94 412.5q0 276 92.5 419t280.5 143q200 0 294 -173q88 173 286 173q367 0 367 -496zM837 632h399
v16q0 166 -49.5 235.5t-150.5 69.5q-107 0 -153 -90t-46 -231zM255 546q0 -106 11.5 -196t57.5 -163t140 -73q93 0 139 70t57.5 160.5t11.5 204.5q0 402 -208 402q-68 0 -114 -38t-70.5 -127.5t-24.5 -239.5z" />
    <glyph glyph-name="zcaron" unicode="&#x17e;" horiz-adv-x="789" 
d="M290 266q-36 -54 -96 -129h585v-137h-768v137l406 594q69 100 140 190h-508v141h701v-119zM518 1438h176l-189 -248h-213l-196 248h180l118 -158z" />
    <glyph glyph-name="Ydieresis" unicode="&#x178;" horiz-adv-x="1134" 
d="M564 790q73 148 140 270l222 406h198l-478 -847v-619h-182v619l-454 847h205l210 -397q79 -149 139 -279zM287 1620v206h185v-206h-185zM659 1620v206h187v-206h-187z" />
    <glyph glyph-name="uni00A0" unicode="&#xa0;" horiz-adv-x="565" 
 />
    <glyph glyph-name="exclamdown" unicode="&#xa1;" horiz-adv-x="513" 
d="M219 699h75l59 -775v-328h-194v328zM357 1062v-222h-201v222h201z" />
    <glyph glyph-name="cent" unicode="&#xa2;" horiz-adv-x="922" 
d="M494 -25q-63 0 -115 15l-118 -393l-92 29l118 404l4 -1q-100 61 -153 187t-53 306q0 174 49.5 301t143 195t223.5 68q56 0 100 -10l115 387l96 -26l-118 -395q143 -78 183 -293l-158 -31q-18 115 -71 171l-228 -761q36 -15 80 -15q186 0 228 277l164 -18
q-64 -397 -398 -397zM262 533q0 -237 77 -340l222 747q-30 8 -63 8q-117 0 -176.5 -104t-59.5 -311z" />
    <glyph glyph-name="sterling" unicode="&#xa3;" 
d="M764 -22q-47 0 -87.5 10t-101.5 30q-61 21 -106 31.5t-96 10.5q-130 0 -264 -89l-74 159q235 132 235 389q0 64 -13 132h-198v139h162l-10 32q-25 80 -37.5 134.5t-12.5 108.5q0 123 52.5 219t146.5 149.5t215 53.5q104 0 186 -44t135 -128.5t71 -203.5l-164 -22
q-43 254 -237 254q-65 0 -118.5 -32.5t-84.5 -89.5t-31 -126t13.5 -125.5t40.5 -137.5l14 -42h241v-139h-207q6 -42 6 -89q0 -196 -194 -398q99 38 177 38q40 0 80.5 -9t98.5 -27q54 -16 85 -23t59 -7q49 0 86 10.5t96 37.5l60 -137q-113 -69 -224 -69z" />
    <glyph glyph-name="currency" unicode="&#xa4;" 
d="M837 962q57 -117 57 -240q0 -74 -10 -115.5t-47 -119.5l126 -137l-119 -107l-113 126q-100 -68 -212 -68q-131 0 -223 68l-115 -126l-120 107l129 137q-58 107 -58 233q0 137 58 237l-129 140l115 109l120 -128q100 68 219 68q100 0 215 -68l113 128l120 -109zM288 727
q0 -74 27 -135.5t79 -97t122 -35.5q63 0 113 33t79 93t29 137q0 84 -31 144.5t-82 91t-110 30.5q-62 0 -114 -33.5t-82 -93.5t-30 -134z" />
    <glyph glyph-name="yen" unicode="&#xa5;" 
d="M958 749v-137h-364v-150h364v-137h-364v-325h-164v326h-363v136h363v151h-363v136h298l-366 717h189l246 -485q28 -54 78 -168q45 107 79 173l240 480h194l-366 -717h299z" />
    <glyph glyph-name="brokenbar" unicode="&#xa6;" horiz-adv-x="533" 
d="M188 701v765h157v-765h-157zM188 -407v767h157v-767h-157z" />
    <glyph glyph-name="section" unicode="&#xa7;" 
d="M859 1147l-171 -17q-11 111 -59 165.5t-134 54.5q-45 0 -80.5 -19.5t-55 -53t-19.5 -73.5q0 -48 30 -93t88.5 -94.5t166.5 -127.5q107 -77 173.5 -138t104.5 -126.5t38 -138.5q0 -200 -242 -303q183 -153 183 -307q0 -89 -45.5 -160t-127 -111.5t-186.5 -40.5
q-319 0 -385 367l172 24q36 -250 221 -250q48 0 89.5 18.5t66.5 52.5t25 80t-20 85t-84 97t-195 151q-111 77 -181.5 141t-109.5 135t-39 154q0 196 236 298q-146 118 -146 280q0 81 40.5 148t113.5 106.5t166 39.5q165 0 257 -92t109 -252zM241 640q0 -59 38 -111.5
t118 -115.5l149 -112l71 -53q165 97 165 206q0 56 -42.5 113t-127.5 124q-59 48 -215 157q-156 -77 -156 -208z" />
    <glyph glyph-name="dieresis" unicode="&#xa8;" horiz-adv-x="683" 
d="M62 1225v206h185v-206h-185zM434 1225v206h187v-206h-187z" />
    <glyph glyph-name="copyright" unicode="&#xa9;" horiz-adv-x="1643" 
d="M1576 736q0 -199 -100.5 -372.5t-273.5 -277.5t-380 -104q-200 0 -374 100t-277.5 273t-103.5 381q0 200 100 374t273.5 277.5t381.5 103.5q207 0 380 -104t273.5 -278t100.5 -373zM192 736q0 -167 83.5 -312t228 -231t318.5 -86q167 0 311.5 83.5t231 228t86.5 317.5
q0 180 -90 324.5t-236 225t-306 80.5q-166 0 -310 -84.5t-230.5 -229t-86.5 -316.5zM1172 924l-119 -29q-31 77 -87 115t-139 38q-84 0 -143.5 -41t-90 -112.5t-30.5 -161.5q0 -148 67.5 -230t185.5 -82q56 0 108 23.5t89 67t51 102.5l123 -36q-18 -82 -70 -144t-128.5 -96
t-165.5 -34q-126 0 -215.5 56t-135 153.5t-45.5 220.5q0 132 48.5 228t139.5 147t216 51q135 0 222 -65.5t119 -170.5z" />
    <glyph glyph-name="ordfeminine" unicode="&#xaa;" horiz-adv-x="619" 
d="M536 1175l-1 -217q0 -121 52 -198h-141q-20 37 -31 91q-86 -104 -188 -104q-46 0 -87.5 22.5t-67 67t-25.5 105.5q0 160 148 209q150 50 206 78v9q0 69 -24 102.5t-69 33.5q-46 0 -71 -30.5t-30 -94.5l-131 13q29 229 230 229q95 0 145 -38t67.5 -105t17.5 -173z
M278 1065q-97 -36 -97 -120t78 -84q36 0 68.5 21t53 64.5t20.5 106.5v61q-22 -12 -123 -49z" />
    <glyph glyph-name="guillemotleft" unicode="&#xab;" 
d="M532 72h-137l-266 455l270 454h133l-220 -454zM895 72h-137l-266 455l270 454h133l-220 -454z" />
    <glyph glyph-name="logicalnot" unicode="&#xac;" 
d="M810 436v408h-763v166h930v-574h-167z" />
    <glyph glyph-name="uni00AD" unicode="&#xad;" horiz-adv-x="683" 
d="M65 440v181h553v-181h-553z" />
    <glyph glyph-name="registered" unicode="&#xae;" horiz-adv-x="1643" 
d="M1576 736q0 -199 -100.5 -372.5t-273.5 -277.5t-380 -104q-200 0 -374 100t-277.5 273t-103.5 381q0 200 100 374t273.5 277.5t381.5 103.5q207 0 380 -104t273.5 -278t100.5 -373zM192 736q0 -167 83.5 -312t228 -231t318.5 -86q167 0 311.5 83.5t231 228t86.5 317.5
q0 180 -90 324.5t-236 225t-306 80.5q-166 0 -310 -84.5t-230.5 -229t-86.5 -316.5zM1117 911q0 -57 -28.5 -107.5t-81 -83.5t-121.5 -38q38 -12 86 -64.5t101 -137.5l100 -161h-160l-72 128q-55 99 -92 143.5t-77 60t-108 15.5h-42v-347h-131v812h326q128 0 214 -51
t86 -169zM978 899q0 65 -44 93.5t-130 28.5h-182v-245h186q77 0 123.5 31.5t46.5 91.5z" />
    <glyph glyph-name="glyph140" horiz-adv-x="683" 
d="M85 1235v130h512v-130h-512z" />
    <glyph glyph-name="degree" unicode="&#xb0;" horiz-adv-x="811" 
d="M128 1194q0 74 38 138t102 101.5t137 37.5q75 0 139 -37.5t101.5 -101t37.5 -138.5q0 -74 -37.5 -138t-101 -102t-139.5 -38t-139.5 38.5t-100.5 102.5t-37 137zM404 1363q-44 0 -82.5 -23t-61.5 -62t-23 -84q0 -46 22.5 -85t61.5 -61.5t84 -22.5q46 0 85.5 23t61.5 61.5
t22 84.5q0 45 -23 84t-62 62t-85 23z" />
    <glyph glyph-name="plusminus" unicode="&#xb1;" 
d="M978 925v-167h-381v-402h-168v402h-382v167h382v403h168v-403h381zM47 119v166h931v-166h-931z" />
    <glyph glyph-name="uni00B2" unicode="&#xb2;" horiz-adv-x="619" 
d="M73 741q4 53 35 108t73.5 105t109.5 121l33 36q87 93 87 171q0 41 -21.5 70t-61.5 29q-42 0 -67 -28.5t-34 -87.5l-140 15q42 211 238 211q67 0 118 -28t78.5 -76t27.5 -106q0 -61 -33.5 -122.5t-102.5 -131.5q-61 -63 -100 -108.5t-52 -67.5h289v-110h-477z" />
    <glyph glyph-name="uni00B3" unicode="&#xb3;" horiz-adv-x="619" 
d="M538 952q0 -69 -31 -120t-85 -78.5t-119 -27.5q-93 0 -153 52t-82 153l139 14q8 -54 32 -80t65 -26q44 0 72 33t28 82q0 59 -33 95.5t-94 36.5h-65l17 101q67 0 101.5 30.5t34.5 82.5q0 83 -70 83t-84 -98l-134 24q23 91 78 136.5t140 45.5q95 0 151.5 -50.5t56.5 -133.5
q0 -99 -90 -158q125 -55 125 -197z" />
    <glyph glyph-name="acute" unicode="&#xb4;" horiz-adv-x="683" 
d="M242 1211l128 254h235l-235 -254h-128z" />
    <glyph glyph-name="uni00B5" unicode="&#xb5;" horiz-adv-x="1030" 
d="M743 0v137q-41 -83 -94.5 -120.5t-138.5 -37.5q-80 0 -128.5 34t-83.5 99v-518h-170v1468h169v-592q0 -168 55 -258.5t155 -90.5q69 0 120 44.5t78.5 123.5t27.5 181v592h169v-1062h-159z" />
    <glyph glyph-name="paragraph" unicode="&#xb6;" horiz-adv-x="1159" 
d="M1020 1309v-1715h-149v1715h-202v-1715h-149v1016h-50q-112 0 -206 54t-149 152.5t-55 225.5q0 138 61.5 233t175.5 143t272 48h560v-157h-109z" />
    <glyph glyph-name="periodcentered" unicode="&#xb7;" horiz-adv-x="512" 
d="M156 612v222h201v-222h-201z" />
    <glyph glyph-name="cedilla" unicode="&#xb8;" horiz-adv-x="683" 
d="M538 -239q0 -95 -75.5 -144t-208.5 -49q-56 0 -108 12l13 112q40 -5 71 -5q162 0 162 80q0 79 -163 79l54 179h122l-35 -117q168 -23 168 -147z" />
    <glyph glyph-name="uni00B9" unicode="&#xb9;" horiz-adv-x="619" 
d="M302 741v548q-60 -60 -167 -104v119q137 68 203 187h95v-750h-131z" />
    <glyph glyph-name="ordmasculine" unicode="&#xba;" horiz-adv-x="619" 
d="M571 1122q0 -120 -34 -206t-93.5 -130.5t-136.5 -44.5t-138.5 43.5t-97 128t-35.5 203.5q0 108 31 193t91 133.5t144 48.5q83 0 143.5 -45.5t93 -129t32.5 -194.5zM170 1115q0 -109 35.5 -178.5t103.5 -69.5q65 0 97 62.5t32 189.5q0 246 -138 246q-62 0 -96 -58.5
t-34 -191.5z" />
    <glyph glyph-name="guillemotright" unicode="&#xbb;" 
d="M265 72h-136l221 455l-221 454h133l270 -454zM628 72h-136l221 455l-221 454h133l270 -454z" />
    <glyph glyph-name="onequarter" unicode="&#xbc;" horiz-adv-x="1540" 
d="M302 741v548q-60 -60 -167 -104v119q137 68 203 187h95v-750h-131zM312 -57l822 1548h133l-817 -1548h-138zM1431 262h78v-112h-78v-150h-129v150h-326v114l343 484h112v-486zM1302 262v283l-199 -283h199z" />
    <glyph glyph-name="onehalf" unicode="&#xbd;" horiz-adv-x="1579" 
d="M302 741v548q-60 -60 -167 -104v119q137 68 203 187h95v-750h-131zM312 -57l822 1548h133l-817 -1548h-138zM1033 0q4 53 35 108t73.5 105t109.5 121l33 36q87 93 87 171q0 41 -21.5 70t-61.5 29q-42 0 -67 -28.5t-34 -87.5l-140 15q42 211 238 211q67 0 118 -28
t78.5 -76t27.5 -106q0 -61 -33.5 -122.5t-102.5 -131.5q-61 -63 -100 -108.5t-52 -67.5h289v-110h-477z" />
    <glyph glyph-name="threequarters" unicode="&#xbe;" horiz-adv-x="1540" 
d="M538 952q0 -69 -31 -120t-85 -78.5t-119 -27.5q-93 0 -153 52t-82 153l139 14q8 -54 32 -80t65 -26q44 0 72 33t28 82q0 59 -33 95.5t-94 36.5h-65l17 101q67 0 101.5 30.5t34.5 82.5q0 83 -70 83t-84 -98l-134 24q23 91 78 136.5t140 45.5q95 0 151.5 -50.5t56.5 -133.5
q0 -99 -90 -158q125 -55 125 -197zM312 -57l822 1548h133l-817 -1548h-138zM1431 262h78v-112h-78v-150h-129v150h-326v114l343 484h112v-486zM1302 262v283l-199 -283h199z" />
    <glyph glyph-name="questiondown" unicode="&#xbf;" horiz-adv-x="943" 
d="M80 -59q0 119 49 209t161 192q59 54 86 89t41.5 92.5t15.5 159.5v19h161v-70q0 -89 -17.5 -152t-59.5 -121.5t-122 -128.5q-150 -133 -150 -278q0 -67 26.5 -121.5t76 -86t116.5 -31.5q202 0 245 297l164 -20q-16 -138 -72 -232t-142 -140.5t-192 -46.5
q-119 0 -206.5 49.5t-134 133.5t-46.5 187zM614 1062v-222h-201v222h201z" />
    <glyph glyph-name="Agrave" unicode="&#xc0;" horiz-adv-x="1130" 
d="M305 423l-126 -423h-184l469 1466h205l466 -1466h-191l-125 423h-514zM564 1290l-215 -721h428zM547 1606l-234 254h234l129 -254h-129z" />
    <glyph glyph-name="Aacute" unicode="&#xc1;" horiz-adv-x="1130" 
d="M305 423l-126 -423h-184l469 1466h205l466 -1466h-191l-125 423h-514zM564 1290l-215 -721h428zM433 1606l128 254h235l-235 -254h-128z" />
    <glyph glyph-name="Acircumflex" unicode="&#xc2;" horiz-adv-x="1130" 
d="M305 423l-126 -423h-184l469 1466h205l466 -1466h-191l-125 423h-514zM564 1290l-215 -721h428zM684 1585l-117 158l-125 -158h-176l189 248h213l196 -248h-180z" />
    <glyph glyph-name="Atilde" unicode="&#xc3;" horiz-adv-x="1130" 
d="M305 423l-126 -423h-184l469 1466h205l466 -1466h-191l-125 423h-514zM564 1290l-215 -721h428zM708 1597q-48 0 -150 46q-105 47 -131 47q-60 0 -70 -91h-120q0 63 25.5 112t67.5 75.5t86 26.5q60 0 152 -45q91 -45 129 -45q75 0 81 96h115q-5 -81 -33.5 -130.5
t-69 -70.5t-82.5 -21z" />
    <glyph glyph-name="Adieresis" unicode="&#xc4;" horiz-adv-x="1130" 
d="M305 423l-126 -423h-184l469 1466h205l466 -1466h-191l-125 423h-514zM564 1290l-215 -721h428zM285 1620v206h185v-206h-185zM657 1620v206h187v-206h-187z" />
    <glyph glyph-name="Aring" unicode="&#xc5;" horiz-adv-x="1130" 
d="M305 423l-126 -423h-184l451 1410q-47 31 -74.5 80.5t-27.5 106.5q0 59 30 110t81 81t110 30t110 -30t81 -81t30 -110q0 -57 -27 -105.5t-73 -79.5l449 -1412h-191l-125 423h-514zM434 1597q0 -35 18 -65.5t48 -48t65 -17.5t65.5 18t48.5 48t18 65q0 36 -18 66
t-48.5 47.5t-66.5 17.5q-34 0 -64 -18t-48 -48t-18 -65zM564 1290l-215 -721h428z" />
    <glyph glyph-name="AE" unicode="&#xc6;" horiz-adv-x="1710" 
d="M1022 1308v-474h505v-158h-505v-518h597v-158h-777v448h-479l-174 -448h-189l573 1466h1018v-158h-569zM842 595v713h-144l-277 -713h421z" />
    <glyph glyph-name="Ccedilla" unicode="&#xc7;" horiz-adv-x="1140" 
d="M624 -25l-20 -67q168 -22 168 -147q0 -95 -75.5 -144t-208.5 -49q-56 0 -108 12l13 112q40 -5 71 -5q162 0 162 80q0 79 -163 79l41 137q-407 72 -407 758q0 366 125 558t381 192q382 0 448 -429l-168 -40q-58 311 -281 311q-169 0 -246 -151t-77 -465q0 -584 324 -584
q253 0 295 375l171 -44q-63 -477 -445 -489z" />
    <glyph glyph-name="Egrave" unicode="&#xc8;" horiz-adv-x="1029" 
d="M342 1308v-474h504v-158h-504v-518h596v-158h-776v1466h748v-158h-568zM530 1606l-234 254h234l129 -254h-129z" />
    <glyph glyph-name="Eacute" unicode="&#xc9;" horiz-adv-x="1029" 
d="M342 1308v-474h504v-158h-504v-518h596v-158h-776v1466h748v-158h-568zM416 1606l128 254h235l-235 -254h-128z" />
    <glyph glyph-name="Ecircumflex" unicode="&#xca;" horiz-adv-x="1029" 
d="M342 1308v-474h504v-158h-504v-518h596v-158h-776v1466h748v-158h-568zM667 1585l-117 158l-125 -158h-176l189 248h213l196 -248h-180z" />
    <glyph glyph-name="Edieresis" unicode="&#xcb;" horiz-adv-x="1029" 
d="M342 1308v-474h504v-158h-504v-518h596v-158h-776v1466h748v-158h-568zM268 1620v206h185v-206h-185zM640 1620v206h187v-206h-187z" />
    <glyph glyph-name="Igrave" unicode="&#xcc;" horiz-adv-x="504" 
d="M162 0v1466h180v-1466h-180zM234 1606l-234 254h234l129 -254h-129z" />
    <glyph glyph-name="Iacute" unicode="&#xcd;" horiz-adv-x="504" 
d="M162 0v1466h180v-1466h-180zM120 1606l128 254h235l-235 -254h-128z" />
    <glyph glyph-name="Icircumflex" unicode="&#xce;" horiz-adv-x="504" 
d="M162 0v1466h180v-1466h-180zM371 1585l-117 158l-125 -158h-176l189 248h213l196 -248h-180z" />
    <glyph glyph-name="Idieresis" unicode="&#xcf;" horiz-adv-x="504" 
d="M162 0v1466h180v-1466h-180zM-28 1620v206h185v-206h-185zM344 1620v206h187v-206h-187z" />
    <glyph glyph-name="Eth" unicode="&#xd0;" horiz-adv-x="1261" 
d="M1161 741q0 -260 -69.5 -423t-214 -240.5t-374.5 -77.5h-341v672h-158v120h158v674h341q226 0 368.5 -62.5t216 -221t73.5 -441.5zM979 729q0 220 -45 344.5t-143 177.5t-269 53h-180v-512h321v-120h-321v-517h164q182 0 285.5 67.5t145.5 192.5t42 314z" />
    <glyph glyph-name="Ntilde" unicode="&#xd1;" horiz-adv-x="1261" 
d="M905 0l-596 1214h-2l27 -1214h-172v1466h190l597 -1211h2l-25 1211h173v-1466h-194zM794 1597q-48 0 -150 46q-105 47 -131 47q-60 0 -70 -91h-120q0 63 25.5 112t67.5 75.5t86 26.5q60 0 152 -45q91 -45 129 -45q75 0 81 96h115q-5 -81 -33.5 -130.5t-69 -70.5
t-82.5 -21z" />
    <glyph glyph-name="Ograve" unicode="&#xd2;" horiz-adv-x="1259" 
d="M1162 737q0 -360 -128 -561t-397 -201q-257 0 -398.5 187t-141.5 585q0 365 136.5 554.5t401.5 189.5q164 0 281.5 -81t181.5 -249.5t64 -423.5zM279 718q0 -302 92.5 -443t259.5 -141q349 0 349 592q0 304 -88.5 455.5t-267.5 151.5q-187 0 -266 -156t-79 -459z
M612 1606l-234 254h234l129 -254h-129z" />
    <glyph glyph-name="Oacute" unicode="&#xd3;" horiz-adv-x="1259" 
d="M1162 737q0 -360 -128 -561t-397 -201q-257 0 -398.5 187t-141.5 585q0 365 136.5 554.5t401.5 189.5q164 0 281.5 -81t181.5 -249.5t64 -423.5zM279 718q0 -302 92.5 -443t259.5 -141q349 0 349 592q0 304 -88.5 455.5t-267.5 151.5q-187 0 -266 -156t-79 -459z
M498 1606l128 254h235l-235 -254h-128z" />
    <glyph glyph-name="Ocircumflex" unicode="&#xd4;" horiz-adv-x="1259" 
d="M1162 737q0 -360 -128 -561t-397 -201q-257 0 -398.5 187t-141.5 585q0 365 136.5 554.5t401.5 189.5q164 0 281.5 -81t181.5 -249.5t64 -423.5zM279 718q0 -302 92.5 -443t259.5 -141q349 0 349 592q0 304 -88.5 455.5t-267.5 151.5q-187 0 -266 -156t-79 -459z
M749 1585l-117 158l-125 -158h-176l189 248h213l196 -248h-180z" />
    <glyph glyph-name="Otilde" unicode="&#xd5;" horiz-adv-x="1259" 
d="M1162 737q0 -360 -128 -561t-397 -201q-257 0 -398.5 187t-141.5 585q0 365 136.5 554.5t401.5 189.5q164 0 281.5 -81t181.5 -249.5t64 -423.5zM279 718q0 -302 92.5 -443t259.5 -141q349 0 349 592q0 304 -88.5 455.5t-267.5 151.5q-187 0 -266 -156t-79 -459z
M773 1597q-48 0 -150 46q-105 47 -131 47q-60 0 -70 -91h-120q0 63 25.5 112t67.5 75.5t86 26.5q60 0 152 -45q91 -45 129 -45q75 0 81 96h115q-5 -81 -33.5 -130.5t-69 -70.5t-82.5 -21z" />
    <glyph glyph-name="Odieresis" unicode="&#xd6;" horiz-adv-x="1259" 
d="M1162 737q0 -360 -128 -561t-397 -201q-257 0 -398.5 187t-141.5 585q0 365 136.5 554.5t401.5 189.5q164 0 281.5 -81t181.5 -249.5t64 -423.5zM279 718q0 -302 92.5 -443t259.5 -141q349 0 349 592q0 304 -88.5 455.5t-267.5 151.5q-187 0 -266 -156t-79 -459z
M350 1620v206h185v-206h-185zM722 1620v206h187v-206h-187z" />
    <glyph glyph-name="multiply" unicode="&#xd7;" 
d="M792 1221l130 -99l-313 -399l308 -391l-131 -101l-280 358l-282 -358l-128 101l305 391l-305 390l128 108l282 -363z" />
    <glyph glyph-name="Oslash" unicode="&#xd8;" horiz-adv-x="1259" 
d="M1162 737q0 -360 -128 -561t-397 -201q-219 0 -350 131l-111 -165l-101 69l134 198q-112 193 -112 539q0 365 136.5 554.5t401.5 189.5q216 0 346 -137l109 161l99 -68l-132 -197q105 -187 105 -513zM324 379l555 823q-89 131 -255 131q-187 0 -266 -156t-79 -459
q0 -206 45 -339zM938 1074l-552 -821q89 -119 245 -119q349 0 349 592q0 210 -42 348z" />
    <glyph glyph-name="Ugrave" unicode="&#xd9;" horiz-adv-x="1259" 
d="M636 -25q-197 0 -300.5 74.5t-138 199.5t-34.5 314v903h180v-901q0 -135 19 -226t81 -148.5t182 -57.5q112 0 175.5 44.5t89.5 137.5t26 250v901h180v-900q0 -190 -37.5 -318t-138.5 -200.5t-284 -72.5zM612 1606l-234 254h234l129 -254h-129z" />
    <glyph glyph-name="Uacute" unicode="&#xda;" horiz-adv-x="1259" 
d="M636 -25q-197 0 -300.5 74.5t-138 199.5t-34.5 314v903h180v-901q0 -135 19 -226t81 -148.5t182 -57.5q112 0 175.5 44.5t89.5 137.5t26 250v901h180v-900q0 -190 -37.5 -318t-138.5 -200.5t-284 -72.5zM498 1606l128 254h235l-235 -254h-128z" />
    <glyph glyph-name="Ucircumflex" unicode="&#xdb;" horiz-adv-x="1259" 
d="M636 -25q-197 0 -300.5 74.5t-138 199.5t-34.5 314v903h180v-901q0 -135 19 -226t81 -148.5t182 -57.5q112 0 175.5 44.5t89.5 137.5t26 250v901h180v-900q0 -190 -37.5 -318t-138.5 -200.5t-284 -72.5zM749 1585l-117 158l-125 -158h-176l189 248h213l196 -248h-180z
" />
    <glyph glyph-name="Udieresis" unicode="&#xdc;" horiz-adv-x="1259" 
d="M636 -25q-197 0 -300.5 74.5t-138 199.5t-34.5 314v903h180v-901q0 -135 19 -226t81 -148.5t182 -57.5q112 0 175.5 44.5t89.5 137.5t26 250v901h180v-900q0 -190 -37.5 -318t-138.5 -200.5t-284 -72.5zM350 1620v206h185v-206h-185zM722 1620v206h187v-206h-187z" />
    <glyph glyph-name="Yacute" unicode="&#xdd;" horiz-adv-x="1134" 
d="M564 790q73 148 140 270l222 406h198l-478 -847v-619h-182v619l-454 847h205l210 -397q79 -149 139 -279zM435 1606l128 254h235l-235 -254h-128z" />
    <glyph glyph-name="Thorn" unicode="&#xde;" horiz-adv-x="1120" 
d="M1043 729q0 -219 -129 -323t-389 -104h-183v-302h-180v1466h180v-303h197q234 0 369 -103t135 -331zM858 732q0 137 -81.5 206t-254.5 69h-180v-549h178q175 0 256.5 67.5t81.5 206.5z" />
    <glyph glyph-name="germandbls" unicode="&#xdf;" horiz-adv-x="1033" 
d="M801 1232q0 -75 -24 -140t-68 -148q-27 -52 -39.5 -81t-12.5 -54q0 -42 33.5 -86.5t104.5 -117.5q63 -65 102 -111.5t67 -103t28 -115.5q0 -94 -41.5 -162t-111.5 -103t-155 -35q-107 0 -182.5 55.5t-132.5 171.5l148 67q64 -157 164 -157q38 0 70 19.5t50.5 52
t18.5 71.5q0 49 -22.5 95t-55.5 84t-88 93t-88.5 93t-56 83.5t-22.5 95.5q0 39 17 80.5t51 103.5q38 70 57.5 119t19.5 99q0 40 -20 73.5t-56 54t-82 20.5q-83 0 -129.5 -63t-46.5 -187v-1099h-170v1057q0 207 77 320.5t270 113.5q98 0 172.5 -36t114 -95.5t39.5 -127.5z
" />
    <glyph glyph-name="agrave" unicode="&#xe0;" horiz-adv-x="917" 
d="M792 749v-507q0 -69 13.5 -131.5t42.5 -110.5h-175q-19 39 -35 114q-107 -140 -279 -140q-131 0 -203 79.5t-72 217.5q0 91 33.5 152.5t103.5 103t185 70.5q148 37 217 66v63q0 114 -41 166.5t-123 52.5q-171 0 -181 -197l-166 13q11 162 97 243.5t256 81.5
q161 0 244 -84.5t83 -252.5zM408 456q-84 -26 -122.5 -66.5t-38.5 -114.5q0 -78 39 -122t114 -44q67 0 118 37t78 99.5t27 137.5v142q-66 -23 -215 -69zM481 1211l-234 254h234l129 -254h-129z" />
    <glyph glyph-name="aacute" unicode="&#xe1;" horiz-adv-x="917" 
d="M792 749v-507q0 -69 13.5 -131.5t42.5 -110.5h-175q-19 39 -35 114q-107 -140 -279 -140q-131 0 -203 79.5t-72 217.5q0 91 33.5 152.5t103.5 103t185 70.5q148 37 217 66v63q0 114 -41 166.5t-123 52.5q-171 0 -181 -197l-166 13q11 162 97 243.5t256 81.5
q161 0 244 -84.5t83 -252.5zM408 456q-84 -26 -122.5 -66.5t-38.5 -114.5q0 -78 39 -122t114 -44q67 0 118 37t78 99.5t27 137.5v142q-66 -23 -215 -69zM327 1211l128 254h235l-235 -254h-128z" />
    <glyph glyph-name="acircumflex" unicode="&#xe2;" horiz-adv-x="917" 
d="M792 749v-507q0 -69 13.5 -131.5t42.5 -110.5h-175q-19 39 -35 114q-107 -140 -279 -140q-131 0 -203 79.5t-72 217.5q0 91 33.5 152.5t103.5 103t185 70.5q148 37 217 66v63q0 114 -41 166.5t-123 52.5q-171 0 -181 -197l-166 13q11 162 97 243.5t256 81.5
q161 0 244 -84.5t83 -252.5zM408 456q-84 -26 -122.5 -66.5t-38.5 -114.5q0 -78 39 -122t114 -44q67 0 118 37t78 99.5t27 137.5v142q-66 -23 -215 -69zM578 1190l-117 158l-125 -158h-176l189 248h213l196 -248h-180z" />
    <glyph glyph-name="atilde" unicode="&#xe3;" horiz-adv-x="917" 
d="M792 749v-507q0 -69 13.5 -131.5t42.5 -110.5h-175q-19 39 -35 114q-107 -140 -279 -140q-131 0 -203 79.5t-72 217.5q0 91 33.5 152.5t103.5 103t185 70.5q148 37 217 66v63q0 114 -41 166.5t-123 52.5q-171 0 -181 -197l-166 13q11 162 97 243.5t256 81.5
q161 0 244 -84.5t83 -252.5zM408 456q-84 -26 -122.5 -66.5t-38.5 -114.5q0 -78 39 -122t114 -44q67 0 118 37t78 99.5t27 137.5v142q-66 -23 -215 -69zM602 1202q-48 0 -150 46q-105 47 -131 47q-60 0 -70 -91h-120q0 63 25.5 112t67.5 75.5t86 26.5q60 0 152 -45
q91 -45 129 -45q75 0 81 96h115q-5 -81 -33.5 -130.5t-69 -70.5t-82.5 -21z" />
    <glyph glyph-name="adieresis" unicode="&#xe4;" horiz-adv-x="917" 
d="M792 749v-507q0 -69 13.5 -131.5t42.5 -110.5h-175q-19 39 -35 114q-107 -140 -279 -140q-131 0 -203 79.5t-72 217.5q0 91 33.5 152.5t103.5 103t185 70.5q148 37 217 66v63q0 114 -41 166.5t-123 52.5q-171 0 -181 -197l-166 13q11 162 97 243.5t256 81.5
q161 0 244 -84.5t83 -252.5zM408 456q-84 -26 -122.5 -66.5t-38.5 -114.5q0 -78 39 -122t114 -44q67 0 118 37t78 99.5t27 137.5v142q-66 -23 -215 -69zM179 1225v206h185v-206h-185zM551 1225v206h187v-206h-187z" />
    <glyph glyph-name="aring" unicode="&#xe5;" horiz-adv-x="917" 
d="M792 749v-507q0 -69 13.5 -131.5t42.5 -110.5h-175q-19 39 -35 114q-107 -140 -279 -140q-131 0 -203 79.5t-72 217.5q0 91 33.5 152.5t103.5 103t185 70.5q148 37 217 66v63q0 114 -41 166.5t-123 52.5q-171 0 -181 -197l-166 13q11 162 97 243.5t256 81.5
q161 0 244 -84.5t83 -252.5zM408 456q-84 -26 -122.5 -66.5t-38.5 -114.5q0 -78 39 -122t114 -44q67 0 118 37t78 99.5t27 137.5v142q-66 -23 -215 -69zM258 1397q0 54 27.5 100t73.5 73.5t100 27.5t100.5 -27t73.5 -73.5t27 -100.5q0 -55 -27 -101t-73.5 -73.5
t-100.5 -27.5t-100.5 27.5t-73.5 73.5t-27 101zM458 1516q-31 0 -58.5 -16t-43.5 -43.5t-16 -59.5q0 -49 35 -84t84 -35q32 0 59.5 16.5t44 44t16.5 58.5q0 50 -36 84.5t-85 34.5z" />
    <glyph glyph-name="ae" unicode="&#xe6;" horiz-adv-x="1384" 
d="M1305 594q0 -23 -3 -104h-536v-40q0 -112 11.5 -181.5t51.5 -112t120 -42.5q156 0 180 232l167 -13q-26 -179 -113 -268.5t-236 -89.5q-90 0 -162 39t-124 131q-62 -84 -137 -127t-160 -43q-89 0 -152 38.5t-95.5 105t-32.5 149.5q0 136 68.5 213t226.5 111
q165 36 220 65v80q0 109 -36 157.5t-120 48.5q-87 0 -127 -44.5t-45 -150.5l-167 11q17 327 354 327q168 0 243 -122q52 65 115 93.5t140 28.5q100 0 178.5 -55t124.5 -165.5t46 -271.5zM766 640v-12h370v10q0 303 -188 303q-91 0 -136.5 -78.5t-45.5 -222.5zM443 467
q-101 -26 -150.5 -71.5t-49.5 -126.5q0 -66 40.5 -110t110.5 -44q88 0 132.5 47.5t58.5 125.5t14 198v35q-57 -28 -156 -54z" />
    <glyph glyph-name="ccedilla" unicode="&#xe7;" horiz-adv-x="922" 
d="M541 -23l-21 -69q168 -23 168 -147q0 -95 -75.5 -144t-208.5 -49q-56 0 -108 12l13 112q40 -5 71 -5q162 0 162 80q0 79 -163 79l41 135q-105 18 -180.5 87t-115 184.5t-39.5 269.5q0 174 49.5 301t143 195t223.5 68q312 0 376 -337l-158 -31q-36 230 -221 230
q-117 0 -176.5 -104t-59.5 -311q0 -209 60 -314.5t178 -105.5q186 0 228 277l164 -18q-60 -368 -351 -395z" />
    <glyph glyph-name="egrave" unicode="&#xe8;" horiz-adv-x="965" 
d="M886 586q0 -21 -3 -95h-626q7 -379 238 -379q89 0 148.5 60.5t68.5 176.5l166 -15q-10 -103 -55.5 -184t-128 -128t-199.5 -47q-207 0 -308.5 143.5t-101.5 405.5q0 268 103 415t306 147q172 0 282 -116t110 -384zM258 628h464q0 157 -58 239t-176 82q-113 0 -169 -83
t-61 -238zM505 1211l-234 254h234l129 -254h-129z" />
    <glyph glyph-name="eacute" unicode="&#xe9;" horiz-adv-x="965" 
d="M886 586q0 -21 -3 -95h-626q7 -379 238 -379q89 0 148.5 60.5t68.5 176.5l166 -15q-10 -103 -55.5 -184t-128 -128t-199.5 -47q-207 0 -308.5 143.5t-101.5 405.5q0 268 103 415t306 147q172 0 282 -116t110 -384zM258 628h464q0 157 -58 239t-176 82q-113 0 -169 -83
t-61 -238zM351 1211l128 254h235l-235 -254h-128z" />
    <glyph glyph-name="ecircumflex" unicode="&#xea;" horiz-adv-x="965" 
d="M886 586q0 -21 -3 -95h-626q7 -379 238 -379q89 0 148.5 60.5t68.5 176.5l166 -15q-10 -103 -55.5 -184t-128 -128t-199.5 -47q-207 0 -308.5 143.5t-101.5 405.5q0 268 103 415t306 147q172 0 282 -116t110 -384zM258 628h464q0 157 -58 239t-176 82q-113 0 -169 -83
t-61 -238zM602 1190l-117 158l-125 -158h-176l189 248h213l196 -248h-180z" />
    <glyph glyph-name="edieresis" unicode="&#xeb;" horiz-adv-x="965" 
d="M886 586q0 -21 -3 -95h-626q7 -379 238 -379q89 0 148.5 60.5t68.5 176.5l166 -15q-10 -103 -55.5 -184t-128 -128t-199.5 -47q-207 0 -308.5 143.5t-101.5 405.5q0 268 103 415t306 147q172 0 282 -116t110 -384zM258 628h464q0 157 -58 239t-176 82q-113 0 -169 -83
t-61 -238zM203 1225v206h185v-206h-185zM575 1225v206h187v-206h-187z" />
    <glyph glyph-name="igrave" unicode="&#xec;" horiz-adv-x="425" 
d="M128 0v1062h169v-1062h-169zM234 1211l-234 254h234l129 -254h-129z" />
    <glyph glyph-name="iacute" unicode="&#xed;" horiz-adv-x="425" 
d="M128 0v1062h169v-1062h-169zM80 1211l128 254h235l-235 -254h-128z" />
    <glyph glyph-name="icircumflex" unicode="&#xee;" horiz-adv-x="425" 
d="M128 0v1062h169v-1062h-169zM331 1190l-117 158l-125 -158h-176l189 248h213l196 -248h-180z" />
    <glyph glyph-name="idieresis" unicode="&#xef;" horiz-adv-x="425" 
d="M128 0v1062h169v-1062h-169zM-68 1225v206h185v-206h-185zM304 1225v206h187v-206h-187z" />
    <glyph glyph-name="eth" unicode="&#xf0;" horiz-adv-x="1023" 
d="M938 515q0 -163 -51.5 -285t-150 -188.5t-237.5 -66.5q-134 0 -227 67t-140 191t-47 294q0 164 48.5 289.5t135.5 194t199 68.5q90 0 173 -44q-62 104 -134 191l-247 -115l-42 93l220 101q-37 41 -73 75t-96 86h158q42 -32 68 -54.5t56 -54.5l202 93l44 -89l-175 -81
q159 -180 237.5 -369.5t78.5 -395.5zM766 531q0 202 -69.5 306t-194.5 104q-68 0 -123.5 -44t-88.5 -134.5t-33 -223.5q0 -138 34.5 -234t92.5 -143.5t127 -47.5q75 0 132.5 48t90 141.5t32.5 227.5z" />
    <glyph glyph-name="ntilde" unicode="&#xf1;" horiz-adv-x="1026" 
d="M902 709v-709h-169v707q0 90 -19 141t-59 72.5t-107 21.5q-78 0 -134.5 -37.5t-86.5 -104.5t-30 -156v-644h-169v1062h151v-154q130 178 322 178q146 0 223.5 -86.5t77.5 -290.5zM687 1202q-48 0 -150 46q-105 47 -131 47q-60 0 -70 -91h-120q0 63 25.5 112t67.5 75.5
t86 26.5q60 0 152 -45q91 -45 129 -45q75 0 81 96h115q-5 -81 -33.5 -130.5t-69 -70.5t-82.5 -21z" />
    <glyph glyph-name="ograve" unicode="&#xf2;" horiz-adv-x="1025" 
d="M85 543q0 156 48 278.5t144.5 193.5t236.5 71t235.5 -69t143 -193t47.5 -290q0 -261 -107.5 -410t-318.5 -149q-218 0 -323.5 149.5t-105.5 418.5zM510 947q-74 0 -131 -44.5t-89.5 -135.5t-32.5 -227q0 -205 65.5 -315.5t188.5 -110.5q117 0 187 100.5t70 335.5
q0 194 -68.5 295.5t-189.5 101.5zM535 1211l-234 254h234l129 -254h-129z" />
    <glyph glyph-name="oacute" unicode="&#xf3;" horiz-adv-x="1025" 
d="M85 543q0 156 48 278.5t144.5 193.5t236.5 71t235.5 -69t143 -193t47.5 -290q0 -261 -107.5 -410t-318.5 -149q-218 0 -323.5 149.5t-105.5 418.5zM510 947q-74 0 -131 -44.5t-89.5 -135.5t-32.5 -227q0 -205 65.5 -315.5t188.5 -110.5q117 0 187 100.5t70 335.5
q0 194 -68.5 295.5t-189.5 101.5zM381 1211l128 254h235l-235 -254h-128z" />
    <glyph glyph-name="ocircumflex" unicode="&#xf4;" horiz-adv-x="1025" 
d="M85 543q0 156 48 278.5t144.5 193.5t236.5 71t235.5 -69t143 -193t47.5 -290q0 -261 -107.5 -410t-318.5 -149q-218 0 -323.5 149.5t-105.5 418.5zM510 947q-74 0 -131 -44.5t-89.5 -135.5t-32.5 -227q0 -205 65.5 -315.5t188.5 -110.5q117 0 187 100.5t70 335.5
q0 194 -68.5 295.5t-189.5 101.5zM632 1190l-117 158l-125 -158h-176l189 248h213l196 -248h-180z" />
    <glyph glyph-name="otilde" unicode="&#xf5;" horiz-adv-x="1025" 
d="M85 543q0 156 48 278.5t144.5 193.5t236.5 71t235.5 -69t143 -193t47.5 -290q0 -261 -107.5 -410t-318.5 -149q-218 0 -323.5 149.5t-105.5 418.5zM510 947q-74 0 -131 -44.5t-89.5 -135.5t-32.5 -227q0 -205 65.5 -315.5t188.5 -110.5q117 0 187 100.5t70 335.5
q0 194 -68.5 295.5t-189.5 101.5zM656 1202q-48 0 -150 46q-105 47 -131 47q-60 0 -70 -91h-120q0 63 25.5 112t67.5 75.5t86 26.5q60 0 152 -45q91 -45 129 -45q75 0 81 96h115q-5 -81 -33.5 -130.5t-69 -70.5t-82.5 -21z" />
    <glyph glyph-name="odieresis" unicode="&#xf6;" horiz-adv-x="1025" 
d="M85 543q0 156 48 278.5t144.5 193.5t236.5 71t235.5 -69t143 -193t47.5 -290q0 -261 -107.5 -410t-318.5 -149q-218 0 -323.5 149.5t-105.5 418.5zM510 947q-74 0 -131 -44.5t-89.5 -135.5t-32.5 -227q0 -205 65.5 -315.5t188.5 -110.5q117 0 187 100.5t70 335.5
q0 194 -68.5 295.5t-189.5 101.5zM233 1225v206h185v-206h-185zM605 1225v206h187v-206h-187z" />
    <glyph glyph-name="divide" unicode="&#xf7;" 
d="M427 930v202h168v-202h-168zM47 637v167h929v-167h-929zM427 309v202h168v-202h-168z" />
    <glyph glyph-name="oslash" unicode="&#xf8;" horiz-adv-x="1025" 
d="M940 534q0 -261 -107.5 -410t-318.5 -149q-95 0 -168 29l-51 -123l-96 41l56 134q-86 69 -128 193t-42 294q0 156 48 278.5t144.5 193.5t236.5 71q86 0 159 -28l44 106l90 -37l-48 -117q90 -69 135.5 -191.5t45.5 -284.5zM324 222l292 700q-46 25 -106 25
q-74 0 -131 -44.5t-89.5 -135.5t-32.5 -227q0 -208 67 -318zM768 550q0 198 -74 303l-292 -711q48 -28 109 -28q117 0 187 100.5t70 335.5z" />
    <glyph glyph-name="ugrave" unicode="&#xf9;" horiz-adv-x="1026" 
d="M745 0v155q-122 -176 -315 -176q-160 0 -233 93t-73 293v697h169v-682q0 -92 16.5 -148t57 -83.5t112.5 -27.5q119 0 184.5 91t65.5 248v602h169v-1062h-153zM535 1211l-234 254h234l129 -254h-129z" />
    <glyph glyph-name="uacute" unicode="&#xfa;" horiz-adv-x="1026" 
d="M745 0v155q-122 -176 -315 -176q-160 0 -233 93t-73 293v697h169v-682q0 -92 16.5 -148t57 -83.5t112.5 -27.5q119 0 184.5 91t65.5 248v602h169v-1062h-153zM381 1211l128 254h235l-235 -254h-128z" />
    <glyph glyph-name="ucircumflex" unicode="&#xfb;" horiz-adv-x="1026" 
d="M745 0v155q-122 -176 -315 -176q-160 0 -233 93t-73 293v697h169v-682q0 -92 16.5 -148t57 -83.5t112.5 -27.5q119 0 184.5 91t65.5 248v602h169v-1062h-153zM632 1190l-117 158l-125 -158h-176l189 248h213l196 -248h-180z" />
    <glyph glyph-name="udieresis" unicode="&#xfc;" horiz-adv-x="1026" 
d="M745 0v155q-122 -176 -315 -176q-160 0 -233 93t-73 293v697h169v-682q0 -92 16.5 -148t57 -83.5t112.5 -27.5q119 0 184.5 91t65.5 248v602h169v-1062h-153zM233 1225v206h185v-206h-185zM605 1225v206h187v-206h-187z" />
    <glyph glyph-name="yacute" unicode="&#xfd;" horiz-adv-x="917" 
d="M235 -431q-41 0 -86 8t-82 20l34 145q60 -21 104 -21q40 0 66 19.5t40 47t26 67.5l46 147l-351 1060h182l257 -811l262 811h168l-421 -1250q-33 -99 -73.5 -152.5t-81.5 -72t-90 -18.5zM327 1211l128 254h235l-235 -254h-128z" />
    <glyph glyph-name="thorn" unicode="&#xfe;" 
d="M939 548q0 -300 -98 -436.5t-278 -136.5q-174 0 -266 139v-519h-169v1871h169v-511q99 131 268 131q118 0 201.5 -61.5t128 -182t44.5 -294.5zM767 535q0 412 -232 412q-115 0 -182.5 -99t-67.5 -299q0 -225 68 -329.5t186 -104.5q107 0 167.5 94t60.5 326z" />
    <glyph glyph-name="ydieresis" unicode="&#xff;" horiz-adv-x="917" 
d="M235 -431q-41 0 -86 8t-82 20l34 145q60 -21 104 -21q40 0 66 19.5t40 47t26 67.5l46 147l-351 1060h182l257 -811l262 811h168l-421 -1250q-33 -99 -73.5 -152.5t-81.5 -72t-90 -18.5zM179 1225v206h185v-206h-185zM551 1225v206h187v-206h-187z" />
    <glyph glyph-name="glyph221" 
d="M47 637v167h930v-167h-930z" />
    <glyph glyph-name="glyph222" horiz-adv-x="981" 
d="M483 1338q-49 0 -75 -19.5t-34.5 -54t-8.5 -90.5v-112h193v-130h-193v-932h-169v932h-156v130h156v134q0 295 266 295q68 0 135 -17l-29 -147q-47 11 -85 11zM684 1262v204h169v-204h-169zM684 0v1062h169v-1062h-169z" />
    <glyph glyph-name="glyph223" horiz-adv-x="1000" 
d="M483 1338q-49 0 -75 -19.5t-34.5 -54t-8.5 -90.5v-112h193v-130h-193v-932h-169v932h-156v130h156v134q0 295 266 295q68 0 135 -17l-29 -147q-47 11 -85 11zM703 0v1466h169v-1466h-169z" />
    <glyph glyph-name="macron" unicode="&#xaf;" 
d="M-12 1615v103h1048v-103h-1048z" />
    <glyph glyph-name="glyph225" horiz-adv-x="619" 
d="M487 997h77v-104h-77v-150h-121v150h-336v113l344 486h113v-495zM366 997v305l-214 -305h214z" />
    <glyph glyph-name="Amacron" unicode="&#x100;" horiz-adv-x="1130" 
d="M305 423l-126 -423h-184l469 1466h205l466 -1466h-191l-125 423h-514zM564 1290l-215 -721h428zM309 1630v130h512v-130h-512z" />
    <glyph glyph-name="amacron" unicode="&#x101;" horiz-adv-x="917" 
d="M792 749v-507q0 -69 13.5 -131.5t42.5 -110.5h-175q-19 39 -35 114q-107 -140 -279 -140q-131 0 -203 79.5t-72 217.5q0 91 33.5 152.5t103.5 103t185 70.5q148 37 217 66v63q0 114 -41 166.5t-123 52.5q-171 0 -181 -197l-166 13q11 162 97 243.5t256 81.5
q161 0 244 -84.5t83 -252.5zM408 456q-84 -26 -122.5 -66.5t-38.5 -114.5q0 -78 39 -122t114 -44q67 0 118 37t78 99.5t27 137.5v142q-66 -23 -215 -69zM202 1235v130h512v-130h-512z" />
    <glyph glyph-name="Abreve" unicode="&#x102;" horiz-adv-x="1130" 
d="M305 423l-126 -423h-184l469 1466h205l466 -1466h-191l-125 423h-514zM564 1290l-215 -721h428zM567 1716q132 0 172 117h120q-48 -247 -293 -247t-295 247h125q41 -117 171 -117z" />
    <glyph glyph-name="abreve" unicode="&#x103;" horiz-adv-x="917" 
d="M792 749v-507q0 -69 13.5 -131.5t42.5 -110.5h-175q-19 39 -35 114q-107 -140 -279 -140q-131 0 -203 79.5t-72 217.5q0 91 33.5 152.5t103.5 103t185 70.5q148 37 217 66v63q0 114 -41 166.5t-123 52.5q-171 0 -181 -197l-166 13q11 162 97 243.5t256 81.5
q161 0 244 -84.5t83 -252.5zM408 456q-84 -26 -122.5 -66.5t-38.5 -114.5q0 -78 39 -122t114 -44q67 0 118 37t78 99.5t27 137.5v142q-66 -23 -215 -69zM461 1321q132 0 172 117h120q-48 -247 -293 -247t-295 247h125q41 -117 171 -117z" />
    <glyph glyph-name="Aogonek" unicode="&#x104;" horiz-adv-x="1130" 
d="M1307 -267v-109q-40 -25 -89 -38.5t-98 -13.5q-101 0 -163 60t-62 172q0 82 44 214l-120 405h-514l-126 -423h-184l469 1466h205l466 -1466h-93q-26 -72 -26 -136q0 -79 38.5 -122.5t100.5 -43.5t152 35zM564 1290l-215 -721h428z" />
    <glyph glyph-name="aogonek" unicode="&#x105;" horiz-adv-x="917" 
d="M1035 -267v-109q-40 -25 -89 -38.5t-98 -13.5q-101 0 -163 60t-62 172q0 84 43 212q-14 33 -28 98q-107 -140 -279 -140q-131 0 -203 79.5t-72 217.5q0 91 33.5 152.5t103.5 103t185 70.5q148 37 217 66v63q0 114 -41 166.5t-123 52.5q-171 0 -181 -197l-166 13
q11 162 97 243.5t256 81.5q161 0 244 -84.5t83 -252.5v-507q0 -69 13.5 -131.5t42.5 -110.5h-78q-26 -72 -26 -136q0 -79 38.5 -122.5t100.5 -43.5t152 35zM408 456q-84 -26 -122.5 -66.5t-38.5 -114.5q0 -78 39 -122t114 -44q67 0 118 37t78 99.5t27 137.5v142
q-66 -23 -215 -69z" />
    <glyph glyph-name="Cacute" unicode="&#x106;" horiz-adv-x="1140" 
d="M1051 1062l-168 -40q-58 311 -281 311q-169 0 -246 -151t-77 -465q0 -584 324 -584q253 0 295 375l171 -44q-64 -489 -464 -489q-244 0 -376 185t-132 581q0 366 125 558t381 192q382 0 448 -429zM473 1606l128 254h235l-235 -254h-128z" />
    <glyph glyph-name="cacute" unicode="&#x107;" horiz-adv-x="922" 
d="M877 749l-158 -31q-36 230 -221 230q-117 0 -176.5 -104t-59.5 -311q0 -209 60 -314.5t178 -105.5q186 0 228 277l164 -18q-64 -397 -398 -397q-127 0 -219 64.5t-141 187.5t-49 295q0 174 49.5 301t143 195t223.5 68q312 0 376 -337zM371 1211l128 254h235l-235 -254
h-128z" />
    <glyph glyph-name="Ccaron" unicode="&#x10c;" horiz-adv-x="1140" 
d="M1051 1062l-168 -40q-58 311 -281 311q-169 0 -246 -151t-77 -465q0 -584 324 -584q253 0 295 375l171 -44q-64 -489 -464 -489q-244 0 -376 185t-132 581q0 366 125 558t381 192q382 0 448 -429zM728 1833h176l-189 -248h-213l-196 248h180l118 -158z" />
    <glyph glyph-name="ccaron" unicode="&#x10d;" horiz-adv-x="922" 
d="M877 749l-158 -31q-36 230 -221 230q-117 0 -176.5 -104t-59.5 -311q0 -209 60 -314.5t178 -105.5q186 0 228 277l164 -18q-64 -397 -398 -397q-127 0 -219 64.5t-141 187.5t-49 295q0 174 49.5 301t143 195t223.5 68q312 0 376 -337zM626 1438h176l-189 -248h-213
l-196 248h180l118 -158z" />
    <glyph glyph-name="Dcaron" unicode="&#x10e;" horiz-adv-x="1261" 
d="M1161 741q0 -260 -69.5 -423t-214 -240.5t-374.5 -77.5h-341v1466h341q226 0 368.5 -62.5t216 -221t73.5 -441.5zM342 155h164q182 0 285.5 67.5t145.5 192.5t42 314q0 220 -45 344.5t-143 177.5t-269 53h-180v-1149zM744 1833h176l-189 -248h-213l-196 248h180l118 -158
z" />
    <glyph glyph-name="dcaron" unicode="&#x10f;" horiz-adv-x="1198" 
d="M746 0v133q-101 -158 -287 -158q-178 0 -276 138t-98 401q0 274 87 423t288 149q172 0 267 -140v520h169v-1466h-150zM257 526q0 -414 231 -414q73 0 129 41.5t89 131t33 227.5q0 233 -69 333t-186 100q-107 0 -167 -94t-60 -325zM1053 934l-52 74q113 66 113 229v7h-97
v222h201v-230q0 -103 -41.5 -181t-123.5 -121z" />
    <glyph glyph-name="Dcroat" unicode="&#x110;" horiz-adv-x="1261" 
d="M1161 741q0 -260 -69.5 -423t-214 -240.5t-374.5 -77.5h-341v672h-158v120h158v674h341q226 0 368.5 -62.5t216 -221t73.5 -441.5zM979 729q0 220 -45 344.5t-143 177.5t-269 53h-180v-512h321v-120h-321v-517h164q182 0 285.5 67.5t145.5 192.5t42 314z" />
    <glyph glyph-name="dcroat" unicode="&#x111;" horiz-adv-x="1025" 
d="M896 1188v-1188h-150v133q-101 -158 -287 -158q-178 0 -276 138t-98 401q0 274 87 423t288 149q172 0 267 -140v242h-293v121h293v157h169v-157h144v-121h-144zM739 512q0 236 -70 334.5t-185 98.5q-107 0 -167 -94t-60 -325q0 -414 231 -414q73 0 129 41.5t89 131
t33 227.5z" />
    <glyph glyph-name="Emacron" unicode="&#x112;" horiz-adv-x="1029" 
d="M342 1308v-474h504v-158h-504v-518h596v-158h-776v1466h748v-158h-568zM292 1630v130h512v-130h-512z" />
    <glyph glyph-name="emacron" unicode="&#x113;" horiz-adv-x="965" 
d="M886 586q0 -21 -3 -95h-626q7 -379 238 -379q89 0 148.5 60.5t68.5 176.5l166 -15q-10 -103 -55.5 -184t-128 -128t-199.5 -47q-207 0 -308.5 143.5t-101.5 405.5q0 268 103 415t306 147q172 0 282 -116t110 -384zM258 628h464q0 157 -58 239t-176 82q-113 0 -169 -83
t-61 -238zM227 1235v130h512v-130h-512z" />
    <glyph glyph-name="Edotaccent" unicode="&#x116;" horiz-adv-x="1029" 
d="M342 1308v-474h504v-158h-504v-518h596v-158h-776v1466h748v-158h-568zM444 1596v209h207v-209h-207z" />
    <glyph glyph-name="edotaccent" unicode="&#x117;" horiz-adv-x="965" 
d="M886 586q0 -21 -3 -95h-626q7 -379 238 -379q89 0 148.5 60.5t68.5 176.5l166 -15q-10 -103 -55.5 -184t-128 -128t-199.5 -47q-207 0 -308.5 143.5t-101.5 405.5q0 268 103 415t306 147q172 0 282 -116t110 -384zM258 628h464q0 157 -58 239t-176 82q-113 0 -169 -83
t-61 -238zM379 1201v209h207v-209h-207z" />
    <glyph glyph-name="Eogonek" unicode="&#x118;" horiz-adv-x="1029" 
d="M1047 -267v-109q-40 -25 -89 -38.5t-98 -13.5q-101 0 -163 60t-62 172q0 78 38 196h-511v1466h748v-158h-568v-474h504v-158h-504v-518h596v-158h-156q-26 -72 -26 -136q0 -79 38.5 -122.5t100.5 -43.5t152 35z" />
    <glyph glyph-name="eogonek" unicode="&#x119;" horiz-adv-x="965" 
d="M948 -267v-109q-40 -25 -89 -38.5t-98 -13.5q-101 0 -163 60t-62 172q0 71 32 176q-38 -5 -73 -5q-207 0 -308.5 143.5t-101.5 405.5q0 268 103 415t306 147q179 0 285.5 -121.5t106.5 -378.5q0 -21 -3 -95h-626q7 -379 238 -379q89 0 148.5 60.5t68.5 176.5l166 -15
q-11 -106 -58 -188t-130 -126q-33 -87 -33 -156q0 -79 38.5 -122.5t100.5 -43.5t152 35zM258 628h464q0 157 -58 239t-176 82q-113 0 -169 -83t-61 -238z" />
    <glyph glyph-name="Ecaron" unicode="&#x11a;" horiz-adv-x="1029" 
d="M342 1308v-474h504v-158h-504v-518h596v-158h-776v1466h748v-158h-568zM671 1833h176l-189 -248h-213l-196 248h180l118 -158z" />
    <glyph glyph-name="ecaron" unicode="&#x11b;" horiz-adv-x="965" 
d="M886 586q0 -21 -3 -95h-626q7 -379 238 -379q89 0 148.5 60.5t68.5 176.5l166 -15q-10 -103 -55.5 -184t-128 -128t-199.5 -47q-207 0 -308.5 143.5t-101.5 405.5q0 268 103 415t306 147q172 0 282 -116t110 -384zM258 628h464q0 157 -58 239t-176 82q-113 0 -169 -83
t-61 -238zM606 1438h176l-189 -248h-213l-196 248h180l118 -158z" />
    <glyph glyph-name="Gbreve" unicode="&#x11e;" horiz-adv-x="1263" 
d="M1122 1054l-165 -47q-58 327 -316 327q-362 0 -362 -592q0 -293 90.5 -451t300.5 -158q155 0 288 114v347h-295v158h475v-575q-192 -202 -469 -202q-283 0 -427.5 198.5t-144.5 565.5q0 240 65 409t186.5 256t289.5 87q194 0 319.5 -108.5t164.5 -328.5zM634 1716
q132 0 172 117h120q-48 -247 -293 -247t-295 247h125q41 -117 171 -117z" />
    <glyph glyph-name="gbreve" unicode="&#x11f;" horiz-adv-x="1023" 
d="M748 929v133h147v-1084q0 -192 -95.5 -300.5t-304.5 -108.5q-379 0 -379 311v23l177 -30v-25q0 -40 24 -72t67.5 -50.5t100.5 -18.5q241 0 241 262v166q-99 -135 -269 -135q-183 0 -277.5 140t-94.5 401q0 240 88 392.5t287 152.5q179 0 288 -157zM257 545
q0 -407 229 -407q119 0 186.5 106t67.5 325q0 131 -35 216.5t-91.5 124.5t-124.5 39q-104 0 -168 -96.5t-64 -307.5zM495 1321q132 0 172 117h120q-48 -247 -293 -247t-295 247h125q41 -117 171 -117z" />
    <glyph glyph-name="Gcommaaccent" unicode="&#x122;" horiz-adv-x="1263" 
d="M1122 1054l-165 -47q-58 327 -316 327q-362 0 -362 -592q0 -293 90.5 -451t300.5 -158q155 0 288 114v347h-295v158h475v-575q-192 -202 -469 -202q-283 0 -427.5 198.5t-144.5 565.5q0 240 65 409t186.5 256t289.5 87q194 0 319.5 -108.5t164.5 -328.5zM545 -466l-15 90
q40 0 61.5 7.5t30 25t8.5 49.5h-97v206h201v-212q0 -76 -47 -119t-142 -47z" />
    <glyph glyph-name="gcommaaccent" unicode="&#x123;" horiz-adv-x="1023" 
d="M748 929v133h147v-1084q0 -192 -95.5 -300.5t-304.5 -108.5q-379 0 -379 311v23l177 -30v-25q0 -40 24 -72t67.5 -50.5t100.5 -18.5q241 0 241 262v166q-99 -135 -269 -135q-183 0 -277.5 140t-94.5 401q0 240 88 392.5t287 152.5q179 0 288 -157zM257 545
q0 -407 229 -407q119 0 186.5 106t67.5 325q0 131 -35 216.5t-91.5 124.5t-124.5 39q-104 0 -168 -96.5t-64 -307.5zM580 1540l15 -90q-40 0 -61.5 -7.5t-30 -25t-8.5 -49.5h97v-206h-201v212q0 76 47 119t142 47z" />
    <glyph glyph-name="Imacron" unicode="&#x12a;" horiz-adv-x="504" 
d="M162 0v1466h180v-1466h-180zM-4 1630v130h512v-130h-512z" />
    <glyph glyph-name="imacron" unicode="&#x12b;" horiz-adv-x="425" 
d="M128 0v1062h169v-1062h-169zM-44 1235v130h512v-130h-512z" />
    <glyph glyph-name="Iogonek" unicode="&#x12e;" horiz-adv-x="504" 
d="M536 -267v-109q-40 -25 -89 -38.5t-98 -13.5q-101 0 -163 60t-62 172q0 77 38 197v1465h180v-1466h-71q-26 -72 -26 -136q0 -79 38.5 -122.5t100.5 -43.5t152 35z" />
    <glyph glyph-name="iogonek" unicode="&#x12f;" horiz-adv-x="425" 
d="M128 1262v204h169v-204h-169zM502 -267v-109q-40 -25 -89 -38.5t-98 -13.5q-101 0 -163 60t-62 172q0 77 38 197v1061h169v-1062h-60q-26 -72 -26 -136q0 -79 38.5 -122.5t100.5 -43.5t152 35z" />
    <glyph glyph-name="Idotaccent" unicode="&#x130;" horiz-adv-x="504" 
d="M162 0v1466h180v-1466h-180zM148 1596v209h207v-209h-207z" />
    <glyph glyph-name="dotlessi" unicode="&#x131;" horiz-adv-x="425" 
d="M128 0v1062h169v-1062h-169z" />
    <glyph glyph-name="Kcommaaccent" unicode="&#x136;" horiz-adv-x="1140" 
d="M342 512v-512h-180v1466h180v-719l544 719h212l-454 -573l500 -893h-210l-401 753zM503 -466l-15 90q40 0 61.5 7.5t30 25t8.5 49.5h-97v206h201v-212q0 -76 -47 -119t-142 -47z" />
    <glyph glyph-name="kcommaaccent" unicode="&#x137;" horiz-adv-x="912" 
d="M667 1062h204l-359 -385l381 -677h-189l-301 556l-106 -107v-449h-169v1466h169v-812zM399 -466l-15 90q40 0 61.5 7.5t30 25t8.5 49.5h-97v206h201v-212q0 -76 -47 -119t-142 -47z" />
    <glyph glyph-name="Lacute" unicode="&#x139;" horiz-adv-x="1027" 
d="M966 156v-156h-804v1466h180v-1310h624zM382 1606l128 254h235l-235 -254h-128z" />
    <glyph glyph-name="lacute" unicode="&#x13a;" horiz-adv-x="425" 
d="M128 0v1466h169v-1466h-169zM81 1615l128 254h235l-235 -254h-128z" />
    <glyph glyph-name="Lcommaaccent" unicode="&#x13b;" horiz-adv-x="1027" 
d="M966 156v-156h-804v1466h180v-1310h624zM475 -466l-15 90q40 0 61.5 7.5t30 25t8.5 49.5h-97v206h201v-212q0 -76 -47 -119t-142 -47z" />
    <glyph glyph-name="lcommaaccent" unicode="&#x13c;" horiz-adv-x="425" 
d="M128 0v1466h169v-1466h-169zM126 -466l-15 90q40 0 61.5 7.5t30 25t8.5 49.5h-97v206h201v-212q0 -76 -47 -119t-142 -47z" />
    <glyph glyph-name="Lcaron" unicode="&#x13d;" horiz-adv-x="1027" 
d="M966 156v-156h-804v1466h180v-1310h624zM619 934l-52 74q113 66 113 229v7h-97v222h201v-230q0 -103 -41.5 -181t-123.5 -121z" />
    <glyph glyph-name="lcaron" unicode="&#x13e;" horiz-adv-x="598" 
d="M128 0v1466h169v-1466h-169zM453 934l-52 74q113 66 113 229v7h-97v222h201v-230q0 -103 -41.5 -181t-123.5 -121z" />
    <glyph glyph-name="Lslash" unicode="&#x141;" horiz-adv-x="1027" 
d="M966 0h-804v588l-148 -136v166l148 140v708h180v-543l278 255v-169l-278 -256v-597h624v-156z" />
    <glyph glyph-name="lslash" unicode="&#x142;" horiz-adv-x="453" 
d="M311 752v-752h-169v595l-142 -131v129l142 135v738h169v-584l142 130v-129z" />
    <glyph glyph-name="Nacute" unicode="&#x143;" horiz-adv-x="1261" 
d="M905 0l-596 1214h-2l27 -1214h-172v1466h190l597 -1211h2l-25 1211h173v-1466h-194zM519 1606l128 254h235l-235 -254h-128z" />
    <glyph glyph-name="nacute" unicode="&#x144;" horiz-adv-x="1026" 
d="M902 709v-709h-169v707q0 90 -19 141t-59 72.5t-107 21.5q-78 0 -134.5 -37.5t-86.5 -104.5t-30 -156v-644h-169v1062h151v-154q130 178 322 178q146 0 223.5 -86.5t77.5 -290.5zM412 1211l128 254h235l-235 -254h-128z" />
    <glyph glyph-name="Ncommaaccent" unicode="&#x145;" horiz-adv-x="1261" 
d="M905 0l-596 1214h-2l27 -1214h-172v1466h190l597 -1211h2l-25 1211h173v-1466h-194zM524 -466l-15 90q40 0 61.5 7.5t30 25t8.5 49.5h-97v206h201v-212q0 -76 -47 -119t-142 -47z" />
    <glyph glyph-name="ncommaaccent" unicode="&#x146;" horiz-adv-x="1026" 
d="M902 709v-709h-169v707q0 90 -19 141t-59 72.5t-107 21.5q-78 0 -134.5 -37.5t-86.5 -104.5t-30 -156v-644h-169v1062h151v-154q130 178 322 178q146 0 223.5 -86.5t77.5 -290.5zM427 -466l-15 90q40 0 61.5 7.5t30 25t8.5 49.5h-97v206h201v-212q0 -76 -47 -119
t-142 -47z" />
    <glyph glyph-name="Ncaron" unicode="&#x147;" horiz-adv-x="1261" 
d="M905 0l-596 1214h-2l27 -1214h-172v1466h190l597 -1211h2l-25 1211h173v-1466h-194zM774 1833h176l-189 -248h-213l-196 248h180l118 -158z" />
    <glyph glyph-name="ncaron" unicode="&#x148;" horiz-adv-x="1026" 
d="M902 709v-709h-169v707q0 90 -19 141t-59 72.5t-107 21.5q-78 0 -134.5 -37.5t-86.5 -104.5t-30 -156v-644h-169v1062h151v-154q130 178 322 178q146 0 223.5 -86.5t77.5 -290.5zM667 1438h176l-189 -248h-213l-196 248h180l118 -158z" />
    <glyph glyph-name="Omacron" unicode="&#x14c;" horiz-adv-x="1259" 
d="M1162 737q0 -360 -128 -561t-397 -201q-257 0 -398.5 187t-141.5 585q0 365 136.5 554.5t401.5 189.5q164 0 281.5 -81t181.5 -249.5t64 -423.5zM279 718q0 -302 92.5 -443t259.5 -141q349 0 349 592q0 304 -88.5 455.5t-267.5 151.5q-187 0 -266 -156t-79 -459z
M374 1630v130h512v-130h-512z" />
    <glyph glyph-name="omacron" unicode="&#x14d;" horiz-adv-x="1025" 
d="M85 543q0 156 48 278.5t144.5 193.5t236.5 71t235.5 -69t143 -193t47.5 -290q0 -261 -107.5 -410t-318.5 -149q-218 0 -323.5 149.5t-105.5 418.5zM510 947q-74 0 -131 -44.5t-89.5 -135.5t-32.5 -227q0 -205 65.5 -315.5t188.5 -110.5q117 0 187 100.5t70 335.5
q0 194 -68.5 295.5t-189.5 101.5zM257 1235v130h512v-130h-512z" />
    <glyph glyph-name="Ohungarumlaut" unicode="&#x150;" horiz-adv-x="1259" 
d="M1162 737q0 -360 -128 -561t-397 -201q-257 0 -398.5 187t-141.5 585q0 365 136.5 554.5t401.5 189.5q164 0 281.5 -81t181.5 -249.5t64 -423.5zM279 718q0 -302 92.5 -443t259.5 -141q349 0 349 592q0 304 -88.5 455.5t-267.5 151.5q-187 0 -266 -156t-79 -459z
M333 1583l130 278h216l-216 -278h-130zM684 1583l125 278h218l-212 -278h-131z" />
    <glyph glyph-name="ohungarumlaut" unicode="&#x151;" horiz-adv-x="1025" 
d="M85 543q0 156 48 278.5t144.5 193.5t236.5 71t235.5 -69t143 -193t47.5 -290q0 -261 -107.5 -410t-318.5 -149q-218 0 -323.5 149.5t-105.5 418.5zM510 947q-74 0 -131 -44.5t-89.5 -135.5t-32.5 -227q0 -205 65.5 -315.5t188.5 -110.5q117 0 187 100.5t70 335.5
q0 194 -68.5 295.5t-189.5 101.5zM236 1188l130 278h216l-216 -278h-130zM587 1188l125 278h218l-212 -278h-131z" />
    <glyph glyph-name="Racute" unicode="&#x154;" horiz-adv-x="1176" 
d="M1047 1070q0 -101 -35.5 -184t-105 -138t-169.5 -72q58 -21 113.5 -82t100.5 -160l205 -434h-209l-192 409q-51 111 -93.5 162.5t-100.5 68.5t-164 17h-55v-657h-180v1466h408q236 0 356.5 -105t120.5 -291zM863 1062q0 138 -83 193.5t-234 55.5h-204v-499h196
q168 0 246.5 59.5t78.5 190.5zM451 1606l128 254h235l-235 -254h-128z" />
    <glyph glyph-name="racute" unicode="&#x155;" horiz-adv-x="684" 
d="M498 909q-99 0 -150 -98.5t-51 -283.5v-527h-169v1062h147v-180q53 114 108 159t132 45q93 0 180 -63l-59 -157q-70 43 -138 43zM271 1211l128 254h235l-235 -254h-128z" />
    <glyph glyph-name="Rcommaaccent" unicode="&#x156;" horiz-adv-x="1176" 
d="M1047 1070q0 -101 -35.5 -184t-105 -138t-169.5 -72q58 -21 113.5 -82t100.5 -160l205 -434h-209l-192 409q-51 111 -93.5 162.5t-100.5 68.5t-164 17h-55v-657h-180v1466h408q236 0 356.5 -105t120.5 -291zM863 1062q0 138 -83 193.5t-234 55.5h-204v-499h196
q168 0 246.5 59.5t78.5 190.5zM549 -466l-15 90q40 0 61.5 7.5t30 25t8.5 49.5h-97v206h201v-212q0 -76 -47 -119t-142 -47z" />
    <glyph glyph-name="rcommaaccent" unicode="&#x157;" horiz-adv-x="684" 
d="M498 909q-99 0 -150 -98.5t-51 -283.5v-527h-169v1062h147v-180q53 114 108 159t132 45q93 0 180 -63l-59 -157q-70 43 -138 43zM246 -466l-15 90q40 0 61.5 7.5t30 25t8.5 49.5h-97v206h201v-212q0 -76 -47 -119t-142 -47z" />
    <glyph glyph-name="Rcaron" unicode="&#x158;" horiz-adv-x="1176" 
d="M1047 1070q0 -101 -35.5 -184t-105 -138t-169.5 -72q58 -21 113.5 -82t100.5 -160l205 -434h-209l-192 409q-51 111 -93.5 162.5t-100.5 68.5t-164 17h-55v-657h-180v1466h408q236 0 356.5 -105t120.5 -291zM863 1062q0 138 -83 193.5t-234 55.5h-204v-499h196
q168 0 246.5 59.5t78.5 190.5zM706 1833h176l-189 -248h-213l-196 248h180l118 -158z" />
    <glyph glyph-name="rcaron" unicode="&#x159;" horiz-adv-x="684" 
d="M498 909q-99 0 -150 -98.5t-51 -283.5v-527h-169v1062h147v-180q53 114 108 159t132 45q93 0 180 -63l-59 -157q-70 43 -138 43zM526 1438h176l-189 -248h-213l-196 248h180l118 -158z" />
    <glyph glyph-name="Sacute" unicode="&#x15a;" horiz-adv-x="1131" 
d="M557 1336q-72 0 -127 -28.5t-85 -77.5t-30 -109q0 -54 17.5 -94.5t80.5 -88t191 -102.5q164 -70 258.5 -135.5t136 -139.5t41.5 -172q0 -127 -58.5 -220.5t-163 -143.5t-239.5 -50q-451 0 -491 485l171 15q14 -173 96.5 -259t235.5 -86q85 0 148 33.5t96.5 87.5t33.5 114
q0 68 -27 114.5t-99 92.5t-215 108q-144 62 -228 127t-120 137t-36 163q0 112 53.5 199.5t150 136t221.5 48.5q123 0 219 -51t151.5 -149t59.5 -235l-172 -14q-15 151 -80.5 222.5t-189.5 71.5zM434 1606l128 254h235l-235 -254h-128z" />
    <glyph glyph-name="sacute" unicode="&#x15b;" horiz-adv-x="920" 
d="M459 947q-62 0 -104.5 -20t-62.5 -52t-20 -68q0 -39 19 -67.5t71.5 -58t153.5 -67.5q135 -50 205 -98t94.5 -99.5t24.5 -123.5q0 -91 -43 -163t-126.5 -113.5t-198.5 -41.5q-329 0 -402 317l163 25q20 -102 88.5 -153.5t154.5 -51.5q60 0 105 22t69 59.5t24 82.5
q0 51 -29 83.5t-84.5 57.5t-185.5 73q-105 39 -165 83.5t-85 98.5t-25 125q0 81 44.5 147t125.5 104t187 38q324 0 364 -291l-169 -15q-30 167 -193 167zM330 1211l128 254h235l-235 -254h-128z" />
    <glyph glyph-name="Scedilla" unicode="&#x15e;" horiz-adv-x="1131" 
d="M614 -24l-20 -68q168 -23 168 -147q0 -95 -75.5 -144t-208.5 -49q-56 0 -108 12l13 112q40 -5 71 -5q162 0 162 80q0 79 -163 79l40 134q-369 44 -405 480l171 15q14 -173 96.5 -259t235.5 -86q85 0 148 33.5t96.5 87.5t33.5 114q0 68 -27 114.5t-99 92.5t-215 108
q-144 62 -228 127t-120 137t-36 163q0 112 53.5 199.5t150 136t221.5 48.5q123 0 219 -51t151.5 -149t59.5 -235l-172 -14q-15 151 -80.5 222.5t-189.5 71.5q-72 0 -127 -28.5t-85 -77.5t-30 -109q0 -54 17.5 -94.5t80.5 -88t191 -102.5q164 -70 258.5 -135.5t136 -139.5
t41.5 -172q0 -121 -53.5 -212t-150 -142.5t-222.5 -58.5z" />
    <glyph glyph-name="scedilla" unicode="&#x15f;" horiz-adv-x="920" 
d="M510 -24l-20 -68q168 -23 168 -147q0 -95 -75.5 -144t-208.5 -49q-56 0 -108 12l13 112q40 -5 71 -5q162 0 162 80q0 79 -163 79l41 135q-256 36 -320 311l163 25q20 -102 88.5 -153.5t154.5 -51.5q60 0 105 22t69 59.5t24 82.5q0 51 -29 83.5t-84.5 57.5t-185.5 73
q-105 39 -165 83.5t-85 98.5t-25 125q0 81 44.5 147t125.5 104t187 38q324 0 364 -291l-169 -15q-30 167 -193 167q-62 0 -104.5 -20t-62.5 -52t-20 -68q0 -39 19 -67.5t71.5 -58t153.5 -67.5q135 -50 205 -98t94.5 -99.5t24.5 -123.5q0 -85 -38.5 -154.5t-113 -112.5
t-178.5 -50z" />
    <glyph glyph-name="Tcommaaccent" unicode="&#x162;" horiz-adv-x="1025" 
d="M538 -92q168 -23 168 -147q0 -95 -75.5 -144t-208.5 -49q-56 0 -108 12l13 112q40 -5 71 -5q162 0 162 80q0 79 -163 79l46 154h-23v1309h-373v157h931v-157h-378v-1309h-34z" />
    <glyph glyph-name="tcommaaccent" unicode="&#x163;" horiz-adv-x="564" 
d="M542 -239q0 -95 -75.5 -144t-208.5 -49q-56 0 -108 12l13 112q40 -5 71 -5q162 0 162 80q0 79 -163 79l49 162q-59 28 -88 89.5t-29 158.5v676h-125v130h125v264l169 108v-372h170v-130h-170v-650q0 -76 23 -112.5t86 -36.5q24 0 67 9l24 -142q-62 -17 -120 -17h-17
l-23 -75q168 -23 168 -147z" />
    <glyph glyph-name="Tcaron" unicode="&#x164;" horiz-adv-x="1025" 
d="M600 1309v-1309h-180v1309h-373v157h931v-157h-378zM636 1833h176l-189 -248h-213l-196 248h180l118 -158z" />
    <glyph glyph-name="tcaron" unicode="&#x165;" horiz-adv-x="741" 
d="M504 1062v-130h-170v-650q0 -76 23 -112.5t86 -36.5q24 0 67 9l24 -142q-62 -17 -120 -17q-127 0 -188 66.5t-61 206.5v676h-125v130h125v264l169 108v-372h170zM596 934l-52 74q113 66 113 229v7h-97v222h201v-230q0 -103 -41.5 -181t-123.5 -121z" />
    <glyph glyph-name="glyph292" horiz-adv-x="1025" 
d="M600 1309v-1309h-180v1309h-373v157h931v-157h-378zM423 -466l-15 90q40 0 61.5 7.5t30 25t8.5 49.5h-97v206h201v-212q0 -76 -47 -119t-142 -47z" />
    <glyph glyph-name="glyph293" horiz-adv-x="564" 
d="M504 1062v-130h-170v-650q0 -76 23 -112.5t86 -36.5q24 0 67 9l24 -142q-62 -17 -120 -17q-127 0 -188 66.5t-61 206.5v676h-125v130h125v264l169 108v-372h170zM259 -466l-15 90q40 0 61.5 7.5t30 25t8.5 49.5h-97v206h201v-212q0 -76 -47 -119t-142 -47z" />
    <glyph glyph-name="Umacron" unicode="&#x16a;" horiz-adv-x="1259" 
d="M636 -25q-197 0 -300.5 74.5t-138 199.5t-34.5 314v903h180v-901q0 -135 19 -226t81 -148.5t182 -57.5q112 0 175.5 44.5t89.5 137.5t26 250v901h180v-900q0 -190 -37.5 -318t-138.5 -200.5t-284 -72.5zM374 1630v130h512v-130h-512z" />
    <glyph glyph-name="umacron" unicode="&#x16b;" horiz-adv-x="1026" 
d="M745 0v155q-122 -176 -315 -176q-160 0 -233 93t-73 293v697h169v-682q0 -92 16.5 -148t57 -83.5t112.5 -27.5q119 0 184.5 91t65.5 248v602h169v-1062h-153zM257 1235v130h512v-130h-512z" />
    <glyph glyph-name="Uring" unicode="&#x16e;" horiz-adv-x="1259" 
d="M636 -25q-197 0 -300.5 74.5t-138 199.5t-34.5 314v903h180v-901q0 -135 19 -226t81 -148.5t182 -57.5q112 0 175.5 44.5t89.5 137.5t26 250v901h180v-900q0 -190 -37.5 -318t-138.5 -200.5t-284 -72.5zM409 1767q0 59 30.5 109.5t81 81t109.5 30.5q60 0 111 -30
t80.5 -81t29.5 -110q0 -61 -29.5 -111.5t-80.5 -80.5t-111 -30q-59 0 -110.5 30t-81 80.5t-29.5 111.5zM629 1898q-34 0 -64.5 -18t-48 -48t-17.5 -65q0 -54 38.5 -92.5t92.5 -38.5q35 0 65.5 18t48.5 48.5t18 64.5q0 55 -39.5 93t-93.5 38z" />
    <glyph glyph-name="uring" unicode="&#x16f;" horiz-adv-x="1026" 
d="M745 0v155q-122 -176 -315 -176q-160 0 -233 93t-73 293v697h169v-682q0 -92 16.5 -148t57 -83.5t112.5 -27.5q119 0 184.5 91t65.5 248v602h169v-1062h-153zM312 1397q0 54 27.5 100t73.5 73.5t100 27.5t100.5 -27t73.5 -73.5t27 -100.5q0 -55 -27 -101t-73.5 -73.5
t-100.5 -27.5t-100.5 27.5t-73.5 73.5t-27 101zM512 1516q-31 0 -58.5 -16t-43.5 -43.5t-16 -59.5q0 -49 35 -84t84 -35q32 0 59.5 16.5t44 44t16.5 58.5q0 50 -36 84.5t-85 34.5z" />
    <glyph glyph-name="Uhungarumlaut" unicode="&#x170;" horiz-adv-x="1259" 
d="M636 -25q-197 0 -300.5 74.5t-138 199.5t-34.5 314v903h180v-901q0 -135 19 -226t81 -148.5t182 -57.5q112 0 175.5 44.5t89.5 137.5t26 250v901h180v-900q0 -190 -37.5 -318t-138.5 -200.5t-284 -72.5zM333 1583l130 278h216l-216 -278h-130zM684 1583l125 278h218
l-212 -278h-131z" />
    <glyph glyph-name="uhungarumlaut" unicode="&#x171;" horiz-adv-x="1026" 
d="M745 0v155q-122 -176 -315 -176q-160 0 -233 93t-73 293v697h169v-682q0 -92 16.5 -148t57 -83.5t112.5 -27.5q119 0 184.5 91t65.5 248v602h169v-1062h-153zM236 1188l130 278h216l-216 -278h-130zM587 1188l125 278h218l-212 -278h-131z" />
    <glyph glyph-name="Uogonek" unicode="&#x172;" horiz-adv-x="1259" 
d="M1096 566q0 -181 -33.5 -305t-123.5 -199t-252 -85q-18 -61 -18 -113q0 -79 38.5 -122.5t100.5 -43.5t152 35v-109q-40 -25 -89 -38.5t-98 -13.5q-101 0 -163 60t-62 172q0 70 31 173q-173 11 -264 87.5t-121.5 198t-30.5 300.5v903h180v-901q0 -135 19 -226t81 -148.5
t182 -57.5q112 0 175.5 44.5t89.5 137.5t26 250v901h180v-900z" />
    <glyph glyph-name="uogonek" unicode="&#x173;" horiz-adv-x="1026" 
d="M1117 -267v-109q-40 -25 -89 -38.5t-98 -13.5q-101 0 -163 60t-62 172q0 82 40 203v148q-122 -176 -315 -176q-160 0 -233 93t-73 293v697h169v-682q0 -92 16.5 -148t57 -83.5t112.5 -27.5q119 0 184.5 91t65.5 248v602h169v-1062h-46q-26 -72 -26 -136
q0 -79 38.5 -122.5t100.5 -43.5t152 35z" />
    <glyph glyph-name="Zacute" unicode="&#x179;" horiz-adv-x="1027" 
d="M375 383q-82 -135 -149 -225h741v-158h-922v158l529 865q118 191 182 285h-625v158h813v-158zM394 1606l128 254h235l-235 -254h-128z" />
    <glyph glyph-name="zacute" unicode="&#x17a;" horiz-adv-x="789" 
d="M290 266q-36 -54 -96 -129h585v-137h-768v137l406 594q69 100 140 190h-508v141h701v-119zM263 1211l128 254h235l-235 -254h-128z" />
    <glyph glyph-name="Zdotaccent" unicode="&#x17b;" horiz-adv-x="1027" 
d="M375 383q-82 -135 -149 -225h741v-158h-922v158l529 865q118 191 182 285h-625v158h813v-158zM422 1596v209h207v-209h-207z" />
    <glyph glyph-name="zdotaccent" unicode="&#x17c;" horiz-adv-x="789" 
d="M290 266q-36 -54 -96 -129h585v-137h-768v137l406 594q69 100 140 190h-508v141h701v-119zM291 1201v209h207v-209h-207z" />
    <glyph glyph-name="Ohorn" unicode="&#x1a0;" horiz-adv-x="1324" 
d="M1097 1163q65 -173 65 -426q0 -360 -128 -561t-397 -201q-257 0 -398.5 187t-141.5 585q0 365 136.5 554.5t401.5 189.5q131 0 233 -52t170 -157q59 4 92 32t46.5 82.5t13.5 146.5h164q0 -177 -58.5 -269t-198.5 -111zM980 726q0 304 -88.5 455.5t-267.5 151.5
q-187 0 -266 -156t-79 -459q0 -302 92.5 -443t259.5 -141q349 0 349 592z" />
    <glyph glyph-name="ohorn" unicode="&#x1a1;" horiz-adv-x="1169" 
d="M911 769q29 -107 29 -235q0 -261 -107.5 -410t-318.5 -149q-218 0 -323.5 149.5t-105.5 418.5q0 156 48 278.5t144.5 193.5t236.5 71q120 0 207 -51t140 -145h4q66 1 102 28t50.5 82.5t14.5 151.5h165q0 -124 -27.5 -205t-90 -125.5t-168.5 -52.5zM768 550
q0 194 -68.5 295.5t-189.5 101.5q-74 0 -131 -44.5t-89.5 -135.5t-32.5 -227q0 -205 65.5 -315.5t188.5 -110.5q121 0 189 102.5t68 333.5z" />
    <glyph glyph-name="Uhorn" unicode="&#x1af;" horiz-adv-x="1377" 
d="M1096 1158v-592q0 -190 -37.5 -318t-138.5 -200.5t-284 -72.5q-197 0 -300.5 74.5t-138 199.5t-34.5 314v903h180v-901q0 -135 19 -226t81 -148.5t182 -57.5q112 0 175.5 44.5t89.5 137.5t26 250v901h180v-185q65 2 101.5 29t51 82.5t14.5 150.5h164q0 -132 -31.5 -215.5
t-104 -126t-195.5 -43.5z" />
    <glyph glyph-name="uhorn" unicode="&#x1b0;" horiz-adv-x="1202" 
d="M898 767v-767h-153v155q-122 -176 -315 -176q-160 0 -233 93t-73 293v697h169v-682q0 -92 16.5 -148t57 -83.5t112.5 -27.5q119 0 184.5 91t65.5 248v602h169v-172q66 1 102 28t50.5 82.5t14.5 151.5h165q0 -132 -31.5 -215.5t-104 -126t-196.5 -43.5z" />
    <glyph glyph-name="caron" unicode="&#x2c7;" horiz-adv-x="683" 
d="M464 1438h176l-189 -248h-213l-196 248h180l118 -158z" />
    <glyph glyph-name="breve" unicode="&#x2d8;" horiz-adv-x="683" 
d="M344 1321q132 0 172 117h120q-48 -247 -293 -247t-295 247h125q41 -117 171 -117z" />
    <glyph glyph-name="dotaccent" unicode="&#x2d9;" horiz-adv-x="683" 
d="M238 1201v209h207v-209h-207z" />
    <glyph glyph-name="glyph313" horiz-adv-x="683" 
d="M140 1397q0 54 27.5 100t73.5 73.5t100 27.5t100.5 -27t73.5 -73.5t27 -100.5q0 -55 -27 -101t-73.5 -73.5t-100.5 -27.5t-100.5 27.5t-73.5 73.5t-27 101zM340 1516q-31 0 -58.5 -16t-43.5 -43.5t-16 -59.5q0 -49 35 -84t84 -35q32 0 59.5 16.5t44 44t16.5 58.5
q0 50 -36 84.5t-85 34.5z" />
    <glyph glyph-name="ogonek" unicode="&#x2db;" horiz-adv-x="683" 
d="M256 -136q0 -79 38.5 -122.5t100.5 -43.5t152 35v-109q-40 -25 -89 -38.5t-98 -13.5q-101 0 -163 60t-62 172q0 84 45 218h110q-34 -87 -34 -158z" />
    <glyph glyph-name="hungarumlaut" unicode="&#x2dd;" horiz-adv-x="683" 
d="M106 1188l130 278h216l-216 -278h-130zM457 1188l125 278h218l-212 -278h-131z" />
    <glyph glyph-name="gravecomb" unicode="&#x300;" horiz-adv-x="0" 
d="M-491 1211l-234 254h234l129 -254h-129z" />
    <glyph glyph-name="acutecomb" unicode="&#x301;" horiz-adv-x="0" 
d="M-590 1211l128 254h235l-235 -254h-128z" />
    <glyph glyph-name="tildecomb" unicode="&#x303;" horiz-adv-x="0" 
d="M-354 1202q-48 0 -150 46q-105 47 -131 47q-60 0 -70 -91h-120q0 63 25.5 112t67.5 75.5t86 26.5q60 0 152 -45q91 -45 129 -45q75 0 81 96h115q-5 -81 -33.5 -130.5t-69 -70.5t-82.5 -21z" />
    <glyph glyph-name="hookabovecomb" unicode="&#x309;" horiz-adv-x="0" 
d="M-261 1355q0 -61 -44 -96t-127 -39v-30h-105v104q65 0 94.5 12.5t29.5 40.5q0 24 -26 38.5t-71 14.5q-37 0 -89 -8l-11 98q64 12 128 12q110 0 165.5 -39t55.5 -108z" />
    <glyph glyph-name="dotbelowcomb" unicode="&#x323;" horiz-adv-x="0" 
d="M-600 -298v209h207v-209h-207z" />
    <glyph glyph-name="tonos" unicode="&#x384;" horiz-adv-x="600" 
d="M278 1211l52 255h232l-165 -255h-119z" />
    <glyph glyph-name="dieresistonos" unicode="&#x385;" horiz-adv-x="803" 
d="M284 1211l48 254h215l-155 -254h-108zM52 1225v206h165v-206h-165zM580 1225v206h167v-206h-167z" />
    <glyph glyph-name="Alphatonos" unicode="&#x386;" horiz-adv-x="1130" 
d="M305 423l-126 -423h-184l469 1466h205l466 -1466h-191l-125 423h-514zM564 1290l-215 -721h428zM53 1212l88 254h227l-195 -254h-120z" />
    <glyph glyph-name="Epsilontonos" unicode="&#x388;" horiz-adv-x="1229" 
d="M542 1308v-474h504v-158h-504v-518h596v-158h-776v1466h748v-158h-568zM-30 1212l88 254h227l-195 -254h-120z" />
    <glyph glyph-name="Etatonos" unicode="&#x389;" horiz-adv-x="1460" 
d="M1118 0v695h-576v-695h-180v1466h180v-616h576v616h180v-1466h-180zM-30 1212l88 254h227l-195 -254h-120z" />
    <glyph glyph-name="Iotatonos" unicode="&#x38a;" horiz-adv-x="715" 
d="M373 0v1466h180v-1466h-180zM-30 1212l88 254h227l-195 -254h-120z" />
    <glyph glyph-name="Omicrontonos" unicode="&#x38c;" horiz-adv-x="1333" 
d="M1236 737q0 -360 -128 -561t-397 -201q-257 0 -398.5 187t-141.5 585q0 365 136.5 554.5t401.5 189.5q164 0 281.5 -81t181.5 -249.5t64 -423.5zM353 718q0 -302 92.5 -443t259.5 -141q349 0 349 592q0 304 -88.5 455.5t-267.5 151.5q-187 0 -266 -156t-79 -459z
M-30 1212l88 254h227l-195 -254h-120z" />
    <glyph glyph-name="Upsilontonos" unicode="&#x38e;" horiz-adv-x="1460" 
d="M890 790q73 148 140 270l222 406h198l-478 -847v-619h-182v619l-454 847h205l210 -397q79 -149 139 -279zM-30 1212l88 254h227l-195 -254h-120z" />
    <glyph glyph-name="Omegatonos" unicode="&#x38f;" horiz-adv-x="1438" 
d="M1297 818q0 -182 -72.5 -358t-198.5 -301h286v-159h-497v148q142 122 221 282t79 378q0 257 -95.5 391t-279.5 134q-377 0 -377 -522q0 -212 77.5 -373.5t222.5 -289.5v-148h-497v159h288q-130 123 -201.5 294.5t-71.5 364.5q0 209 66 360.5t191.5 232t301.5 80.5
q180 0 305.5 -86t188.5 -238t63 -349zM-30 1212l88 254h227l-195 -254h-120z" />
    <glyph glyph-name="iotadieresistonos" unicode="&#x390;" horiz-adv-x="526" 
d="M405 133q24 0 67 9l24 -142q-62 -17 -120 -17q-127 0 -188 66.5t-61 206.5l1 806h169l-1 -780q0 -76 23 -112.5t86 -36.5zM95 1211l48 254h215l-155 -254h-108zM-137 1225v206h165v-206h-165zM391 1225v206h167v-206h-167z" />
    <glyph glyph-name="Alpha" unicode="&#x391;" horiz-adv-x="1130" 
d="M305 423l-126 -423h-184l469 1466h205l466 -1466h-191l-125 423h-514zM564 1290l-215 -721h428z" />
    <glyph glyph-name="Beta" unicode="&#x392;" horiz-adv-x="1140" 
d="M999 1092q0 -228 -197 -322q248 -74 248 -354q0 -193 -111.5 -304.5t-362.5 -111.5h-414v1466h396q221 0 331 -100t110 -274zM342 838h212q144 0 205 62.5t61 177.5q0 72 -26 122.5t-93 79t-184 28.5h-175v-470zM342 158h202q106 0 176 22t109 80t39 164q0 95 -36.5 151
t-110 80.5t-190.5 24.5h-189v-522z" />
    <glyph glyph-name="Gamma" unicode="&#x393;" horiz-adv-x="916" 
d="M342 1310v-1310h-180v1466h707v-156h-527z" />
    <glyph glyph-name="Delta" unicode="&#x394;" horiz-adv-x="1187" 
d="M20 0l469 1466h188l490 -1466h-1147zM510 1004l-246 -847h648l-255 844q-46 154 -74 293h-4q-28 -135 -69 -290z" />
    <glyph glyph-name="Epsilon" unicode="&#x395;" horiz-adv-x="1029" 
d="M342 1308v-474h504v-158h-504v-518h596v-158h-776v1466h748v-158h-568z" />
    <glyph glyph-name="Zeta" unicode="&#x396;" horiz-adv-x="1027" 
d="M375 383q-82 -135 -149 -225h741v-158h-922v158l529 865q118 191 182 285h-625v158h813v-158z" />
    <glyph glyph-name="Eta" unicode="&#x397;" horiz-adv-x="1260" 
d="M918 0v695h-576v-695h-180v1466h180v-616h576v616h180v-1466h-180z" />
    <glyph glyph-name="Theta" unicode="&#x398;" horiz-adv-x="1259" 
d="M1162 737q0 -360 -128 -561t-397 -201q-257 0 -398.5 187t-141.5 585q0 365 136.5 554.5t401.5 189.5q164 0 281.5 -81t181.5 -249.5t64 -423.5zM279 718q0 -302 92.5 -443t259.5 -141q349 0 349 592q0 304 -88.5 455.5t-267.5 151.5q-187 0 -266 -156t-79 -459zM408 670
v150h443v-150h-443z" />
    <glyph glyph-name="Iota" unicode="&#x399;" horiz-adv-x="504" 
d="M162 0v1466h180v-1466h-180z" />
    <glyph glyph-name="Kappa" unicode="&#x39a;" horiz-adv-x="1140" 
d="M342 512v-512h-180v1466h180v-719l544 719h212l-454 -573l500 -893h-210l-401 753z" />
    <glyph glyph-name="Lambda" unicode="&#x39b;" horiz-adv-x="1090" 
d="M-5 0l449 1466h205l446 -1466h-191l-360 1290l-365 -1290h-184z" />
    <glyph glyph-name="Mu" unicode="&#x39c;" horiz-adv-x="1600" 
d="M1262 0l19 1293l-398 -1293h-165l-393 1285l10 -1285h-173v1466h268l372 -1224l372 1224h264v-1466h-176z" />
    <glyph glyph-name="Nu" unicode="&#x39d;" horiz-adv-x="1261" 
d="M905 0l-596 1214h-2l27 -1214h-172v1466h190l597 -1211h2l-25 1211h173v-1466h-194z" />
    <glyph glyph-name="Xi" unicode="&#x39e;" horiz-adv-x="1063" 
d="M115 1297v169h832v-169h-832zM191 661v169h681v-169h-681zM91 0v169h881v-169h-881z" />
    <glyph glyph-name="Omicron" unicode="&#x39f;" horiz-adv-x="1259" 
d="M1162 737q0 -360 -128 -561t-397 -201q-257 0 -398.5 187t-141.5 585q0 365 136.5 554.5t401.5 189.5q164 0 281.5 -81t181.5 -249.5t64 -423.5zM279 718q0 -302 92.5 -443t259.5 -141q349 0 349 592q0 304 -88.5 455.5t-267.5 151.5q-187 0 -266 -156t-79 -459z" />
    <glyph glyph-name="Pi" unicode="&#x3a0;" horiz-adv-x="1260" 
d="M918 0v1309h-576v-1309h-180v1466h936v-1466h-180z" />
    <glyph glyph-name="Rho" unicode="&#x3a1;" horiz-adv-x="1120" 
d="M1043 1032q0 -219 -129 -323t-389 -104h-183v-605h-180v1466h367q256 0 385 -108t129 -326zM342 761h178q175 0 256.5 67.5t81.5 206.5q0 137 -81.5 206t-254.5 69h-180v-549z" />
    <glyph glyph-name="Sigma" unicode="&#x3a3;" horiz-adv-x="982" 
d="M296 1299l375 -538v-1l-385 -593h646v-167h-853v171l379 586l-374 543v166h809v-167h-597z" />
    <glyph glyph-name="Tau" unicode="&#x3a4;" horiz-adv-x="1025" 
d="M600 1309v-1309h-180v1309h-373v157h931v-157h-378z" />
    <glyph glyph-name="Upsilon" unicode="&#x3a5;" horiz-adv-x="1134" 
d="M564 790q73 148 140 270l222 406h198l-478 -847v-619h-182v619l-454 847h205l210 -397q79 -149 139 -279z" />
    <glyph glyph-name="Phi" unicode="&#x3a6;" horiz-adv-x="1373" 
d="M773 174v-184h-174v184q-165 15 -280.5 87t-174.5 194t-59 286q0 166 59.5 289t175 195.5t279.5 87.5v163h174v-163q163 -14 278.5 -86t176 -195t60.5 -290q0 -164 -59.5 -286t-175 -194.5t-280.5 -87.5zM599 330v828q-171 -19 -254 -121t-83 -298q0 -173 84 -279.5
t253 -129.5zM1111 740q0 189 -86.5 293t-251.5 125v-829q171 20 254.5 124.5t83.5 286.5z" />
    <glyph glyph-name="Chi" unicode="&#x3a7;" horiz-adv-x="1130" 
d="M1124 0h-206l-237 414q-75 131 -111 209q-63 -122 -128 -229l-235 -394h-201l469 770l-398 696h206l192 -348q78 -142 109 -203q46 93 93 171l227 380h183l-410 -683z" />
    <glyph glyph-name="Psi" unicode="&#x3a8;" horiz-adv-x="1405" 
d="M1275 994q0 -172 -48 -288.5t-154.5 -182.5t-279.5 -79v-444h-180v444q-176 13 -282.5 79t-153.5 183.5t-47 290.5v469h180v-462q0 -128 30 -211.5t96.5 -129.5t176.5 -58v861h180v-861q113 12 179.5 60t94.5 130.5t28 207.5v463h180v-472z" />
    <glyph glyph-name="Omega" unicode="&#x3a9;" horiz-adv-x="1398" 
d="M1257 818q0 -182 -72.5 -358t-198.5 -301h286v-159h-497v148q142 122 221 282t79 378q0 257 -95.5 391t-279.5 134q-377 0 -377 -522q0 -212 77.5 -373.5t222.5 -289.5v-148h-497v159h288q-130 123 -201.5 294.5t-71.5 364.5q0 209 66 360.5t191.5 232t301.5 80.5
q180 0 305.5 -86t188.5 -238t63 -349z" />
    <glyph glyph-name="Iotadieresis" unicode="&#x3aa;" horiz-adv-x="504" 
d="M162 0v1466h180v-1466h-180zM-28 1620v206h185v-206h-185zM344 1620v206h187v-206h-187z" />
    <glyph glyph-name="Upsilondieresis" unicode="&#x3ab;" horiz-adv-x="1134" 
d="M564 790q73 148 140 270l222 406h198l-478 -847v-619h-182v619l-454 847h205l210 -397q79 -149 139 -279zM287 1620v206h185v-206h-185zM659 1620v206h187v-206h-187z" />
    <glyph glyph-name="alphatonos" unicode="&#x3ac;" horiz-adv-x="1071" 
d="M783 846h3q12 85 36 216h174q-39 -118 -64.5 -258t-33.5 -272q15 -254 103 -532h-175q-3 12 -17.5 87t-22.5 132h-5q-50 -134 -131.5 -189t-177.5 -55q-187 0 -287 139.5t-100 408.5q0 278 102.5 420.5t287.5 142.5q220 0 308 -240zM257 530q0 -153 35.5 -246t90 -131.5
t116.5 -38.5q71 0 125.5 50.5t85 143.5t30.5 217q0 121 -30 217t-86.5 150.5t-134.5 54.5q-58 0 -110.5 -38.5t-87 -131.5t-34.5 -247zM446 1211l52 255h232l-165 -255h-119z" />
    <glyph glyph-name="epsilontonos" unicode="&#x3ad;" horiz-adv-x="829" 
d="M762 938l-113 -93q-42 53 -88.5 77.5t-105.5 24.5q-58 0 -95 -23.5t-54 -60.5t-17 -77q0 -75 48 -120.5t141 -45.5h86v-144h-82q-71 0 -118.5 -26t-70 -67.5t-22.5 -90.5q0 -78 50.5 -128t142.5 -50q59 0 115.5 30.5t102.5 85.5l102 -103q-68 -77 -147.5 -114t-176.5 -37
q-122 0 -203 41.5t-119 110.5t-38 153q0 94 51.5 164.5t154.5 105.5q-98 39 -142.5 98.5t-44.5 146.5q0 77 35.5 143t111 107t187.5 41q94 0 168 -35.5t141 -113.5zM372 1211l52 255h232l-165 -255h-119z" />
    <glyph glyph-name="etatonos" unicode="&#x3ae;" horiz-adv-x="1026" 
d="M902 709v-1114h-169v1112q0 90 -19 141t-59 72.5t-107 21.5q-78 0 -134.5 -37.5t-86.5 -104.5t-30 -156v-644h-169v1062h151v-154q130 178 322 178q146 0 223.5 -86.5t77.5 -290.5zM452 1211l52 255h232l-165 -255h-119z" />
    <glyph glyph-name="iotatonos" unicode="&#x3af;" horiz-adv-x="526" 
d="M405 133q24 0 67 9l24 -142q-62 -17 -120 -17q-127 0 -188 66.5t-61 206.5l1 806h169l-1 -780q0 -76 23 -112.5t86 -36.5zM132 1211l52 255h232l-165 -255h-119z" />
    <glyph glyph-name="upsilondieresistonos" unicode="&#x3b0;" horiz-adv-x="1012" 
d="M898 515q0 -192 -43.5 -311t-131.5 -174t-223 -55q-193 0 -284.5 107t-91.5 323v657h169v-668q0 -280 217 -280q77 0 125 38.5t71 122t23 219.5q0 142 -14.5 277t-45.5 291h169q60 -292 60 -547zM373 1211l48 254h215l-155 -254h-108zM141 1225v206h165v-206h-165z
M669 1225v206h167v-206h-167z" />
    <glyph glyph-name="alpha" unicode="&#x3b1;" horiz-adv-x="1071" 
d="M783 846h3q12 85 36 216h174q-39 -118 -64.5 -258t-33.5 -272q15 -254 103 -532h-175q-3 12 -17.5 87t-22.5 132h-5q-50 -134 -131.5 -189t-177.5 -55q-187 0 -287 139.5t-100 408.5q0 278 102.5 420.5t287.5 142.5q220 0 308 -240zM257 530q0 -153 35.5 -246t90 -131.5
t116.5 -38.5q71 0 125.5 50.5t85 143.5t30.5 217q0 121 -30 217t-86.5 150.5t-134.5 54.5q-58 0 -110.5 -38.5t-87 -131.5t-34.5 -247z" />
    <glyph glyph-name="beta" unicode="&#x3b2;" horiz-adv-x="1000" 
d="M860 1121q0 -113 -47 -190.5t-140 -125.5q120 -36 183.5 -135t63.5 -259q0 -131 -43 -229.5t-125.5 -152.5t-197.5 -54q-89 0 -149.5 34t-104.5 117h-3v-532h-169v1427q0 231 97.5 350.5t289.5 119.5q102 0 180 -44t121.5 -127.5t43.5 -198.5zM689 1115q0 75 -24.5 128
t-67.5 80t-97 27q-203 0 -203 -326v-496q0 -120 13.5 -206.5t62 -146t146.5 -59.5q69 0 120.5 36t80 106t28.5 169q0 143 -62.5 219t-171.5 76h-79v144h59q57 0 101.5 29t69 85t24.5 135z" />
    <glyph glyph-name="gamma" unicode="&#x3b3;" horiz-adv-x="897" 
d="M527 -406h-165v440l-342 1028h179l246 -827h4l257 827h171l-350 -1046v-422z" />
    <glyph glyph-name="delta" unicode="&#x3b4;" horiz-adv-x="1017" 
d="M425 1323q47 -61 110.5 -127l150.5 -151l51 -51q90 -88 142.5 -202t52.5 -273q0 -184 -53 -306t-148.5 -180t-222.5 -58q-195 0 -309 133t-114 409q0 171 48 287.5t131.5 175.5t191.5 65q-66 60 -123.5 125.5t-133.5 161.5l-14 18v116h665v-143h-425zM257 517
q0 -205 68 -304t183 -99q121 0 186.5 99.5t65.5 305.5q0 129 -32 219.5t-89 136t-131 45.5q-113 0 -182 -99t-69 -304z" />
    <glyph glyph-name="epsilon" unicode="&#x3b5;" horiz-adv-x="829" 
d="M762 938l-113 -93q-42 53 -88.5 77.5t-105.5 24.5q-58 0 -95 -23.5t-54 -60.5t-17 -77q0 -75 48 -120.5t141 -45.5h86v-144h-82q-71 0 -118.5 -26t-70 -67.5t-22.5 -90.5q0 -78 50.5 -128t142.5 -50q59 0 115.5 30.5t102.5 85.5l102 -103q-68 -77 -147.5 -114t-176.5 -37
q-122 0 -203 41.5t-119 110.5t-38 153q0 94 51.5 164.5t154.5 105.5q-98 39 -142.5 98.5t-44.5 146.5q0 77 35.5 143t111 107t187.5 41q94 0 168 -35.5t141 -113.5z" />
    <glyph glyph-name="zeta" unicode="&#x3b6;" horiz-adv-x="784" 
d="M262 481q0 -68 19 -118.5t68.5 -94.5t139.5 -84q86 -38 138.5 -80t78.5 -98t26 -134q0 -85 -41 -153.5t-120.5 -108.5t-190.5 -40q-14 0 -24.5 1t-17.5 2l40 143q95 0 142 43t47 114q0 40 -14 66.5t-47.5 49t-95.5 49.5q-124 53 -192 108.5t-98 133t-30 199.5
q0 146 53.5 300t149.5 294.5t222 249.5h-334v143h573v-116q-259 -201 -375.5 -426t-116.5 -443z" />
    <glyph glyph-name="eta" unicode="&#x3b7;" horiz-adv-x="1026" 
d="M902 709v-1114h-169v1112q0 90 -19 141t-59 72.5t-107 21.5q-78 0 -134.5 -37.5t-86.5 -104.5t-30 -156v-644h-169v1062h151v-154q130 178 322 178q146 0 223.5 -86.5t77.5 -290.5z" />
    <glyph glyph-name="theta" unicode="&#x3b8;" horiz-adv-x="1020" 
d="M920 733q0 -397 -104.5 -577.5t-303.5 -180.5q-202 0 -307 177.5t-105 563.5q0 277 47.5 448.5t138 249t225.5 77.5q138 0 228 -75.5t135.5 -242t45.5 -440.5zM268 810h483q-4 209 -33 328t-79.5 166.5t-126.5 47.5t-127.5 -51.5t-81.5 -171t-35 -319.5zM752 666h-484
q4 -205 33 -326.5t81 -173.5t130 -52t129.5 54.5t79.5 176t31 321.5z" />
    <glyph glyph-name="iota" unicode="&#x3b9;" horiz-adv-x="526" 
d="M405 133q24 0 67 9l24 -142q-62 -17 -120 -17q-127 0 -188 66.5t-61 206.5l1 806h169l-1 -780q0 -76 23 -112.5t86 -36.5z" />
    <glyph glyph-name="kappa" unicode="&#x3ba;" horiz-adv-x="901" 
d="M882 0h-192l-278 513l-115 -139v-374h-169v1062h169v-476l348 476h200l-323 -421z" />
    <glyph glyph-name="lambda" unicode="&#x3bb;" horiz-adv-x="911" 
d="M695 0l-176 595q-56 227 -59 240h-3q-30 -139 -62 -248l-181 -587h-174l335 1027l-131 439h171l456 -1466h-176z" />
    <glyph glyph-name="mu" unicode="&#x3bc;" horiz-adv-x="1030" 
d="M743 0v137q-41 -83 -94.5 -120.5t-138.5 -37.5q-80 0 -128.5 34t-83.5 99v-518h-170v1468h169v-592q0 -168 55 -258.5t155 -90.5q69 0 120 44.5t78.5 123.5t27.5 181v592h169v-1062h-159z" />
    <glyph glyph-name="nu" unicode="&#x3bd;" horiz-adv-x="910" 
d="M507 0h-134l-353 1062h181l201 -634q24 -76 53 -211q197 406 265 845h170q-45 -272 -142 -532t-241 -530z" />
    <glyph glyph-name="xi" unicode="&#x3be;" horiz-adv-x="755" 
d="M509 1347q-189 0 -189 -190q0 -84 50.5 -138.5t147.5 -54.5h115v-144h-77q-99 0 -166.5 -56.5t-99.5 -141.5t-32 -172q0 -96 40.5 -162t149.5 -97q135 -39 201 -115.5t66 -203.5q0 -92 -42.5 -160t-124 -105t-195.5 -37q-17 0 -39 2l36 144q98 0 148 39.5t50 109.5
q0 68 -35 106.5t-124 62.5q-157 43 -228 143t-71 274q0 106 35.5 196t96 152t133.5 88q-100 35 -150 109t-50 178q0 150 88 233.5t263 83.5h143v-144h-140z" />
    <glyph glyph-name="omicron" unicode="&#x3bf;" horiz-adv-x="1025" 
d="M85 543q0 156 48 278.5t144.5 193.5t236.5 71t235.5 -69t143 -193t47.5 -290q0 -261 -107.5 -410t-318.5 -149q-218 0 -323.5 149.5t-105.5 418.5zM510 947q-74 0 -131 -44.5t-89.5 -135.5t-32.5 -227q0 -205 65.5 -315.5t188.5 -110.5q117 0 187 100.5t70 335.5
q0 194 -68.5 295.5t-189.5 101.5z" />
    <glyph glyph-name="pi" unicode="&#x3c0;" horiz-adv-x="1204" 
d="M916 282q0 -76 23 -112.5t86 -36.5q24 0 67 9l24 -142q-62 -17 -120 -17q-127 0 -188 66.5t-61 206.5l1 663h-323v-919h-169v919h-25q-40 0 -78.5 -3.5t-88.5 -16.5v143q50 13 89 16.5t78 3.5h909v-143h-223z" />
    <glyph glyph-name="rho" unicode="&#x3c1;" horiz-adv-x="1064" 
d="M979 534q0 -179 -47.5 -304.5t-135 -190t-207.5 -64.5q-96 0 -165 37t-127 123h-3v-541h-169v915q0 285 112.5 431t322.5 146q129 0 223.5 -64.5t145 -189t50.5 -298.5zM294 511q0 -121 34.5 -211t95.5 -137.5t138 -47.5q115 0 180 105.5t65 315.5q0 204 -67 307.5
t-186 103.5q-123 0 -191.5 -106.5t-68.5 -329.5z" />
    <glyph glyph-name="sigma1" unicode="&#x3c2;" horiz-adv-x="826" 
d="M395 -291q94 0 142 43.5t48 112.5q0 45 -17.5 75.5t-54.5 53.5t-103 47q-117 43 -188 105.5t-104 154.5t-33 223q0 162 54 289.5t158.5 200t250.5 72.5q60 0 123.5 -12.5t119.5 -35.5l-32 -139q-106 48 -208 48q-89 0 -155.5 -52t-102.5 -148t-36 -223
q0 -128 50.5 -207.5t177.5 -127.5q93 -36 150 -77t86 -99t29 -141q0 -82 -41 -151t-121 -110t-192 -41q-77 0 -144 21l26 142q26 -11 57 -17.5t60 -6.5z" />
    <glyph glyph-name="sigma" unicode="&#x3c3;" horiz-adv-x="1062" 
d="M85 522q0 170 52 291t151 185t239 64h515v-143h-245q36 -34 68.5 -94.5t53.5 -139t21 -163.5q0 -171 -50.5 -294t-146.5 -188t-230 -65q-133 0 -229.5 65t-147.5 188t-51 294zM511 919q-119 0 -186.5 -102.5t-67.5 -297.5q0 -131 31.5 -222t89 -137t134.5 -46
q76 0 134 46t90 137.5t32 223.5q0 125 -31.5 214.5t-89.5 136.5t-136 47z" />
    <glyph glyph-name="tau" unicode="&#x3c4;" horiz-adv-x="776" 
d="M458 282q0 -76 23 -112.5t86 -36.5q24 0 67 9l24 -142q-62 -17 -120 -17q-127 0 -188 66.5t-61 206.5l1 663h-59q-40 0 -78.5 -3.5t-88.5 -16.5v143q50 13 89 16.5t78 3.5h481v-143h-253z" />
    <glyph glyph-name="upsilon" unicode="&#x3c5;" horiz-adv-x="1012" 
d="M898 515q0 -192 -43.5 -311t-131.5 -174t-223 -55q-193 0 -284.5 107t-91.5 323v657h169v-668q0 -280 217 -280q77 0 125 38.5t71 122t23 219.5q0 142 -14.5 277t-45.5 291h169q60 -292 60 -547z" />
    <glyph glyph-name="phi" unicode="&#x3c6;" horiz-adv-x="1210" 
d="M686 -21v-385h-160v385q-220 25 -330.5 176t-110.5 392q0 147 45.5 264.5t134 189t211.5 84.5l-22 -148q-103 -28 -154 -131.5t-51 -261.5q0 -181 71.5 -289.5t205.5 -133.5v668q0 98 19 162t68.5 99t138.5 35q113 0 197 -66t130 -185.5t46 -276.5q0 -251 -111.5 -402.5
t-327.5 -175.5zM962 553q0 123 -28.5 212t-73.5 135t-93 46q-36 0 -53.5 -17.5t-22.5 -47t-5 -78.5v-683q138 24 207 133.5t69 299.5z" />
    <glyph glyph-name="chi" unicode="&#x3c7;" horiz-adv-x="889" 
d="M879 -406h-184l-237 596l-234 -596h-181l330 752l-302 716h183l210 -555l212 555h182l-309 -720z" />
    <glyph glyph-name="psi" unicode="&#x3c8;" horiz-adv-x="1247" 
d="M1123 479q0 -234 -100.5 -358.5t-317.5 -142.5v-384h-160v384q-220 17 -320.5 139t-100.5 362v583h166v-585q0 -162 63 -249t192 -107v941h160v-941q129 19 190.5 106.5t61.5 249.5v585h166v-583z" />
    <glyph glyph-name="omega" unicode="&#x3c9;" horiz-adv-x="1303" 
d="M286 503q0 -381 144 -381q139 0 139 354v318h165v-318q0 -177 35 -265.5t103 -88.5q145 0 145 381q0 130 -27 276.5t-85 282.5h175q53 -135 81 -278t28 -282q0 -257 -79.5 -392t-228.5 -135q-160 0 -230 199q-35 -103 -95 -151t-144 -48q-141 0 -219.5 133t-78.5 394
q0 139 28 282t80 278h176q-57 -136 -84.5 -283t-27.5 -276z" />
    <glyph glyph-name="iotadieresis" unicode="&#x3ca;" horiz-adv-x="526" 
d="M405 133q24 0 67 9l24 -142q-62 -17 -120 -17q-127 0 -188 66.5t-61 206.5l1 806h169l-1 -780q0 -76 23 -112.5t86 -36.5zM-67 1225v206h185v-206h-185zM305 1225v206h187v-206h-187z" />
    <glyph glyph-name="upsilondieresis" unicode="&#x3cb;" horiz-adv-x="1012" 
d="M898 515q0 -192 -43.5 -311t-131.5 -174t-223 -55q-193 0 -284.5 107t-91.5 323v657h169v-668q0 -280 217 -280q77 0 125 38.5t71 122t23 219.5q0 142 -14.5 277t-45.5 291h169q60 -292 60 -547zM211 1225v206h185v-206h-185zM583 1225v206h187v-206h-187z" />
    <glyph glyph-name="omicrontonos" unicode="&#x3cc;" horiz-adv-x="1025" 
d="M85 543q0 156 48 278.5t144.5 193.5t236.5 71t235.5 -69t143 -193t47.5 -290q0 -261 -107.5 -410t-318.5 -149q-218 0 -323.5 149.5t-105.5 418.5zM510 947q-74 0 -131 -44.5t-89.5 -135.5t-32.5 -227q0 -205 65.5 -315.5t188.5 -110.5q117 0 187 100.5t70 335.5
q0 194 -68.5 295.5t-189.5 101.5zM432 1211l52 255h232l-165 -255h-119z" />
    <glyph glyph-name="upsilontonos" unicode="&#x3cd;" horiz-adv-x="1012" 
d="M898 515q0 -192 -43.5 -311t-131.5 -174t-223 -55q-193 0 -284.5 107t-91.5 323v657h169v-668q0 -280 217 -280q77 0 125 38.5t71 122t23 219.5q0 142 -14.5 277t-45.5 291h169q60 -292 60 -547zM410 1211l52 255h232l-165 -255h-119z" />
    <glyph glyph-name="omegatonos" unicode="&#x3ce;" horiz-adv-x="1303" 
d="M286 503q0 -381 144 -381q139 0 139 354v318h165v-318q0 -177 35 -265.5t103 -88.5q145 0 145 381q0 130 -27 276.5t-85 282.5h175q53 -135 81 -278t28 -282q0 -257 -79.5 -392t-228.5 -135q-160 0 -230 199q-35 -103 -95 -151t-144 -48q-141 0 -219.5 133t-78.5 394
q0 139 28 282t80 278h176q-57 -136 -84.5 -283t-27.5 -276zM571 1211l52 255h232l-165 -255h-119z" />
    <glyph glyph-name="afii10023" unicode="&#x401;" horiz-adv-x="1029" 
d="M342 1308v-474h504v-158h-504v-518h596v-158h-776v1466h748v-158h-568zM268 1629v206h185v-206h-185zM640 1629v206h187v-206h-187z" />
    <glyph glyph-name="afii10051" unicode="&#x402;" horiz-adv-x="1380" 
d="M1335 459q0 -147 -53.5 -256.5t-146.5 -168.5t-210 -59q-69 0 -116.5 7.5t-86.5 23.5l47 160q58 -32 150 -32q65 0 118.5 38.5t84.5 112t31 174.5q0 157 -71.5 241.5t-198.5 84.5q-159 0 -283 -71v-714h-180v1309h-373v157h931v-157h-378v-441q137 76 314 76
q124 0 219.5 -59.5t148.5 -169t53 -256.5z" />
    <glyph glyph-name="afii10052" unicode="&#x403;" horiz-adv-x="916" 
d="M342 1310v-1310h-180v1466h707v-156h-527zM416 1606l128 254h235l-235 -254h-128z" />
    <glyph glyph-name="afii10053" unicode="&#x404;" horiz-adv-x="1140" 
d="M605 -25q-244 0 -376 185t-132 581q0 366 125 558t381 192q382 0 448 -429l-168 -40q-58 311 -281 311q-152 0 -229 -121.5t-91 -371.5h374v-166h-377q12 -541 324 -541q253 0 295 375l171 -44q-64 -489 -464 -489z" />
    <glyph glyph-name="afii10054" unicode="&#x405;" horiz-adv-x="1131" 
d="M557 1336q-72 0 -127 -28.5t-85 -77.5t-30 -109q0 -54 17.5 -94.5t80.5 -88t191 -102.5q164 -70 258.5 -135.5t136 -139.5t41.5 -172q0 -127 -58.5 -220.5t-163 -143.5t-239.5 -50q-451 0 -491 485l171 15q14 -173 96.5 -259t235.5 -86q85 0 148 33.5t96.5 87.5t33.5 114
q0 68 -27 114.5t-99 92.5t-215 108q-144 62 -228 127t-120 137t-36 163q0 112 53.5 199.5t150 136t221.5 48.5q123 0 219 -51t151.5 -149t59.5 -235l-172 -14q-15 151 -80.5 222.5t-189.5 71.5z" />
    <glyph glyph-name="afii10055" unicode="&#x406;" horiz-adv-x="504" 
d="M162 0v1466h180v-1466h-180z" />
    <glyph glyph-name="afii10056" unicode="&#x407;" horiz-adv-x="504" 
d="M162 0v1466h180v-1466h-180zM-28 1629v206h185v-206h-185zM344 1629v206h187v-206h-187z" />
    <glyph glyph-name="afii10057" unicode="&#x408;" horiz-adv-x="917" 
d="M400 -25q-351 0 -351 443l171 20q1 -112 19 -178.5t56 -96.5t103 -30q66 0 105 29.5t57.5 101.5t18.5 201v1001h180v-998q0 -167 -29 -271.5t-107 -163t-223 -58.5z" />
    <glyph glyph-name="afii10058" unicode="&#x409;" horiz-adv-x="1705" 
d="M1628 427q0 -136 -53 -232t-154 -145.5t-244 -49.5h-359v1297h-397v-960q0 -193 -64 -277.5t-190 -84.5q-72 0 -139 25l28 161q38 -16 70 -16q57 0 86 48.5t29 154.5v1118h757v-603h181q141 0 242 -52.5t154 -150.5t53 -233zM1446 431q0 134 -69.5 200t-214.5 66h-164
v-531h164q148 0 216 66t68 199z" />
    <glyph glyph-name="afii10059" unicode="&#x40a;" horiz-adv-x="1705" 
d="M1628 427q0 -136 -53 -232t-154 -145.5t-244 -49.5h-359v695h-476v-695h-180v1466h180v-616h476v616h180v-616h181q141 0 242 -52t154 -147.5t53 -223.5zM1446 431q0 133 -69.5 198.5t-214.5 65.5h-164v-540h164q148 0 216 68.5t68 207.5z" />
    <glyph glyph-name="afii10060" unicode="&#x40b;" horiz-adv-x="1436" 
d="M1286 483v-483h-180v474q0 108 -20 175t-66.5 100.5t-126.5 33.5q-83 0 -151.5 -17.5t-141.5 -60.5v-705h-180v1309h-373v157h931v-157h-378v-447q145 82 315 82q126 0 207 -44t122.5 -145.5t41.5 -271.5z" />
    <glyph glyph-name="afii10061" unicode="&#x40c;" horiz-adv-x="1065" 
d="M963 1305q-44 0 -70.5 -29.5t-51.5 -96.5l-49 -129q-33 -88 -57 -138t-51.5 -81t-65.5 -47v-4q47 -17 82 -49.5t70.5 -93.5t84.5 -172l204 -465h-205l-170 409q-50 120 -83.5 178t-79.5 86.5t-120 28.5h-59v-702h-180v1466h180v-603h53q68 0 104.5 19.5t63 68t66.5 159.5
l48 131q43 118 101.5 171.5t153.5 53.5h88v-161h-57zM433 1606l128 254h235l-235 -254h-128z" />
    <glyph glyph-name="afii10062" unicode="&#x40e;" horiz-adv-x="1093" 
d="M584 285q-49 -117 -93.5 -183.5t-97.5 -96.5t-127 -30q-32 0 -66 6.5t-59 15.5v160q60 -21 95 -21q40 0 71 16t62 61.5t66 131.5l50 124l-450 997h190l338 -804l326 804h189zM559 1696q68 0 113.5 34t58.5 103h130q-17 -122 -95.5 -184.5t-207.5 -62.5t-208 63t-97 184
h135q13 -68 59 -102.5t112 -34.5z" />
    <glyph glyph-name="afii10145" unicode="&#x40f;" horiz-adv-x="1253" 
d="M712 0v-406h-171v406h-379v1466h180v-1297h569v1297h180v-1466h-379z" />
    <glyph glyph-name="afii10017" unicode="&#x410;" horiz-adv-x="1130" 
d="M305 423l-126 -423h-184l469 1466h205l466 -1466h-191l-125 423h-514zM564 1290l-215 -721h428z" />
    <glyph glyph-name="afii10018" unicode="&#x411;" horiz-adv-x="1112" 
d="M342 1302v-439h176q161 0 271.5 -52.5t166.5 -150t56 -233.5q0 -207 -126.5 -317t-372.5 -110h-351v1466h717v-164h-537zM342 164h182q159 0 232.5 65t73.5 199q0 136 -75 203.5t-231 67.5h-182v-535z" />
    <glyph glyph-name="afii10019" unicode="&#x412;" horiz-adv-x="1140" 
d="M999 1092q0 -228 -197 -322q248 -74 248 -354q0 -193 -111.5 -304.5t-362.5 -111.5h-414v1466h396q221 0 331 -100t110 -274zM342 838h212q144 0 205 62.5t61 177.5q0 72 -26 122.5t-93 79t-184 28.5h-175v-470zM342 158h202q106 0 176 22t109 80t39 164q0 95 -36.5 151
t-110 80.5t-190.5 24.5h-189v-522z" />
    <glyph glyph-name="afii10020" unicode="&#x413;" horiz-adv-x="916" 
d="M342 1310v-1310h-180v1466h707v-156h-527z" />
    <glyph glyph-name="afii10021" unicode="&#x414;" horiz-adv-x="1218" 
d="M1178 157v-563h-171v406h-796v-406h-171v563h125q75 225 110 475.5t35 540.5v293h719v-1309h149zM490 1163q0 -289 -32.5 -535t-104.5 -471h496v1152h-359v-146z" />
    <glyph glyph-name="afii10022" unicode="&#x415;" horiz-adv-x="1029" 
d="M342 1308v-474h504v-158h-504v-518h596v-158h-776v1466h748v-158h-568z" />
    <glyph glyph-name="afii10024" unicode="&#x416;" horiz-adv-x="1582" 
d="M381 409l-169 -409h-206l206 465q49 111 84 172t69.5 93.5t81.5 49.5v4q-38 16 -66 47t-52.5 82t-57.5 139l-48 128q-25 68 -50.5 96.5t-69.5 28.5h-56v161h87q95 0 154 -53.5t101 -171.5l47 -131q40 -111 66.5 -160t63 -68t104.5 -19h31v603h180v-603h31
q68 0 104.5 19.5t63 68.5t66.5 159l47 131q42 117 100.5 171t154.5 54h88v-161h-56q-44 0 -69.5 -29t-50.5 -96l-49 -128q-34 -88 -58.5 -138.5t-52.5 -82t-66 -47.5v-4q47 -17 82 -49.5t70.5 -94t84.5 -171.5l205 -465h-206l-170 409q-51 122 -83.5 179t-78 85.5
t-121.5 28.5h-36v-702h-180v702h-35q-77 0 -123 -28t-78.5 -85.5t-83.5 -179.5z" />
    <glyph glyph-name="afii10025" unicode="&#x417;" horiz-adv-x="1057" 
d="M967 418q0 -131 -50 -231t-148 -156t-237 -56q-195 0 -303.5 110t-138.5 305l184 36q21 -144 85 -217t176 -73q122 0 185 76.5t63 220.5q0 126 -65.5 198.5t-187.5 72.5h-88v161h80q100 0 153 66t53 177q0 103 -52 162.5t-144 59.5q-95 0 -148 -59.5t-69 -183.5l-179 31
q75 373 400 373q111 0 196 -49t131 -135t46 -193q0 -109 -46 -192.5t-140 -129.5v-4q115 -27 179.5 -126.5t64.5 -243.5z" />
    <glyph glyph-name="afii10026" unicode="&#x418;" horiz-adv-x="1261" 
d="M1099 0h-172l17 1214h-2l-582 -1214h-198v1466h173l-15 -1211h2l582 1211h195v-1466z" />
    <glyph glyph-name="afii10027" unicode="&#x419;" horiz-adv-x="1261" 
d="M1099 0h-172l17 1214h-2l-582 -1214h-198v1466h173l-15 -1211h2l582 1211h195v-1466zM623 1696q68 0 113.5 34t58.5 103h130q-17 -122 -95.5 -184.5t-207.5 -62.5t-208 63t-97 184h135q13 -68 59 -102.5t112 -34.5z" />
    <glyph glyph-name="afii10028" unicode="&#x41a;" horiz-adv-x="1065" 
d="M963 1305q-44 0 -70.5 -29.5t-51.5 -96.5l-49 -129q-33 -88 -57 -138t-51.5 -81t-65.5 -47v-4q47 -17 82 -49.5t70.5 -93.5t84.5 -172l204 -465h-205l-170 409q-50 120 -83.5 178t-79.5 86.5t-120 28.5h-59v-702h-180v1466h180v-603h53q68 0 104.5 19.5t63 68t66.5 159.5
l48 131q43 118 101.5 171.5t153.5 53.5h88v-161h-57z" />
    <glyph glyph-name="afii10029" unicode="&#x41b;" horiz-adv-x="1200" 
d="M126 145q57 0 86 48.5t29 154.5v1118h797v-1466h-180v1297h-437v-960q0 -193 -64 -277.5t-190 -84.5q-72 0 -139 25l28 161q38 -16 70 -16z" />
    <glyph glyph-name="afii10030" unicode="&#x41c;" horiz-adv-x="1600" 
d="M1262 0l19 1293l-398 -1293h-165l-393 1285l10 -1285h-173v1466h268l372 -1224l372 1224h264v-1466h-176z" />
    <glyph glyph-name="afii10031" unicode="&#x41d;" horiz-adv-x="1260" 
d="M918 0v695h-576v-695h-180v1466h180v-616h576v616h180v-1466h-180z" />
    <glyph glyph-name="afii10032" unicode="&#x41e;" horiz-adv-x="1259" 
d="M1162 737q0 -360 -128 -561t-397 -201q-257 0 -398.5 187t-141.5 585q0 365 136.5 554.5t401.5 189.5q164 0 281.5 -81t181.5 -249.5t64 -423.5zM279 718q0 -302 92.5 -443t259.5 -141q349 0 349 592q0 304 -88.5 455.5t-267.5 151.5q-187 0 -266 -156t-79 -459z" />
    <glyph glyph-name="afii10033" unicode="&#x41f;" horiz-adv-x="1260" 
d="M918 0v1309h-576v-1309h-180v1466h936v-1466h-180z" />
    <glyph glyph-name="afii10034" unicode="&#x420;" horiz-adv-x="1120" 
d="M1043 1032q0 -219 -129 -323t-389 -104h-183v-605h-180v1466h367q256 0 385 -108t129 -326zM342 761h178q175 0 256.5 67.5t81.5 206.5q0 137 -81.5 206t-254.5 69h-180v-549z" />
    <glyph glyph-name="afii10035" unicode="&#x421;" horiz-adv-x="1140" 
d="M1051 1062l-168 -40q-58 311 -281 311q-169 0 -246 -151t-77 -465q0 -584 324 -584q253 0 295 375l171 -44q-64 -489 -464 -489q-244 0 -376 185t-132 581q0 366 125 558t381 192q382 0 448 -429z" />
    <glyph glyph-name="afii10036" unicode="&#x422;" horiz-adv-x="1025" 
d="M600 1309v-1309h-180v1309h-373v157h931v-157h-378z" />
    <glyph glyph-name="afii10037" unicode="&#x423;" horiz-adv-x="1093" 
d="M584 285q-49 -117 -93.5 -183.5t-97.5 -96.5t-127 -30q-32 0 -66 6.5t-59 15.5v160q60 -21 95 -21q40 0 71 16t62 61.5t66 131.5l50 124l-450 997h190l338 -804l326 804h189z" />
    <glyph glyph-name="afii10038" unicode="&#x424;" horiz-adv-x="1373" 
d="M773 174v-184h-174v184q-165 15 -280.5 87t-174.5 194t-59 286q0 166 59.5 289t175 195.5t279.5 87.5v163h174v-163q163 -14 278.5 -86t176 -195t60.5 -290q0 -164 -59.5 -286t-175 -194.5t-280.5 -87.5zM599 330v828q-171 -19 -254 -121t-83 -298q0 -173 84 -279.5
t253 -129.5zM1111 740q0 189 -86.5 293t-251.5 125v-829q171 20 254.5 124.5t83.5 286.5z" />
    <glyph glyph-name="afii10039" unicode="&#x425;" horiz-adv-x="1130" 
d="M1124 0h-206l-237 414q-75 131 -111 209q-63 -122 -128 -229l-235 -394h-201l469 770l-398 696h206l192 -348q78 -142 109 -203q46 93 93 171l227 380h183l-410 -683z" />
    <glyph glyph-name="afii10040" unicode="&#x426;" horiz-adv-x="1277" 
d="M1237 157v-563h-170v406h-905v1466h180v-1309h566v1309h180v-1309h149z" />
    <glyph glyph-name="afii10041" unicode="&#x427;" horiz-adv-x="1200" 
d="M858 0v602q-166 -84 -329 -84q-130 0 -213 44t-124.5 145t-41.5 272v487h180v-479q0 -108 20 -175t68 -100t131 -33q159 0 309 78v709h180v-1466h-180z" />
    <glyph glyph-name="afii10042" unicode="&#x428;" horiz-adv-x="1638" 
d="M162 0v1466h180v-1309h387v1309h180v-1309h387v1309h180v-1466h-1314z" />
    <glyph glyph-name="afii10043" unicode="&#x429;" horiz-adv-x="1666" 
d="M1626 -406h-170v406h-1294v1466h180v-1309h387v1309h180v-1309h387v1309h180v-1316l1 7h149v-563z" />
    <glyph glyph-name="afii10044" unicode="&#x42a;" horiz-adv-x="1308" 
d="M1231 427q0 -136 -55.5 -232t-161 -145.5t-254.5 -49.5h-379v1310h-334v156h514v-603h201q147 0 252.5 -52.5t161 -150.5t55.5 -233zM1049 431q0 134 -74 200t-230 66h-184v-531h184q158 0 231 66t73 199z" />
    <glyph glyph-name="afii10045" unicode="&#x42b;" horiz-adv-x="1533" 
d="M342 1466v-603h181q141 0 242 -52.5t154 -150.5t53 -233q0 -136 -53 -232t-154 -145.5t-244 -49.5h-359v1466h180zM1191 0v1466h180v-1466h-180zM506 166q148 0 216 66t68 199q0 134 -69.5 200t-214.5 66h-164v-531h164z" />
    <glyph glyph-name="afii10046" unicode="&#x42c;" horiz-adv-x="1089" 
d="M342 1466v-603h201q147 0 252.5 -52.5t161 -150.5t55.5 -233q0 -136 -55.5 -232t-161 -145.5t-254.5 -49.5h-379v1466h180zM526 166q158 0 231 66t73 199q0 134 -74 200t-230 66h-184v-531h184z" />
    <glyph glyph-name="afii10047" unicode="&#x42d;" horiz-adv-x="1140" 
d="M1043 741q0 -396 -132 -581t-376 -185q-400 0 -464 489l171 44q42 -375 295 -375q312 0 324 541h-377v166h374q-14 250 -91 371.5t-229 121.5q-223 0 -281 -311l-168 40q66 429 448 429q256 0 381 -192t125 -558z" />
    <glyph glyph-name="afii10048" unicode="&#x42e;" horiz-adv-x="1655" 
d="M1558 737q0 -360 -123 -561t-382 -201q-235 0 -369.5 167.5t-148.5 522.5h-193v-665h-180v1466h180v-646h192q14 329 144.5 500t372.5 171q240 0 373.5 -187t133.5 -567zM1376 726q0 304 -83.5 455.5t-252.5 151.5q-176 0 -250.5 -156t-74.5 -459q0 -302 87.5 -443
t244.5 -141q329 0 329 592z" />
    <glyph glyph-name="afii10049" unicode="&#x42f;" horiz-adv-x="1176" 
d="M1014 0h-180v657h-55q-106 0 -164 -17t-100.5 -68.5t-93.5 -162.5l-192 -409h-209l205 434q45 99 100.5 160t113.5 82q-100 17 -169.5 72t-105 138t-35.5 184q0 186 120.5 291t356.5 105h408v-1466zM834 1311h-204q-151 0 -234 -55.5t-83 -193.5q0 -131 78.5 -190.5
t246.5 -59.5h196v499z" />
    <glyph glyph-name="afii10065" unicode="&#x430;" horiz-adv-x="917" 
d="M792 749v-507q0 -69 13.5 -131.5t42.5 -110.5h-175q-19 39 -35 114q-107 -140 -279 -140q-131 0 -203 79.5t-72 217.5q0 91 33.5 152.5t103.5 103t185 70.5q148 37 217 66v63q0 114 -41 166.5t-123 52.5q-171 0 -181 -197l-166 13q11 162 97 243.5t256 81.5
q161 0 244 -84.5t83 -252.5zM408 456q-84 -26 -122.5 -66.5t-38.5 -114.5q0 -78 39 -122t114 -44q67 0 118 37t78 99.5t27 137.5v142q-66 -23 -215 -69z" />
    <glyph glyph-name="afii10066" unicode="&#x431;" horiz-adv-x="1028" 
d="M729 1322h-196q-128 0 -191 -103.5t-77 -316.5l1 -1q43 75 118.5 116.5t162.5 41.5q123 0 212 -60.5t136.5 -181t47.5 -297.5q0 -269 -111 -407t-313 -138q-140 0 -232.5 70t-139.5 221t-47 391q0 416 106.5 612.5t318.5 196.5h194q41 0 43 40h136q0 -184 -169 -184z
M272 567q0 -240 65.5 -346.5t179.5 -106.5q117 0 185.5 98.5t68.5 306.5q0 201 -65 301t-179 100q-75 0 -132.5 -39.5t-90 -118.5t-32.5 -195z" />
    <glyph glyph-name="afii10067" unicode="&#x432;" horiz-adv-x="895" 
d="M762 775q0 -71 -30 -128t-88 -93q82 -34 121.5 -101t39.5 -156q0 -136 -84.5 -216.5t-263.5 -80.5h-329v1062h305q173 0 251 -75t78 -212zM297 611h144q154 0 154 155q0 75 -39.5 116.5t-119.5 41.5h-139v-313zM297 138h163q90 0 132.5 44.5t42.5 124.5q0 79 -45.5 124.5
t-132.5 45.5h-160v-339z" />
    <glyph glyph-name="afii10068" unicode="&#x433;" horiz-adv-x="697" 
d="M297 918v-918h-169v1062h519v-144h-350z" />
    <glyph glyph-name="afii10069" unicode="&#x434;" horiz-adv-x="1076" 
d="M295 1062h588v-918h133v-494h-162v350h-652v-350h-162v494h102q87 210 120 431t33 487zM454 918q-3 -201 -36.5 -401.5t-104.5 -372.5h401v774h-260z" />
    <glyph glyph-name="afii10070" unicode="&#x435;" horiz-adv-x="965" 
d="M886 586q0 -21 -3 -95h-626q7 -379 238 -379q89 0 148.5 60.5t68.5 176.5l166 -15q-10 -103 -55.5 -184t-128 -128t-199.5 -47q-207 0 -308.5 143.5t-101.5 405.5q0 268 103 415t306 147q172 0 282 -116t110 -384zM258 628h464q0 157 -58 239t-176 82q-113 0 -169 -83
t-61 -238z" />
    <glyph glyph-name="afii10072" unicode="&#x436;" horiz-adv-x="1339" 
d="M957 337q-25 59 -53 90t-63.5 43t-86.5 12v-482h-169v482q-51 0 -86.5 -12t-63.5 -43t-53 -90l-144 -337h-188l181 395q30 66 75 102t111 50q-54 26 -83.5 61t-54.5 101l-46 121q-16 42 -28.5 60t-27 23.5t-42.5 5.5h-44v143h82q49 0 85 -15t61 -49.5t49 -98.5l46 -124
q24 -64 42 -95t47.5 -47t81.5 -16v445h169v-445q52 0 81.5 16t47.5 47t42 95l46 124q24 64 49 98.5t60.5 49.5t88.5 15h79v-143h-44q-28 0 -42.5 -5.5t-27 -23.5t-28.5 -60l-46 -121q-25 -66 -54.5 -101t-83.5 -61q66 -14 111 -50t75 -102l181 -395h-188z" />
    <glyph glyph-name="afii10073" unicode="&#x437;" horiz-adv-x="828" 
d="M420 1086q108 0 179.5 -40.5t105.5 -106.5t34 -143q0 -87 -38 -144.5t-123 -96.5q89 -34 134.5 -105t45.5 -161q0 -93 -39.5 -164t-115.5 -110t-182 -39q-138 0 -231.5 70t-129.5 204l159 57q21 -96 75.5 -143t121.5 -47q81 0 127.5 50t46.5 126q0 78 -46.5 133
t-141.5 55h-84v144h86q85 0 128 43.5t43 117.5q0 64 -39.5 111.5t-122.5 47.5q-56 0 -103 -39t-76 -138l-149 64q42 125 125.5 189.5t209.5 64.5z" />
    <glyph glyph-name="afii10074" unicode="&#x438;" horiz-adv-x="1029" 
d="M292 270l441 792h168v-1062h-164v791l-441 -791h-168v1062h164v-792z" />
    <glyph glyph-name="afii10075" unicode="&#x439;" horiz-adv-x="1029" 
d="M292 270l441 792h168v-1062h-164v791l-441 -791h-168v1062h164v-792zM506 1321q132 0 172 117h120q-48 -247 -293 -247t-295 247h125q41 -117 171 -117z" />
    <glyph glyph-name="afii10076" unicode="&#x43a;" horiz-adv-x="882" 
d="M747 919q-28 0 -42.5 -5.5t-27 -23.5t-28.5 -60l-46 -121q-25 -66 -54.5 -101t-83.5 -61q66 -14 111 -50t75 -102l181 -395h-188l-144 337q-25 59 -53 90t-63.5 43t-86.5 12v-482h-169v1062h169v-445q52 0 81.5 16t47.5 47t42 95l46 124q24 64 49 98.5t60.5 49.5t88.5 15
h79v-143h-44z" />
    <glyph glyph-name="afii10077" unicode="&#x43b;" horiz-adv-x="1026" 
d="M898 0h-169v918h-338v-604q0 -180 -57.5 -258.5t-176.5 -78.5q-70 0 -128 21l28 138q34 -15 75 -15q90 0 90 187v754h676v-1062z" />
    <glyph glyph-name="afii10078" unicode="&#x43c;" horiz-adv-x="1249" 
d="M964 0v863l-267 -863h-146l-266 863v-863h-157v1062h243l254 -838l253 838h243v-1062h-157z" />
    <glyph glyph-name="afii10079" unicode="&#x43d;" horiz-adv-x="1030" 
d="M733 0v474h-436v-474h-169v1062h169v-444h436v444h169v-1062h-169z" />
    <glyph glyph-name="afii10080" unicode="&#x43e;" horiz-adv-x="1025" 
d="M85 543q0 156 48 278.5t144.5 193.5t236.5 71t235.5 -69t143 -193t47.5 -290q0 -261 -107.5 -410t-318.5 -149q-218 0 -323.5 149.5t-105.5 418.5zM510 947q-74 0 -131 -44.5t-89.5 -135.5t-32.5 -227q0 -205 65.5 -315.5t188.5 -110.5q117 0 187 100.5t70 335.5
q0 194 -68.5 295.5t-189.5 101.5z" />
    <glyph glyph-name="afii10081" unicode="&#x43f;" horiz-adv-x="1004" 
d="M876 0h-169v918h-410v-918h-169v1062h748v-1062z" />
    <glyph glyph-name="afii10082" unicode="&#x440;" 
d="M939 548q0 -300 -98 -436.5t-278 -136.5q-174 0 -266 139v-519h-169v1467h150v-134q102 158 287 158q118 0 201.5 -61.5t128 -182t44.5 -294.5zM285 549q0 -225 68 -329.5t186 -104.5q107 0 167.5 94t60.5 326q0 412 -232 412q-115 0 -182.5 -99t-67.5 -299z" />
    <glyph glyph-name="afii10083" unicode="&#x441;" horiz-adv-x="922" 
d="M877 749l-158 -31q-36 230 -221 230q-117 0 -176.5 -104t-59.5 -311q0 -209 60 -314.5t178 -105.5q186 0 228 277l164 -18q-64 -397 -398 -397q-127 0 -219 64.5t-141 187.5t-49 295q0 174 49.5 301t143 195t223.5 68q312 0 376 -337z" />
    <glyph glyph-name="afii10084" unicode="&#x442;" horiz-adv-x="737" 
d="M453 918v-918h-169v918h-224v144h617v-144h-224z" />
    <glyph glyph-name="afii10085" unicode="&#x443;" horiz-adv-x="917" 
d="M235 -431q-41 0 -86 8t-82 20l34 145q60 -21 104 -21q40 0 66 19.5t40 47t26 67.5l46 147l-351 1060h182l257 -811l262 811h168l-421 -1250q-33 -99 -73.5 -152.5t-81.5 -72t-90 -18.5z" />
    <glyph glyph-name="afii10086" unicode="&#x444;" horiz-adv-x="1543" 
d="M1458 548q0 -300 -92.5 -436.5t-263.5 -136.5q-160 0 -246 139v-519h-169v519q-89 -139 -248 -139q-170 0 -262 136.5t-92 420.5q0 273 90 413.5t264 140.5q156 0 248 -130v510h169v-509q93 129 248 129q169 0 261.5 -138t92.5 -400zM699 554q0 153 -37.5 240.5t-90 120
t-105.5 32.5q-110 0 -159.5 -113t-49.5 -319q0 -402 207 -402q235 0 235 441zM1286 535q0 412 -212 412q-54 0 -105 -31.5t-88 -119t-37 -242.5q0 -230 64 -334.5t170 -104.5q99 0 153.5 94t54.5 326z" />
    <glyph glyph-name="afii10087" unicode="&#x445;" horiz-adv-x="917" 
d="M895 0h-194l-167 284q-30 50 -73 135q-13 -27 -38.5 -75t-43.5 -76l-163 -268h-193l344 543l-319 519h189l133 -222q27 -44 91 -163q64 122 86 158l137 227h186l-319 -505z" />
    <glyph glyph-name="afii10088" unicode="&#x446;" horiz-adv-x="1047" 
d="M987 144v-494h-162v350h-697v1062h169v-918h389v918h169v-918h132z" />
    <glyph glyph-name="afii10089" unicode="&#x447;" horiz-adv-x="977" 
d="M680 0v440q-62 -36 -126.5 -58.5t-139.5 -22.5q-146 0 -222.5 91.5t-76.5 261.5v350h169v-322q0 -231 171 -231q53 0 117.5 21t107.5 54v478h169v-1062h-169z" />
    <glyph glyph-name="afii10090" unicode="&#x448;" horiz-adv-x="1453" 
d="M128 0v1062h169v-916h345v916h169v-916h345v916h169v-1062h-1197z" />
    <glyph glyph-name="afii10091" unicode="&#x449;" horiz-adv-x="1517" 
d="M1457 -350h-163v350h-1166v1062h169v-916h345v916h169v-916h345v916h169v-916h132v-496z" />
    <glyph glyph-name="afii10092" unicode="&#x44a;" horiz-adv-x="1036" 
d="M954 315q0 -148 -86 -231.5t-256 -83.5h-314v918h-237v144h406v-425h148q177 0 258 -82.5t81 -239.5zM782 317q0 88 -42 132.5t-136 44.5h-137v-351h142q89 0 131 46t42 128z" />
    <glyph glyph-name="afii10093" unicode="&#x44b;" horiz-adv-x="1241" 
d="M764 315q0 -148 -86 -231.5t-256 -83.5h-294v1062h169v-425h128q177 0 258 -82.5t81 -239.5zM944 0v1062h169v-1062h-169zM419 143q89 0 131 46t42 128q0 88 -42 132.5t-136 44.5h-117v-351h122z" />
    <glyph glyph-name="afii10094" unicode="&#x44c;" horiz-adv-x="866" 
d="M784 315q0 -148 -86 -231.5t-256 -83.5h-314v1062h169v-425h148q177 0 258 -82.5t81 -239.5zM439 143q89 0 131 46t42 128q0 88 -42 132.5t-136 44.5h-137v-351h142z" />
    <glyph glyph-name="afii10095" unicode="&#x44d;" horiz-adv-x="922" 
d="M837 522q0 -172 -49 -295t-141 -187.5t-219 -64.5q-334 0 -398 397l164 18q42 -277 228 -277q221 0 237 361h-308v144h306q-11 165 -70 247.5t-163 82.5q-185 0 -221 -230l-158 31q64 337 376 337q130 0 223.5 -68t143 -195t49.5 -301z" />
    <glyph glyph-name="afii10096" unicode="&#x44e;" horiz-adv-x="1361" 
d="M1276 534q0 -171 -45 -296.5t-136 -194t-225 -68.5q-194 0 -294.5 131t-112.5 368h-166v-474h-169v1062h169v-444h167q10 137 59 242.5t136.5 165.5t210.5 60q133 0 224 -69t136.5 -193t45.5 -290zM1104 550q0 194 -63 295.5t-175 101.5q-68 0 -120.5 -44.5t-82.5 -135.5
t-30 -227q0 -205 60 -315.5t174 -110.5q108 0 172.5 100.5t64.5 335.5z" />
    <glyph glyph-name="afii10097" unicode="&#x44f;" horiz-adv-x="909" 
d="M612 0v434h-44q-31 0 -55.5 -12t-49 -42.5t-55.5 -86.5l-160 -293h-192l180 320q36 62 61.5 94.5t52.5 40.5q-114 15 -170.5 94.5t-56.5 204.5q0 148 82.5 228t252.5 80h323v-1062h-169zM295 751q0 -85 40.5 -129.5t137.5 -44.5h139v342h-155q-85 0 -123.5 -43
t-38.5 -125z" />
    <glyph glyph-name="afii10071" unicode="&#x451;" horiz-adv-x="965" 
d="M886 586q0 -21 -3 -95h-626q7 -379 238 -379q89 0 148.5 60.5t68.5 176.5l166 -15q-10 -103 -55.5 -184t-128 -128t-199.5 -47q-207 0 -308.5 143.5t-101.5 405.5q0 268 103 415t306 147q172 0 282 -116t110 -384zM258 628h464q0 157 -58 239t-176 82q-113 0 -169 -83
t-61 -238zM203 1225v206h185v-206h-185zM575 1225v206h187v-206h-187z" />
    <glyph glyph-name="afii10099" unicode="&#x452;" horiz-adv-x="1045" 
d="M921 725v-837q0 -163 -60.5 -243.5t-195.5 -80.5q-63 0 -141 25l34 147q55 -20 87 -20q36 0 59.5 16.5t35.5 59t12 118.5v824q0 105 -42 156.5t-140 51.5q-76 0 -133 -34t-88.5 -100t-31.5 -159v-649h-169v1200h-115v129h115v137h169v-137h266v-129h-266v-267
q120 153 299 153q145 0 225 -85t80 -276z" />
    <glyph glyph-name="afii10100" unicode="&#x453;" horiz-adv-x="697" 
d="M297 918v-918h-169v1062h519v-144h-350zM258 1211l128 254h235l-235 -254h-128z" />
    <glyph glyph-name="afii10101" unicode="&#x454;" horiz-adv-x="922" 
d="M494 -25q-127 0 -219 64.5t-141 187.5t-49 295q0 174 49.5 301t143 195t223.5 68q312 0 376 -337l-158 -31q-36 230 -221 230q-104 0 -163 -82.5t-70 -247.5h306v-144h-308q16 -361 237 -361q186 0 228 277l164 -18q-64 -397 -398 -397z" />
    <glyph glyph-name="afii10102" unicode="&#x455;" horiz-adv-x="920" 
d="M459 947q-62 0 -104.5 -20t-62.5 -52t-20 -68q0 -39 19 -67.5t71.5 -58t153.5 -67.5q135 -50 205 -98t94.5 -99.5t24.5 -123.5q0 -91 -43 -163t-126.5 -113.5t-198.5 -41.5q-329 0 -402 317l163 25q20 -102 88.5 -153.5t154.5 -51.5q60 0 105 22t69 59.5t24 82.5
q0 51 -29 83.5t-84.5 57.5t-185.5 73q-105 39 -165 83.5t-85 98.5t-25 125q0 81 44.5 147t125.5 104t187 38q324 0 364 -291l-169 -15q-30 167 -193 167z" />
    <glyph glyph-name="afii10103" unicode="&#x456;" horiz-adv-x="425" 
d="M128 1262v204h169v-204h-169zM128 0v1062h169v-1062h-169z" />
    <glyph glyph-name="afii10104" unicode="&#x457;" horiz-adv-x="425" 
d="M128 0v1062h169v-1062h-169zM-68 1225v206h185v-206h-185zM304 1225v206h187v-206h-187z" />
    <glyph glyph-name="afii10105" unicode="&#x458;" horiz-adv-x="439" 
d="M142 1262v204h169v-204h-169zM55 -436q-63 0 -141 25l34 147q55 -20 87 -20q36 0 59.5 16.5t35.5 59t12 118.5v1152h169v-1174q0 -163 -60.5 -243.5t-195.5 -80.5z" />
    <glyph glyph-name="afii10106" unicode="&#x459;" horiz-adv-x="1407" 
d="M1325 315q0 -148 -86 -231.5t-256 -83.5h-294v918h-298v-604q0 -180 -58.5 -258.5t-175.5 -78.5q-70 0 -128 21l28 138q34 -15 75 -15q90 0 90 187v754h636v-425h128q177 0 258 -82.5t81 -239.5zM1153 317q0 88 -42 132.5t-136 44.5h-117v-351h122q89 0 131 46t42 128z
" />
    <glyph glyph-name="afii10107" unicode="&#x45a;" horiz-adv-x="1381" 
d="M1299 315q0 -148 -86 -231.5t-256 -83.5h-294v494h-366v-494h-169v1062h169v-425h366v425h169v-425h128q177 0 258 -82.5t81 -239.5zM1127 317q0 88 -42 132.5t-136 44.5h-117v-351h122q89 0 131 46t42 128z" />
    <glyph glyph-name="afii10108" unicode="&#x45b;" horiz-adv-x="1045" 
d="M921 725v-725h-169v734q0 105 -42 156.5t-140 51.5q-76 0 -133 -34t-88.5 -100t-31.5 -159v-649h-169v1200h-115v129h115v137h169v-137h266v-129h-266v-267q120 153 299 153q145 0 225 -85t80 -276z" />
    <glyph glyph-name="afii10109" unicode="&#x45c;" horiz-adv-x="882" 
d="M747 919q-28 0 -42.5 -5.5t-27 -23.5t-28.5 -60l-46 -121q-25 -66 -54.5 -101t-83.5 -61q66 -14 111 -50t75 -102l181 -395h-188l-144 337q-25 59 -53 90t-63.5 43t-86.5 12v-482h-169v1062h169v-445q52 0 81.5 16t47.5 47t42 95l46 124q24 64 49 98.5t60.5 49.5t88.5 15
h79v-143h-44zM321 1211l128 254h235l-235 -254h-128z" />
    <glyph glyph-name="afii10110" unicode="&#x45e;" horiz-adv-x="917" 
d="M235 -431q-41 0 -86 8t-82 20l34 145q60 -21 104 -21q40 0 66 19.5t40 47t26 67.5l46 147l-351 1060h182l257 -811l262 811h168l-421 -1250q-33 -99 -73.5 -152.5t-81.5 -72t-90 -18.5zM461 1321q132 0 172 117h120q-48 -247 -293 -247t-295 247h125q41 -117 171 -117z
" />
    <glyph glyph-name="afii10193" unicode="&#x45f;" horiz-adv-x="1010" 
d="M586 0v-350h-162v350h-296v1062h169v-918h416v918h169v-1062h-296z" />
    <glyph glyph-name="afii10050" unicode="&#x490;" horiz-adv-x="916" 
d="M869 1308l-2 2h-525v-1310h-180v1466h536v406h171v-564z" />
    <glyph glyph-name="afii10098" unicode="&#x491;" horiz-adv-x="697" 
d="M647 918h-350v-918h-169v1062h357v404h162v-548z" />
    <glyph glyph-name="afii61352" unicode="&#x2116;" horiz-adv-x="1800" 
d="M738 0l-413 1119v-1119h-163v1466h188l410 -1120v1120h163v-1466h-185zM1660 667q0 -134 -37 -227t-105 -141t-162 -48q-149 0 -226 108.5t-77 309.5q0 207 81 311.5t220 104.5q93 0 161.5 -48.5t106.5 -142.5t38 -227zM1212 666q0 -148 35.5 -214.5t105.5 -66.5
q74 0 111 68.5t37 213.5q0 146 -36.5 215t-112.5 69q-67 0 -103.5 -67t-36.5 -218zM1087 0v135h538v-135h-538z" />
    <glyph glyph-name="uni0496" unicode="&#x496;" horiz-adv-x="1660" 
d="M1620 -406h-171v406h-79l-170 409q-51 122 -83.5 179t-78 85.5t-121.5 28.5h-36v-702h-180v702h-35q-77 0 -123 -28t-78.5 -85.5t-83.5 -179.5l-169 -409h-206l206 465q49 111 84 172t69.5 93.5t81.5 49.5v4q-38 16 -66 47t-52.5 82t-57.5 139l-48 128q-25 68 -50.5 96.5
t-69.5 28.5h-56v161h87q95 0 154 -53.5t101 -171.5l47 -131q40 -111 66.5 -160t63 -68t104.5 -19h31v603h180v-603h31q68 0 104.5 19.5t63 68.5t66.5 159l47 131q42 117 100.5 171t154.5 54h88v-161h-56q-44 0 -69.5 -29t-50.5 -96l-49 -128q-34 -88 -58.5 -138.5t-52.5 -82
t-66 -47.5v-4q47 -17 82 -49.5t70.5 -94t84.5 -171.5l136 -308h113v-563z" />
    <glyph glyph-name="uni0497" unicode="&#x497;" horiz-adv-x="1394" 
d="M1334 -350h-163v350h-70l-144 337q-25 59 -53 90t-63.5 43t-86.5 12v-482h-169v482q-51 0 -86.5 -12t-63.5 -43t-53 -90l-144 -337h-188l181 395q30 66 75 102t111 50q-54 26 -83.5 61t-54.5 101l-46 121q-16 42 -28.5 60t-27 23.5t-42.5 5.5h-44v143h72q54 0 92.5 -15
t63.5 -49.5t49 -98.5l46 -124q24 -64 42 -95t47.5 -47t81.5 -16v445h169v-445q52 0 81.5 16t47.5 47t42 95l46 124q24 64 49 98.5t60.5 49.5t85.5 15h82v-143h-44q-28 0 -42.5 -5.5t-27 -23.5t-28.5 -60l-46 -121q-25 -66 -54.5 -101t-83.5 -61q66 -14 111 -50t75 -102
l114 -249h112v-496z" />
    <glyph glyph-name="uni049A" unicode="&#x49a;" horiz-adv-x="1142" 
d="M1102 -406h-171v406h-77l-170 409q-50 120 -83.5 178t-79.5 86.5t-120 28.5h-59v-702h-180v1466h180v-603h53q68 0 104.5 19.5t63 68t66.5 159.5l48 131q43 118 101.5 171.5t153.5 53.5h88v-161h-57q-44 0 -70.5 -29.5t-51.5 -96.5l-49 -129q-33 -88 -57 -138t-51.5 -81
t-65.5 -47v-4q47 -17 82 -49.5t70.5 -93.5t84.5 -172l135 -308h112v-563z" />
    <glyph glyph-name="uni049B" unicode="&#x49b;" horiz-adv-x="933" 
d="M873 -350h-162v350h-67l-144 337q-25 59 -53 90t-63.5 43t-86.5 12v-482h-169v1062h169v-445q52 0 81.5 16t47.5 47t42 95l46 124q24 64 49 98.5t61.5 49.5t76.5 15h90v-143h-44q-28 0 -42.5 -5.5t-27 -23.5t-28.5 -60l-46 -121q-25 -66 -54.5 -101t-83.5 -61
q66 -14 111 -50t75 -102l114 -249h108v-496z" />
    <glyph glyph-name="uni04B0" unicode="&#x4b0;" horiz-adv-x="1134" 
d="M984 734v-144h-338v-590h-182v590h-331v144h269l-392 732h205l210 -397q79 -149 139 -279q73 148 140 270l222 406h198l-413 -732h273z" />
    <glyph glyph-name="uni04B1" unicode="&#x4b1;" horiz-adv-x="910" 
d="M792 0h-255v-406h-169v406h-256v129h221l-313 933h181l204 -634q20 -62 53 -211q33 135 56 208l206 637h170l-316 -933h218v-129z" />
    <glyph glyph-name="uni04B2" unicode="&#x4b2;" horiz-adv-x="1228" 
d="M1188 -406h-171v406h-99l-237 414q-75 131 -111 209q-63 -122 -128 -229l-235 -394h-201l469 770l-398 696h206l192 -348q78 -142 109 -203q46 93 93 171l227 380h183l-410 -683l357 -626h154v-563z" />
    <glyph glyph-name="uni04B3" unicode="&#x4b3;" horiz-adv-x="958" 
d="M898 -350h-162v350h-52l-167 284q-30 50 -73 135q-13 -27 -38.5 -75t-43.5 -76l-163 -268h-193l344 543l-319 519h189l133 -222q27 -44 91 -163q64 122 86 158l137 227h186l-319 -505l254 -411h110v-496z" />
    <glyph glyph-name="uni04B6" unicode="&#x4b6;" horiz-adv-x="1226" 
d="M1186 -406h-171v406h-157v602q-166 -84 -329 -84q-130 0 -213 44t-124.5 145t-41.5 272v487h180v-479q0 -108 20 -175t68 -100t131 -33q159 0 309 78v709h180v-1309h148v-563z" />
    <glyph glyph-name="uni04B7" unicode="&#x4b7;" horiz-adv-x="1038" 
d="M978 -350h-162v350h-136v440q-62 -36 -126.5 -58.5t-139.5 -22.5q-146 0 -222.5 91.5t-76.5 261.5v350h169v-322q0 -231 171 -231q53 0 117.5 21t107.5 54v478h169v-916h129v-496z" />
    <glyph glyph-name="glyph497" horiz-adv-x="341" 
d="M-307 -57l822 1548h133l-817 -1548h-138z" />
    <glyph glyph-name="afii00208" unicode="&#x2015;" horiz-adv-x="1740" 
d="M-4 458v145h1748v-145h-1748z" />
    <glyph glyph-name="uni0E3F" unicode="&#xe3f;" 
d="M554 1v-207h-98v206h-300v1442h300v157h98v-158q155 -11 240.5 -103.5t85.5 -258.5q0 -216 -175 -314q114 -45 167.5 -138t53.5 -221q0 -126 -47.5 -215.5t-131.5 -137t-193 -52.5zM456 822v476h-133v-476h133zM554 1294v-471q78 9 119.5 75t41.5 167q0 95 -38 155
t-123 74zM456 678h-133v-534h133v534zM756 407q0 118 -51 189.5t-151 80.5v-532q97 8 149.5 75.5t52.5 186.5z" />
    <glyph glyph-name="franc" unicode="&#x20a3;" 
d="M415 835h458v-147h-458v-226h387v-137l-387 1v-326h-169v326h-155v136h155v980h684v-147h-515v-460z" />
    <glyph glyph-name="lira" unicode="&#x20a4;" 
d="M764 -22q-47 0 -87.5 10t-101.5 30q-61 21 -106 31.5t-96 10.5q-130 0 -264 -89l-74 159q226 128 235 371h-211v139h200q-10 54 -35 141h-165v139h123q-21 84 -21 145q0 123 52.5 219t146.5 149.5t215 53.5q104 0 186 -44t135 -128.5t71 -203.5l-164 -22
q-43 254 -237 254q-65 0 -118.5 -32.5t-84.5 -89.5t-31 -126q0 -83 26 -175h283v-139h-238q26 -87 32 -141h206v-139h-206q-25 -166 -189 -337q99 38 177 38q40 0 80.5 -9t98.5 -27q54 -16 85 -23t59 -7q49 0 86 10.5t96 37.5l60 -137q-113 -69 -224 -69z" />
    <glyph glyph-name="peseta" unicode="&#x20a7;" horiz-adv-x="1903" 
d="M826 1019q0 -14 -1 -27h82v242l162 106v-348h146v-127h-146v-590q0 -61 5.5 -94t20 -48t42.5 -15q33 0 86 13l21 -137q-74 -19 -138 -19q-110 0 -154.5 66.5t-44.5 206.5v617h-101q-36 -141 -136.5 -207t-269.5 -66h-72v-592h-166v1442h235q141 0 237 -51.5t144 -146.5
t48 -225zM328 747h76q129 0 191 62.5t62 208.5q0 147 -71.5 208.5t-201.5 61.5h-56v-541zM1802 743l-157 -24q-7 77 -39 118.5t-80 41.5q-47 0 -72.5 -30.5t-25.5 -79.5q0 -32 9.5 -59t44 -59.5t102.5 -69.5q89 -48 140.5 -93.5t75 -101t23.5 -131.5q0 -84 -34.5 -147.5
t-98 -98t-148.5 -34.5q-135 0 -208 79t-94 222l160 27q9 -93 48 -142t96 -49q58 0 89.5 33.5t31.5 99.5q0 62 -33.5 107t-122.5 93q-98 54 -150 106.5t-69 102.5t-17 110q0 69 30 126.5t88 91.5t139 34q113 0 183 -70t89 -203z" />
    <glyph glyph-name="uni20A0" unicode="&#x20a0;" horiz-adv-x="1227" 
d="M758 897v-289h355v-144h-355v-320h419v-144h-583v390q-49 -11 -96 -11q-198 0 -303 138t-105 411q0 174 50 294.5t142.5 182t219.5 61.5q244 0 337 -228l-151 -64q-29 74 -76 111.5t-114 37.5q-116 0 -179 -100t-63 -296q0 -204 64 -304.5t188 -100.5q44 0 86 17v502h559
v-144h-395z" />
    <glyph glyph-name="colonmonetary" unicode="&#x20a1;" 
d="M590 -21l-20 -203l-78 10l19 189q-57 3 -100 17l-21 -216l-78 10l24 242q-226 147 -226 706q0 334 92.5 521.5t275.5 211.5l14 142l78 -10l-13 -129q53 -1 100 -15l15 154l78 -10l-18 -178q71 -43 118.5 -124.5t74.5 -203.5l-162 -50q-20 105 -51 171l-108 -1089
q76 26 114 106t62 226l162 -54q-40 -201 -124 -304t-228 -120zM524 113l117 1189q-41 29 -98 32l-117 -1189q43 -32 98 -32zM356 233l108 1089q-99 -35 -141 -181.5t-42 -407.5q0 -348 75 -500z" />
    <glyph glyph-name="uni20A2" unicode="&#x20a2;" 
d="M543 -26q-149 0 -247.5 71.5t-150.5 238.5t-52 450q0 272 52.5 434.5t152 233t248.5 70.5q161 0 262 -89.5t147 -289.5l-164 -40q-31 151 -90 216t-155 65q-95 0 -156.5 -56t-93 -188t-31.5 -357q0 -279 46.5 -423.5t145.5 -181.5v739h145v-163l2 1q39 97 84 141.5
t108 44.5q37 0 67 -10.5t63 -33.5l-52 -141q-27 14 -48 21.5t-46 7.5q-80 0 -123 -101t-43 -271v-241q79 21 125.5 99t68.5 226l163 -44q-44 -228 -149 -328.5t-279 -100.5z" />
    <glyph glyph-name="uni20A5" unicode="&#x20a5;" horiz-adv-x="1588" 
d="M1464 723v-723h-169v691q0 103 -36.5 177t-136.5 74q-94 0 -153 -62l-78 -204q-6 -49 -6 -104v-572h-169v222l-235 -610l-87 35l322 836v218q0 102 -38.5 170.5t-136.5 68.5q-125 0 -184.5 -98.5t-59.5 -275.5v-566h-169v1062h155v-159q123 183 301 183q97 0 164 -45.5
t105 -137.5q23 33 49 62l184 478l87 -35l-133 -346q60 24 128 24q138 0 217 -88t79 -275z" />
    <glyph glyph-name="uni20A6" unicode="&#x20a6;" 
d="M898 664h126v-125h-126v-539h-185l-210 539h-213v-539h-164v539h-126v125h126v151h-126v125h126v502h176l197 -502h235v502h164v-502h126v-125h-126v-151zM347 940l-53 136h-4v-136h57zM396 815h-106v-151h164zM548 815l59 -151h127v151h-186zM656 539l71 -180h7v180h-78
z" />
    <glyph glyph-name="uni20A8" unicode="&#x20a8;" horiz-adv-x="1573" 
d="M851 1059q0 -152 -65 -249.5t-190 -124.5q41 -18 69.5 -46.5t63 -100.5t79.5 -210l109 -328h-183l-105 318q-47 141 -73.5 203.5t-67 96t-109.5 33.5h-51v-651h-166v1442h287q194 0 298 -96t104 -287zM328 795h85q89 0 147.5 22.5t90 78.5t31.5 154q0 141 -65 194
t-174 53h-115v-502zM1472 743l-157 -24q-7 77 -39 118.5t-80 41.5q-47 0 -72.5 -30.5t-25.5 -79.5q0 -32 9.5 -59t44 -59.5t102.5 -69.5q89 -48 140.5 -93.5t75 -101t23.5 -131.5q0 -84 -34.5 -147.5t-98 -98t-148.5 -34.5q-135 0 -208 79t-94 222l160 27q9 -93 48 -142
t96 -49q58 0 89.5 33.5t31.5 99.5q0 62 -33.5 107t-122.5 93q-98 54 -150 106.5t-69 102.5t-17 110q0 69 30 126.5t88 91.5t139 34q113 0 183 -70t89 -203z" />
    <glyph glyph-name="uni20A9" unicode="&#x20a9;" horiz-adv-x="1488" 
d="M1309 664h169v-125h-195l-110 -539h-192l-102 539h-274l-105 -539h-191l-108 539h-191v125h166l-30 151h-136v125h111l-101 502h177l91 -502h252l92 502h221l93 -502h258l95 502h169l-103 -502h113v-125h-138zM802 940l-58 310l-61 -310h119zM490 664l27 151h-207
l27 -151h153zM827 815h-168l-29 -151h225zM969 815l28 -151h155l28 151h-211zM360 539l53 -294l54 294h-107zM1020 539l54 -289l54 289h-108z" />
    <glyph glyph-name="afii57636" unicode="&#x20aa;" horiz-adv-x="1386" 
d="M946 661v-354h-176v355q0 118 -59.5 184.5t-171.5 66.5h-253v-913h-176v1061h429q210 0 308.5 -97t98.5 -303zM850 0h-410v753h176v-605h234q250 0 250 246v667h176v-672q0 -203 -105 -296t-321 -93z" />
    <glyph glyph-name="dong" unicode="&#x20ab;" 
d="M1005 1188h-114v-1188h-150v133q-101 -158 -287 -158q-178 0 -276 138t-98 401q0 274 89 423t286 149q172 0 267 -140v242h-263v121h263v157h169v-157h114v-121zM734 512q0 236 -70 334.5t-185 98.5q-107 0 -167 -94t-60 -325q0 -414 231 -414q73 0 129 41.5t89 131
t33 227.5zM904 -167v-129h-777v129h777z" />
    <glyph glyph-name="uni20AD" unicode="&#x20ad;" 
d="M787 1442h194l-400 -586h295v-142h-297l412 -714h-191l-401 714h-13v-714h-165v714h-141v142h141v586h165v-586h11z" />
    <glyph glyph-name="uni20AE" unicode="&#x20ae;" 
d="M595 972l218 170v-127l-218 -170v-193l218 170v-127l-218 -170v-525h-166v395l-218 -170v128l218 170v192l-218 -170v128l218 170v447h-346v152h858v-152h-346v-318z" />
    <glyph glyph-name="uni20AF" unicode="&#x20af;" horiz-adv-x="1829" 
d="M1091 859q0 -289 -98.5 -481.5t-264.5 -285t-372 -92.5h-331l28 122q83 46 138 126.5t97.5 228.5t82.5 400l6 41q18 115 37 212.5t50 198.5q-103 -19 -170 -96.5t-107 -219.5l-140 41q51 196 163.5 299.5t304.5 113.5q73 162 170 231l85 -99q-54 -47 -98 -143
q128 -27 222.5 -109t145.5 -208t51 -280zM923 839q0 203 -77.5 330t-220.5 157q-26 -90 -44 -186t-35 -210q-10 -69 -11 -75q-35 -220 -68.5 -357.5t-71 -218.5t-86.5 -134h80q141 0 262 72.5t196.5 228.5t75.5 393zM1814 580q0 -155 -52 -294.5t-146 -224.5t-215 -85
q-104 0 -162 79l-82 -461h-158l153 856q47 259 138.5 378t235.5 119q87 0 152 -45.5t100.5 -128.5t35.5 -193zM1646 577q0 104 -32 165t-95 61q-78 0 -129.5 -89.5t-85.5 -293.5l-37 -223q17 -36 54 -56.5t80 -20.5q63 0 119.5 60t91 165t34.5 232z" />
    <glyph glyph-name="uni20B0" unicode="&#x20b0;" 
d="M924 343q0 -91 -36 -174t-121 -137.5t-221 -54.5q-77 0 -144 20t-115 56l77 140q38 -32 80.5 -51.5t96.5 -19.5q113 0 166.5 60t53.5 155q0 58 -10.5 101.5t-40 90.5t-86.5 111l-195 -258l-137 208l-143 -247l-105 92l243 393l140 -212l95 131q-82 86 -126 149t-61.5 121
t-17.5 132q0 95 32 167t95.5 112t153.5 40q85 0 148 -39t97 -111t34 -169q0 -87 -30.5 -170t-112.5 -192l-16 -21q82 -89 126.5 -156.5t62 -129.5t17.5 -137zM615 874l6 9q60 83 80 143t20 123q0 83 -31.5 131.5t-90.5 48.5q-62 0 -93 -45t-31 -129q0 -52 9.5 -89.5
t39.5 -82t91 -109.5z" />
    <glyph glyph-name="uni20B1" unicode="&#x20b1;" 
d="M866 1057q3 -33 3 -66q0 -39 -5 -86h121v-121h-149q-45 -124 -147 -196t-261 -72h-94v-516h-169v784h-116v121h116v152h-116v121h116v264h263q171 0 270.5 -72.5t140.5 -191.5h146v-121h-119zM652 1178q-34 58 -92 88.5t-136 30.5h-90v-119h318zM692 1057h-358v-152h357
q6 39 6 82q0 33 -5 70zM652 784h-318v-124h94q77 0 134 32t90 92z" />
    <glyph glyph-name="uni20B2" unicode="&#x20b2;" 
d="M929 147q-68 -82 -157 -124.5t-187 -47.5v-186h-97v192q-194 33 -278 229.5t-84 527.5q0 318 90 509.5t272 217.5v137h97v-135q132 -12 213 -101.5t118 -255.5l-153 -52q-40 242 -178 272v-1217q48 3 95.5 23.5t83.5 64.5v394h-96v143h261v-591zM488 125v1200
q-96 -31 -143 -177.5t-47 -410.5q0 -165 14.5 -287.5t56.5 -209t119 -115.5z" />
    <glyph glyph-name="uni20B3" unicode="&#x20b3;" 
d="M838 467h130v-121h-101l85 -346h-185l-75 346h-368l-73 -346h-179l84 346h-100v121h129l36 152h-165v121h195l169 702h179l172 -702h197v-121h-168zM606 740l-101 469l-99 -469h200zM381 619l-32 -152h317l-33 152h-252z" />
    <glyph glyph-name="uni20B4" unicode="&#x20b4;" 
d="M557 690l-44 -21h467v-122h-646q-62 -72 -62 -176q0 -112 60 -181.5t183 -69.5q81 0 131.5 34.5t77.5 100t41 167.5l158 -21q-26 -205 -125.5 -314.5t-282.5 -109.5q-143 0 -233 57.5t-129.5 146t-39.5 186.5q0 101 37 180h-109v122h204q40 34 86 60.5t119 62.5l55 28
h-464v122h636q55 68 55 161q0 99 -50 159.5t-156 60.5q-108 0 -158 -61.5t-66 -166.5l-156 23q29 165 118 256.5t264 91.5q125 0 207 -47.5t120 -128t38 -183.5q0 -92 -30 -165h117v-122h-206q-41 -37 -89.5 -64.5t-127.5 -65.5z" />
    <glyph glyph-name="uni20B5" unicode="&#x20b5;" 
d="M573 -23v-184h-97v185q-186 23 -276 213.5t-90 542.5q0 333 92 520.5t274 212.5v132h97v-129q143 -11 227.5 -103.5t124.5 -273.5l-162 -50q-25 136 -70.5 205t-119.5 83v-1214q64 11 104 54t62.5 112t40.5 174l162 -54q-41 -206 -129.5 -309.5t-239.5 -116.5zM476 120
v1206q-106 -30 -150.5 -177t-44.5 -416q0 -280 48.5 -432t146.5 -181z" />
    <glyph glyph-name="glyph521" 
d="M622 1320q87 -79 102 -204h190v-122h-189q-15 -128 -93 -210t-202 -95v-6q34 -11 61 -36.5t56 -83t62 -159.5l133 -404h-186l-124 401q-33 105 -63.5 158.5t-65.5 72.5t-89 19h-69v125h156q109 0 173 56t78 162h-407v122h407q-15 102 -74.5 153t-157.5 51h-175v122h769
v-122h-292z" />
    <glyph glyph-name="glyph522" 
d="M458 0h-215v603l-157 -95v124l157 95v176l-157 -95v124l157 95v415h169v-312l274 166v-124l-274 -166v-176l274 166v-124l-274 -166v-560h46q104 0 169 61t97 193t32 347h172q0 -381 -117.5 -564t-352.5 -183z" />
    <glyph glyph-name="glyph523" 
d="M81 591v132h150v719h287q214 0 323.5 -109.5t109.5 -315.5q0 -127 -44.5 -222.5t-136.5 -149.5t-230 -54h-140v-151h370v-132h-370v-308h-169v308h-150v132h150v151h-150zM779 1013q0 136 -66.5 215.5t-198.5 79.5h-114v-585h99q147 0 213.5 72.5t66.5 217.5z" />
    <glyph glyph-name="glyph524" 
d="M260 303v-303h-165v337q0 434 87 645.5t249 222.5v237h162v-238q116 -8 189.5 -94t110 -274t36.5 -502v-334h-165v300q0 299 -20 464t-56.5 228.5t-94.5 68.5v-761h-162v761q-53 -4 -90.5 -73t-59 -234.5t-21.5 -450.5z" />
    <glyph glyph-name="glyph525" horiz-adv-x="683" 
d="M319 1576l-234 254h234l129 -254h-129z" />
    <glyph glyph-name="glyph526" horiz-adv-x="683" 
d="M62 1590v206h185v-206h-185zM434 1590v206h187v-206h-187z" />
    <glyph glyph-name="glyph527" horiz-adv-x="683" 
d="M242 1576l128 254h235l-235 -254h-128z" />
    <glyph glyph-name="glyph528" horiz-adv-x="683" 
d="M460 1555l-117 158l-125 -158h-176l189 248h213l196 -248h-180z" />
    <glyph glyph-name="glyph529" horiz-adv-x="683" 
d="M464 1803h176l-189 -248h-213l-196 248h180l118 -158z" />
    <glyph glyph-name="glyph530" horiz-adv-x="683" 
d="M85 1600v130h512v-130h-512z" />
    <glyph glyph-name="glyph531" horiz-adv-x="683" 
d="M344 1686q132 0 172 117h120q-48 -247 -293 -247t-295 247h125q41 -117 171 -117z" />
    <glyph glyph-name="glyph532" horiz-adv-x="683" 
d="M238 1566v209h207v-209h-207z" />
    <glyph glyph-name="glyph533" horiz-adv-x="723" 
d="M140 1767q0 59 30.5 109.5t81 81t109.5 30.5q60 0 111 -30t80.5 -81t29.5 -110q0 -61 -29.5 -111.5t-80.5 -80.5t-111 -30q-59 0 -110.5 30t-81 80.5t-29.5 111.5zM360 1898q-34 0 -64.5 -18t-48 -48t-17.5 -65q0 -54 38.5 -92.5t92.5 -38.5q35 0 65.5 18t48.5 48.5
t18 64.5q0 55 -39.5 93t-93.5 38z" />
    <glyph glyph-name="glyph534" horiz-adv-x="683" 
d="M484 1567q-48 0 -150 46q-105 47 -131 47q-60 0 -70 -91h-120q0 63 25.5 112t67.5 75.5t86 26.5q60 0 152 -45q91 -45 129 -45q75 0 81 96h115q-5 -81 -33.5 -130.5t-69 -70.5t-82.5 -21z" />
    <glyph glyph-name="glyph535" horiz-adv-x="683" 
d="M106 1553l130 278h216l-216 -278h-130zM457 1553l125 278h218l-212 -278h-131z" />
    <glyph glyph-name="glyph536" horiz-adv-x="512" 
d="M168 -466l-15 90q40 0 61.5 7.5t30 25t8.5 49.5h-97v206h201v-212q0 -76 -47 -119t-142 -47z" />
    <glyph glyph-name="glyph537" horiz-adv-x="703" 
d="M354 1301q68 0 113.5 34.5t58.5 102.5h130q-18 -123 -96 -185t-207 -62t-208 63t-97 184h135q13 -68 59 -102.5t112 -34.5z" />
    <glyph glyph-name="glyph538" horiz-adv-x="703" 
d="M354 1666q68 0 113.5 34t58.5 103h130q-17 -122 -95.5 -184.5t-207.5 -62.5t-208 63t-97 184h135q13 -68 59 -102.5t112 -34.5z" />
    <glyph glyph-name="glyph539" horiz-adv-x="412" 
d="M142 934l-52 74q113 66 113 229v7h-97v222h201v-230q0 -103 -41.5 -181t-123.5 -121z" />
    <glyph glyph-name="glyph540" horiz-adv-x="600" 
d="M-138 1212l88 254h227l-195 -254h-120z" />
    <glyph glyph-name="glyph541" horiz-adv-x="600" 
d="M491 262h78v-112h-78v-150h-129v150h-326v114l343 484h112v-486zM362 262v283l-199 -283h199z" />
  </font>
</defs>
</svg>
