<?xml version="1.0" standalone="no"?>
<!DOCTYPE svg PUBLIC "-//W3C//DTD SVG 1.1//EN" "http://www.w3.org/Graphics/SVG/1.1/DTD/svg11.dtd" >
<svg>
<metadata>
Created by FontForge 20090622 at Thu Jul 27 07:57:08 2017
 By deploy user
&#194;&#169; 2014 The Monotype Corporation. All Rights Reserved.
</metadata>
<defs>
<font id="ArialNovaCond-Italic" horiz-adv-x="1024" >
  <font-face 
    font-family="Arial Nova Cond"
    font-weight="400"
    font-style="italic"
    font-stretch="condensed"
    units-per-em="2048"
    panose-1="2 11 5 6 2 2 2 9 2 4"
    ascent="1638"
    descent="-410"
    x-height="1062"
    cap-height="1466"
    bbox="-682 -466 1972 1988"
    underline-thickness="102"
    underline-position="-154"
    slope="-12"
    unicode-range="U+0020-U+2122"
  />
<missing-glyph horiz-adv-x="1042" 
d="M892 0h-742v1491h742v-1491zM768 1368h-495v-1243h495v1243z" />
    <glyph glyph-name=".notdef" horiz-adv-x="1042" 
d="M892 0h-742v1491h742v-1491zM768 1368h-495v-1243h495v1243z" />
    <glyph glyph-name="glyph1" horiz-adv-x="0" 
 />
    <glyph glyph-name="glyph2" horiz-adv-x="565" 
 />
    <glyph glyph-name="space" unicode=" " horiz-adv-x="565" 
 />
    <glyph glyph-name="exclam" unicode="!" horiz-adv-x="513" 
d="M258 363h-75l106 775l70 328h194l-70 -328zM43 0l47 222h201l-47 -222h-201z" />
    <glyph glyph-name="quotedbl" unicode="&#x22;" horiz-adv-x="705" 
d="M352 944h-91l16 280l52 242h175l-52 -242zM623 944h-91l15 280l52 242h175l-52 -242z" />
    <glyph glyph-name="numbersign" unicode="#" 
d="M751 538h253v-134h-280l-87 -428h-136l87 428h-224l-87 -428h-136l87 428h-207v134h235l78 382h-253v134h280l88 429h133l-87 -429h226l88 429h133l-87 -429h209v-134h-236zM468 920l-77 -382h225l78 382h-226z" />
    <glyph glyph-name="dollar" unicode="$" 
d="M637 795q91 -56 146 -100.5t93.5 -116.5t38.5 -175q0 -104 -47 -201.5t-153.5 -162.5t-273.5 -65l-39 -184h-90l41 191q-142 23 -224.5 118t-82.5 243q0 28 3 60l171 21q-2 -34 -2 -49q0 -103 43.5 -165.5t122.5 -79.5l118 554q-92 58 -148 105t-95.5 122t-39.5 183
q0 87 41 176.5t137 151.5t251 62h24l20 93h90l-22 -103q130 -26 201 -113.5t73 -228.5l-171 -23q2 16 1 25q-6 73 -40.5 123t-94.5 70l-111 -519zM539 858l102 480q-94 -1 -149 -37t-76.5 -87.5t-21.5 -105.5q0 -83 38 -141.5t107 -108.5zM736 385q0 82 -40 139t-115 108
l-108 -507q93 6 152 44.5t85 95t26 120.5z" />
    <glyph glyph-name="percent" unicode="%" horiz-adv-x="1444" 
d="M726 1239q0 -62 -17 -145q-26 -122 -58.5 -207.5t-98 -144.5t-171.5 -59q-91 0 -150.5 60t-59.5 188q0 65 18 149q31 147 71.5 236t101.5 132t150 43q100 0 157 -64t57 -188zM198 -56l983 1547h140l-987 -1547h-136zM332 1096q-22 -107 -22 -172q0 -73 22.5 -101.5
t60.5 -28.5q44 0 72.5 25.5t52 88.5t48.5 184q22 101 22 168q0 62 -21.5 90.5t-66.5 28.5q-35 0 -63 -22.5t-54.5 -84.5t-50.5 -176zM1352 509q0 -70 -20 -168q-31 -145 -75.5 -232.5t-104 -126t-139.5 -38.5q-95 0 -155.5 59.5t-60.5 189.5q0 68 17 149q31 146 71.5 234.5
t101 131t149.5 42.5q216 0 216 -241zM954 344q-20 -97 -20 -161q0 -74 23.5 -101t62.5 -27q41 0 72 31t55.5 97t47.5 175q22 105 22 162q0 62 -22.5 90.5t-68.5 28.5q-35 0 -63.5 -23t-56 -88t-52.5 -184z" />
    <glyph glyph-name="ampersand" unicode="&#x26;" horiz-adv-x="1288" 
d="M976 282q66 -125 144 -217l-134 -96q-79 88 -132 181q-193 -175 -408 -175q-123 0 -209.5 46t-130.5 123.5t-44 171.5q0 121 61.5 215.5t153.5 162t229 143.5q-54 111 -74 181t-20 133q0 79 33.5 156.5t112.5 130.5t206 53q91 0 162 -37.5t110 -101.5t39 -142
q0 -91 -47.5 -163.5t-122.5 -128.5t-187 -119l187 -375q76 107 139 234l144 -39q-100 -196 -212 -337zM658 921q119 69 182.5 134t63.5 146q0 73 -40.5 112.5t-106.5 39.5q-64 0 -103.5 -30t-56 -72.5t-16.5 -84.5q0 -54 15.5 -103t61.5 -142zM464 119q157 0 322 163
l-219 433q-101 -58 -169.5 -111t-111 -120t-42.5 -150q0 -63 26 -111.5t76 -76t118 -27.5z" />
    <glyph glyph-name="quotesingle" unicode="'" horiz-adv-x="435" 
d="M352 944h-91l16 280l52 242h175l-52 -242z" />
    <glyph glyph-name="parenleft" unicode="(" horiz-adv-x="683" 
d="M308 530q-35 -166 -35 -326q0 -313 130 -635h-119q-92 153 -141 329t-49 359q0 135 29 275q102 478 549 959h139q-159 -194 -259.5 -358.5t-155.5 -307t-88 -295.5z" />
    <glyph glyph-name="parenright" unicode=")" horiz-adv-x="683" 
d="M589 809q0 -137 -30 -277q-53 -251 -201 -502.5t-348 -460.5h-139q401 484 503 961q38 180 38 333q0 142 -31.5 296t-101.5 332h119q191 -337 191 -682z" />
    <glyph glyph-name="asterisk" unicode="*" horiz-adv-x="811" 
d="M582 1243q102 52 236 96l46 -142q-116 -39 -248 -56q46 -40 171 -189l-120 -85q-59 78 -137 215q-68 -133 -130 -215l-118 85q122 148 165 189q-131 25 -244 56l46 143q163 -56 231 -98q-20 192 -20 249h145q0 -93 -23 -248z" />
    <glyph glyph-name="plus" unicode="+" 
d="M1029 807v-168h-381v-402h-168v402h-381v168h381v402h168v-402h381z" />
    <glyph glyph-name="comma" unicode="," horiz-adv-x="513" 
d="M14 -310l-35 75q64 33 103.5 90t58.5 142l1 3h-97l47 222h201l-49 -230q-21 -104 -79.5 -182.5t-150.5 -119.5z" />
    <glyph glyph-name="hyphen" unicode="-" horiz-adv-x="683" 
d="M46 440l38 181h553l-38 -181h-553z" />
    <glyph glyph-name="period" unicode="." horiz-adv-x="513" 
d="M43 0l47 222h201l-47 -222h-201z" />
    <glyph glyph-name="slash" unicode="/" horiz-adv-x="512" 
d="M-117 -25l744 1516h147l-743 -1516h-148z" />
    <glyph glyph-name="zero" unicode="0" 
d="M1030 1070q0 -134 -38 -311q-63 -297 -133.5 -465t-170 -244t-251.5 -76q-188 0 -272 107.5t-84 306.5q0 146 43 348q56 265 127 424.5t174 235.5t254 76q170 0 260.5 -96.5t90.5 -305.5zM296 739q-49 -236 -49 -365q0 -133 47.5 -197t150.5 -64q92 0 156.5 62.5
t115 197.5t99.5 366q46 217 46 342q0 127 -45.5 190t-143.5 63q-93 0 -160 -59t-118.5 -188t-98.5 -348z" />
    <glyph glyph-name="one" unicode="1" 
d="M423 0l245 1153q-66 -61 -153 -112t-201 -96l37 173q270 117 450 348h103l-312 -1466h-169z" />
    <glyph glyph-name="two" unicode="2" 
d="M1045 1110q0 -109 -49 -205t-140.5 -187.5t-242.5 -209.5q-186 -146 -270.5 -229t-104.5 -129h604l-32 -150h-863q42 108 92 182.5t152 170.5t313 269q144 118 221 195.5t112 146t35 145.5q0 54 -23 100t-70 74.5t-114 28.5q-103 0 -171 -69.5t-116 -216.5l-170 19
q67 213 180.5 316t289.5 103q113 0 196 -49t127 -130t44 -175z" />
    <glyph glyph-name="three" unicode="3" 
d="M1033 1170q0 -133 -74.5 -236t-232.5 -152q106 -30 161 -115.5t55 -192.5q0 -112 -50 -227t-159.5 -193.5t-277.5 -78.5q-124 0 -215 41.5t-140 119t-49 182.5q0 36 4 67l175 14q-2 -32 -2 -45q0 -119 65 -174.5t161 -55.5q103 0 172.5 55.5t102 139t32.5 168.5
q0 96 -63 154.5t-193 58.5h-90l50 144q136 -2 223.5 41t127 110.5t39.5 141.5q0 79 -48 129t-130 50q-100 0 -164.5 -61t-119.5 -193l-167 24q71 191 181.5 284t283.5 93q97 0 175.5 -38.5t122.5 -105.5t44 -149z" />
    <glyph glyph-name="four" unicode="4" 
d="M977 503l-33 -155h-147l-74 -348h-165l74 348h-604l33 155l845 963h129l-205 -963h147zM665 503l136 637l-561 -637h425z" />
    <glyph glyph-name="five" unicode="5" 
d="M560 1290l-163 -409q97 72 230 72q99 0 174.5 -46t117.5 -129.5t42 -193.5q0 -137 -53 -276.5t-167.5 -234t-285.5 -94.5q-145 0 -234.5 60.5t-128 151t-42.5 188.5l175 15q20 -276 235 -276q96 0 169.5 67.5t113.5 170.5t40 205q0 119 -57 182t-157 63q-142 0 -271 -135
l-148 21l306 750h636l-33 -152h-499z" />
    <glyph glyph-name="six" unicode="6" 
d="M1037 1146q0 -23 -1 -35l-171 -18q1 118 -42.5 178t-125.5 60q-264 0 -391 -566q61 89 142 134.5t174 45.5t163.5 -42t109.5 -122.5t39 -194.5q0 -82 -18 -164q-41 -191 -146.5 -319t-302.5 -128q-114 0 -197 54t-128 160t-45 259q0 135 33 287q156 734 583 734
q96 0 169.5 -41.5t114 -115t40.5 -166.5zM280 473q-12 -55 -12 -104q0 -78 27.5 -135t74 -87t102.5 -30q101 0 174 87.5t104 237.5q15 72 15 133q0 107 -44.5 168t-127.5 61q-67 0 -131.5 -42.5t-113 -118t-68.5 -170.5z" />
    <glyph glyph-name="seven" unicode="7" 
d="M282 0h-177q104 370 299.5 692t475.5 593h-631l34 157h855l-29 -137q-198 -158 -361 -369t-280.5 -449.5t-185.5 -486.5z" />
    <glyph glyph-name="eight" unicode="8" 
d="M939 480q0 -110 -49 -225t-160 -194.5t-287 -79.5q-119 0 -208 46.5t-137 127.5t-48 183q0 95 37.5 188.5t118.5 166.5t204 103q-77 36 -117 104.5t-40 160.5q0 89 42 183.5t136.5 160t242.5 65.5q100 0 179.5 -37t125 -107.5t45.5 -167.5q0 -84 -31.5 -161t-98 -134
t-167.5 -79q110 -37 161 -120t51 -184zM669 1328q-86 0 -140 -43t-77 -105t-23 -122q0 -97 47 -150t125 -53q72 0 128.5 42t88.5 110.5t32 144.5q0 82 -48 129t-133 47zM546 718q-98 0 -170.5 -55.5t-110.5 -140t-38 -168.5q0 -110 60.5 -171.5t166.5 -61.5q102 0 171 56
t102.5 140t33.5 167q0 67 -25 120t-73.5 83.5t-116.5 30.5z" />
    <glyph glyph-name="nine" unicode="9" 
d="M75 332l171 18q-1 -116 47 -176.5t131 -60.5q137 0 230 153t151 413q-78 -92 -156.5 -136.5t-169.5 -44.5q-94 0 -162.5 44t-105 124.5t-36.5 187.5q0 69 17 151q43 202 156 333t299 131q115 0 198.5 -53t128 -157t44.5 -254q0 -129 -32 -279q-53 -249 -128.5 -414.5
t-184 -251t-255.5 -85.5q-108 0 -185.5 44t-117.5 124.5t-40 188.5zM844 1084q0 78 -26.5 133t-71.5 82t-100 27q-103 0 -178.5 -88.5t-110.5 -253.5q-12 -60 -12 -112q0 -107 47 -170t125 -63q69 0 134 43t112.5 118.5t67.5 169.5q13 61 13 114z" />
    <glyph glyph-name="colon" unicode=":" horiz-adv-x="512" 
d="M221 837l48 225h200l-48 -225h-200zM43 0l47 221h200l-47 -221h-200z" />
    <glyph glyph-name="semicolon" unicode=";" horiz-adv-x="512" 
d="M220 837l48 225h201l-48 -225h-201zM12 -310l-35 75q126 64 161 226l2 9h-97l47 222h201l-49 -230q-21 -104 -79.5 -182.5t-150.5 -119.5z" />
    <glyph glyph-name="less" unicode="&#x3c;" 
d="M312 722l648 -321v-176l-816 421v155l816 420v-174z" />
    <glyph glyph-name="equal" unicode="=" 
d="M87 862v166h931v-166h-931zM87 418v167h931v-167h-931z" />
    <glyph glyph-name="greater" unicode="&#x3e;" 
d="M144 225v176l648 321l-648 325v174l816 -420v-155z" />
    <glyph glyph-name="question" unicode="?" horiz-adv-x="943" 
d="M997 1173q0 -80 -29 -150t-95 -143t-180 -160q-70 -54 -104.5 -89t-61.5 -92.5t-49 -159.5l-4 -19h-161l15 70q19 89 49.5 152t85 121.5t149.5 128.5q119 88 167.5 168.5t48.5 162.5q0 85 -49.5 135.5t-135.5 50.5q-108 0 -180 -73t-118 -224l-160 20q62 212 177.5 315.5
t287.5 103.5q104 0 183 -42.5t121.5 -115t42.5 -160.5zM216 0l47 222h201l-47 -222h-201z" />
    <glyph glyph-name="at" unicode="@" horiz-adv-x="1643" 
d="M1592 783q0 -209 -78 -365.5t-198.5 -239t-241.5 -82.5q-129 0 -148 136q-58 -74 -115.5 -105t-132.5 -31q-86 0 -153 48.5t-105 145t-38 235.5q0 180 53 329t146 235t208 86q176 0 247 -174l25 144h155l-101 -606q-12 -71 -21.5 -133t-9.5 -87q0 -56 53 -56
q89 0 162.5 72t115 188t41.5 241q0 175 -74.5 309t-204.5 208t-293 74q-187 0 -340 -95t-241 -265.5t-88 -387.5q0 -206 82 -367.5t232 -252t346 -90.5q308 0 521 199h176q-64 -96 -173.5 -171.5t-246 -117.5t-279.5 -42q-238 0 -418 108.5t-278 300.5t-98 436
q0 250 100 451t282 315.5t420 114.5q205 0 367 -90.5t253 -251.5t91 -366zM549 508q0 -94 23 -154t60 -87t81 -27q131 0 203 187q70 183 70 384q0 103 -46.5 162t-130.5 59q-81 0 -140 -76t-89.5 -196.5t-30.5 -251.5z" />
    <glyph glyph-name="A" unicode="A" horiz-adv-x="1130" 
d="M291 423l-216 -423h-193l781 1466h205l154 -1466h-182l-35 423h-514zM734 1290l-368 -721h428z" />
    <glyph glyph-name="B" unicode="B" horiz-adv-x="1140" 
d="M1129 1138q0 -124 -69.5 -228t-216.5 -150q96 -44 145.5 -124.5t49.5 -187.5q0 -115 -47 -215t-168.5 -166.5t-329.5 -66.5h-444l312 1466h356q133 0 225.5 -42t139.5 -116t47 -170zM407 838h212q121 0 193.5 39.5t102 100t29.5 128.5q0 92 -63 147t-219 55h-155z
M263 158h222q201 0 285 75.5t84 212.5q0 113 -73.5 173.5t-217.5 60.5h-189z" />
    <glyph glyph-name="C" unicode="C" horiz-adv-x="1140" 
d="M1164 1062l-177 -40q-25 311 -245 311q-111 0 -190.5 -67.5t-135 -202t-97.5 -346.5q-34 -145 -34 -256q0 -162 67 -245t186 -83q89 0 154 41t113 122.5t88 211.5l162 -44q-53 -169 -122 -275.5t-168 -160t-241 -53.5q-122 0 -215 51.5t-146.5 159.5t-53.5 273
q0 130 33 282q49 248 126 413t194.5 251t284.5 86q192 0 299.5 -108t117.5 -321z" />
    <glyph glyph-name="D" unicode="D" horiz-adv-x="1261" 
d="M1232 968q0 -104 -26 -227q-60 -282 -136 -436.5t-220 -229.5t-400 -75h-401l312 1466h281q287 0 438.5 -124t151.5 -374zM262 155h204q180 0 288.5 67t166.5 188.5t100 318.5q27 126 27 221q0 192 -105.5 273t-316.5 81h-120z" />
    <glyph glyph-name="E" unicode="E" horiz-adv-x="1029" 
d="M507 1308l-101 -474h504l-33 -158h-504l-110 -518h596l-34 -158h-776l312 1466h748l-34 -158h-568z" />
    <glyph glyph-name="F" unicode="F" horiz-adv-x="937" 
d="M507 1308l-100 -473h447l-34 -158h-447l-144 -677h-180l312 1466h684l-34 -158h-504z" />
    <glyph glyph-name="G" unicode="G" horiz-adv-x="1263" 
d="M1233 1054l-175 -47q-1 164 -67.5 245.5t-198.5 81.5q-187 0 -301 -146.5t-167 -445.5q-23 -129 -23 -230q0 -182 74.5 -280.5t229.5 -98.5q85 0 156 28t137 86l73 347h-295l34 158h475l-122 -575q-110 -104 -223 -153t-259 -49q-144 0 -247.5 61.5t-158.5 182t-55 293.5
q0 122 26 256q66 349 228.5 536t417.5 187q130 0 229.5 -47.5t155.5 -145.5t56 -244z" />
    <glyph glyph-name="H" unicode="H" horiz-adv-x="1260" 
d="M805 0l148 695h-576l-148 -695h-180l312 1466h180l-131 -616h576l131 616h180l-312 -1466h-180z" />
    <glyph glyph-name="I" unicode="I" horiz-adv-x="504" 
d="M49 0l312 1466h180l-312 -1466h-180z" />
    <glyph glyph-name="J" unicode="J" horiz-adv-x="917" 
d="M324 -25q-149 0 -227.5 85t-78.5 253q0 53 7 105l175 20q-5 -60 -5 -97q0 -111 33.5 -159.5t105.5 -48.5q60 0 101 29.5t72.5 101.5t57.5 201l213 1001h180l-212 -998q-36 -170 -80.5 -273.5t-125.5 -161.5t-216 -58z" />
    <glyph glyph-name="K" unicode="K" horiz-adv-x="1140" 
d="M1031 0h-193l-245 764l-256 -255l-108 -509h-180l312 1466h180l-151 -708l688 708h219l-576 -574z" />
    <glyph glyph-name="L" unicode="L" horiz-adv-x="1027" 
d="M886 156l-33 -156h-804l312 1466h180l-279 -1310h624z" />
    <glyph glyph-name="M" unicode="M" horiz-adv-x="1600" 
d="M1149 0l294 1293l-673 -1293h-165l-120 1285l-263 -1285h-173l312 1466h266l112 -1224l632 1224h266l-312 -1466h-176z" />
    <glyph glyph-name="N" unicode="N" horiz-adv-x="1261" 
d="M802 0l-348 1214h-2l-231 -1214h-172l312 1466h180l349 -1211h2l233 1211h173l-312 -1466h-184z" />
    <glyph glyph-name="O" unicode="O" horiz-adv-x="1259" 
d="M1230 993q0 -108 -23 -242q-67 -371 -220 -575.5t-419 -204.5q-209 0 -330.5 121.5t-121.5 377.5q0 119 28 263q134 758 639 758q209 0 328 -125.5t119 -372.5zM320 709q-25 -131 -25 -233q0 -178 71.5 -261.5t201.5 -83.5q344 0 453 604q28 141 28 253q0 174 -69.5 261
t-202.5 87q-190 0 -296 -159.5t-161 -467.5z" />
    <glyph glyph-name="P" unicode="P" horiz-adv-x="1120" 
d="M1163 1075q0 -130 -56.5 -235t-188.5 -170t-347 -65h-213l-129 -605h-180l312 1466h347q127 0 230 -42.5t164 -130t61 -218.5zM391 761h198q142 0 227.5 43t121.5 110t36 145q0 120 -76 185.5t-220 65.5h-170z" />
    <glyph glyph-name="Q" unicode="Q" horiz-adv-x="1259" 
d="M1230 993q0 -109 -24 -242q-73 -404 -237 -596q57 -60 94 -94.5t70 -54.5l-80 -129q-47 29 -92 70.5t-106 105.5q-125 -82 -288 -82q-209 0 -330.5 121.5t-121.5 377.5q0 119 28 263q134 758 639 758q209 0 328.5 -123t119.5 -375zM1049 988q0 174 -69.5 261t-202.5 87
q-190 0 -296 -159.5t-161 -467.5q-25 -131 -25 -233q0 -178 72.5 -261.5t200.5 -83.5q92 0 165 42q-76 70 -147 103l70 134q87 -37 192 -135q117 150 173 460q28 141 28 253z" />
    <glyph glyph-name="R" unicode="R" horiz-adv-x="1176" 
d="M1173 1116q0 -100 -43 -187t-134 -150t-228 -88q54 -23 96.5 -87.5t65.5 -169.5l113 -434h-185l-105 409q-30 112 -64.5 163t-92.5 68t-172 17h-55l-140 -657h-180l312 1466h368q146 0 246 -47t149 -126.5t49 -176.5zM984 1093q0 106 -74.5 162t-197.5 56h-204l-106 -499
h206q137 0 221 39.5t119.5 102.5t35.5 139z" />
    <glyph glyph-name="S" unicode="S" horiz-adv-x="1131" 
d="M940 1114q0 114 -56.5 168t-175.5 54q-88 0 -150 -33t-93.5 -88.5t-31.5 -120.5q0 -63 34 -111t85 -83.5t139 -84.5q106 -59 171.5 -107t111.5 -121t46 -174q0 -105 -53 -205.5t-167.5 -166.5t-288.5 -66q-131 0 -231.5 42t-157.5 126t-57 206q0 49 8 111l174 15
q-6 -45 -6 -84q0 -261 285 -261q102 0 173 39.5t106.5 100.5t35.5 123q0 68 -35 119t-86 86.5t-141 86.5q-105 58 -169 104.5t-109 119.5t-45 175q0 101 51 194.5t156.5 153t259.5 59.5q113 0 203.5 -38.5t142.5 -113t52 -177.5q0 -52 -10 -106l-175 -14q4 35 4 72z" />
    <glyph glyph-name="T" unicode="T" horiz-adv-x="1025" 
d="M765 1309l-278 -1309h-180l278 1309h-373l34 157h931l-34 -157h-378z" />
    <glyph glyph-name="U" unicode="U" horiz-adv-x="1259" 
d="M569 -25q-211 0 -314 107t-103 303q0 96 24 210l186 871h180l-187 -879q-23 -106 -23 -192q0 -262 237 -262q106 0 172 44.5t107 136.5t75 251l192 901h180l-192 -900q-42 -202 -95 -324.5t-157 -194.5t-282 -72z" />
    <glyph glyph-name="V" unicode="V" horiz-adv-x="1131" 
d="M361 0l-157 1466h173l110 -1173q6 -56 5 -90q13 33 43 90l604 1173h186l-785 -1466h-179z" />
    <glyph glyph-name="W" unicode="W" horiz-adv-x="1628" 
d="M978 0l-6 1274l-555 -1274h-191l-17 1466h180l-11 -1221l519 1221h227l2 -1216l519 1216h172l-647 -1466h-192z" />
    <glyph glyph-name="X" unicode="X" horiz-adv-x="1130" 
d="M1006 0h-189l-164 457q-44 129 -55 176q-80 -114 -183 -239l-319 -394h-201l633 770l-250 696h189l118 -348q44 -131 66 -203q58 84 129 171l308 380h193l-555 -683z" />
    <glyph glyph-name="Y" unicode="Y" horiz-adv-x="1134" 
d="M542 998q40 -122 63 -218l197 280l309 406h212l-658 -847l-132 -619h-182l132 619l-274 847h185z" />
    <glyph glyph-name="Z" unicode="Z" horiz-adv-x="1027" 
d="M354 383q-92 -114 -197 -225h731l-34 -158h-922l34 158l703 865q128 159 242 285h-615l34 158h813l-34 -158z" />
    <glyph glyph-name="bracketleft" unicode="[" horiz-adv-x="683" 
d="M540 1317l-335 -1575h217l-31 -149h-397l398 1873h397l-32 -149h-217z" />
    <glyph glyph-name="backslash" unicode="\" horiz-adv-x="512" 
d="M252 -25l-106 1516h136l105 -1516h-135z" />
    <glyph glyph-name="bracketright" unicode="]" horiz-adv-x="683" 
d="M-106 -407l31 149h217l335 1575h-217l32 149h397l-398 -1873h-397z" />
    <glyph glyph-name="asciicircum" unicode="^" horiz-adv-x="933" 
d="M708 665l-80 597l-327 -597h-183l475 801h144l134 -801h-163z" />
    <glyph glyph-name="underscore" unicode="_" 
d="M-122 -256v102h1048v-102h-1048z" />
    <glyph glyph-name="grave" unicode="`" horiz-adv-x="683" 
d="M484 1211l-180 254h214l85 -254h-119z" />
    <glyph glyph-name="a" unicode="a" horiz-adv-x="917" 
d="M844 821q0 -41 -11 -96l-102 -483q-15 -72 -15 -129q0 -65 19 -113h-175q-9 34 -11 114q-61 -71 -126.5 -105.5t-147.5 -34.5q-86 0 -142.5 35.5t-82.5 91.5t-26 120q0 152 101.5 241.5t294.5 134.5q155 37 231 66q22 94 22 135q0 73 -40.5 110t-101.5 37
q-156 0 -207 -197l-163 13q46 164 137 244.5t245 80.5q86 0 154 -29t107.5 -88.5t39.5 -147.5zM392 456q-96 -29 -148.5 -79.5t-52.5 -135.5q0 -59 32.5 -95.5t97.5 -36.5q62 0 118.5 37t96.5 99.5t56 137.5l30 142q-73 -24 -230 -69z" />
    <glyph glyph-name="b" unicode="b" horiz-adv-x="1023" 
d="M684 1086q128 0 202.5 -85.5t74.5 -258.5q0 -92 -24 -214q-41 -200 -105 -322t-154.5 -176.5t-213.5 -54.5q-92 0 -163 43t-106 125l-30 -143h-150l312 1466h169l-111 -520q125 140 299 140zM283 527q-20 -98 -20 -169q0 -122 51 -184t143 -62q102 0 165 66.5t91.5 149.5
t51.5 193q23 108 23 193q0 115 -42.5 173t-119.5 58q-132 0 -219 -120.5t-124 -297.5z" />
    <glyph glyph-name="c" unicode="c" horiz-adv-x="922" 
d="M923 749l-164 -31q-2 116 -44.5 173t-127.5 57q-117 0 -198.5 -102.5t-123.5 -301.5q-23 -106 -23 -193q0 -119 47 -178.5t136 -59.5q91 0 156.5 68t116.5 209l160 -18q-76 -204 -179.5 -300.5t-259.5 -96.5q-165 0 -258.5 99t-93.5 285q0 89 22 190q53 249 181 393
t319 144q155 0 242.5 -85.5t91.5 -251.5z" />
    <glyph glyph-name="d" unicode="d" 
d="M633 0l28 133q-69 -80 -140.5 -119t-151.5 -39q-146 0 -227 90.5t-81 264.5q0 79 20 184q110 572 470 572q96 0 160 -38.5t102 -111.5l113 530h169l-312 -1466h-150zM256 526q-20 -105 -20 -179q0 -117 44.5 -176t130.5 -59q67 0 129.5 41.5t114 131.5t80.5 227
q24 110 24 187q0 124 -52 185t-136 61q-236 0 -315 -419z" />
    <glyph glyph-name="e" unicode="e" horiz-adv-x="965" 
d="M917 747q0 -73 -19 -161q-3 -15 -24 -95h-626q-16 -77 -16 -143q0 -116 51 -176t143 -60q182 0 247 237l163 -15q-51 -167 -148 -263t-265 -96q-174 0 -266 98.5t-92 278.5q0 74 19 172q53 275 171.5 418.5t321.5 143.5q89 0 166 -32.5t125.5 -109t48.5 -197.5zM279 628
h464q13 65 13 111q0 101 -49.5 155.5t-139.5 54.5q-115 0 -181 -80t-107 -241z" />
    <glyph glyph-name="f" unicode="f" horiz-adv-x="576" 
d="M655 1338q-49 0 -79 -19.5t-46 -54.5t-28 -90l-24 -112h203l-28 -130h-203l-198 -932h-169l198 932h-156l28 130h156l28 134q35 160 115.5 227.5t213.5 67.5q79 0 141 -17l-60 -147q-44 11 -92 11z" />
    <glyph glyph-name="g" unicode="g" horiz-adv-x="1023" 
d="M831 919l30 143h147l-238 -1118q-24 -114 -72.5 -196t-140.5 -130.5t-236 -48.5q-164 0 -257.5 61.5t-93.5 179.5q0 30 8 70l5 23l170 -30l-5 -25q-3 -15 -3 -28q0 -55 46.5 -84t127.5 -29q129 0 194.5 64t93.5 198l35 166q-65 -69 -130.5 -102t-147.5 -33
q-142 0 -219 91t-77 263q0 101 24 211q49 250 165 385.5t301 135.5q92 0 164 -42.5t109 -124.5zM262 553q-24 -111 -24 -193q0 -110 42 -166t122 -56q119 0 209.5 106t136.5 325q16 76 16 139q0 122 -55.5 181.5t-140.5 59.5q-108 0 -184.5 -93t-121.5 -303z" />
    <glyph glyph-name="h" unicode="h" horiz-adv-x="1026" 
d="M947 805q0 -62 -14 -126l-144 -679h-169l143 677q11 48 11 96q0 83 -40.5 126t-118.5 43q-71 0 -131 -37.5t-102 -105t-61 -155.5l-137 -644h-169l312 1466h169l-114 -533q62 74 137.5 113.5t162.5 39.5q76 0 136 -31t94.5 -94.5t34.5 -155.5z" />
    <glyph glyph-name="i" unicode="i" horiz-adv-x="425" 
d="M283 1262l44 204h169l-44 -204h-169zM15 0l226 1062h169l-226 -1062h-169z" />
    <glyph glyph-name="j" unicode="j" horiz-adv-x="439" 
d="M297 1262l44 204h169l-44 -204h-169zM-130 -436q-79 0 -146 25l55 147q51 -20 83 -20q55 0 90 41.5t58 152.5l245 1152h169l-250 -1174q-24 -115 -60 -183.5t-95 -104.5t-149 -36z" />
    <glyph glyph-name="k" unicode="k" horiz-adv-x="912" 
d="M780 0h-179l-184 566l-138 -122l-95 -444h-169l312 1466h169l-173 -812l447 408h214l-440 -385z" />
    <glyph glyph-name="l" unicode="l" horiz-adv-x="425" 
d="M15 0l312 1466h169l-312 -1466h-169z" />
    <glyph glyph-name="m" unicode="m" horiz-adv-x="1588" 
d="M1508 810q0 -74 -20 -164l-137 -646h-169l133 626q19 81 19 143q0 173 -144 173q-110 0 -186 -101t-110 -269l-122 -572h-169l135 633q19 84 19 144q0 163 -139 163q-121 0 -199 -98.5t-115 -275.5l-120 -566h-169l226 1062h155l-34 -159q75 93 152 138t166 45
q95 0 159.5 -49t82.5 -144q77 100 156 146.5t178 46.5q110 0 181 -65.5t71 -210.5z" />
    <glyph glyph-name="n" unicode="n" horiz-adv-x="1026" 
d="M947 805q0 -62 -14 -126l-144 -679h-169l143 677q11 48 11 96q0 83 -40.5 126t-118.5 43q-71 0 -131 -37.5t-102 -105t-61 -155.5l-137 -644h-169l226 1062h151l-33 -154q76 91 155 134.5t168 43.5q76 0 136 -31t94.5 -94.5t34.5 -155.5z" />
    <glyph glyph-name="o" unicode="o" horiz-adv-x="1025" 
d="M72 369q0 79 16 163q46 257 173.5 406t330.5 149q176 0 270 -103.5t94 -286.5q0 -71 -15 -152q-49 -266 -176.5 -419t-328.5 -153q-174 0 -269 104t-95 292zM786 702q0 123 -51.5 185t-147.5 62q-119 0 -205 -104.5t-123 -311.5q-16 -83 -16 -155q0 -129 52.5 -197.5
t148.5 -68.5q108 0 196 105t131 340q15 81 15 145z" />
    <glyph glyph-name="p" unicode="p" 
d="M961 724q0 -91 -21 -188q-43 -202 -105.5 -325t-150.5 -179.5t-209 -56.5q-90 0 -159.5 37.5t-105.5 111.5l-112 -529h-169l312 1467h150l-29 -134q67 81 138 119.5t159 38.5q90 0 158 -41t106 -122.5t38 -198.5zM289 549q-22 -104 -22 -184q0 -128 53 -189t144 -61
q72 0 126.5 37.5t98.5 129.5t79 253q21 99 21 175q0 117 -46 177t-130 60q-114 0 -197.5 -98t-126.5 -300z" />
    <glyph glyph-name="q" unicode="q" 
d="M528 -405l109 515q-52 -63 -121 -99t-147 -36q-146 0 -227 90.5t-81 264.5q0 79 20 184q110 572 470 572q99 0 167.5 -40.5t108.5 -129.5l31 146h151l-312 -1467h-169zM256 526q-20 -105 -20 -179q0 -117 44.5 -176t130.5 -59q67 0 129.5 41.5t114 131.5t80.5 227
q23 104 23 185q0 131 -54 189.5t-133 58.5q-236 0 -315 -419z" />
    <glyph glyph-name="r" unicode="r" horiz-adv-x="684" 
d="M578 909q-99 0 -171 -98.5t-111 -283.5l-112 -527h-169l226 1062h147l-38 -180q77 114 141.5 159t141.5 45q49 0 89.5 -16t77.5 -47l-93 -157q-61 43 -129 43z" />
    <glyph glyph-name="s" unicode="s" horiz-adv-x="920" 
d="M514 947q-64 0 -106 -20.5t-61.5 -53t-19.5 -68.5q0 -38 24 -67.5t59.5 -51.5t99.5 -55q89 -46 144.5 -84t95.5 -98.5t40 -146.5q0 -83 -38.5 -157t-126 -122t-227.5 -48q-174 0 -278 81t-107 236l169 25q-1 -69 29.5 -115t81 -68t108.5 -22q73 0 122 26.5t72 66.5t23 82
q0 46 -27 81t-66.5 60.5t-109.5 63.5q-83 43 -134.5 78t-87.5 88.5t-36 127.5q0 78 39 146t120 111t201 43q169 0 262 -67t93 -187q0 -24 -1 -37l-172 -15q3 79 -43.5 123t-141.5 44z" />
    <glyph glyph-name="t" unicode="t" horiz-adv-x="564" 
d="M617 1062l-28 -130h-170l-138 -650q-9 -42 -9 -71q0 -41 20.5 -59.5t65.5 -18.5q24 0 69 9l-6 -142q-65 -17 -123 -17q-96 0 -148.5 46t-52.5 139q0 42 10 88l143 676h-125l28 130h125l56 264l192 108l-79 -372h170z" />
    <glyph glyph-name="u" unicode="u" horiz-adv-x="1026" 
d="M632 0l33 155q-75 -89 -154 -132.5t-168 -43.5q-131 0 -197 74.5t-66 206.5q0 68 16 142l141 660h169l-142 -667q-13 -58 -13 -106q0 -84 39 -126t108 -42q68 0 132.5 42t113.5 119t70 178l128 602h169l-226 -1062h-153z" />
    <glyph glyph-name="v" unicode="v" horiz-adv-x="910" 
d="M263 0l-130 1062h171l69 -634q8 -60 8 -211q61 134 100 208l342 637h180l-586 -1062h-154z" />
    <glyph glyph-name="w" unicode="w" horiz-adv-x="1367" 
d="M756 0l-15 533q-1 29 -1 122.5t8 197.5q-23 -59 -145 -328l-237 -525h-159l-79 1062h166l35 -616q3 -45 2 -222q61 167 90 228l284 610h178l4 -654q0 -63 -7 -197l99 211l313 640h173l-544 -1062h-165z" />
    <glyph glyph-name="x" unicode="x" horiz-adv-x="917" 
d="M782 0h-184l-111 284q-31 80 -48 135l-54.5 -77.5t-55.5 -73.5l-216 -268h-203l460 543l-209 519h179l90 -222q31 -76 60 -163q95 131 116 158l181 227h196l-426 -505z" />
    <glyph glyph-name="y" unicode="y" horiz-adv-x="917" 
d="M33 -431q-43 0 -85 9t-72 25l59 144q32 -15 52.5 -20.5t42.5 -5.5q46 0 83.5 39.5t69.5 99.5l86 157l-124 1045h172l84 -811l435 811h178l-687 -1250q-56 -101 -104 -154t-92 -71t-98 -18z" />
    <glyph glyph-name="z" unicode="z" horiz-adv-x="789" 
d="M241 266q-4 -4 -34 -37t-90 -92h578l-29 -137h-768l29 137l526 594q87 98 180 190h-501l30 141h701l-25 -119z" />
    <glyph glyph-name="braceleft" unicode="{" horiz-adv-x="555" 
d="M483 1081l-42 -199q-18 -82 -42 -148t-68.5 -121.5t-113.5 -79.5q95 -42 95 -188q0 -41 -6.5 -84t-17.5 -98l-36 -169q-19 -91 -19 -147q0 -73 29 -101t88 -31l-31 -144h-5q-116 0 -179 68.5t-63 186.5q0 51 12 108l44 205q28 131 28 193q0 66 -29.5 93t-98.5 30l33 155
q68 1 109.5 29t68.5 90.5t52 177.5l41 192q31 149 66 227.5t111 121.5t218 43l-30 -142q-77 -4 -114.5 -29t-56.5 -75t-43 -164z" />
    <glyph glyph-name="bar" unicode="|" horiz-adv-x="533" 
d="M218 -407v1873h157v-1873h-157z" />
    <glyph glyph-name="braceright" unicode="}" horiz-adv-x="555" 
d="M481 1240q0 -65 -16 -141l-41 -192q-24 -115 -24 -173q0 -66 29.5 -94.5t98.5 -29.5l-33 -155q-71 -3 -112 -30.5t-68 -92.5t-54 -193l-44 -205q-28 -129 -61.5 -202.5t-109 -117t-213.5 -43.5h-5l31 144q72 3 108.5 24t59 76t48.5 179l36 169q27 135 78.5 232.5
t148.5 137.5q-97 39 -97 180q0 67 23 169l42 199q18 83 18 136q0 67 -28.5 97t-89.5 35l30 142q121 0 183 -63.5t62 -187.5z" />
    <glyph glyph-name="asciitilde" unicode="~" 
d="M742 577q-48 0 -96 16t-114 51q-58 30 -98 44.5t-80 14.5q-117 0 -261 -123l38 175q66 57 129.5 85.5t127.5 28.5q46 0 92.5 -16t113.5 -49q58 -30 99.5 -45t82.5 -15q96 0 236 125l-40 -186q-118 -106 -230 -106z" />
    <glyph glyph-name="Euro" unicode="&#x20ac;" 
d="M1150 1337l-74 -147q-103 143 -269 143q-151 0 -259.5 -117.5t-174.5 -293.5h599l-56 -140h-587q-14 -54 -16 -67l-9 -47h573l-56 -140h-536q-3 -34 -3 -67q0 -171 67.5 -258.5t190.5 -87.5q171 0 338 145l-40 -192q-78 -50 -144 -71.5t-163 -21.5q-114 0 -209 47
t-154 153.5t-59 275.5q0 37 3 77h-101l56 140h64l8 39q6 30 17 75h-91l56 140h76q183 551 612 551q100 0 192 -35t149 -101z" />
    <glyph glyph-name="quotesinglbase" unicode="&#x201a;" horiz-adv-x="448" 
d="M-2 -310l-35 75q64 33 104 90t58 142l1 3h-97l47 222h201l-49 -230q-21 -104 -79.5 -182.5t-150.5 -119.5z" />
    <glyph glyph-name="florin" unicode="&#x192;" 
d="M1281 1444l-70 -144q-48 13 -82 19.5t-63 6.5q-39 0 -65.5 -14t-53.5 -57t-63 -132l-53 -129h209l-57 -132h-201l-383 -976q-46 -117 -91 -184t-107 -100t-155 -33q-36 0 -85.5 6.5t-96.5 17.5l61 147q71 -20 128 -20q54 0 87.5 22.5t63 78t75.5 173.5l333 868h-205
l56 132h198l50 130q53 137 102 214.5t111 112t150 34.5q84 0 207 -41z" />
    <glyph glyph-name="quotedblbase" unicode="&#x201e;" horiz-adv-x="778" 
d="M-2 -310l-35 75q126 65 162 229l1 6h-97l47 222h201l-49 -230q-21 -104 -79.5 -182.5t-150.5 -119.5zM328 -310l-35 75q126 65 162 229l1 6h-96l47 222h200l-49 -230q-21 -104 -79.5 -182.5t-150.5 -119.5z" />
    <glyph glyph-name="ellipsis" unicode="&#x2026;" horiz-adv-x="2048" 
d="M128 0l47 222h201l-47 -222h-201zM811 0l47 222h201l-47 -222h-201zM1493 0l47 222h201l-47 -222h-201z" />
    <glyph glyph-name="dagger" unicode="&#x2020;" horiz-adv-x="943" 
d="M959 1022l-33 -159h-302l-270 -1270h-166l270 1270h-299l33 159h299l95 444h166l-95 -444h302z" />
    <glyph glyph-name="daggerdbl" unicode="&#x2021;" horiz-adv-x="943" 
d="M969 1069l-33 -157h-301l-163 -765h301l-33 -157h-301l-84 -397h-166l84 397h-300l33 157h300l163 767h-300l33 155h300l85 397h166l-85 -397h301z" />
    <glyph glyph-name="circumflex" unicode="&#x2c6;" horiz-adv-x="683" 
d="M609 1190l-83 158l-159 -158h-185l242 248h213l143 -248h-171z" />
    <glyph glyph-name="perthousand" unicode="&#x2030;" horiz-adv-x="2064" 
d="M726 1239q0 -62 -17 -145q-26 -122 -58.5 -207.5t-98 -144.5t-171.5 -59q-91 0 -150.5 60t-59.5 188q0 65 18 149q31 147 71.5 236t101.5 132t150 43q100 0 157 -64t57 -188zM198 -56l983 1547h140l-987 -1547h-136zM332 1096q-22 -107 -22 -172q0 -73 22.5 -101.5
t60.5 -28.5q44 0 72.5 25.5t52 88.5t48.5 184q22 101 22 168q0 62 -21.5 90.5t-66.5 28.5q-35 0 -63 -22.5t-54.5 -84.5t-50.5 -176zM1352 509q0 -70 -20 -168q-31 -145 -75.5 -232.5t-104 -126t-139.5 -38.5q-95 0 -155.5 59.5t-60.5 189.5q0 68 17 149q31 146 71.5 234.5
t101 131t149.5 42.5q216 0 216 -241zM1972 509q0 -70 -20 -168q-31 -145 -75.5 -232.5t-104 -126t-139.5 -38.5q-95 0 -155.5 59.5t-60.5 189.5q0 68 17 149q31 146 71.5 234.5t101 131t149.5 42.5q216 0 216 -241zM954 344q-20 -97 -20 -161q0 -74 23.5 -101t62.5 -27
q41 0 72 31t55.5 97t47.5 175q22 105 22 162q0 62 -22.5 90.5t-68.5 28.5q-35 0 -63.5 -23t-56 -88t-52.5 -184zM1574 344q-20 -97 -20 -161q0 -74 23.5 -101t62.5 -27q41 0 72 31t55.5 97t47.5 175q22 105 22 162q0 62 -22.5 90.5t-68.5 28.5q-35 0 -63.5 -23t-56 -88
t-52.5 -184z" />
    <glyph glyph-name="Scaron" unicode="&#x160;" horiz-adv-x="1131" 
d="M940 1114q0 114 -56.5 168t-175.5 54q-88 0 -150 -33t-93.5 -88.5t-31.5 -120.5q0 -63 34 -111t85 -83.5t139 -84.5q106 -59 171.5 -107t111.5 -121t46 -174q0 -105 -53 -205.5t-167.5 -166.5t-288.5 -66q-131 0 -231.5 42t-157.5 126t-57 206q0 49 8 111l174 15
q-6 -45 -6 -84q0 -261 285 -261q102 0 173 39.5t106.5 100.5t35.5 123q0 68 -35 119t-86 86.5t-141 86.5q-105 58 -169 104.5t-109 119.5t-45 175q0 101 51 194.5t156.5 153t259.5 59.5q113 0 203.5 -38.5t142.5 -113t52 -177.5q0 -52 -10 -106l-175 -14q4 35 4 72z
M919 1833h182l-242 -248h-213l-143 248h174l84 -158z" />
    <glyph glyph-name="guilsinglleft" unicode="&#x2039;" horiz-adv-x="576" 
d="M391 72h-117l-189 475l367 434h133l-327 -444z" />
    <glyph glyph-name="OE" unicode="&#x152;" horiz-adv-x="1748" 
d="M1048 1314l33 152h750l-34 -157h-572l-101 -475h509l-34 -162h-509l-109 -513h597l-34 -159h-775l35 164q-73 -96 -153.5 -142.5t-179.5 -46.5q-188 0 -278 115t-90 328q0 141 38 320q46 216 110.5 378t182 268.5t296.5 106.5q119 0 200.5 -44.5t117.5 -132.5zM320 719
q-38 -179 -38 -298q0 -137 52 -209.5t165 -72.5q117 0 199 78.5t137 219t100 351.5q33 161 33 266q0 149 -60.5 212.5t-177.5 63.5q-113 0 -190.5 -76.5t-128 -208.5t-91.5 -326z" />
    <glyph glyph-name="Zcaron" unicode="&#x17d;" horiz-adv-x="1027" 
d="M354 383q-92 -114 -197 -225h731l-34 -158h-922l34 158l703 865q128 159 242 285h-615l34 158h813l-34 -158zM905 1833h182l-242 -248h-213l-143 248h174l84 -158z" />
    <glyph glyph-name="quoteleft" unicode="&#x2018;" horiz-adv-x="412" 
d="M345 1187l-1 -6h100l-47 -222h-201l49 230q22 103 79.5 180.5t151.5 121.5l31 -76q-65 -32 -106.5 -89.5t-55.5 -138.5z" />
    <glyph glyph-name="quoteright" unicode="&#x2019;" horiz-adv-x="412" 
d="M228 934l-37 74q128 65 162 229l2 7h-97l47 222h201l-49 -230q-22 -103 -80 -181t-149 -121z" />
    <glyph glyph-name="quotedblleft" unicode="&#x201c;" horiz-adv-x="742" 
d="M346 1191l-2 -10h100l-47 -222h-201l49 230q22 103 79.5 180.5t151.5 121.5l31 -76q-129 -65 -161 -224zM677 1192l-2 -11h99l-47 -222h-201l49 231q22 104 80 181.5t151 119.5l31 -76q-132 -68 -160 -223z" />
    <glyph glyph-name="quotedblright" unicode="&#x201d;" horiz-adv-x="742" 
d="M228 934l-37 74q127 64 162 230l2 6h-97l47 222h201l-49 -230q-22 -103 -80 -181t-149 -121zM557 934l-36 74q128 65 162 230l2 6h-96l47 222h200l-49 -231q-22 -105 -80.5 -183t-149.5 -118z" />
    <glyph glyph-name="bullet" unicode="&#x2022;" horiz-adv-x="760" 
d="M680 731q0 -67 -34 -124.5t-91.5 -91.5t-124.5 -34q-68 0 -125.5 33.5t-91 91t-33.5 125.5q0 70 35 127.5t92.5 90t122.5 32.5q66 0 123.5 -33t92 -90.5t34.5 -126.5z" />
    <glyph glyph-name="endash" unicode="&#x2013;" horiz-adv-x="931" 
d="M-20 458l31 145h939l-31 -145h-939z" />
    <glyph glyph-name="emdash" unicode="&#x2014;" horiz-adv-x="1740" 
d="M-20 458l31 145h1748l-31 -145h-1748z" />
    <glyph glyph-name="tilde" unicode="&#x2dc;" horiz-adv-x="683" 
d="M647 1202q-37 0 -74.5 11t-86.5 35q-57 29 -79 38t-42 9q-36 0 -54.5 -20.5t-34.5 -70.5h-120q14 101 67 157.5t140 56.5q43 0 78.5 -10.5t81.5 -34.5t75.5 -34.5t54.5 -10.5q35 0 56.5 23t34.5 73h115q-19 -117 -73 -169.5t-139 -52.5z" />
    <glyph glyph-name="trademark" unicode="&#x2122;" horiz-adv-x="1536" 
d="M512 1337v-687h-143v687h-226v129h594v-129h-225zM1335 1462l2 4h236v-816h-146v651l-173 -651h-133l-171 651v-651h-143v816h237l141 -557z" />
    <glyph glyph-name="scaron" unicode="&#x161;" horiz-adv-x="920" 
d="M514 947q-64 0 -106 -20.5t-61.5 -53t-19.5 -68.5q0 -38 24 -67.5t59.5 -51.5t99.5 -55q89 -46 144.5 -84t95.5 -98.5t40 -146.5q0 -83 -38.5 -157t-126 -122t-227.5 -48q-174 0 -278 81t-107 236l169 25q-1 -69 29.5 -115t81 -68t108.5 -22q73 0 122 26.5t72 66.5t23 82
q0 46 -27 81t-66.5 60.5t-109.5 63.5q-83 43 -134.5 78t-87.5 88.5t-36 127.5q0 78 39 146t120 111t201 43q169 0 262 -67t93 -187q0 -24 -1 -37l-172 -15q3 79 -43.5 123t-141.5 44zM753 1438h182l-242 -248h-213l-143 248h174l84 -158z" />
    <glyph glyph-name="guilsinglright" unicode="&#x203a;" horiz-adv-x="576" 
d="M124 72h-136l328 445l-134 464h113l193 -474z" />
    <glyph glyph-name="oe" unicode="&#x153;" horiz-adv-x="1484" 
d="M1439 771q0 -80 -21 -181q-5 -24 -24 -96h-565l-13 -61q-17 -83 -17 -139q0 -96 41.5 -138t117.5 -42q77 0 136.5 60t95.5 179l166 -14q-65 -182 -167.5 -271t-233.5 -89q-103 0 -173.5 43.5t-104.5 129.5q-71 -88 -143.5 -129.5t-169.5 -41.5q-141 0 -222.5 84.5
t-81.5 255.5q0 89 24 203q59 279 171.5 420.5t290.5 141.5q109 0 182.5 -50t94.5 -143q65 97 141.5 145t177.5 48q144 0 220.5 -79.5t76.5 -235.5zM858 632h399l4 16q16 76 16 133q0 91 -41 131.5t-120 40.5q-110 0 -169 -90.5t-89 -230.5zM258 546q-25 -112 -25 -210
q0 -99 32 -160.5t110 -61.5q93 0 153.5 70t91.5 160t56 205q25 118 25 199q0 108 -41 155.5t-117 47.5q-97 0 -167.5 -92.5t-117.5 -312.5z" />
    <glyph glyph-name="zcaron" unicode="&#x17e;" horiz-adv-x="789" 
d="M241 266q-4 -4 -34 -37t-90 -92h578l-29 -137h-768l29 137l526 594q87 98 180 190h-501l30 141h701l-25 -119zM710 1438h182l-242 -248h-213l-143 248h174l84 -158z" />
    <glyph glyph-name="Ydieresis" unicode="&#x178;" horiz-adv-x="1134" 
d="M542 998q40 -122 63 -218l197 280l309 406h212l-658 -847l-132 -619h-182l132 619l-274 847h185zM514 1620l43 206h185l-43 -206h-185zM886 1620l43 206h187l-43 -206h-187z" />
    <glyph glyph-name="uni00A0" unicode="&#xa0;" horiz-adv-x="565" 
 />
    <glyph glyph-name="exclamdown" unicode="&#xa1;" horiz-adv-x="513" 
d="M255 699h75l-106 -775l-70 -328h-194l70 328zM470 1062l-47 -222h-201l47 222h201z" />
    <glyph glyph-name="cent" unicode="&#xa2;" horiz-adv-x="922" 
d="M721 883l-385 -750q38 -20 89 -20q91 0 156.5 68t116.5 209l160 -18q-76 -204 -179.5 -300.5t-259.5 -96.5q-83 0 -150 26l-206 -404l-80 44l205 407q-59 49 -90 127.5t-31 183.5q0 89 22 190q53 249 181 393t319 144q66 0 123 -17l208 409l85 -41l-209 -407
q123 -85 127 -281l-164 -31q-1 106 -38 165zM241 350q0 -89 28 -147l376 737q-27 8 -58 8q-117 0 -198.5 -102.5t-123.5 -301.5q-24 -112 -24 -194z" />
    <glyph glyph-name="sterling" unicode="&#xa3;" 
d="M1090 1111l-168 -22q-4 254 -214 254q-137 0 -203 -105.5t-66 -274.5q0 -60 11 -152l2 -21h244l-29 -139h-210q-4 -138 -70 -264.5t-219 -222.5q106 38 185 38q40 0 79.5 -9.5t93.5 -26.5q49 -16 78.5 -23t57.5 -7q49 0 89 10.5t103 37.5l31 -137q-128 -69 -239 -69
q-47 0 -85 10t-95 30q-56 21 -99 31.5t-94 10.5q-129 0 -283 -89l-40 159q178 89 253.5 223t79.5 298h-198l29 139h163l-3 38q-1 11 -4 56t-3 87q0 135 42.5 251.5t142 190.5t258.5 74q115 0 201.5 -44.5t132.5 -126t46 -205.5z" />
    <glyph glyph-name="currency" unicode="&#xa4;" 
d="M877 962q57 -117 57 -240q0 -74 -10 -115.5t-47 -119.5l126 -137l-119 -107l-113 126q-100 -68 -212 -68q-131 0 -223 68l-115 -126l-120 107l129 137q-58 107 -58 233q0 137 58 237l-129 140l115 109l120 -128q100 68 219 68q100 0 215 -68l113 128l120 -109zM328 727
q0 -74 27 -135.5t79 -97t122 -35.5q63 0 113 33t79 93t29 137q0 84 -31 144.5t-82 91t-110 30.5q-62 0 -114 -33.5t-82 -93.5t-30 -134z" />
    <glyph glyph-name="yen" unicode="&#xa5;" 
d="M1004 749l-29 -137h-364l-32 -150h364l-29 -137h-364l-69 -325h-164l69 326h-363l29 136h363l32 151h-363l29 136h298l-213 717h181l143 -485q16 -54 42 -168q71 112 116 173l342 480h202l-518 -717h298z" />
    <glyph glyph-name="brokenbar" unicode="&#xa6;" horiz-adv-x="533" 
d="M218 701v765h157v-765h-157zM218 -407v767h157v-767h-157z" />
    <glyph glyph-name="section" unicode="&#xa7;" 
d="M991 1181q0 -19 -1 -34l-175 -17q3 104 -35.5 162t-126.5 58q-54 0 -93 -23.5t-59.5 -64t-20.5 -90.5q0 -49 24 -91.5t67 -84.5t130 -117q115 -98 170.5 -178t55.5 -169q0 -106 -70 -195.5t-232 -153.5q61 -62 92.5 -137t31.5 -147q0 -82 -41 -158.5t-127 -126.5
t-214 -50q-107 0 -187 41t-124.5 123.5t-45.5 202.5l178 24q2 -68 15.5 -121.5t54 -91t117.5 -37.5q95 0 147 51.5t52 130.5q0 47 -19.5 87.5t-69 92.5t-145.5 132q-81 68 -130 120.5t-77 109.5t-28 123q0 111 73 207.5t229 160.5q-46 45 -73 110.5t-27 125.5q0 82 37.5 159
t116.5 126.5t196 49.5q125 0 201.5 -51t104.5 -126t28 -133zM260 603q0 -48 28 -92.5t84 -97.5q59 -56 142 -127l43 -38q112 58 162 118.5t50 117.5q0 49 -31 99t-92 108q-100 98 -176 160q-108 -48 -159 -115t-51 -133z" />
    <glyph glyph-name="dieresis" unicode="&#xa8;" horiz-adv-x="683" 
d="M210 1225l43 206h185l-43 -206h-185zM582 1225l43 206h187l-43 -206h-187z" />
    <glyph glyph-name="copyright" unicode="&#xa9;" horiz-adv-x="1643" 
d="M1616 736q0 -199 -100.5 -372.5t-273.5 -277.5t-380 -104q-200 0 -374 100t-277.5 273t-103.5 381q0 200 100 374t273.5 277.5t381.5 103.5q207 0 380 -104t273.5 -278t100.5 -373zM232 736q0 -167 83.5 -312t228 -231t318.5 -86q167 0 311.5 83.5t231 228t86.5 317.5
q0 180 -90 324.5t-236 225t-306 80.5q-166 0 -310 -84.5t-230.5 -229t-86.5 -316.5zM1212 924l-119 -29q-31 77 -87 115t-139 38q-84 0 -143.5 -41t-90 -112.5t-30.5 -161.5q0 -148 67.5 -230t185.5 -82q56 0 108 23.5t89 67t51 102.5l123 -36q-18 -82 -70 -144t-128.5 -96
t-165.5 -34q-126 0 -215.5 56t-135 153.5t-45.5 220.5q0 132 48.5 228t139.5 147t216 51q135 0 222 -65.5t119 -170.5z" />
    <glyph glyph-name="ordfeminine" unicode="&#xaa;" horiz-adv-x="619" 
d="M689 1306q0 -54 -16 -131l-47 -217q-10 -46 -10 -93q0 -62 20 -105h-141q-12 34 -12 91q-48 -54 -94 -79t-96 -25q-77 0 -121 46t-44 119q0 79 48 142.5t151 96.5q159 49 222 78l2 9q7 29 7 56q0 39 -23 59.5t-58 20.5q-44 0 -71.5 -28t-45.5 -97l-129 13
q31 121 91.5 175t161.5 54q102 0 153.5 -48.5t51.5 -136.5zM392 1065q-126 -42 -126 -139q0 -29 16.5 -47t46.5 -18q36 0 73 21t67 64.5t43 106.5l13 61q-26 -12 -133 -49z" />
    <glyph glyph-name="guillemotleft" unicode="&#xab;" 
d="M441 72h-117l-189 475l367 434h133l-327 -444zM803 72h-117l-189 475l367 434h133l-327 -444z" />
    <glyph glyph-name="logicalnot" unicode="&#xac;" 
d="M850 436v408h-763v166h930v-574h-167z" />
    <glyph glyph-name="uni00AD" unicode="&#xad;" horiz-adv-x="683" 
d="M46 440l38 181h553l-38 -181h-553z" />
    <glyph glyph-name="registered" unicode="&#xae;" horiz-adv-x="1643" 
d="M1616 736q0 -199 -100.5 -372.5t-273.5 -277.5t-380 -104q-200 0 -374 100t-277.5 273t-103.5 381q0 200 100 374t273.5 277.5t381.5 103.5q207 0 380 -104t273.5 -278t100.5 -373zM232 736q0 -167 83.5 -312t228 -231t318.5 -86q167 0 311.5 83.5t231 228t86.5 317.5
q0 180 -90 324.5t-236 225t-306 80.5q-166 0 -310 -84.5t-230.5 -229t-86.5 -316.5zM1157 911q0 -57 -28.5 -107.5t-81 -83.5t-121.5 -38q38 -12 86 -63.5t101 -138.5l100 -161h-160l-72 128q-55 99 -92 143.5t-77 60t-108 15.5h-42v-347h-131v812h326q132 0 216 -52.5
t84 -167.5zM1018 899q0 65 -44 93.5t-130 28.5h-182v-245h186q77 0 123.5 31.5t46.5 91.5z" />
    <glyph glyph-name="glyph140" horiz-adv-x="683" 
d="M235 1235l27 130h512l-27 -130h-512z" />
    <glyph glyph-name="degree" unicode="&#xb0;" horiz-adv-x="811" 
d="M128 1194q0 74 38 138t102 101.5t137 37.5q75 0 139 -37.5t101.5 -101t37.5 -138.5q0 -76 -37.5 -139t-101 -101t-139.5 -38t-139.5 38.5t-100.5 102.5t-37 137zM404 1363q-44 0 -82.5 -23t-61.5 -62t-23 -84q0 -46 22.5 -85t61.5 -61.5t84 -22.5q46 0 84.5 22t61.5 61.5
t23 85.5q0 45 -23 84t-62 62t-85 23z" />
    <glyph glyph-name="plusminus" unicode="&#xb1;" 
d="M1018 925v-167h-381v-402h-168v402h-382v167h382v403h168v-403h381zM87 119v166h931v-166h-931z" />
    <glyph glyph-name="uni00B2" unicode="&#xb2;" horiz-adv-x="619" 
d="M118 741q15 53 57 107.5t93 103.5t179 159q108 94 122 165q3 15 3 28q0 34 -18.5 55.5t-51.5 21.5q-87 0 -119 -116l-137 15q36 106 101 158.5t162 52.5q60 0 105.5 -22.5t71 -63t25.5 -92.5q0 -19 -5 -46q-24 -112 -178 -240q-75 -63 -123.5 -109t-65.5 -67h279
l-23 -110h-477z" />
    <glyph glyph-name="uni00B3" unicode="&#xb3;" horiz-adv-x="619" 
d="M631 996q0 -28 -8 -68q-20 -92 -84.5 -147t-168.5 -55q-61 0 -110 23.5t-78 69.5t-29 112l142 14q-3 -52 19 -79t61 -27q94 0 118 110q4 19 4 40q0 45 -26 71t-76 26h-65l38 101q66 0 107.5 28.5t50.5 73.5q4 16 4 33q0 31 -15.5 46t-42.5 15q-38 0 -60.5 -23t-40.5 -75
l-129 24q36 93 91.5 137.5t145.5 44.5q81 0 135 -43t54 -118q0 -21 -4 -41q-20 -98 -120 -140q87 -49 87 -153z" />
    <glyph glyph-name="acute" unicode="&#xb4;" horiz-adv-x="683" 
d="M387 1211l132 254h245l-249 -254h-128z" />
    <glyph glyph-name="uni00B5" unicode="&#xb5;" horiz-adv-x="1030" 
d="M630 0l29 137q-50 -82 -108.5 -120t-137.5 -38q-77 0 -126.5 35t-77.5 98l-110 -518h-170l312 1468h169l-126 -592q-16 -76 -16 -138q0 -102 42 -156.5t120 -54.5q64 0 122.5 44.5t102.5 124t65 180.5l126 592h169l-226 -1062h-159z" />
    <glyph glyph-name="paragraph" unicode="&#xb6;" horiz-adv-x="1159" 
d="M1185 1309l-364 -1715h-149l364 1715h-202l-364 -1715h-149l216 1016h-50q-95 0 -170 44.5t-117.5 123.5t-42.5 178q0 140 63 255t200 185t348 70h560l-34 -157h-109z" />
    <glyph glyph-name="periodcentered" unicode="&#xb7;" horiz-adv-x="512" 
d="M174 622l48 222h201l-48 -222h-201z" />
    <glyph glyph-name="cedilla" unicode="&#xb8;" horiz-adv-x="683" 
d="M378 -226q0 -56 -31 -102.5t-100.5 -75t-177.5 -28.5q-66 0 -115 12l37 112q39 -5 70 -5q92 0 131.5 22t39.5 62q0 34 -38.5 54.5t-110.5 20.5l92 179h122l-59 -117q67 -10 103.5 -47t36.5 -87z" />
    <glyph glyph-name="uni00B9" unicode="&#xb9;" horiz-adv-x="619" 
d="M347 741l114 538q-46 -37 -91.5 -64t-97.5 -40l27 129q136 47 243 187h95l-159 -750h-131z" />
    <glyph glyph-name="ordmasculine" unicode="&#xba;" horiz-adv-x="619" 
d="M707 1229q0 -61 -14 -124q-37 -176 -114.5 -270t-196.5 -94q-104 0 -168 68t-64 197q0 58 15 130q34 166 110.5 260.5t200.5 94.5q109 0 170 -69t61 -193zM294 1115q-12 -55 -12 -102q0 -68 26.5 -107t81.5 -39q48 0 79.5 27t53 81t40.5 144q14 67 14 113q0 133 -110 133
q-44 0 -75 -23.5t-54.5 -78t-43.5 -148.5z" />
    <glyph glyph-name="guillemotright" unicode="&#xbb;" 
d="M167 72h-136l328 445l-134 464h113l193 -474zM530 72h-136l328 445l-134 464h113l193 -474z" />
    <glyph glyph-name="onequarter" unicode="&#xbc;" horiz-adv-x="1540" 
d="M187 -57l1136 1548h148l-1131 -1548h-153zM347 741l114 538q-46 -37 -91.5 -64t-97.5 -40l27 129q136 47 243 187h95l-159 -750h-131zM1374 262h78l-24 -112h-78l-32 -150h-129l32 150h-326l24 114l446 484h112zM1245 262l60 283l-259 -283h199z" />
    <glyph glyph-name="onehalf" unicode="&#xbd;" horiz-adv-x="1579" 
d="M187 -57l1136 1548h148l-1131 -1548h-153zM347 741l114 538q-46 -37 -91.5 -64t-97.5 -40l27 129q136 47 243 187h95l-159 -750h-131zM938 0q15 53 57 107.5t93 103t179 159.5q108 94 122 165q3 15 3 28q0 34 -18.5 55.5t-51.5 21.5q-87 0 -119 -116l-137 15
q36 106 101 158.5t162 52.5q60 0 105.5 -22.5t71 -63t25.5 -92.5q0 -19 -5 -46q-24 -112 -178 -240q-75 -63 -123.5 -109t-65.5 -67h279l-23 -110h-477z" />
    <glyph glyph-name="threequarters" unicode="&#xbe;" horiz-adv-x="1540" 
d="M631 996q0 -28 -8 -68q-20 -92 -84.5 -147t-168.5 -55q-61 0 -110 23.5t-78 69.5t-29 112l142 14q-3 -52 19 -79t61 -27q94 0 118 110q4 19 4 40q0 45 -26 71t-76 26h-65l38 101q66 0 107.5 28.5t50.5 73.5q4 16 4 33q0 31 -15.5 46t-42.5 15q-38 0 -60.5 -23t-40.5 -75
l-129 24q36 93 91.5 137.5t145.5 44.5q81 0 135 -43t54 -118q0 -21 -4 -41q-20 -98 -120 -140q87 -49 87 -153zM187 -57l1136 1548h148l-1131 -1548h-153zM1374 262h78l-24 -112h-78l-32 -150h-129l32 150h-326l24 114l446 484h112zM1245 262l60 283l-259 -283h199z" />
    <glyph glyph-name="questiondown" unicode="&#xbf;" horiz-adv-x="943" 
d="M-54 -111q0 80 29 150t95 143t180 160q70 54 104.5 89t61.5 92.5t49 159.5l4 19h161l-15 -70q-19 -89 -49.5 -152t-85 -121.5t-149.5 -128.5q-119 -88 -167.5 -168.5t-48.5 -162.5q0 -85 49.5 -135.5t135.5 -50.5q108 0 180 73t118 224l160 -20q-62 -212 -177.5 -315.5
t-287.5 -103.5q-104 0 -183 42.5t-121.5 115t-42.5 160.5zM727 1062l-47 -222h-201l47 222h201z" />
    <glyph glyph-name="Agrave" unicode="&#xc0;" horiz-adv-x="1130" 
d="M291 423l-216 -423h-193l781 1466h205l154 -1466h-182l-35 423h-514zM734 1290l-368 -721h428zM771 1606l-180 254h214l85 -254h-119z" />
    <glyph glyph-name="Aacute" unicode="&#xc1;" horiz-adv-x="1130" 
d="M291 423l-216 -423h-193l781 1466h205l154 -1466h-182l-35 423h-514zM734 1290l-368 -721h428zM687 1606l132 254h245l-249 -254h-128z" />
    <glyph glyph-name="Acircumflex" unicode="&#xc2;" horiz-adv-x="1130" 
d="M291 423l-216 -423h-193l781 1466h205l154 -1466h-182l-35 423h-514zM734 1290l-368 -721h428zM912 1585l-83 158l-159 -158h-185l242 248h213l143 -248h-171z" />
    <glyph glyph-name="Atilde" unicode="&#xc3;" horiz-adv-x="1130" 
d="M291 423l-216 -423h-193l781 1466h205l154 -1466h-182l-35 423h-514zM734 1290l-368 -721h428zM934 1597q-37 0 -74 10.5t-87 35.5q-57 29 -80 38t-41 9q-35 0 -54 -20t-35 -71h-120q14 103 67.5 158.5t139.5 55.5q40 0 77 -10.5t83 -34.5q47 -24 76 -34.5t54 -10.5
q35 0 56.5 23t34.5 73h115q-20 -119 -74.5 -170.5t-137.5 -51.5z" />
    <glyph glyph-name="Adieresis" unicode="&#xc4;" horiz-adv-x="1130" 
d="M291 423l-216 -423h-193l781 1466h205l154 -1466h-182l-35 423h-514zM734 1290l-368 -721h428zM512 1620l43 206h185l-43 -206h-185zM884 1620l43 206h187l-43 -206h-187z" />
    <glyph glyph-name="Aring" unicode="&#xc5;" horiz-adv-x="1130" 
d="M291 423l-216 -423h-193l760 1427q-37 31 -58 75.5t-21 94.5q0 59 30 110t81 81t110 30t110 -30t81 -81t30 -110q0 -66 -36 -120.5t-94 -81.5l147 -1395h-182l-35 423h-514zM653 1597q0 -35 18 -65.5t48 -48t65 -17.5t65.5 18t48.5 48t18 65q0 36 -18 66t-48.5 47.5
t-66.5 17.5q-34 0 -64 -18t-48 -48t-18 -65zM734 1290l-368 -721h428z" />
    <glyph glyph-name="AE" unicode="&#xc6;" horiz-adv-x="1710" 
d="M1187 1308l-101 -474h505l-33 -158h-505l-110 -518h597l-34 -158h-777l95 448h-472l-269 -448h-196l885 1466h1018l-34 -158h-569zM856 595l151 713h-137l-428 -713h414z" />
    <glyph glyph-name="Ccedilla" unicode="&#xc7;" horiz-adv-x="1140" 
d="M893 508l162 -44q-53 -169 -122 -275.5t-168 -160t-241 -53.5h-18l-34 -67q67 -9 103.5 -46.5t36.5 -87.5q0 -56 -31 -102.5t-100.5 -75t-177.5 -28.5q-66 0 -115 12l37 112q39 -5 70 -5q92 0 131.5 22t39.5 62q0 34 -38.5 54.5t-110.5 20.5l75 146q-132 37 -207.5 153
t-75.5 314q0 130 33 282q49 248 126 413t194.5 251t284.5 86q192 0 299.5 -108t117.5 -321l-177 -40q-25 311 -245 311q-111 0 -190.5 -67.5t-135 -202t-97.5 -346.5q-34 -145 -34 -256q0 -162 67 -245t186 -83q89 0 154 41t113 122.5t88 211.5z" />
    <glyph glyph-name="Egrave" unicode="&#xc8;" horiz-adv-x="1029" 
d="M507 1308l-101 -474h504l-33 -158h-504l-110 -518h596l-34 -158h-776l312 1466h748l-34 -158h-568zM753 1606l-180 254h214l85 -254h-119z" />
    <glyph glyph-name="Eacute" unicode="&#xc9;" horiz-adv-x="1029" 
d="M507 1308l-101 -474h504l-33 -158h-504l-110 -518h596l-34 -158h-776l312 1466h748l-34 -158h-568zM669 1606l132 254h245l-249 -254h-128z" />
    <glyph glyph-name="Ecircumflex" unicode="&#xca;" horiz-adv-x="1029" 
d="M507 1308l-101 -474h504l-33 -158h-504l-110 -518h596l-34 -158h-776l312 1466h748l-34 -158h-568zM894 1585l-83 158l-159 -158h-185l242 248h213l143 -248h-171z" />
    <glyph glyph-name="Edieresis" unicode="&#xcb;" horiz-adv-x="1029" 
d="M507 1308l-101 -474h504l-33 -158h-504l-110 -518h596l-34 -158h-776l312 1466h748l-34 -158h-568zM494 1620l43 206h185l-43 -206h-185zM866 1620l43 206h187l-43 -206h-187z" />
    <glyph glyph-name="Igrave" unicode="&#xcc;" horiz-adv-x="504" 
d="M49 0l312 1466h180l-312 -1466h-180zM458 1606l-180 254h214l85 -254h-119z" />
    <glyph glyph-name="Iacute" unicode="&#xcd;" horiz-adv-x="504" 
d="M49 0l312 1466h180l-312 -1466h-180zM374 1606l132 254h245l-249 -254h-128z" />
    <glyph glyph-name="Icircumflex" unicode="&#xce;" horiz-adv-x="504" 
d="M49 0l312 1466h180l-312 -1466h-180zM599 1585l-83 158l-159 -158h-185l242 248h213l143 -248h-171z" />
    <glyph glyph-name="Idieresis" unicode="&#xcf;" horiz-adv-x="504" 
d="M49 0l312 1466h180l-312 -1466h-180zM199 1620l43 206h185l-43 -206h-185zM571 1620l43 206h187l-43 -206h-187z" />
    <glyph glyph-name="Eth" unicode="&#xd0;" horiz-adv-x="1261" 
d="M1232 968q0 -104 -26 -227q-60 -282 -136 -436.5t-220 -229.5t-400 -75h-401l143 672h-161l26 120h161l143 674h290q259 0 420 -116t161 -382zM1048 950q0 192 -105.5 273t-316.5 81h-120l-109 -512h319l-26 -120h-318l-110 -517h204q180 0 288.5 67t166.5 188.5
t100 318.5q27 126 27 221z" />
    <glyph glyph-name="Ntilde" unicode="&#xd1;" horiz-adv-x="1261" 
d="M802 0l-348 1214h-2l-231 -1214h-172l312 1466h180l349 -1211h2l233 1211h173l-312 -1466h-184zM1000 1597q-37 0 -74 10.5t-87 35.5q-57 29 -80 38t-41 9q-35 0 -54 -20t-35 -71h-120q14 103 67.5 158.5t139.5 55.5q40 0 77 -10.5t83 -34.5q47 -24 76 -34.5t54 -10.5
q35 0 56.5 23t34.5 73h115q-20 -119 -74.5 -170.5t-137.5 -51.5z" />
    <glyph glyph-name="Ograve" unicode="&#xd2;" horiz-adv-x="1259" 
d="M1230 993q0 -108 -23 -242q-67 -371 -220 -575.5t-419 -204.5q-209 0 -330.5 121.5t-121.5 377.5q0 119 28 263q134 758 639 758q209 0 328 -125.5t119 -372.5zM320 709q-25 -131 -25 -233q0 -178 71.5 -261.5t201.5 -83.5q344 0 453 604q28 141 28 253q0 174 -69.5 261
t-202.5 87q-190 0 -296 -159.5t-161 -467.5zM816 1606l-180 254h214l85 -254h-119z" />
    <glyph glyph-name="Oacute" unicode="&#xd3;" horiz-adv-x="1259" 
d="M1230 993q0 -108 -23 -242q-67 -371 -220 -575.5t-419 -204.5q-209 0 -330.5 121.5t-121.5 377.5q0 119 28 263q134 758 639 758q209 0 328 -125.5t119 -372.5zM320 709q-25 -131 -25 -233q0 -178 71.5 -261.5t201.5 -83.5q344 0 453 604q28 141 28 253q0 174 -69.5 261
t-202.5 87q-190 0 -296 -159.5t-161 -467.5zM732 1606l132 254h245l-249 -254h-128z" />
    <glyph glyph-name="Ocircumflex" unicode="&#xd4;" horiz-adv-x="1259" 
d="M1230 993q0 -108 -23 -242q-67 -371 -220 -575.5t-419 -204.5q-209 0 -330.5 121.5t-121.5 377.5q0 119 28 263q134 758 639 758q209 0 328 -125.5t119 -372.5zM320 709q-25 -131 -25 -233q0 -178 71.5 -261.5t201.5 -83.5q344 0 453 604q28 141 28 253q0 174 -69.5 261
t-202.5 87q-190 0 -296 -159.5t-161 -467.5zM957 1585l-83 158l-159 -158h-185l242 248h213l143 -248h-171z" />
    <glyph glyph-name="Otilde" unicode="&#xd5;" horiz-adv-x="1259" 
d="M1230 993q0 -108 -23 -242q-67 -371 -220 -575.5t-419 -204.5q-209 0 -330.5 121.5t-121.5 377.5q0 119 28 263q134 758 639 758q209 0 328 -125.5t119 -372.5zM320 709q-25 -131 -25 -233q0 -178 71.5 -261.5t201.5 -83.5q344 0 453 604q28 141 28 253q0 174 -69.5 261
t-202.5 87q-190 0 -296 -159.5t-161 -467.5zM979 1597q-37 0 -74 10.5t-87 35.5q-57 29 -80 38t-41 9q-35 0 -54 -20t-35 -71h-120q14 103 67.5 158.5t139.5 55.5q40 0 77 -10.5t83 -34.5q47 -24 76 -34.5t54 -10.5q35 0 56.5 23t34.5 73h115q-20 -119 -74.5 -170.5
t-137.5 -51.5z" />
    <glyph glyph-name="Odieresis" unicode="&#xd6;" horiz-adv-x="1259" 
d="M1230 993q0 -108 -23 -242q-67 -371 -220 -575.5t-419 -204.5q-209 0 -330.5 121.5t-121.5 377.5q0 119 28 263q134 758 639 758q209 0 328 -125.5t119 -372.5zM320 709q-25 -131 -25 -233q0 -178 71.5 -261.5t201.5 -83.5q344 0 453 604q28 141 28 253q0 174 -69.5 261
t-202.5 87q-190 0 -296 -159.5t-161 -467.5zM557 1620l43 206h185l-43 -206h-185zM929 1620l43 206h187l-43 -206h-187z" />
    <glyph glyph-name="multiply" unicode="&#xd7;" 
d="M832 1221l130 -99l-313 -399l308 -391l-131 -101l-280 358l-282 -358l-128 101l305 391l-305 390l128 108l282 -363z" />
    <glyph glyph-name="Oslash" unicode="&#xd8;" horiz-adv-x="1259" 
d="M1230 993q0 -108 -24 -242q-66 -374 -222 -577t-417 -203q-175 0 -286 82l-75 -112l-101 69l91 134q-81 123 -81 326q0 119 28 265q134 756 639 756q164 0 272 -74l66 98l99 -68l-78 -116q89 -125 89 -338zM295 476q0 -86 19 -156l643 954q-67 62 -180 62
q-190 0 -296 -159.5t-161 -467.5q-25 -131 -25 -233zM1049 988q0 98 -23 172l-646 -960q68 -69 188 -69q344 0 453 604q28 141 28 253z" />
    <glyph glyph-name="Ugrave" unicode="&#xd9;" horiz-adv-x="1259" 
d="M569 -25q-211 0 -314 107t-103 303q0 96 24 210l186 871h180l-187 -879q-23 -106 -23 -192q0 -262 237 -262q106 0 172 44.5t107 136.5t75 251l192 901h180l-192 -900q-42 -202 -95 -324.5t-157 -194.5t-282 -72zM836 1606l-180 254h214l85 -254h-119z" />
    <glyph glyph-name="Uacute" unicode="&#xda;" horiz-adv-x="1259" 
d="M569 -25q-211 0 -314 107t-103 303q0 96 24 210l186 871h180l-187 -879q-23 -106 -23 -192q0 -262 237 -262q106 0 172 44.5t107 136.5t75 251l192 901h180l-192 -900q-42 -202 -95 -324.5t-157 -194.5t-282 -72zM752 1606l132 254h245l-249 -254h-128z" />
    <glyph glyph-name="Ucircumflex" unicode="&#xdb;" horiz-adv-x="1259" 
d="M569 -25q-211 0 -314 107t-103 303q0 96 24 210l186 871h180l-187 -879q-23 -106 -23 -192q0 -262 237 -262q106 0 172 44.5t107 136.5t75 251l192 901h180l-192 -900q-42 -202 -95 -324.5t-157 -194.5t-282 -72zM977 1585l-83 158l-159 -158h-185l242 248h213l143 -248
h-171z" />
    <glyph glyph-name="Udieresis" unicode="&#xdc;" horiz-adv-x="1259" 
d="M569 -25q-211 0 -314 107t-103 303q0 96 24 210l186 871h180l-187 -879q-23 -106 -23 -192q0 -262 237 -262q106 0 172 44.5t107 136.5t75 251l192 901h180l-192 -900q-42 -202 -95 -324.5t-157 -194.5t-282 -72zM577 1620l43 206h185l-43 -206h-185zM949 1620l43 206
h187l-43 -206h-187z" />
    <glyph glyph-name="Yacute" unicode="&#xdd;" horiz-adv-x="1134" 
d="M542 998q40 -122 63 -218l197 280l309 406h212l-658 -847l-132 -619h-182l132 619l-274 847h185zM689 1606l132 254h245l-249 -254h-128z" />
    <glyph glyph-name="Thorn" unicode="&#xde;" horiz-adv-x="1120" 
d="M1099 783q0 -129 -55 -236.5t-189 -176t-359 -68.5h-203l-64 -302h-180l312 1466h180l-65 -303h167q124 0 227 -39.5t166 -124.5t63 -216zM910 769q0 118 -78.5 178t-228.5 60h-160l-117 -549h198q149 0 235 49t118.5 119t32.5 143z" />
    <glyph glyph-name="germandbls" unicode="&#xdf;" horiz-adv-x="1033" 
d="M955 1233q0 -61 -21 -113t-50 -91t-76 -91q-49 -55 -71.5 -89t-22.5 -70q0 -34 22 -72.5t67 -99.5q45 -62 72.5 -106t47.5 -98t20 -111q0 -81 -37 -153.5t-112 -118t-183 -45.5q-248 0 -312 227l162 67q16 -78 54.5 -117.5t96.5 -39.5q55 0 89.5 26t49.5 65t15 79
q0 45 -16 87t-39 78t-62 88q-55 72 -82.5 123.5t-27.5 108.5q0 44 15.5 80.5t38.5 65.5t61 68q40 42 64.5 73.5t41.5 73t17 91.5q0 58 -38.5 94t-100.5 36q-87 0 -139.5 -61t-79.5 -189l-234 -1099h-170l225 1057q30 144 71.5 235.5t122 145t215.5 53.5q90 0 159.5 -32.5
t108 -91t38.5 -134.5z" />
    <glyph glyph-name="agrave" unicode="&#xe0;" horiz-adv-x="917" 
d="M844 821q0 -41 -11 -96l-102 -483q-15 -72 -15 -129q0 -65 19 -113h-175q-9 34 -11 114q-61 -71 -126.5 -105.5t-147.5 -34.5q-86 0 -142.5 35.5t-82.5 91.5t-26 120q0 152 101.5 241.5t294.5 134.5q155 37 231 66q22 94 22 135q0 73 -40.5 110t-101.5 37
q-156 0 -207 -197l-163 13q46 164 137 244.5t245 80.5q86 0 154 -29t107.5 -88.5t39.5 -147.5zM392 456q-96 -29 -148.5 -79.5t-52.5 -135.5q0 -59 32.5 -95.5t97.5 -36.5q62 0 118.5 37t96.5 99.5t56 137.5l30 142q-73 -24 -230 -69zM562 1211l-180 254h214l85 -254h-119z
" />
    <glyph glyph-name="aacute" unicode="&#xe1;" horiz-adv-x="917" 
d="M844 821q0 -41 -11 -96l-102 -483q-15 -72 -15 -129q0 -65 19 -113h-175q-9 34 -11 114q-61 -71 -126.5 -105.5t-147.5 -34.5q-86 0 -142.5 35.5t-82.5 91.5t-26 120q0 152 101.5 241.5t294.5 134.5q155 37 231 66q22 94 22 135q0 73 -40.5 110t-101.5 37
q-156 0 -207 -197l-163 13q46 164 137 244.5t245 80.5q86 0 154 -29t107.5 -88.5t39.5 -147.5zM392 456q-96 -29 -148.5 -79.5t-52.5 -135.5q0 -59 32.5 -95.5t97.5 -36.5q62 0 118.5 37t96.5 99.5t56 137.5l30 142q-73 -24 -230 -69zM472 1211l132 254h245l-249 -254h-128z
" />
    <glyph glyph-name="acircumflex" unicode="&#xe2;" horiz-adv-x="917" 
d="M844 821q0 -41 -11 -96l-102 -483q-15 -72 -15 -129q0 -65 19 -113h-175q-9 34 -11 114q-61 -71 -126.5 -105.5t-147.5 -34.5q-86 0 -142.5 35.5t-82.5 91.5t-26 120q0 152 101.5 241.5t294.5 134.5q155 37 231 66q22 94 22 135q0 73 -40.5 110t-101.5 37
q-156 0 -207 -197l-163 13q46 164 137 244.5t245 80.5q86 0 154 -29t107.5 -88.5t39.5 -147.5zM392 456q-96 -29 -148.5 -79.5t-52.5 -135.5q0 -59 32.5 -95.5t97.5 -36.5q62 0 118.5 37t96.5 99.5t56 137.5l30 142q-73 -24 -230 -69zM727 1190l-83 158l-159 -158h-185
l242 248h213l143 -248h-171z" />
    <glyph glyph-name="atilde" unicode="&#xe3;" horiz-adv-x="917" 
d="M844 821q0 -41 -11 -96l-102 -483q-15 -72 -15 -129q0 -65 19 -113h-175q-9 34 -11 114q-61 -71 -126.5 -105.5t-147.5 -34.5q-86 0 -142.5 35.5t-82.5 91.5t-26 120q0 152 101.5 241.5t294.5 134.5q155 37 231 66q22 94 22 135q0 73 -40.5 110t-101.5 37
q-156 0 -207 -197l-163 13q46 164 137 244.5t245 80.5q86 0 154 -29t107.5 -88.5t39.5 -147.5zM392 456q-96 -29 -148.5 -79.5t-52.5 -135.5q0 -59 32.5 -95.5t97.5 -36.5q62 0 118.5 37t96.5 99.5t56 137.5l30 142q-73 -24 -230 -69zM765 1202q-37 0 -74.5 11t-86.5 35
q-57 29 -79 38t-42 9q-36 0 -54.5 -20.5t-34.5 -70.5h-120q14 101 67 157.5t140 56.5q43 0 78.5 -10.5t81.5 -34.5t75.5 -34.5t54.5 -10.5q35 0 56.5 23t34.5 73h115q-19 -117 -73 -169.5t-139 -52.5z" />
    <glyph glyph-name="adieresis" unicode="&#xe4;" horiz-adv-x="917" 
d="M844 821q0 -41 -11 -96l-102 -483q-15 -72 -15 -129q0 -65 19 -113h-175q-9 34 -11 114q-61 -71 -126.5 -105.5t-147.5 -34.5q-86 0 -142.5 35.5t-82.5 91.5t-26 120q0 152 101.5 241.5t294.5 134.5q155 37 231 66q22 94 22 135q0 73 -40.5 110t-101.5 37
q-156 0 -207 -197l-163 13q46 164 137 244.5t245 80.5q86 0 154 -29t107.5 -88.5t39.5 -147.5zM392 456q-96 -29 -148.5 -79.5t-52.5 -135.5q0 -59 32.5 -95.5t97.5 -36.5q62 0 118.5 37t96.5 99.5t56 137.5l30 142q-73 -24 -230 -69zM327 1225l43 206h185l-43 -206h-185z
M699 1225l43 206h187l-43 -206h-187z" />
    <glyph glyph-name="aring" unicode="&#xe5;" horiz-adv-x="917" 
d="M844 821q0 -41 -11 -96l-102 -483q-15 -72 -15 -129q0 -65 19 -113h-175q-9 34 -11 114q-61 -71 -126.5 -105.5t-147.5 -34.5q-86 0 -142.5 35.5t-82.5 91.5t-26 120q0 152 101.5 241.5t294.5 134.5q155 37 231 66q22 94 22 135q0 73 -40.5 110t-101.5 37
q-156 0 -207 -197l-163 13q46 164 137 244.5t245 80.5q86 0 154 -29t107.5 -88.5t39.5 -147.5zM392 456q-96 -29 -148.5 -79.5t-52.5 -135.5q0 -59 32.5 -95.5t97.5 -36.5q62 0 118.5 37t96.5 99.5t56 137.5l30 142q-73 -24 -230 -69zM425 1397q0 54 27.5 100t73.5 73.5
t100 27.5t100.5 -27t73.5 -73.5t27 -100.5q0 -55 -27 -101t-73.5 -73.5t-100.5 -27.5t-100.5 27.5t-73.5 73.5t-27 101zM625 1516q-31 0 -58.5 -16t-43.5 -43.5t-16 -59.5q0 -49 35 -84t84 -35q32 0 59.5 16.5t44 44t16.5 58.5q0 50 -36 84.5t-85 34.5z" />
    <glyph glyph-name="ae" unicode="&#xe6;" horiz-adv-x="1384" 
d="M1337 757q0 -62 -11.5 -122t-32.5 -145h-536l-8 -40q-27 -128 -27 -179q0 -75 36 -116t102 -41q157 0 230 232l164 -13q-67 -185 -158.5 -271.5t-236.5 -86.5q-93 0 -165.5 40t-104.5 130q-131 -170 -308 -170q-84 0 -142.5 31.5t-88 86t-29.5 123.5q0 135 82.5 226.5
t288.5 143.5q172 42 234 71l17 80q9 42 9 76q0 63 -35.5 96.5t-101.5 33.5q-76 0 -123 -45t-75 -150l-165 11q44 166 133 246.5t241 80.5q81 0 151.5 -33t95.5 -109q58 78 126.5 110t148.5 32q86 0 151 -36.5t101.5 -110.5t36.5 -182zM789 640l-2 -12h370q17 81 17 134
q0 179 -145 179q-90 0 -149.5 -78t-90.5 -223zM429 467q-134 -33 -190 -89.5t-56 -138.5q0 -56 33.5 -90t89.5 -34q115 0 181 98.5t102 272.5l8 35q-63 -28 -168 -54z" />
    <glyph glyph-name="ccedilla" unicode="&#xe7;" horiz-adv-x="922" 
d="M698 390l160 -18q-76 -203 -178.5 -299.5t-257.5 -97.5l-34 -67q67 -9 103.5 -46.5t36.5 -87.5q0 -56 -31 -102.5t-100.5 -75t-177.5 -28.5q-66 0 -115 12l37 112q39 -5 70 -5q92 0 131.5 22t39.5 62q0 34 -38.5 54.5t-110.5 20.5l73 143q-114 31 -176.5 125.5
t-62.5 245.5q0 88 22 189q53 249 181 393t319 144q155 0 242.5 -85.5t91.5 -251.5l-164 -31q-2 116 -44.5 173t-127.5 57q-117 0 -198.5 -102.5t-123.5 -301.5q-23 -106 -23 -193q0 -119 47 -178.5t136 -59.5q91 0 156.5 68t116.5 209z" />
    <glyph glyph-name="egrave" unicode="&#xe8;" horiz-adv-x="965" 
d="M917 747q0 -73 -19 -161q-3 -15 -24 -95h-626q-16 -77 -16 -143q0 -116 51 -176t143 -60q182 0 247 237l163 -15q-51 -167 -148 -263t-265 -96q-174 0 -266 98.5t-92 278.5q0 74 19 172q53 275 171.5 418.5t321.5 143.5q89 0 166 -32.5t125.5 -109t48.5 -197.5zM279 628
h464q13 65 13 111q0 101 -49.5 155.5t-139.5 54.5q-115 0 -181 -80t-107 -241zM586 1211l-180 254h214l85 -254h-119z" />
    <glyph glyph-name="eacute" unicode="&#xe9;" horiz-adv-x="965" 
d="M917 747q0 -73 -19 -161q-3 -15 -24 -95h-626q-16 -77 -16 -143q0 -116 51 -176t143 -60q182 0 247 237l163 -15q-51 -167 -148 -263t-265 -96q-174 0 -266 98.5t-92 278.5q0 74 19 172q53 275 171.5 418.5t321.5 143.5q89 0 166 -32.5t125.5 -109t48.5 -197.5zM279 628
h464q13 65 13 111q0 101 -49.5 155.5t-139.5 54.5q-115 0 -181 -80t-107 -241zM496 1211l132 254h245l-249 -254h-128z" />
    <glyph glyph-name="ecircumflex" unicode="&#xea;" horiz-adv-x="965" 
d="M917 747q0 -73 -19 -161q-3 -15 -24 -95h-626q-16 -77 -16 -143q0 -116 51 -176t143 -60q182 0 247 237l163 -15q-51 -167 -148 -263t-265 -96q-174 0 -266 98.5t-92 278.5q0 74 19 172q53 275 171.5 418.5t321.5 143.5q89 0 166 -32.5t125.5 -109t48.5 -197.5zM279 628
h464q13 65 13 111q0 101 -49.5 155.5t-139.5 54.5q-115 0 -181 -80t-107 -241zM751 1190l-83 158l-159 -158h-185l242 248h213l143 -248h-171z" />
    <glyph glyph-name="edieresis" unicode="&#xeb;" horiz-adv-x="965" 
d="M917 747q0 -73 -19 -161q-3 -15 -24 -95h-626q-16 -77 -16 -143q0 -116 51 -176t143 -60q182 0 247 237l163 -15q-51 -167 -148 -263t-265 -96q-174 0 -266 98.5t-92 278.5q0 74 19 172q53 275 171.5 418.5t321.5 143.5q89 0 166 -32.5t125.5 -109t48.5 -197.5zM279 628
h464q13 65 13 111q0 101 -49.5 155.5t-139.5 54.5q-115 0 -181 -80t-107 -241zM351 1225l43 206h185l-43 -206h-185zM723 1225l43 206h187l-43 -206h-187z" />
    <glyph glyph-name="igrave" unicode="&#xec;" horiz-adv-x="425" 
d="M15 0l226 1062h169l-226 -1062h-169zM315 1211l-180 254h214l85 -254h-119z" />
    <glyph glyph-name="iacute" unicode="&#xed;" horiz-adv-x="425" 
d="M15 0l226 1062h169l-226 -1062h-169zM225 1211l132 254h245l-249 -254h-128z" />
    <glyph glyph-name="icircumflex" unicode="&#xee;" horiz-adv-x="425" 
d="M15 0l226 1062h169l-226 -1062h-169zM480 1190l-83 158l-159 -158h-185l242 248h213l143 -248h-171z" />
    <glyph glyph-name="idieresis" unicode="&#xef;" horiz-adv-x="425" 
d="M15 0l226 1062h169l-226 -1062h-169zM80 1225l43 206h185l-43 -206h-185zM452 1225l43 206h187l-43 -206h-187z" />
    <glyph glyph-name="eth" unicode="&#xf0;" horiz-adv-x="1023" 
d="M958 730q0 -103 -23 -215q-55 -258 -178 -399t-330 -141q-109 0 -190 47t-125 136t-44 213q0 77 20 174q53 248 172 391t304 143q48 0 98.5 -11.5t85.5 -32.5q-42 108 -93 191l-272 -115l-22 93l242 101q-29 41 -58.5 76t-76.5 85h158q36 -32 57 -54.5t44 -54.5l221 93
l25 -89l-192 -81q177 -264 177 -550zM785 692q0 122 -52 185.5t-144 63.5q-123 0 -204.5 -98t-125.5 -304q-19 -88 -19 -160q0 -86 25.5 -146t69 -89.5t97.5 -29.5q246 0 334 417q19 88 19 161z" />
    <glyph glyph-name="ntilde" unicode="&#xf1;" horiz-adv-x="1026" 
d="M947 805q0 -62 -14 -126l-144 -679h-169l143 677q11 48 11 96q0 83 -40.5 126t-118.5 43q-71 0 -131 -37.5t-102 -105t-61 -155.5l-137 -644h-169l226 1062h151l-33 -154q76 91 155 134.5t168 43.5q76 0 136 -31t94.5 -94.5t34.5 -155.5zM850 1202q-37 0 -74.5 11
t-86.5 35q-57 29 -79 38t-42 9q-36 0 -54.5 -20.5t-34.5 -70.5h-120q14 101 67 157.5t140 56.5q43 0 78.5 -10.5t81.5 -34.5t75.5 -34.5t54.5 -10.5q35 0 56.5 23t34.5 73h115q-19 -117 -73 -169.5t-139 -52.5z" />
    <glyph glyph-name="ograve" unicode="&#xf2;" horiz-adv-x="1025" 
d="M72 369q0 79 16 163q46 257 173.5 406t330.5 149q176 0 270 -103.5t94 -286.5q0 -71 -15 -152q-49 -266 -176.5 -419t-328.5 -153q-174 0 -269 104t-95 292zM786 702q0 123 -51.5 185t-147.5 62q-119 0 -205 -104.5t-123 -311.5q-16 -83 -16 -155q0 -129 52.5 -197.5
t148.5 -68.5q108 0 196 105t131 340q15 81 15 145zM602 1214l-180 254h214l85 -254h-119z" />
    <glyph glyph-name="oacute" unicode="&#xf3;" horiz-adv-x="1025" 
d="M72 369q0 79 16 163q46 257 173.5 406t330.5 149q176 0 270 -103.5t94 -286.5q0 -71 -15 -152q-49 -266 -176.5 -419t-328.5 -153q-174 0 -269 104t-95 292zM786 702q0 123 -51.5 185t-147.5 62q-119 0 -205 -104.5t-123 -311.5q-16 -83 -16 -155q0 -129 52.5 -197.5
t148.5 -68.5q108 0 196 105t131 340q15 81 15 145zM512 1214l132 254h245l-249 -254h-128z" />
    <glyph glyph-name="ocircumflex" unicode="&#xf4;" horiz-adv-x="1025" 
d="M72 369q0 79 16 163q46 257 173.5 406t330.5 149q176 0 270 -103.5t94 -286.5q0 -71 -15 -152q-49 -266 -176.5 -419t-328.5 -153q-174 0 -269 104t-95 292zM786 702q0 123 -51.5 185t-147.5 62q-119 0 -205 -104.5t-123 -311.5q-16 -83 -16 -155q0 -129 52.5 -197.5
t148.5 -68.5q108 0 196 105t131 340q15 81 15 145zM767 1193l-83 158l-159 -158h-185l242 248h213l143 -248h-171z" />
    <glyph glyph-name="otilde" unicode="&#xf5;" horiz-adv-x="1025" 
d="M72 369q0 79 16 163q46 257 173.5 406t330.5 149q176 0 270 -103.5t94 -286.5q0 -71 -15 -152q-49 -266 -176.5 -419t-328.5 -153q-174 0 -269 104t-95 292zM786 702q0 123 -51.5 185t-147.5 62q-119 0 -205 -104.5t-123 -311.5q-16 -83 -16 -155q0 -129 52.5 -197.5
t148.5 -68.5q108 0 196 105t131 340q15 81 15 145zM805 1205q-37 0 -74.5 11t-86.5 35q-57 29 -79 38t-42 9q-36 0 -54.5 -20.5t-34.5 -70.5h-120q14 101 67 157.5t140 56.5q43 0 78.5 -10.5t81.5 -34.5t75.5 -34.5t54.5 -10.5q35 0 56.5 23t34.5 73h115
q-19 -117 -73 -169.5t-139 -52.5z" />
    <glyph glyph-name="odieresis" unicode="&#xf6;" horiz-adv-x="1025" 
d="M72 369q0 79 16 163q46 257 173.5 406t330.5 149q176 0 270 -103.5t94 -286.5q0 -71 -15 -152q-49 -266 -176.5 -419t-328.5 -153q-174 0 -269 104t-95 292zM786 702q0 123 -51.5 185t-147.5 62q-119 0 -205 -104.5t-123 -311.5q-16 -83 -16 -155q0 -129 52.5 -197.5
t148.5 -68.5q108 0 196 105t131 340q15 81 15 145zM367 1228l43 206h185l-43 -206h-185zM739 1228l43 206h187l-43 -206h-187z" />
    <glyph glyph-name="divide" unicode="&#xf7;" 
d="M467 930v202h168v-202h-168zM87 637v167h929v-167h-929zM467 309v202h168v-202h-168z" />
    <glyph glyph-name="oslash" unicode="&#xf8;" horiz-adv-x="1025" 
d="M956 698q0 -72 -15 -153q-49 -266 -176.5 -419t-328.5 -153q-106 0 -184 40l-92 -148l-89 57l97 154q-96 104 -96 293q0 79 16 163q46 251 170.5 403t333.5 152q109 0 187 -40l74 117l83 -53l-77 -124q48 -50 72.5 -123.5t24.5 -165.5zM243 378q0 -86 24 -145l432 686
q-45 30 -112 30q-119 0 -205 -104.5t-123 -311.5q-16 -83 -16 -155zM785 701q0 80 -21 134l-431 -691q46 -32 111 -32q108 0 196 105t131 340q14 74 14 144z" />
    <glyph glyph-name="ugrave" unicode="&#xf9;" horiz-adv-x="1026" 
d="M632 0l33 155q-75 -89 -154 -132.5t-168 -43.5q-131 0 -197 74.5t-66 206.5q0 68 16 142l141 660h169l-142 -667q-13 -58 -13 -106q0 -84 39 -126t108 -42q68 0 132.5 42t113.5 119t70 178l128 602h169l-226 -1062h-153zM616 1211l-180 254h214l85 -254h-119z" />
    <glyph glyph-name="uacute" unicode="&#xfa;" horiz-adv-x="1026" 
d="M632 0l33 155q-75 -89 -154 -132.5t-168 -43.5q-131 0 -197 74.5t-66 206.5q0 68 16 142l141 660h169l-142 -667q-13 -58 -13 -106q0 -84 39 -126t108 -42q68 0 132.5 42t113.5 119t70 178l128 602h169l-226 -1062h-153zM526 1211l132 254h245l-249 -254h-128z" />
    <glyph glyph-name="ucircumflex" unicode="&#xfb;" horiz-adv-x="1026" 
d="M632 0l33 155q-75 -89 -154 -132.5t-168 -43.5q-131 0 -197 74.5t-66 206.5q0 68 16 142l141 660h169l-142 -667q-13 -58 -13 -106q0 -84 39 -126t108 -42q68 0 132.5 42t113.5 119t70 178l128 602h169l-226 -1062h-153zM781 1190l-83 158l-159 -158h-185l242 248h213
l143 -248h-171z" />
    <glyph glyph-name="udieresis" unicode="&#xfc;" horiz-adv-x="1026" 
d="M632 0l33 155q-75 -89 -154 -132.5t-168 -43.5q-131 0 -197 74.5t-66 206.5q0 68 16 142l141 660h169l-142 -667q-13 -58 -13 -106q0 -84 39 -126t108 -42q68 0 132.5 42t113.5 119t70 178l128 602h169l-226 -1062h-153zM381 1225l43 206h185l-43 -206h-185zM753 1225
l43 206h187l-43 -206h-187z" />
    <glyph glyph-name="yacute" unicode="&#xfd;" horiz-adv-x="917" 
d="M33 -431q-43 0 -85 9t-72 25l59 144q32 -15 52.5 -20.5t42.5 -5.5q46 0 83.5 39.5t69.5 99.5l86 157l-124 1045h172l84 -811l435 811h178l-687 -1250q-56 -101 -104 -154t-92 -71t-98 -18zM472 1211l132 254h245l-249 -254h-128z" />
    <glyph glyph-name="thorn" unicode="&#xfe;" 
d="M961 724q0 -91 -21 -188q-43 -202 -105.5 -325t-150.5 -179.5t-209 -56.5q-90 0 -159.5 37.5t-105.5 111.5l-112 -529h-169l313 1467l86 404h169l-109 -508q61 65 126 96.5t145 31.5q90 0 158 -41t106 -122.5t38 -198.5zM789 710q0 117 -46 177t-130 60
q-114 0 -197.5 -98t-126.5 -300q-22 -104 -22 -184q0 -128 53 -189t144 -61q72 0 126.5 37.5t98.5 129.5t79 253q21 99 21 175z" />
    <glyph glyph-name="ydieresis" unicode="&#xff;" horiz-adv-x="917" 
d="M33 -431q-43 0 -85 9t-72 25l59 144q32 -15 52.5 -20.5t42.5 -5.5q46 0 83.5 39.5t69.5 99.5l86 157l-124 1045h172l84 -811l435 811h178l-687 -1250q-56 -101 -104 -154t-92 -71t-98 -18zM327 1225l43 206h185l-43 -206h-185zM699 1225l43 206h187l-43 -206h-187z" />
    <glyph glyph-name="glyph221" 
d="M87 637v167h930v-167h-930z" />
    <glyph glyph-name="glyph222" horiz-adv-x="981" 
d="M655 1338q-49 0 -79 -19.5t-46 -54.5t-28 -90l-24 -112h203l-28 -130h-203l-198 -932h-169l198 932h-156l28 130h156l28 134q35 160 115.5 227.5t213.5 67.5q79 0 141 -17l-60 -147q-44 11 -92 11zM839 1262l44 204h169l-44 -204h-169zM571 0l226 1062h169l-226 -1062
h-169z" />
    <glyph glyph-name="glyph223" horiz-adv-x="1000" 
d="M655 1338q-49 0 -79 -19.5t-46 -54t-28 -90.5l-24 -112h193l-28 -130h-193l-198 -932h-169l198 932h-156l28 130h156l28 134q64 295 329 295q69 0 131 -17l-60 -147q-44 11 -82 11zM590 0l312 1466h169l-312 -1466h-169z" />
    <glyph glyph-name="macron" unicode="&#xaf;" 
d="M209 1615v103h1048v-103h-1048z" />
    <glyph glyph-name="glyph225" horiz-adv-x="619" 
d="M586 997h77l-22 -104h-77l-32 -150h-121l32 150h-336l24 113l447 486h113zM465 997l65 305l-279 -305h214z" />
    <glyph glyph-name="Amacron" unicode="&#x100;" horiz-adv-x="1130" 
d="M291 423l-216 -423h-193l781 1466h205l154 -1466h-182l-35 423h-514zM734 1290l-368 -721h428zM537 1630l27 130h512l-27 -130h-512z" />
    <glyph glyph-name="amacron" unicode="&#x101;" horiz-adv-x="917" 
d="M844 821q0 -41 -11 -96l-102 -483q-15 -72 -15 -129q0 -65 19 -113h-175q-9 34 -11 114q-61 -71 -126.5 -105.5t-147.5 -34.5q-86 0 -142.5 35.5t-82.5 91.5t-26 120q0 152 101.5 241.5t294.5 134.5q155 37 231 66q22 94 22 135q0 73 -40.5 110t-101.5 37
q-156 0 -207 -197l-163 13q46 164 137 244.5t245 80.5q86 0 154 -29t107.5 -88.5t39.5 -147.5zM392 456q-96 -29 -148.5 -79.5t-52.5 -135.5q0 -59 32.5 -95.5t97.5 -36.5q62 0 118.5 37t96.5 99.5t56 137.5l30 142q-73 -24 -230 -69zM353 1235l27 130h512l-27 -130h-512z
" />
    <glyph glyph-name="Abreve" unicode="&#x102;" horiz-adv-x="1130" 
d="M291 423l-216 -423h-193l781 1466h205l154 -1466h-182l-35 423h-514zM734 1290l-368 -721h428zM824 1716q69 0 113 28.5t69 88.5h125q-35 -125 -111.5 -186t-204.5 -61q-121 0 -194 64t-78 183h125q15 -58 55.5 -87.5t100.5 -29.5z" />
    <glyph glyph-name="abreve" unicode="&#x103;" horiz-adv-x="917" 
d="M844 821q0 -41 -11 -96l-102 -483q-15 -72 -15 -129q0 -65 19 -113h-175q-9 34 -11 114q-61 -71 -126.5 -105.5t-147.5 -34.5q-86 0 -142.5 35.5t-82.5 91.5t-26 120q0 152 101.5 241.5t294.5 134.5q155 37 231 66q22 94 22 135q0 73 -40.5 110t-101.5 37
q-156 0 -207 -197l-163 13q46 164 137 244.5t245 80.5q86 0 154 -29t107.5 -88.5t39.5 -147.5zM392 456q-96 -29 -148.5 -79.5t-52.5 -135.5q0 -59 32.5 -95.5t97.5 -36.5q62 0 118.5 37t96.5 99.5t56 137.5l30 142q-73 -24 -230 -69zM617 1321q69 0 113 28.5t69 88.5h125
q-35 -125 -111.5 -186t-204.5 -61q-120 0 -193.5 63.5t-78.5 183.5h125q14 -58 55 -87.5t101 -29.5z" />
    <glyph glyph-name="Aogonek" unicode="&#x104;" horiz-adv-x="1130" 
d="M1144 -267l-23 -109q-38 -25 -83 -38.5t-93 -13.5q-57 0 -103.5 21.5t-74 61.5t-27.5 94q0 62 23 123t75 149l-33 402h-514l-216 -423h-193l781 1466h205l154 -1466h-86q-61 -110 -61 -188q0 -53 38.5 -83.5t90.5 -30.5q57 0 140 35zM734 1290l-368 -721h428z" />
    <glyph glyph-name="aogonek" unicode="&#x105;" horiz-adv-x="917" 
d="M865 -267l-23 -109q-38 -25 -83 -38.5t-93 -13.5q-57 0 -103.5 21.5t-74 61.5t-27.5 94q0 60 22.5 121t72.5 146q-5 32 -7 98q-61 -71 -126.5 -105.5t-147.5 -34.5q-86 0 -142.5 35.5t-82.5 91.5t-26 120q0 152 101.5 241.5t294.5 134.5q155 37 231 66q22 93 22 135
q0 73 -40.5 110t-101.5 37q-156 0 -207 -197l-163 13q46 164 137 244.5t245 80.5q86 0 154 -29t107.5 -88.5t39.5 -147.5q0 -41 -11 -96l-102 -483q-15 -72 -15 -129q0 -65 19 -113h-78q-61 -110 -61 -188q0 -53 38.5 -83.5t90.5 -30.5q57 0 140 35zM592 383l30 142
q-73 -24 -230 -69q-96 -29 -148.5 -79.5t-52.5 -135.5q0 -59 32.5 -95.5t97.5 -36.5q62 0 118.5 37t96.5 99.5t56 137.5z" />
    <glyph glyph-name="Cacute" unicode="&#x106;" horiz-adv-x="1140" 
d="M1164 1062l-177 -40q-25 311 -245 311q-111 0 -190.5 -67.5t-135 -202t-97.5 -346.5q-34 -145 -34 -256q0 -162 67 -245t186 -83q89 0 154 41t113 122.5t88 211.5l162 -44q-53 -169 -122 -275.5t-168 -160t-241 -53.5q-122 0 -215 51.5t-146.5 159.5t-53.5 273
q0 130 33 282q49 248 126 413t194.5 251t284.5 86q192 0 299.5 -108t117.5 -321zM687 1606l132 254h245l-249 -254h-128z" />
    <glyph glyph-name="cacute" unicode="&#x107;" horiz-adv-x="922" 
d="M923 749l-164 -31q-2 116 -44.5 173t-127.5 57q-117 0 -198.5 -102.5t-123.5 -301.5q-23 -106 -23 -193q0 -119 47 -178.5t136 -59.5q91 0 156.5 68t116.5 209l160 -18q-76 -204 -179.5 -300.5t-259.5 -96.5q-165 0 -258.5 99t-93.5 285q0 89 22 190q53 249 181 393
t319 144q155 0 242.5 -85.5t91.5 -251.5zM516 1211l132 254h245l-249 -254h-128z" />
    <glyph glyph-name="Ccaron" unicode="&#x10c;" horiz-adv-x="1140" 
d="M1164 1062l-177 -40q-25 311 -245 311q-111 0 -190.5 -67.5t-135 -202t-97.5 -346.5q-34 -145 -34 -256q0 -162 67 -245t186 -83q89 0 154 41t113 122.5t88 211.5l162 -44q-53 -169 -122 -275.5t-168 -160t-241 -53.5q-122 0 -215 51.5t-146.5 159.5t-53.5 273
q0 130 33 282q49 248 126 413t194.5 251t284.5 86q192 0 299.5 -108t117.5 -321zM944 1833h182l-242 -248h-213l-143 248h174l84 -158z" />
    <glyph glyph-name="ccaron" unicode="&#x10d;" horiz-adv-x="922" 
d="M923 749l-164 -31q-2 116 -44.5 173t-127.5 57q-117 0 -198.5 -102.5t-123.5 -301.5q-23 -106 -23 -193q0 -119 47 -178.5t136 -59.5q91 0 156.5 68t116.5 209l160 -18q-76 -204 -179.5 -300.5t-259.5 -96.5q-165 0 -258.5 99t-93.5 285q0 89 22 190q53 249 181 393
t319 144q155 0 242.5 -85.5t91.5 -251.5zM813 1438h182l-242 -248h-213l-143 248h174l84 -158z" />
    <glyph glyph-name="Dcaron" unicode="&#x10e;" horiz-adv-x="1261" 
d="M1232 968q0 -104 -26 -227q-60 -282 -136 -436.5t-220 -229.5t-400 -75h-401l312 1466h281q287 0 438.5 -124t151.5 -374zM262 155h204q180 0 288.5 67t166.5 188.5t100 318.5q27 126 27 221q0 192 -105.5 273t-316.5 81h-120zM1000 1833h182l-242 -248h-213l-143 248
h174l84 -158z" />
    <glyph glyph-name="dcaron" unicode="&#x10f;" horiz-adv-x="1198" 
d="M633 0l28 133q-69 -80 -140.5 -119t-151.5 -39q-146 0 -227 90.5t-81 264.5q0 79 20 184q110 572 470 572q96 0 160 -38.5t102 -111.5l113 530h169l-312 -1466h-150zM256 526q-20 -105 -20 -179q0 -117 44.5 -176t130.5 -59q67 0 129.5 41.5t114 131.5t80.5 227
q24 110 24 187q0 124 -52 185t-136 61q-236 0 -315 -419zM1139 934l-37 74q128 65 162 229l2 7h-97l47 222h201l-49 -230q-22 -103 -80 -181t-149 -121z" />
    <glyph glyph-name="Dcroat" unicode="&#x110;" horiz-adv-x="1261" 
d="M1232 968q0 -104 -26 -227q-60 -282 -136 -436.5t-220 -229.5t-400 -75h-401l143 672h-161l26 120h161l143 674h290q259 0 420 -116t161 -382zM1048 950q0 192 -105.5 273t-316.5 81h-120l-109 -512h319l-26 -120h-318l-110 -517h204q180 0 288.5 67t166.5 188.5
t100 318.5q27 126 27 221z" />
    <glyph glyph-name="dcroat" unicode="&#x111;" horiz-adv-x="1025" 
d="M1036 1188l-253 -1188h-150l28 133q-69 -80 -140.5 -119t-151.5 -39q-146 0 -227 90.5t-81 264.5q0 79 20 184q110 572 470 572q96 0 160 -38.5t102 -111.5l54 252h-308l26 121h308l33 157h169l-33 -157h129l-26 -121h-129zM759 699q0 130 -54 188t-134 58
q-236 0 -315 -419q-20 -105 -20 -179q0 -117 44.5 -176t130.5 -59q67 0 129.5 41.5t114 131.5t80.5 227q24 110 24 187z" />
    <glyph glyph-name="Emacron" unicode="&#x112;" horiz-adv-x="1029" 
d="M507 1308l-101 -474h504l-33 -158h-504l-110 -518h596l-34 -158h-776l312 1466h748l-34 -158h-568zM519 1630l27 130h512l-27 -130h-512z" />
    <glyph glyph-name="emacron" unicode="&#x113;" horiz-adv-x="965" 
d="M917 747q0 -73 -19 -161q-3 -15 -24 -95h-626q-16 -77 -16 -143q0 -116 51 -176t143 -60q182 0 247 237l163 -15q-51 -167 -148 -263t-265 -96q-174 0 -266 98.5t-92 278.5q0 74 19 172q53 275 171.5 418.5t321.5 143.5q89 0 166 -32.5t125.5 -109t48.5 -197.5zM279 628
h464q13 65 13 111q0 101 -49.5 155.5t-139.5 54.5q-115 0 -181 -80t-107 -241zM377 1235l27 130h512l-27 -130h-512z" />
    <glyph glyph-name="Edotaccent" unicode="&#x116;" horiz-adv-x="1029" 
d="M507 1308l-101 -474h504l-33 -158h-504l-110 -518h596l-34 -158h-776l312 1466h748l-34 -158h-568zM670 1596l45 209h207l-45 -209h-207z" />
    <glyph glyph-name="edotaccent" unicode="&#x117;" horiz-adv-x="965" 
d="M917 747q0 -73 -19 -161q-3 -15 -24 -95h-626q-16 -77 -16 -143q0 -116 51 -176t143 -60q182 0 247 237l163 -15q-51 -167 -148 -263t-265 -96q-174 0 -266 98.5t-92 278.5q0 74 19 172q53 275 171.5 418.5t321.5 143.5q89 0 166 -32.5t125.5 -109t48.5 -197.5zM279 628
h464q13 65 13 111q0 101 -49.5 155.5t-139.5 54.5q-115 0 -181 -80t-107 -241zM521 1201l45 209h207l-45 -209h-207z" />
    <glyph glyph-name="Eogonek" unicode="&#x118;" horiz-adv-x="1029" 
d="M406 834h504l-33 -158h-504l-110 -518h596l-34 -158h-156q-61 -110 -61 -188q0 -53 38.5 -83.5t90.5 -30.5q57 0 140 35l-23 -109q-38 -25 -83 -38.5t-93 -13.5q-57 0 -103.5 21.5t-74 61.5t-27.5 94q0 58 20.5 115.5t65.5 135.5h-510l312 1466h748l-34 -158h-568z" />
    <glyph glyph-name="eogonek" unicode="&#x119;" horiz-adv-x="965" 
d="M917 747q0 -73 -19 -161q-3 -15 -24 -95h-626q-16 -77 -16 -143q0 -116 51 -176t143 -60q182 0 247 237l163 -15q-39 -126 -102.5 -212.5t-163.5 -122.5q-61 -107 -61 -187q0 -53 38.5 -83.5t90.5 -30.5q57 0 140 35l-23 -109q-38 -25 -83 -38.5t-93 -13.5
q-57 0 -103.5 21.5t-74 61.5t-27.5 94q0 53 17.5 106t54.5 121l-23 -1q-174 0 -266 98.5t-92 278.5q0 74 19 172q53 275 172.5 418.5t320.5 143.5q89 0 165 -31.5t125.5 -107t49.5 -200.5zM756 739q0 101 -49.5 155.5t-139.5 54.5q-115 0 -181 -80t-107 -241h464
q13 65 13 111z" />
    <glyph glyph-name="Ecaron" unicode="&#x11a;" horiz-adv-x="1029" 
d="M507 1308l-101 -474h504l-33 -158h-504l-110 -518h596l-34 -158h-776l312 1466h748l-34 -158h-568zM926 1833h182l-242 -248h-213l-143 248h174l84 -158z" />
    <glyph glyph-name="ecaron" unicode="&#x11b;" horiz-adv-x="965" 
d="M917 747q0 -73 -19 -161q-3 -15 -24 -95h-626q-16 -77 -16 -143q0 -116 51 -176t143 -60q182 0 247 237l163 -15q-51 -167 -148 -263t-265 -96q-174 0 -266 98.5t-92 278.5q0 74 19 172q53 275 171.5 418.5t321.5 143.5q89 0 166 -32.5t125.5 -109t48.5 -197.5zM279 628
h464q13 65 13 111q0 101 -49.5 155.5t-139.5 54.5q-115 0 -181 -80t-107 -241zM793 1438h182l-242 -248h-213l-143 248h174l84 -158z" />
    <glyph glyph-name="Gbreve" unicode="&#x11e;" horiz-adv-x="1263" 
d="M1233 1054l-175 -47q-1 164 -67.5 245.5t-198.5 81.5q-187 0 -301 -146.5t-167 -445.5q-23 -129 -23 -230q0 -182 74.5 -280.5t229.5 -98.5q85 0 156 28t137 86l73 347h-295l34 158h475l-122 -575q-110 -104 -223 -153t-259 -49q-144 0 -247.5 61.5t-158.5 182t-55 293.5
q0 122 26 256q66 349 228.5 536t417.5 187q130 0 229.5 -47.5t155.5 -145.5t56 -244zM891 1716q69 0 113 28.5t69 88.5h125q-35 -125 -111.5 -186t-204.5 -61q-121 0 -194 64t-78 183h125q15 -58 55.5 -87.5t100.5 -29.5z" />
    <glyph glyph-name="gbreve" unicode="&#x11f;" horiz-adv-x="1023" 
d="M831 919l30 143h147l-238 -1118q-24 -114 -72.5 -196t-140.5 -130.5t-236 -48.5q-164 0 -257.5 61.5t-93.5 179.5q0 30 8 70l5 23l170 -30l-5 -25q-3 -15 -3 -28q0 -55 46.5 -84t127.5 -29q129 0 194.5 64t93.5 198l35 166q-65 -69 -130.5 -102t-147.5 -33
q-142 0 -219 91t-77 263q0 101 24 211q49 250 165 385.5t301 135.5q92 0 164 -42.5t109 -124.5zM262 553q-24 -111 -24 -193q0 -110 42 -166t122 -56q119 0 209.5 106t136.5 325q16 76 16 139q0 122 -55.5 181.5t-140.5 59.5q-108 0 -184.5 -93t-121.5 -303zM651 1321
q69 0 113 28.5t69 88.5h125q-35 -125 -111.5 -186t-204.5 -61q-120 0 -193.5 63.5t-78.5 183.5h125q14 -58 55 -87.5t101 -29.5z" />
    <glyph glyph-name="Gcommaaccent" unicode="&#x122;" horiz-adv-x="1263" 
d="M1233 1054l-175 -47q-1 164 -67.5 245.5t-198.5 81.5q-187 0 -301 -146.5t-167 -445.5q-23 -129 -23 -230q0 -182 74.5 -280.5t229.5 -98.5q85 0 156 28t137 86l73 347h-295l34 158h475l-122 -575q-110 -104 -223 -153t-259 -49q-144 0 -247.5 61.5t-158.5 182t-55 293.5
q0 122 26 256q66 349 228.5 536t417.5 187q130 0 229.5 -47.5t155.5 -145.5t56 -244zM333 -466l4 90q46 0 68.5 7.5t32.5 24t17 50.5h-97l43 206h201l-46 -220q-17 -82 -70.5 -120t-152.5 -38z" />
    <glyph glyph-name="gcommaaccent" unicode="&#x123;" horiz-adv-x="1023" 
d="M831 919l30 143h147l-238 -1118q-24 -114 -72.5 -196t-140.5 -130.5t-236 -48.5q-164 0 -257.5 61.5t-93.5 179.5q0 30 8 70l5 23l170 -30l-5 -25q-3 -15 -3 -28q0 -55 46.5 -84t127.5 -29q129 0 194.5 64t93.5 198l35 166q-65 -69 -130.5 -102t-147.5 -33
q-142 0 -219 91t-77 263q0 101 24 211q49 250 165 385.5t301 135.5q92 0 164 -42.5t109 -124.5zM262 553q-24 -111 -24 -193q0 -110 42 -166t122 -56q119 0 209.5 106t136.5 325q16 76 16 139q0 122 -55.5 181.5t-140.5 59.5q-108 0 -184.5 -93t-121.5 -303zM794 1540
l-4 -90q-40 0 -63 -7.5t-35 -25t-19 -49.5h97l-44 -206h-201l45 212q17 79 70 122t154 44z" />
    <glyph glyph-name="Imacron" unicode="&#x12a;" horiz-adv-x="504" 
d="M49 0l312 1466h180l-312 -1466h-180zM224 1630l27 130h512l-27 -130h-512z" />
    <glyph glyph-name="imacron" unicode="&#x12b;" horiz-adv-x="425" 
d="M15 0l226 1062h169l-226 -1062h-169zM106 1235l27 130h512l-27 -130h-512z" />
    <glyph glyph-name="Iogonek" unicode="&#x12e;" horiz-adv-x="504" 
d="M226 -302q57 0 140 35l-23 -109q-38 -25 -83 -38.5t-93 -13.5q-57 0 -103.5 21.5t-74 61.5t-27.5 94q0 59 21 117.5t67 136.5l311 1463h180l-312 -1466h-71q-61 -110 -61 -188q0 -53 38.5 -83.5t90.5 -30.5z" />
    <glyph glyph-name="iogonek" unicode="&#x12f;" horiz-adv-x="425" 
d="M452 1262h-169l44 204h169zM63 -188q0 -53 38.5 -83.5t90.5 -30.5q57 0 140 35l-23 -109q-38 -25 -83 -38.5t-93 -13.5q-57 0 -103.5 21.5t-74 61.5t-27.5 94q0 59 21 117.5t67 136.5l225 1059h169l-226 -1062h-60q-61 -110 -61 -188z" />
    <glyph glyph-name="Idotaccent" unicode="&#x130;" horiz-adv-x="504" 
d="M49 0l312 1466h180l-312 -1466h-180zM375 1596l45 209h207l-45 -209h-207z" />
    <glyph glyph-name="dotlessi" unicode="&#x131;" horiz-adv-x="425" 
d="M15 0l226 1062h169l-226 -1062h-169z" />
    <glyph glyph-name="Kcommaaccent" unicode="&#x136;" horiz-adv-x="1140" 
d="M1031 0h-193l-245 764l-256 -255l-108 -509h-180l312 1466h180l-151 -708l688 708h219l-576 -574zM291 -466l4 90q46 0 68.5 7.5t32.5 24t17 50.5h-97l43 206h201l-46 -220q-17 -82 -70.5 -120t-152.5 -38z" />
    <glyph glyph-name="kcommaaccent" unicode="&#x137;" horiz-adv-x="912" 
d="M780 0h-179l-184 566l-138 -122l-95 -444h-169l312 1466h169l-173 -812l447 408h214l-440 -385zM187 -466l4 90q46 0 68.5 7.5t32.5 24t17 50.5h-97l43 206h201l-46 -220q-17 -82 -70.5 -120t-152.5 -38z" />
    <glyph glyph-name="Lacute" unicode="&#x139;" horiz-adv-x="1027" 
d="M886 156l-33 -156h-804l312 1466h180l-279 -1310h624zM636 1606l132 254h245l-249 -254h-128z" />
    <glyph glyph-name="lacute" unicode="&#x13a;" horiz-adv-x="425" 
d="M15 0l312 1466h169l-312 -1466h-169zM312 1615l132 254h245l-249 -254h-128z" />
    <glyph glyph-name="Lcommaaccent" unicode="&#x13b;" horiz-adv-x="1027" 
d="M886 156l-33 -156h-804l312 1466h180l-279 -1310h624zM263 -466l4 90q46 0 68.5 7.5t32.5 24t17 50.5h-97l43 206h201l-46 -220q-17 -82 -70.5 -120t-152.5 -38z" />
    <glyph glyph-name="lcommaaccent" unicode="&#x13c;" horiz-adv-x="425" 
d="M15 0l312 1466h169l-312 -1466h-169zM-86 -466l4 90q46 0 68.5 7.5t32.5 24t17 50.5h-97l43 206h201l-46 -220q-17 -82 -70.5 -120t-152.5 -38z" />
    <glyph glyph-name="Lcaron" unicode="&#x13d;" horiz-adv-x="1027" 
d="M886 156l-33 -156h-804l312 1466h180l-279 -1310h624zM705 934l-37 74q128 65 162 229l2 7h-97l47 222h201l-49 -230q-22 -103 -80 -181t-149 -121z" />
    <glyph glyph-name="lcaron" unicode="&#x13e;" horiz-adv-x="598" 
d="M15 0l312 1466h169l-312 -1466h-169zM539 934l-37 74q128 65 162 229l2 7h-97l47 222h201l-49 -230q-22 -103 -80 -181t-149 -121z" />
    <glyph glyph-name="Lslash" unicode="&#x141;" horiz-adv-x="1027" 
d="M853 0h-804l123 576l-175 -134l35 176l178 140l151 708h180l-116 -543l333 255l-36 -179l-335 -258l-125 -585h624z" />
    <glyph glyph-name="lslash" unicode="&#x142;" horiz-adv-x="453" 
d="M339 728l-155 -728h-169l122 572l-153 -118l29 139l154 122l160 751h169l-127 -596l186 142l-29 -139z" />
    <glyph glyph-name="Nacute" unicode="&#x143;" horiz-adv-x="1261" 
d="M802 0l-348 1214h-2l-231 -1214h-172l312 1466h180l349 -1211h2l233 1211h173l-312 -1466h-184zM753 1606l132 254h245l-249 -254h-128z" />
    <glyph glyph-name="nacute" unicode="&#x144;" horiz-adv-x="1026" 
d="M947 805q0 -62 -14 -126l-144 -679h-169l143 677q11 48 11 96q0 83 -40.5 126t-118.5 43q-71 0 -131 -37.5t-102 -105t-61 -155.5l-137 -644h-169l226 1062h151l-33 -154q76 91 155 134.5t168 43.5q76 0 136 -31t94.5 -94.5t34.5 -155.5zM557 1211l132 254h245l-249 -254
h-128z" />
    <glyph glyph-name="Ncommaaccent" unicode="&#x145;" horiz-adv-x="1261" 
d="M802 0l-348 1214h-2l-231 -1214h-172l312 1466h180l349 -1211h2l233 1211h173l-312 -1466h-184zM332 -466l4 90q46 0 68.5 7.5t32.5 24t17 50.5h-97l43 206h201l-46 -220q-17 -82 -70.5 -120t-152.5 -38z" />
    <glyph glyph-name="ncommaaccent" unicode="&#x146;" horiz-adv-x="1026" 
d="M947 805q0 -62 -14 -126l-144 -679h-169l143 677q11 48 11 96q0 83 -40.5 126t-118.5 43q-71 0 -131 -37.5t-102 -105t-61 -155.5l-137 -644h-169l226 1062h151l-33 -154q76 91 155 134.5t168 43.5q76 0 136 -31t94.5 -94.5t34.5 -155.5zM215 -466l4 90q46 0 68.5 7.5
t32.5 24t17 50.5h-97l43 206h201l-46 -220q-17 -82 -70.5 -120t-152.5 -38z" />
    <glyph glyph-name="Ncaron" unicode="&#x147;" horiz-adv-x="1261" 
d="M802 0l-348 1214h-2l-231 -1214h-172l312 1466h180l349 -1211h2l233 1211h173l-312 -1466h-184zM1010 1833h182l-242 -248h-213l-143 248h174l84 -158z" />
    <glyph glyph-name="ncaron" unicode="&#x148;" horiz-adv-x="1026" 
d="M947 805q0 -62 -14 -126l-144 -679h-169l143 677q11 48 11 96q0 83 -40.5 126t-118.5 43q-71 0 -131 -37.5t-102 -105t-61 -155.5l-137 -644h-169l226 1062h151l-33 -154q76 91 155 134.5t168 43.5q76 0 136 -31t94.5 -94.5t34.5 -155.5zM854 1438h182l-242 -248h-213
l-143 248h174l84 -158z" />
    <glyph glyph-name="Omacron" unicode="&#x14c;" horiz-adv-x="1259" 
d="M1230 993q0 -108 -23 -242q-67 -371 -220 -575.5t-419 -204.5q-209 0 -330.5 121.5t-121.5 377.5q0 119 28 263q134 758 639 758q209 0 328 -125.5t119 -372.5zM320 709q-25 -131 -25 -233q0 -178 71.5 -261.5t201.5 -83.5q344 0 453 604q28 141 28 253q0 174 -69.5 261
t-202.5 87q-190 0 -296 -159.5t-161 -467.5zM582 1630l27 130h512l-27 -130h-512z" />
    <glyph glyph-name="omacron" unicode="&#x14d;" horiz-adv-x="1025" 
d="M72 369q0 79 16 163q46 257 173.5 406t330.5 149q176 0 270 -103.5t94 -286.5q0 -71 -15 -152q-49 -266 -176.5 -419t-328.5 -153q-174 0 -269 104t-95 292zM786 702q0 123 -51.5 185t-147.5 62q-119 0 -205 -104.5t-123 -311.5q-16 -83 -16 -155q0 -129 52.5 -197.5
t148.5 -68.5q108 0 196 105t131 340q15 81 15 145zM393 1238l27 130h512l-27 -130h-512z" />
    <glyph glyph-name="Ohungarumlaut" unicode="&#x150;" horiz-adv-x="1259" 
d="M1230 993q0 -108 -23 -242q-67 -371 -220 -575.5t-419 -204.5q-209 0 -330.5 121.5t-121.5 377.5q0 119 28 263q134 758 639 758q209 0 328 -125.5t119 -372.5zM320 709q-25 -131 -25 -233q0 -178 71.5 -261.5t201.5 -83.5q344 0 453 604q28 141 28 253q0 174 -69.5 261
t-202.5 87q-190 0 -296 -159.5t-161 -467.5zM596 1583l159 278h226l-245 -278h-140zM947 1583l154 278h228l-241 -278h-141z" />
    <glyph glyph-name="ohungarumlaut" unicode="&#x151;" horiz-adv-x="1025" 
d="M72 369q0 79 16 163q46 257 173.5 406t330.5 149q176 0 270 -103.5t94 -286.5q0 -71 -15 -152q-49 -266 -176.5 -419t-328.5 -153q-174 0 -269 104t-95 292zM786 702q0 123 -51.5 185t-147.5 62q-119 0 -205 -104.5t-123 -311.5q-16 -83 -16 -155q0 -129 52.5 -197.5
t148.5 -68.5q108 0 196 105t131 340q15 81 15 145zM372 1191l159 278h226l-245 -278h-140zM723 1191l154 278h228l-241 -278h-141z" />
    <glyph glyph-name="Racute" unicode="&#x154;" horiz-adv-x="1176" 
d="M1173 1116q0 -100 -43 -187t-134 -150t-228 -88q54 -23 96.5 -87.5t65.5 -169.5l113 -434h-185l-105 409q-30 112 -64.5 163t-92.5 68t-172 17h-55l-140 -657h-180l312 1466h368q146 0 246 -47t149 -126.5t49 -176.5zM984 1093q0 106 -74.5 162t-197.5 56h-204l-106 -499
h206q137 0 221 39.5t119.5 102.5t35.5 139zM705 1606l132 254h245l-249 -254h-128z" />
    <glyph glyph-name="racute" unicode="&#x155;" horiz-adv-x="684" 
d="M578 909q-99 0 -171 -98.5t-111 -283.5l-112 -527h-169l226 1062h147l-38 -180q77 114 141.5 159t141.5 45q49 0 89.5 -16t77.5 -47l-93 -157q-61 43 -129 43zM416 1211l132 254h245l-249 -254h-128z" />
    <glyph glyph-name="Rcommaaccent" unicode="&#x156;" horiz-adv-x="1176" 
d="M1173 1116q0 -100 -43 -187t-134 -150t-228 -88q54 -23 96.5 -87.5t65.5 -169.5l113 -434h-185l-105 409q-30 112 -64.5 163t-92.5 68t-172 17h-55l-140 -657h-180l312 1466h368q146 0 246 -47t149 -126.5t49 -176.5zM984 1093q0 106 -74.5 162t-197.5 56h-204l-106 -499
h206q137 0 221 39.5t119.5 102.5t35.5 139zM347 -466l4 90q46 0 68.5 7.5t32.5 24t17 50.5h-97l43 206h201l-46 -220q-17 -82 -70.5 -120t-152.5 -38z" />
    <glyph glyph-name="rcommaaccent" unicode="&#x157;" horiz-adv-x="684" 
d="M578 909q-99 0 -171 -98.5t-111 -283.5l-112 -527h-169l226 1062h147l-38 -180q77 114 141.5 159t141.5 45q49 0 89.5 -16t77.5 -47l-93 -157q-61 43 -129 43zM34 -466l4 90q46 0 68.5 7.5t32.5 24t17 50.5h-97l43 206h201l-46 -220q-17 -82 -70.5 -120t-152.5 -38z" />
    <glyph glyph-name="Rcaron" unicode="&#x158;" horiz-adv-x="1176" 
d="M1173 1116q0 -100 -43 -187t-134 -150t-228 -88q54 -23 96.5 -87.5t65.5 -169.5l113 -434h-185l-105 409q-30 112 -64.5 163t-92.5 68t-172 17h-55l-140 -657h-180l312 1466h368q146 0 246 -47t149 -126.5t49 -176.5zM984 1093q0 106 -74.5 162t-197.5 56h-204l-106 -499
h206q137 0 221 39.5t119.5 102.5t35.5 139zM962 1833h182l-242 -248h-213l-143 248h174l84 -158z" />
    <glyph glyph-name="rcaron" unicode="&#x159;" horiz-adv-x="684" 
d="M578 909q-99 0 -171 -98.5t-111 -283.5l-112 -527h-169l226 1062h147l-38 -180q77 114 141.5 159t141.5 45q49 0 89.5 -16t77.5 -47l-93 -157q-61 43 -129 43zM713 1438h182l-242 -248h-213l-143 248h174l84 -158z" />
    <glyph glyph-name="Sacute" unicode="&#x15a;" horiz-adv-x="1131" 
d="M940 1114q0 114 -56.5 168t-175.5 54q-88 0 -150 -33t-93.5 -88.5t-31.5 -120.5q0 -63 34 -111t85 -83.5t139 -84.5q106 -59 171.5 -107t111.5 -121t46 -174q0 -105 -53 -205.5t-167.5 -166.5t-288.5 -66q-131 0 -231.5 42t-157.5 126t-57 206q0 49 8 111l174 15
q-6 -45 -6 -84q0 -261 285 -261q102 0 173 39.5t106.5 100.5t35.5 123q0 68 -35 119t-86 86.5t-141 86.5q-105 58 -169 104.5t-109 119.5t-45 175q0 101 51 194.5t156.5 153t259.5 59.5q113 0 203.5 -38.5t142.5 -113t52 -177.5q0 -52 -10 -106l-175 -14q4 35 4 72z
M662 1606l132 254h245l-249 -254h-128z" />
    <glyph glyph-name="sacute" unicode="&#x15b;" horiz-adv-x="920" 
d="M514 947q-64 0 -106 -20.5t-61.5 -53t-19.5 -68.5q0 -38 24 -67.5t59.5 -51.5t99.5 -55q89 -46 144.5 -84t95.5 -98.5t40 -146.5q0 -83 -38.5 -157t-126 -122t-227.5 -48q-174 0 -278 81t-107 236l169 25q-1 -69 29.5 -115t81 -68t108.5 -22q73 0 122 26.5t72 66.5t23 82
q0 46 -27 81t-66.5 60.5t-109.5 63.5q-83 43 -134.5 78t-87.5 88.5t-36 127.5q0 78 39 146t120 111t201 43q169 0 262 -67t93 -187q0 -24 -1 -37l-172 -15q3 79 -43.5 123t-141.5 44zM456 1211l132 254h245l-249 -254h-128z" />
    <glyph glyph-name="Scedilla" unicode="&#x15e;" horiz-adv-x="1131" 
d="M940 1114q0 114 -56.5 168t-175.5 54q-88 0 -150 -33t-93.5 -88.5t-31.5 -120.5q0 -63 34 -111t85 -83.5t139 -84.5q106 -59 171.5 -107t111.5 -121t46 -174q0 -105 -53 -205.5t-167.5 -166.5t-288.5 -66h-15l-34 -67q67 -9 103.5 -46.5t36.5 -87.5q0 -56 -31 -102.5
t-100.5 -75t-177.5 -28.5q-66 0 -115 12l37 112q39 -5 70 -5q92 0 131.5 22t39.5 62q0 34 -38.5 54.5t-110.5 20.5l73 141q-146 29 -230.5 121t-84.5 241q0 49 8 111l174 15q-6 -45 -6 -84q0 -261 285 -261q102 0 173 39.5t106.5 100.5t35.5 123q0 68 -35 119t-86 86.5
t-141 86.5q-105 58 -169 104.5t-109 119.5t-45 175q0 101 51 194.5t156.5 153t259.5 59.5q113 0 203.5 -38.5t142.5 -113t52 -177.5q0 -52 -10 -106l-175 -14q4 35 4 72z" />
    <glyph glyph-name="scedilla" unicode="&#x15f;" horiz-adv-x="920" 
d="M514 947q-64 0 -106 -20.5t-61.5 -53t-19.5 -68.5q0 -38 24 -67.5t59.5 -51.5t99.5 -55q89 -46 144.5 -84t95.5 -98.5t40 -146.5q0 -83 -38.5 -157t-126 -122t-227.5 -48h-6l-34 -67q67 -9 103.5 -46.5t36.5 -87.5q0 -56 -31 -102.5t-100.5 -75t-177.5 -28.5
q-66 0 -115 12l37 112q39 -5 70 -5q92 0 131.5 22t39.5 62q0 34 -38.5 54.5t-110.5 20.5l72 141q-121 25 -190.5 102.5t-71.5 202.5l169 25q-1 -69 29.5 -115t81 -68t108.5 -22q73 0 122 26.5t72 66.5t23 82q0 46 -27 81t-66.5 60.5t-109.5 63.5q-83 43 -134.5 78
t-87.5 88.5t-36 127.5q0 78 39 146t120 111t201 43q169 0 262 -67t93 -187q0 -24 -1 -37l-172 -15q3 79 -43.5 123t-141.5 44z" />
    <glyph glyph-name="Tcommaaccent" unicode="&#x162;" horiz-adv-x="1025" 
d="M1143 1309h-378l-278 -1309h-35l-46 -92q67 -9 103.5 -46.5t36.5 -87.5q0 -56 -31 -102.5t-100.5 -75t-177.5 -28.5q-66 0 -115 12l37 112q39 -5 70 -5q92 0 131.5 22t39.5 62q0 34 -38.5 54.5t-110.5 20.5l79 154h-23l278 1309h-373l34 157h931z" />
    <glyph glyph-name="tcommaaccent" unicode="&#x163;" horiz-adv-x="564" 
d="M272 211q0 -41 20.5 -59.5t65.5 -18.5q24 0 69 9l-6 -142q-65 -17 -123 -17h-18l-38 -75q67 -9 103.5 -46.5t36.5 -87.5q0 -56 -31 -102.5t-100.5 -75t-177.5 -28.5q-66 0 -115 12l37 112q39 -5 70 -5q92 0 131.5 22t39.5 62q0 34 -38.5 54.5t-110.5 20.5l85 166
q-75 47 -75 156q0 41 10 88l143 676h-125l28 130h125l56 264l192 108l-79 -372h170l-28 -130h-170l-138 -650q-9 -42 -9 -71z" />
    <glyph glyph-name="Tcaron" unicode="&#x164;" horiz-adv-x="1025" 
d="M765 1309l-278 -1309h-180l278 1309h-373l34 157h931l-34 -157h-378zM892 1833h182l-242 -248h-213l-143 248h174l84 -158z" />
    <glyph glyph-name="tcaron" unicode="&#x165;" horiz-adv-x="741" 
d="M617 1062l-28 -130h-170l-138 -650q-9 -42 -9 -71q0 -41 20.5 -59.5t65.5 -18.5q24 0 69 9l-6 -142q-65 -17 -123 -17q-96 0 -148.5 46t-52.5 139q0 42 10 88l143 676h-125l28 130h125l56 264l192 108l-79 -372h170zM682 934l-37 74q128 65 162 229l2 7h-97l47 222h201
l-49 -230q-22 -103 -80 -181t-149 -121z" />
    <glyph glyph-name="glyph292" horiz-adv-x="1025" 
d="M765 1309l-278 -1309h-180l278 1309h-373l34 157h931l-34 -157h-378zM211 -466l4 90q46 0 68.5 7.5t32.5 24t17 50.5h-97l43 206h201l-46 -220q-17 -82 -70.5 -120t-152.5 -38z" />
    <glyph glyph-name="glyph293" horiz-adv-x="564" 
d="M617 1062l-28 -130h-170l-138 -650q-9 -42 -9 -71q0 -41 20.5 -59.5t65.5 -18.5q24 0 69 9l-6 -142q-65 -17 -123 -17q-96 0 -148.5 46t-52.5 139q0 42 10 88l143 676h-125l28 130h125l56 264l192 108l-79 -372h170zM47 -466l4 90q46 0 68.5 7.5t32.5 24t17 50.5h-97
l43 206h201l-46 -220q-17 -82 -70.5 -120t-152.5 -38z" />
    <glyph glyph-name="Umacron" unicode="&#x16a;" horiz-adv-x="1259" 
d="M569 -25q-211 0 -314 107t-103 303q0 96 24 210l186 871h180l-187 -879q-23 -106 -23 -192q0 -262 237 -262q106 0 172 44.5t107 136.5t75 251l192 901h180l-192 -900q-42 -202 -95 -324.5t-157 -194.5t-282 -72zM602 1630l27 130h512l-27 -130h-512z" />
    <glyph glyph-name="umacron" unicode="&#x16b;" horiz-adv-x="1026" 
d="M632 0l33 155q-75 -89 -154 -132.5t-168 -43.5q-131 0 -197 74.5t-66 206.5q0 68 16 142l141 660h169l-142 -667q-13 -58 -13 -106q0 -84 39 -126t108 -42q68 0 132.5 42t113.5 119t70 178l128 602h169l-226 -1062h-153zM407 1235l27 130h512l-27 -130h-512z" />
    <glyph glyph-name="Uring" unicode="&#x16e;" horiz-adv-x="1259" 
d="M569 -25q-211 0 -314 107t-103 303q0 96 24 210l186 871h180l-187 -879q-23 -106 -23 -192q0 -262 237 -262q106 0 172 44.5t107 136.5t75 251l192 901h180l-192 -900q-42 -202 -95 -324.5t-157 -194.5t-282 -72zM662 1767q0 59 30 110t81 81t110 30t110 -30t81 -81
t30 -110q0 -60 -30 -111t-80.5 -81t-110.5 -30t-110.5 30t-80.5 81t-30 111zM882 1898q-34 0 -64 -18t-48 -48t-18 -65t18 -65.5t48 -48t65 -17.5t65.5 18t48.5 48t18 65q0 36 -18 66t-48.5 47.5t-66.5 17.5z" />
    <glyph glyph-name="uring" unicode="&#x16f;" horiz-adv-x="1026" 
d="M632 0l33 155q-75 -89 -154 -132.5t-168 -43.5q-131 0 -197 74.5t-66 206.5q0 68 16 142l141 660h169l-142 -667q-13 -58 -13 -106q0 -84 39 -126t108 -42q68 0 132.5 42t113.5 119t70 178l128 602h169l-226 -1062h-153zM479 1397q0 54 27.5 100t73.5 73.5t100 27.5
t100.5 -27t73.5 -73.5t27 -100.5q0 -55 -27 -101t-73.5 -73.5t-100.5 -27.5t-100.5 27.5t-73.5 73.5t-27 101zM679 1516q-31 0 -58.5 -16t-43.5 -43.5t-16 -59.5q0 -49 35 -84t84 -35q32 0 59.5 16.5t44 44t16.5 58.5q0 50 -36 84.5t-85 34.5z" />
    <glyph glyph-name="Uhungarumlaut" unicode="&#x170;" horiz-adv-x="1259" 
d="M569 -25q-211 0 -314 107t-103 303q0 96 24 210l186 871h180l-187 -879q-23 -106 -23 -192q0 -262 237 -262q106 0 172 44.5t107 136.5t75 251l192 901h180l-192 -900q-42 -202 -95 -324.5t-157 -194.5t-282 -72zM616 1583l159 278h226l-245 -278h-140zM967 1583l154 278
h228l-241 -278h-141z" />
    <glyph glyph-name="uhungarumlaut" unicode="&#x171;" horiz-adv-x="1026" 
d="M632 0l33 155q-75 -89 -154 -132.5t-168 -43.5q-131 0 -197 74.5t-66 206.5q0 68 16 142l141 660h169l-142 -667q-13 -58 -13 -106q0 -84 39 -126t108 -42q68 0 132.5 42t113.5 119t70 178l128 602h169l-226 -1062h-153zM386 1188l159 278h226l-245 -278h-140zM737 1188
l154 278h228l-241 -278h-141z" />
    <glyph glyph-name="Uogonek" unicode="&#x172;" horiz-adv-x="1259" 
d="M1103 566q-42 -202 -95 -324.5t-157 -194.5t-283 -72q-47 -94 -47 -163q0 -53 38.5 -83.5t90.5 -30.5q57 0 140 35l-23 -109q-38 -25 -83 -38.5t-93 -13.5q-57 0 -103.5 21.5t-74 61.5t-27.5 94q0 55 18 109.5t58 124.5q-157 26 -233.5 129.5t-76.5 271.5q0 97 24 211
l186 871h180l-187 -879q-23 -106 -23 -192q0 -262 237 -262q106 0 172 44.5t107 136.5t75 251l192 901h180z" />
    <glyph glyph-name="uogonek" unicode="&#x173;" horiz-adv-x="1026" 
d="M807 -302q57 0 140 35l-23 -109q-38 -25 -83 -38.5t-93 -13.5q-57 0 -103.5 21.5t-74 61.5t-27.5 94q0 59 21.5 118.5t69.5 140.5l31 147q-75 -89 -154 -132.5t-168 -43.5q-131 0 -197 74.5t-66 206.5q0 68 16 142l141 660h169l-142 -667q-13 -58 -13 -106q0 -84 39 -126
t108 -42q68 0 132.5 42t113.5 119t70 178l128 602h169l-226 -1062h-46q-61 -110 -61 -188q0 -53 38.5 -83.5t90.5 -30.5z" />
    <glyph glyph-name="Zacute" unicode="&#x179;" horiz-adv-x="1027" 
d="M354 383q-92 -114 -197 -225h731l-34 -158h-922l34 158l703 865q128 159 242 285h-615l34 158h813l-34 -158zM648 1606l132 254h245l-249 -254h-128z" />
    <glyph glyph-name="zacute" unicode="&#x17a;" horiz-adv-x="789" 
d="M241 266q-4 -4 -34 -37t-90 -92h578l-29 -137h-768l29 137l526 594q87 98 180 190h-501l30 141h701l-25 -119zM413 1211l132 254h245l-249 -254h-128z" />
    <glyph glyph-name="Zdotaccent" unicode="&#x17b;" horiz-adv-x="1027" 
d="M354 383q-92 -114 -197 -225h731l-34 -158h-922l34 158l703 865q128 159 242 285h-615l34 158h813l-34 -158zM649 1596l45 209h207l-45 -209h-207z" />
    <glyph glyph-name="zdotaccent" unicode="&#x17c;" horiz-adv-x="789" 
d="M241 266q-4 -4 -34 -37t-90 -92h578l-29 -137h-768l29 137l526 594q87 98 180 190h-501l30 141h701l-25 -119zM438 1201l45 209h207l-45 -209h-207z" />
    <glyph glyph-name="Ohorn" unicode="&#x1a0;" horiz-adv-x="1324" 
d="M1214 1159q16 -71 16 -165q0 -108 -24 -243q-67 -371 -220 -575.5t-419 -204.5q-209 0 -330.5 121.5t-121.5 377.5q0 119 28 263q134 758 639 758q136 0 236 -52.5t154 -158.5v1h10q70 0 111.5 26.5t66 81.5t45.5 154h164q-28 -131 -67.5 -212t-108 -124.5t-179.5 -47.5z
M1049 988q0 174 -69.5 261t-202.5 87q-190 0 -296 -159.5t-161 -467.5q-25 -131 -25 -233q0 -178 72.5 -261.5t200.5 -83.5q344 0 453 604q28 141 28 253z" />
    <glyph glyph-name="ohorn" unicode="&#x1a1;" horiz-adv-x="1169" 
d="M952 767q4 -44 4 -70q0 -71 -15 -152q-49 -266 -176.5 -419t-328.5 -153q-174 0 -269 104t-95 292q0 79 16 163q46 251 171 403t333 152q128 0 213 -55.5t123 -157.5l3 16h10q75 0 116 26.5t63 79.5t44 156h165q-28 -136 -69.5 -218t-114.5 -124t-193 -43zM786 702
q0 123 -51.5 185t-147.5 62q-119 0 -205 -104.5t-123 -311.5q-16 -83 -16 -155q0 -129 52.5 -197.5t148.5 -68.5q108 0 196 105t131 340q15 81 15 145z" />
    <glyph glyph-name="Uhorn" unicode="&#x1af;" horiz-adv-x="1377" 
d="M1259 1158h-30l-126 -592q-42 -202 -95 -324.5t-157 -194.5t-282 -72q-211 0 -314 107t-103 303q0 96 24 210l186 871h180l-187 -879q-23 -106 -23 -192q0 -262 237 -262q106 0 172 44.5t107 136.5t75 251l192 901h180l-39 -185q70 0 111.5 26.5t65.5 81.5t45 154h164
q-29 -137 -70.5 -219t-116 -124t-196.5 -42z" />
    <glyph glyph-name="uhorn" unicode="&#x1b0;" horiz-adv-x="1202" 
d="M978 767h-30l-163 -767h-153l33 155q-75 -89 -154 -132.5t-168 -43.5q-131 0 -197 74.5t-66 206.5q0 68 16 142l141 660h169l-142 -667q-13 -58 -13 -106q0 -84 39 -126t108 -42q68 0 132.5 42t113.5 119t70 178l128 602h169l-37 -172q75 0 116 26.5t63 79.5t44 156h165
q-29 -137 -70.5 -219t-116 -124t-197.5 -42z" />
    <glyph glyph-name="caron" unicode="&#x2c7;" horiz-adv-x="683" 
d="M651 1438h182l-242 -248h-213l-143 248h174l84 -158z" />
    <glyph glyph-name="breve" unicode="&#x2d8;" horiz-adv-x="683" 
d="M522 1321q69 0 113 28.5t69 88.5h125q-35 -125 -111.5 -186t-204.5 -61q-120 0 -193.5 63.5t-78.5 183.5h125q14 -58 55 -87.5t101 -29.5z" />
    <glyph glyph-name="dotaccent" unicode="&#x2d9;" horiz-adv-x="683" 
d="M380 1201l45 209h207l-45 -209h-207z" />
    <glyph glyph-name="glyph313" horiz-adv-x="683" 
d="M310 1397q0 54 27.5 100t73.5 73.5t100 27.5t100.5 -27t73.5 -73.5t27 -100.5q0 -55 -27 -101t-73.5 -73.5t-100.5 -27.5t-100.5 27.5t-73.5 73.5t-27 101zM510 1516q-31 0 -58.5 -16t-43.5 -43.5t-16 -59.5q0 -49 35 -84t84 -35q32 0 59.5 16.5t44 44t16.5 58.5
q0 50 -36 84.5t-85 34.5z" />
    <glyph glyph-name="ogonek" unicode="&#x2db;" horiz-adv-x="683" 
d="M108 -188q0 -53 38.5 -83.5t90.5 -30.5q57 0 140 35l-23 -109q-38 -25 -83 -38.5t-93 -13.5q-57 0 -103.5 21.5t-74 61.5t-27.5 94q0 62 23.5 124t75.5 149h110q-74 -122 -74 -210z" />
    <glyph glyph-name="hungarumlaut" unicode="&#x2dd;" horiz-adv-x="683" 
d="M256 1188l159 278h226l-245 -278h-140zM607 1188l154 278h228l-241 -278h-141z" />
    <glyph glyph-name="gravecomb" unicode="&#x300;" horiz-adv-x="0" 
d="M-326 1211l-180 254h214l85 -254h-119z" />
    <glyph glyph-name="acutecomb" unicode="&#x301;" horiz-adv-x="0" 
d="M-445 1211l132 254h245l-249 -254h-128z" />
    <glyph glyph-name="tildecomb" unicode="&#x303;" horiz-adv-x="0" 
d="M-191 1202q-37 0 -74.5 11t-86.5 35q-57 29 -79.5 38t-41.5 9q-35 0 -54 -20.5t-35 -70.5h-120q14 101 67.5 157.5t139.5 56.5q41 0 77.5 -10.5t82.5 -34.5t75.5 -34.5t54.5 -10.5q35 0 56.5 23.5t34.5 72.5h115q-20 -120 -74.5 -171t-137.5 -51z" />
    <glyph glyph-name="hookabovecomb" unicode="&#x309;" horiz-adv-x="0" 
d="M-86 1376q0 -21 -4 -38q-10 -50 -62 -82t-134 -36l-6 -30h-105l22 104q70 0 103 14.5t33 43.5q0 22 -23.5 35t-62.5 13q-37 0 -91 -8l10 98q68 12 130 12q94 0 142 -32.5t48 -93.5z" />
    <glyph glyph-name="dotbelowcomb" unicode="&#x323;" horiz-adv-x="0" 
d="M-458 -298l45 209h207l-45 -209h-207z" />
    <glyph glyph-name="tonos" unicode="&#x384;" horiz-adv-x="600" 
d="M414 1211l96 255h241l-209 -255h-128z" />
    <glyph glyph-name="dieresistonos" unicode="&#x385;" horiz-adv-x="803" 
d="M424 1211l92 254h223l-199 -254h-116zM200 1225l43 206h165l-43 -206h-165zM728 1225l43 206h167l-43 -206h-167z" />
    <glyph glyph-name="Alphatonos" unicode="&#x386;" horiz-adv-x="1130" 
d="M291 423l-216 -423h-193l781 1466h205l154 -1466h-182l-35 423h-514zM734 1290l-368 -721h428zM198 1212l142 254h227l-249 -254h-120z" />
    <glyph glyph-name="Epsilontonos" unicode="&#x388;" horiz-adv-x="1229" 
d="M707 1308l-101 -474h504l-33 -158h-504l-110 -518h596l-34 -158h-776l312 1466h748l-34 -158h-568zM115 1212l142 254h227l-249 -254h-120z" />
    <glyph glyph-name="Etatonos" unicode="&#x389;" horiz-adv-x="1460" 
d="M1005 0l148 695h-576l-148 -695h-180l312 1466h180l-131 -616h576l131 616h180l-312 -1466h-180zM115 1212l142 254h227l-249 -254h-120z" />
    <glyph glyph-name="Iotatonos" unicode="&#x38a;" horiz-adv-x="715" 
d="M260 0l312 1466h180l-312 -1466h-180zM115 1212l142 254h227l-249 -254h-120z" />
    <glyph glyph-name="Omicrontonos" unicode="&#x38c;" horiz-adv-x="1333" 
d="M1304 993q0 -108 -23 -242q-67 -371 -220 -575.5t-419 -204.5q-209 0 -330.5 121.5t-121.5 377.5q0 119 28 263q134 758 639 758q209 0 328 -125.5t119 -372.5zM394 709q-25 -131 -25 -233q0 -178 71.5 -261.5t201.5 -83.5q344 0 453 604q28 141 28 253q0 174 -69.5 261
t-202.5 87q-190 0 -296 -159.5t-161 -467.5zM115 1212l142 254h227l-249 -254h-120z" />
    <glyph glyph-name="Upsilontonos" unicode="&#x38e;" horiz-adv-x="1460" 
d="M868 998q40 -122 63 -218l197 280l309 406h212l-658 -847l-132 -619h-182l132 619l-274 847h185zM115 1212l142 254h227l-249 -254h-120z" />
    <glyph glyph-name="Omegatonos" unicode="&#x38f;" horiz-adv-x="1438" 
d="M1374 991q0 -94 -23 -204q-34 -162 -138 -333.5t-246 -294.5h266l-34 -159h-497l32 148q168 122 281 282.5t159 377.5q22 103 22 189q0 164 -77 250t-219 86q-193 0 -307 -128.5t-165 -369.5q-26 -125 -26 -224q0 -143 46 -255.5t134 -207.5l-32 -148h-497l34 159h308
q-83 91 -127 212t-44 262q0 101 22 207q66 309 231 480t427 171q147 0 253 -61.5t161.5 -174t55.5 -264.5zM115 1212l142 254h227l-249 -254h-120z" />
    <glyph glyph-name="iotadieresistonos" unicode="&#x390;" horiz-adv-x="526" 
d="M235 221q0 -88 85 -88q29 0 69 9l-6 -142q-60 -17 -123 -17q-91 0 -144 50t-53 150q0 46 12 103l166 776h169l-167 -780q-8 -37 -8 -61zM235 1211l92 254h223l-199 -254h-116zM11 1225l43 206h165l-43 -206h-165zM539 1225l43 206h167l-43 -206h-167z" />
    <glyph glyph-name="Alpha" unicode="&#x391;" horiz-adv-x="1130" 
d="M291 423l-216 -423h-193l781 1466h205l154 -1466h-182l-35 423h-514zM734 1290l-368 -721h428z" />
    <glyph glyph-name="Beta" unicode="&#x392;" horiz-adv-x="1140" 
d="M1129 1138q0 -124 -69.5 -228t-216.5 -150q96 -44 145.5 -124.5t49.5 -187.5q0 -115 -47 -215t-168.5 -166.5t-329.5 -66.5h-444l312 1466h356q133 0 225.5 -42t139.5 -116t47 -170zM407 838h212q121 0 193.5 39.5t102 100t29.5 128.5q0 92 -63 147t-219 55h-155z
M263 158h222q201 0 285 75.5t84 212.5q0 113 -73.5 173.5t-217.5 60.5h-189z" />
    <glyph glyph-name="Gamma" unicode="&#x393;" horiz-adv-x="916" 
d="M508 1310l-279 -1310h-180l312 1466h707l-33 -156h-527z" />
    <glyph glyph-name="Delta" unicode="&#x394;" horiz-adv-x="1187" 
d="M-93 0l781 1466h188l178 -1466h-1147zM621 1004l-426 -847h648l-76 844q-13 150 -12 293h-4q-48 -116 -130 -290z" />
    <glyph glyph-name="Epsilon" unicode="&#x395;" horiz-adv-x="1029" 
d="M507 1308l-101 -474h504l-33 -158h-504l-110 -518h596l-34 -158h-776l312 1466h748l-34 -158h-568z" />
    <glyph glyph-name="Zeta" unicode="&#x396;" horiz-adv-x="1027" 
d="M354 383q-92 -114 -197 -225h731l-34 -158h-922l34 158l703 865q128 159 242 285h-615l34 158h813l-34 -158z" />
    <glyph glyph-name="Eta" unicode="&#x397;" horiz-adv-x="1260" 
d="M805 0l148 695h-576l-148 -695h-180l312 1466h180l-131 -616h576l131 616h180l-312 -1466h-180z" />
    <glyph glyph-name="Theta" unicode="&#x398;" horiz-adv-x="1259" 
d="M1230 993q0 -108 -24 -242q-67 -371 -220 -575.5t-419 -204.5q-209 0 -330.5 121.5t-121.5 377.5q0 119 28 263q134 758 639 758q209 0 328.5 -123t119.5 -375zM320 709q-25 -131 -25 -233q0 -178 72.5 -261.5t200.5 -83.5q344 0 453 604q28 141 28 253q0 174 -69.5 261
t-202.5 87q-187 0 -294.5 -157.5t-162.5 -469.5zM438 670l31 150h443l-31 -150h-443z" />
    <glyph glyph-name="Iota" unicode="&#x399;" horiz-adv-x="504" 
d="M49 0l312 1466h180l-312 -1466h-180z" />
    <glyph glyph-name="Kappa" unicode="&#x39a;" horiz-adv-x="1140" 
d="M1031 0h-193l-245 764l-256 -255l-108 -509h-180l312 1466h180l-151 -708l688 708h219l-576 -574z" />
    <glyph glyph-name="Lambda" unicode="&#x39b;" horiz-adv-x="1090" 
d="M-118 0l761 1466h205l134 -1466h-182l-86 1290l-639 -1290h-193z" />
    <glyph glyph-name="Mu" unicode="&#x39c;" horiz-adv-x="1600" 
d="M1149 0l294 1293l-673 -1293h-165l-120 1285l-263 -1285h-173l312 1466h266l112 -1224l632 1224h266l-312 -1466h-176z" />
    <glyph glyph-name="Nu" unicode="&#x39d;" horiz-adv-x="1261" 
d="M802 0l-348 1214h-2l-231 -1214h-172l312 1466h180l349 -1211h2l233 1211h173l-312 -1466h-184z" />
    <glyph glyph-name="Xi" unicode="&#x39e;" horiz-adv-x="1063" 
d="M278 1297l36 169h832l-36 -169h-832zM219 661l36 169h681l-36 -169h-681zM-22 0l36 169h881l-36 -169h-881z" />
    <glyph glyph-name="Omicron" unicode="&#x39f;" horiz-adv-x="1259" 
d="M1230 993q0 -108 -23 -242q-67 -371 -220 -575.5t-419 -204.5q-209 0 -330.5 121.5t-121.5 377.5q0 119 28 263q134 758 639 758q209 0 328 -125.5t119 -372.5zM320 709q-25 -131 -25 -233q0 -178 71.5 -261.5t201.5 -83.5q344 0 453 604q28 141 28 253q0 174 -69.5 261
t-202.5 87q-190 0 -296 -159.5t-161 -467.5z" />
    <glyph glyph-name="Pi" unicode="&#x3a0;" horiz-adv-x="1260" 
d="M805 0l278 1309h-576l-278 -1309h-180l312 1466h936l-312 -1466h-180z" />
    <glyph glyph-name="Rho" unicode="&#x3a1;" horiz-adv-x="1120" 
d="M1163 1075q0 -130 -56.5 -235t-188.5 -170t-347 -65h-213l-129 -605h-180l312 1466h347q127 0 230 -42.5t164 -130t61 -218.5zM391 761h198q142 0 227.5 43t121.5 110t36 145q0 120 -76 185.5t-220 65.5h-170z" />
    <glyph glyph-name="Sigma" unicode="&#x3a3;" horiz-adv-x="982" 
d="M446 1299l268 -554v-1l-498 -577h639l-36 -167h-853l36 171l504 586l-259 543l36 166h809l-36 -167h-610z" />
    <glyph glyph-name="Tau" unicode="&#x3a4;" horiz-adv-x="1025" 
d="M765 1309l-278 -1309h-180l278 1309h-373l34 157h931l-34 -157h-378z" />
    <glyph glyph-name="Upsilon" unicode="&#x3a5;" horiz-adv-x="1134" 
d="M542 998q40 -122 63 -218l197 280l309 406h212l-658 -847l-132 -619h-182l132 619l-274 847h185z" />
    <glyph glyph-name="Phi" unicode="&#x3a6;" horiz-adv-x="1373" 
d="M1334 806q0 -29 -1 -44q-11 -177 -86.5 -311t-211.5 -207.5t-321 -73.5h-17l-39 -180h-174l43 200q-188 43 -293 170t-105 321q0 27 1 40q11 182 88 316t214 207t322 73h13l33 159h174l-38 -178q186 -43 292 -170.5t106 -321.5zM307 693q0 -135 65 -224.5t187 -124.5
l175 819q-197 -5 -304 -114t-122 -316q-1 -14 -1 -40zM1157 797q0 142 -67 229t-186 119l-175 -821q196 4 303 116.5t123 306.5q2 34 2 50z" />
    <glyph glyph-name="Chi" unicode="&#x3a7;" horiz-adv-x="1130" 
d="M1006 0h-189l-164 457q-44 129 -55 176q-80 -114 -183 -239l-319 -394h-201l633 770l-250 696h189l118 -348q44 -131 66 -203q58 84 129 171l308 380h193l-555 -683z" />
    <glyph glyph-name="Psi" unicode="&#x3a8;" horiz-adv-x="1405" 
d="M1373 994q-39 -186 -102.5 -301.5t-182 -179t-314.5 -71.5l-94 -442h-180l96 449q-184 27 -281 135t-97 284q0 79 19 164l92 434h180l-93 -436q-16 -76 -16 -141q0 -120 57.5 -191.5t171.5 -90.5l183 859h180l-183 -862q126 11 201.5 58t116 128t68.5 213l99 463h180z
" />
    <glyph glyph-name="Omega" unicode="&#x3a9;" horiz-adv-x="1398" 
d="M1334 991q0 -94 -23 -204q-34 -162 -138 -333.5t-246 -294.5h266l-34 -159h-497l32 148q168 122 281 282.5t159 377.5q22 103 22 189q0 164 -77 250t-219 86q-193 0 -307 -128.5t-165 -369.5q-26 -125 -26 -224q0 -143 46 -255.5t134 -207.5l-32 -148h-497l34 159h308
q-83 91 -127 212t-44 262q0 101 22 207q66 309 231 480t427 171q147 0 253 -61.5t161.5 -174t55.5 -264.5z" />
    <glyph glyph-name="Iotadieresis" unicode="&#x3aa;" horiz-adv-x="504" 
d="M49 0l312 1466h180l-312 -1466h-180zM199 1620l43 206h185l-43 -206h-185zM571 1620l43 206h187l-43 -206h-187z" />
    <glyph glyph-name="Upsilondieresis" unicode="&#x3ab;" horiz-adv-x="1134" 
d="M542 998q40 -122 63 -218l197 280l309 406h212l-658 -847l-132 -619h-182l132 619l-274 847h185zM514 1620l43 206h185l-43 -206h-185zM886 1620l43 206h187l-43 -206h-187z" />
    <glyph glyph-name="alphatonos" unicode="&#x3ac;" horiz-adv-x="1071" 
d="M850 846h3q31 88 82 216h174q-65 -119 -120 -258.5t-91 -271.5q-22 -148 -22 -301q0 -115 12 -231h-175q2 135 13 219h-5q-58 -95 -112 -148.5t-110 -74.5t-125 -21q-149 0 -230.5 89.5t-81.5 264.5q0 96 25 212q59 277 169.5 411t295.5 134q238 0 298 -240zM257 530
q-22 -103 -22 -179q0 -124 49.5 -180.5t125.5 -56.5q119 0 203.5 108.5t125.5 302.5q16 74 16 144q0 126 -52 202t-143 76q-214 0 -303 -417zM542 1211l96 255h241l-209 -255h-128z" />
    <glyph glyph-name="epsilontonos" unicode="&#x3ad;" horiz-adv-x="829" 
d="M838 930l-122 -85q-39 53 -84 77.5t-104 24.5q-65 0 -107.5 -27t-62 -67.5t-19.5 -82.5q0 -62 40.5 -106t117.5 -44h86l-31 -144h-82q-90 0 -146.5 -33t-82.5 -80.5t-26 -98.5q0 -61 37.5 -105.5t115.5 -44.5q120 0 244 119l89 -110q-88 -80 -164.5 -113.5t-184.5 -33.5
q-100 0 -171 36t-106.5 98.5t-35.5 140.5q0 107 67 189.5t214 120.5q-77 31 -114.5 90.5t-37.5 133.5q0 70 33.5 139t111 116t200.5 47q106 0 185.5 -38.5t139.5 -118.5zM488 1211l96 255h241l-209 -255h-128z" />
    <glyph glyph-name="etatonos" unicode="&#x3ae;" horiz-adv-x="1026" 
d="M947 805q0 -62 -14 -126l-230 -1084h-169l229 1082q11 48 11 96q0 83 -40.5 126t-118.5 43q-71 0 -131 -37.5t-102 -105t-61 -155.5l-137 -644h-169l226 1062h151l-33 -154q80 92 157.5 135t165.5 43q76 0 136 -31t94.5 -94.5t34.5 -155.5zM589 1211l96 255h241
l-209 -255h-128z" />
    <glyph glyph-name="iotatonos" unicode="&#x3af;" horiz-adv-x="526" 
d="M235 221q0 -88 85 -88q29 0 69 9l-6 -142q-60 -17 -123 -17q-91 0 -144 50t-53 150q0 46 12 103l166 776h169l-167 -780q-8 -37 -8 -61zM268 1211l96 255h241l-209 -255h-128z" />
    <glyph glyph-name="upsilondieresistonos" unicode="&#x3b0;" horiz-adv-x="1012" 
d="M887 481q-39 -182 -95.5 -291.5t-145.5 -162t-224 -52.5q-160 0 -249.5 78t-89.5 227q0 62 14 125l140 657h169l-142 -668q-11 -53 -11 -94q0 -90 46.5 -138t131.5 -48q81 0 134 38t89.5 120t66.5 222q30 142 44.5 277.5t16.5 290.5h169q-3 -297 -64 -581zM513 1211
l92 254h223l-199 -254h-116zM289 1225l43 206h165l-43 -206h-165zM817 1225l43 206h167l-43 -206h-167z" />
    <glyph glyph-name="alpha" unicode="&#x3b1;" horiz-adv-x="1071" 
d="M850 846h3q31 88 82 216h174q-65 -119 -120 -258.5t-91 -271.5q-22 -148 -22 -301q0 -115 12 -231h-175q2 135 13 219h-5q-58 -95 -112 -148.5t-110 -74.5t-125 -21q-149 0 -230.5 89.5t-81.5 264.5q0 96 25 212q59 277 169.5 411t295.5 134q238 0 298 -240zM257 530
q-22 -103 -22 -179q0 -124 49.5 -180.5t125.5 -56.5q119 0 203.5 108.5t125.5 302.5q16 74 16 144q0 126 -52 202t-143 76q-214 0 -303 -417z" />
    <glyph glyph-name="beta" unicode="&#x3b2;" horiz-adv-x="1000" 
d="M994 1193q0 -83 -27.5 -161t-86.5 -138.5t-149 -88.5q90 -36 132.5 -106.5t42.5 -181.5q0 -125 -40 -249t-133.5 -208.5t-244.5 -84.5q-185 0 -274 151h-3l-113 -532h-169l303 1427q34 162 85.5 263.5t136 154t215.5 52.5q91 0 164.5 -34.5t117 -102t43.5 -161.5z
M821 1174q0 86 -43 131t-114 45q-65 0 -113.5 -30.5t-85.5 -102t-63 -193.5l-106 -496q-23 -108 -23 -187q0 -225 198 -225q96 0 155 64.5t84 155.5t25 178q0 100 -47.5 154t-132.5 54h-79l30 144h59q82 0 140 47.5t87 119t29 141.5z" />
    <glyph glyph-name="gamma" unicode="&#x3b3;" horiz-adv-x="897" 
d="M328 -406h-165l93 440l-123 1028h171l70 -827h4l433 827h179l-572 -1046z" />
    <glyph glyph-name="delta" unicode="&#x3b4;" horiz-adv-x="1017" 
d="M568 1323q34 -51 75.5 -105l106.5 -135l70 -89q57 -75 89 -153t32 -186q0 -82 -20 -176q-54 -256 -174 -380t-320 -124q-101 0 -182.5 40.5t-130.5 126.5t-49 217q0 81 21 180q53 249 176.5 376.5t312.5 129.5q-97 112 -216 305l25 116h665l-31 -143h-450zM254 517
q-18 -87 -18 -155q0 -124 53.5 -186t139.5 -62q88 0 149.5 41t103.5 125t71 218q20 97 20 167q0 125 -52 190t-140 65q-123 0 -202.5 -95.5t-124.5 -307.5z" />
    <glyph glyph-name="epsilon" unicode="&#x3b5;" horiz-adv-x="829" 
d="M838 930l-122 -85q-39 53 -84 77.5t-104 24.5q-65 0 -107.5 -27t-62 -67.5t-19.5 -82.5q0 -62 40.5 -106t117.5 -44h86l-31 -144h-82q-90 0 -146.5 -33t-82.5 -80.5t-26 -98.5q0 -61 37.5 -105.5t115.5 -44.5q120 0 244 119l89 -110q-88 -80 -164.5 -113.5t-184.5 -33.5
q-100 0 -171 36t-106.5 98.5t-35.5 140.5q0 107 67 189.5t214 120.5q-77 31 -114.5 90.5t-37.5 133.5q0 70 33.5 139t111 116t200.5 47q106 0 185.5 -38.5t139.5 -118.5z" />
    <glyph glyph-name="zeta" unicode="&#x3b6;" horiz-adv-x="784" 
d="M242 422q0 -60 23 -103t56.5 -72t91.5 -67q62 -42 99.5 -74t63 -83t25.5 -123q0 -153 -97 -241.5t-298 -88.5q-20 0 -62 3l61 143q131 3 179 46.5t48 117.5q0 42 -19.5 74t-49 55t-81.5 57q-70 45 -114 82.5t-75 99.5t-31 151q0 126 72.5 286t213 327.5t335.5 310.5h-334
l31 143h573l-25 -116q-240 -157 -394.5 -334t-223 -332t-68.5 -262z" />
    <glyph glyph-name="eta" unicode="&#x3b7;" horiz-adv-x="1026" 
d="M947 805q0 -62 -14 -126l-230 -1084h-169l229 1082q11 48 11 96q0 83 -40.5 126t-118.5 43q-71 0 -131 -37.5t-102 -105t-61 -155.5l-137 -644h-169l226 1062h151l-33 -154q80 92 157.5 135t165.5 43q76 0 136 -31t94.5 -94.5t34.5 -155.5z" />
    <glyph glyph-name="theta" unicode="&#x3b8;" horiz-adv-x="1020" 
d="M1003 1074q0 -153 -44 -361q-57 -270 -125.5 -429.5t-163.5 -234t-233 -74.5q-157 0 -245 103.5t-88 322.5q0 149 40 335q58 275 130 439.5t170 240t235 75.5q154 0 239 -100t85 -317zM841 1090q0 143 -45 202.5t-125 59.5q-79 0 -138.5 -51t-109 -169t-96.5 -322h483
q31 170 31 280zM780 666h-484q-32 -169 -32 -285q0 -142 46.5 -204.5t132.5 -62.5q76 0 134.5 54t107.5 174.5t95 323.5z" />
    <glyph glyph-name="iota" unicode="&#x3b9;" horiz-adv-x="526" 
d="M235 221q0 -88 85 -88q29 0 69 9l-6 -142q-60 -17 -123 -17q-91 0 -144 50t-53 150q0 46 12 103l166 776h169l-167 -780q-8 -37 -8 -61z" />
    <glyph glyph-name="kappa" unicode="&#x3ba;" horiz-adv-x="901" 
d="M769 0h-180l-171 520l-155 -147l-79 -373h-169l226 1062h169l-99 -466l439 466h208l-414 -417z" />
    <glyph glyph-name="lambda" unicode="&#x3bb;" horiz-adv-x="911" 
d="M587 0l-49 595q-7 229 -8 240h-3l-52.5 -124t-58.5 -124l-312 -587h-176l559 1027l-37 439h164l144 -1466h-171z" />
    <glyph glyph-name="mu" unicode="&#x3bc;" horiz-adv-x="1030" 
d="M630 0l29 137q-50 -82 -108.5 -120t-137.5 -38q-77 0 -126.5 35t-77.5 98l-110 -518h-170l312 1468h169l-126 -592q-16 -76 -16 -138q0 -102 42 -156.5t120 -54.5q64 0 122.5 44.5t102.5 124t65 180.5l126 592h169l-226 -1062h-159z" />
    <glyph glyph-name="nu" unicode="&#x3bd;" horiz-adv-x="910" 
d="M394 0h-134l-127 1062h171l66 -634q8 -72 8 -211q284 406 445 845h180q-104 -273 -256 -532.5t-353 -529.5z" />
    <glyph glyph-name="xi" unicode="&#x3be;" horiz-adv-x="755" 
d="M682 1347q-91 0 -143.5 -35t-71.5 -83t-19 -94q0 -75 38 -123t124 -48h115l-31 -144h-77q-123 0 -210.5 -72.5t-131.5 -175.5t-44 -190q0 -59 22 -99.5t55 -66t89 -58.5q61 -35 98.5 -65t63.5 -80.5t26 -126.5q0 -151 -98 -233.5t-298 -82.5q-37 0 -59 2l57 144
q225 0 225 155q0 40 -18.5 69t-46 49t-76.5 47q-68 38 -110.5 71.5t-73 94.5t-30.5 154q0 108 45 218.5t130 197.5t199 125q-73 39 -110.5 104t-37.5 140q0 86 37 165t128 132t242 53h163l-31 -144h-140z" />
    <glyph glyph-name="omicron" unicode="&#x3bf;" horiz-adv-x="1025" 
d="M72 369q0 79 16 163q46 257 173.5 406t330.5 149q176 0 270 -103.5t94 -286.5q0 -71 -15 -152q-49 -266 -176.5 -419t-328.5 -153q-174 0 -269 104t-95 292zM786 702q0 123 -51.5 185t-147.5 62q-119 0 -205 -104.5t-123 -311.5q-16 -83 -16 -155q0 -129 52.5 -197.5
t148.5 -68.5q108 0 196 105t131 340q15 81 15 145z" />
    <glyph glyph-name="pi" unicode="&#x3c0;" horiz-adv-x="1204" 
d="M855 221q0 -88 85 -88q29 0 69 9l-6 -142q-60 -17 -123 -17q-91 0 -144 49t-53 151q0 46 12 103l135 633h-323l-195 -919h-169l195 919h-25q-40 0 -79 -3.5t-92 -16.5l31 143q53 13 92 16.5t79 3.5h909l-31 -143h-223l-136 -637q-8 -37 -8 -61z" />
    <glyph glyph-name="rho" unicode="&#x3c1;" horiz-adv-x="1064" 
d="M994 686q0 -82 -21 -181q-54 -254 -173.5 -392t-292.5 -138q-193 0 -292 170h-3l-117 -551h-169l194 915q42 196 107.5 323t163.5 190.5t235 63.5q108 0 191.5 -46t130 -136t46.5 -218zM290 511q-13 -61 -13 -116q0 -86 29 -149.5t77.5 -97t104.5 -33.5q118 0 195.5 99
t120.5 301q20 98 20 168q0 132 -56 198t-151 66q-120 0 -199.5 -104t-127.5 -332z" />
    <glyph glyph-name="sigma1" unicode="&#x3c2;" horiz-adv-x="826" 
d="M248 -291q71 0 115.5 24t64.5 60.5t20 78.5t-19.5 73t-49 53.5t-81.5 54.5q-74 45 -120.5 84t-79.5 106.5t-33 166.5q0 134 58 291.5t190.5 271t331.5 113.5q66 0 135 -12.5t119 -35.5l-62 -139q-96 48 -192 48q-131 0 -223 -87.5t-135.5 -207.5t-43.5 -216
q0 -71 25.5 -119.5t62.5 -79t100 -69.5t100 -69.5t62.5 -79.5t25.5 -121q0 -83 -37 -157.5t-122.5 -122.5t-221.5 -48q-44 0 -88 5.5t-74 15.5l46 142q59 -24 126 -24z" />
    <glyph glyph-name="sigma" unicode="&#x3c3;" horiz-adv-x="1062" 
d="M70 372q0 86 20 179q52 244 181.5 377.5t338.5 133.5h545l-31 -143h-255q34 -40 56.5 -111.5t22.5 -162.5q0 -79 -16 -152q-53 -246 -176 -382t-325 -136q-107 0 -188.5 46t-127 135t-45.5 216zM780 664q0 124 -52 189.5t-145 65.5q-117 0 -201.5 -100t-124.5 -290
q-18 -87 -18 -155q0 -126 53.5 -193t140.5 -67q120 0 204 99t124 286q19 89 19 165z" />
    <glyph glyph-name="tau" unicode="&#x3c4;" horiz-adv-x="776" 
d="M397 221q0 -88 85 -88q29 0 69 9l-6 -142q-60 -17 -123 -17q-91 0 -144 49t-53 151q0 46 12 103l135 633h-59q-40 0 -79 -3.5t-92 -16.5l31 143q55 13 95 16.5t76 3.5h481l-31 -143h-253l-136 -637q-8 -37 -8 -61z" />
    <glyph glyph-name="upsilon" unicode="&#x3c5;" horiz-adv-x="1012" 
d="M887 481q-39 -182 -95.5 -291.5t-145.5 -162t-224 -52.5q-160 0 -249.5 78t-89.5 227q0 62 14 125l140 657h169l-142 -668q-11 -53 -11 -94q0 -90 46.5 -138t131.5 -48q81 0 134 38t89.5 120t66.5 222q30 142 44.5 277.5t16.5 290.5h169q-3 -297 -64 -581z" />
    <glyph glyph-name="phi" unicode="&#x3c6;" horiz-adv-x="1210" 
d="M568 -24l-81 -382h-160l84 394q-99 23 -173.5 84t-115.5 158.5t-41 224.5q0 139 51.5 280t166.5 240t295 110l-54 -148q-106 -25 -171.5 -101.5t-93 -176.5t-27.5 -198q0 -130 52.5 -216.5t140.5 -116.5l140 661q21 98 53 162t87 99t139 35q87 0 151 -43.5t98.5 -127
t34.5 -200.5q0 -171 -54 -334.5t-183 -278t-339 -125.5zM981 713q0 114 -35.5 173.5t-90.5 59.5q-46 0 -71.5 -38.5t-42.5 -117.5l-143 -671q142 19 227.5 111.5t120.5 219.5t35 263z" />
    <glyph glyph-name="chi" unicode="&#x3c7;" horiz-adv-x="889" 
d="M680 -406h-179l-110 596l-361 -596h-186l490 752l-150 716h177l92 -555l330 555h188l-462 -720z" />
    <glyph glyph-name="psi" unicode="&#x3c8;" horiz-adv-x="1247" 
d="M1112 479q-36 -170 -93.5 -275.5t-161 -163t-270.5 -64.5l-81 -382h-160l83 389q-155 24 -242.5 117.5t-87.5 250.5q0 65 16 138l122 573h166l-122 -575q-12 -59 -12 -109q0 -105 50.5 -170t139.5 -84l199 938h160l-200 -942q98 11 162 53.5t103 116t63 187.5l124 585
h166z" />
    <glyph glyph-name="omega" unicode="&#x3c9;" horiz-adv-x="1303" 
d="M280 503q-26 -126 -26 -211q0 -88 26 -129t71 -41q70 0 119 86.5t87 267.5l68 318h165l-68 -318q-23 -106 -23 -188q0 -83 26 -124.5t76 -41.5q69 0 116.5 82.5t87.5 269.5q38 180 38 340q0 129 -25 248h168q25 -145 25 -275q0 -155 -33 -309q-53 -251 -142 -377
t-233 -126q-82 0 -144.5 50t-77.5 149q-43 -74 -79.5 -116.5t-78.5 -62.5t-99 -20q-70 0 -124 36.5t-84.5 110t-30.5 180.5q0 92 23 200q30 141 86.5 284t133.5 276h183q-86 -136 -144.5 -283t-86.5 -276z" />
    <glyph glyph-name="iotadieresis" unicode="&#x3ca;" horiz-adv-x="526" 
d="M235 221q0 -88 85 -88q29 0 69 9l-6 -142q-60 -17 -123 -17q-91 0 -144 50t-53 150q0 46 12 103l166 776h169l-167 -780q-8 -37 -8 -61zM81 1225l43 206h185l-43 -206h-185zM453 1225l43 206h187l-43 -206h-187z" />
    <glyph glyph-name="upsilondieresis" unicode="&#x3cb;" horiz-adv-x="1012" 
d="M887 481q-39 -182 -95.5 -291.5t-145.5 -162t-224 -52.5q-160 0 -249.5 78t-89.5 227q0 62 14 125l140 657h169l-142 -668q-11 -53 -11 -94q0 -90 46.5 -138t131.5 -48q81 0 134 38t89.5 120t66.5 222q30 142 44.5 277.5t16.5 290.5h169q-3 -297 -64 -581zM359 1225
l43 206h185l-43 -206h-185zM731 1225l43 206h187l-43 -206h-187z" />
    <glyph glyph-name="omicrontonos" unicode="&#x3cc;" horiz-adv-x="1025" 
d="M72 369q0 79 16 163q46 257 173.5 406t330.5 149q176 0 270 -103.5t94 -286.5q0 -71 -15 -152q-49 -266 -176.5 -419t-328.5 -153q-174 0 -269 104t-95 292zM786 702q0 123 -51.5 185t-147.5 62q-119 0 -205 -104.5t-123 -311.5q-16 -83 -16 -155q0 -129 52.5 -197.5
t148.5 -68.5q108 0 196 105t131 340q15 81 15 145zM563 1211l96 255h241l-209 -255h-128z" />
    <glyph glyph-name="upsilontonos" unicode="&#x3cd;" horiz-adv-x="1012" 
d="M887 481q-39 -182 -95.5 -291.5t-145.5 -162t-224 -52.5q-160 0 -249.5 78t-89.5 227q0 62 14 125l140 657h169l-142 -668q-11 -53 -11 -94q0 -90 46.5 -138t131.5 -48q81 0 134 38t89.5 120t66.5 222q30 142 44.5 277.5t16.5 290.5h169q-3 -297 -64 -581zM546 1211
l96 255h241l-209 -255h-128z" />
    <glyph glyph-name="omegatonos" unicode="&#x3ce;" horiz-adv-x="1303" 
d="M280 503q-26 -126 -26 -211q0 -88 26 -129t71 -41q70 0 119 86.5t87 267.5l68 318h165l-68 -318q-23 -106 -23 -188q0 -83 26 -124.5t76 -41.5q69 0 116.5 82.5t87.5 269.5q38 180 38 340q0 129 -25 248h168q25 -145 25 -275q0 -155 -33 -309q-53 -251 -142 -377
t-233 -126q-82 0 -144.5 50t-77.5 149q-43 -74 -79.5 -116.5t-78.5 -62.5t-99 -20q-70 0 -124 36.5t-84.5 110t-30.5 180.5q0 92 23 200q30 141 86.5 284t133.5 276h183q-86 -136 -144.5 -283t-86.5 -276zM707 1211l96 255h241l-209 -255h-128z" />
    <glyph glyph-name="afii10023" unicode="&#x401;" horiz-adv-x="1029" 
d="M507 1308l-101 -474h504l-33 -158h-504l-110 -518h596l-34 -158h-776l312 1466h748l-34 -158h-568zM501 1629l43 206h185l-43 -206h-185zM873 1629l43 206h187l-43 -206h-187z" />
    <glyph glyph-name="afii10051" unicode="&#x402;" horiz-adv-x="1380" 
d="M1336 559q0 -139 -49 -272.5t-161 -222.5t-289 -89q-68 0 -115 7.5t-92 23.5l61 160q35 -17 66.5 -24.5t77.5 -7.5q110 0 180.5 60t102.5 150t32 183q0 123 -57.5 190.5t-165.5 67.5q-67 0 -141 -16.5t-147 -54.5l-152 -714h-180l278 1309h-373l34 157h931l-34 -157h-378
l-94 -442q78 40 149 58.5t152 18.5q108 0 190.5 -47.5t128 -134.5t45.5 -203z" />
    <glyph glyph-name="afii10052" unicode="&#x403;" horiz-adv-x="916" 
d="M508 1310l-279 -1310h-180l312 1466h707l-33 -156h-527zM593 1606l132 254h245l-249 -254h-128z" />
    <glyph glyph-name="afii10053" unicode="&#x404;" horiz-adv-x="1140" 
d="M893 508l162 -44q-53 -169 -122 -275.5t-168 -160t-241 -53.5q-122 0 -215 51.5t-146.5 159.5t-53.5 273q0 130 33 282q49 248 126 413t194.5 251t284.5 86q192 0 299.5 -108t117.5 -321l-177 -40q-25 311 -245 311q-147 0 -241 -120t-155 -373h358l-36 -166h-358
q-24 -113 -24 -214q0 -161 66.5 -244t185.5 -83q89 0 154 41t113 122.5t88 211.5z" />
    <glyph glyph-name="afii10054" unicode="&#x405;" horiz-adv-x="1131" 
d="M940 1114q0 114 -56.5 168t-175.5 54q-88 0 -150 -33t-93.5 -88.5t-31.5 -120.5q0 -63 34 -111t85 -83.5t139 -84.5q106 -59 171.5 -107t111.5 -121t46 -174q0 -105 -53 -205.5t-167.5 -166.5t-288.5 -66q-131 0 -231.5 42t-157.5 126t-57 206q0 49 8 111l174 15
q-6 -45 -6 -84q0 -261 285 -261q102 0 173 39.5t106.5 100.5t35.5 123q0 68 -35 119t-86 86.5t-141 86.5q-105 58 -169 104.5t-109 119.5t-45 175q0 101 51 194.5t156.5 153t259.5 59.5q113 0 203.5 -38.5t142.5 -113t52 -177.5q0 -52 -10 -106l-175 -14q4 35 4 72z" />
    <glyph glyph-name="afii10055" unicode="&#x406;" horiz-adv-x="504" 
d="M49 0l312 1466h180l-312 -1466h-180z" />
    <glyph glyph-name="afii10056" unicode="&#x407;" horiz-adv-x="504" 
d="M49 0l312 1466h180l-312 -1466h-180zM206 1629l43 206h185l-43 -206h-185zM578 1629l43 206h187l-43 -206h-187z" />
    <glyph glyph-name="afii10057" unicode="&#x408;" horiz-adv-x="917" 
d="M324 -25q-149 0 -227.5 85t-78.5 253q0 53 7 105l175 20q-5 -60 -5 -97q0 -111 33.5 -159.5t105.5 -48.5q60 0 101 29.5t72.5 101.5t57.5 201l213 1001h180l-212 -998q-36 -170 -80.5 -273.5t-125.5 -161.5t-216 -58z" />
    <glyph glyph-name="afii10058" unicode="&#x409;" horiz-adv-x="1715" 
d="M1619 480q0 -117 -48 -225.5t-167.5 -181.5t-319.5 -73h-379l276 1297h-397l-204 -960q-29 -133 -71 -212t-102.5 -114.5t-147.5 -35.5q-82 0 -144 25l62 161q36 -16 67 -16q47 0 76 20.5t47.5 63.5t34.5 119l238 1118h757l-128 -603h151q115 0 205 -43t142 -129t52 -211
zM1438 467q0 230 -241 230h-164l-113 -531h154q196 0 280 79.5t84 221.5z" />
    <glyph glyph-name="afii10059" unicode="&#x40a;" horiz-adv-x="1705" 
d="M1619 480q0 -117 -48 -225.5t-167.5 -181.5t-319.5 -73h-379l148 695h-476l-148 -695h-180l312 1466h180l-131 -616h476l131 616h180l-131 -616h151q116 0 206.5 -40t143 -122.5t52.5 -207.5zM1438 467q0 120 -63 173.5t-178 54.5h-164l-24 -111l-89 -418h152
q195 0 280.5 78.5t85.5 222.5z" />
    <glyph glyph-name="afii10060" unicode="&#x40b;" horiz-adv-x="1436" 
d="M1294 637q0 -68 -18 -154l-103 -483h-180l101 474q14 63 14 121q0 94 -43.5 141t-127.5 47q-150 0 -300 -79l-150 -704h-180l278 1309h-373l34 157h931l-34 -157h-378l-95 -447q162 82 303 82q145 0 233 -73.5t88 -233.5z" />
    <glyph glyph-name="afii10061" unicode="&#x40c;" horiz-adv-x="1065" 
d="M1128 1305q-34 0 -56.5 -12t-37.5 -32t-39 -60l-16 -28l-77 -129q-55 -93 -88 -141.5t-69 -77.5t-83 -41l-1 -4q49 -22 79.5 -56t53.5 -93.5t47 -165.5l105 -465h-191l-83 409q-23 114 -48.5 175t-68.5 89.5t-118 28.5h-59l-149 -702h-180l312 1466h180l-128 -603h53
q63 0 103 19.5t78.5 69.5t101.5 158l76 131q50 86 87 132t86.5 69.5t122.5 23.5h98l-34 -161h-57zM687 1606l132 254h245l-249 -254h-128z" />
    <glyph glyph-name="afii10062" unicode="&#x40e;" horiz-adv-x="1093" 
d="M537 285q-76 -122 -130.5 -186.5t-115 -94t-143.5 -29.5q-32 0 -65 6.5t-56 15.5l35 160q54 -21 90 -21q49 0 81 16t65.5 58.5t90.5 134.5l81 132l-236 989h182l167 -804l494 804h200zM800 1696q151 0 191 137h130q-37 -127 -115 -187t-209 -60q-123 0 -200 63.5
t-84 183.5h135q13 -68 53.5 -102.5t98.5 -34.5z" />
    <glyph glyph-name="afii10145" unicode="&#x40f;" horiz-adv-x="1253" 
d="M599 0l-86 -406h-171l86 406h-379l312 1466h180l-276 -1297h569l276 1297h180l-312 -1466h-379z" />
    <glyph glyph-name="afii10017" unicode="&#x410;" horiz-adv-x="1130" 
d="M291 423l-216 -423h-193l781 1466h205l154 -1466h-182l-35 423h-514zM734 1290l-368 -721h428z" />
    <glyph glyph-name="afii10018" unicode="&#x411;" horiz-adv-x="1112" 
d="M584 863q118 0 210.5 -43t145.5 -129t53 -211q0 -117 -49 -225.5t-170.5 -181.5t-325.5 -73h-399l312 1466h717l-35 -164h-537l-93 -439h171zM448 166q209 0 286.5 88t77.5 213q0 230 -251 230h-184l-113 -531h184z" />
    <glyph glyph-name="afii10019" unicode="&#x412;" horiz-adv-x="1140" 
d="M1129 1138q0 -124 -69.5 -228t-216.5 -150q96 -44 145.5 -124.5t49.5 -187.5q0 -115 -47 -215t-168.5 -166.5t-329.5 -66.5h-444l312 1466h356q133 0 225.5 -42t139.5 -116t47 -170zM407 838h212q121 0 193.5 39.5t102 100t29.5 128.5q0 92 -63 147t-219 55h-155z
M263 158h222q201 0 285 75.5t84 212.5q0 113 -73.5 173.5t-217.5 60.5h-189z" />
    <glyph glyph-name="afii10020" unicode="&#x413;" horiz-adv-x="916" 
d="M508 1310l-279 -1310h-180l312 1466h707l-33 -156h-527z" />
    <glyph glyph-name="afii10021" unicode="&#x414;" horiz-adv-x="1218" 
d="M1099 157l-120 -563h-171l86 406h-796l-86 -406h-171l120 563h125q123 225 211 475.5t149 540.5l63 293h719l-278 -1309h149zM624 1163q-61 -288 -145.5 -534.5t-204.5 -471.5h496l244 1152h-359z" />
    <glyph glyph-name="afii10022" unicode="&#x415;" horiz-adv-x="1029" 
d="M507 1308l-101 -474h504l-33 -158h-504l-110 -518h596l-34 -158h-776l312 1466h748l-34 -158h-568z" />
    <glyph glyph-name="afii10024" unicode="&#x416;" horiz-adv-x="1582" 
d="M363 409l-256 -409h-214l305 465q79 121 125 182.5t90 96t97 46.5l1 4q-32 23 -53 51.5t-37 77t-29 129.5l-21 128q-19 125 -113 125h-46l34 161h77q92 0 146.5 -59t73.5 -186l16 -111q16 -111 32.5 -160t49 -68t100.5 -19h31l128 603h180l-128 -603h31q67 0 106.5 19.5
t74.5 67t100 160.5l75 131q48 84 86 130.5t88.5 70.5t123.5 24h98l-34 -161h-62q-44 0 -72 -28t-69 -97l-76 -128q-81 -137 -133 -199.5t-111 -78.5l-1 -4q46 -19 76.5 -51.5t56.5 -98t53 -182.5l100 -438h-196l-83 409q-24 117 -47 176.5t-65.5 88t-118.5 28.5h-36
l-149 -702h-180l149 702h-35q-77 0 -126.5 -28t-90.5 -82.5t-122 -182.5z" />
    <glyph glyph-name="afii10025" unicode="&#x417;" horiz-adv-x="1057" 
d="M952 491q0 -116 -44.5 -234t-149 -200t-274.5 -82q-154 0 -247 65.5t-131.5 159.5t-39.5 190l186 36q1 -113 49.5 -201.5t179.5 -88.5q104 0 168.5 53.5t91.5 132t27 157.5q0 104 -51.5 164.5t-149.5 60.5h-88l34 161h80q88 0 146.5 41t86 104t27.5 130q0 93 -49.5 141.5
t-130.5 48.5q-89 0 -148.5 -57t-94.5 -186l-169 31q51 192 157 282.5t267 90.5q96 0 176 -40.5t127 -116.5t47 -177q0 -72 -26 -146.5t-84 -136t-147 -88.5v-4q85 -32 129.5 -105.5t44.5 -185.5z" />
    <glyph glyph-name="afii10026" unicode="&#x418;" horiz-adv-x="1261" 
d="M986 0h-172l273 1204h-2l-838 -1204h-198l312 1466h173l-271 -1201h2l838 1201h195z" />
    <glyph glyph-name="afii10027" unicode="&#x419;" horiz-adv-x="1261" 
d="M986 0h-172l273 1204h-2l-838 -1204h-198l312 1466h173l-271 -1201h2l838 1201h195zM874 1696q151 0 191 137h130q-37 -127 -115 -187t-209 -60q-123 0 -200 63.5t-84 183.5h135q13 -68 53.5 -102.5t98.5 -34.5z" />
    <glyph glyph-name="afii10028" unicode="&#x41a;" horiz-adv-x="1065" 
d="M1128 1305q-34 0 -56.5 -12t-37.5 -32t-39 -60l-16 -28l-77 -129q-55 -93 -88 -141.5t-69 -77.5t-83 -41l-1 -4q49 -22 79.5 -56t53.5 -93.5t47 -165.5l105 -465h-191l-83 409q-23 114 -48.5 175t-68.5 89.5t-118 28.5h-59l-149 -702h-180l312 1466h180l-128 -603h53
q63 0 103 19.5t78.5 69.5t101.5 158l76 131q50 86 87 132t86.5 69.5t122.5 23.5h98l-34 -161h-57z" />
    <glyph glyph-name="afii10029" unicode="&#x41b;" horiz-adv-x="1200" 
d="M44 145q47 0 76 20.5t47.5 63.5t34.5 119l238 1118h797l-312 -1466h-180l276 1297h-437l-204 -960q-29 -133 -71 -212t-102.5 -114.5t-147.5 -35.5q-82 0 -144 25l62 161q36 -16 67 -16z" />
    <glyph glyph-name="afii10030" unicode="&#x41c;" horiz-adv-x="1600" 
d="M1149 0l294 1293l-673 -1293h-165l-120 1285l-263 -1285h-173l312 1466h266l112 -1224l632 1224h266l-312 -1466h-176z" />
    <glyph glyph-name="afii10031" unicode="&#x41d;" horiz-adv-x="1260" 
d="M805 0l148 695h-576l-148 -695h-180l312 1466h180l-131 -616h576l131 616h180l-312 -1466h-180z" />
    <glyph glyph-name="afii10032" unicode="&#x41e;" horiz-adv-x="1259" 
d="M1230 993q0 -108 -23 -242q-67 -371 -220 -575.5t-419 -204.5q-209 0 -330.5 121.5t-121.5 377.5q0 119 28 263q134 758 639 758q209 0 328 -125.5t119 -372.5zM320 709q-25 -131 -25 -233q0 -178 71.5 -261.5t201.5 -83.5q344 0 453 604q28 141 28 253q0 174 -69.5 261
t-202.5 87q-190 0 -296 -159.5t-161 -467.5z" />
    <glyph glyph-name="afii10033" unicode="&#x41f;" horiz-adv-x="1260" 
d="M805 0l278 1309h-576l-278 -1309h-180l312 1466h936l-312 -1466h-180z" />
    <glyph glyph-name="afii10034" unicode="&#x420;" horiz-adv-x="1120" 
d="M1163 1075q0 -130 -56.5 -235t-188.5 -170t-347 -65h-213l-129 -605h-180l312 1466h347q127 0 230 -42.5t164 -130t61 -218.5zM391 761h198q142 0 227.5 43t121.5 110t36 145q0 120 -76 185.5t-220 65.5h-170z" />
    <glyph glyph-name="afii10035" unicode="&#x421;" horiz-adv-x="1140" 
d="M1164 1062l-177 -40q-25 311 -245 311q-111 0 -190.5 -67.5t-135 -202t-97.5 -346.5q-34 -145 -34 -256q0 -162 67 -245t186 -83q89 0 154 41t113 122.5t88 211.5l162 -44q-53 -169 -122 -275.5t-168 -160t-241 -53.5q-122 0 -215 51.5t-146.5 159.5t-53.5 273
q0 130 33 282q49 248 126 413t194.5 251t284.5 86q192 0 299.5 -108t117.5 -321z" />
    <glyph glyph-name="afii10036" unicode="&#x422;" horiz-adv-x="1025" 
d="M765 1309l-278 -1309h-180l278 1309h-373l34 157h931l-34 -157h-378z" />
    <glyph glyph-name="afii10037" unicode="&#x423;" horiz-adv-x="1093" 
d="M537 285q-76 -122 -130.5 -186.5t-115 -94t-143.5 -29.5q-32 0 -65 6.5t-56 15.5l35 160q54 -21 90 -21q49 0 81 16t65.5 58.5t90.5 134.5l81 132l-236 989h182l167 -804l494 804h200z" />
    <glyph glyph-name="afii10038" unicode="&#x424;" horiz-adv-x="1373" 
d="M1334 806q0 -29 -1 -44q-11 -177 -86.5 -311t-211.5 -207.5t-321 -73.5h-17l-39 -180h-174l43 200q-188 43 -293 170t-105 321q0 27 1 40q11 182 88 316t214 207t322 73h13l33 159h174l-38 -178q186 -43 292 -170.5t106 -321.5zM307 693q0 -135 65 -224.5t187 -124.5
l175 819q-197 -5 -304 -114t-122 -316q-1 -14 -1 -40zM1157 797q0 142 -67 229t-186 119l-175 -821q196 4 303 116.5t123 306.5q2 34 2 50z" />
    <glyph glyph-name="afii10039" unicode="&#x425;" horiz-adv-x="1130" 
d="M1006 0h-189l-164 457q-44 129 -55 176q-80 -114 -183 -239l-319 -394h-201l633 770l-250 696h189l118 -348q44 -131 66 -203q58 84 129 171l308 380h193l-555 -683z" />
    <glyph glyph-name="afii10040" unicode="&#x426;" horiz-adv-x="1277" 
d="M1158 157l-120 -563h-170l86 406h-905l312 1466h180l-278 -1309h566l278 1309h180l-278 -1309h149z" />
    <glyph glyph-name="afii10041" unicode="&#x427;" horiz-adv-x="1200" 
d="M745 0l128 602q-95 -43 -167 -63.5t-140 -20.5q-155 0 -246.5 79.5t-91.5 237.5q0 62 17 144l104 487h180l-102 -479q-15 -70 -15 -125q0 -93 44.5 -138t133.5 -45q150 0 316 78l151 709h180l-312 -1466h-180z" />
    <glyph glyph-name="afii10042" unicode="&#x428;" horiz-adv-x="1638" 
d="M49 0l312 1466h180l-278 -1309h387l278 1309h180l-278 -1309h387l278 1309h180l-312 -1466h-1314z" />
    <glyph glyph-name="afii10043" unicode="&#x429;" horiz-adv-x="1664" 
d="M1545 157l-120 -563h-170l86 406h-1292l312 1466h180l-278 -1309h387l278 1309h180l-278 -1309h387l278 1309h180l-279 -1309h149z" />
    <glyph glyph-name="afii10044" unicode="&#x42a;" horiz-adv-x="1266" 
d="M1170 480q0 -117 -49 -225.5t-170.5 -181.5t-325.5 -73h-399l279 1310h-293l33 156h473l-128 -603h171q118 0 210.5 -43t145.5 -129t53 -211zM989 467q0 230 -251 230h-184l-113 -531h184q187 0 275.5 78.5t88.5 222.5z" />
    <glyph glyph-name="afii10045" unicode="&#x42b;" horiz-adv-x="1533" 
d="M541 1466l-128 -603h151q115 0 205 -43t142 -129t52 -211q0 -117 -48 -225.5t-167.5 -181.5t-319.5 -73h-379l312 1466h180zM1078 0l312 1466h180l-312 -1466h-180zM428 166q179 0 266.5 78t87.5 223q0 230 -241 230h-164l-113 -531h164z" />
    <glyph glyph-name="afii10046" unicode="&#x42c;" horiz-adv-x="1089" 
d="M541 1466l-128 -603h171q118 0 210.5 -43t145.5 -129t53 -211q0 -117 -49 -225.5t-170.5 -181.5t-325.5 -73h-399l312 1466h180zM448 166q190 0 277 80t87 221q0 230 -251 230h-184l-113 -531h184z" />
    <glyph glyph-name="afii10047" unicode="&#x42d;" horiz-adv-x="1140" 
d="M1118 1005q0 -119 -30 -264q-58 -275 -141.5 -442.5t-202.5 -245.5t-287 -78q-118 0 -209 48t-142.5 143.5t-51.5 234.5q0 30 3 63l180 44q-4 -35 -4 -73q0 -147 62.5 -224.5t166.5 -77.5q112 0 192.5 59t137 177.5t99.5 304.5h-377l36 166h373q13 87 13 163
q0 164 -61 247t-177 83q-118 0 -198 -76t-139 -235l-159 40q49 144 114.5 238t160.5 142.5t227 48.5q130 0 223 -56.5t142 -165.5t49 -264z" />
    <glyph glyph-name="afii10048" unicode="&#x42e;" horiz-adv-x="1648" 
d="M1619 999q0 -110 -24 -248q-65 -371 -213 -575.5t-406 -204.5q-198 0 -314 121.5t-116 377.5q0 89 15 195h-191l-141 -665h-180l312 1466h180l-138 -646h186q143 671 602 671q203 0 315.5 -121t112.5 -371zM1437 996q0 340 -251 340q-179 -1 -281.5 -160t-155.5 -467
q-24 -135 -24 -234q0 -178 67 -261t185 -83q330 0 433 604q27 150 27 261z" />
    <glyph glyph-name="afii10049" unicode="&#x42f;" horiz-adv-x="1176" 
d="M901 0h-180l140 657h-55q-105 0 -164.5 -17.5t-111.5 -68t-129 -162.5l-279 -409h-215l297 434q80 120 147 188.5t129 73.5q-114 39 -181 129t-67 208q0 201 136 317t430 116h415zM1000 1311h-214q-368 0 -368 -269q0 -104 69.5 -167t200.5 -63h206z" />
    <glyph glyph-name="afii10065" unicode="&#x430;" horiz-adv-x="917" 
d="M844 821q0 -41 -11 -96l-102 -483q-15 -72 -15 -129q0 -65 19 -113h-175q-9 34 -11 114q-61 -71 -126.5 -105.5t-147.5 -34.5q-86 0 -142.5 35.5t-82.5 91.5t-26 120q0 152 101.5 241.5t294.5 134.5q155 37 231 66q22 94 22 135q0 73 -40.5 110t-101.5 37
q-156 0 -207 -197l-163 13q46 164 137 244.5t245 80.5q86 0 154 -29t107.5 -88.5t39.5 -147.5zM392 456q-96 -29 -148.5 -79.5t-52.5 -135.5q0 -59 32.5 -95.5t97.5 -36.5q62 0 118.5 37t96.5 99.5t56 137.5l30 142q-73 -24 -230 -69z" />
    <glyph glyph-name="afii10066" unicode="&#x431;" horiz-adv-x="1028" 
d="M887 1322h-146q-105 0 -178.5 -46.5t-126 -137t-100.5 -236.5l1 -1q62 77 142 117.5t170 40.5q93 0 163 -40.5t109.5 -121.5t39.5 -198q0 -85 -20 -179q-40 -186 -103 -305.5t-158.5 -179.5t-231.5 -60q-165 0 -259 102t-94 311q0 121 32 269q60 283 142 461t193.5 263
t261.5 85h184q24 0 36 5t16.5 12.5t8.5 22.5h136q-12 -91 -64.5 -137.5t-153.5 -46.5zM280 567q-22 -100 -22 -189q0 -136 54.5 -200t138.5 -64q120 0 196 95t121 310q18 82 18 156q0 121 -51 183t-135 62q-70 0 -134 -39.5t-113 -119t-73 -194.5z" />
    <glyph glyph-name="afii10067" unicode="&#x432;" horiz-adv-x="895" 
d="M816 817q0 -50 -19 -103.5t-58.5 -99t-99.5 -70.5q59 -31 90 -83t31 -115q0 -166 -99 -256t-307 -90h-339l226 1062h295q134 0 207 -65t73 -180zM314 611h144q69 0 111.5 28.5t60.5 71t18 86.5q0 59 -37 93t-91 34h-139zM213 138h163q111 0 161.5 52t50.5 137
q0 68 -39 109t-103 41h-160z" />
    <glyph glyph-name="afii10068" unicode="&#x433;" horiz-adv-x="697" 
d="M379 918l-195 -918h-169l226 1062h519l-31 -144h-350z" />
    <glyph glyph-name="afii10069" unicode="&#x434;" horiz-adv-x="1076" 
d="M408 1062h588l-195 -918h133l-105 -494h-162l74 350h-652l-74 -350h-162l105 494h102q132 209 211.5 429.5t136.5 488.5zM536 918q-46 -201 -122 -401.5t-183 -372.5h401l164 774h-260z" />
    <glyph glyph-name="afii10070" unicode="&#x435;" horiz-adv-x="965" 
d="M917 747q0 -73 -19 -161q-3 -15 -24 -95h-626q-16 -77 -16 -143q0 -116 51 -176t143 -60q182 0 247 237l163 -15q-51 -167 -148 -263t-265 -96q-174 0 -266 98.5t-92 278.5q0 74 19 172q53 275 171.5 418.5t321.5 143.5q89 0 166 -32.5t125.5 -109t48.5 -197.5zM279 628
h464q13 65 13 111q0 101 -49.5 155.5t-139.5 54.5q-115 0 -181 -80t-107 -241z" />
    <glyph glyph-name="afii10072" unicode="&#x436;" horiz-adv-x="1339" 
d="M930 337q-18 84 -62.5 114.5t-123.5 30.5l-103 -482h-169l103 482q-51 0 -87.5 -12t-70 -43t-71.5 -90l-216 -337h-193l279 415q79 119 204 138q-43 28 -63.5 60.5t-31.5 95.5l-20 121q-7 39 -19.5 58.5t-28.5 25t-40 5.5h-44l31 143h59q84 0 126.5 -37t56.5 -126
l20 -124q10 -64 21 -95t37.5 -47t78.5 -16l95 445h169l-95 -445q52 0 85 16t58 47t62 95l72 124q40 69 67 101t64.5 47t101.5 15h79l-31 -143h-34q-32 0 -48 -5t-30.5 -22.5t-40.5 -61.5l-72 -121q-43 -73 -83.5 -112t-96.5 -50q63 -14 101.5 -56t57.5 -119l92 -372h-174z
" />
    <glyph glyph-name="afii10073" unicode="&#x437;" horiz-adv-x="828" 
d="M499 1086q93 0 160.5 -33t103 -90.5t35.5 -131.5q0 -92 -53 -171t-172 -115q67 -27 102 -86.5t35 -134.5q0 -85 -35 -164t-115.5 -131.5t-209.5 -52.5q-144 0 -236 71.5t-114 202.5l166 55q16 -98 65.5 -143t120.5 -45q66 0 109.5 31t63 77t19.5 93q0 66 -38.5 114.5
t-114.5 48.5h-84l31 144h86q71 0 117.5 29t68 72t21.5 86q0 57 -34.5 95t-102.5 38q-138 0 -210 -177l-135 64q61 126 141.5 190t208.5 64z" />
    <glyph glyph-name="afii10074" unicode="&#x438;" horiz-adv-x="1029" 
d="M240 285l606 777h168l-226 -1062h-164l165 776l-606 -776h-168l226 1062h164z" />
    <glyph glyph-name="afii10075" unicode="&#x439;" horiz-adv-x="1029" 
d="M240 285l606 777h168l-226 -1062h-164l165 776l-606 -776h-168l226 1062h164zM662 1321q69 0 113 28.5t69 88.5h125q-35 -125 -111.5 -186t-204.5 -61q-120 0 -193.5 63.5t-78.5 183.5h125q14 -58 55 -87.5t101 -29.5z" />
    <glyph glyph-name="afii10076" unicode="&#x43a;" horiz-adv-x="882" 
d="M829 919q-27 0 -43 -6t-31.5 -25t-39.5 -61l-69 -122q-38 -67 -78.5 -103.5t-99.5 -54.5q64 -14 101.5 -52.5t56.5 -114.5l93 -380h-178l-72 337q-13 58 -36.5 89.5t-58.5 43.5t-87 12l-103 -482h-169l226 1062h169l-95 -445q52 0 85 16t57.5 48t59.5 96l69 125
q36 65 65 98t69 47.5t105 14.5h79l-31 -143h-44z" />
    <glyph glyph-name="afii10077" unicode="&#x43b;" horiz-adv-x="1026" 
d="M785 0h-169l195 918h-338l-135 -635q-24 -112 -58.5 -178t-90 -97t-140.5 -31q-36 0 -73 6t-60 15l57 138q32 -15 72 -15q38 0 61.5 19t38.5 58t30 110l160 754h676z" />
    <glyph glyph-name="afii10078" unicode="&#x43c;" horiz-adv-x="1249" 
d="M851 0l184 863l-451 -863h-146l-82 863l-184 -863h-157l226 1062h237l76 -838l431 838h249l-226 -1062h-157z" />
    <glyph glyph-name="afii10079" unicode="&#x43d;" horiz-adv-x="1030" 
d="M620 0l101 474h-436l-101 -474h-169l226 1062h169l-95 -444h436l95 444h169l-226 -1062h-169z" />
    <glyph glyph-name="afii10080" unicode="&#x43e;" horiz-adv-x="1025" 
d="M72 369q0 79 16 163q46 257 173.5 406t330.5 149q176 0 270 -103.5t94 -286.5q0 -71 -15 -152q-49 -266 -176.5 -419t-328.5 -153q-174 0 -269 104t-95 292zM786 702q0 123 -51.5 185t-147.5 62q-119 0 -205 -104.5t-123 -311.5q-16 -83 -16 -155q0 -129 52.5 -197.5
t148.5 -68.5q108 0 196 105t131 340q15 81 15 145z" />
    <glyph glyph-name="afii10081" unicode="&#x43f;" horiz-adv-x="1004" 
d="M763 0h-169l195 918h-410l-195 -918h-169l226 1062h748z" />
    <glyph glyph-name="afii10082" unicode="&#x440;" 
d="M961 724q0 -91 -21 -188q-43 -202 -105.5 -325t-150.5 -179.5t-209 -56.5q-90 0 -159.5 37.5t-105.5 111.5l-112 -529h-169l312 1467h150l-29 -134q67 81 138 119.5t159 38.5q90 0 158 -41t106 -122.5t38 -198.5zM289 549q-22 -104 -22 -184q0 -128 53 -189t144 -61
q72 0 126.5 37.5t98.5 129.5t79 253q21 99 21 175q0 117 -46 177t-130 60q-114 0 -197.5 -98t-126.5 -300z" />
    <glyph glyph-name="afii10083" unicode="&#x441;" horiz-adv-x="922" 
d="M923 749l-164 -31q-2 116 -44.5 173t-127.5 57q-117 0 -198.5 -102.5t-123.5 -301.5q-23 -106 -23 -193q0 -119 47 -178.5t136 -59.5q91 0 156.5 68t116.5 209l160 -18q-76 -204 -179.5 -300.5t-259.5 -96.5q-165 0 -258.5 99t-93.5 285q0 89 22 190q53 249 181 393
t319 144q155 0 242.5 -85.5t91.5 -251.5z" />
    <glyph glyph-name="afii10084" unicode="&#x442;" horiz-adv-x="737" 
d="M535 918l-195 -918h-169l195 918h-224l31 144h617l-31 -144h-224z" />
    <glyph glyph-name="afii10085" unicode="&#x443;" horiz-adv-x="917" 
d="M33 -431q-43 0 -85 9t-72 25l59 144q32 -15 52.5 -20.5t42.5 -5.5q46 0 83.5 39.5t69.5 99.5l86 157l-124 1045h172l84 -811l435 811h178l-687 -1250q-56 -101 -104 -154t-92 -71t-98 -18z" />
    <glyph glyph-name="afii10086" unicode="&#x444;" horiz-adv-x="1543" 
d="M1480 731q0 -93 -23 -201q-42 -198 -103 -320t-145 -178.5t-195 -56.5q-174 0 -247 139l-110 -519h-169l110 519q-56 -71 -117 -105t-140 -34q-82 0 -145 37.5t-99 116t-36 196.5q0 90 24 207q40 189 97.5 310t144 182.5t210.5 61.5q79 0 140 -33t100 -97l109 510h169
l-108 -509q63 67 121 98t134 31q82 0 145 -40t98 -120t35 -195zM704 554q19 87 19 164q0 127 -51.5 178t-117.5 51q-97 0 -157 -68t-89 -155.5t-54 -208.5q-22 -103 -22 -183q0 -108 38 -163.5t105 -55.5q235 0 329 441zM1287 535q22 104 22 185q0 111 -39 169t-108 58
q-54 0 -111.5 -31.5t-113 -119t-88.5 -242.5q-26 -121 -26 -209q0 -131 49 -180.5t118 -49.5q72 0 124.5 37t95 129t77.5 254z" />
    <glyph glyph-name="afii10087" unicode="&#x445;" horiz-adv-x="917" 
d="M782 0h-184l-111 284q-31 80 -48 135l-54.5 -77.5t-55.5 -73.5l-216 -268h-203l460 543l-209 519h179l90 -222q31 -76 60 -163q95 131 116 158l181 227h196l-426 -505z" />
    <glyph glyph-name="afii10088" unicode="&#x446;" horiz-adv-x="1047" 
d="M905 144l-105 -494h-162l74 350h-697l226 1062h169l-195 -918h389l195 918h169l-195 -918h132z" />
    <glyph glyph-name="afii10089" unicode="&#x447;" horiz-adv-x="977" 
d="M567 0l94 440q-61 -36 -123.5 -58.5t-130.5 -22.5q-124 0 -193.5 66t-69.5 191q0 54 13 113l71 333h169l-69 -322q-11 -53 -11 -90q0 -141 133 -141q59 0 124.5 20.5t116.5 54.5l102 478h169l-226 -1062h-169z" />
    <glyph glyph-name="afii10090" unicode="&#x448;" horiz-adv-x="1453" 
d="M15 0l226 1062h169l-195 -916h345l195 916h169l-195 -916h345l195 916h169l-226 -1062h-1197z" />
    <glyph glyph-name="afii10091" unicode="&#x449;" horiz-adv-x="1515" 
d="M1373 146l-105 -496h-163l74 350h-1164l226 1062h169l-195 -916h345l195 916h169l-195 -916h345l195 916h169l-195 -916h130z" />
    <glyph glyph-name="afii10092" unicode="&#x44a;" horiz-adv-x="1036" 
d="M913 366q0 -174 -98.5 -270t-295.5 -96h-334l195 918h-237l31 144h406l-90 -425h128q92 0 158.5 -33t101.5 -94t35 -144zM740 347q0 72 -41 109.5t-113 37.5h-127l-74 -351h142q106 0 159.5 54t53.5 150z" />
    <glyph glyph-name="afii10093" unicode="&#x44b;" horiz-adv-x="1241" 
d="M723 366q0 -174 -98 -270t-296 -96h-314l226 1062h169l-90 -425h108q92 0 158.5 -33t101.5 -94t35 -144zM831 0l226 1062h169l-226 -1062h-169zM337 143q107 0 160 54.5t53 149.5q0 72 -41 109.5t-113 37.5h-107l-74 -351h122z" />
    <glyph glyph-name="afii10094" unicode="&#x44c;" horiz-adv-x="866" 
d="M743 366q0 -171 -97 -268.5t-297 -97.5h-334l226 1062h169l-90 -425h128q92 0 158.5 -33t101.5 -94t35 -144zM357 143q107 0 160 54.5t53 149.5q0 72 -41 109.5t-113 37.5h-127l-74 -351h142z" />
    <glyph glyph-name="afii10095" unicode="&#x44d;" horiz-adv-x="923" 
d="M851 684q0 -85 -21 -185q-54 -259 -167.5 -391.5t-311.5 -132.5q-104 0 -184.5 41.5t-126 123.5t-45.5 201q0 21 1 31l168 18q-1 -12 -1 -34q0 -119 50.5 -181t139.5 -62q115 0 183.5 89t110.5 272h-308l30 144h304q5 39 5 87q0 122 -48 182.5t-137 60.5
q-91 0 -149 -55.5t-101 -174.5l-152 31q63 174 158 255.5t251 81.5q106 0 185 -47t122.5 -138t43.5 -217z" />
    <glyph glyph-name="afii10096" unicode="&#x44e;" horiz-adv-x="1361" 
d="M1291 697q0 -68 -14 -152q-48 -266 -170 -419t-315 -153q-164 0 -253.5 105t-89.5 293q0 49 6 103h-170l-101 -474h-169l226 1062h169l-95 -444h167q52 215 168 342t298 127q166 0 254.5 -103t88.5 -287zM1120 701q0 123 -46 185.5t-131 62.5q-114 0 -193.5 -104.5
t-114.5 -311.5q-14 -89 -14 -154q0 -130 46.5 -198.5t132.5 -68.5q101 0 184 105t123 340q13 77 13 144z" />
    <glyph glyph-name="afii10097" unicode="&#x44f;" horiz-adv-x="909" 
d="M499 0l92 434h-44q-31 0 -56.5 -12t-55.5 -42t-74 -87l-222 -293h-196l248 320q49 62 86.5 99.5t66.5 45.5q-185 69 -185 265q0 90 38.5 164.5t128.5 121t245 46.5h323l-226 -1062h-169zM335 729q0 -66 43 -109t115 -43h129l72 342h-147q-113 0 -162.5 -53t-49.5 -137z
" />
    <glyph glyph-name="afii10071" unicode="&#x451;" horiz-adv-x="965" 
d="M917 747q0 -73 -19 -161q-3 -15 -24 -95h-626q-16 -77 -16 -143q0 -116 51 -176t143 -60q182 0 247 237l163 -15q-51 -167 -148 -263t-265 -96q-174 0 -266 98.5t-92 278.5q0 74 19 172q53 275 171.5 418.5t321.5 143.5q89 0 166 -32.5t125.5 -109t48.5 -197.5zM279 628
h464q13 65 13 111q0 101 -49.5 155.5t-139.5 54.5q-115 0 -181 -80t-107 -241zM351 1225l43 206h185l-43 -206h-185zM723 1225l43 206h187l-43 -206h-187z" />
    <glyph glyph-name="afii10099" unicode="&#x452;" horiz-adv-x="1026" 
d="M947 805q0 -62 -14 -126l-144 -679h-1l-24 -112q-24 -111 -60 -181.5t-95 -106.5t-149 -36q-74 0 -146 25l65 147q51 -20 83 -20q40 0 64 16t40.5 57t33.5 121l118 552l45 215q11 48 11 96q0 83 -40.5 126t-118.5 43q-71 0 -131 -37.5t-102 -105t-61 -155.5l-137 -644
h-169l255 1200h-115l28 129h115l29 137h169l-29 -137h266l-28 -129h-266l-57 -267q62 74 137.5 113.5t162.5 39.5q76 0 136 -31t94.5 -94.5t34.5 -155.5z" />
    <glyph glyph-name="afii10100" unicode="&#x453;" horiz-adv-x="697" 
d="M379 918l-195 -918h-169l226 1062h519l-31 -144h-350zM403 1211l132 254h245l-249 -254h-128z" />
    <glyph glyph-name="afii10101" unicode="&#x454;" horiz-adv-x="922" 
d="M698 390l160 -18q-76 -204 -179.5 -300.5t-259.5 -96.5q-165 0 -258.5 99t-93.5 285q0 89 22 190q53 249 181 393t319 144q155 0 242.5 -85.5t91.5 -251.5l-164 -31q-2 116 -44.5 173t-127.5 57q-106 0 -182.5 -83t-121.5 -247h303l-30 -144h-304q-11 -71 -11 -123
q0 -119 47 -178.5t137 -59.5q91 0 156.5 68t116.5 209z" />
    <glyph glyph-name="afii10102" unicode="&#x455;" horiz-adv-x="920" 
d="M514 947q-64 0 -106 -20.5t-61.5 -53t-19.5 -68.5q0 -38 24 -67.5t59.5 -51.5t99.5 -55q89 -46 144.5 -84t95.5 -98.5t40 -146.5q0 -83 -38.5 -157t-126 -122t-227.5 -48q-174 0 -278 81t-107 236l169 25q-1 -69 29.5 -115t81 -68t108.5 -22q73 0 122 26.5t72 66.5t23 82
q0 46 -27 81t-66.5 60.5t-109.5 63.5q-83 43 -134.5 78t-87.5 88.5t-36 127.5q0 78 39 146t120 111t201 43q169 0 262 -67t93 -187q0 -24 -1 -37l-172 -15q3 79 -43.5 123t-141.5 44z" />
    <glyph glyph-name="afii10103" unicode="&#x456;" horiz-adv-x="425" 
d="M283 1262l44 204h169l-44 -204h-169zM15 0l226 1062h169l-226 -1062h-169z" />
    <glyph glyph-name="afii10104" unicode="&#x457;" horiz-adv-x="425" 
d="M15 0l226 1062h169l-226 -1062h-169zM80 1225l43 206h185l-43 -206h-185zM452 1225l43 206h187l-43 -206h-187z" />
    <glyph glyph-name="afii10105" unicode="&#x458;" horiz-adv-x="439" 
d="M297 1262l44 204h169l-44 -204h-169zM-130 -436q-79 0 -146 25l55 147q51 -20 83 -20q55 0 90 41.5t58 152.5l245 1152h169l-250 -1174q-24 -115 -60 -183.5t-95 -104.5t-149 -36z" />
    <glyph glyph-name="afii10106" unicode="&#x459;" horiz-adv-x="1407" 
d="M1284 366q0 -175 -98.5 -270.5t-295.5 -95.5h-314l195 918h-298l-135 -635q-24 -112 -58.5 -178t-90 -97t-140.5 -31q-36 0 -73 6t-60 15l57 138q32 -15 72 -15q38 0 61.5 19t38.5 58t30 110l160 754h636l-90 -425h108q92 0 158.5 -33t101.5 -94t35 -144zM1111 347
q0 72 -41 109.5t-113 37.5h-107l-74 -351h122q108 0 160.5 55t52.5 149z" />
    <glyph glyph-name="afii10107" unicode="&#x45a;" horiz-adv-x="1381" 
d="M1258 366q0 -174 -98.5 -270t-295.5 -96h-314l105 494h-366l-105 -494h-169l226 1062h169l-90 -425h366l90 425h169l-90 -425h108q92 0 158.5 -33t101.5 -94t35 -144zM1085 347q0 72 -41 109.5t-113 37.5h-107l-74 -351h122q107 0 160 55t53 149z" />
    <glyph glyph-name="afii10108" unicode="&#x45b;" horiz-adv-x="1045" 
d="M947 805q0 -62 -14 -126l-144 -679h-169l143 677q11 48 11 96q0 83 -40.5 126t-118.5 43q-71 0 -131 -37.5t-102 -105t-61 -155.5l-137 -644h-169l255 1200h-115l28 129h115l29 137h169l-29 -137h266l-28 -129h-266l-57 -267q62 74 137.5 113.5t162.5 39.5q76 0 136 -31
t94.5 -94.5t34.5 -155.5z" />
    <glyph glyph-name="afii10109" unicode="&#x45c;" horiz-adv-x="882" 
d="M829 919q-27 0 -43 -6t-31.5 -25t-39.5 -61l-69 -122q-38 -67 -78.5 -103.5t-99.5 -54.5q64 -14 101.5 -52.5t56.5 -114.5l93 -380h-178l-72 337q-13 58 -36.5 89.5t-58.5 43.5t-87 12l-103 -482h-169l226 1062h169l-95 -445q52 0 85 16t57.5 48t59.5 96l69 125
q36 65 65 98t69 47.5t105 14.5h79l-31 -143h-44zM466 1211l132 254h245l-249 -254h-128z" />
    <glyph glyph-name="afii10110" unicode="&#x45e;" horiz-adv-x="917" 
d="M33 -431q-43 0 -85 9t-72 25l59 144q32 -15 52.5 -20.5t42.5 -5.5q46 0 83.5 39.5t69.5 99.5l86 157l-124 1045h172l84 -811l435 811h178l-687 -1250q-56 -101 -104 -154t-92 -71t-98 -18zM617 1321q69 0 113 28.5t69 88.5h125q-35 -125 -111.5 -186t-204.5 -61
q-120 0 -193.5 63.5t-78.5 183.5h125q14 -58 55 -87.5t101 -29.5z" />
    <glyph glyph-name="afii10193" unicode="&#x45f;" horiz-adv-x="1010" 
d="M473 0l-74 -350h-162l74 350h-296l226 1062h169l-195 -918h416l195 918h169l-226 -1062h-296z" />
    <glyph glyph-name="afii10050" unicode="&#x490;" horiz-adv-x="916" 
d="M1035 1310h-527l-279 -1310h-180l312 1466h536l86 406h171z" />
    <glyph glyph-name="afii10098" unicode="&#x491;" horiz-adv-x="697" 
d="M729 918h-350l-195 -918h-169l226 1062h357l86 404h162z" />
    <glyph glyph-name="afii61352" unicode="&#x2116;" horiz-adv-x="1800" 
d="M625 0l-177 1109l-236 -1109h-163l312 1466h188l174 -1110l236 1110h163l-312 -1466h-185zM1705 810q0 -73 -19 -159q-44 -204 -141.5 -302t-228.5 -98q-128 0 -190.5 66.5t-62.5 194.5q0 65 19 157q46 214 142 315t224 101q125 0 191 -70t66 -205zM1241 666
q-18 -82 -18 -147q0 -70 25 -102t74 -32q74 0 126 69.5t84 219.5q17 82 17 136q0 72 -27 106.5t-81 34.5q-67 0 -117.5 -66.5t-82.5 -218.5zM974 0l29 135h538l-29 -135h-538z" />
    <glyph glyph-name="uni0496" unicode="&#x496;" horiz-adv-x="1717" 
d="M1701 1305h-62q-44 0 -72 -28t-69 -97l-76 -128q-81 -137 -133 -199.5t-111 -78.5l-1 -4q46 -19 76.5 -51.5t56.5 -98t53 -182.5l64 -281h171l-120 -563h-171l86 406h-126l-83 409q-24 117 -47 176.5t-65.5 88t-118.5 28.5h-36l-149 -702h-180l149 702h-35
q-77 0 -126.5 -28t-90.5 -82.5t-122 -182.5l-256 -409h-214l305 465q79 121 125 182.5t90 96t97 46.5l1 4q-32 23 -53 51.5t-37 77t-29 129.5l-21 128q-19 125 -113 125h-46l34 161h77q92 0 146.5 -59t73.5 -186l16 -111q16 -111 32.5 -160t49 -68t100.5 -19h31l128 603h180
l-128 -603h31q67 0 106.5 19.5t74.5 67t100 160.5l75 131q48 84 86 130.5t88.5 70.5t123.5 24h98z" />
    <glyph glyph-name="uni0497" unicode="&#x497;" horiz-adv-x="1389" 
d="M1330 919h-34q-32 0 -48 -5t-30.5 -22.5t-40.5 -61.5l-72 -121q-43 -73 -83.5 -112t-96.5 -50q63 -14 101.5 -56t57.5 -119l56 -226h107l-106 -496h-163l75 350h-51l-72 337q-18 84 -62.5 114.5t-123.5 30.5l-103 -482h-169l103 482q-51 0 -87.5 -12t-70 -43t-71.5 -90
l-216 -337h-193l279 415q79 119 204 138q-43 28 -63.5 60.5t-31.5 95.5l-20 121q-7 39 -19.5 58.5t-28.5 25t-40 5.5h-44l31 143h59q84 0 126.5 -37t56.5 -126l20 -124q10 -64 21 -95t37.5 -47t78.5 -16l95 445h169l-95 -445q52 0 85 16t58 47t62 95l72 124q40 69 67 101
t64.5 47t101.5 15h79z" />
    <glyph glyph-name="uni049A" unicode="&#x49a;" horiz-adv-x="1151" 
d="M1185 1305h-57q-34 0 -56.5 -12t-37.5 -32t-55 -88l-77 -129q-55 -93 -88 -141.5t-69 -77.5t-83 -41l-1 -4q49 -22 79.5 -56t53.5 -93.5t47 -165.5l70 -308h121l-120 -563h-171l86 406h-72l-83 409q-23 114 -48.5 175t-68.5 89.5t-118 28.5h-59l-149 -702h-180l312 1466
h180l-128 -603h53q63 0 103 19.5t78.5 69.5t101.5 158l76 131q50 86 87 132t86.5 69.5t122.5 23.5h98z" />
    <glyph glyph-name="uni049B" unicode="&#x49b;" horiz-adv-x="933" 
d="M873 919h-44q-27 0 -43 -6t-31.5 -25t-39.5 -61l-69 -122q-38 -67 -78.5 -103.5t-99.5 -54.5q64 -14 101.5 -52.5t56.5 -114.5l57 -234h108l-106 -496h-162l75 350h-57l-72 337q-13 58 -36.5 89.5t-58.5 43.5t-87 12l-103 -482h-169l226 1062h169l-95 -445q52 0 85 16
t57.5 48t59.5 96l69 125q36 65 65 98t69 47.5t105 14.5h79z" />
    <glyph glyph-name="uni04B0" unicode="&#x4b0;" horiz-adv-x="1134" 
d="M1027 734l-30 -144h-338l-126 -590h-182l126 590h-331l30 144h270l-237 732h185l125 -397q64 -193 86 -289l197 280l309 406h212l-569 -732h273z" />
    <glyph glyph-name="uni04B1" unicode="&#x4b1;" horiz-adv-x="910" 
d="M704 129l-28 -129h-255l-86 -406h-169l86 406h-256l28 129h223l-114 933h171l69 -634q8 -60 8 -211q61 134 100 208l342 637h180l-515 -933h216z" />
    <glyph glyph-name="uni04B2" unicode="&#x4b2;" horiz-adv-x="1237" 
d="M1118 157l-120 -563h-171l86 406h-96l-149 414q-59 172 -70 219q-80 -114 -183 -239l-319 -394h-201l633 770l-250 696h189l118 -348q44 -131 66 -203q58 84 129 171l308 380h193l-555 -683l224 -626h168z" />
    <glyph glyph-name="uni04B3" unicode="&#x4b3;" horiz-adv-x="959" 
d="M817 146l-106 -496h-162l75 350h-41l-111 284q-31 80 -48 135l-54.5 -77.5t-55.5 -73.5l-216 -268h-203l460 543l-209 519h179l90 -222q31 -76 60 -163q95 131 116 158l181 227h196l-426 -505l166 -411h109z" />
    <glyph glyph-name="uni04B6" unicode="&#x4b6;" horiz-adv-x="1247" 
d="M1128 157l-120 -563h-171l86 406h-178l128 602q-95 -44 -167 -64t-140 -20q-155 0 -246.5 80.5t-91.5 236.5q0 62 17 144l104 487h180l-102 -479q-15 -70 -15 -125q0 -93 44.5 -138t133.5 -45q150 0 316 78l151 709h180l-279 -1309h170z" />
    <glyph glyph-name="uni04B7" unicode="&#x4b7;" horiz-adv-x="1039" 
d="M897 146l-106 -496h-162l75 350h-137l94 440q-61 -36 -123.5 -58.5t-130.5 -22.5q-124 0 -193.5 66t-69.5 191q0 54 13 113l71 333h169l-69 -322q-11 -53 -11 -90q0 -141 133 -141q59 0 124.5 20.5t116.5 54.5l102 478h169l-195 -916h130z" />
    <glyph glyph-name="glyph497" horiz-adv-x="341" 
d="M-432 -57l1136 1548h148l-1131 -1548h-153z" />
    <glyph glyph-name="afii00208" unicode="&#x2015;" horiz-adv-x="1740" 
d="M-20 458l31 145h1748l-31 -145h-1748z" />
    <glyph glyph-name="uni0E3F" unicode="&#xe3f;" 
d="M755 765q73 -37 112 -106t39 -166q0 -53 -14 -120q-37 -173 -154 -269.5t-297 -103.5l-44 -206h-98l44 206h-300l307 1442h300l33 157h98l-34 -159q116 -10 185.5 -81t69.5 -200q0 -55 -13 -117q-20 -96 -73.5 -164t-160.5 -113zM518 822l101 476h-133l-101 -476h133z
M840 1153q0 61 -29.5 96.5t-93.5 45.5l-100 -469q88 15 142.5 83.5t74.5 181.5q6 33 6 62zM487 678h-133l-113 -534h132zM740 497q0 80 -38.5 126.5t-116.5 53.5l-113 -532q98 7 165.5 75t92.5 187q10 46 10 90z" />
    <glyph glyph-name="franc" unicode="&#x20a3;" 
d="M480 835h458l-32 -147h-458l-48 -226h387l-29 -137l-387 1l-69 -326h-169l69 326h-155l29 136h155l209 980h684l-32 -147h-515z" />
    <glyph glyph-name="lira" unicode="&#x20a4;" 
d="M439 972q0 -18 2 -52h283l-30 -139h-238q5 -47 5 -87q0 -16 -2 -54h205l-29 -139h-203q-28 -93 -88.5 -175.5t-175.5 -161.5q106 38 185 38q40 0 79.5 -9.5t91.5 -26.5q51 -16 80.5 -23t57.5 -7q49 0 88 10.5t104 37.5l31 -137q-128 -69 -239 -69q-46 0 -84.5 10
t-95.5 30q-56 21 -98.5 31.5t-94.5 10.5q-129 0 -283 -89l-40 159q254 128 313 371h-210l29 139h200l1 32q0 19 -1 44t-2.5 40.5t-1.5 24.5h-166l30 139h127l-1 33q0 76 16 157q37 174 148.5 275.5t294.5 101.5q161 0 249 -95.5t94 -280.5l-168 -22q-1 132 -47.5 193
t-155.5 61q-89 0 -155 -64t-92 -184q-13 -58 -13 -123z" />
    <glyph glyph-name="peseta" unicode="&#x20a7;" horiz-adv-x="1903" 
d="M941 1127q0 -56 -11 -108q-1 -5 -2.5 -14.5t-3.5 -12.5h81l51 242l185 106l-74 -348h146l-27 -127h-146l-134 -629q-7 -32 -7 -59q0 -29 12 -44t38 -15q33 0 89 13l-8 -137q-78 -19 -128 -19q-89 0 -128.5 37.5t-39.5 118.5q0 59 18 141l126 593h-90q-112 -273 -475 -273
h-72l-126 -592h-166l307 1442h218q179 0 273 -83.5t94 -231.5zM374 747h76q129 0 204.5 62.5t106.5 208.5q10 49 10 90q0 180 -208 180h-74zM1848 772q0 -19 -1 -29l-152 -24q2 12 2 35q0 60 -27 92.5t-70 32.5q-48 0 -79 -28t-42 -82q-6 -28 -6 -43q0 -35 25.5 -70.5
t91.5 -74.5q91 -55 134.5 -117t43.5 -148q0 -45 -12 -99q-16 -76 -60.5 -130.5t-108.5 -83t-137 -28.5q-136 0 -200.5 69t-64.5 193q0 26 1 39l156 27q-3 -22 -3 -43q0 -71 32.5 -109.5t83.5 -38.5q58 0 96.5 33.5t52.5 99.5q6 26 6 49q0 46 -26.5 84.5t-87.5 76.5
q-100 62 -140 119.5t-40 124.5q0 35 10 85q15 68 53 120.5t95.5 82t126.5 29.5q116 0 181.5 -63.5t65.5 -180.5z" />
    <glyph glyph-name="uni20A0" unicode="&#x20a0;" horiz-adv-x="1227" 
d="M836 897l-62 -289h355l-30 -144h-355l-68 -320h419l-31 -144h-583l83 390q-50 -11 -98 -11q-153 0 -233.5 89.5t-80.5 260.5q0 92 24 207q36 169 108 288.5t170 180.5t212 61q138 0 219.5 -60.5t103.5 -167.5l-154 -64q-13 73 -56.5 111t-112.5 38q-117 0 -202 -105.5
t-131 -323.5q-18 -84 -18 -149q0 -110 48.5 -166.5t142.5 -56.5q44 0 90 17l106 502h559l-30 -144h-395z" />
    <glyph glyph-name="colonmonetary" unicode="&#x20a1;" 
d="M764 457l151 -54q-70 -201 -175 -304t-251 -121l-59 -202l-76 10l55 189q-56 3 -96 17l-63 -216l-76 10l70 240q-131 93 -131 359q0 160 47 380q143 675 510 705l41 139l76 -10l-39 -130q52 -4 96 -18l47 158l76 -10l-54 -182q128 -87 131 -324l-152 -45q3 131 -29 198
l-329 -1116q74 28 128 106.5t102 220.5zM451 113l353 1199q-40 22 -95 22l-353 -1199q32 -22 81 -22h14zM274 372q0 -102 25 -162l327 1110q-105 -39 -178 -192t-133 -435q-41 -193 -41 -321z" />
    <glyph glyph-name="uni20A2" unicode="&#x20a2;" 
d="M578 363l-51 -242q86 20 147.5 97t115.5 229l154 -44q-63 -162 -133.5 -255.5t-156.5 -133.5t-203 -40q-168 0 -261 102t-93 327q0 149 42 345q56 261 138 421t189.5 231.5t247.5 71.5q169 0 259.5 -96t100.5 -283l-162 -40q-3 103 -27.5 164.5t-72 89t-121.5 27.5
q-85 0 -153 -57t-126.5 -193t-107.5 -368q-44 -204 -44 -339q0 -105 27.5 -166t83.5 -84l157 740h145l-34 -163l2 1q60 97 114.5 141.5t117.5 44.5q37 0 64.5 -10.5t55.5 -33.5l-82 -141q-24 14 -43.5 21.5t-44.5 7.5q-80 0 -144.5 -101t-100.5 -271z" />
    <glyph glyph-name="uni20A5" unicode="&#x20a5;" horiz-adv-x="1588" 
d="M1508 810q0 -74 -20 -164l-137 -646h-169l133 626q19 81 19 143q0 173 -144 173q-112 0 -187 -101t-109 -269l-122 -572h-137l-154 -388l-87 35l289 730l55 256q19 84 19 144q0 163 -139 163q-121 0 -199 -98.5t-115 -275.5l-120 -566h-169l226 1062h155l-34 -159
q75 93 152 138t166 45q81 0 140.5 -36.5t87.5 -106.5l198 500l87 -35l-157 -397q49 38 102.5 56.5t117.5 18.5q110 0 181 -65.5t71 -210.5z" />
    <glyph glyph-name="uni20A6" unicode="&#x20a6;" 
d="M926 664h126l-26 -125h-126l-115 -539h-185l-95 539h-213l-115 -539h-164l115 539h-126l26 125h126l33 151h-127l27 125h126l107 502h176l90 -502h235l107 502h164l-107 -502h126l-27 -125h-125zM434 940l-24 136h-4l-29 -136h57zM456 815h-106l-32 -151h164zM608 815
l27 -151h127l32 151h-186zM658 539l32 -180h7l39 180h-78z" />
    <glyph glyph-name="uni20A8" unicode="&#x20a8;" horiz-adv-x="1573" 
d="M971 1149q0 -56 -13 -117q-28 -134 -114 -227t-215 -120q35 -17 58 -49t42 -104.5t35 -203.5l40 -328h-172l-37 318q-17 142 -34.5 209.5t-50 95.5t-94.5 28h-62l-139 -651h-166l307 1442h261q172 0 263 -74.5t91 -218.5zM384 795h85q89 0 152 23t107.5 81t66.5 162
q9 44 9 77q0 89 -54 124t-144 35h-115zM1518 772q0 -19 -1 -29l-152 -24q2 12 2 35q0 60 -27 92.5t-70 32.5q-48 0 -79 -28t-42 -82q-6 -28 -6 -43q0 -35 25.5 -70.5t91.5 -74.5q91 -55 134.5 -117t43.5 -148q0 -45 -12 -99q-16 -76 -60.5 -130.5t-108.5 -83t-137 -28.5
q-136 0 -200.5 69t-64.5 193q0 26 1 39l156 27q-3 -22 -3 -43q0 -71 32.5 -109.5t83.5 -38.5q58 0 96.5 33.5t52.5 99.5q6 26 6 49q0 46 -26.5 84.5t-87.5 76.5q-100 62 -140 119.5t-40 124.5q0 35 10 85q15 68 53 120.5t95.5 82t126.5 29.5q116 0 181.5 -63.5t65.5 -180.5z
" />
    <glyph glyph-name="uni20A9" unicode="&#x20a9;" horiz-adv-x="1488" 
d="M1565 940l-27 -125h-138l-63 -151h169l-26 -125h-195l-225 -539h-192l12 539h-274l-219 -539h-191l7 539h-191l26 125h166l2 151h-136l27 125h111l6 502h168l-15 -502h255l200 502h221l-15 -502h256l201 502h177l-210 -502h113zM888 940l7 310l-126 -310h119zM513 664
l60 151h-209l-5 -151h154zM886 815h-168l-61 -151h225zM1024 815l-4 -151h154l60 151h-210zM355 539l-9 -294l117 294h-108zM1016 539l-8 -289l116 289h-108z" />
    <glyph glyph-name="afii57636" unicode="&#x20aa;" horiz-adv-x="1386" 
d="M985 778q0 -65 -16 -139l-71 -332h-176l76 355q12 54 12 97q0 77 -41.5 115.5t-130.5 38.5h-271l-194 -913h-176l226 1061h429q333 0 333 -283zM766 0h-439l160 753h176l-128 -605h234q87 0 146 23t97.5 77t58.5 146l142 667h176l-149 -699q-30 -137 -94.5 -217
t-158 -112.5t-221.5 -32.5z" />
    <glyph glyph-name="dong" unicode="&#x20ab;" 
d="M1036 1188l-253 -1188h-150l28 133q-69 -80 -140.5 -119t-151.5 -39q-146 0 -227 90.5t-81 264.5q0 79 20 184q110 572 470 572q96 0 160 -38.5t102 -111.5l54 252h-268l25 121h269l33 157h169l-33 -157h108l-25 -121h-109zM759 699q0 130 -54 188t-134 58
q-236 0 -315 -419q-20 -105 -20 -179q0 -117 44.5 -176t130.5 -59q67 0 129.5 41.5t114 131.5t80.5 227q24 110 24 187zM746 -167l-28 -129h-757l28 129h757z" />
    <glyph glyph-name="uni20AD" unicode="&#x20ad;" 
d="M975 1442h200l-521 -586h291l-30 -142h-302l265 -714h-181l-249 714h-23l-152 -714h-165l152 714h-141l30 142h141l125 586h165l-125 -586h11z" />
    <glyph glyph-name="uni20AE" unicode="&#x20ae;" 
d="M688 972l255 170l-27 -127l-255 -170l-41 -193l255 170l-27 -127l-255 -170l-111 -525h-166l84 395l-254 -170l27 128l254 170l41 192l-254 -170l27 128l254 170l95 447h-346l33 152h858l-33 -152h-346z" />
    <glyph glyph-name="uni20AF" unicode="&#x20af;" horiz-adv-x="1829" 
d="M1101 859q0 -289 -98.5 -481.5t-264.5 -285t-372 -92.5h-331l28 122q83 46 138 126.5t97.5 228.5t82.5 400l6 41q18 115 37 212.5t50 198.5q-103 -19 -170 -96.5t-107 -219.5l-140 41q51 196 163.5 299.5t304.5 113.5q73 162 170 231l85 -99q-54 -47 -98 -143
q128 -27 222.5 -109t145.5 -208t51 -280zM933 839q0 203 -77.5 330t-220.5 157q-26 -90 -44 -186t-35 -210q-10 -69 -11 -75q-35 -220 -68.5 -357.5t-71 -218.5t-86.5 -134h80q141 0 262 72.5t196.5 228.5t75.5 393zM1824 580q0 -155 -52 -294.5t-146 -224.5t-215 -85
q-104 0 -162 79l-82 -461h-158l153 856q47 259 138.5 378t235.5 119q87 0 152 -45.5t100.5 -128.5t35.5 -193zM1656 577q0 104 -32 165t-95 61q-78 0 -129.5 -89.5t-85.5 -293.5l-37 -223q17 -36 54 -56.5t80 -20.5q63 0 119.5 60t91 165t34.5 232z" />
    <glyph glyph-name="uni20B0" unicode="&#x20b0;" 
d="M788 772l-14 -15q63 -92 90.5 -166.5t27.5 -151.5q0 -61 -17 -137q-18 -83 -69 -157t-137.5 -121t-201.5 -47q-102 0 -166 19t-106 57l97 140q31 -32 69.5 -51.5t92.5 -19.5q113 0 179 60t87 155q13 57 13 97q0 47 -17 94.5t-58 108.5l-261 -270l-92 213l-196 -247
l-85 102l326 393l95 -212l129 138q-70 100 -100 179.5t-30 151.5q0 42 10 90q28 135 109 214t207 79q73 0 128 -30t85 -87t30 -135q0 -42 -11 -97q-35 -162 -214 -347zM601 1087q0 -49 19.5 -97.5t67.5 -115.5l8 9q77 83 110 143t46 123q7 31 7 61q0 56 -26 87.5t-74 31.5
q-60 0 -95.5 -40t-50.5 -108q-12 -60 -12 -94z" />
    <glyph glyph-name="uni20B1" unicode="&#x20b1;" 
d="M962 967q-10 -42 -16 -62h118l-25 -121h-140q-66 -128 -179 -198t-273 -70h-116l-110 -516h-169l167 784h-116l25 121h117l32 152h-116l26 121h116l56 264h240q177 0 267.5 -71t107.5 -193h149l-26 -121h-121q-4 -40 -14 -90zM793 1178q-40 119 -206 119h-90l-25 -119
h321zM794 987q7 33 10 70h-359l-32 -152h357q15 40 24 82zM705 784h-318l-26 -124h94q77 0 140.5 32t109.5 92z" />
    <glyph glyph-name="uni20B2" unicode="&#x20b2;" 
d="M973 738l-126 -591q-85 -82 -183.5 -125t-196.5 -47l-40 -186h-97l41 192q-126 23 -185 123.5t-59 273.5q0 160 48 386q43 202 117 356.5t174.5 246t221.5 101.5l28 134h97l-29 -137q134 -17 194 -105.5t61 -249.5l-164 -52q1 13 1 38q0 207 -121 234l-258 -1215
q108 16 198 103l83 377h-96l30 143h261zM289 360q0 -204 112 -240l256 1205q-104 -32 -183 -184.5t-139 -435.5q-46 -218 -46 -345z" />
    <glyph glyph-name="uni20B3" unicode="&#x20b3;" 
d="M824 467h130l-25 -121h-101l11 -346h-180l-1 346h-369l-146 -346h-184l157 346h-99l25 121h129l69 152h-165l25 121h195l319 702h179l22 -702h197l-25 -121h-168zM656 740l-2 469l-198 -469h200zM404 619l-64 -152h317l-1 152h-252z" />
    <glyph glyph-name="uni20B4" unicode="&#x20b4;" 
d="M591 693l-53 -24h471l-26 -122h-650q-37 -34 -60.5 -79.5t-37.5 -110.5q-7 -29 -7 -62q0 -79 49 -127t151 -48q80 0 137.5 37.5t98 102.5t78.5 162l153 -21q-68 -212 -187.5 -318t-297.5 -106q-177 0 -258.5 82t-81.5 216q0 52 13 115q18 87 66 157h-105l26 122h204
q47 33 99 59.5t135 64.5l59 27h-465l26 122h640q33 31 54 70t32 91q8 37 8 67q0 71 -41 112t-127 41q-108 0 -171.5 -62t-100.5 -166l-151 23q61 170 166 259t267 89q153 0 234 -77.5t81 -212.5q0 -47 -13 -112q-15 -70 -51 -122h112l-26 -122h-210q-47 -33 -97 -58.5
t-143 -68.5z" />
    <glyph glyph-name="uni20B5" unicode="&#x20b5;" 
d="M764 457l151 -54q-72 -213 -186 -316t-274 -111l-39 -183h-97l40 188q-246 42 -246 404q0 160 47 380q145 681 516 705l27 129h97l-28 -132q137 -18 203.5 -111t68.5 -263l-152 -45q4 142 -33.5 207.5t-114.5 76.5l-259 -1215q96 15 160.5 96t118.5 244zM275 372
q0 -216 114 -252l256 1206q-113 -30 -190 -184t-140 -449q-40 -188 -40 -321z" />
    <glyph glyph-name="glyph521" 
d="M780 1320q34 -38 51.5 -86.5t13.5 -117.5h193l-26 -122h-186q-35 -128 -125.5 -213t-226.5 -92l-2 -6q31 -11 50.5 -36t33.5 -82t26 -161l47 -404h-176l-39 401q-10 104 -31.5 158t-55 73t-87.5 19h-69l26 125h156q116 0 189 51.5t110 166.5h-409l26 122h407q1 9 1 25
q0 89 -49 134t-140 45h-175l26 122h769l-26 -122h-302z" />
    <glyph glyph-name="glyph522" 
d="M364 0h-234l128 603l-177 -95l26 124l178 96l37 175l-177 -95l26 124l178 95l88 415h169l-66 -312l309 166l-27 -124l-309 -166l-37 -176l309 166l-27 -124l-309 -166l-119 -560h46q104 0 182 61t138 193t106 347h172q-54 -274 -142.5 -439t-204 -236.5t-263.5 -71.5z
" />
    <glyph glyph-name="glyph523" 
d="M94 591l28 132h150l153 719h269q181 0 274.5 -84t93.5 -243q0 -63 -17 -143q-22 -105 -80 -191t-154.5 -138t-226.5 -52h-171l-32 -151h370l-28 -132h-370l-66 -308h-169l66 308h-150l28 132h150l32 151h-150zM885 1030q10 44 10 87q0 92 -53.5 141.5t-162.5 49.5h-114
l-124 -585h99q149 0 229.5 73t115.5 234z" />
    <glyph glyph-name="glyph524" 
d="M212 303l-65 -303h-165l72 337q64 304 136.5 490.5t165 278.5t218.5 99l51 237h162l-51 -238q108 -20 162.5 -104.5t54.5 -262.5q0 -189 -66 -503l-71 -334h-165l64 300q84 395 84 576q0 98 -23.5 139.5t-69.5 45.5l-162 -761h-162l162 761q-54 -4 -106 -72.5
t-108.5 -234.5t-117.5 -451z" />
    <glyph glyph-name="glyph525" horiz-adv-x="683" 
d="M484 1576l-180 254h214l85 -254h-119z" />
    <glyph glyph-name="glyph526" horiz-adv-x="683" 
d="M210 1590l43 206h185l-43 -206h-185zM582 1590l43 206h187l-43 -206h-187z" />
    <glyph glyph-name="glyph527" horiz-adv-x="683" 
d="M387 1576l132 254h245l-249 -254h-128z" />
    <glyph glyph-name="glyph528" horiz-adv-x="683" 
d="M609 1555l-83 158l-159 -158h-185l242 248h213l143 -248h-171z" />
    <glyph glyph-name="glyph529" horiz-adv-x="683" 
d="M651 1803h182l-242 -248h-213l-143 248h174l84 -158z" />
    <glyph glyph-name="glyph530" horiz-adv-x="683" 
d="M235 1600l27 130h512l-27 -130h-512z" />
    <glyph glyph-name="glyph531" horiz-adv-x="683" 
d="M522 1686q69 0 113 28.5t69 88.5h125q-35 -125 -111.5 -186t-204.5 -61q-121 0 -194 64t-78 183h125q15 -58 55.5 -87.5t100.5 -29.5z" />
    <glyph glyph-name="glyph532" horiz-adv-x="683" 
d="M380 1566l45 209h207l-45 -209h-207z" />
    <glyph glyph-name="glyph533" horiz-adv-x="723" 
d="M327 1767q0 59 30 110t81 81t110 30t110 -30t81 -81t30 -110q0 -60 -30 -111t-80.5 -81t-110.5 -30t-110.5 30t-80.5 81t-30 111zM547 1898q-34 0 -64 -18t-48 -48t-18 -65t18 -65.5t48 -48t65 -17.5t65.5 18t48.5 48t18 65q0 36 -18 66t-48.5 47.5t-66.5 17.5z" />
    <glyph glyph-name="glyph534" horiz-adv-x="683" 
d="M647 1567q-37 0 -74 10.5t-87 35.5q-57 29 -80 38t-41 9q-35 0 -54 -20t-35 -71h-120q14 103 67.5 158.5t139.5 55.5q40 0 77 -10.5t83 -34.5q47 -24 76 -34.5t54 -10.5q35 0 56.5 23t34.5 73h115q-20 -119 -74.5 -170.5t-137.5 -51.5z" />
    <glyph glyph-name="glyph535" horiz-adv-x="683" 
d="M256 1553l159 278h226l-245 -278h-140zM607 1553l154 278h228l-241 -278h-141z" />
    <glyph glyph-name="glyph536" horiz-adv-x="512" 
d="M-44 -466l4 90q46 0 68.5 7.5t32.5 24t17 50.5h-97l43 206h201l-46 -220q-17 -82 -70.5 -120t-152.5 -38z" />
    <glyph glyph-name="glyph537" horiz-adv-x="703" 
d="M528 1301q151 0 191 137h130q-37 -126 -114.5 -186.5t-209.5 -60.5q-123 0 -200 63.5t-84 183.5h135q13 -68 53.5 -102.5t98.5 -34.5z" />
    <glyph glyph-name="glyph538" horiz-adv-x="703" 
d="M605 1666q151 0 191 137h130q-37 -127 -115 -187t-209 -60q-123 0 -200 63.5t-84 183.5h135q13 -68 53.5 -102.5t98.5 -34.5z" />
    <glyph glyph-name="glyph539" horiz-adv-x="412" 
d="M228 934l-37 74q128 65 162 229l2 7h-97l47 222h201l-49 -230q-22 -103 -80 -181t-149 -121z" />
    <glyph glyph-name="glyph540" horiz-adv-x="600" 
d="M7 1212l142 254h227l-249 -254h-120z" />
  </font>
</defs>
</svg>
