<?xml version="1.0" standalone="no"?>
<!DOCTYPE svg PUBLIC "-//W3C//DTD SVG 1.1//EN" "http://www.w3.org/Graphics/SVG/1.1/DTD/svg11.dtd" >
<svg>
<metadata>
Created by FontForge 20090622 at Thu Jul 27 07:58:24 2017
 By deploy user
&#194;&#169; 2014 The Monotype Corporation. All Rights Reserved.
</metadata>
<defs>
<font id="ArialNovaCond-LightItalic" horiz-adv-x="917" >
  <font-face 
    font-family="Arial Nova Cond Light"
    font-weight="300"
    font-style="italic"
    font-stretch="condensed"
    units-per-em="2048"
    panose-1="2 11 3 6 2 2 2 9 2 4"
    ascent="1638"
    descent="-410"
    x-height="1062"
    cap-height="1466"
    bbox="-551 -458 1973 1973"
    underline-thickness="102"
    underline-position="-154"
    slope="-12"
    unicode-range="U+0020-U+2122"
  />
<missing-glyph horiz-adv-x="1042" 
d="M892 0h-742v1491h742v-1491zM768 1368h-495v-1243h495v1243z" />
    <glyph glyph-name=".notdef" horiz-adv-x="1042" 
d="M892 0h-742v1491h742v-1491zM768 1368h-495v-1243h495v1243z" />
    <glyph glyph-name="glyph1" horiz-adv-x="0" 
 />
    <glyph glyph-name="glyph2" horiz-adv-x="512" 
 />
    <glyph glyph-name="space" unicode=" " horiz-adv-x="512" 
 />
    <glyph glyph-name="exclam" unicode="!" horiz-adv-x="449" 
d="M225 361h-73l132 788l68 317h148l-68 -317zM27 0l41 193h169l-41 -193h-169z" />
    <glyph glyph-name="quotedbl" unicode="&#x22;" horiz-adv-x="665" 
d="M329 956h-80l29 269l51 241h141l-51 -238zM598 956h-82l27 272l51 238h140l-51 -238z" />
    <glyph glyph-name="numbersign" unicode="#" 
d="M667 514h205v-89h-224l-91 -448h-89l92 448h-251l-91 -448h-89l92 448h-169v89h187l87 422h-214v89h232l93 451h87l-92 -451h251l93 451h87l-92 -451h161v-89h-179zM414 936l-86 -422h251l86 422h-251z" />
    <glyph glyph-name="dollar" unicode="$" 
d="M919 1146l-127 -13q4 38 3 55q-12 149 -117 184l-123 -578q77 -70 124 -123.5t80 -127.5t33 -169q0 -104 -40 -194.5t-131 -147.5t-237 -57h-3l-38 -179h-73l39 185q-123 20 -190.5 102t-74.5 207q0 52 9 106l129 18q-4 -27 -6.5 -53.5t-1.5 -46.5q7 -98 45 -154t113 -71
l133 626q-75 68 -121 120.5t-77.5 124.5t-31.5 163t40 175t123.5 137.5t208.5 53.5h22l20 93h73l-22 -102q103 -22 159 -94t62 -191q0 -22 -2 -49zM604 1383q-93 0 -148.5 -39.5t-78 -97.5t-22.5 -120q0 -81 36 -145t103 -130l113 532h-3zM526 658l-122 -574q94 3 155 44
t88.5 104t27.5 136q0 87 -38.5 154t-110.5 136z" />
    <glyph glyph-name="percent" unicode="%" horiz-adv-x="1448" 
d="M697 1257q0 -75 -20 -166q-32 -152 -70.5 -242t-94 -133t-137.5 -43q-95 0 -152 56t-57 184q0 68 20 166q33 154 70 242t93 129t144 41q95 0 149.5 -55t54.5 -179zM164 -55l1097 1546h96l-1095 -1546h-98zM286 1061q-19 -89 -19 -151q0 -153 110 -153q50 0 85 34
t62 104.5t52 190.5q23 105 23 176q0 80 -28.5 114t-82.5 34q-63 0 -99.5 -43.5t-56 -109t-46.5 -196.5zM1363 529q0 -75 -20 -166q-32 -152 -70.5 -242t-94 -133t-137.5 -43q-95 0 -152 56t-57 184q0 68 20 166q33 154 70 242t93 129t144 41q95 0 149.5 -55t54.5 -179z
M952 333q-19 -89 -19 -151q0 -153 110 -153q50 0 85 34t62 104.5t52 190.5q23 105 23 176q0 80 -28.5 114t-82.5 34q-63 0 -99.5 -43.5t-56 -109t-46.5 -196.5z" />
    <glyph glyph-name="ampersand" unicode="&#x26;" horiz-adv-x="1259" 
d="M946 302q62 -98 187 -228l-102 -89q-110 110 -172 206q-94 -104 -201 -160t-232 -56q-117 0 -196.5 42.5t-119 116.5t-39.5 168q0 118 59.5 211.5t148 163t223.5 152.5q-92 173 -92 310q0 87 34.5 167.5t109 132.5t187.5 52q88 0 152 -33.5t98 -91.5t34 -132
q0 -92 -47 -167.5t-121 -135t-186 -128.5l213 -391q77 116 151 272l112 -26q-102 -215 -201 -356zM618 900q87 55 146 102.5t94.5 103.5t35.5 120q0 69 -42 111.5t-114 42.5q-68 0 -112 -34t-64 -86t-20 -108q0 -106 76 -252zM797 297l-242 435q-109 -67 -181.5 -125.5
t-118.5 -132.5t-46 -164q0 -63 25 -113.5t75.5 -80t123.5 -29.5q100 0 191.5 57t172.5 153z" />
    <glyph glyph-name="quotesingle" unicode="'" horiz-adv-x="400" 
d="M334 956h-84l28 269l51 241h140l-50 -235z" />
    <glyph glyph-name="parenleft" unicode="(" horiz-adv-x="576" 
d="M252 486q-46 -219 -46 -412q0 -268 86 -505h-88q-109 291 -109 577q0 156 34 320q109 514 489 1025h90q-162 -233 -285 -506t-171 -499z" />
    <glyph glyph-name="parenright" unicode=")" horiz-adv-x="576" 
d="M463 873q0 -199 -44 -407q-92 -436 -445 -897h-98q320 409 428 917q42 194 42 432q0 148 -17.5 295t-52.5 278h80q107 -306 107 -618z" />
    <glyph glyph-name="asterisk" unicode="*" horiz-adv-x="784" 
d="M561 1219l243 104l35 -104l-253 -65l173 -205l-90 -64l-146 224l-139 -224l-90 64l170 204l-259 66l37 104l245 -104l-23 272h114z" />
    <glyph glyph-name="plus" unicode="+" 
d="M897 763v-86h-355v-354h-87v354h-354v86h354v354h87v-354h355z" />
    <glyph glyph-name="comma" unicode="," horiz-adv-x="448" 
d="M4 -274l-38 73q55 32 86.5 72t41.5 92l8 37h-76l41 193h169l-45 -212q-17 -80 -59 -138t-128 -117z" />
    <glyph glyph-name="hyphen" unicode="-" horiz-adv-x="684" 
d="M60 465l27 129h536l-27 -129h-536z" />
    <glyph glyph-name="period" unicode="." horiz-adv-x="448" 
d="M27 0l41 193h169l-41 -193h-169z" />
    <glyph glyph-name="slash" unicode="/" horiz-adv-x="576" 
d="M-120 -37l797 1528h102l-797 -1528h-102z" />
    <glyph glyph-name="zero" unicode="0" 
d="M927 1097q0 -141 -43 -346l-6 -27q-53 -260 -102 -408.5t-142.5 -244.5t-249.5 -96q-160 0 -234.5 95t-74.5 282q0 152 52 400q51 243 106.5 392.5t147.5 235.5t237 86q160 0 234.5 -94t74.5 -275zM257 795l-12 -56q-53 -254 -53 -395q0 -135 46 -202t147 -67
q110 0 178.5 82t106.5 203.5t79 328.5l11 50q50 231 50 364q0 132 -47 197.5t-148 65.5q-107 0 -176.5 -80t-107.5 -196.5t-74 -294.5z" />
    <glyph glyph-name="one" unicode="1" 
d="M371 0l260 1222q-137 -124 -335 -197l24 113q126 51 222 128.5t185 199.5h71l-312 -1466h-115z" />
    <glyph glyph-name="two" unicode="2" 
d="M970 1160q0 -101 -40.5 -187t-136 -187.5t-279.5 -259.5l-83 -70q-87 -71 -136.5 -117.5t-91.5 -103t-69 -127.5h621l-23 -108h-771q39 131 91 216t133.5 164.5t267.5 238.5q148 126 230.5 212t122.5 163t40 159q0 62 -26 110.5t-75 76t-116 27.5q-119 0 -190 -76.5
t-122 -228.5l-112 16q56 195 161 291.5t263 96.5q111 0 188 -43.5t115 -113.5t38 -149z" />
    <glyph glyph-name="three" unicode="3" 
d="M923 1184q0 -85 -33 -164t-100 -142.5t-165 -99.5q94 -28 145.5 -105.5t51.5 -187.5q0 -117 -42 -233.5t-140.5 -196.5t-256.5 -80q-104 0 -182 38t-120.5 109t-42.5 168q0 44 7 87l123 16q-6 -48 -6 -88q0 -112 60.5 -171t162.5 -59q106 0 176 63.5t102.5 157.5
t32.5 187q0 110 -64 174.5t-185 64.5h-91l36 100q140 0 233 53t137 133.5t44 165.5q0 55 -23 99t-66 69t-100 25q-110 0 -176.5 -68.5t-114.5 -215.5l-107 19q50 177 146.5 270.5t249.5 93.5q91 0 161 -37t108.5 -101.5t38.5 -143.5z" />
    <glyph glyph-name="four" unicode="4" 
d="M840 471l-21 -102h-148l-79 -369h-117l79 369h-542l21 102l785 995h86l-212 -995h148zM575 471l159 742l-580 -742h421z" />
    <glyph glyph-name="five" unicode="5" 
d="M502 1342l-197 -502q57 51 124.5 78t139.5 27q83 0 145 -36t96.5 -105t34.5 -166q0 -143 -49.5 -297t-155.5 -260.5t-265 -106.5q-131 0 -205.5 62.5t-102 147.5t-27.5 162v20l119 14q4 -150 59 -226.5t153 -76.5q115 0 194 89.5t117.5 218t38.5 242.5q0 112 -46.5 165
t-131.5 53q-163 0 -312 -167l-97 14l294 756h562l-23 -106h-465z" />
    <glyph glyph-name="six" unicode="6" 
d="M926 1156q0 -22 -1 -33l-114 -10q5 132 -36 193.5t-133 61.5q-103 0 -176.5 -78.5t-120 -210t-88.5 -328.5q142 176 308 176q131 0 197.5 -84.5t66.5 -230.5q0 -82 -19 -171q-51 -241 -152 -353.5t-256 -112.5q-307 0 -307 389q0 147 44 357q49 237 103 391.5t153.5 254
t253.5 99.5q134 0 205.5 -78.5t71.5 -231.5zM207 324q0 -112 52 -179t140 -67q113 0 182 91.5t108 278.5q21 99 21 172q0 104 -41 155.5t-119 51.5q-111 0 -190 -82t-116 -199t-37 -222z" />
    <glyph glyph-name="seven" unicode="7" 
d="M235 0h-133q165 697 771 1341h-649l23 107h813l-17 -80q-191 -174 -355.5 -402.5t-281.5 -478.5t-171 -487z" />
    <glyph glyph-name="eight" unicode="8" 
d="M821 501q0 -118 -45 -239.5t-145 -204t-254 -82.5q-98 0 -173 39.5t-116.5 113.5t-41.5 175q0 95 36.5 198t110 183t178.5 108q-64 49 -93.5 107t-29.5 143q0 100 39.5 197.5t124.5 162t214 64.5q91 0 159 -38.5t104 -106.5t36 -153q0 -119 -58 -223.5t-193 -166.5
q74 -37 110.5 -109.5t36.5 -167.5zM620 1366q-89 0 -148.5 -49.5t-87 -123t-27.5 -147.5q0 -101 47.5 -159t132.5 -58q86 0 147.5 50t93 126.5t31.5 154.5q0 95 -51.5 150.5t-137.5 55.5zM497 729q-110 0 -187 -65.5t-113 -161t-36 -187.5q0 -83 31.5 -137t81.5 -79t107 -25
q114 0 187.5 69t107 169.5t33.5 198.5q0 108 -56.5 163t-155.5 55z" />
    <glyph glyph-name="nine" unicode="9" 
d="M858 719l-12 -56q-50 -235 -95 -370t-138.5 -226.5t-253.5 -91.5q-89 0 -155.5 38.5t-99.5 111t-33 169.5q0 8 1 23l115 11q-5 -125 43 -190t136 -65q110 0 179 77.5t110 202t86 336.5q-74 -89 -149 -132t-158 -43q-134 0 -202.5 78t-68.5 220q0 70 19 163
q56 262 162 376.5t269 114.5q155 0 225 -94t70 -270q0 -144 -50 -383zM800 1132q0 114 -48.5 172.5t-143.5 58.5q-112 0 -186.5 -93t-116.5 -294q-20 -95 -20 -163q0 -199 162 -199q80 0 148 46.5t116 125.5t68 175q21 98 21 171z" />
    <glyph glyph-name="colon" unicode=":" horiz-adv-x="448" 
d="M212 869l41 193h169l-41 -193h-169zM27 0l41 193h169l-41 -193h-169z" />
    <glyph glyph-name="semicolon" unicode=";" horiz-adv-x="448" 
d="M212 869l41 193h168l-41 -193h-168zM4 -274l-36 73q106 70 125 163l8 38h-74l41 193h168l-45 -212q-18 -85 -63 -145t-124 -110z" />
    <glyph glyph-name="less" unicode="&#x3c;" 
d="M224 717l595 -321v-106l-659 375v110l659 375v-99z" />
    <glyph glyph-name="equal" unicode="=" 
d="M101 919v87h796v-87h-796zM101 434v87h796v-87h-796z" />
    <glyph glyph-name="greater" unicode="&#x3e;" 
d="M179 290v105l593 321l-594 333v101l660 -375v-110z" />
    <glyph glyph-name="question" unicode="?" horiz-adv-x="780" 
d="M854 1212q0 -62 -24.5 -125.5t-75.5 -133.5t-140 -174q-80 -93 -115.5 -141.5t-56 -99.5t-38.5 -136l-9 -41h-125l5 23q24 110 52.5 179.5t77 136t146.5 178.5q90 103 131.5 177.5t41.5 147.5q0 79 -43.5 129.5t-123.5 50.5q-92 0 -152 -73t-106 -232l-119 19
q54 202 143.5 298t235.5 96q88 0 155 -36t103.5 -99.5t36.5 -143.5zM178 0l41 193h169l-41 -193h-169z" />
    <glyph glyph-name="at" unicode="@" horiz-adv-x="1643" 
d="M1581 770q0 -179 -71.5 -335.5t-195 -250t-271.5 -93.5q-134 0 -134 105q0 9 2 27q-113 -128 -243 -128q-87 0 -153 52.5t-101.5 146.5t-35.5 215q0 172 55.5 324.5t156.5 246t231 93.5q180 0 223 -184l31 159h121l-172 -833q-1 -6 -7 -37.5t-6 -46.5q0 -49 62 -49
q110 0 208 85.5t156.5 221t58.5 275.5q0 190 -76 336.5t-214 228.5t-320 82q-216 0 -384.5 -106t-261.5 -289.5t-93 -406.5q0 -221 90 -396.5t252.5 -274.5t372.5 -99q112 0 223 30.5t207.5 88t162.5 137.5h113q-256 -334 -705 -334q-240 0 -421.5 108t-280.5 300.5
t-99 440.5q0 252 104 453t292 314.5t429 113.5q210 0 367.5 -97.5t242 -262.5t84.5 -361zM504 508q0 -155 47 -237.5t128 -82.5q153 0 234 225q81 227 81 437q0 62 -20.5 117t-58.5 88.5t-87 33.5q-96 0 -170 -91.5t-114 -227.5t-40 -262z" />
    <glyph glyph-name="A" unicode="A" horiz-adv-x="1024" 
d="M248 447l-219 -447h-143l742 1466h139l145 -1466h-141l-35 447h-488zM668 1305l-366 -748h425z" />
    <glyph glyph-name="B" unicode="B" horiz-adv-x="1018" 
d="M988 1163q0 -136 -75.5 -245t-226.5 -160q108 -44 162.5 -123.5t54.5 -187.5q0 -106 -44.5 -207t-157.5 -170.5t-303 -69.5h-349l312 1466h241q128 0 215 -41.5t129 -110t42 -151.5zM357 818h139q120 0 199.5 46.5t116.5 121t37 161.5q0 95 -63 149.5t-195 54.5h-121z
M208 115h187q208 0 287 98t79 229q0 126 -79.5 193.5t-213.5 67.5h-135z" />
    <glyph glyph-name="C" unicode="C" horiz-adv-x="1133" 
d="M1153 1062l-136 -31q-2 172 -69 260t-191 88q-122 0 -211 -64t-153 -203.5t-111 -371.5q-32 -159 -32 -285q0 -185 70.5 -276.5t201.5 -91.5q130 0 225.5 92.5t170.5 309.5l123 -25q-80 -249 -205 -369t-313 -120q-205 0 -307 126t-102 357q0 123 31 283q48 241 120 404
t195 254.5t307 91.5q175 0 276.5 -110t109.5 -319z" />
    <glyph glyph-name="D" unicode="D" horiz-adv-x="1128" 
d="M1108 997q0 -104 -23 -219q-58 -292 -130 -454.5t-205.5 -243t-366.5 -80.5h-334l312 1466h267q235 0 357.5 -119.5t122.5 -349.5zM208 118h198q165 0 267.5 67.5t164.5 208.5t109 385q23 118 23 211q0 358 -340 358h-160z" />
    <glyph glyph-name="E" unicode="E" 
d="M470 1350l-115 -540h434l-24 -116h-434l-123 -578h523l-25 -116h-657l312 1466h634l-25 -116h-500z" />
    <glyph glyph-name="F" unicode="F" 
d="M470 1348l-114 -536h436l-25 -118h-436l-148 -694h-134l312 1466h670l-25 -118h-536z" />
    <glyph glyph-name="G" unicode="G" horiz-adv-x="1132" 
d="M1111 1070l-138 -39q-4 155 -70 251.5t-192 96.5t-207 -77.5t-128 -207t-88 -330.5q-38 -176 -38 -310q0 -174 67.5 -272t214.5 -98q164 0 277 102l90 426h-285l24 114h418l-124 -586q-97 -85 -191.5 -125t-210.5 -40q-208 0 -312 127.5t-104 362.5q0 139 39 323
q45 212 104 359.5t171.5 245.5t287.5 98q112 0 199.5 -47t138 -141.5t57.5 -232.5z" />
    <glyph glyph-name="H" unicode="H" horiz-adv-x="1131" 
d="M722 0l152 713h-539l-152 -713h-134l312 1466h134l-135 -634h539l135 634h134l-312 -1466h-134z" />
    <glyph glyph-name="I" unicode="I" horiz-adv-x="458" 
d="M49 0l312 1466h134l-312 -1466h-134z" />
    <glyph glyph-name="J" unicode="J" horiz-adv-x="789" 
d="M253 -25q-122 0 -189.5 71.5t-67.5 215.5q0 66 15 147l129 13q-13 -82 -13 -146q0 -98 33.5 -142.5t100.5 -44.5q66 0 106 43.5t59 102.5t37 146l6 27l225 1058h134l-240 -1125q-27 -126 -66.5 -205t-104.5 -120t-164 -41z" />
    <glyph glyph-name="K" unicode="K" horiz-adv-x="1016" 
d="M902 0h-143l-224 785l-241 -263l-111 -522h-134l312 1466h134l-159 -747l665 747h157l-535 -585z" />
    <glyph glyph-name="L" unicode="L" horiz-adv-x="907" 
d="M739 115l-25 -115h-665l312 1466h134l-287 -1351h531z" />
    <glyph glyph-name="M" unicode="M" horiz-adv-x="1466" 
d="M1058 0l296 1319l-671 -1319h-132l-105 1319l-264 -1319h-133l312 1466h191l104 -1275l650 1275h197l-312 -1466h-133z" />
    <glyph glyph-name="N" unicode="N" horiz-adv-x="1130" 
d="M692 0l-253 1270h-1l-255 -1270h-134l312 1466h155l257 -1291h1l260 1291h133l-312 -1466h-163z" />
    <glyph glyph-name="O" unicode="O" horiz-adv-x="1131" 
d="M1105 1039q0 -210 -53.5 -458.5t-195 -428.5t-367.5 -180q-376 0 -376 480q0 199 57.5 443.5t197 421t350.5 177.5q195 0 291 -110.5t96 -344.5zM248 441q0 -178 57.5 -267.5t185.5 -89.5q172 0 282 171t153.5 392t43.5 384q0 186 -62.5 268.5t-189.5 82.5
q-160 0 -268 -159t-155 -378.5t-47 -403.5z" />
    <glyph glyph-name="P" unicode="P" horiz-adv-x="1018" 
d="M1057 1095q0 -128 -50.5 -231t-171 -168t-317.5 -65h-201l-134 -631h-134l312 1466h256q141 0 240 -46t149.5 -130t50.5 -195zM342 748h184q199 0 296.5 89.5t97.5 243.5q0 128 -78 198t-237 70h-135z" />
    <glyph glyph-name="Q" unicode="Q" horiz-adv-x="1131" 
d="M986 -10l-55 -99q-54 40 -92.5 80.5t-75.5 90.5q-121 -90 -274 -90q-376 0 -376 480q0 199 58 446.5t198.5 421t348.5 174.5q195 0 291 -110.5t96 -344.5q0 -136 -24 -300t-82 -326.5t-154 -272.5q76 -97 141 -150zM690 159q-35 44 -77 80.5t-103 71.5l50 97
q63 -31 111.5 -71.5t93.5 -94.5q74 102 120 250.5t65.5 292.5t19.5 246q0 186 -62.5 268.5t-189.5 82.5q-160 0 -268 -160t-155 -378.5t-47 -402.5q0 -178 57.5 -267.5t185.5 -89.5q111 0 199 75z" />
    <glyph glyph-name="R" unicode="R" horiz-adv-x="1046" 
d="M1054 1129q0 -99 -43 -186.5t-131 -150t-218 -83.5q57 -20 89.5 -64.5t50 -108.5t38.5 -182l63 -354h-143l-48 312q-20 135 -44.5 207.5t-83.5 115t-172 42.5h-85l-144 -677h-134l312 1466h308q110 0 197 -39t137.5 -115t50.5 -183zM910 1106q0 128 -76 185.5t-199 57.5
h-165l-118 -556h137q143 0 237.5 41t139 112t44.5 160z" />
    <glyph glyph-name="S" unicode="S" horiz-adv-x="1024" 
d="M883 1156q0 111 -59 167t-169 56q-85 0 -144 -36t-88 -95.5t-29 -129.5q0 -66 31 -119t77.5 -92.5t125.5 -94.5q91 -64 145.5 -112t93 -118.5t38.5 -163.5q0 -124 -49.5 -225.5t-150.5 -159.5t-249 -58q-131 0 -220 46.5t-133 125.5t-44 177q0 50 10 117l128 11
q-6 -49 -6 -92q0 -273 274 -273q96 0 164.5 41.5t104 112.5t35.5 157q0 69 -31.5 123.5t-78 94.5t-126.5 96q-89 63 -143.5 111.5t-92.5 119t-38 163.5q0 96 44.5 184t135 144.5t221.5 56.5q160 0 257.5 -78.5t97.5 -238.5q0 -49 -7 -98l-132 -11q7 46 7 91z" />
    <glyph glyph-name="T" unicode="T" horiz-adv-x="916" 
d="M697 1344l-286 -1344h-134l286 1344h-350l26 122h836l-26 -122h-352z" />
    <glyph glyph-name="U" unicode="U" horiz-adv-x="1131" 
d="M499 -25q-181 0 -271.5 91.5t-90.5 258.5q0 77 20 171l207 970h134l-210 -990q-18 -82 -18 -148q0 -119 58 -180t174 -61q98 0 159 43.5t94.5 119.5t56.5 188l219 1028h134l-217 -1018q-34 -164 -86.5 -266t-140 -154.5t-222.5 -52.5z" />
    <glyph glyph-name="V" unicode="V" horiz-adv-x="1024" 
d="M327 0l-118 1466h136l77 -1264l3 -53q11 26 25 53l627 1264h136l-747 -1466h-139z" />
    <glyph glyph-name="W" unicode="W" horiz-adv-x="1473" 
d="M892 0l8 1297l-553 -1297h-137l-1 1466h134l-23 -1261l531 1261h162l-10 -1261l527 1261h132l-633 -1466h-137z" />
    <glyph glyph-name="X" unicode="X" horiz-adv-x="1024" 
d="M898 0h-138l-194 615q-10 32 -14 53q-6 -11 -36 -52l-465 -616h-156l605 780l-223 686h134l159 -493q16 -54 19 -70q17 26 49 67l378 496h155l-532 -677z" />
    <glyph glyph-name="Y" unicode="Y" horiz-adv-x="1024" 
d="M548 761l137 194l369 511h154l-619 -836l-134 -630h-134l134 630l-241 836h140l140 -505z" />
    <glyph glyph-name="Z" unicode="Z" horiz-adv-x="919" 
d="M238 301l-140 -185h673l-25 -116h-814l25 116l798 1089l112 146h-565l25 115h706l-25 -115z" />
    <glyph glyph-name="bracketleft" unicode="[" horiz-adv-x="576" 
d="M447 1381l-362 -1703h253l-18 -85h-363l398 1873h363l-18 -85h-253z" />
    <glyph glyph-name="backslash" unicode="\" horiz-adv-x="448" 
d="M301 -37l-154 1528h89l155 -1528h-90z" />
    <glyph glyph-name="bracketright" unicode="]" horiz-adv-x="576" 
d="M-142 -407l18 85h253l362 1703h-253l18 85h363l-398 -1873h-363z" />
    <glyph glyph-name="asciicircum" unicode="^" horiz-adv-x="865" 
d="M695 685l-88 657l-359 -657h-125l451 781h114l120 -781h-113z" />
    <glyph glyph-name="underscore" unicode="_" horiz-adv-x="1024" 
d="M-122 -256v102h1048v-102h-1048z" />
    <glyph glyph-name="grave" unicode="`" horiz-adv-x="683" 
d="M490 1201l-162 260h169l82 -260h-89z" />
    <glyph glyph-name="a" unicode="a" horiz-adv-x="789" 
d="M722 844q0 -52 -14 -119l-94 -444q-21 -99 -21 -147q0 -30 5 -60t17 -74h-124q-13 42 -13 86q0 16 1 24q-52 -68 -110.5 -101.5t-128.5 -33.5q-76 0 -126.5 33.5t-75 86t-24.5 108.5q0 105 41.5 178t117.5 121t192 84q159 51 216 84l12 52q15 63 15 113q0 73 -33.5 114.5
t-106.5 41.5q-49 0 -85.5 -17.5t-66.5 -63t-55 -127.5l-112 17q44 144 122.5 215t202.5 71q123 0 185.5 -62.5t62.5 -179.5zM402 505q-86 -30 -142.5 -63t-90.5 -86.5t-34 -133.5q0 -61 31.5 -103.5t98.5 -42.5q52 0 102 33.5t91 102.5t63 171l39 186q-52 -27 -158 -64z" />
    <glyph glyph-name="b" unicode="b" horiz-adv-x="918" 
d="M621 1086q242 0 242 -302q0 -114 -34 -269q-34 -162 -81 -279t-126 -189t-197 -72q-89 0 -151 39t-94 116l-28 -130h-120l312 1466h120l-112 -527q119 147 269 147zM258 499q-21 -103 -21 -181q0 -122 48 -184t133 -62q76 0 128 46.5t88.5 140t68.5 248.5q35 165 35 268
t-35.5 157t-113.5 54q-118 0 -201 -128.5t-130 -358.5z" />
    <glyph glyph-name="c" unicode="c" horiz-adv-x="795" 
d="M761 789q0 -25 -1 -39l-119 -26q3 35 3 64q0 104 -36.5 151.5t-115.5 48.5q-76 0 -127 -51.5t-85.5 -145.5t-67.5 -246q-30 -137 -30 -239q0 -109 37 -170.5t115 -61.5q58 0 100 28t74.5 90.5t62.5 169.5l112 -20q-37 -127 -82.5 -207t-110.5 -120.5t-157 -40.5
q-128 0 -200 79t-72 250q0 103 30 247q38 181 87 296.5t126.5 177.5t195.5 62q128 0 194.5 -70.5t66.5 -226.5z" />
    <glyph glyph-name="d" unicode="d" 
d="M539 0l26 120q-51 -72 -115.5 -108.5t-138.5 -36.5q-120 0 -186 80.5t-66 242.5q0 104 28 238q59 281 160 415.5t254 134.5q91 0 150.5 -41.5t85.5 -115.5l114 537h120l-312 -1466h-120zM209 529q-27 -135 -27 -228q0 -229 157 -229q106 0 184 110t125 328q31 137 31 236
q0 120 -44 180t-126 60q-108 0 -180 -108.5t-120 -348.5z" />
    <glyph glyph-name="e" unicode="e" horiz-adv-x="839" 
d="M805 786q0 -82 -22 -183l-19 -89h-558q-23 -120 -23 -199q0 -239 182 -239q91 0 150 66t98 204l111 -19q-52 -181 -136.5 -266.5t-227.5 -85.5q-148 0 -222.5 86t-74.5 254q0 105 28 236q40 191 99 308.5t140.5 172t192.5 54.5q131 0 206.5 -73t75.5 -227zM227 617h436
q23 99 23 175q0 101 -43.5 148.5t-127.5 47.5q-91 0 -148 -57t-85 -131t-55 -183z" />
    <glyph glyph-name="f" unicode="f" horiz-adv-x="448" 
d="M554 1384q-54 0 -86.5 -35t-48.5 -109l-38 -178h170l-19 -88h-170l-207 -974h-120l207 974h-132l19 88h132l43 202q23 111 85 169t169 58q40 0 71.5 -4t67.5 -14l-45 -101q-54 12 -98 12z" />
    <glyph glyph-name="g" unicode="g" horiz-adv-x="916" 
d="M741 924l29 138h114l-238 -1130q-28 -133 -79.5 -212.5t-128 -115t-184.5 -35.5q-135 0 -209.5 56.5t-74.5 153.5q0 37 8 66l117 -16q-5 -18 -5 -40q0 -59 43.5 -91t120.5 -32q115 0 177.5 63t92.5 205l41 191q-55 -77 -117 -113.5t-140 -36.5q-130 0 -191 80.5
t-61 227.5q0 106 29 240q44 209 103.5 332.5t137.5 177t182 53.5q81 0 143 -38.5t90 -123.5zM206 514q-30 -144 -30 -238q0 -104 37 -153.5t112 -49.5q90 0 153.5 60t105 164t74.5 255q26 117 26 207q0 115 -43.5 172t-127.5 57t-142 -60t-96 -162t-69 -252z" />
    <glyph glyph-name="h" unicode="h" horiz-adv-x="921" 
d="M842 846q0 -53 -15 -124l-154 -722h-120l152 713q14 62 14 118q0 155 -133 155q-100 0 -180 -84.5t-119 -265.5l-135 -636h-120l312 1466h120l-109 -513q59 68 121 100.5t138 32.5q100 0 164 -58.5t64 -181.5z" />
    <glyph glyph-name="i" unicode="i" horiz-adv-x="409" 
d="M305 1283l39 183h119l-39 -183h-119zM32 0l226 1062h119l-226 -1062h-119z" />
    <glyph glyph-name="j" unicode="j" horiz-adv-x="428" 
d="M323 1282l39 184h120l-39 -184h-120zM-128 -431q-37 0 -74 10l33 107q20 -5 38 -5q44 0 72.5 20t48.5 65t37 125l249 1171h120l-248 -1166q-24 -113 -52.5 -181t-81.5 -107t-142 -39z" />
    <glyph glyph-name="k" unicode="k" horiz-adv-x="789" 
d="M669 0h-123l-164 597l-129 -124l-101 -473h-120l312 1466h120l-176 -828l423 424h157l-394 -377z" />
    <glyph glyph-name="l" unicode="l" horiz-adv-x="410" 
d="M32 0l312 1466h120l-312 -1466h-120z" />
    <glyph glyph-name="m" unicode="m" horiz-adv-x="1377" 
d="M1304 867q0 -46 -12 -102l-163 -765h-120l161 754q10 47 10 88q0 72 -33 108.5t-94 36.5q-62 0 -118 -42t-97 -118t-61 -176l-139 -651h-117l154 724q15 71 15 122q0 70 -30 105t-93 35q-61 0 -115.5 -40t-96.5 -115t-64 -178l-139 -653h-120l226 1062h120l-23 -106
q66 69 125 100t136 31q74 0 124.5 -42.5t62.5 -122.5q66 83 135 124t143 41q102 0 162.5 -55t60.5 -165z" />
    <glyph glyph-name="n" unicode="n" horiz-adv-x="921" 
d="M842 846q0 -53 -15 -124l-154 -722h-120l152 713q14 62 14 118q0 155 -133 155q-100 0 -180 -84.5t-119 -265.5l-135 -636h-120l226 1062h120l-23 -109q59 68 121 100.5t138 32.5q100 0 164 -58.5t64 -181.5z" />
    <glyph glyph-name="o" unicode="o" 
d="M69 339q0 91 21 208q51 278 165.5 408.5t288.5 130.5q307 0 307 -347q0 -92 -21 -209q-52 -284 -158 -419.5t-286 -135.5q-150 0 -233.5 89t-83.5 275zM731 750q0 121 -45 179.5t-143 58.5q-122 0 -206 -111t-123 -325q-22 -120 -22 -210q0 -269 191 -269q123 0 204 116
t122 351q22 127 22 210z" />
    <glyph glyph-name="p" unicode="p" horiz-adv-x="918" 
d="M860 772q0 -104 -30 -248q-44 -204 -103.5 -324.5t-135.5 -172.5t-176 -52q-84 0 -146.5 39t-88.5 117l-114 -538h-120l312 1469h120l-26 -122q55 75 116.5 110.5t137.5 35.5q124 0 189 -77.5t65 -236.5zM268 550q-27 -132 -27 -226q0 -118 42 -184t131 -66q91 0 150 74
t88.5 168.5t57.5 226.5q30 138 30 232q0 213 -153 213q-226 0 -319 -438z" />
    <glyph glyph-name="q" unicode="q" 
d="M454 -407l111 527q-51 -72 -115.5 -108.5t-138.5 -36.5q-120 0 -186 80.5t-66 242.5q0 104 28 238q59 281 160 415.5t254 134.5q91 0 151 -41.5t86 -115.5l28 133h120l-312 -1469h-120zM209 529q-27 -135 -27 -228q0 -229 157 -229q106 0 184 110t125 328q31 137 31 236
q0 120 -44 180t-126 60q-108 0 -180 -108.5t-120 -348.5z" />
    <glyph glyph-name="r" unicode="r" horiz-adv-x="581" 
d="M555 951q-201 0 -293 -434l-110 -517h-120l226 1062h110l-43 -201q121 225 267 225q75 0 130 -52l-72 -112q-26 16 -47.5 22.5t-47.5 6.5z" />
    <glyph glyph-name="s" unicode="s" horiz-adv-x="791" 
d="M638 826q0 71 -46 117t-128 46q-61 0 -104 -24t-65 -63.5t-22 -85.5q0 -51 23 -89.5t57.5 -66t94.5 -65.5q72 -46 115.5 -82.5t74 -93.5t30.5 -138q0 -75 -35.5 -145t-114 -115.5t-200.5 -45.5q-106 0 -176.5 33.5t-104.5 91.5t-34 131q0 23 1 35l122 21q-1 -10 -1 -30
q0 -87 50 -136t147 -49q70 0 120.5 26.5t77 71t26.5 97.5q0 57 -24 99t-60 70.5t-97 67.5q-69 45 -110 79.5t-70 88.5t-29 130q0 75 36.5 140t108 104.5t172.5 39.5q85 0 149.5 -31t100 -87.5t35.5 -130.5q0 -22 -1 -34l-122 -16q3 20 3 39z" />
    <glyph glyph-name="t" unicode="t" horiz-adv-x="447" 
d="M513 1062l-19 -88h-153l-157 -736q-10 -52 -10 -78q0 -43 18.5 -62t58.5 -19q19 0 46 4.5t36 6.5l-6 -102q-68 -13 -111 -13q-84 0 -124.5 40.5t-40.5 120.5q0 44 12 98l158 740h-117l19 88h117l56 265l136 76l-72 -341h153z" />
    <glyph glyph-name="u" unicode="u" horiz-adv-x="920" 
d="M542 0l22 104q-57 -63 -125 -96t-138 -33q-100 0 -162 57t-62 174q0 53 13 114l158 742h120l-160 -752q-9 -43 -9 -83q0 -69 32.5 -109.5t99.5 -40.5t128 41.5t103.5 110t59.5 147.5l146 686h120l-226 -1062h-120z" />
    <glyph glyph-name="v" unicode="v" horiz-adv-x="789" 
d="M224 0l-111 1062h113l77 -747q10 -85 12 -136l71 136l398 747h118l-562 -1062h-116z" />
    <glyph glyph-name="w" unicode="w" horiz-adv-x="1151" 
d="M669 0l-10 787l-2 127l-60 -133l-357 -781h-132l15 1062h111l-13 -730q-1 -31 -8 -159l73 159l333 730h135l16 -725q3 -120 3 -157q7 17 29 74.5t34 85.5l310 722h108l-452 -1062h-133z" />
    <glyph glyph-name="x" unicode="x" horiz-adv-x="816" 
d="M693 0h-120l-152 387l-21 58l-50 -62l-316 -383h-137l449 539l-210 523h122l137 -350q18 -43 31 -80l64 79l286 351h139l-437 -523z" />
    <glyph glyph-name="y" unicode="y" horiz-adv-x="793" 
d="M1 -431q-35 0 -66.5 6t-70.5 21l46 114q52 -23 94 -23q37 0 63.5 20t56.5 77l115 220l-123 1058h115l100 -888l456 888h119l-664 -1290q-38 -73 -71 -116t-73.5 -65t-96.5 -22z" />
    <glyph glyph-name="z" unicode="z" horiz-adv-x="694" 
d="M161 196l-74 -96h483l-21 -100h-627l17 81l596 795l67 87h-452l21 99h591l-19 -90z" />
    <glyph glyph-name="braceleft" unicode="{" horiz-adv-x="725" 
d="M550 1113l-37 -175q-23 -107 -52.5 -184.5t-85 -139t-146.5 -90.5q75 -36 105.5 -91t30.5 -129q0 -42 -7 -85.5t-23 -118.5l-38 -180q-12 -59 -12 -102q0 -69 33.5 -102.5t107.5 -33.5l-24 -113h-8q-106 0 -166.5 54.5t-60.5 164.5q0 51 13 109l53 249q20 95 20 158
q0 82 -35 120.5t-111 39.5l28 132q94 0 159.5 76t100.5 240l54 251q22 102 53.5 172t94.5 113.5t167 43.5h46l-24 -114q-85 0 -129.5 -29.5t-64.5 -80.5t-42 -155z" />
    <glyph glyph-name="bar" unicode="|" horiz-adv-x="448" 
d="M203 -407v1873h102v-1873h-102z" />
    <glyph glyph-name="braceright" unicode="}" horiz-adv-x="725" 
d="M553 1255q0 -58 -15 -126l-46 -217q-18 -84 -18 -144q0 -172 144 -172l-28 -132q-105 -1 -165.5 -76t-96.5 -242l-59 -278q-23 -106 -57 -170.5t-93.5 -96.5t-155.5 -32h-48l24 113q83 0 126.5 25.5t63.5 72.5t39 140l38 180q26 124 51 195.5t81.5 137.5t157.5 104
q-71 42 -101 101t-30 137q0 68 21 163l37 175q14 67 14 113q0 152 -138 152l24 114q117 0 173.5 -63t56.5 -174z" />
    <glyph glyph-name="asciitilde" unicode="~" 
d="M704 595q-59 0 -111.5 22.5t-114.5 69.5q-49 36 -83.5 52.5t-67.5 16.5q-40 0 -87.5 -29.5t-137.5 -104.5l25 117q64 59 109.5 83.5t100.5 24.5q48 0 93.5 -19.5t104.5 -64.5q53 -40 92 -58t80 -18q54 0 102 30t105 96l-27 -127q-42 -44 -86 -67.5t-97 -23.5z" />
    <glyph glyph-name="Euro" unicode="&#x20ac;" 
d="M1057 1362l-42 -120q-81 124 -230 124q-157 0 -277.5 -128t-187.5 -376h540l-36 -88h-525q-12 -57 -21 -108h502l-37 -88h-478q-10 -79 -10 -152q0 -351 255 -351q161 0 277 113l-26 -125q-61 -45 -118.5 -66.5t-132.5 -21.5q-186 0 -282 113.5t-96 341.5q0 69 9 148
h-109l37 88h85q7 46 20 108h-100l36 88h85q78 296 227 450t359 154q85 0 157 -26.5t119 -77.5z" />
    <glyph glyph-name="quotesinglbase" unicode="&#x201a;" horiz-adv-x="276" 
d="M-78 -274l-38 73q55 32 85.5 73.5t42.5 98.5l6 29h-74l41 193h169l-45 -212q-17 -80 -59 -138t-128 -117z" />
    <glyph glyph-name="florin" unicode="&#x192;" 
d="M1147 1466l-45 -91q-50 15 -117 15t-110 -48.5t-85 -143.5l-61 -136h223l-41 -85h-214l-492 -1140q-43 -99 -80.5 -154.5t-91.5 -84.5t-138 -29q-76 0 -131 16l43 95q50 -8 83 -8q58 0 92 15t64 59.5t71 141.5l468 1089h-167l40 85h161l65 154q60 143 135.5 209t178.5 66
q74 0 149 -25z" />
    <glyph glyph-name="quotedblbase" unicode="&#x201e;" horiz-adv-x="574" 
d="M-78 -274l-38 73q55 32 85.5 73.5t42.5 97.5l6 30h-74l41 193h169l-45 -212q-17 -80 -59 -138t-128 -117zM219 -274l-37 73q54 32 85 72.5t42 93.5l7 35h-74l41 193h169l-45 -211q-17 -83 -59 -140.5t-129 -115.5z" />
    <glyph glyph-name="ellipsis" unicode="&#x2026;" horiz-adv-x="2048" 
d="M142 0l41 194h173l-41 -194h-173zM825 0l41 194h173l-41 -194h-173zM1507 0l41 194h174l-41 -194h-174z" />
    <glyph glyph-name="dagger" unicode="&#x2020;" 
d="M933 1018l-23 -107h-311l-263 -1238h-120l263 1238h-310l23 107h310l95 448h120l-95 -448h311z" />
    <glyph glyph-name="daggerdbl" unicode="&#x2021;" 
d="M943 1065l-23 -105h-312l-166 -781h312l-22 -105h-312l-85 -401h-120l85 401h-309l22 105h309l166 781h-309l23 105h309l85 401h120l-85 -401h312z" />
    <glyph glyph-name="circumflex" unicode="&#x2c6;" horiz-adv-x="683" 
d="M617 1198l-85 190l-171 -190h-130l234 260h149l122 -260h-119z" />
    <glyph glyph-name="perthousand" unicode="&#x2030;" horiz-adv-x="2058" 
d="M697 1257q0 -75 -20 -166q-32 -152 -70.5 -242t-94 -133t-137.5 -43q-95 0 -152 56t-57 184q0 68 20 166q33 154 70 242t93 129t144 41q95 0 149.5 -55t54.5 -179zM164 -55l1097 1546h96l-1095 -1546h-98zM286 1061q-19 -89 -19 -151q0 -153 110 -153q50 0 85 32.5
t62 104.5t52 192q23 105 23 176q0 80 -28.5 114t-82.5 34q-63 0 -99.5 -43.5t-56 -109t-46.5 -196.5zM1363 529q0 -75 -20 -166q-32 -152 -70.5 -242t-94 -133t-137.5 -43q-95 0 -152 56t-57 184q0 68 20 166q33 154 70 242t93 129t144 41q95 0 149.5 -55t54.5 -179z
M1973 529q0 -75 -20 -166q-32 -152 -70.5 -242t-94 -133t-137.5 -43q-95 0 -152 56t-57 184q0 68 20 166q33 154 70 242t93 129t144 41q95 0 149.5 -55t54.5 -179zM952 333q-19 -89 -19 -151q0 -153 110 -153q50 0 85 34t62 104.5t52 190.5q23 105 23 176q0 80 -28.5 114
t-82.5 34q-63 0 -99.5 -43.5t-56 -109t-46.5 -196.5zM1562 333q-19 -89 -19 -151q0 -153 110 -153q50 0 85 34t62 104.5t52 190.5q23 105 23 176q0 80 -28.5 114t-82.5 34q-63 0 -99.5 -43.5t-56 -109t-46.5 -196.5z" />
    <glyph glyph-name="Scaron" unicode="&#x160;" horiz-adv-x="1024" 
d="M883 1156q0 111 -59 167t-169 56q-85 0 -144 -36t-88 -95.5t-29 -129.5q0 -66 31 -119t77.5 -92.5t125.5 -94.5q91 -64 145.5 -112t93 -118.5t38.5 -163.5q0 -124 -49.5 -225.5t-150.5 -159.5t-249 -58q-131 0 -220 46.5t-133 125.5t-44 177q0 50 10 117l128 11
q-6 -49 -6 -92q0 -273 274 -273q96 0 164.5 41.5t104 112.5t35.5 157q0 69 -31.5 123.5t-78 94.5t-126.5 96q-89 63 -143.5 111.5t-92.5 119t-38 163.5q0 96 44.5 184t135 144.5t221.5 56.5q160 0 257.5 -78.5t97.5 -238.5q0 -49 -7 -98l-132 -11q7 46 7 91zM701 1653
l171 190h129l-234 -260h-149l-122 260h120z" />
    <glyph glyph-name="guilsinglleft" unicode="&#x2039;" horiz-adv-x="683" 
d="M267 528l169 -454h-91l-212 464l394 440h101z" />
    <glyph glyph-name="OE" unicode="&#x152;" horiz-adv-x="1593" 
d="M1024 1285l39 181h610l-25 -117h-495l-115 -539h442l-25 -117h-442l-122 -577h516l-25 -116h-631l41 195q-90 -123 -173.5 -171.5t-176.5 -48.5q-171 0 -257.5 96t-86.5 304q0 141 42 343q50 236 109 397t170.5 268.5t282.5 107.5q123 0 206.5 -47t115.5 -159zM275 705
q-44 -209 -44 -337q0 -138 52 -211.5t168 -73.5q124 0 208 85.5t137.5 229.5t99.5 359q42 195 42 326q0 145 -54 223t-176 78q-113 0 -192 -76t-135 -222.5t-106 -380.5z" />
    <glyph glyph-name="Zcaron" unicode="&#x17d;" horiz-adv-x="919" 
d="M238 301l-140 -185h673l-25 -116h-814l25 116l798 1089l112 146h-565l25 115h706l-25 -115zM703 1653l171 190h129l-234 -260h-149l-122 260h120z" />
    <glyph glyph-name="quoteleft" unicode="&#x2018;" horiz-adv-x="276" 
d="M295 1252l-7 -35h77l-41 -193h-169l45 212q17 80 59 138t128 117l35 -73q-106 -62 -127 -166z" />
    <glyph glyph-name="quoteright" unicode="&#x2019;" horiz-adv-x="276" 
d="M192 999l-37 73q106 63 126 166l8 35h-74l41 193h169l-45 -212q-18 -84 -60.5 -141.5t-127.5 -113.5z" />
    <glyph glyph-name="quotedblleft" unicode="&#x201c;" horiz-adv-x="574" 
d="M295 1252l-7 -35h77l-41 -193h-169l45 212q17 80 59 138.5t128 116.5l35 -73q-106 -62 -127 -166zM592 1253l-7 -36h78l-41 -193h-169l45 212q17 80 59 138t128 117l35 -73q-109 -65 -128 -165z" />
    <glyph glyph-name="quotedblright" unicode="&#x201d;" horiz-adv-x="574" 
d="M192 999l-37 73q106 63 126 166l8 35h-74l41 193h169l-45 -212q-18 -84 -60.5 -141.5t-127.5 -113.5zM489 999l-36 73q105 62 126 166l8 35h-74l41 193h169l-45 -212q-18 -84 -61 -142.5t-128 -112.5z" />
    <glyph glyph-name="bullet" unicode="&#x2022;" horiz-adv-x="680" 
d="M620 733q0 -63 -32 -117t-86 -86t-117 -32t-117 32t-86 86t-32 117t32 117t86 86t117 32t117 -32t86 -86t32 -117z" />
    <glyph glyph-name="endash" unicode="&#x2013;" horiz-adv-x="940" 
d="M-18 466l20 92h948l-20 -92h-948z" />
    <glyph glyph-name="emdash" unicode="&#x2014;" horiz-adv-x="1764" 
d="M-18 466l20 92h1772l-20 -92h-1772z" />
    <glyph glyph-name="tilde" unicode="&#x2dc;" horiz-adv-x="683" 
d="M643 1231q-61 0 -142 43q-44 24 -69 33.5t-45 9.5q-39 0 -57 -20.5t-25 -65.5h-85q8 98 48.5 142.5t114.5 44.5q29 0 62 -10.5t78 -32.5q45 -23 72 -32.5t53 -9.5q31 0 46 20t23 66h83q-9 -188 -157 -188z" />
    <glyph glyph-name="trademark" unicode="&#x2122;" horiz-adv-x="1472" 
d="M484 1384v-737h-95v737h-241v82h585v-82h-249zM1368 1466h141v-819h-92v706l-230 -703l-2 -3h-59l-218 706v-706h-92v819h143l197 -645z" />
    <glyph glyph-name="scaron" unicode="&#x161;" horiz-adv-x="791" 
d="M638 826q0 71 -46 117t-128 46q-61 0 -104 -24t-65 -63.5t-22 -85.5q0 -51 23 -89.5t57.5 -66t94.5 -65.5q72 -46 115.5 -82.5t74 -93.5t30.5 -138q0 -75 -35.5 -145t-114 -115.5t-200.5 -45.5q-106 0 -176.5 33.5t-104.5 91.5t-34 131q0 23 1 35l122 21q-1 -10 -1 -30
q0 -87 50 -136t147 -49q70 0 120.5 26.5t77 71t26.5 97.5q0 57 -24 99t-60 70.5t-97 67.5q-69 45 -110 79.5t-70 88.5t-29 130q0 75 36.5 140t108 104.5t172.5 39.5q85 0 149.5 -31t100 -87.5t35.5 -130.5q0 -22 -1 -34l-122 -16q3 20 3 39zM521 1268l171 190h129l-234 -260
h-149l-122 260h120z" />
    <glyph glyph-name="guilsinglright" unicode="&#x203a;" horiz-adv-x="683" 
d="M550 519l-396 -445h-101l362 454l-170 450h92z" />
    <glyph glyph-name="oe" unicode="&#x153;" horiz-adv-x="1366" 
d="M1335 794q0 -60 -16 -138l-31 -142h-502l-2 -12q-28 -129 -28 -219q0 -208 148 -208q76 0 134 60t105 211l109 -16q-54 -181 -138 -268t-213 -87q-99 0 -164.5 50t-85.5 147q-76 -110 -154 -153.5t-165 -43.5q-129 0 -202 84t-73 247q0 85 23 197q36 171 84 293.5
t139 206t233 83.5q104 0 169 -45.5t92 -140.5q62 97 132.5 141.5t156.5 44.5q119 0 184 -78.5t65 -213.5zM810 617h379l14 64q14 67 14 118q0 89 -37.5 137.5t-107.5 48.5q-78 0 -130.5 -58t-78.5 -129.5t-53 -180.5zM207 525q-26 -118 -26 -211q0 -119 43 -179t119 -60
q74 0 133.5 43.5t110 151t90.5 294.5q24 113 24 196q0 112 -43 168t-126 56q-110 0 -192 -109.5t-133 -349.5z" />
    <glyph glyph-name="zcaron" unicode="&#x17e;" horiz-adv-x="694" 
d="M161 196l-74 -96h483l-21 -100h-627l17 81l596 795l67 87h-452l21 99h591l-19 -90zM503 1268l171 190h129l-234 -260h-149l-122 260h120z" />
    <glyph glyph-name="Ydieresis" unicode="&#x178;" horiz-adv-x="1024" 
d="M548 761l137 194l369 511h154l-619 -836l-134 -630h-134l134 630l-241 836h140l140 -505zM636 1597h-124l37 174h124zM945 1597h-123l37 174h123z" />
    <glyph glyph-name="uni00A0" unicode="&#xa0;" horiz-adv-x="512" 
 />
    <glyph glyph-name="exclamdown" unicode="&#xa1;" horiz-adv-x="449" 
d="M224 701h73l-132 -788l-68 -317h-148l68 317zM422 1062l-41 -193h-169l41 193h169z" />
    <glyph glyph-name="cent" unicode="&#xa2;" horiz-adv-x="795" 
d="M761 788q0 -25 -1 -38l-119 -26q3 34 3 64q0 114 -47 163l-327 -863q28 -14 64 -14q58 0 100 28t74.5 90.5t62.5 169.5l112 -20q-37 -127 -82.5 -207t-110.5 -120.5t-157 -40.5q-53 0 -100 14l-154 -403l-73 31l156 409q-101 80 -101 277q0 104 30 248q38 181 87 296.5
t126.5 177.5t195.5 62q31 0 64 -5l141 371l71 -28l-138 -365q123 -62 123 -271zM182 307q0 -96 28 -155l317 833q-17 3 -35 3q-76 0 -127 -51.5t-85.5 -145.5t-67.5 -246q-30 -137 -30 -238z" />
    <glyph glyph-name="sterling" unicode="&#xa3;" 
d="M955 1202q0 -37 -6 -79l-118 -20q7 46 7 90q0 99 -48.5 149t-140.5 50q-101 0 -161 -55.5t-84 -137t-24 -168.5q0 -51 12 -159q8 -79 9 -87h254l-23 -106h-227q-5 -148 -72 -286t-210 -255q47 11 73.5 15t56.5 4q42 0 80 -9t85 -25q48 -16 77 -23t61 -7q90 0 196 58
l21 -106q-134 -70 -229 -70q-44 0 -83 11t-91 33q-52 20 -82 29t-63 9q-58 0 -117 -19.5t-127 -58.5l-28 104q113 88 188.5 191.5t112 205t36.5 189.5v10h-211l23 106h182l-7 71q-5 41 -8.5 85.5t-3.5 86.5q0 111 35 215.5t120.5 176t227.5 71.5q144 0 225.5 -75t81.5 -214z
" />
    <glyph glyph-name="currency" unicode="&#xa4;" 
d="M778 1007q56 -110 56 -279q0 -192 -56 -296l95 -121l-66 -53l-82 106q-89 -86 -230 -86q-126 0 -226 82l-81 -102l-66 53l94 117q-60 104 -60 292q0 183 60 292l-94 120l66 51l81 -104q90 83 230 83q130 0 226 -83l86 104l62 -51zM238 722q0 -361 258 -361
q126 0 190.5 86.5t64.5 285.5q0 174 -64 259.5t-195 85.5q-254 0 -254 -356z" />
    <glyph glyph-name="yen" unicode="&#xa5;" 
d="M886 733l-19 -89h-306l-16 -24l-29 -138h317l-19 -89h-317l-84 -393h-128l84 394h-325l19 88h325l29 138l-6 25h-314l19 88h273l-185 733h126l142 -579l31 -145l90 145l378 579h140l-490 -733h265z" />
    <glyph glyph-name="brokenbar" unicode="&#xa6;" horiz-adv-x="449" 
d="M306 712h-103v754h103v-754zM306 -407h-103v754h103v-754z" />
    <glyph glyph-name="section" unicode="&#xa7;" 
d="M888 1168l-123 -13q10 232 -156 232q-89 0 -129 -56.5t-40 -134.5q0 -60 38.5 -133t144.5 -206q75 -90 117 -150.5t61.5 -111t19.5 -102.5q0 -98 -73 -183.5t-233 -142.5q51 -60 78 -133t27 -151q0 -70 -30.5 -142t-101.5 -122t-184 -50q-109 0 -176.5 49.5t-96.5 124
t-29 153.5q0 17 1 26l124 17q-5 -118 37 -191t147 -73q99 0 144.5 61.5t45.5 153.5q0 46 -16 90.5t-55.5 101t-112.5 135.5q-114 125 -163.5 208.5t-49.5 159.5q0 68 34 134t105 119.5t176 81.5q-106 137 -106 266q0 68 27 137t95.5 118.5t174.5 49.5q140 0 209 -85t69 -238
zM225 602q0 -44 17.5 -86t52.5 -91q32 -44 138 -162l26 -30q79 21 132.5 61.5t79.5 90t26 95.5q0 85 -83 198q-47 66 -140 179q-249 -64 -249 -255z" />
    <glyph glyph-name="dieresis" unicode="&#xa8;" horiz-adv-x="683" 
d="M394 1212h-124l37 174h124zM703 1212h-123l37 174h123z" />
    <glyph glyph-name="copyright" unicode="&#xa9;" horiz-adv-x="1650" 
d="M1630 729q0 -212 -106 -387.5t-282 -276.5t-377 -101q-213 0 -388.5 106t-276 282t-100.5 377q0 213 106.5 388.5t282.5 276t376 100.5q211 0 386.5 -106t277 -282t101.5 -377zM189 728q0 -184 91 -339t246 -245.5t339 -90.5t339 90.5t246 245.5t91 339q0 183 -91 339
t-246.5 247t-338.5 91q-184 0 -339 -91t-246 -246.5t-91 -339.5zM1200 929l-98 -35q-25 79 -86 121t-150 42q-129 0 -200 -87t-71 -246q0 -98 32.5 -173.5t93 -117t141.5 -41.5q99 0 158 48.5t88 146.5l100 -31q-35 -120 -125 -188t-218 -68q-113 0 -199 51t-133.5 146
t-47.5 225q0 131 47.5 227t135 147.5t204.5 51.5q119 0 206.5 -59.5t121.5 -159.5z" />
    <glyph glyph-name="ordfeminine" unicode="&#xaa;" horiz-adv-x="555" 
d="M621 1347q0 -37 -18 -120l-60 -276q-18 -84 -18 -141q0 -27 4 -42h-93q-1 7 -1 23q0 29 4 58q-37 -55 -76 -81t-89 -26q-40 0 -73 18.5t-52.5 53.5t-19.5 82q0 75 45.5 137.5t142.5 100.5q152 59 193 91l5 24q13 58 13 86q0 36 -21.5 55t-57.5 19q-47 0 -76.5 -34
t-48.5 -108l-92 10q35 115 84 164.5t137 49.5q87 0 127.5 -38t40.5 -106zM339 1068q-58 -27 -86 -70.5t-28 -89.5q0 -85 72 -85q55 0 103 57.5t71 165.5l21 95z" />
    <glyph glyph-name="guillemotleft" unicode="&#xab;" horiz-adv-x="1024" 
d="M233 528l169 -454h-91l-212 464l394 440h101zM654 528l170 -454h-91l-212 464l394 440h101z" />
    <glyph glyph-name="logicalnot" unicode="&#xac;" horiz-adv-x="896" 
d="M799 434v485h-709v87h796v-572h-87z" />
    <glyph glyph-name="uni00AD" unicode="&#xad;" horiz-adv-x="684" 
d="M60 465l27 129h536l-27 -129h-536z" />
    <glyph glyph-name="registered" unicode="&#xae;" horiz-adv-x="1650" 
d="M1630 729q0 -212 -106 -387.5t-282 -276.5t-377 -101q-213 0 -388.5 106t-276 282t-100.5 377q0 213 106.5 388.5t282.5 276t376 100.5q211 0 386.5 -106t277 -282t101.5 -377zM189 728q0 -184 91 -339t246 -245.5t339 -90.5t339 90.5t246 245.5t91 339q0 183 -91 339
t-246.5 247t-338.5 91q-184 0 -339 -91t-246 -246.5t-91 -339.5zM1183 914q0 -90 -64 -145.5t-178 -66.5q45 -12 82 -47t84 -120l109 -210h-122l-93 191q-32 67 -58 97.5t-61.5 42t-101.5 11.5h-104v-343h-103v811h332q137 0 207.5 -59.5t70.5 -161.5zM1072 911
q0 66 -42.5 98.5t-140.5 32.5h-213v-282h179q115 0 166 36t51 115z" />
    <glyph glyph-name="glyph140" horiz-adv-x="683" 
d="M247 1227l23 110h485l-23 -110h-485z" />
    <glyph glyph-name="degree" unicode="&#xb0;" horiz-adv-x="811" 
d="M118 1189q0 77 39 143t105 105t143 39q76 0 142 -38.5t105.5 -104t39.5 -144.5q0 -76 -39 -142t-105 -105.5t-143 -39.5t-143 39t-105 105t-39 143zM404 1394q-53 0 -100 -27.5t-75.5 -74.5t-28.5 -102q0 -56 27.5 -102.5t74.5 -74t103 -27.5q55 0 102 27.5t74.5 74.5
t27.5 102q0 56 -27.5 102.5t-74.5 74t-103 27.5z" />
    <glyph glyph-name="plusminus" unicode="&#xb1;" 
d="M522 842h355v-86h-355v-354h-87v354h-354v86h354v354h87v-354zM81 244v87h796v-87h-796z" />
    <glyph glyph-name="uni00B2" unicode="&#xb2;" horiz-adv-x="555" 
d="M81 738q31 71 97.5 139t179.5 161l81 68q52 46 83.5 89t38.5 77q4 19 4 38q0 47 -28 74t-65 27q-59 0 -97.5 -34.5t-63.5 -106.5l-94 7q37 111 96 162.5t161 51.5q86 0 139 -47t53 -125q0 -25 -6 -52q-21 -101 -178 -235l-70 -60q-68 -57 -102.5 -89t-57.5 -62h320
l-18 -83h-473z" />
    <glyph glyph-name="uni00B3" unicode="&#xb3;" horiz-adv-x="555" 
d="M596 992q0 -35 -8 -70q-18 -92 -81 -150.5t-161 -58.5q-96 0 -150 51t-55 134q0 8 1 22l96 11q-4 -68 23.5 -103t83.5 -35q54 0 92 38t51 99q6 27 6 50q0 54 -30 83t-76 29h-53l25 73q75 10 119.5 42t55.5 84q4 17 4 36q0 40 -21.5 61.5t-58.5 21.5q-53 0 -83 -30
t-49 -93l-92 7q29 100 84 148.5t141 48.5q81 0 129 -43t48 -114q0 -23 -6 -50q-10 -44 -46.5 -84t-93.5 -58q48 -12 76.5 -49.5t28.5 -100.5z" />
    <glyph glyph-name="acute" unicode="&#xb4;" horiz-adv-x="683" 
d="M388 1201l133 260h190l-225 -260h-98z" />
    <glyph glyph-name="uni00B5" unicode="&#xb5;" horiz-adv-x="930" 
d="M552 0l31 144q-48 -90 -100.5 -129.5t-118.5 -39.5t-112 32.5t-72 104.5l-110 -518h-124l312 1468h120l-126 -592q-22 -104 -22 -185q0 -101 35.5 -154.5t104.5 -53.5q109 0 176 104t106 289l126 592h120l-226 -1062h-120z" />
    <glyph glyph-name="paragraph" unicode="&#xb6;" horiz-adv-x="1134" 
d="M1167 1341l-371 -1747h-124l371 1747h-227l-371 -1747h-124l220 1036h-50q-95 0 -170.5 44t-118 122t-42.5 175q0 139 63 250.5t201 178t344 66.5h535l-27 -125h-109z" />
    <glyph glyph-name="periodcentered" unicode="&#xb7;" horiz-adv-x="448" 
d="M162 636l41 193h169l-41 -193h-169z" />
    <glyph glyph-name="cedilla" unicode="&#xb8;" horiz-adv-x="683" 
d="M351 -226q0 -78 -69.5 -126.5t-212.5 -49.5q-57 0 -106 12l29 72q39 -5 69 -5q87 0 125.5 27t38.5 72q0 36 -32.5 58t-93.5 22l89 169h82l-59 -117q68 -10 104 -47t36 -87z" />
    <glyph glyph-name="uni00B9" unicode="&#xb9;" horiz-adv-x="555" 
d="M343 738l125 586q-56 -46 -105 -73t-113 -42l20 98q89 31 152 75.5t110 108.5h71l-160 -753h-100z" />
    <glyph glyph-name="ordmasculine" unicode="&#xba;" horiz-adv-x="555" 
d="M647 1268q0 -67 -17 -146q-26 -120 -54.5 -198t-83.5 -130t-145 -52q-87 0 -138.5 55t-51.5 167q0 66 17 141q33 150 72 234t89.5 118t122.5 34q86 0 137.5 -53.5t51.5 -169.5zM272 1109q-18 -87 -18 -145q0 -142 99 -142q45 0 76 28t54.5 91.5t47.5 176.5q21 101 21 161
q0 74 -26 104.5t-72 30.5q-38 0 -68 -23t-58.5 -89.5t-55.5 -192.5z" />
    <glyph glyph-name="guillemotright" unicode="&#xbb;" horiz-adv-x="1024" 
d="M503 519l-396 -445h-101l362 454l-170 450h92zM925 519l-396 -445h-101l362 454l-170 450h92z" />
    <glyph glyph-name="onequarter" unicode="&#xbc;" horiz-adv-x="1427" 
d="M274 -55h-99l1089 1546h98zM343 738l125 586q-56 -46 -105.5 -73t-112.5 -42l20 98q89 31 151.5 76t110.5 108h71l-160 -753h-100zM1216 260h94l-16 -77h-94l-39 -183h-85l39 183h-279l16 77l384 493h85zM1205 604l-263 -344h189z" />
    <glyph glyph-name="onehalf" unicode="&#xbd;" horiz-adv-x="1422" 
d="M274 -55h-99l1089 1546h98zM343 738l125 586q-56 -46 -105.5 -73t-112.5 -42l20 98q89 31 151.5 75t110.5 109h71l-160 -753h-100zM798 0q28 71 96 139t181 161l81 68q52 46 83.5 89t38.5 77q4 19 4 38q0 49 -28 75t-65 26q-59 0 -97.5 -34.5t-63.5 -106.5l-94 7
q37 111 96 162.5t161 51.5q86 0 139 -47t53 -125q0 -25 -6 -52q-21 -101 -178 -235l-70 -60q-68 -57 -102.5 -89t-57.5 -62h320l-18 -83h-473z" />
    <glyph glyph-name="threequarters" unicode="&#xbe;" horiz-adv-x="1427" 
d="M274 -55h-99l1089 1546h98zM1216 260h94l-16 -77h-94l-39 -183h-85l39 183h-279l16 77l384 493h85zM1205 604l-263 -344h189zM596 992q0 -35 -8 -70q-18 -92 -81 -150.5t-161 -58.5q-96 0 -150 51t-55 134q0 8 1 22l96 11q-4 -68 23.5 -103t83.5 -35q54 0 92 38t51 99
q6 27 6 50q0 54 -30 83t-76 29h-53l25 73q75 10 119.5 42t55.5 84q4 17 4 36q0 40 -21.5 61.5t-58.5 21.5q-53 0 -83 -30t-49 -93l-92 7q29 100 84 148.5t141 48.5q81 0 129 -43t48 -114q0 -23 -6 -50q-10 -44 -46.5 -84t-93.5 -58q48 -12 76.5 -49.5t28.5 -100.5z" />
    <glyph glyph-name="questiondown" unicode="&#xbf;" horiz-adv-x="780" 
d="M-74 -150q0 62 24.5 125t75.5 133.5t140 174.5q80 93 115.5 141.5t56 99.5t38.5 136l9 41h125l-5 -23q-24 -110 -52.5 -179.5t-77 -136t-146.5 -178.5q-90 -103 -131.5 -179.5t-41.5 -145.5q0 -79 43.5 -129.5t123.5 -50.5q92 0 152 73t106 232l119 -19
q-54 -202 -143.5 -298t-235.5 -96q-88 0 -155 36t-103.5 99.5t-36.5 143.5zM602 1062l-41 -193h-169l41 193h169z" />
    <glyph glyph-name="Agrave" unicode="&#xc0;" horiz-adv-x="1024" 
d="M248 447l-219 -447h-143l742 1466h139l145 -1466h-141l-35 447h-488zM668 1305l-366 -748h425zM677 1586l-162 260h169l82 -260h-89z" />
    <glyph glyph-name="Aacute" unicode="&#xc1;" horiz-adv-x="1024" 
d="M248 447l-219 -447h-143l742 1466h139l145 -1466h-141l-35 447h-488zM668 1305l-366 -748h425zM654 1586l133 260h190l-225 -260h-98z" />
    <glyph glyph-name="Acircumflex" unicode="&#xc2;" horiz-adv-x="1024" 
d="M248 447l-219 -447h-143l742 1466h139l145 -1466h-141l-35 447h-488zM668 1305l-366 -748h425zM846 1583l-85 190l-171 -190h-130l234 260h149l122 -260h-119z" />
    <glyph glyph-name="Atilde" unicode="&#xc3;" horiz-adv-x="1024" 
d="M248 447l-219 -447h-143l742 1466h139l145 -1466h-141l-35 447h-488zM668 1305l-366 -748h425zM852 1616q-63 0 -142 43q-43 24 -68.5 33.5t-45.5 9.5q-39 0 -57 -20.5t-25 -65.5h-85q8 98 49 142.5t114 44.5q29 0 62 -10.5t78 -32.5q45 -23 72 -32.5t53 -9.5q31 0 46 20
t23 66h83q-9 -188 -157 -188z" />
    <glyph glyph-name="Adieresis" unicode="&#xc4;" horiz-adv-x="1024" 
d="M248 447l-219 -447h-143l742 1466h139l145 -1466h-141l-35 447h-488zM668 1305l-366 -748h425zM630 1597h-124l37 174h124zM939 1597h-123l37 174h123z" />
    <glyph glyph-name="Aring" unicode="&#xc5;" horiz-adv-x="1024" 
d="M773 1404l139 -1404h-141l-35 447h-488l-219 -447h-143l722 1426q-43 27 -67.5 71t-24.5 96q0 53 26.5 98.5t72 72.5t99.5 27q53 0 98.5 -26t72.5 -71.5t27 -100.5q0 -65 -39 -117t-100 -72zM589 1591q0 -52 36.5 -88.5t88.5 -36.5q35 0 64 17.5t46 46t17 61.5
q0 35 -17.5 64t-46.5 46t-64 17q-32 0 -60.5 -17t-46 -46t-17.5 -64zM668 1305l-366 -748h425z" />
    <glyph glyph-name="AE" unicode="&#xc6;" horiz-adv-x="1468" 
d="M1037 1350l-115 -540h428l-24 -116h-428l-123 -578h507l-25 -116h-641l95 448h-426l-254 -448h-147l842 1466h818l-25 -116h-482zM736 563l167 787h-105l-448 -787h386z" />
    <glyph glyph-name="Ccedilla" unicode="&#xc7;" horiz-adv-x="1133" 
d="M918 489l123 -25q-80 -249 -205 -369t-313 -120h-18l-34 -67q67 -9 103.5 -46.5t36.5 -87.5q0 -77 -69.5 -126.5t-212.5 -49.5q-57 0 -106 12l29 72q39 -5 69 -5q87 0 125.5 27.5t38.5 71.5q0 36 -32.5 58t-93.5 22l67 127q-157 29 -234.5 151.5t-77.5 323.5
q0 123 31 283q48 241 120 404t194 254.5t308 91.5q175 0 277 -109.5t109 -319.5l-136 -31q-2 172 -69 260t-191 88q-122 0 -211 -64t-153 -203.5t-111 -371.5q-32 -159 -32 -285q0 -185 70.5 -276.5t201.5 -91.5q130 0 225.5 92.5t170.5 309.5z" />
    <glyph glyph-name="Egrave" unicode="&#xc8;" 
d="M470 1350l-115 -540h434l-24 -116h-434l-123 -578h523l-25 -116h-657l312 1466h634l-25 -116h-500zM680 1586l-162 260h169l82 -260h-89z" />
    <glyph glyph-name="Eacute" unicode="&#xc9;" 
d="M470 1350l-115 -540h434l-24 -116h-434l-123 -578h523l-25 -116h-657l312 1466h634l-25 -116h-500zM657 1586l133 260h190l-225 -260h-98z" />
    <glyph glyph-name="Ecircumflex" unicode="&#xca;" 
d="M470 1350l-115 -540h434l-24 -116h-434l-123 -578h523l-25 -116h-657l312 1466h634l-25 -116h-500zM849 1583l-85 190l-171 -190h-130l234 260h149l122 -260h-119z" />
    <glyph glyph-name="Edieresis" unicode="&#xcb;" 
d="M470 1350l-115 -540h434l-24 -116h-434l-123 -578h523l-25 -116h-657l312 1466h634l-25 -116h-500zM633 1597h-124l37 174h124zM942 1597h-123l37 174h123z" />
    <glyph glyph-name="Igrave" unicode="&#xcc;" horiz-adv-x="458" 
d="M49 0l312 1466h134l-312 -1466h-134zM407 1586l-162 260h169l82 -260h-89z" />
    <glyph glyph-name="Iacute" unicode="&#xcd;" horiz-adv-x="458" 
d="M49 0l312 1466h134l-312 -1466h-134zM384 1586l133 260h190l-225 -260h-98z" />
    <glyph glyph-name="Icircumflex" unicode="&#xce;" horiz-adv-x="458" 
d="M49 0l312 1466h134l-312 -1466h-134zM576 1583l-85 190l-171 -190h-130l234 260h149l122 -260h-119z" />
    <glyph glyph-name="Idieresis" unicode="&#xcf;" horiz-adv-x="458" 
d="M49 0l312 1466h134l-312 -1466h-134zM360 1597h-124l37 174h124zM669 1597h-123l37 174h123z" />
    <glyph glyph-name="Eth" unicode="&#xd0;" horiz-adv-x="1128" 
d="M1108 997q0 -104 -23 -219q-58 -292 -130 -454.5t-205.5 -243t-366.5 -80.5h-334l147 691h-158l18 87h159l146 688h267q235 0 357.5 -119.5t122.5 -349.5zM970 990q0 358 -340 358h-160l-121 -570h310l-18 -87h-311l-122 -573h198q165 0 267.5 67.5t164.5 208.5t109 385
q23 118 23 211z" />
    <glyph glyph-name="Ntilde" unicode="&#xd1;" horiz-adv-x="1130" 
d="M692 0l-253 1270h-1l-255 -1270h-134l312 1466h155l257 -1291h1l260 1291h133l-312 -1466h-163zM919 1616q-63 0 -142 43q-43 24 -68.5 33.5t-45.5 9.5q-39 0 -57 -20.5t-25 -65.5h-85q8 98 49 142.5t114 44.5q29 0 62 -10.5t78 -32.5q45 -23 72 -32.5t53 -9.5
q31 0 46 20t23 66h83q-9 -188 -157 -188z" />
    <glyph glyph-name="Ograve" unicode="&#xd2;" horiz-adv-x="1131" 
d="M1105 1039q0 -210 -53.5 -458.5t-195 -428.5t-367.5 -180q-376 0 -376 480q0 199 57.5 443.5t197 421t350.5 177.5q195 0 291 -110.5t96 -344.5zM248 441q0 -178 57.5 -267.5t185.5 -89.5q172 0 282 171t153.5 392t43.5 384q0 186 -62.5 268.5t-189.5 82.5
q-160 0 -268 -159t-155 -378.5t-47 -403.5zM721 1591l-162 260h169l82 -260h-89z" />
    <glyph glyph-name="Oacute" unicode="&#xd3;" horiz-adv-x="1131" 
d="M1105 1039q0 -210 -53.5 -458.5t-195 -428.5t-367.5 -180q-376 0 -376 480q0 199 57.5 443.5t197 421t350.5 177.5q195 0 291 -110.5t96 -344.5zM248 441q0 -178 57.5 -267.5t185.5 -89.5q172 0 282 171t153.5 392t43.5 384q0 186 -62.5 268.5t-189.5 82.5
q-160 0 -268 -159t-155 -378.5t-47 -403.5zM698 1591l133 260h190l-225 -260h-98z" />
    <glyph glyph-name="Ocircumflex" unicode="&#xd4;" horiz-adv-x="1131" 
d="M1105 1039q0 -210 -53.5 -458.5t-195 -428.5t-367.5 -180q-376 0 -376 480q0 199 57.5 443.5t197 421t350.5 177.5q195 0 291 -110.5t96 -344.5zM248 441q0 -178 57.5 -267.5t185.5 -89.5q172 0 282 171t153.5 392t43.5 384q0 186 -62.5 268.5t-189.5 82.5
q-160 0 -268 -159t-155 -378.5t-47 -403.5zM890 1588l-85 190l-171 -190h-130l234 260h149l122 -260h-119z" />
    <glyph glyph-name="Otilde" unicode="&#xd5;" horiz-adv-x="1131" 
d="M1105 1039q0 -210 -53.5 -458.5t-195 -428.5t-367.5 -180q-376 0 -376 480q0 199 57.5 443.5t197 421t350.5 177.5q195 0 291 -110.5t96 -344.5zM248 441q0 -178 57.5 -267.5t185.5 -89.5q172 0 282 171t153.5 392t43.5 384q0 186 -62.5 268.5t-189.5 82.5
q-160 0 -268 -159t-155 -378.5t-47 -403.5zM896 1621q-63 0 -142 43q-43 24 -68.5 33.5t-45.5 9.5q-39 0 -57 -20.5t-25 -65.5h-85q8 98 49 142.5t114 44.5q29 0 62 -10.5t78 -32.5q45 -23 72 -32.5t53 -9.5q31 0 46 20t23 66h83q-9 -188 -157 -188z" />
    <glyph glyph-name="Odieresis" unicode="&#xd6;" horiz-adv-x="1131" 
d="M1105 1039q0 -210 -53.5 -458.5t-195 -428.5t-367.5 -180q-376 0 -376 480q0 199 57.5 443.5t197 421t350.5 177.5q195 0 291 -110.5t96 -344.5zM248 441q0 -178 57.5 -267.5t185.5 -89.5q172 0 282 171t153.5 392t43.5 384q0 186 -62.5 268.5t-189.5 82.5
q-160 0 -268 -159t-155 -378.5t-47 -403.5zM674 1602h-124l37 174h124zM983 1602h-123l37 174h123z" />
    <glyph glyph-name="multiply" unicode="&#xd7;" 
d="M809 1155l60 -57l-314 -376l314 -388l-67 -51l-301 373l-305 -369l-67 54l318 381l-312 381l65 54l301 -370z" />
    <glyph glyph-name="Oslash" unicode="&#xd8;" horiz-adv-x="1131" 
d="M1105 1039q0 -210 -54 -458.5t-195 -428.5t-367 -180q-154 0 -247 82l-58 -97l-77 43l76 127q-70 118 -70 325q0 188 57 437.5t197.5 426.5t350.5 178q149 0 240 -64l49 83l76 -47l-60 -100q82 -112 82 -327zM266 267l625 1051q-60 64 -173 64q-159 0 -267.5 -159
t-155.5 -378.5t-47 -403.5q0 -100 18 -174zM970 1031q0 123 -27 199l-633 -1062q60 -84 181 -84q172 0 282 169.5t153.5 392t43.5 385.5z" />
    <glyph glyph-name="Ugrave" unicode="&#xd9;" horiz-adv-x="1131" 
d="M499 -25q-181 0 -271.5 91.5t-90.5 258.5q0 77 20 171l207 970h134l-210 -990q-18 -82 -18 -148q0 -119 58 -180t174 -61q98 0 159 43.5t94.5 119.5t56.5 188l219 1028h134l-217 -1018q-34 -164 -86.5 -266t-140 -154.5t-222.5 -52.5zM744 1586l-162 260h169l82 -260h-89
z" />
    <glyph glyph-name="Uacute" unicode="&#xda;" horiz-adv-x="1131" 
d="M499 -25q-181 0 -271.5 91.5t-90.5 258.5q0 77 20 171l207 970h134l-210 -990q-18 -82 -18 -148q0 -119 58 -180t174 -61q98 0 159 43.5t94.5 119.5t56.5 188l219 1028h134l-217 -1018q-34 -164 -86.5 -266t-140 -154.5t-222.5 -52.5zM721 1586l133 260h190l-225 -260
h-98z" />
    <glyph glyph-name="Ucircumflex" unicode="&#xdb;" horiz-adv-x="1131" 
d="M499 -25q-181 0 -271.5 91.5t-90.5 258.5q0 77 20 171l207 970h134l-210 -990q-18 -82 -18 -148q0 -119 58 -180t174 -61q98 0 159 43.5t94.5 119.5t56.5 188l219 1028h134l-217 -1018q-34 -164 -86.5 -266t-140 -154.5t-222.5 -52.5zM913 1583l-85 190l-171 -190h-130
l234 260h149l122 -260h-119z" />
    <glyph glyph-name="Udieresis" unicode="&#xdc;" horiz-adv-x="1131" 
d="M499 -25q-181 0 -271.5 91.5t-90.5 258.5q0 77 20 171l207 970h134l-210 -990q-18 -82 -18 -148q0 -119 58 -180t174 -61q98 0 159 43.5t94.5 119.5t56.5 188l219 1028h134l-217 -1018q-34 -164 -86.5 -266t-140 -154.5t-222.5 -52.5zM697 1597h-124l37 174h124z
M1006 1597h-123l37 174h123z" />
    <glyph glyph-name="Yacute" unicode="&#xdd;" horiz-adv-x="1024" 
d="M548 761l137 194l369 511h154l-619 -836l-134 -630h-134l134 630l-241 836h140l140 -505zM660 1586l133 260h190l-225 -260h-98z" />
    <glyph glyph-name="Thorn" unicode="&#xde;" horiz-adv-x="1018" 
d="M989 784q0 -125 -56 -231.5t-182 -173t-325 -66.5h-176l-67 -313h-134l312 1466h134l-68 -318h138q135 0 230.5 -46t144.5 -128t49 -190zM846 778q0 120 -78 186.5t-241 66.5h-125l-127 -601h164q144 0 235 49t131.5 127.5t40.5 171.5z" />
    <glyph glyph-name="germandbls" unicode="&#xdf;" horiz-adv-x="931" 
d="M881 1253q0 -65 -23.5 -120.5t-56.5 -97.5t-84 -95q-52 -54 -77.5 -89t-28.5 -73q-3 -45 17.5 -87t65.5 -105q39 -55 63.5 -97t42 -96.5t17.5 -117.5q0 -79 -33.5 -147.5t-99 -110.5t-157.5 -42q-91 0 -159.5 44t-96.5 128l117 58q27 -67 63 -93t80 -26q80 0 121 50.5
t41 127.5q0 59 -17 108t-41 86.5t-63 89.5q-34 45 -53 74t-31 64t-10 73q3 46 22.5 86t47 72.5t71.5 75.5q48 49 75.5 81.5t46.5 74.5t19 92q0 73 -43 111t-111 38q-83 0 -133.5 -58.5t-76.5 -179.5l-245 -1152h-119l242 1136q26 122 65.5 199t105 116.5t165.5 39.5
q83 0 144.5 -30t94 -84t32.5 -124z" />
    <glyph glyph-name="agrave" unicode="&#xe0;" horiz-adv-x="789" 
d="M722 844q0 -52 -14 -119l-94 -444q-21 -99 -21 -147q0 -30 5 -60t17 -74h-124q-13 42 -13 86q0 16 1 24q-52 -68 -110.5 -101.5t-128.5 -33.5q-76 0 -126.5 33.5t-75 86t-24.5 108.5q0 105 41.5 178t117.5 121t192 84q159 51 216 84l12 52q15 63 15 113q0 73 -33.5 114.5
t-106.5 41.5q-49 0 -85.5 -17.5t-66.5 -63t-55 -127.5l-112 17q44 144 122.5 215t202.5 71q123 0 185.5 -62.5t62.5 -179.5zM402 505q-86 -30 -142.5 -63t-90.5 -86.5t-34 -133.5q0 -61 31.5 -103.5t98.5 -42.5q52 0 102 33.5t91 102.5t63 171l39 186q-52 -27 -158 -64z
M511 1201l-162 260h169l82 -260h-89z" />
    <glyph glyph-name="aacute" unicode="&#xe1;" horiz-adv-x="789" 
d="M722 844q0 -52 -14 -119l-94 -444q-21 -99 -21 -147q0 -30 5 -60t17 -74h-124q-13 42 -13 86q0 16 1 24q-52 -68 -110.5 -101.5t-128.5 -33.5q-76 0 -126.5 33.5t-75 86t-24.5 108.5q0 105 41.5 178t117.5 121t192 84q159 51 216 84l12 52q15 63 15 113q0 73 -33.5 114.5
t-106.5 41.5q-49 0 -85.5 -17.5t-66.5 -63t-55 -127.5l-112 17q44 144 122.5 215t202.5 71q123 0 185.5 -62.5t62.5 -179.5zM402 505q-86 -30 -142.5 -63t-90.5 -86.5t-34 -133.5q0 -61 31.5 -103.5t98.5 -42.5q52 0 102 33.5t91 102.5t63 171l39 186q-52 -27 -158 -64z
M440 1201l133 260h190l-225 -260h-98z" />
    <glyph glyph-name="acircumflex" unicode="&#xe2;" horiz-adv-x="789" 
d="M722 844q0 -52 -14 -119l-94 -444q-21 -99 -21 -147q0 -30 5 -60t17 -74h-124q-13 42 -13 86q0 16 1 24q-52 -68 -110.5 -101.5t-128.5 -33.5q-76 0 -126.5 33.5t-75 86t-24.5 108.5q0 105 41.5 178t117.5 121t192 84q159 51 216 84l12 52q15 63 15 113q0 73 -33.5 114.5
t-106.5 41.5q-49 0 -85.5 -17.5t-66.5 -63t-55 -127.5l-112 17q44 144 122.5 215t202.5 71q123 0 185.5 -62.5t62.5 -179.5zM402 505q-86 -30 -142.5 -63t-90.5 -86.5t-34 -133.5q0 -61 31.5 -103.5t98.5 -42.5q52 0 102 33.5t91 102.5t63 171l39 186q-52 -27 -158 -64z
M657 1198l-85 190l-171 -190h-130l234 260h149l122 -260h-119z" />
    <glyph glyph-name="atilde" unicode="&#xe3;" horiz-adv-x="789" 
d="M722 844q0 -52 -14 -119l-94 -444q-21 -99 -21 -147q0 -30 5 -60t17 -74h-124q-13 42 -13 86q0 16 1 24q-52 -68 -110.5 -101.5t-128.5 -33.5q-76 0 -126.5 33.5t-75 86t-24.5 108.5q0 105 41.5 178t117.5 121t192 84q159 51 216 84l12 52q15 63 15 113q0 73 -33.5 114.5
t-106.5 41.5q-49 0 -85.5 -17.5t-66.5 -63t-55 -127.5l-112 17q44 144 122.5 215t202.5 71q123 0 185.5 -62.5t62.5 -179.5zM402 505q-86 -30 -142.5 -63t-90.5 -86.5t-34 -133.5q0 -61 31.5 -103.5t98.5 -42.5q52 0 102 33.5t91 102.5t63 171l39 186q-52 -27 -158 -64z
M684 1231q-61 0 -142 43q-44 24 -69 33.5t-45 9.5q-39 0 -57 -20.5t-25 -65.5h-85q8 98 48.5 142.5t114.5 44.5q29 0 62 -10.5t78 -32.5q45 -23 72 -32.5t53 -9.5q31 0 46 20t23 66h83q-9 -188 -157 -188z" />
    <glyph glyph-name="adieresis" unicode="&#xe4;" horiz-adv-x="789" 
d="M722 844q0 -52 -14 -119l-94 -444q-21 -99 -21 -147q0 -30 5 -60t17 -74h-124q-13 42 -13 86q0 16 1 24q-52 -68 -110.5 -101.5t-128.5 -33.5q-76 0 -126.5 33.5t-75 86t-24.5 108.5q0 105 41.5 178t117.5 121t192 84q159 51 216 84l12 52q15 63 15 113q0 73 -33.5 114.5
t-106.5 41.5q-49 0 -85.5 -17.5t-66.5 -63t-55 -127.5l-112 17q44 144 122.5 215t202.5 71q123 0 185.5 -62.5t62.5 -179.5zM402 505q-86 -30 -142.5 -63t-90.5 -86.5t-34 -133.5q0 -61 31.5 -103.5t98.5 -42.5q52 0 102 33.5t91 102.5t63 171l39 186q-52 -27 -158 -64z
M434 1212h-124l37 174h124zM743 1212h-123l37 174h123z" />
    <glyph glyph-name="aring" unicode="&#xe5;" horiz-adv-x="789" 
d="M722 844q0 -52 -14 -119l-94 -444q-21 -99 -21 -147q0 -30 5 -60t17 -74h-124q-13 42 -13 86q0 16 1 24q-52 -68 -110.5 -101.5t-128.5 -33.5q-76 0 -126.5 33.5t-75 86t-24.5 108.5q0 105 41.5 178t117.5 121t192 84q159 51 216 84l12 52q15 63 15 113q0 73 -33.5 114.5
t-106.5 41.5q-49 0 -85.5 -17.5t-66.5 -63t-55 -127.5l-112 17q44 144 122.5 215t202.5 71q123 0 185.5 -62.5t62.5 -179.5zM402 505q-86 -30 -142.5 -63t-90.5 -86.5t-34 -133.5q0 -61 31.5 -103.5t98.5 -42.5q52 0 102 33.5t91 102.5t63 171l39 186q-52 -27 -158 -64z
M353 1354q0 48 24 89.5t65.5 66t90.5 24.5q48 0 89.5 -24t66 -65.5t24.5 -90.5q0 -48 -24.5 -89.5t-66 -66t-89.5 -24.5q-49 0 -90.5 24.5t-65.5 65.5t-24 90zM532 1467q-29 0 -55 -15.5t-42 -41.5t-16 -58q0 -47 33.5 -80.5t80.5 -33.5q32 0 58 16t41.5 42t15.5 56
q0 48 -34 81.5t-82 33.5z" />
    <glyph glyph-name="ae" unicode="&#xe6;" horiz-adv-x="1248" 
d="M1218 805q0 -78 -21 -179q-16 -78 -25 -117h-490l-8 -40q-31 -149 -31 -220q0 -94 41.5 -135.5t110.5 -41.5q75 0 133 70t93 200l109 -19q-49 -177 -131 -262.5t-210 -85.5q-100 0 -159 44.5t-83 143.5q-58 -92 -133 -140t-159 -48q-69 0 -124 26.5t-86.5 80t-31.5 130.5
q0 83 30.5 150t110.5 124t221 100q164 50 224 87l14 70q11 53 11 95q0 151 -141 151q-58 0 -96.5 -21t-65 -65t-49.5 -118l-115 14q42 145 123 216t208 71q74 0 140.5 -33.5t88.5 -96.5q95 130 243 130q127 0 192.5 -70.5t65.5 -210.5zM725 709l-20 -94h368l7 33
q21 99 21 169q0 85 -33.5 126.5t-107.5 41.5q-84 0 -144 -64.5t-91 -211.5zM399 503q-107 -38 -165.5 -83.5t-78.5 -93t-20 -105.5q0 -60 34 -99t96 -39q98 0 171.5 85.5t104.5 229.5l37 175q-44 -22 -179 -70z" />
    <glyph glyph-name="ccedilla" unicode="&#xe7;" horiz-adv-x="795" 
d="M644 788q0 107 -39 153.5t-113 46.5q-75 0 -126.5 -51.5t-86 -145.5t-67.5 -246q-30 -137 -30 -239q0 -109 37 -170.5t115 -61.5q58 0 100 28t74.5 90.5t62.5 169.5l112 -20q-36 -127 -82 -207.5t-111 -120.5t-157 -40h-6l-33 -66q67 -9 103.5 -46.5t36.5 -87.5
q0 -77 -69.5 -126.5t-212.5 -49.5q-57 0 -106 12l29 72q39 -5 69 -5q87 0 125.5 27.5t38.5 71.5q0 36 -32.5 58t-93.5 22l67 128q-89 23 -138.5 101t-49.5 218q0 103 30 247q38 181 87 296.5t126.5 177.5t195.5 62q128 0 194.5 -70.5t66.5 -226.5q0 -25 -1 -39l-119 -26
q3 35 3 64z" />
    <glyph glyph-name="egrave" unicode="&#xe8;" horiz-adv-x="839" 
d="M805 786q0 -82 -22 -183l-19 -89h-558q-23 -120 -23 -199q0 -239 182 -239q91 0 150 66t98 204l111 -19q-52 -181 -136.5 -266.5t-227.5 -85.5q-148 0 -222.5 86t-74.5 254q0 105 28 236q40 191 99 308.5t140.5 172t192.5 54.5q131 0 206.5 -73t75.5 -227zM227 617h436
q23 99 23 175q0 101 -43.5 148.5t-127.5 47.5q-91 0 -148 -57t-85 -131t-55 -183zM551 1201l-162 260h169l82 -260h-89z" />
    <glyph glyph-name="eacute" unicode="&#xe9;" horiz-adv-x="839" 
d="M805 786q0 -82 -22 -183l-19 -89h-558q-23 -120 -23 -199q0 -239 182 -239q91 0 150 66t98 204l111 -19q-52 -181 -136.5 -266.5t-227.5 -85.5q-148 0 -222.5 86t-74.5 254q0 105 28 236q40 191 99 308.5t140.5 172t192.5 54.5q131 0 206.5 -73t75.5 -227zM227 617h436
q23 99 23 175q0 101 -43.5 148.5t-127.5 47.5q-91 0 -148 -57t-85 -131t-55 -183zM480 1201l133 260h190l-225 -260h-98z" />
    <glyph glyph-name="ecircumflex" unicode="&#xea;" horiz-adv-x="839" 
d="M805 786q0 -82 -22 -183l-19 -89h-558q-23 -120 -23 -199q0 -239 182 -239q91 0 150 66t98 204l111 -19q-52 -181 -136.5 -266.5t-227.5 -85.5q-148 0 -222.5 86t-74.5 254q0 105 28 236q40 191 99 308.5t140.5 172t192.5 54.5q131 0 206.5 -73t75.5 -227zM227 617h436
q23 99 23 175q0 101 -43.5 148.5t-127.5 47.5q-91 0 -148 -57t-85 -131t-55 -183zM697 1198l-85 190l-171 -190h-130l234 260h149l122 -260h-119z" />
    <glyph glyph-name="edieresis" unicode="&#xeb;" horiz-adv-x="839" 
d="M805 786q0 -82 -22 -183l-19 -89h-558q-23 -120 -23 -199q0 -239 182 -239q91 0 150 66t98 204l111 -19q-52 -181 -136.5 -266.5t-227.5 -85.5q-148 0 -222.5 86t-74.5 254q0 105 28 236q40 191 99 308.5t140.5 172t192.5 54.5q131 0 206.5 -73t75.5 -227zM227 617h436
q23 99 23 175q0 101 -43.5 148.5t-127.5 47.5q-91 0 -148 -57t-85 -131t-55 -183zM474 1212h-124l37 174h124zM783 1212h-123l37 174h123z" />
    <glyph glyph-name="igrave" unicode="&#xec;" horiz-adv-x="409" 
d="M151 0h-119l226 1062h119zM333 1201l-162 260h169l82 -260h-89z" />
    <glyph glyph-name="iacute" unicode="&#xed;" horiz-adv-x="409" 
d="M151 0h-119l226 1062h119zM262 1201l133 260h190l-225 -260h-98z" />
    <glyph glyph-name="icircumflex" unicode="&#xee;" horiz-adv-x="409" 
d="M151 0h-119l226 1062h119zM479 1198l-85 190l-171 -190h-130l234 260h149l122 -260h-119z" />
    <glyph glyph-name="idieresis" unicode="&#xef;" horiz-adv-x="409" 
d="M151 0h-119l226 1062h119zM256 1212h-124l37 174h124zM565 1212h-123l37 174h123z" />
    <glyph glyph-name="eth" unicode="&#xf0;" horiz-adv-x="918" 
d="M859 781q0 -118 -30 -259q-57 -270 -172 -408.5t-285 -138.5q-140 0 -223 88.5t-83 269.5q0 100 26 220q59 277 163 406t267 129q51 0 99.5 -18t81.5 -52q-34 122 -120 252l-249 -122l-27 66l234 117q-35 48 -60 73t-68 62h135q57 -59 83 -91l184 92l30 -69l-167 -82
l1 -1q94 -128 137 -260t43 -274zM731 715q0 133 -54 204t-149 71q-90 0 -150.5 -57t-98 -154t-68.5 -241q-24 -115 -24 -202q0 -130 49 -196.5t135 -66.5q125 0 207 114t133 352q20 93 20 176z" />
    <glyph glyph-name="ntilde" unicode="&#xf1;" horiz-adv-x="921" 
d="M842 846q0 -53 -15 -124l-154 -722h-120l152 713q14 62 14 118q0 155 -133 155q-100 0 -180 -84.5t-119 -265.5l-135 -636h-120l226 1062h120l-23 -109q59 68 121 100.5t138 32.5q100 0 164 -58.5t64 -181.5zM786 1231q-61 0 -142 43q-44 24 -69 33.5t-45 9.5
q-39 0 -57 -20.5t-25 -65.5h-85q8 98 48.5 142.5t114.5 44.5q29 0 62 -10.5t78 -32.5q45 -23 72 -32.5t53 -9.5q31 0 46 20t23 66h83q-9 -188 -157 -188z" />
    <glyph glyph-name="ograve" unicode="&#xf2;" 
d="M69 339q0 91 21 208q51 278 165.5 408.5t288.5 130.5q307 0 307 -347q0 -92 -21 -209q-52 -284 -158 -419.5t-286 -135.5q-150 0 -233.5 89t-83.5 275zM731 750q0 121 -45 179.5t-143 58.5q-122 0 -206 -111t-123 -325q-22 -120 -22 -210q0 -269 191 -269q123 0 204 116
t122 351q22 127 22 210zM580 1201l-162 260h169l82 -260h-89z" />
    <glyph glyph-name="oacute" unicode="&#xf3;" 
d="M69 339q0 91 21 208q51 278 165.5 408.5t288.5 130.5q307 0 307 -347q0 -92 -21 -209q-52 -284 -158 -419.5t-286 -135.5q-150 0 -233.5 89t-83.5 275zM731 750q0 121 -45 179.5t-143 58.5q-122 0 -206 -111t-123 -325q-22 -120 -22 -210q0 -269 191 -269q123 0 204 116
t122 351q22 127 22 210zM509 1201l133 260h190l-225 -260h-98z" />
    <glyph glyph-name="ocircumflex" unicode="&#xf4;" 
d="M69 339q0 91 21 208q51 278 165.5 408.5t288.5 130.5q307 0 307 -347q0 -92 -21 -209q-52 -284 -158 -419.5t-286 -135.5q-150 0 -233.5 89t-83.5 275zM731 750q0 121 -45 179.5t-143 58.5q-122 0 -206 -111t-123 -325q-22 -120 -22 -210q0 -269 191 -269q123 0 204 116
t122 351q22 127 22 210zM726 1198l-85 190l-171 -190h-130l234 260h149l122 -260h-119z" />
    <glyph glyph-name="otilde" unicode="&#xf5;" 
d="M69 339q0 91 21 208q51 278 165.5 408.5t288.5 130.5q307 0 307 -347q0 -92 -21 -209q-52 -284 -158 -419.5t-286 -135.5q-150 0 -233.5 89t-83.5 275zM731 750q0 121 -45 179.5t-143 58.5q-122 0 -206 -111t-123 -325q-22 -120 -22 -210q0 -269 191 -269q123 0 204 116
t122 351q22 127 22 210zM753 1231q-61 0 -142 43q-44 24 -69 33.5t-45 9.5q-39 0 -57 -20.5t-25 -65.5h-85q8 98 48.5 142.5t114.5 44.5q29 0 62 -10.5t78 -32.5q45 -23 72 -32.5t53 -9.5q31 0 46 20t23 66h83q-9 -188 -157 -188z" />
    <glyph glyph-name="odieresis" unicode="&#xf6;" 
d="M69 339q0 91 21 208q51 278 165.5 408.5t288.5 130.5q307 0 307 -347q0 -92 -21 -209q-52 -284 -158 -419.5t-286 -135.5q-150 0 -233.5 89t-83.5 275zM731 750q0 121 -45 179.5t-143 58.5q-122 0 -206 -111t-123 -325q-22 -120 -22 -210q0 -269 191 -269q123 0 204 116
t122 351q22 127 22 210zM503 1212h-124l37 174h124zM812 1212h-123l37 174h123z" />
    <glyph glyph-name="divide" unicode="&#xf7;" 
d="M433 951v141h131v-141h-131zM101 676v87h796v-87h-796zM433 348v140h131v-140h-131z" />
    <glyph glyph-name="oslash" unicode="&#xf8;" 
d="M851 737q0 -92 -21 -207q-52 -284 -158 -419.5t-286 -135.5q-160 0 -240 96l-117 -144l-54 51l130 160q-36 81 -36 202q0 89 21 207q51 278 165.5 408.5t288.5 130.5q170 0 246 -106l105 130l58 -49l-126 -154q24 -70 24 -170zM192 342q0 -50 6 -89l513 631
q-20 53 -61.5 78.5t-106.5 25.5q-122 0 -206 -111t-123 -325q-22 -122 -22 -210zM731 749q0 26 -1 38l-505 -620q46 -94 158 -94q123 0 204 116t122 351q22 119 22 209z" />
    <glyph glyph-name="ugrave" unicode="&#xf9;" horiz-adv-x="920" 
d="M542 0l22 104q-57 -63 -125 -96t-138 -33q-100 0 -162 57t-62 174q0 53 13 114l158 742h120l-160 -752q-9 -43 -9 -83q0 -69 32.5 -109.5t99.5 -40.5t128 41.5t103.5 110t59.5 147.5l146 686h120l-226 -1062h-120zM584 1201l-162 260h169l82 -260h-89z" />
    <glyph glyph-name="uacute" unicode="&#xfa;" horiz-adv-x="920" 
d="M542 0l22 104q-57 -63 -125 -96t-138 -33q-100 0 -162 57t-62 174q0 53 13 114l158 742h120l-160 -752q-9 -43 -9 -83q0 -69 32.5 -109.5t99.5 -40.5t128 41.5t103.5 110t59.5 147.5l146 686h120l-226 -1062h-120zM513 1201l133 260h190l-225 -260h-98z" />
    <glyph glyph-name="ucircumflex" unicode="&#xfb;" horiz-adv-x="920" 
d="M542 0l22 104q-57 -63 -125 -96t-138 -33q-100 0 -162 57t-62 174q0 53 13 114l158 742h120l-160 -752q-9 -43 -9 -83q0 -69 32.5 -109.5t99.5 -40.5t128 41.5t103.5 110t59.5 147.5l146 686h120l-226 -1062h-120zM730 1198l-85 190l-171 -190h-130l234 260h149l122 -260
h-119z" />
    <glyph glyph-name="udieresis" unicode="&#xfc;" horiz-adv-x="920" 
d="M542 0l22 104q-57 -63 -125 -96t-138 -33q-100 0 -162 57t-62 174q0 53 13 114l158 742h120l-160 -752q-9 -43 -9 -83q0 -69 32.5 -109.5t99.5 -40.5t128 41.5t103.5 110t59.5 147.5l146 686h120l-226 -1062h-120zM507 1212h-124l37 174h124zM816 1212h-123l37 174h123z
" />
    <glyph glyph-name="yacute" unicode="&#xfd;" horiz-adv-x="793" 
d="M1 -431q-35 0 -66.5 6t-70.5 21l46 114q52 -23 94 -23q37 0 63.5 20t56.5 77l115 220l-123 1058h115l100 -888l456 888h119l-664 -1290q-38 -73 -71 -116t-73.5 -65t-96.5 -22zM454 1201l133 260h190l-225 -260h-98z" />
    <glyph glyph-name="thorn" unicode="&#xfe;" horiz-adv-x="918" 
d="M860 772q0 -104 -30 -248q-44 -204 -103.5 -324.5t-135.5 -172.5t-176 -52q-84 0 -146.5 39t-88.5 117l-114 -538h-120l312 1469l86 404h120l-111 -525q55 74 116 109.5t137 35.5q124 0 189 -77.5t65 -236.5zM740 775q0 213 -153 213q-226 0 -319 -438q-27 -132 -27 -226
q0 -118 42 -184t131 -66q91 0 150 74t88.5 168.5t57.5 226.5q30 138 30 232z" />
    <glyph glyph-name="ydieresis" unicode="&#xff;" horiz-adv-x="793" 
d="M1 -431q-35 0 -66.5 6t-70.5 21l46 114q52 -23 94 -23q37 0 63.5 20t56.5 77l115 220l-123 1058h115l100 -888l456 888h119l-664 -1290q-38 -73 -71 -116t-73.5 -65t-96.5 -22zM448 1212h-124l37 174h124zM757 1212h-123l37 174h123z" />
    <glyph glyph-name="glyph221" 
d="M101 677v87h796v-87h-796z" />
    <glyph glyph-name="glyph222" horiz-adv-x="837" 
d="M554 1384q-54 0 -86.5 -35t-48.5 -109l-38 -178h170l-19 -88h-170l-207 -974h-120l207 974h-132l19 88h132l43 202q23 111 85 169t169 58q40 0 71.5 -4t67.5 -14l-45 -101q-54 12 -98 12zM733 1283l39 183h119l-39 -183h-119zM460 0l226 1062h119l-226 -1062h-119z" />
    <glyph glyph-name="glyph223" horiz-adv-x="857" 
d="M544 1384q-48 0 -78.5 -35t-46.5 -109l-38 -178h160l-19 -90h-160l-207 -972h-120l207 972h-132l19 90h132l43 202q23 109 85 168t159 59q40 0 71.5 -4.5t67.5 -13.5l-45 -101q-63 12 -98 12zM479 0l312 1466h120l-312 -1466h-120z" />
    <glyph glyph-name="macron" unicode="&#xaf;" horiz-adv-x="1024" 
d="M209 1615v103h1048v-103h-1048z" />
    <glyph glyph-name="glyph225" horiz-adv-x="555" 
d="M528 986h85l-17 -77h-85l-36 -171h-91l36 171h-301l18 83l416 499h82zM436 986l74 350l-290 -350h216z" />
    <glyph glyph-name="Amacron" unicode="&#x100;" horiz-adv-x="1024" 
d="M248 447l-219 -447h-143l742 1466h139l145 -1466h-141l-35 447h-488zM668 1305l-366 -748h425zM479 1612l23 110h485l-23 -110h-485z" />
    <glyph glyph-name="amacron" unicode="&#x101;" horiz-adv-x="789" 
d="M722 844q0 -52 -14 -119l-94 -444q-21 -99 -21 -147q0 -30 5 -60t17 -74h-124q-13 42 -13 86q0 16 1 24q-52 -68 -110.5 -101.5t-128.5 -33.5q-76 0 -126.5 33.5t-75 86t-24.5 108.5q0 105 41.5 178t117.5 121t192 84q159 51 216 84l12 52q15 63 15 113q0 73 -33.5 114.5
t-106.5 41.5q-49 0 -85.5 -17.5t-66.5 -63t-55 -127.5l-112 17q44 144 122.5 215t202.5 71q123 0 185.5 -62.5t62.5 -179.5zM402 505q-86 -30 -142.5 -63t-90.5 -86.5t-34 -133.5q0 -61 31.5 -103.5t98.5 -42.5q52 0 102 33.5t91 102.5t63 171l39 186q-52 -27 -158 -64z
M287 1227l23 110h485l-23 -110h-485z" />
    <glyph glyph-name="Abreve" unicode="&#x102;" horiz-adv-x="1024" 
d="M248 447l-219 -447h-143l742 1466h139l145 -1466h-141l-35 447h-488zM668 1305l-366 -748h425zM619 1817q0 -59 36.5 -94t96.5 -35q71 0 109.5 35t63.5 111h100q-31 -113 -99.5 -175t-180.5 -62q-66 0 -117 26.5t-79.5 74.5t-28.5 111q0 16 1 25h99z" />
    <glyph glyph-name="abreve" unicode="&#x103;" horiz-adv-x="789" 
d="M722 844q0 -52 -14 -119l-94 -444q-21 -99 -21 -147q0 -30 5 -60t17 -74h-124q-13 42 -13 86q0 16 1 24q-52 -68 -110.5 -101.5t-128.5 -33.5q-76 0 -126.5 33.5t-75 86t-24.5 108.5q0 105 41.5 178t117.5 121t192 84q159 51 216 84l12 52q15 63 15 113q0 73 -33.5 114.5
t-106.5 41.5q-49 0 -85.5 -17.5t-66.5 -63t-55 -127.5l-112 17q44 144 122.5 215t202.5 71q123 0 185.5 -62.5t62.5 -179.5zM402 505q-86 -30 -142.5 -63t-90.5 -86.5t-34 -133.5q0 -61 31.5 -103.5t98.5 -42.5q52 0 102 33.5t91 102.5t63 171l39 186q-52 -27 -158 -64z
M398 1432q0 -59 36.5 -94t96.5 -35q70 0 108 33.5t65 112.5h100q-31 -113 -99.5 -175t-180.5 -62q-66 0 -117 26.5t-79.5 74.5t-28.5 111q0 16 1 25h99z" />
    <glyph glyph-name="Aogonek" unicode="&#x104;" horiz-adv-x="1024" 
d="M1000 -294l-18 -83q-30 -13 -55 -19t-54 -6q-84 0 -133.5 46t-49.5 118q0 99 81 243l-35 442h-488l-219 -447h-143l742 1466h139l145 -1466h-59q-32 -60 -49 -111.5t-17 -88.5q0 -53 31.5 -80.5t89.5 -27.5q34 0 92 14zM668 1305l-366 -748h425z" />
    <glyph glyph-name="aogonek" unicode="&#x105;" horiz-adv-x="789" 
d="M622 -308q34 0 92 14l-18 -83q-30 -13 -55 -19t-54 -6q-84 0 -133.5 46t-49.5 118q0 102 84 249q-10 37 -10 74q0 16 1 25q-52 -68 -110.5 -101.5t-128.5 -33.5q-76 0 -126.5 33.5t-75 86t-24.5 108.5q0 105 41.5 178t117.5 121t192 84q159 51 216 84l12 52q15 63 15 113
q0 71 -32.5 113.5t-107.5 42.5q-49 0 -85.5 -17.5t-66.5 -63t-55 -127.5l-112 17q44 144 121 215t204 71q123 0 185.5 -62.5t62.5 -179.5q0 -52 -14 -119l-94 -444q-21 -99 -21 -147q0 -30 5 -60t17 -74h-48q-32 -60 -49 -111.5t-17 -88.5q0 -53 31.5 -80.5t89.5 -27.5z
M521 383l39 186q-52 -27 -158 -64q-86 -30 -142.5 -63t-90.5 -86.5t-34 -133.5q0 -62 32.5 -104t97.5 -42q53 0 102.5 33.5t90.5 102.5t63 171z" />
    <glyph glyph-name="Cacute" unicode="&#x106;" horiz-adv-x="1133" 
d="M1153 1062l-136 -31q-2 172 -69 260t-191 88q-122 0 -211 -64t-153 -203.5t-111 -371.5q-32 -159 -32 -285q0 -185 70.5 -276.5t201.5 -91.5q130 0 225.5 92.5t170.5 309.5l123 -25q-80 -249 -205 -369t-313 -120q-205 0 -307 126t-102 357q0 123 31 283q48 241 120 404
t195 254.5t307 91.5q175 0 276.5 -110t109.5 -319zM734 1586l133 260h190l-225 -260h-98z" />
    <glyph glyph-name="cacute" unicode="&#x107;" horiz-adv-x="795" 
d="M761 789q0 -25 -1 -39l-119 -26q3 35 3 64q0 104 -36.5 151.5t-115.5 48.5q-76 0 -127 -51.5t-85.5 -145.5t-67.5 -246q-30 -137 -30 -239q0 -109 37 -170.5t115 -61.5q58 0 100 28t74.5 90.5t62.5 169.5l112 -20q-37 -127 -82.5 -207t-110.5 -120.5t-157 -40.5
q-128 0 -200 79t-72 250q0 103 30 247q38 181 87 296.5t126.5 177.5t195.5 62q128 0 194.5 -70.5t66.5 -226.5zM466 1201l133 260h190l-225 -260h-98z" />
    <glyph glyph-name="Ccaron" unicode="&#x10c;" horiz-adv-x="1133" 
d="M1153 1062l-136 -31q-2 172 -69 260t-191 88q-122 0 -211 -64t-153 -203.5t-111 -371.5q-32 -159 -32 -285q0 -185 70.5 -276.5t201.5 -91.5q130 0 225.5 92.5t170.5 309.5l123 -25q-80 -249 -205 -369t-313 -120q-205 0 -307 126t-102 357q0 123 31 283q48 241 120 404
t195 254.5t307 91.5q175 0 276.5 -110t109.5 -319zM801 1653l171 190h129l-234 -260h-149l-122 260h120z" />
    <glyph glyph-name="ccaron" unicode="&#x10d;" horiz-adv-x="795" 
d="M761 789q0 -25 -1 -39l-119 -26q3 35 3 64q0 104 -36.5 151.5t-115.5 48.5q-76 0 -127 -51.5t-85.5 -145.5t-67.5 -246q-30 -137 -30 -239q0 -109 37 -170.5t115 -61.5q58 0 100 28t74.5 90.5t62.5 169.5l112 -20q-37 -127 -82.5 -207t-110.5 -120.5t-157 -40.5
q-128 0 -200 79t-72 250q0 103 30 247q38 181 87 296.5t126.5 177.5t195.5 62q128 0 194.5 -70.5t66.5 -226.5zM557 1268l171 190h129l-234 -260h-149l-122 260h120z" />
    <glyph glyph-name="Dcaron" unicode="&#x10e;" horiz-adv-x="1128" 
d="M1108 997q0 -104 -23 -219q-58 -292 -130 -454.5t-205.5 -243t-366.5 -80.5h-334l312 1466h267q235 0 357.5 -119.5t122.5 -349.5zM208 118h198q165 0 267.5 67.5t164.5 208.5t109 385q23 118 23 211q0 358 -340 358h-160zM783 1653l171 190h129l-234 -260h-149l-122 260
h120z" />
    <glyph glyph-name="dcaron" unicode="&#x10f;" horiz-adv-x="994" 
d="M539 0l26 120q-51 -72 -115.5 -108.5t-138.5 -36.5q-120 0 -186 80.5t-66 242.5q0 104 28 238q59 281 160 415.5t254 134.5q91 0 150.5 -41.5t85.5 -115.5l114 537h120l-312 -1466h-120zM209 529q-27 -135 -27 -228q0 -229 157 -229q106 0 184 110t125 328q31 137 31 236
q0 120 -44 180t-126 60q-108 0 -180 -108.5t-120 -348.5zM1010 999l-37 73q105 61 126 166l8 35h-74l41 193h169l-45 -212q-18 -84 -60.5 -141.5t-127.5 -113.5z" />
    <glyph glyph-name="Dcroat" unicode="&#x110;" horiz-adv-x="1128" 
d="M1108 997q0 -104 -23 -219q-58 -292 -130 -454.5t-205.5 -243t-366.5 -80.5h-334l147 691h-158l18 87h159l146 688h267q235 0 357.5 -119.5t122.5 -349.5zM970 990q0 358 -340 358h-160l-121 -570h310l-18 -87h-311l-122 -573h198q165 0 267.5 67.5t164.5 208.5t109 385
q23 118 23 211z" />
    <glyph glyph-name="dcroat" unicode="&#x111;" horiz-adv-x="918" 
d="M918 1216l-259 -1216h-120l26 120q-51 -72 -115.5 -108.5t-138.5 -36.5q-120 0 -186 80.5t-66 242.5q0 104 28 238q59 281 160 415.5t254 134.5q91 0 150.5 -41.5t85.5 -115.5l61 287h-286l20 93h286l33 157h120l-33 -157h145l-20 -93h-145zM679 746q0 120 -44 180
t-126 60q-108 0 -180 -108.5t-120 -348.5q-27 -135 -27 -228q0 -229 157 -229q106 0 184 110t125 328q31 137 31 236z" />
    <glyph glyph-name="Emacron" unicode="&#x112;" 
d="M470 1350l-115 -540h434l-24 -116h-434l-123 -578h523l-25 -116h-657l312 1466h634l-25 -116h-500zM482 1612l23 110h485l-23 -110h-485z" />
    <glyph glyph-name="emacron" unicode="&#x113;" horiz-adv-x="839" 
d="M805 786q0 -82 -22 -183l-19 -89h-558q-23 -120 -23 -199q0 -239 182 -239q91 0 150 66t98 204l111 -19q-52 -181 -136.5 -266.5t-227.5 -85.5q-148 0 -222.5 86t-74.5 254q0 105 28 236q40 191 99 308.5t140.5 172t192.5 54.5q131 0 206.5 -73t75.5 -227zM227 617h436
q23 99 23 175q0 101 -43.5 148.5t-127.5 47.5q-91 0 -148 -57t-85 -131t-55 -183zM327 1227l23 110h485l-23 -110h-485z" />
    <glyph glyph-name="Edotaccent" unicode="&#x116;" 
d="M470 1350l-115 -540h434l-24 -116h-434l-123 -578h523l-25 -116h-657l312 1466h634l-25 -116h-500zM652 1597l41 193h168l-41 -193h-168z" />
    <glyph glyph-name="edotaccent" unicode="&#x117;" horiz-adv-x="839" 
d="M805 786q0 -82 -22 -183l-19 -89h-558q-23 -120 -23 -199q0 -239 182 -239q91 0 150 66t98 204l111 -19q-52 -181 -136.5 -266.5t-227.5 -85.5q-148 0 -222.5 86t-74.5 254q0 105 28 236q40 191 99 308.5t140.5 172t192.5 54.5q131 0 206.5 -73t75.5 -227zM227 617h436
q23 99 23 175q0 101 -43.5 148.5t-127.5 47.5q-91 0 -148 -57t-85 -131t-55 -183zM483 1212l41 193h168l-41 -193h-168z" />
    <glyph glyph-name="Eogonek" unicode="&#x118;" 
d="M355 810h434l-24 -116h-434l-123 -578h523l-25 -116h-124q-32 -60 -49 -111.5t-17 -88.5q0 -53 31.5 -80.5t89.5 -27.5q34 0 92 14l-18 -83q-30 -13 -55 -19t-54 -6q-84 0 -133.5 46t-49.5 118q0 98 78 238h-448l312 1466h634l-25 -116h-500z" />
    <glyph glyph-name="eogonek" unicode="&#x119;" horiz-adv-x="839" 
d="M805 786q0 -82 -22 -183l-19 -89h-558q-23 -120 -23 -199q0 -239 182 -239q91 0 150 66t98 204l111 -19q-35 -124 -84.5 -202t-120.5 -115q-34 -63 -52.5 -117.5t-18.5 -92.5q0 -53 31.5 -80.5t89.5 -27.5q34 0 92 14l-18 -83q-30 -13 -55 -19t-54 -6q-84 0 -133.5 46
t-49.5 118q0 91 67 217q-25 -4 -58 -4q-148 0 -222.5 86t-74.5 254q0 105 28 236q40 191 99 308.5t140.5 172t192.5 54.5q131 0 206.5 -73t75.5 -227zM686 792q0 101 -43.5 148.5t-127.5 47.5q-91 0 -148 -57t-85 -131t-55 -183h436q23 99 23 175z" />
    <glyph glyph-name="Ecaron" unicode="&#x11a;" 
d="M470 1350l-115 -540h434l-24 -116h-434l-123 -578h523l-25 -116h-657l312 1466h634l-25 -116h-500zM724 1653l171 190h129l-234 -260h-149l-122 260h120z" />
    <glyph glyph-name="ecaron" unicode="&#x11b;" horiz-adv-x="839" 
d="M805 786q0 -82 -22 -183l-19 -89h-558q-23 -120 -23 -199q0 -239 182 -239q91 0 150 66t98 204l111 -19q-52 -181 -136.5 -266.5t-227.5 -85.5q-148 0 -222.5 86t-74.5 254q0 105 28 236q40 191 99 308.5t140.5 172t192.5 54.5q131 0 206.5 -73t75.5 -227zM227 617h436
q23 99 23 175q0 101 -43.5 148.5t-127.5 47.5q-91 0 -148 -57t-85 -131t-55 -183zM571 1268l171 190h129l-234 -260h-149l-122 260h120z" />
    <glyph glyph-name="Gbreve" unicode="&#x11e;" horiz-adv-x="1132" 
d="M1111 1070l-138 -39q-4 155 -70 251.5t-192 96.5t-207 -77.5t-128 -207t-88 -330.5q-38 -176 -38 -310q0 -174 67.5 -272t214.5 -98q164 0 277 102l90 426h-285l24 114h418l-124 -586q-97 -85 -191.5 -125t-210.5 -40q-208 0 -312 127.5t-104 362.5q0 139 39 323
q45 212 104 359.5t171.5 245.5t287.5 98q112 0 199.5 -47t138 -141.5t57.5 -232.5zM663 1817q0 -59 36.5 -94t96.5 -35q71 0 109.5 35t63.5 111h100q-31 -113 -99.5 -175t-180.5 -62q-66 0 -117 26.5t-79.5 74.5t-28.5 111q0 16 1 25h99z" />
    <glyph glyph-name="gbreve" unicode="&#x11f;" horiz-adv-x="916" 
d="M741 924l29 138h114l-238 -1130q-28 -133 -79.5 -212.5t-128 -115t-184.5 -35.5q-135 0 -209.5 56.5t-74.5 153.5q0 37 8 66l117 -16q-5 -18 -5 -40q0 -59 43.5 -91t120.5 -32q115 0 177.5 63t92.5 205l41 191q-55 -77 -117 -113.5t-140 -36.5q-130 0 -191 80.5
t-61 227.5q0 106 29 240q44 209 103.5 332.5t137.5 177t182 53.5q81 0 143 -38.5t90 -123.5zM206 514q-30 -144 -30 -238q0 -104 37 -153.5t112 -49.5q90 0 153.5 60t105 164t74.5 255q26 117 26 207q0 115 -43.5 172t-127.5 57t-142 -60t-96 -162t-69 -252zM426 1432
q0 -59 36.5 -94t96.5 -35q70 0 108 33.5t65 112.5h100q-31 -113 -99.5 -175t-180.5 -62q-66 0 -117 26.5t-79.5 74.5t-28.5 111q0 16 1 25h99z" />
    <glyph glyph-name="Gcommaaccent" unicode="&#x122;" horiz-adv-x="1132" 
d="M1111 1070l-138 -39q-4 155 -70 251.5t-192 96.5t-207 -77.5t-128 -207t-88 -330.5q-38 -176 -38 -310q0 -174 67.5 -272t214.5 -98q164 0 277 102l90 426h-285l24 114h418l-124 -586q-97 -85 -191.5 -125t-210.5 -40q-208 0 -312 127.5t-104 362.5q0 139 39 323
q45 212 104 359.5t171.5 245.5t287.5 98q112 0 199.5 -47t138 -141.5t57.5 -232.5zM332 -458l-1 76q75 0 96 99h-65l37 173h149l-40 -189q-16 -73 -60 -114.5t-116 -44.5z" />
    <glyph glyph-name="gcommaaccent" unicode="&#x123;" horiz-adv-x="916" 
d="M741 924l29 138h114l-238 -1130q-28 -133 -79.5 -212.5t-128 -115t-184.5 -35.5q-135 0 -209.5 56.5t-74.5 153.5q0 37 8 66l117 -16q-5 -18 -5 -40q0 -59 43.5 -91t120.5 -32q115 0 177.5 63t92.5 205l41 191q-55 -77 -117 -113.5t-140 -36.5q-130 0 -191 80.5
t-61 227.5q0 106 29 240q44 209 103.5 332.5t137.5 177t182 53.5q81 0 143 -38.5t90 -123.5zM206 514q-30 -144 -30 -238q0 -104 37 -153.5t112 -49.5q90 0 153.5 60t105 164t74.5 255q26 117 26 207q0 115 -43.5 172t-127.5 57t-142 -60t-96 -162t-69 -252zM687 1540l1 -76
q-75 0 -96 -99h65l-37 -173h-149l41 189q15 73 59.5 114.5t115.5 44.5z" />
    <glyph glyph-name="Imacron" unicode="&#x12a;" horiz-adv-x="458" 
d="M49 0l312 1466h134l-312 -1466h-134zM209 1612l23 110h485l-23 -110h-485z" />
    <glyph glyph-name="imacron" unicode="&#x12b;" horiz-adv-x="409" 
d="M151 0h-119l226 1062h119zM109 1227l23 110h485l-23 -110h-485z" />
    <glyph glyph-name="Iogonek" unicode="&#x12e;" horiz-adv-x="458" 
d="M183 -308q34 0 92 14l-18 -83q-30 -13 -55 -19t-54 -6q-84 0 -133.5 46t-49.5 118q0 103 88 255l308 1449h134l-312 -1466h-55q-32 -60 -49 -111.5t-17 -88.5q0 -53 31.5 -80.5t89.5 -27.5z" />
    <glyph glyph-name="iogonek" unicode="&#x12f;" horiz-adv-x="409" 
d="M424 1283h-119l39 183h119zM50 -200q0 -53 31.5 -80.5t89.5 -27.5q34 0 92 14l-18 -83q-30 -13 -55 -19t-54 -6q-84 0 -133.5 46t-49.5 118q0 97 80 241l225 1059h119l-226 -1062h-35q-32 -60 -49 -111.5t-17 -88.5z" />
    <glyph glyph-name="Idotaccent" unicode="&#x130;" horiz-adv-x="458" 
d="M49 0l312 1466h134l-312 -1466h-134zM379 1597l41 193h168l-41 -193h-168z" />
    <glyph glyph-name="dotlessi" unicode="&#x131;" horiz-adv-x="409" 
d="M151 0h-119l226 1062h119z" />
    <glyph glyph-name="Kcommaaccent" unicode="&#x136;" horiz-adv-x="1016" 
d="M902 0h-143l-224 785l-241 -263l-111 -522h-134l312 1466h134l-159 -747l665 747h157l-535 -585zM287 -458l-1 76q75 0 96 99h-65l37 173h149l-40 -189q-16 -73 -60 -114.5t-116 -44.5z" />
    <glyph glyph-name="kcommaaccent" unicode="&#x137;" horiz-adv-x="789" 
d="M669 0h-123l-164 597l-129 -124l-101 -473h-120l312 1466h120l-176 -828l423 424h157l-394 -377zM158 -458l-1 76q75 0 96 99h-65l37 173h149l-40 -189q-16 -73 -60 -114.5t-116 -44.5z" />
    <glyph glyph-name="Lacute" unicode="&#x139;" horiz-adv-x="907" 
d="M739 115l-25 -115h-665l312 1466h134l-287 -1351h531zM619 1586l133 260h190l-225 -260h-98z" />
    <glyph glyph-name="lacute" unicode="&#x13a;" horiz-adv-x="410" 
d="M32 0l312 1466h120l-312 -1466h-120zM349 1605l133 260h190l-225 -260h-98z" />
    <glyph glyph-name="Lcommaaccent" unicode="&#x13b;" horiz-adv-x="907" 
d="M739 115l-25 -115h-665l312 1466h134l-287 -1351h531zM222 -458l-1 76q75 0 96 99h-65l37 173h149l-40 -189q-16 -73 -60 -114.5t-116 -44.5z" />
    <glyph glyph-name="lcommaaccent" unicode="&#x13c;" horiz-adv-x="410" 
d="M32 0l312 1466h120l-312 -1466h-120zM-68 -458l-1 76q75 0 96 99h-65l37 173h149l-40 -189q-16 -73 -60 -114.5t-116 -44.5z" />
    <glyph glyph-name="Lcaron" unicode="&#x13d;" horiz-adv-x="907" 
d="M739 115l-25 -115h-665l312 1466h134l-287 -1351h531zM644 999l-37 73q105 61 126 166l8 35h-74l41 193h169l-45 -212q-18 -84 -60.5 -141.5t-127.5 -113.5z" />
    <glyph glyph-name="lcaron" unicode="&#x13e;" horiz-adv-x="485" 
d="M32 0l312 1466h120l-312 -1466h-120zM501 999l-37 73q105 61 126 166l8 35h-74l41 193h169l-45 -212q-18 -84 -60.5 -141.5t-127.5 -113.5z" />
    <glyph glyph-name="Lslash" unicode="&#x141;" horiz-adv-x="907" 
d="M714 0h-665l130 612l-171 -135l24 125l175 139l154 725h134l-127 -597l328 259l-25 -128l-330 -261l-133 -624h531z" />
    <glyph glyph-name="lslash" unicode="&#x142;" horiz-adv-x="410" 
d="M307 730l-155 -730h-120l134 630l-159 -112l23 107l159 113l155 728h120l-134 -629l158 110l-22 -105z" />
    <glyph glyph-name="Nacute" unicode="&#x143;" horiz-adv-x="1130" 
d="M692 0l-253 1270h-1l-255 -1270h-134l312 1466h155l257 -1291h1l260 1291h133l-312 -1466h-163zM721 1586l133 260h190l-225 -260h-98z" />
    <glyph glyph-name="nacute" unicode="&#x144;" horiz-adv-x="921" 
d="M842 846q0 -53 -15 -124l-154 -722h-120l152 713q14 62 14 118q0 155 -133 155q-100 0 -180 -84.5t-119 -265.5l-135 -636h-120l226 1062h120l-23 -109q59 68 121 100.5t138 32.5q100 0 164 -58.5t64 -181.5zM542 1201l133 260h190l-225 -260h-98z" />
    <glyph glyph-name="Ncommaaccent" unicode="&#x145;" horiz-adv-x="1130" 
d="M692 0l-253 1270h-1l-255 -1270h-134l312 1466h155l257 -1291h1l260 1291h133l-312 -1466h-163zM279 -458l-1 76q75 0 96 99h-65l37 173h149l-40 -189q-16 -73 -60 -114.5t-116 -44.5z" />
    <glyph glyph-name="ncommaaccent" unicode="&#x146;" horiz-adv-x="921" 
d="M842 846q0 -53 -15 -124l-154 -722h-120l152 713q14 62 14 118q0 155 -133 155q-100 0 -180 -84.5t-119 -265.5l-135 -636h-120l226 1062h120l-23 -109q59 68 121 100.5t138 32.5q100 0 164 -58.5t64 -181.5zM193 -458l-1 76q75 0 96 99h-65l37 173h149l-40 -189
q-16 -73 -60 -114.5t-116 -44.5z" />
    <glyph glyph-name="Ncaron" unicode="&#x147;" horiz-adv-x="1130" 
d="M692 0l-253 1270h-1l-255 -1270h-134l312 1466h155l257 -1291h1l260 1291h133l-312 -1466h-163zM788 1653l171 190h129l-234 -260h-149l-122 260h120z" />
    <glyph glyph-name="ncaron" unicode="&#x148;" horiz-adv-x="921" 
d="M842 846q0 -53 -15 -124l-154 -722h-120l152 713q14 62 14 118q0 155 -133 155q-100 0 -180 -84.5t-119 -265.5l-135 -636h-120l226 1062h120l-23 -109q59 68 121 100.5t138 32.5q100 0 164 -58.5t64 -181.5zM633 1268l171 190h129l-234 -260h-149l-122 260h120z" />
    <glyph glyph-name="Omacron" unicode="&#x14c;" horiz-adv-x="1131" 
d="M1105 1039q0 -210 -53.5 -458.5t-195 -428.5t-367.5 -180q-376 0 -376 480q0 199 57.5 443.5t197 421t350.5 177.5q195 0 291 -110.5t96 -344.5zM248 441q0 -178 57.5 -267.5t185.5 -89.5q172 0 282 171t153.5 392t43.5 384q0 186 -62.5 268.5t-189.5 82.5
q-160 0 -268 -159t-155 -378.5t-47 -403.5zM523 1617l23 110h485l-23 -110h-485z" />
    <glyph glyph-name="omacron" unicode="&#x14d;" 
d="M69 339q0 91 21 208q51 278 165.5 408.5t288.5 130.5q307 0 307 -347q0 -92 -21 -209q-52 -284 -158 -419.5t-286 -135.5q-150 0 -233.5 89t-83.5 275zM731 750q0 121 -45 179.5t-143 58.5q-122 0 -206 -111t-123 -325q-22 -120 -22 -210q0 -269 191 -269q123 0 204 116
t122 351q22 127 22 210zM356 1227l23 110h485l-23 -110h-485z" />
    <glyph glyph-name="Ohungarumlaut" unicode="&#x150;" horiz-adv-x="1131" 
d="M1105 1039q0 -210 -53.5 -458.5t-195 -428.5t-367.5 -180q-376 0 -376 480q0 199 57.5 443.5t197 421t350.5 177.5q195 0 291 -110.5t96 -344.5zM248 441q0 -178 57.5 -267.5t185.5 -89.5q172 0 282 171t153.5 392t43.5 384q0 186 -62.5 268.5t-189.5 82.5
q-160 0 -268 -159t-155 -378.5t-47 -403.5zM545 1588l125 259h198l-220 -259h-103zM843 1588l131 259h197l-219 -259h-109z" />
    <glyph glyph-name="ohungarumlaut" unicode="&#x151;" 
d="M69 339q0 91 21 208q51 278 165.5 408.5t288.5 130.5q307 0 307 -347q0 -92 -21 -209q-52 -284 -158 -419.5t-286 -135.5q-150 0 -233.5 89t-83.5 275zM731 750q0 121 -45 179.5t-143 58.5q-122 0 -206 -111t-123 -325q-22 -120 -22 -210q0 -269 191 -269q123 0 204 116
t122 351q22 127 22 210zM378 1198l125 259h198l-220 -259h-103zM676 1198l131 259h197l-219 -259h-109z" />
    <glyph glyph-name="Racute" unicode="&#x154;" horiz-adv-x="1046" 
d="M1054 1129q0 -99 -43 -186.5t-131 -150t-218 -83.5q57 -20 89.5 -64.5t50 -108.5t38.5 -182l63 -354h-143l-48 312q-20 135 -44.5 207.5t-83.5 115t-172 42.5h-85l-144 -677h-134l312 1466h308q110 0 197 -39t137.5 -115t50.5 -183zM910 1106q0 128 -76 185.5t-199 57.5
h-165l-118 -556h137q143 0 237.5 41t139 112t44.5 160zM676 1586l133 260h190l-225 -260h-98z" />
    <glyph glyph-name="racute" unicode="&#x155;" horiz-adv-x="581" 
d="M555 951q-201 0 -293 -434l-110 -517h-120l226 1062h110l-43 -201q121 225 267 225q75 0 130 -52l-72 -112q-26 16 -47.5 22.5t-47.5 6.5zM431 1201l133 260h190l-225 -260h-98z" />
    <glyph glyph-name="Rcommaaccent" unicode="&#x156;" horiz-adv-x="1046" 
d="M1054 1129q0 -99 -43 -186.5t-131 -150t-218 -83.5q57 -20 89.5 -64.5t50 -108.5t38.5 -182l63 -354h-143l-48 312q-20 135 -44.5 207.5t-83.5 115t-172 42.5h-85l-144 -677h-134l312 1466h308q110 0 197 -39t137.5 -115t50.5 -183zM910 1106q0 128 -76 185.5t-199 57.5
h-165l-118 -556h137q143 0 237.5 41t139 112t44.5 160zM312 -458l-1 76q75 0 96 99h-65l37 173h149l-40 -189q-16 -73 -60 -114.5t-116 -44.5z" />
    <glyph glyph-name="rcommaaccent" unicode="&#x157;" horiz-adv-x="581" 
d="M555 951q-201 0 -293 -434l-110 -517h-120l226 1062h110l-43 -201q121 225 267 225q75 0 130 -52l-72 -112q-26 16 -47.5 22.5t-47.5 6.5zM14 -458l-1 76q75 0 96 99h-65l37 173h149l-40 -189q-16 -73 -60 -114.5t-116 -44.5z" />
    <glyph glyph-name="Rcaron" unicode="&#x158;" horiz-adv-x="1046" 
d="M1054 1129q0 -99 -43 -186.5t-131 -150t-218 -83.5q57 -20 89.5 -64.5t50 -108.5t38.5 -182l63 -354h-143l-48 312q-20 135 -44.5 207.5t-83.5 115t-172 42.5h-85l-144 -677h-134l312 1466h308q110 0 197 -39t137.5 -115t50.5 -183zM910 1106q0 128 -76 185.5t-199 57.5
h-165l-118 -556h137q143 0 237.5 41t139 112t44.5 160zM743 1653l171 190h129l-234 -260h-149l-122 260h120z" />
    <glyph glyph-name="rcaron" unicode="&#x159;" horiz-adv-x="581" 
d="M555 951q-201 0 -293 -434l-110 -517h-120l226 1062h110l-43 -201q121 225 267 225q75 0 130 -52l-72 -112q-26 16 -47.5 22.5t-47.5 6.5zM522 1268l171 190h129l-234 -260h-149l-122 260h120z" />
    <glyph glyph-name="Sacute" unicode="&#x15a;" horiz-adv-x="1024" 
d="M883 1156q0 111 -59 167t-169 56q-85 0 -144 -36t-88 -95.5t-29 -129.5q0 -66 31 -119t77.5 -92.5t125.5 -94.5q91 -64 145.5 -112t93 -118.5t38.5 -163.5q0 -124 -49.5 -225.5t-150.5 -159.5t-249 -58q-131 0 -220 46.5t-133 125.5t-44 177q0 50 10 117l128 11
q-6 -49 -6 -92q0 -273 274 -273q96 0 164.5 41.5t104 112.5t35.5 157q0 69 -31.5 123.5t-78 94.5t-126.5 96q-89 63 -143.5 111.5t-92.5 119t-38 163.5q0 96 44.5 184t135 144.5t221.5 56.5q160 0 257.5 -78.5t97.5 -238.5q0 -49 -7 -98l-132 -11q7 46 7 91zM634 1586
l133 260h190l-225 -260h-98z" />
    <glyph glyph-name="sacute" unicode="&#x15b;" horiz-adv-x="791" 
d="M638 826q0 71 -46 117t-128 46q-61 0 -104 -24t-65 -63.5t-22 -85.5q0 -51 23 -89.5t57.5 -66t94.5 -65.5q72 -46 115.5 -82.5t74 -93.5t30.5 -138q0 -75 -35.5 -145t-114 -115.5t-200.5 -45.5q-106 0 -176.5 33.5t-104.5 91.5t-34 131q0 23 1 35l122 21q-1 -10 -1 -30
q0 -87 50 -136t147 -49q70 0 120.5 26.5t77 71t26.5 97.5q0 57 -24 99t-60 70.5t-97 67.5q-69 45 -110 79.5t-70 88.5t-29 130q0 75 36.5 140t108 104.5t172.5 39.5q85 0 149.5 -31t100 -87.5t35.5 -130.5q0 -22 -1 -34l-122 -16q3 20 3 39zM430 1201l133 260h190l-225 -260
h-98z" />
    <glyph glyph-name="Scedilla" unicode="&#x15e;" horiz-adv-x="1024" 
d="M883 1156q0 111 -59 167t-169 56q-85 0 -144 -36t-88 -95.5t-29 -129.5q0 -66 31 -119t77.5 -92.5t125.5 -94.5q91 -64 145.5 -112t93 -118.5t38.5 -163.5q0 -122 -48 -221.5t-146.5 -159.5t-242.5 -62l-34 -67q67 -9 103.5 -46.5t36.5 -87.5q0 -77 -69.5 -126.5
t-212.5 -49.5q-57 0 -106 12l29 72q39 -5 69 -5q87 0 125.5 27.5t38.5 71.5q0 36 -32.5 58t-93.5 22l65 123q-108 12 -182 60t-110 122t-36 163q0 50 10 117l128 11q-6 -49 -6 -92q0 -273 274 -273q96 0 164.5 41.5t104 112.5t35.5 157q0 69 -31.5 123.5t-78 94.5t-126.5 96
q-89 63 -143.5 111.5t-92.5 119t-38 163.5q0 96 44.5 184t135 144.5t221.5 56.5q160 0 257.5 -78.5t97.5 -238.5q0 -49 -7 -98l-132 -11q7 46 7 91z" />
    <glyph glyph-name="scedilla" unicode="&#x15f;" horiz-adv-x="791" 
d="M638 826q0 71 -46 117t-128 46q-61 0 -104 -24t-65 -63.5t-22 -85.5q0 -51 23 -89.5t57.5 -66t94.5 -65.5q72 -46 115.5 -82.5t74 -93.5t30.5 -138q0 -75 -35 -144.5t-113 -115.5t-199 -46l-34 -67q67 -9 103.5 -46.5t36.5 -87.5q0 -77 -69.5 -126.5t-212.5 -49.5
q-57 0 -106 12l29 72q39 -5 69 -5q87 0 125.5 27.5t38.5 71.5q0 36 -32.5 58t-93.5 22l65 124q-118 18 -177.5 86t-59.5 165q0 23 1 35l122 21q-1 -10 -1 -30q0 -87 50 -136t147 -49q70 0 120.5 26.5t77 71t26.5 97.5q0 57 -24 99t-60 70.5t-97 67.5q-69 45 -110 79.5
t-70 88.5t-29 130q0 75 36.5 140t108 104.5t172.5 39.5q85 0 149.5 -31t100 -87.5t35.5 -130.5q0 -22 -1 -34l-122 -16q3 20 3 39z" />
    <glyph glyph-name="Tcommaaccent" unicode="&#x162;" horiz-adv-x="916" 
d="M1049 1344h-352l-286 -1344h-32l-46 -92q67 -9 103.5 -46.5t36.5 -87.5q0 -77 -69.5 -126.5t-212.5 -49.5q-57 0 -106 12l29 72q39 -5 69 -5q87 0 125.5 27.5t38.5 71.5q0 36 -32.5 58t-93.5 22l76 144h-20l286 1344h-350l26 122h836z" />
    <glyph glyph-name="tcommaaccent" unicode="&#x163;" horiz-adv-x="447" 
d="M494 974h-153l-157 -736q-10 -52 -10 -78q0 -43 18.5 -62t58.5 -19q19 0 46 4.5t36 6.5l-6 -102q-68 -13 -111 -13q-18 0 -27 1l-34 -68q67 -9 103.5 -46.5t36.5 -87.5q0 -77 -69.5 -126.5t-212.5 -49.5q-57 0 -106 12l29 72q39 -5 69 -5q87 0 125.5 27.5t38.5 71.5
q0 36 -32.5 58t-93.5 22l74 141q-65 36 -65 139q0 49 11 98l158 740h-117l19 88h117l56 265l136 76l-72 -341h153z" />
    <glyph glyph-name="Tcaron" unicode="&#x164;" horiz-adv-x="916" 
d="M697 1344l-286 -1344h-134l286 1344h-350l26 122h836l-26 -122h-352zM680 1653l171 190h129l-234 -260h-149l-122 260h120z" />
    <glyph glyph-name="tcaron" unicode="&#x165;" horiz-adv-x="572" 
d="M513 1062l-19 -88h-153l-157 -736q-10 -52 -10 -78q0 -43 18.5 -62t58.5 -19q19 0 46 4.5t36 6.5l-6 -102q-68 -13 -111 -13q-84 0 -124.5 40.5t-40.5 120.5q0 44 12 98l158 740h-117l19 88h117l56 265l136 76l-72 -341h153zM588 999l-37 73q105 61 126 166l8 35h-74
l41 193h169l-45 -212q-18 -84 -60.5 -141.5t-127.5 -113.5z" />
    <glyph glyph-name="glyph292" horiz-adv-x="916" 
d="M697 1344l-286 -1344h-134l286 1344h-350l26 122h836l-26 -122h-352zM191 -458l-1 76q75 0 96 99h-65l37 173h149l-40 -189q-16 -73 -60 -114.5t-116 -44.5z" />
    <glyph glyph-name="glyph293" horiz-adv-x="447" 
d="M513 1062l-19 -88h-153l-157 -736q-10 -52 -10 -78q0 -43 18.5 -62t58.5 -19q19 0 46 4.5t36 6.5l-6 -102q-68 -13 -111 -13q-84 0 -124.5 40.5t-40.5 120.5q0 44 12 98l158 740h-117l19 88h117l56 265l136 76l-72 -341h153zM13 -458l-1 76q75 0 96 99h-65l37 173h149
l-40 -189q-16 -73 -60 -114.5t-116 -44.5z" />
    <glyph glyph-name="Umacron" unicode="&#x16a;" horiz-adv-x="1131" 
d="M499 -25q-181 0 -271.5 91.5t-90.5 258.5q0 77 20 171l207 970h134l-210 -990q-18 -82 -18 -148q0 -119 58 -180t174 -61q98 0 159 43.5t94.5 119.5t56.5 188l219 1028h134l-217 -1018q-34 -164 -86.5 -266t-140 -154.5t-222.5 -52.5zM546 1612l23 110h485l-23 -110h-485
z" />
    <glyph glyph-name="umacron" unicode="&#x16b;" horiz-adv-x="920" 
d="M542 0l22 104q-57 -63 -125 -96t-138 -33q-100 0 -162 57t-62 174q0 53 13 114l158 742h120l-160 -752q-9 -43 -9 -83q0 -69 32.5 -109.5t99.5 -40.5t128 41.5t103.5 110t59.5 147.5l146 686h120l-226 -1062h-120zM360 1227l23 110h485l-23 -110h-485z" />
    <glyph glyph-name="Uring" unicode="&#x16e;" horiz-adv-x="1131" 
d="M499 -25q-181 0 -271.5 91.5t-90.5 258.5q0 77 20 171l207 970h134l-210 -990q-18 -82 -18 -148q0 -119 58 -180t174 -61q98 0 159 43.5t94.5 119.5t56.5 188l219 1028h134l-217 -1018q-34 -164 -86.5 -266t-140 -154.5t-222.5 -52.5zM606 1775q0 53 26.5 98.5t72 72.5
t99.5 27q52 0 98 -26t73 -71.5t27 -100.5q0 -53 -27 -98.5t-72.5 -72.5t-98.5 -27q-54 0 -99.5 27t-72 72.5t-26.5 98.5zM803 1900q-32 0 -60.5 -17t-46 -46t-17.5 -64q0 -52 36.5 -88.5t88.5 -36.5q35 0 64.5 17.5t46 46t16.5 61.5q0 35 -17.5 64.5t-46.5 46t-64 16.5z" />
    <glyph glyph-name="uring" unicode="&#x16f;" horiz-adv-x="920" 
d="M542 0l22 104q-57 -63 -125 -96t-138 -33q-100 0 -162 57t-62 174q0 53 13 114l158 742h120l-160 -752q-9 -43 -9 -83q0 -69 32.5 -109.5t99.5 -40.5t128 41.5t103.5 110t59.5 147.5l146 686h120l-226 -1062h-120zM426 1354q0 48 24 89.5t65.5 66t90.5 24.5
q48 0 89.5 -24t66 -65.5t24.5 -90.5q0 -48 -24.5 -89.5t-66 -66t-89.5 -24.5q-49 0 -90.5 24.5t-65.5 65.5t-24 90zM605 1467q-29 0 -55 -15.5t-42 -41.5t-16 -58q0 -47 33.5 -80.5t80.5 -33.5q32 0 58 16t41.5 42t15.5 56q0 48 -34 81.5t-82 33.5z" />
    <glyph glyph-name="Uhungarumlaut" unicode="&#x170;" horiz-adv-x="1131" 
d="M499 -25q-181 0 -271.5 91.5t-90.5 258.5q0 77 20 171l207 970h134l-210 -990q-18 -82 -18 -148q0 -119 58 -180t174 -61q98 0 159 43.5t94.5 119.5t56.5 188l219 1028h134l-217 -1018q-34 -164 -86.5 -266t-140 -154.5t-222.5 -52.5zM568 1583l125 259h198l-220 -259
h-103zM866 1583l131 259h197l-219 -259h-109z" />
    <glyph glyph-name="uhungarumlaut" unicode="&#x171;" horiz-adv-x="920" 
d="M542 0l22 104q-57 -63 -125 -96t-138 -33q-100 0 -162 57t-62 174q0 53 13 114l158 742h120l-160 -752q-9 -43 -9 -83q0 -69 32.5 -109.5t99.5 -40.5t128 41.5t103.5 110t59.5 147.5l146 686h120l-226 -1062h-120zM382 1198l125 259h198l-220 -259h-103zM680 1198
l131 259h197l-219 -259h-109z" />
    <glyph glyph-name="Uogonek" unicode="&#x172;" horiz-adv-x="1131" 
d="M948 448q-34 -164 -86.5 -266t-140 -154.5t-222.5 -52.5h-15q-53 -109 -53 -175q0 -53 31.5 -80.5t89.5 -27.5q34 0 92 14l-18 -83q-30 -13 -55 -19t-54 -6q-84 0 -133.5 46t-49.5 118q0 88 69 221q-133 23 -199 111.5t-66 231.5q0 81 19 170l207 970h134l-210 -990
q-18 -82 -18 -148q0 -119 58 -180t174 -61q98 0 159 44.5t94.5 119.5t56.5 187l219 1028h134z" />
    <glyph glyph-name="uogonek" unicode="&#x173;" horiz-adv-x="920" 
d="M681 -308q34 0 92 14l-18 -83q-30 -13 -55 -19t-54 -6q-84 0 -133.5 46t-49.5 118q0 97 80 241l21 101q-57 -63 -125 -96t-138 -33q-100 0 -162 58t-62 173q0 53 13 114l158 742h120l-160 -752q-9 -44 -9 -83q0 -69 32.5 -109.5t99.5 -40.5t128 41.5t103.5 110
t59.5 147.5l146 686h120l-226 -1062h-36q-32 -60 -49 -111.5t-17 -88.5q0 -53 31.5 -80.5t89.5 -27.5z" />
    <glyph glyph-name="Zacute" unicode="&#x179;" horiz-adv-x="919" 
d="M238 301l-140 -185h673l-25 -116h-814l25 116l798 1089l112 146h-565l25 115h706l-25 -115zM636 1586l133 260h190l-225 -260h-98z" />
    <glyph glyph-name="zacute" unicode="&#x17a;" horiz-adv-x="694" 
d="M161 196l-74 -96h483l-21 -100h-627l17 81l596 795l67 87h-452l21 99h591l-19 -90zM412 1201l133 260h190l-225 -260h-98z" />
    <glyph glyph-name="Zdotaccent" unicode="&#x17b;" horiz-adv-x="919" 
d="M238 301l-140 -185h673l-25 -116h-814l25 116l798 1089l112 146h-565l25 115h706l-25 -115zM631 1597l41 193h168l-41 -193h-168z" />
    <glyph glyph-name="zdotaccent" unicode="&#x17c;" horiz-adv-x="694" 
d="M161 196l-74 -96h483l-21 -100h-627l17 81l596 795l67 87h-452l21 99h591l-19 -90zM415 1212l41 193h168l-41 -193h-168z" />
    <glyph glyph-name="Ohorn" unicode="&#x1a0;" horiz-adv-x="1206" 
d="M1089 1210q16 -73 16 -171q0 -210 -54.5 -460t-196 -428.5t-365.5 -178.5q-376 0 -376 480q0 199 57 442t196.5 421t351.5 179q251 0 337 -183q81 0 127.5 27.5t74 86.5t50.5 170h131q-27 -129 -66.5 -210.5t-107.5 -126t-175 -48.5zM970 1031q0 186 -62.5 268.5
t-189.5 82.5q-161 0 -268.5 -159t-154.5 -378.5t-47 -403.5q0 -178 57.5 -267.5t185.5 -89.5q171 0 281.5 169.5t154 392t43.5 385.5z" />
    <glyph glyph-name="ohorn" unicode="&#x1a1;" horiz-adv-x="1057" 
d="M857 777h-7q1 -13 1 -40q0 -90 -21 -207q-52 -284 -158 -419.5t-286 -135.5q-147 0 -232 86.5t-85 277.5q0 91 21 208q51 278 165.5 408.5t288.5 130.5q239 0 292 -209h3q87 0 131 26t65.5 79.5t46.5 169.5h127q-28 -133 -66 -212t-105.5 -121t-180.5 -42zM731 750
q0 121 -45 179.5t-143 58.5q-122 0 -206 -111t-123 -325q-22 -120 -22 -210q0 -269 191 -269q123 0 204 116t122 351q22 127 22 210z" />
    <glyph glyph-name="Uhorn" unicode="&#x1af;" horiz-adv-x="1239" 
d="M1140 1209h-30l-162 -761q-34 -164 -86.5 -266t-140 -154.5t-222.5 -52.5q-181 0 -271.5 91.5t-90.5 258.5q0 77 20 171l207 970h134l-210 -990q-18 -82 -18 -148q0 -119 58 -180t174 -61q98 0 159 44.5t94.5 119.5t56.5 187l219 1028h134l-33 -155q81 0 127.5 27.5
t74 86.5t50.5 170h131q-28 -134 -70 -217t-115 -126t-190 -43z" />
    <glyph glyph-name="uhorn" unicode="&#x1b0;" horiz-adv-x="1067" 
d="M867 777h-40l-165 -777h-120l22 104q-57 -63 -125 -96t-138 -33q-100 0 -162 57t-62 174q0 53 13 114l158 742h120l-160 -752q-9 -43 -9 -83q0 -69 32.5 -109.5t99.5 -40.5t128 41.5t103.5 110t59.5 147.5l146 686h120l-39 -185q87 0 131 26t65.5 79.5t46.5 169.5h127
q-28 -133 -66 -212t-105.5 -121t-180.5 -42z" />
    <glyph glyph-name="caron" unicode="&#x2c7;" horiz-adv-x="683" 
d="M491 1268l171 190h129l-234 -260h-149l-122 260h120z" />
    <glyph glyph-name="breve" unicode="&#x2d8;" horiz-adv-x="683" 
d="M382 1432q0 -59 36.5 -94t96.5 -35q70 0 108 33.5t65 112.5h100q-31 -113 -99.5 -175t-180.5 -62q-66 0 -117 26.5t-79.5 74.5t-28.5 111q0 16 1 25h99z" />
    <glyph glyph-name="dotaccent" unicode="&#x2d9;" horiz-adv-x="683" 
d="M402 1212l41 193h168l-41 -193h-168z" />
    <glyph glyph-name="glyph313" horiz-adv-x="683" 
d="M321 1354q0 48 24 89.5t65.5 66t90.5 24.5q48 0 89.5 -24t66 -65.5t24.5 -90.5q0 -48 -24.5 -89.5t-66 -66t-89.5 -24.5q-49 0 -90.5 24.5t-65.5 65.5t-24 90zM500 1467q-29 0 -55 -15.5t-42 -41.5t-16 -58q0 -47 33.5 -80.5t80.5 -33.5q32 0 58 16t41.5 42t15.5 56
q0 48 -34 81.5t-82 33.5z" />
    <glyph glyph-name="ogonek" unicode="&#x2db;" horiz-adv-x="683" 
d="M116 -200q0 -53 31.5 -80.5t89.5 -27.5q34 0 92 14l-18 -83q-30 -13 -55 -19t-54 -6q-84 0 -133.5 46t-49.5 118q0 105 90 259h84q-37 -66 -57 -123.5t-20 -97.5z" />
    <glyph glyph-name="hungarumlaut" unicode="&#x2dd;" horiz-adv-x="683" 
d="M295 1198l125 259h198l-220 -259h-103zM593 1198l131 259h197l-219 -259h-109z" />
    <glyph glyph-name="gravecomb" unicode="&#x300;" horiz-adv-x="0" 
d="M-310 1201l-162 260h169l82 -260h-89z" />
    <glyph glyph-name="acutecomb" unicode="&#x301;" horiz-adv-x="0" 
d="M-358 1201l133 260h190l-225 -260h-98z" />
    <glyph glyph-name="tildecomb" unicode="&#x303;" horiz-adv-x="0" 
d="M-128 1231q-63 0 -142 43q-43 24 -68.5 33.5t-45.5 9.5q-39 0 -57.5 -21t-24.5 -65h-85q8 98 48.5 142.5t114.5 44.5q26 0 60 -10t80 -33q45 -23 72 -32.5t53 -9.5q31 0 46 20t23 66h83q-9 -188 -157 -188z" />
    <glyph glyph-name="hookabovecomb" unicode="&#x309;" horiz-adv-x="0" 
d="M-57 1380q0 -14 -4 -34q-19 -92 -190 -111l-8 -35h-81l21 96q70 0 102 13.5t38 43.5q1 4 1 13q0 27 -26.5 40.5t-68.5 13.5q-36 0 -81 -3l10 81q15 2 43 3.5t48 1.5q96 0 146 -31.5t50 -91.5z" />
    <glyph glyph-name="dotbelowcomb" unicode="&#x323;" horiz-adv-x="0" 
d="M-395 -303l41 193h168l-41 -193h-168z" />
    <glyph glyph-name="tonos" unicode="&#x384;" horiz-adv-x="600" 
d="M404 1201l98 260h181l-195 -260h-84z" />
    <glyph glyph-name="dieresistonos" unicode="&#x385;" horiz-adv-x="713" 
d="M402 1201l103 260h182l-205 -260h-80zM348 1212h-118l37 174h118zM773 1212h-117l37 174h117z" />
    <glyph glyph-name="Alphatonos" unicode="&#x386;" horiz-adv-x="1024" 
d="M248 447l-219 -447h-143l742 1466h139l145 -1466h-141l-35 447h-488zM668 1305l-366 -748h425zM174 1206l103 260h195l-205 -260h-93z" />
    <glyph glyph-name="Epsilontonos" unicode="&#x388;" horiz-adv-x="1043" 
d="M596 1350l-115 -540h434l-24 -116h-434l-123 -578h523l-25 -116h-657l312 1466h634l-25 -116h-500zM108 1206l103 260h195l-205 -260h-93z" />
    <glyph glyph-name="Etatonos" unicode="&#x389;" horiz-adv-x="1256" 
d="M847 0l152 713h-539l-152 -713h-134l312 1466h134l-135 -634h539l135 634h134l-312 -1466h-134zM108 1206l103 260h195l-205 -260h-93z" />
    <glyph glyph-name="Iotatonos" unicode="&#x38a;" horiz-adv-x="583" 
d="M174 0l312 1466h134l-312 -1466h-134zM108 1206l103 260h195l-205 -260h-93z" />
    <glyph glyph-name="Omicrontonos" unicode="&#x38c;" horiz-adv-x="1164" 
d="M1138 1039q0 -210 -53.5 -458.5t-195 -428.5t-367.5 -180q-376 0 -376 480q0 199 57.5 443.5t197 421t350.5 177.5q195 0 291 -110.5t96 -344.5zM281 441q0 -178 57.5 -267.5t185.5 -89.5q172 0 282 171t153.5 392t43.5 384q0 186 -62.5 268.5t-189.5 82.5
q-160 0 -268 -159t-155 -378.5t-47 -403.5zM108 1206l103 260h195l-205 -260h-93z" />
    <glyph glyph-name="Upsilontonos" unicode="&#x38e;" horiz-adv-x="1263" 
d="M787 761l137 194l369 511h154l-619 -836l-134 -630h-134l134 630l-241 836h140l140 -505zM108 1206l103 260h195l-205 -260h-93z" />
    <glyph glyph-name="Omegatonos" unicode="&#x38f;" horiz-adv-x="1300" 
d="M1252 1026q0 -103 -25 -218q-44 -204 -150.5 -381t-258.5 -307h275l-26 -120h-431l24 110q157 124 268 295.5t162 414.5q26 118 26 218q0 171 -76 256t-205 85q-171 0 -282 -137t-171 -420q-28 -134 -28 -250q0 -142 41 -255.5t118 -206.5l-24 -110h-432l26 120h297
q-159 198 -159 477q0 119 27 243q138 651 589 651q130 0 223.5 -55.5t142.5 -160.5t49 -249zM158 1206l103 260h195l-205 -260h-93z" />
    <glyph glyph-name="iotadieresistonos" unicode="&#x390;" horiz-adv-x="465" 
d="M195 168q0 -47 18 -68t54 -21q19 0 39.5 3t44.5 8l-6 -102q-58 -13 -111 -13q-161 0 -161 169q0 51 13 113l172 805h120l-172 -808q-11 -53 -11 -86zM255 1201l103 260h182l-205 -260h-80zM201 1212h-118l37 174h118zM626 1212h-117l37 174h117z" />
    <glyph glyph-name="Alpha" unicode="&#x391;" horiz-adv-x="1024" 
d="M248 447l-219 -447h-143l742 1466h139l145 -1466h-141l-35 447h-488zM668 1305l-366 -748h425z" />
    <glyph glyph-name="Beta" unicode="&#x392;" horiz-adv-x="1018" 
d="M988 1163q0 -136 -75.5 -245t-226.5 -160q108 -44 162.5 -123.5t54.5 -187.5q0 -106 -44.5 -207t-157.5 -170.5t-303 -69.5h-349l312 1466h241q128 0 215 -41.5t129 -110t42 -151.5zM357 818h139q120 0 199.5 46.5t116.5 121t37 161.5q0 95 -63 149.5t-195 54.5h-121z
M208 115h187q208 0 287 98t79 229q0 126 -79.5 193.5t-213.5 67.5h-135z" />
    <glyph glyph-name="Gamma" unicode="&#x393;" horiz-adv-x="815" 
d="M469 1344l-286 -1344h-134l312 1466h613l-26 -122h-479z" />
    <glyph glyph-name="Delta" unicode="&#x394;" horiz-adv-x="1029" 
d="M-93 0l723 1466h146l120 -1466h-989zM541 1018l-427 -903h633l-53 897q-14 179 -12 310h-3q-48 -114 -138 -304z" />
    <glyph glyph-name="Epsilon" unicode="&#x395;" 
d="M470 1350l-115 -540h434l-24 -116h-434l-123 -578h523l-25 -116h-657l312 1466h634l-25 -116h-500z" />
    <glyph glyph-name="Zeta" unicode="&#x396;" horiz-adv-x="919" 
d="M238 301l-140 -185h673l-25 -116h-814l25 116l798 1089l112 146h-565l25 115h706l-25 -115z" />
    <glyph glyph-name="Eta" unicode="&#x397;" horiz-adv-x="1131" 
d="M722 0l152 713h-539l-152 -713h-134l312 1466h134l-135 -634h539l135 634h134l-312 -1466h-134z" />
    <glyph glyph-name="Theta" unicode="&#x398;" horiz-adv-x="1131" 
d="M1105 1039q0 -210 -54 -458t-197 -428.5t-365 -180.5q-376 0 -376 480q0 199 57 440t196 421t352 181q195 0 291 -110.5t96 -344.5zM248 441q0 -178 57.5 -267.5t185.5 -89.5q171 0 281.5 169t154 392t43.5 386q0 186 -62.5 268.5t-189.5 82.5q-160 0 -268 -159
t-155 -378.5t-47 -403.5zM380 685l25 119h437l-25 -119h-437z" />
    <glyph glyph-name="Iota" unicode="&#x399;" horiz-adv-x="458" 
d="M49 0l312 1466h134l-312 -1466h-134z" />
    <glyph glyph-name="Kappa" unicode="&#x39a;" horiz-adv-x="1016" 
d="M902 0h-143l-224 785l-241 -263l-111 -522h-134l312 1466h134l-159 -747l665 747h157l-535 -585z" />
    <glyph glyph-name="Lambda" unicode="&#x39b;" horiz-adv-x="984" 
d="M-114 0l722 1466h139l125 -1466h-139l-83 1305l-619 -1305h-145z" />
    <glyph glyph-name="Mu" unicode="&#x39c;" horiz-adv-x="1466" 
d="M1058 0l296 1319l-671 -1319h-132l-105 1319l-264 -1319h-133l312 1466h191l104 -1275l650 1275h197l-312 -1466h-133z" />
    <glyph glyph-name="Nu" unicode="&#x39d;" horiz-adv-x="1130" 
d="M692 0l-253 1270h-1l-255 -1270h-134l312 1466h155l257 -1291h1l260 1291h133l-312 -1466h-163z" />
    <glyph glyph-name="Xi" unicode="&#x39e;" horiz-adv-x="959" 
d="M290 1341l27 125h723l-27 -125h-723zM217 676l26 125h588l-26 -125h-588zM-15 0l27 125h763l-27 -125h-763z" />
    <glyph glyph-name="Omicron" unicode="&#x39f;" horiz-adv-x="1131" 
d="M1105 1039q0 -210 -53.5 -458.5t-195 -428.5t-367.5 -180q-376 0 -376 480q0 199 57.5 443.5t197 421t350.5 177.5q195 0 291 -110.5t96 -344.5zM248 441q0 -178 57.5 -267.5t185.5 -89.5q172 0 282 171t153.5 392t43.5 384q0 186 -62.5 268.5t-189.5 82.5
q-160 0 -268 -159t-155 -378.5t-47 -403.5z" />
    <glyph glyph-name="Pi" unicode="&#x3a0;" horiz-adv-x="1131" 
d="M722 0l286 1344h-539l-286 -1344h-134l312 1466h807l-312 -1466h-134z" />
    <glyph glyph-name="Rho" unicode="&#x3a1;" horiz-adv-x="1018" 
d="M1057 1095q0 -128 -50.5 -231t-171 -168t-317.5 -65h-201l-134 -631h-134l312 1466h256q141 0 240 -46t149.5 -130t50.5 -195zM342 748h184q199 0 296.5 89.5t97.5 243.5q0 128 -78 198t-237 70h-135z" />
    <glyph glyph-name="Sigma" unicode="&#x3a3;" horiz-adv-x="896" 
d="M396 1344l225 -596v-1l-473 -625h581l-26 -122h-732l27 126l482 636l-219 587l25 117h695l-26 -122h-559z" />
    <glyph glyph-name="Tau" unicode="&#x3a4;" horiz-adv-x="916" 
d="M697 1344l-286 -1344h-134l286 1344h-350l26 122h836l-26 -122h-352z" />
    <glyph glyph-name="Upsilon" unicode="&#x3a5;" horiz-adv-x="1024" 
d="M548 761l137 194l369 511h154l-619 -836l-134 -630h-134l134 630l-241 836h140l140 -505z" />
    <glyph glyph-name="Phi" unicode="&#x3a6;" horiz-adv-x="1224" 
d="M601 173l-39 -183h-131l42 197q-108 25 -190 91t-127.5 164.5t-45.5 216.5q0 157 59 305.5t194 248t349 100.5l35 163h131l-38 -177q107 -25 189.5 -90.5t128.5 -162.5t46 -213q0 -160 -58.5 -309.5t-193.5 -249.5t-351 -101zM497 299l191 900q-165 -9 -263.5 -92
t-138 -202t-39.5 -248q0 -85 29.5 -159t86 -126t134.5 -73zM1067 835q0 89 -31.5 162t-88 121t-130.5 69l-192 -902q164 7 262.5 91t139 205.5t40.5 253.5z" />
    <glyph glyph-name="Chi" unicode="&#x3a7;" horiz-adv-x="1024" 
d="M898 0h-138l-194 615q-10 32 -14 53q-6 -11 -36 -52l-465 -616h-156l605 780l-223 686h134l159 -493q16 -54 19 -70q17 26 49 67l378 496h155l-532 -677z" />
    <glyph glyph-name="Psi" unicode="&#x3a8;" horiz-adv-x="1258" 
d="M1222 975q-37 -174 -95.5 -285.5t-165.5 -173.5t-282 -65l-96 -451h-134l98 459q-162 26 -248 125t-86 263q0 75 18 160l98 459h134l-96 -451q-18 -85 -18 -154q0 -125 57 -196.5t165 -90.5l190 892h134l-191 -898q125 8 200 58t116.5 138t72.5 231l100 471h134z" />
    <glyph glyph-name="Omega" unicode="&#x3a9;" horiz-adv-x="1250" 
d="M1202 1026q0 -103 -25 -218q-44 -204 -150.5 -381t-258.5 -307h275l-26 -120h-431l24 110q157 124 268 295.5t162 414.5q26 118 26 218q0 171 -76 256t-205 85q-171 0 -282 -137t-171 -420q-28 -134 -28 -250q0 -142 41 -255.5t118 -206.5l-24 -110h-432l26 120h297
q-159 198 -159 477q0 119 27 243q138 651 589 651q130 0 223.5 -55.5t142.5 -160.5t49 -249z" />
    <glyph glyph-name="Iotadieresis" unicode="&#x3aa;" horiz-adv-x="458" 
d="M49 0l312 1466h134l-312 -1466h-134zM360 1597h-124l37 174h124zM669 1597h-123l37 174h123z" />
    <glyph glyph-name="Upsilondieresis" unicode="&#x3ab;" horiz-adv-x="1024" 
d="M548 761l137 194l369 511h154l-619 -836l-134 -630h-134l134 630l-241 836h140l140 -505zM636 1597h-124l37 174h124zM945 1597h-123l37 174h123z" />
    <glyph glyph-name="alphatonos" unicode="&#x3ac;" horiz-adv-x="967" 
d="M778 814h3q42 126 88 248h130q-54 -119 -103.5 -257.5t-84.5 -267.5q-33 -203 -33 -458l1 -79h-130q10 173 20 253h-4q-76 -152 -160.5 -215t-179.5 -63q-129 0 -196.5 85t-67.5 247q0 101 27 230q40 186 94.5 306t136.5 181.5t199 61.5q106 0 176 -64.5t84 -207.5z
M209 528q-27 -125 -27 -221q0 -120 42.5 -177t119.5 -57q118 0 207 118t136 342q21 99 21 183q0 126 -47 199t-137 73q-78 0 -135 -45t-100.5 -145.5t-79.5 -269.5zM520 1201l98 260h181l-195 -260h-84z" />
    <glyph glyph-name="epsilontonos" unicode="&#x3ad;" horiz-adv-x="780" 
d="M793 958l-82 -69q-44 52 -87.5 75.5t-104.5 23.5q-83 0 -132.5 -37.5t-69 -88.5t-19.5 -97q0 -72 39.5 -120.5t116.5 -48.5h106l-21 -99h-103q-91 0 -149 -37.5t-84.5 -94.5t-26.5 -119q0 -73 44 -123t126 -50q52 0 95 18t73 41t72 61l64 -75q-82 -78 -151 -110.5
t-164 -32.5q-92 0 -156.5 36t-96.5 95.5t-32 128.5q0 66 26.5 130.5t85 115.5t143.5 74q-63 31 -96 87t-33 131q0 64 32 136.5t108.5 125t200.5 52.5q86 0 154 -31.5t122 -97.5zM497 1201l98 260h181l-195 -260h-84z" />
    <glyph glyph-name="etatonos" unicode="&#x3ae;" horiz-adv-x="921" 
d="M841 846q0 -60 -14 -124l-240 -1127h-120l238 1118q14 68 14 117q0 156 -133 156q-100 0 -180 -82.5t-119 -267.5l-135 -636h-120l226 1062h120l-23 -109q59 68 121 100.5t138 32.5q101 0 164 -58t63 -182zM558 1201l98 260h181l-195 -260h-84z" />
    <glyph glyph-name="iotatonos" unicode="&#x3af;" horiz-adv-x="465" 
d="M195 168q0 -47 18 -68t54 -21q19 0 39.5 3t44.5 8l-6 -102q-58 -13 -111 -13q-161 0 -161 169q0 51 13 113l172 805h120l-172 -808q-11 -53 -11 -86zM289 1201l98 260h181l-195 -260h-84z" />
    <glyph glyph-name="upsilondieresistonos" unicode="&#x3b0;" horiz-adv-x="900" 
d="M760 463q-39 -185 -89.5 -290t-125 -151.5t-188.5 -46.5q-122 0 -195.5 71t-73.5 207q0 58 15 128l145 681h120l-147 -692q-12 -58 -12 -106q0 -90 41.5 -139t117.5 -49q75 0 123 36t83 120t68 238q68 319 76 592h119q-8 -277 -77 -599zM488 1201l103 260h182l-205 -260
h-80zM434 1212h-118l37 174h118zM859 1212h-117l37 174h117z" />
    <glyph glyph-name="alpha" unicode="&#x3b1;" horiz-adv-x="967" 
d="M778 814h3q42 126 88 248h130q-54 -119 -103.5 -257.5t-84.5 -267.5q-33 -203 -33 -458l1 -79h-130q10 173 20 253h-4q-76 -152 -160.5 -215t-179.5 -63q-129 0 -196.5 85t-67.5 247q0 101 27 230q40 186 94.5 306t136.5 181.5t199 61.5q106 0 176 -64.5t84 -207.5z
M209 528q-27 -125 -27 -221q0 -120 42.5 -177t119.5 -57q118 0 207 118t136 342q21 99 21 183q0 126 -47 199t-137 73q-78 0 -135 -45t-100.5 -145.5t-79.5 -269.5z" />
    <glyph glyph-name="beta" unicode="&#x3b2;" horiz-adv-x="948" 
d="M930 1216q0 -46 -10 -93q-24 -114 -89 -202.5t-154 -117.5q75 -33 117.5 -99.5t42.5 -167.5q0 -56 -15 -125q-44 -209 -138.5 -322.5t-246.5 -113.5q-81 0 -146.5 44t-102.5 137h-3l-119 -562h-120l305 1437q34 157 81.5 257t123 151.5t188.5 51.5q84 0 149 -33t101 -95
t36 -147zM797 1126q9 44 9 81q0 85 -45 131t-121 46q-65 0 -113 -30t-87 -107.5t-69 -217.5l-110 -516q-21 -100 -21 -179q0 -123 49.5 -187.5t141.5 -64.5q108 0 171 83t98 249q15 71 15 125q0 101 -47.5 151.5t-135.5 50.5h-74l23 109h54q60 0 113 33t92 95.5t57 147.5z
" />
    <glyph glyph-name="gamma" unicode="&#x3b3;" horiz-adv-x="797" 
d="M265 -406h-124l84 394l-112 1074h115l88 -908h2l469 908h123l-561 -1072z" />
    <glyph glyph-name="delta" unicode="&#x3b4;" horiz-adv-x="916" 
d="M498 1361q53 -96 164 -254q44 -65 51 -76q62 -97 93 -183t31 -193q0 -87 -21 -184q-52 -244 -165.5 -370t-285.5 -126q-85 0 -152.5 38t-107.5 118.5t-40 203.5q0 89 24 204q39 184 99 298t150.5 168t220.5 55q-10 15 -11 17l-107.5 166t-81.5 144l17 79h569l-23 -105
h-424zM207 518q-23 -108 -23 -192q0 -127 50.5 -189.5t132.5 -62.5q123 0 203.5 100t127.5 319q21 101 21 182q0 90 -24 155t-67.5 98.5t-101.5 33.5q-109 0 -189.5 -106.5t-129.5 -337.5z" />
    <glyph glyph-name="epsilon" unicode="&#x3b5;" horiz-adv-x="780" 
d="M793 958l-82 -69q-44 52 -87.5 75.5t-104.5 23.5q-83 0 -132.5 -37.5t-69 -88.5t-19.5 -97q0 -72 39.5 -120.5t116.5 -48.5h106l-21 -99h-103q-91 0 -149 -37.5t-84.5 -94.5t-26.5 -119q0 -73 44 -123t126 -50q52 0 95 18t73 41t72 61l64 -75q-82 -78 -151 -110.5
t-164 -32.5q-92 0 -156.5 36t-96.5 95.5t-32 128.5q0 66 26.5 130.5t85 115.5t143.5 74q-63 31 -96 87t-33 131q0 64 32 136.5t108.5 125t200.5 52.5q86 0 154 -31.5t122 -97.5z" />
    <glyph glyph-name="zeta" unicode="&#x3b6;" horiz-adv-x="723" 
d="M200 365q0 -57 20.5 -95.5t51 -63.5t81.5 -55q59 -37 94 -66.5t59.5 -80t24.5 -127.5q0 -80 -33.5 -149.5t-108.5 -113.5t-194 -44q-30 0 -40 1l32 108q122 0 169 54.5t47 135.5q0 47 -19 80.5t-47 56t-78 53.5q-61 38 -99 70t-64.5 87t-26.5 136q0 130 74 306.5
t213.5 362.5t325.5 340h-321l23 105h498l-17 -79q-231 -176 -380.5 -370t-217 -363.5t-67.5 -288.5z" />
    <glyph glyph-name="eta" unicode="&#x3b7;" horiz-adv-x="921" 
d="M841 846q0 -60 -14 -124l-240 -1127h-120l238 1118q14 68 14 117q0 156 -133 156q-100 0 -180 -82.5t-119 -267.5l-135 -636h-120l226 1062h120l-23 -109q59 68 121 100.5t138 32.5q101 0 164 -58t63 -182z" />
    <glyph glyph-name="theta" unicode="&#x3b8;" horiz-adv-x="910" 
d="M901 1124q0 -164 -51 -404q-58 -271 -124.5 -433t-152.5 -237t-204 -75q-130 0 -201.5 93.5t-71.5 292.5q0 151 46 371q60 281 129.5 446.5t156 239t202.5 73.5q131 0 201 -85.5t70 -281.5zM786 1153q0 132 -40 186t-117 54q-74 0 -133.5 -57.5t-113 -189.5t-103.5 -357
h462q45 228 45 364zM719 684h-463q-41 -202 -41 -342q0 -269 156 -269q79 0 138.5 59.5t110 192.5t99.5 359z" />
    <glyph glyph-name="iota" unicode="&#x3b9;" horiz-adv-x="465" 
d="M195 168q0 -47 18 -68t54 -21q19 0 39.5 3t44.5 8l-6 -102q-58 -13 -111 -13q-161 0 -161 169q0 51 13 113l172 805h120l-172 -808q-11 -53 -11 -86z" />
    <glyph glyph-name="kappa" unicode="&#x3ba;" horiz-adv-x="782" 
d="M662 0h-125l-157 534l-146 -146l-82 -388h-120l226 1062h120l-107 -504l446 504h143l-389 -431z" />
    <glyph glyph-name="lambda" unicode="&#x3bb;" horiz-adv-x="829" 
d="M561 0l-41 591q-18 250 -18 288h-3q-24 -63 -55.5 -127t-87.5 -169l-308 -583h-129l559 1037l-31 429h121l118 -1466h-125z" />
    <glyph glyph-name="mu" unicode="&#x3bc;" horiz-adv-x="930" 
d="M552 0l31 144q-48 -90 -100.5 -129.5t-118.5 -39.5t-112 32.5t-72 104.5l-110 -518h-124l312 1468h120l-126 -592q-22 -104 -22 -185q0 -101 35.5 -154.5t104.5 -53.5q109 0 176 104t106 289l126 592h120l-226 -1062h-120z" />
    <glyph glyph-name="nu" unicode="&#x3bd;" horiz-adv-x="793" 
d="M320 0h-86l-121 1062h117l80 -747q11 -98 14 -157q278 406 464 904h118q-203 -552 -586 -1062z" />
    <glyph glyph-name="xi" unicode="&#x3be;" horiz-adv-x="690" 
d="M656 1382q-95 0 -151 -40.5t-77.5 -96.5t-21.5 -110q0 -86 40.5 -134t127.5 -48h88l-23 -109h-65q-116 0 -202.5 -79.5t-131.5 -192.5t-45 -206q0 -54 20 -93t50 -65t80 -61q57 -40 90 -70.5t56.5 -79.5t23.5 -119q0 -133 -81.5 -220.5t-263.5 -87.5q-33 0 -49 2l40 107
q129 0 178 50.5t49 137.5q0 44 -18 77t-44.5 56t-73.5 56q-59 40 -96.5 75.5t-63.5 90.5t-26 136q0 102 44.5 215.5t125 202.5t183.5 120q-70 38 -103 95t-33 144t34.5 167.5t117.5 134.5t219 54h134l-23 -109h-109z" />
    <glyph glyph-name="omicron" unicode="&#x3bf;" 
d="M69 339q0 91 21 208q51 278 165.5 408.5t288.5 130.5q307 0 307 -347q0 -92 -21 -209q-52 -284 -158 -419.5t-286 -135.5q-150 0 -233.5 89t-83.5 275zM731 750q0 121 -45 179.5t-143 58.5q-122 0 -206 -111t-123 -325q-22 -120 -22 -210q0 -269 191 -269q123 0 204 116
t122 351q22 127 22 210z" />
    <glyph glyph-name="pi" unicode="&#x3c0;" horiz-adv-x="1063" 
d="M1082 957h-196l-150 -703q-11 -53 -11 -86q0 -47 18 -68t54 -21q19 0 39.5 3t44.5 8l-6 -102q-58 -13 -111 -13q-161 0 -161 169q0 51 13 113l150 700h-313l-203 -957h-120l203 957h-22q-32 0 -67 -3.5t-86 -16.5l23 105q77 20 153 20h770z" />
    <glyph glyph-name="rho" unicode="&#x3c1;" horiz-adv-x="948" 
d="M885 728q0 -87 -22 -188q-60 -284 -170.5 -424.5t-273.5 -140.5q-187 0 -256 181h-3l-119 -562h-124l197 929q42 200 103.5 323.5t149.5 181.5t213 58q91 0 160 -40.5t107 -121t38 -196.5zM232 513q-20 -93 -20 -173q0 -133 55 -200t141 -67q117 0 198.5 112.5
t132.5 352.5q24 109 24 199q0 128 -50 189.5t-138 61.5q-87 0 -150 -47.5t-109.5 -151t-83.5 -276.5z" />
    <glyph glyph-name="sigma1" unicode="&#x3c2;" horiz-adv-x="739" 
d="M212 -325q69 0 111 30t60 75t18 93t-18 81.5t-45.5 55t-75.5 51.5q-63 39 -102.5 73t-67 96t-27.5 158q0 138 55 300.5t177.5 280t302.5 117.5q52 0 106.5 -10.5t101.5 -31.5l-47 -105q-86 42 -166 42q-129 0 -221.5 -99t-137.5 -235.5t-45 -244.5q0 -72 23 -120
t56.5 -76t90.5 -63q56 -34 89 -61.5t55.5 -73.5t22.5 -116q0 -82 -32 -155.5t-103.5 -120.5t-183.5 -47q-44 0 -79 5t-70 17l34 110q29 -13 55.5 -19.5t62.5 -6.5z" />
    <glyph glyph-name="sigma" unicode="&#x3c3;" horiz-adv-x="958" 
d="M62 320q0 92 23 200q41 194 105.5 313t156 174t216.5 55h468l-22 -105h-240q82 -80 82 -241q0 -86 -23 -194q-41 -194 -101.5 -314t-147.5 -176.5t-209 -56.5q-142 0 -225 85.5t-83 259.5zM729 717q0 123 -48 181.5t-133 58.5q-84 0 -147.5 -42.5t-111 -139t-81.5 -255.5
q-24 -110 -24 -198q0 -129 50.5 -189t136.5 -60q81 0 142.5 43.5t109 142t82.5 263.5q24 114 24 195z" />
    <glyph glyph-name="tau" unicode="&#x3c4;" horiz-adv-x="723" 
d="M742 957h-235l-150 -703q-11 -53 -11 -86q0 -47 18 -68t54 -21q18 0 39 3t45 8l-6 -102q-58 -13 -111 -13q-161 0 -161 169q0 51 13 113l150 700h-76q-32 0 -67 -3.5t-86 -16.5l23 105q77 20 153 20h430z" />
    <glyph glyph-name="upsilon" unicode="&#x3c5;" horiz-adv-x="900" 
d="M760 463q-39 -185 -89.5 -290t-125 -151.5t-188.5 -46.5q-122 0 -195.5 71t-73.5 207q0 58 15 128l145 681h120l-147 -692q-12 -58 -12 -106q0 -90 41.5 -139t117.5 -49q75 0 123 36t83 120t68 238q68 319 76 592h119q-8 -277 -77 -599z" />
    <glyph glyph-name="phi" unicode="&#x3c6;" horiz-adv-x="1093" 
d="M489 -24l-81 -382h-120l83 390q-136 27 -213 136.5t-77 285.5q0 142 50 298t158 265t272 116l-44 -117q-112 -23 -182.5 -115t-101.5 -212t-31 -228q0 -135 51.5 -220.5t138.5 -110.5l162 762q26 125 77.5 183.5t141.5 58.5q75 0 131.5 -46t87 -132t30.5 -203
q0 -169 -52.5 -333t-171.5 -274.5t-309 -121.5zM903 716q0 90 -17.5 151t-47 91t-66.5 30q-39 0 -62 -41.5t-39 -114.5l-161 -756q143 17 231 119.5t125 242.5t37 278z" />
    <glyph glyph-name="chi" unicode="&#x3c7;" horiz-adv-x="819" 
d="M579 -406h-125l-108 633l-372 -633h-132l461 748l-124 720h124l91 -599l348 599h131l-439 -724z" />
    <glyph glyph-name="psi" unicode="&#x3c8;" horiz-adv-x="1145" 
d="M999 479q-36 -171 -91 -278.5t-149.5 -165t-243.5 -61.5l-81 -380h-120l83 388q-138 22 -214 110.5t-76 238.5q0 65 17 148l124 583h120l-124 -584q-15 -71 -15 -129q0 -111 49.5 -178.5t139.5 -87.5l208 979h120l-209 -986q103 7 169 53.5t105.5 130.5t67.5 218l124 584
h120z" />
    <glyph glyph-name="omega" unicode="&#x3c9;" horiz-adv-x="1174" 
d="M243 506q-30 -137 -30 -235q0 -95 28 -141t75 -46q65 0 112 99.5t89 299.5l66 311h120l-66 -311q-26 -120 -26 -209q0 -93 27 -141.5t73 -48.5q63 0 113 95t91 298q39 197 39 362q0 111 -18 223h121q19 -125 19 -234q0 -162 -39 -354q-51 -250 -128 -374.5t-198 -124.5
q-77 0 -126.5 53t-59.5 167q-51 -116 -102.5 -168t-128.5 -52q-95 0 -148.5 75.5t-53.5 222.5q0 106 27 232q29 137 83.5 281.5t128.5 275.5h130q-81 -136 -135 -280t-83 -276z" />
    <glyph glyph-name="iotadieresis" unicode="&#x3ca;" horiz-adv-x="465" 
d="M195 168q0 -47 18 -68t54 -21q19 0 39.5 3t44.5 8l-6 -102q-58 -13 -111 -13q-161 0 -161 169q0 51 13 113l172 805h120l-172 -808q-11 -53 -11 -86zM257 1212h-124l37 174h124zM566 1212h-123l37 174h123z" />
    <glyph glyph-name="upsilondieresis" unicode="&#x3cb;" horiz-adv-x="900" 
d="M760 463q-39 -185 -89.5 -290t-125 -151.5t-188.5 -46.5q-122 0 -195.5 71t-73.5 207q0 58 15 128l145 681h120l-147 -692q-12 -58 -12 -106q0 -90 41.5 -139t117.5 -49q75 0 123 36t83 120t68 238q68 319 76 592h119q-8 -277 -77 -599zM490 1212h-124l37 174h124z
M799 1212h-123l37 174h123z" />
    <glyph glyph-name="omicrontonos" unicode="&#x3cc;" 
d="M69 339q0 91 21 208q51 278 165.5 408.5t288.5 130.5q307 0 307 -347q0 -92 -21 -209q-52 -284 -158 -419.5t-286 -135.5q-150 0 -233.5 89t-83.5 275zM731 750q0 121 -45 179.5t-143 58.5q-122 0 -206 -111t-123 -325q-22 -120 -22 -210q0 -269 191 -269q123 0 204 116
t122 351q22 127 22 210zM527 1201l98 260h181l-195 -260h-84z" />
    <glyph glyph-name="upsilontonos" unicode="&#x3cd;" horiz-adv-x="900" 
d="M760 463q-39 -185 -89.5 -290t-125 -151.5t-188.5 -46.5q-122 0 -195.5 71t-73.5 207q0 58 15 128l145 681h120l-147 -692q-12 -58 -12 -106q0 -90 41.5 -139t117.5 -49q75 0 123 36t83 120t68 238q68 319 76 592h119q-8 -277 -77 -599zM522 1201l98 260h181l-195 -260
h-84z" />
    <glyph glyph-name="omegatonos" unicode="&#x3ce;" horiz-adv-x="1174" 
d="M243 506q-30 -137 -30 -235q0 -95 28 -141t75 -46q65 0 112 99.5t89 299.5l66 311h120l-66 -311q-26 -120 -26 -209q0 -93 27 -141.5t73 -48.5q63 0 113 95t91 298q39 197 39 362q0 111 -18 223h121q19 -125 19 -234q0 -162 -39 -354q-51 -250 -128 -374.5t-198 -124.5
q-77 0 -126.5 53t-59.5 167q-51 -116 -102.5 -168t-128.5 -52q-95 0 -148.5 75.5t-53.5 222.5q0 106 27 232q29 137 83.5 281.5t128.5 275.5h130q-81 -136 -135 -280t-83 -276zM671 1201l98 260h181l-195 -260h-84z" />
    <glyph glyph-name="afii10023" unicode="&#x401;" 
d="M470 1350l-115 -540h434l-24 -116h-434l-123 -578h523l-25 -116h-657l312 1466h634l-25 -116h-500zM640 1616h-124l37 174h124zM949 1616h-123l37 174h123z" />
    <glyph glyph-name="afii10051" unicode="&#x402;" horiz-adv-x="1278" 
d="M1174 566q0 -134 -46.5 -270t-151.5 -228.5t-268 -92.5q-103 0 -175 27l51 121q43 -29 126 -29q116 0 188.5 73t104.5 178.5t32 207.5q0 125 -52 190t-150 65q-69 0 -134 -18.5t-133 -62.5l-155 -727h-134l286 1344h-350l26 122h836l-26 -122h-352l-107 -501
q70 44 131 64t135 20q96 0 168 -44.5t111 -126t39 -190.5z" />
    <glyph glyph-name="afii10052" unicode="&#x403;" horiz-adv-x="815" 
d="M469 1344l-286 -1344h-134l312 1466h613l-26 -122h-479zM600 1586l133 260h190l-225 -260h-98z" />
    <glyph glyph-name="afii10053" unicode="&#x404;" horiz-adv-x="1133" 
d="M918 489l123 -25q-80 -249 -205 -369t-313 -120q-205 0 -307 126t-102 357q0 123 31 283q48 241 120 404t195 254.5t307 91.5q175 0 277 -109.5t109 -319.5l-136 -31q-2 172 -69 260t-191 88q-113 0 -199 -56t-149.5 -179t-109.5 -324h403l-26 -125h-403
q-24 -135 -24 -239q0 -186 71 -277.5t202 -91.5q130 0 225.5 92.5t170.5 309.5z" />
    <glyph glyph-name="afii10054" unicode="&#x405;" horiz-adv-x="1024" 
d="M883 1156q0 111 -59 167t-169 56q-85 0 -144 -36t-88 -95.5t-29 -129.5q0 -66 31 -119t77.5 -92.5t125.5 -94.5q91 -64 145.5 -112t93 -118.5t38.5 -163.5q0 -124 -49.5 -225.5t-150.5 -159.5t-249 -58q-131 0 -220 46.5t-133 125.5t-44 177q0 50 10 117l128 11
q-6 -49 -6 -92q0 -273 274 -273q96 0 164.5 41.5t104 112.5t35.5 157q0 69 -31.5 123.5t-78 94.5t-126.5 96q-89 63 -143.5 111.5t-92.5 119t-38 163.5q0 96 44.5 184t135 144.5t221.5 56.5q160 0 257.5 -78.5t97.5 -238.5q0 -49 -7 -98l-132 -11q7 46 7 91z" />
    <glyph glyph-name="afii10055" unicode="&#x406;" horiz-adv-x="458" 
d="M49 0l312 1466h134l-312 -1466h-134z" />
    <glyph glyph-name="afii10056" unicode="&#x407;" horiz-adv-x="458" 
d="M49 0l312 1466h134l-312 -1466h-134zM367 1616h-124l37 174h124zM676 1616h-123l37 174h123z" />
    <glyph glyph-name="afii10057" unicode="&#x408;" horiz-adv-x="789" 
d="M253 -25q-122 0 -189.5 71.5t-67.5 215.5q0 66 15 147l129 13q-13 -82 -13 -146q0 -98 33.5 -142.5t100.5 -44.5q66 0 106 43.5t59 102.5t37 146l6 27l225 1058h134l-240 -1125q-27 -126 -66.5 -205t-104.5 -120t-164 -41z" />
    <glyph glyph-name="afii10058" unicode="&#x409;" horiz-adv-x="1525" 
d="M1433 473q0 -115 -43 -222.5t-155.5 -179t-294.5 -71.5h-316l285 1341h-375l-222 -1041q-25 -118 -60 -188.5t-86.5 -103.5t-127.5 -33q-68 0 -114 21l46 118q32 -20 70 -20q49 0 82.5 50.5t59.5 170.5l245 1151h643l-132 -621h94q122 0 212.5 -43t139.5 -126.5
t49 -202.5zM1296 467q0 135 -70.5 195.5t-209.5 60.5h-104l-128 -601h134q196 0 287 88t91 257z" />
    <glyph glyph-name="afii10059" unicode="&#x40a;" horiz-adv-x="1523" 
d="M1431 473q0 -115 -42.5 -221t-152 -179t-298.5 -73h-316l152 713h-439l-152 -713h-134l312 1466h134l-135 -634h439l135 634h134l-134 -634h94q122 0 213 -42t140.5 -122.5t49.5 -194.5zM1294 457q0 135 -71.5 195.5t-210.5 60.5h-104l-126 -591h134q378 0 378 335z" />
    <glyph glyph-name="afii10060" unicode="&#x40b;" horiz-adv-x="1269" 
d="M1138 656q0 -80 -22 -184l-100 -472h-134l100 468q19 93 19 154q0 186 -154 186q-66 0 -135 -20.5t-148 -69.5l-153 -718h-134l286 1344h-350l26 122h836l-26 -122h-352l-108 -509q77 46 146.5 69t139.5 23q122 0 192.5 -62t70.5 -209z" />
    <glyph glyph-name="afii10061" unicode="&#x40c;" horiz-adv-x="1018" 
d="M1053 1347q-41 0 -66 -12.5t-41.5 -35t-42.5 -70.5l-76 -136q-65 -115 -97 -166t-67.5 -86.5t-82.5 -52.5l-1 -4q45 -21 73 -57t48.5 -100t45.5 -182l93 -445h-142l-82 405q-28 140 -50 202.5t-59 89t-109 26.5h-60l-154 -723h-134l312 1466h134l-133 -624h57
q56 0 94.5 22t79.5 80t109 183l62 114q53 97 83.5 139t76.5 64t127 22h64l-26 -119h-36zM677 1586l133 260h190l-225 -260h-98z" />
    <glyph glyph-name="afii10062" unicode="&#x40e;" horiz-adv-x="997" 
d="M445 227q-55 -93 -96.5 -145.5t-91 -79.5t-116.5 -27q-37 0 -62.5 5.5t-53.5 15.5l26 123q47 -25 93 -25q36 0 65 17t61 58t78 122l90 155l-199 1020h135l154 -864l499 864h149zM719 1678q66 0 108 38t67 118h110q-31 -108 -105 -172.5t-180 -64.5q-113 0 -176 62.5
t-63 174.5h109q0 -79 32 -117.5t98 -38.5z" />
    <glyph glyph-name="afii10145" unicode="&#x40f;" horiz-adv-x="1127" 
d="M514 0l-86 -406h-127l86 406h-338l312 1466h134l-286 -1344h535l286 1344h134l-312 -1466h-338z" />
    <glyph glyph-name="afii10017" unicode="&#x410;" horiz-adv-x="1024" 
d="M248 447l-219 -447h-143l742 1466h139l145 -1466h-141l-35 447h-488zM668 1305l-366 -748h425z" />
    <glyph glyph-name="afii10018" unicode="&#x411;" horiz-adv-x="1011" 
d="M477 845q125 0 218 -43t143 -126.5t50 -202.5q0 -114 -43 -220.5t-155.5 -179.5t-304.5 -73h-336l312 1466h643l-26 -122h-509l-106 -499h114zM363 122q197 0 292.5 86t95.5 259q0 135 -73 195.5t-217 60.5h-124l-128 -601h154z" />
    <glyph glyph-name="afii10019" unicode="&#x412;" horiz-adv-x="1018" 
d="M988 1163q0 -136 -75.5 -245t-226.5 -160q108 -44 162.5 -123.5t54.5 -187.5q0 -106 -44.5 -207t-157.5 -170.5t-303 -69.5h-349l312 1466h241q128 0 215 -41.5t129 -110t42 -151.5zM357 818h139q120 0 199.5 46.5t116.5 121t37 161.5q0 95 -63 149.5t-195 54.5h-121z
M208 115h187q208 0 287 98t79 229q0 126 -79.5 193.5t-213.5 67.5h-135z" />
    <glyph glyph-name="afii10020" unicode="&#x413;" horiz-adv-x="815" 
d="M469 1344l-286 -1344h-134l312 1466h613l-26 -122h-479z" />
    <glyph glyph-name="afii10021" unicode="&#x414;" horiz-adv-x="1086" 
d="M949 122l-112 -528h-127l86 406h-732l-86 -406h-127l112 528h105q116 236 199 484t150 563l63 297h633l-286 -1344h122zM546 1147q-63 -298 -145 -548t-193 -477h485l260 1222h-365z" />
    <glyph glyph-name="afii10022" unicode="&#x415;" 
d="M470 1350l-115 -540h434l-24 -116h-434l-123 -578h523l-25 -116h-657l312 1466h634l-25 -116h-500z" />
    <glyph glyph-name="afii10024" unicode="&#x416;" horiz-adv-x="1476" 
d="M342 406l-228 -406h-161l264 445q76 127 120.5 191.5t88.5 102.5t104 60l1 4q-30 18 -46.5 49.5t-27.5 82t-28 158.5l-17 108q-11 76 -28.5 111t-58.5 35h-49l26 119h57q55 0 88 -22t52.5 -70.5t32.5 -132.5l18 -114q23 -152 36 -198.5t38 -66.5t87 -20h26l133 624h134
l-133 -624h25q57 0 90.5 18.5t62 60.5t88.5 153l92 167q50 90 83.5 135.5t73.5 67.5t99 22h88l-26 -119h-49q-30 0 -51.5 -13.5t-38.5 -38t-46 -76.5l-111 -193q-48 -84 -74 -125.5t-55 -71.5t-65 -46l-1 -4q41 -16 67.5 -50.5t47.5 -100.5t43 -183l83 -445h-143l-66 406
q-21 132 -45 198t-62 92.5t-107 26.5h-28l-154 -723h-134l154 723h-28q-78 0 -125.5 -25t-92 -87t-124.5 -205z" />
    <glyph glyph-name="afii10025" unicode="&#x417;" horiz-adv-x="1011" 
d="M898 486q0 -107 -42 -228.5t-141 -202t-254 -80.5q-146 0 -235 65.5t-121.5 156t-32.5 185.5q0 4 1 15l142 22q-6 -143 52.5 -234t194.5 -91q107 0 175 63.5t96 152t28 170.5q0 111 -57 177t-155 66h-79l25 119h78q93 0 156.5 50.5t94.5 125.5t31 149q0 95 -49 150
t-132 55q-70 0 -119.5 -29.5t-86.5 -89t-72 -157.5l-131 24q61 188 159 279.5t252 91.5q93 0 164.5 -39.5t111.5 -111.5t40 -167q0 -82 -28.5 -161t-91 -140.5t-159.5 -89.5l-1 -4q93 -41 139.5 -111.5t46.5 -180.5z" />
    <glyph glyph-name="afii10026" unicode="&#x418;" horiz-adv-x="1130" 
d="M855 0h-134l281 1250h-1l-792 -1250h-160l312 1466h133l-286 -1271h1l806 1271h152z" />
    <glyph glyph-name="afii10027" unicode="&#x419;" horiz-adv-x="1130" 
d="M855 0h-134l281 1250h-1l-792 -1250h-160l312 1466h133l-286 -1271h1l806 1271h152zM787 1678q66 0 108 38t67 118h110q-31 -108 -105 -172.5t-180 -64.5q-113 0 -176 62.5t-63 174.5h109q0 -79 32 -117.5t98 -38.5z" />
    <glyph glyph-name="afii10028" unicode="&#x41a;" horiz-adv-x="1018" 
d="M1053 1347q-41 0 -66 -12.5t-41.5 -35t-42.5 -70.5l-76 -136q-65 -115 -97 -166t-67.5 -86.5t-82.5 -52.5l-1 -4q45 -21 73 -57t48.5 -100t45.5 -182l93 -445h-142l-82 405q-28 140 -50 202.5t-59 89t-109 26.5h-60l-154 -723h-134l312 1466h134l-133 -624h57
q56 0 94.5 22t79.5 80t109 183l62 114q53 97 83.5 139t76.5 64t127 22h64l-26 -119h-36z" />
    <glyph glyph-name="afii10029" unicode="&#x41b;" horiz-adv-x="1073" 
d="M40 94q49 0 82.5 50.5t59.5 170.5l245 1151h683l-312 -1466h-134l285 1341h-415l-222 -1041q-25 -118 -60 -188.5t-86.5 -103.5t-127.5 -33q-68 0 -114 21l46 118q32 -20 70 -20z" />
    <glyph glyph-name="afii10030" unicode="&#x41c;" horiz-adv-x="1466" 
d="M1058 0l296 1319l-671 -1319h-132l-105 1319l-264 -1319h-133l312 1466h191l104 -1275l650 1275h197l-312 -1466h-133z" />
    <glyph glyph-name="afii10031" unicode="&#x41d;" horiz-adv-x="1131" 
d="M722 0l152 713h-539l-152 -713h-134l312 1466h134l-135 -634h539l135 634h134l-312 -1466h-134z" />
    <glyph glyph-name="afii10032" unicode="&#x41e;" horiz-adv-x="1131" 
d="M1105 1039q0 -210 -53.5 -458.5t-195 -428.5t-367.5 -180q-376 0 -376 480q0 199 57.5 443.5t197 421t350.5 177.5q195 0 291 -110.5t96 -344.5zM248 441q0 -178 57.5 -267.5t185.5 -89.5q172 0 282 171t153.5 392t43.5 384q0 186 -62.5 268.5t-189.5 82.5
q-160 0 -268 -159t-155 -378.5t-47 -403.5z" />
    <glyph glyph-name="afii10033" unicode="&#x41f;" horiz-adv-x="1131" 
d="M722 0l286 1344h-539l-286 -1344h-134l312 1466h807l-312 -1466h-134z" />
    <glyph glyph-name="afii10034" unicode="&#x420;" horiz-adv-x="1018" 
d="M1057 1095q0 -128 -50.5 -231t-171 -168t-317.5 -65h-201l-134 -631h-134l312 1466h256q141 0 240 -46t149.5 -130t50.5 -195zM342 748h184q199 0 296.5 89.5t97.5 243.5q0 128 -78 198t-237 70h-135z" />
    <glyph glyph-name="afii10035" unicode="&#x421;" horiz-adv-x="1133" 
d="M1153 1062l-136 -31q-2 172 -69 260t-191 88q-122 0 -211 -64t-153 -203.5t-111 -371.5q-32 -159 -32 -285q0 -185 70.5 -276.5t201.5 -91.5q130 0 225.5 92.5t170.5 309.5l123 -25q-80 -249 -205 -369t-313 -120q-205 0 -307 126t-102 357q0 123 31 283q48 241 120 404
t195 254.5t307 91.5q175 0 276.5 -110t109.5 -319z" />
    <glyph glyph-name="afii10036" unicode="&#x422;" horiz-adv-x="916" 
d="M697 1344l-286 -1344h-134l286 1344h-350l26 122h836l-26 -122h-352z" />
    <glyph glyph-name="afii10037" unicode="&#x423;" horiz-adv-x="997" 
d="M445 227q-55 -93 -96.5 -145.5t-91 -79.5t-116.5 -27q-37 0 -62.5 5.5t-53.5 15.5l26 123q47 -25 93 -25q36 0 65 17t61 58t78 122l90 155l-199 1020h135l154 -864l499 864h149z" />
    <glyph glyph-name="afii10038" unicode="&#x424;" horiz-adv-x="1224" 
d="M601 173l-39 -183h-131l42 197q-108 25 -190 91t-127.5 164.5t-45.5 216.5q0 157 59 305.5t194 248t349 100.5l35 163h131l-38 -177q107 -25 189.5 -90.5t128.5 -162.5t46 -213q0 -160 -58.5 -309.5t-193.5 -249.5t-351 -101zM497 299l191 900q-165 -9 -263.5 -92
t-138 -202t-39.5 -248q0 -85 29.5 -159t86 -126t134.5 -73zM1067 835q0 89 -31.5 162t-88 121t-130.5 69l-192 -902q164 7 262.5 91t139 205.5t40.5 253.5z" />
    <glyph glyph-name="afii10039" unicode="&#x425;" horiz-adv-x="1024" 
d="M898 0h-138l-194 615q-10 32 -14 53q-6 -11 -36 -52l-465 -616h-156l605 780l-223 686h134l159 -493q16 -54 19 -70q17 26 49 67l378 496h155l-532 -677z" />
    <glyph glyph-name="afii10040" unicode="&#x426;" horiz-adv-x="1136" 
d="M999 122l-112 -528h-127l86 406h-797l312 1466h134l-286 -1344h533l286 1344h134l-286 -1344h123z" />
    <glyph glyph-name="afii10041" unicode="&#x427;" horiz-adv-x="1064" 
d="M655 0l132 621q-81 -49 -149.5 -73t-134.5 -24q-133 0 -210 71t-77 221q0 72 19 163l104 487h134l-103 -483q-17 -85 -17 -144q0 -98 40.5 -147t118.5 -49q152 0 300 95l155 728h134l-312 -1466h-134z" />
    <glyph glyph-name="afii10042" unicode="&#x428;" horiz-adv-x="1450" 
d="M49 0l312 1466h134l-286 -1344h362l286 1344h134l-286 -1344h362l286 1344h134l-312 -1466h-1126z" />
    <glyph glyph-name="afii10043" unicode="&#x429;" horiz-adv-x="1464" 
d="M1327 122l-112 -528h-127l86 406h-1125l312 1466h134l-286 -1344h362l286 1344h134l-286 -1344h362l286 1344h134l-286 -1344h126z" />
    <glyph glyph-name="afii10044" unicode="&#x42a;" horiz-adv-x="1070" 
d="M968 473q0 -116 -45 -225t-159.5 -178.5t-298.5 -69.5h-336l286 1344h-202l26 122h336l-132 -621h114q125 0 218 -43t143 -126.5t50 -202.5zM831 467q0 135 -73 195.5t-217 60.5h-124l-128 -601h154q196 0 292 85.5t96 259.5z" />
    <glyph glyph-name="afii10045" unicode="&#x42b;" horiz-adv-x="1378" 
d="M495 1466l-132 -621h94q122 0 212.5 -43t139.5 -126.5t49 -202.5q0 -115 -42.5 -221t-152 -179t-298.5 -73h-316l312 1466h134zM969 0l312 1466h134l-312 -1466h-134zM343 122q192 0 285 85t93 260q0 135 -70.5 195.5t-209.5 60.5h-104l-128 -601h134z" />
    <glyph glyph-name="afii10046" unicode="&#x42c;" horiz-adv-x="990" 
d="M495 1466l-132 -621h114q125 0 218 -43t143 -126.5t50 -202.5q0 -114 -43 -220.5t-155.5 -179.5t-304.5 -73h-336l312 1466h134zM363 122q197 0 292.5 85t95.5 260q0 135 -73 195.5t-217 60.5h-124l-128 -601h154z" />
    <glyph glyph-name="afii10047" unicode="&#x42d;" horiz-adv-x="1133" 
d="M1111 1025q0 -129 -33 -284q-54 -253 -126 -418t-191.5 -256.5t-301.5 -91.5q-114 0 -201.5 48.5t-136.5 145.5t-49 237q0 18 2 58l133 25l-1 -35q0 -192 70.5 -279.5t188.5 -87.5q117 0 203.5 64.5t149.5 197.5t111 346h-430l26 125h430q21 123 21 216q0 177 -68 260
t-192 83q-95 0 -164.5 -38t-122 -113.5t-101.5 -196.5l-122 31q63 150 131 242.5t159 139.5t218 47q199 0 298 -122.5t99 -343.5z" />
    <glyph glyph-name="afii10048" unicode="&#x42e;" horiz-adv-x="1501" 
d="M1473 1044q0 -132 -32 -310q-60 -327 -155.5 -503t-240.5 -231q-74 -28 -166 -28q-189 0 -277.5 120t-88.5 340q0 110 22 251h-207l-145 -683h-134l312 1466h134l-141 -664h203q48 230 117.5 382t173.5 231t249 79q191 0 283.5 -112t92.5 -338zM1338 1049q0 173 -59 253
t-175 80q-102 0 -179.5 -61.5t-138.5 -205.5t-106 -390q-32 -181 -32 -303q0 -164 56.5 -251t180.5 -87t204.5 81.5t129 224t88.5 362.5q31 173 31 297z" />
    <glyph glyph-name="afii10049" unicode="&#x42f;" horiz-adv-x="1046" 
d="M771 0h-134l144 677h-85q-117 0 -191 -40.5t-124.5 -110t-131.5 -214.5l-174 -312h-158l207 354q77 131 122.5 198t100.5 112t123 55q-110 33 -175 116t-65 198q0 216 121.5 324.5t374.5 108.5h357zM924 1349h-205q-183 0 -267 -74.5t-84 -235.5q0 -120 83 -183t218 -63
h137z" />
    <glyph glyph-name="afii10065" unicode="&#x430;" horiz-adv-x="789" 
d="M722 844q0 -52 -14 -119l-94 -444q-21 -99 -21 -147q0 -30 5 -60t17 -74h-124q-13 42 -13 86q0 16 1 24q-52 -68 -110.5 -101.5t-128.5 -33.5q-76 0 -126.5 33.5t-75 86t-24.5 108.5q0 105 41.5 178t117.5 121t192 84q159 51 216 84l12 52q15 63 15 113q0 73 -33.5 114.5
t-106.5 41.5q-49 0 -85.5 -17.5t-66.5 -63t-55 -127.5l-112 17q44 144 122.5 215t202.5 71q123 0 185.5 -62.5t62.5 -179.5zM402 505q-86 -30 -142.5 -63t-90.5 -86.5t-34 -133.5q0 -61 31.5 -103.5t98.5 -42.5q52 0 102 33.5t91 102.5t63 171l39 186q-52 -27 -158 -64z" />
    <glyph glyph-name="afii10066" unicode="&#x431;" horiz-adv-x="914" 
d="M820 1357h-116q-108 0 -183.5 -52t-130.5 -155.5t-106 -274.5l3 -2q122 185 301 185q123 0 192.5 -81t69.5 -242q0 -99 -26 -217q-40 -191 -97 -309t-141.5 -176t-206.5 -58q-290 0 -290 367q0 140 41 330q59 280 135 452.5t184.5 257t263.5 84.5h126q28 0 38 8.5
t13 25.5h100q-8 -72 -51 -107.5t-119 -35.5zM237 590q-34 -161 -34 -267q0 -250 176 -250q83 0 142 44.5t102.5 141.5t77.5 259q26 120 26 212q0 117 -43 173.5t-123 56.5q-76 0 -141 -46t-112.5 -129.5t-70.5 -194.5z" />
    <glyph glyph-name="afii10067" unicode="&#x432;" horiz-adv-x="843" 
d="M762 828q0 -34 -8 -77q-12 -65 -54 -123.5t-106 -83.5q50 -27 77 -74.5t27 -114.5q0 -34 -10 -84q-27 -127 -111.5 -199t-260.5 -72h-284l226 1062h247q125 0 191 -62.5t66 -171.5zM278 593h150q170 0 205 167q7 31 7 60q0 71 -41 109t-115 38h-126zM172 95h156
q80 0 128.5 24.5t72.5 64.5t36 98q8 35 8 71q0 72 -39.5 108.5t-112.5 36.5h-163z" />
    <glyph glyph-name="afii10068" unicode="&#x433;" horiz-adv-x="641" 
d="M355 953l-203 -953h-120l226 1062h446l-23 -109h-326z" />
    <glyph glyph-name="afii10069" unicode="&#x434;" horiz-adv-x="945" 
d="M389 1062h504l-203 -953h110l-97 -459h-120l74 350h-600l-74 -350h-120l97 459h91q125 215 200.5 439.5t137.5 513.5zM485 953q-117 -511 -308 -844h393l180 844h-265z" />
    <glyph glyph-name="afii10070" unicode="&#x435;" horiz-adv-x="839" 
d="M805 786q0 -82 -22 -183l-19 -89h-558q-23 -120 -23 -199q0 -239 182 -239q91 0 150 66t98 204l111 -19q-52 -181 -136.5 -266.5t-227.5 -85.5q-148 0 -222.5 86t-74.5 254q0 105 28 236q40 191 99 308.5t140.5 172t192.5 54.5q131 0 206.5 -73t75.5 -227zM227 617h436
q23 99 23 175q0 101 -43.5 148.5t-127.5 47.5q-91 0 -148 -57t-85 -131t-55 -183z" />
    <glyph glyph-name="afii10072" unicode="&#x436;" horiz-adv-x="1218" 
d="M837 337q-17 62 -38.5 97t-54 50t-82.5 15l-106 -499h-120l106 499q-54 0 -88.5 -14.5t-64 -46.5t-76.5 -101l-233 -337h-143l276 395q50 72 96.5 112.5t110.5 49.5q-38 25 -55.5 60.5t-29.5 106.5l-24 133q-8 44 -22 66t-31.5 28t-44.5 6h-37l22 105h56q74 0 110 -35
t50 -118l24 -130q13 -73 26 -108.5t35.5 -51.5t64.5 -16l98 459h120l-98 -459q44 0 69 11t42.5 34.5t50.5 79.5l108 181q37 61 65 92t65 46t96 15h66l-22 -105h-37q-31 0 -48.5 -6t-36.5 -26.5t-47 -67.5l-93 -154q-31 -52 -50 -79t-44.5 -48.5t-59.5 -30.5q54 -13 88 -50.5
t51 -99.5l108 -395h-129z" />
    <glyph glyph-name="afii10073" unicode="&#x437;" horiz-adv-x="797" 
d="M487 1086q85 0 145 -33t90 -89t30 -124q0 -87 -48.5 -168t-157.5 -123q115 -60 115 -210q0 -82 -32.5 -165t-110 -140.5t-201.5 -57.5q-130 0 -205 68.5t-92 205.5l121 23q12 -104 56.5 -150.5t121.5 -46.5q79 0 128 41t69.5 99.5t20.5 116.5q0 75 -36.5 120t-112.5 45
h-103l23 109h106q73 0 121.5 34t71 85.5t22.5 105.5q0 67 -36 110.5t-110 43.5q-62 0 -114 -41.5t-100 -145.5l-102 37q50 120 125 185t195 65z" />
    <glyph glyph-name="afii10074" unicode="&#x438;" horiz-adv-x="931" 
d="M192 214l576 848h131l-226 -1062h-115l181 848l-576 -848h-131l226 1062h115z" />
    <glyph glyph-name="afii10075" unicode="&#x439;" horiz-adv-x="931" 
d="M192 214l576 848h131l-226 -1062h-115l181 848l-576 -848h-131l226 1062h115zM477 1432q0 -59 36.5 -94t96.5 -35q70 0 108 33.5t65 112.5h100q-31 -113 -99.5 -175t-180.5 -62q-66 0 -117 26.5t-79.5 74.5t-28.5 111q0 16 1 25h99z" />
    <glyph glyph-name="afii10076" unicode="&#x43a;" horiz-adv-x="824" 
d="M793 957q-32 0 -49.5 -6.5t-35 -27.5t-45.5 -69l-76 -135q-30 -53 -51.5 -83t-49.5 -51.5t-70 -36.5q54 -13 87 -51.5t50 -101.5l108 -395h-129l-89 337q-17 63 -39 97.5t-56.5 49.5t-89.5 15l-106 -499h-120l226 1062h120l-98 -459q56 0 87.5 15t54.5 46.5t68 112.5
l74 132q35 63 60.5 93.5t61.5 45t100 14.5h66l-22 -105h-37z" />
    <glyph glyph-name="afii10077" unicode="&#x43b;" horiz-adv-x="934" 
d="M676 0h-120l203 953h-336l-147 -690q-22 -105 -51.5 -166.5t-75.5 -90.5t-118 -29q-64 0 -106 20l44 107q11 -8 27.5 -13t34.5 -5q37 0 59.5 19t38.5 62t33 124l164 771h576z" />
    <glyph glyph-name="afii10078" unicode="&#x43c;" horiz-adv-x="1145" 
d="M772 0l188 886l-448 -886h-105l-72 886l-188 -886h-115l226 1062h169l67 -880l440 880h179l-226 -1062h-115z" />
    <glyph glyph-name="afii10079" unicode="&#x43d;" horiz-adv-x="931" 
d="M553 0l104 491h-401l-104 -491h-120l226 1062h120l-98 -462h401l98 462h120l-226 -1062h-120z" />
    <glyph glyph-name="afii10080" unicode="&#x43e;" 
d="M69 339q0 91 21 208q51 278 165.5 408.5t288.5 130.5q307 0 307 -347q0 -92 -21 -209q-52 -284 -158 -419.5t-286 -135.5q-150 0 -233.5 89t-83.5 275zM731 750q0 121 -45 179.5t-143 58.5q-122 0 -206 -111t-123 -325q-22 -120 -22 -210q0 -269 191 -269q123 0 204 116
t122 351q22 127 22 210z" />
    <glyph glyph-name="afii10081" unicode="&#x43f;" horiz-adv-x="921" 
d="M663 0h-120l203 953h-391l-203 -953h-120l226 1062h631z" />
    <glyph glyph-name="afii10082" unicode="&#x440;" horiz-adv-x="918" 
d="M860 772q0 -104 -30 -248q-44 -204 -103.5 -324.5t-135.5 -172.5t-176 -52q-84 0 -146.5 39t-88.5 117l-114 -538h-120l312 1469h120l-26 -122q55 75 116.5 110.5t137.5 35.5q124 0 189 -77.5t65 -236.5zM268 550q-27 -132 -27 -226q0 -118 42 -184t131 -66q91 0 150 74
t88.5 168.5t57.5 226.5q30 138 30 232q0 213 -153 213q-226 0 -319 -438z" />
    <glyph glyph-name="afii10083" unicode="&#x441;" horiz-adv-x="795" 
d="M761 789q0 -25 -1 -39l-119 -26q3 35 3 64q0 104 -36.5 151.5t-115.5 48.5q-76 0 -127 -51.5t-85.5 -145.5t-67.5 -246q-30 -137 -30 -239q0 -109 37 -170.5t115 -61.5q58 0 100 28t74.5 90.5t62.5 169.5l112 -20q-37 -127 -82.5 -207t-110.5 -120.5t-157 -40.5
q-128 0 -200 79t-72 250q0 103 30 247q38 181 87 296.5t126.5 177.5t195.5 62q128 0 194.5 -70.5t66.5 -226.5z" />
    <glyph glyph-name="afii10084" unicode="&#x442;" horiz-adv-x="660" 
d="M480 953l-203 -953h-120l203 953h-208l23 109h536l-23 -109h-208z" />
    <glyph glyph-name="afii10085" unicode="&#x443;" horiz-adv-x="793" 
d="M1 -431q-35 0 -66.5 6t-70.5 21l46 114q52 -23 94 -23q37 0 63.5 20t56.5 77l115 220l-123 1058h115l100 -888l456 888h119l-664 -1290q-38 -73 -71 -116t-73.5 -65t-96.5 -22z" />
    <glyph glyph-name="afii10086" unicode="&#x444;" horiz-adv-x="1326" 
d="M1271 790q0 -110 -31 -256q-44 -208 -101 -330.5t-129 -175.5t-167 -53q-75 0 -128.5 37t-78.5 109l-112 -528h-120l112 528q-49 -74 -107.5 -110t-132.5 -36q-107 0 -163.5 75t-56.5 225q0 111 31 257q38 178 84 296.5t121.5 188t188.5 69.5q75 0 129.5 -37t79.5 -109
l112 526h120l-112 -526q53 75 111 110.5t133 35.5q104 0 160.5 -73.5t56.5 -222.5zM609 561q25 115 25 203q0 109 -36.5 166.5t-104.5 57.5q-98 0 -164.5 -106.5t-112.5 -324.5q-38 -176 -38 -287q0 -196 120 -196q104 0 179.5 110.5t131.5 376.5zM1123 566q27 128 27 217
q0 101 -32 153t-93 52q-205 0 -295 -426q-39 -183 -39 -289q0 -100 34.5 -149.5t108.5 -49.5q86 0 142.5 75t86 173t60.5 244z" />
    <glyph glyph-name="afii10087" unicode="&#x445;" horiz-adv-x="816" 
d="M693 0h-120l-152 387l-21 58l-50 -62l-316 -383h-137l449 539l-210 523h122l137 -350q18 -43 31 -80l64 79l286 351h139l-437 -523z" />
    <glyph glyph-name="afii10088" unicode="&#x446;" horiz-adv-x="933" 
d="M788 109l-97 -459h-120l74 350h-613l226 1062h120l-203 -953h383l203 953h120l-203 -953h110z" />
    <glyph glyph-name="afii10089" unicode="&#x447;" horiz-adv-x="884" 
d="M506 0l98 460q-62 -42 -115 -63.5t-123 -21.5q-101 0 -163.5 57.5t-62.5 169.5q0 47 12 104l76 356h120l-75 -350q-10 -44 -10 -83q0 -72 35.5 -106.5t95.5 -34.5q51 0 118.5 23.5t114.5 56.5l105 494h120l-226 -1062h-120z" />
    <glyph glyph-name="afii10090" unicode="&#x448;" horiz-adv-x="1327" 
d="M32 0l226 1062h120l-203 -953h339l203 953h120l-203 -953h338l203 953h120l-226 -1062h-1037z" />
    <glyph glyph-name="afii10091" unicode="&#x449;" horiz-adv-x="1347" 
d="M1202 109l-97 -459h-121l74 350h-1026l226 1062h120l-203 -953h339l203 953h120l-203 -953h338l203 953h120l-203 -953h110z" />
    <glyph glyph-name="afii10092" unicode="&#x44a;" horiz-adv-x="959" 
d="M820 370q0 -177 -91.5 -273.5t-270.5 -96.5h-278l203 953h-223l23 109h343l-93 -438h111q134 0 205 -68t71 -186zM696 358q0 82 -40.5 121.5t-122.5 39.5h-123l-88 -414h137q237 0 237 253z" />
    <glyph glyph-name="afii10093" unicode="&#x44b;" horiz-adv-x="1160" 
d="M652 370q0 -177 -91.5 -273.5t-270.5 -96.5h-258l226 1062h120l-93 -438h91q134 0 205 -68t71 -186zM902 0h-119l226 1062h119zM291 105q237 0 237 253q0 82 -40.5 121.5t-122.5 39.5h-103l-88 -414h117z" />
    <glyph glyph-name="afii10094" unicode="&#x44c;" horiz-adv-x="811" 
d="M672 370q0 -175 -91 -272.5t-271 -97.5h-278l226 1062h120l-93 -438h111q134 0 205 -68t71 -186zM311 105q237 0 237 253q0 82 -40.5 121.5t-122.5 39.5h-123l-88 -414h137z" />
    <glyph glyph-name="afii10095" unicode="&#x44d;" horiz-adv-x="814" 
d="M758 770q0 -95 -26 -220q-46 -219 -99 -342t-130 -178.5t-197 -55.5q-78 0 -141.5 34t-100.5 101.5t-37 163.5q0 29 5 69l120 20q-6 -45 -6 -81q0 -102 42.5 -154.5t118.5 -52.5q88 0 142.5 51t85 136.5t61.5 229.5h-284l24 109h283q22 112 22 189q0 97 -36.5 148
t-117.5 51q-56 0 -97.5 -21t-79.5 -78t-74 -165l-107 26q42 121 89 193.5t111.5 107.5t156.5 35q138 0 205 -81t67 -235z" />
    <glyph glyph-name="afii10096" unicode="&#x44e;" horiz-adv-x="1228" 
d="M1160 738q0 -88 -20 -210q-49 -283 -150.5 -418t-273.5 -135q-137 0 -216.5 87.5t-79.5 279.5q0 63 11 149h-175l-104 -491h-120l226 1062h120l-98 -462h170q52 250 159 368t265 118q143 0 214.5 -86t71.5 -262zM1038 749q0 122 -39.5 180.5t-125.5 58.5
q-115 0 -194 -111t-115 -325q-19 -120 -19 -211q0 -268 168 -268q116 0 192 116t114 349q19 120 19 211z" />
    <glyph glyph-name="afii10097" unicode="&#x44f;" horiz-adv-x="828" 
d="M450 0l97 457h-47q-36 0 -64 -11t-62 -45t-81 -104l-199 -297h-143l230 333q39 57 60 84.5t45.5 45t57.5 25.5q-83 20 -133.5 87t-50.5 154q0 90 35.5 165t119.5 121.5t217 46.5h264l-226 -1062h-120zM285 731q0 -46 21 -84.5t61.5 -61.5t96.5 -23h106l84 395h-125
q-132 0 -188 -60.5t-56 -165.5z" />
    <glyph glyph-name="afii10071" unicode="&#x451;" horiz-adv-x="839" 
d="M805 786q0 -82 -22 -183l-19 -89h-558q-23 -120 -23 -199q0 -239 182 -239q91 0 150 66t98 204l111 -19q-52 -181 -136.5 -266.5t-227.5 -85.5q-148 0 -222.5 86t-74.5 254q0 105 28 236q40 191 99 308.5t140.5 172t192.5 54.5q131 0 206.5 -73t75.5 -227zM227 617h436
q23 99 23 175q0 101 -43.5 148.5t-127.5 47.5q-91 0 -148 -57t-85 -131t-55 -183zM474 1212h-124l37 174h124zM783 1212h-123l37 174h123z" />
    <glyph glyph-name="afii10099" unicode="&#x452;" horiz-adv-x="921" 
d="M842 846q0 -54 -15 -124l-176 -826q-24 -113 -51.5 -181.5t-76 -107t-129.5 -38.5q-45 0 -84 10l44 107q14 -5 34 -5q48 0 71.5 16t35.5 49t28 113l182 854q14 62 14 118q0 155 -133 155q-103 0 -181.5 -85.5t-117.5 -264.5l-135 -636h-120l258 1212h-103l21 102h104
l32 152h120l-32 -152h249l-21 -102h-250l-55 -259q59 68 121 100.5t138 32.5q107 0 167.5 -61.5t60.5 -178.5z" />
    <glyph glyph-name="afii10100" unicode="&#x453;" horiz-adv-x="641" 
d="M355 953l-203 -953h-120l226 1062h446l-23 -109h-326zM435 1201l133 260h190l-225 -260h-98z" />
    <glyph glyph-name="afii10101" unicode="&#x454;" horiz-adv-x="815" 
d="M642 765q0 128 -37.5 175.5t-102.5 47.5q-104 0 -167.5 -96.5t-109.5 -291.5h284l-24 -109h-284q-19 -108 -19 -188q0 -108 34.5 -168.5t107.5 -60.5q88 0 145.5 66t101.5 222l112 -20q-55 -189 -139 -278.5t-221 -89.5q-122 0 -192 78.5t-70 248.5q0 104 30 249
q38 179 89 295t131.5 178.5t198.5 62.5q126 0 188 -76.5t62 -259.5l-119 -26q1 14 1 41z" />
    <glyph glyph-name="afii10102" unicode="&#x455;" horiz-adv-x="791" 
d="M638 826q0 71 -46 117t-128 46q-61 0 -104 -24t-65 -63.5t-22 -85.5q0 -51 23 -89.5t57.5 -66t94.5 -65.5q72 -46 115.5 -82.5t74 -93.5t30.5 -138q0 -75 -35.5 -145t-114 -115.5t-200.5 -45.5q-106 0 -176.5 33.5t-104.5 91.5t-34 131q0 23 1 35l122 21q-1 -10 -1 -30
q0 -87 50 -136t147 -49q70 0 120.5 26.5t77 71t26.5 97.5q0 57 -24 99t-60 70.5t-97 67.5q-69 45 -110 79.5t-70 88.5t-29 130q0 75 36.5 140t108 104.5t172.5 39.5q85 0 149.5 -31t100 -87.5t35.5 -130.5q0 -22 -1 -34l-122 -16q3 20 3 39z" />
    <glyph glyph-name="afii10103" unicode="&#x456;" horiz-adv-x="409" 
d="M305 1283l39 183h119l-39 -183h-119zM32 0l226 1062h119l-226 -1062h-119z" />
    <glyph glyph-name="afii10104" unicode="&#x457;" horiz-adv-x="409" 
d="M151 0h-119l226 1062h119zM256 1212h-124l37 174h124zM565 1212h-123l37 174h123z" />
    <glyph glyph-name="afii10105" unicode="&#x458;" horiz-adv-x="428" 
d="M323 1282l39 184h120l-39 -184h-120zM-128 -431q-37 0 -74 10l33 107q20 -5 38 -5q44 0 72.5 20t48.5 65t37 125l249 1171h120l-248 -1166q-24 -113 -52.5 -181t-81.5 -107t-142 -39z" />
    <glyph glyph-name="afii10106" unicode="&#x459;" horiz-adv-x="1265" 
d="M1126 370q0 -175 -91 -272.5t-271 -97.5h-258l203 953h-286l-147 -690q-22 -105 -51.5 -166.5t-75.5 -90.5t-118 -29q-64 0 -106 20l44 107q11 -8 27.5 -13t34.5 -5q37 0 59.5 19t38.5 62t33 124l164 771h526l-93 -438h91q134 0 205 -68t71 -186zM1002 358
q0 82 -40.5 121.5t-122.5 39.5h-103l-88 -414h117q237 0 237 253z" />
    <glyph glyph-name="afii10107" unicode="&#x45a;" horiz-adv-x="1252" 
d="M1113 370q0 -174 -90 -272t-272 -98h-258l110 519h-341l-110 -519h-120l226 1062h120l-93 -438h341l93 438h120l-93 -438h91q134 0 205 -68t71 -186zM989 358q0 82 -40.5 121.5t-122.5 39.5h-103l-88 -414h117q237 0 237 253z" />
    <glyph glyph-name="afii10108" unicode="&#x45b;" horiz-adv-x="921" 
d="M842 846q0 -53 -15 -124l-154 -722h-120l152 713q14 62 14 118q0 155 -133 155q-100 0 -180 -84.5t-119 -265.5l-135 -636h-120l258 1212h-103l21 102h104l32 152h120l-32 -152h249l-21 -102h-250l-55 -259q59 68 121 100.5t138 32.5q100 0 164 -58.5t64 -181.5z" />
    <glyph glyph-name="afii10109" unicode="&#x45c;" horiz-adv-x="824" 
d="M793 957q-32 0 -49.5 -6.5t-35 -27.5t-45.5 -69l-76 -135q-30 -53 -51.5 -83t-49.5 -51.5t-70 -36.5q54 -13 87 -51.5t50 -101.5l108 -395h-129l-89 337q-17 63 -39 97.5t-56.5 49.5t-89.5 15l-106 -499h-120l226 1062h120l-98 -459q56 0 87.5 15t54.5 46.5t68 112.5
l74 132q35 63 60.5 93.5t61.5 45t100 14.5h66l-22 -105h-37zM481 1201l133 260h190l-225 -260h-98z" />
    <glyph glyph-name="afii10110" unicode="&#x45e;" horiz-adv-x="793" 
d="M1 -431q-35 0 -66.5 6t-70.5 21l46 114q52 -23 94 -23q37 0 63.5 20t56.5 77l115 220l-123 1058h115l100 -888l456 888h119l-664 -1290q-38 -73 -71 -116t-73.5 -65t-96.5 -22zM412 1432q0 -59 36.5 -94t96.5 -35q70 0 108 33.5t65 112.5h100q-31 -113 -99.5 -175
t-180.5 -62q-66 0 -117 26.5t-79.5 74.5t-28.5 111q0 16 1 25h99z" />
    <glyph glyph-name="afii10193" unicode="&#x45f;" horiz-adv-x="920" 
d="M407 0l-74 -350h-120l74 350h-255l226 1062h120l-203 -953h390l203 953h120l-226 -1062h-255z" />
    <glyph glyph-name="afii10050" unicode="&#x490;" horiz-adv-x="815" 
d="M948 1344h-479l-286 -1344h-134l312 1466h486l86 406h127z" />
    <glyph glyph-name="afii10098" unicode="&#x491;" horiz-adv-x="641" 
d="M681 953h-326l-203 -953h-120l226 1062h326l86 404h120z" />
    <glyph glyph-name="afii61352" unicode="&#x2116;" horiz-adv-x="1591" 
d="M571 0l-155 1170l-249 -1170h-118l312 1466h134l154 -1177l251 1177h118l-312 -1466h-135zM1499 842q0 -83 -24 -197q-43 -201 -126.5 -298.5t-201.5 -97.5q-107 0 -156.5 57t-49.5 174q0 88 28 220q42 198 124 291.5t197 93.5q104 0 156.5 -60t52.5 -183zM1080 655
q-24 -112 -24 -179q0 -65 23 -93.5t71 -28.5q53 0 90 31.5t66 102t54 190.5q23 110 23 175q0 66 -24 96.5t-76 30.5q-47 0 -82 -28.5t-64.5 -99t-56.5 -197.5zM851 0l24 110h456l-24 -110h-456z" />
    <glyph glyph-name="uni0496" unicode="&#x496;" horiz-adv-x="1497" 
d="M1547 1347h-49q-30 0 -51.5 -13.5t-38.5 -38t-57 -94.5l-62 -108q-86 -153 -112 -193.5t-55 -70.5t-65 -46l-1 -4q41 -16 67.5 -50.5t47.5 -100.5t43 -183l60 -323h106l-112 -528h-126l86 406h-74l-66 406q-21 132 -45 198t-62 92.5t-107 26.5h-28l-154 -723h-134
l154 723h-28q-78 0 -125.5 -25t-92 -87t-124.5 -205l-228 -406h-161l264 445q76 127 120.5 191.5t88.5 102.5t104 60l1 4q-30 18 -46.5 50t-27.5 82t-28 158l-17 108q-13 85 -31 115.5t-56 30.5h-49l26 119h57q55 0 88.5 -22.5t52.5 -70.5t32 -132l18 -114
q23 -154 36 -199.5t39 -65.5t86 -20h26l133 624h134l-133 -624h25q57 0 90.5 18.5t62 61.5t117.5 205l63 114q50 90 83.5 135.5t73.5 67.5t99 22h88z" />
    <glyph glyph-name="uni0497" unicode="&#x497;" horiz-adv-x="1262" 
d="M1224 957h-37q-31 0 -48.5 -6t-36.5 -26.5t-47 -67.5l-93 -154q-31 -52 -50 -79t-44.5 -48.5t-59.5 -30.5q54 -13 88 -50.5t51 -99.5l78 -286h93l-98 -459h-120l75 350h-49l-89 337q-17 62 -38.5 97t-54 50t-82.5 15l-106 -499h-120l106 499q-54 0 -88.5 -14.5t-64 -46.5
t-76.5 -101l-233 -337h-143l276 395q50 72 96.5 112.5t110.5 49.5q-38 25 -55.5 60.5t-29.5 106.5l-24 133q-8 44 -22 66t-31.5 28t-44.5 6h-37l22 105h56q74 0 110 -35t50 -118l24 -130q13 -73 26 -108.5t35.5 -51.5t64.5 -16l98 459h120l-98 -459q44 0 69 11t42.5 34.5
t50.5 79.5l108 181q37 61 65 92t65 46t96 15h66z" />
    <glyph glyph-name="uni049A" unicode="&#x49a;" horiz-adv-x="1032" 
d="M1089 1347h-36q-41 0 -64.5 -12.5t-41.5 -35t-44 -72.5l-76 -134q-65 -115 -97 -166t-67.5 -86.5t-82.5 -52.5l-1 -4q45 -21 73 -57t48.5 -100t45.5 -182l68 -323h101l-112 -528h-126l86 406h-66l-82 405q-28 140 -50 202.5t-59 89t-109 26.5h-60l-154 -723h-134
l312 1466h134l-133 -624h57q56 0 94.5 22t79.5 80t109 183l62 114q53 97 83.5 139t76.5 64t127 22h64z" />
    <glyph glyph-name="uni049B" unicode="&#x49b;" horiz-adv-x="867" 
d="M830 957h-37q-32 0 -49.5 -6.5t-35 -27.5t-45.5 -69l-76 -135q-30 -53 -51.5 -83t-49.5 -51.5t-70 -36.5q54 -13 87 -51.5t50 -101.5l78 -286h92l-98 -459h-120l75 350h-48l-89 337q-17 63 -39 97.5t-56.5 49.5t-89.5 15l-106 -499h-120l226 1062h120l-98 -459
q56 0 87.5 15t54.5 46.5t68 112.5l74 132q35 63 59.5 93.5t61.5 45t101 14.5h66z" />
    <glyph glyph-name="uni04B0" unicode="&#x4b0;" horiz-adv-x="1024" 
d="M885 726l-23 -110h-276l-131 -616h-134l131 616h-275l23 110h227l-213 740h140l140 -505l54 -200l137 194l369 511h154l-548 -740h225z" />
    <glyph glyph-name="uni04B1" unicode="&#x4b1;" horiz-adv-x="789" 
d="M597 102l-22 -102h-236l-86 -406h-120l86 406h-237l22 102h209l-100 960h113l77 -747q10 -85 12 -136l71 136l398 747h118l-508 -960h203z" />
    <glyph glyph-name="uni04B2" unicode="&#x4b2;" horiz-adv-x="1101" 
d="M984 122l-112 -528h-126l86 406h-72l-194 615q-10 32 -14 53q-6 -11 -36 -52l-465 -616h-156l605 780l-223 686h134l159 -493q16 -54 19 -70q17 26 49 67l378 496h155l-532 -677l219 -667h126z" />
    <glyph glyph-name="uni04B3" unicode="&#x4b3;" horiz-adv-x="886" 
d="M742 109l-98 -459h-120l75 350h-26l-152 387l-21 58l-50 -62l-316 -383h-137l449 539l-210 523h122l137 -350q18 -43 31 -80l64 79l286 351h139l-437 -523l172 -430h92z" />
    <glyph glyph-name="uni04B6" unicode="&#x4b6;" horiz-adv-x="1077" 
d="M940 122l-112 -528h-126l86 406h-133l132 621q-81 -49 -149.5 -73t-134.5 -24q-126 0 -206.5 67.5t-80.5 224.5q0 72 19 163l104 487h134l-103 -483q-17 -85 -17 -144q0 -98 40.5 -147t118.5 -49q152 0 300 95l155 728h134l-286 -1344h125z" />
    <glyph glyph-name="uni04B7" unicode="&#x4b7;" horiz-adv-x="902" 
d="M758 109l-98 -459h-121l75 350h-108l98 460q-62 -42 -115 -63.5t-123 -21.5q-101 0 -163.5 56.5t-62.5 170.5q0 47 12 104l76 356h120l-75 -350q-10 -44 -10 -83q0 -73 35.5 -107t95.5 -34q51 0 118.5 23.5t114.5 56.5l105 494h120l-203 -953h109z" />
    <glyph glyph-name="glyph497" horiz-adv-x="512" 
d="M-281 -55h-99l1089 1546h98z" />
    <glyph glyph-name="afii00208" unicode="&#x2015;" horiz-adv-x="1764" 
d="M-18 466l20 92h1772l-20 -92h-1772z" />
    <glyph glyph-name="uni0E3F" unicode="&#xe3f;" 
d="M659 759q134 -75 134 -264q0 -65 -19 -158q-20 -91 -70 -166t-134.5 -121.5t-200.5 -49.5l-44 -206h-73l44 206h-252l308 1448h252l32 151h73l-33 -153q105 -11 162.5 -80t57.5 -188q0 -63 -14 -127q-22 -102 -78 -178.5t-145 -113.5zM467 805l114 534h-129l-114 -535z
M768 1102q7 34 7 70q0 66 -29 109t-93 54l-112 -527q87 11 145 85.5t82 208.5zM444 695h-129l-125 -586h129zM671 501q0 90 -39.5 140t-115.5 54l-124 -585q108 6 173.5 75t94.5 213q11 52 11 103z" />
    <glyph glyph-name="franc" unicode="&#x20a3;" 
d="M417 812h405l-22 -100h-405l-49 -230h357l-19 -89l-357 1l-83 -394h-115l84 394h-169l19 88h169l205 966h620l-21 -100h-505z" />
    <glyph glyph-name="lira" unicode="&#x20a4;" 
d="M956 1213q0 -45 -7 -90l-118 -20q10 54 10 102q0 95 -45.5 141t-142.5 46q-106 0 -172 -67.5t-90 -180.5q-12 -57 -12 -126q0 -51 7 -123h292l-22 -106h-260q4 -41 4 -95q0 -32 -1 -49h226l-22 -106h-215q-15 -85 -42.5 -147t-77 -120.5t-135.5 -133.5q47 11 73.5 15
t56.5 4q41 0 73.5 -9t73.5 -26t73 -25.5t72 -8.5q38 0 91 17t106 46l21 -106q-67 -35 -128 -52.5t-111 -17.5q-43 0 -80 10.5t-86 31.5q-51 21 -84.5 30.5t-71.5 9.5q-96 0 -231 -78l-28 104q109 74 174.5 145t99.5 145t49 166h-226l22 106h213q1 46 -7 144h-175l22 106h144
q-4 66 -4 101q0 90 17 175q19 87 67 159.5t128.5 116.5t189.5 44q143 0 216 -71t73 -207z" />
    <glyph glyph-name="peseta" unicode="&#x20a7;" horiz-adv-x="1608" 
d="M831 1137q0 -50 -11 -110q-2 -10 -4 -18.5l-4 -16.5h76l56 265l135 76l-72 -341h122l-19 -88h-122l-147 -690q-11 -53 -11 -82q0 -28 10 -41.5t33 -13.5q21 0 76 11l-6 -100q-32 -7 -53 -10t-44 -3q-68 0 -101 31t-33 104q0 49 15 121l142 673h-85q-50 -153 -156 -223
t-248 -70h-77l-130 -611h-124l308 1448h183q94 0 159.5 -39.5t98.5 -109.5t33 -162zM328 728h61q80 0 138.5 27.5t100.5 93.5t66 179q12 59 12 108q0 92 -44 143.5t-134 51.5h-72zM1569 799q0 -16 -4 -56l-110 -16q5 37 5 63q0 129 -97 129q-46 0 -76.5 -39.5t-42.5 -101.5
q-7 -37 -7 -56q0 -41 21 -75.5t74 -78.5q77 -68 111.5 -134t34.5 -140q0 -46 -10 -90q-23 -109 -90.5 -169t-171.5 -60q-116 0 -165 63t-49 171q0 29 3 57l114 21q-5 -42 -5 -69q0 -146 103 -146q61 0 97 36.5t51 108.5q8 35 8 68q0 47 -22 92t-76 93q-76 66 -108 122
t-32 122q0 42 10 86q21 95 81 155.5t160 60.5q94 0 143.5 -58t49.5 -159z" />
    <glyph glyph-name="uni20A0" unicode="&#x20a0;" horiz-adv-x="1083" 
d="M735 933l-72 -342h331l-23 -108h-331l-80 -375h383l-23 -108h-503l83 391q-42 -12 -86 -12q-130 0 -197.5 81.5t-67.5 244.5q0 107 30 248q35 162 100 277t154.5 175.5t194.5 60.5q113 0 178 -57t84 -155l-116 -45q-11 76 -49.5 114.5t-101.5 38.5q-109 0 -194.5 -111
t-129.5 -320q-27 -130 -27 -221q0 -115 42 -171t125 -56q40 0 85 20l114 538h483l-23 -108h-363z" />
    <glyph glyph-name="colonmonetary" unicode="&#x20a1;" 
d="M791 1265l-342 -1180q56 17 98 64t76.5 120.5t73.5 187.5l108 -24q-77 -225 -169 -336t-219 -121l-54 -185l-61 10l51 176q-51 5 -89 22l-61 -208l-61 10l68 233q-102 88 -102 316q0 160 52 409q70 326 188 508t277 198l39 134l61 -10l-36 -124q52 -5 90 -21l45 155
l61 -10l-52 -180q46 -44 66 -124.5t25 -210.5l-115 -21q0 149 -18 212zM382 75l367 1263q-32 27 -88 28l-367 -1263q36 -28 86 -28h2zM221 337q0 -104 27 -170l345 1190q-106 -36 -185 -204t-141 -463q-46 -217 -46 -353z" />
    <glyph glyph-name="uni20A2" unicode="&#x20a2;" 
d="M832 1099q0 142 -42 205t-127 63q-92 0 -165 -59t-135 -204t-116 -397q-48 -225 -48 -368q0 -109 28 -174t85 -88l166 784h110l-36 -169l2 1q53 98 102.5 145t104.5 47q31 0 54.5 -9.5t47.5 -33.5l-64 -110q-39 29 -74 29q-72 0 -134 -106.5t-99 -281.5l-64 -305
q184 35 294 387l108 -23q-80 -247 -188 -352t-260 -105q-150 0 -223.5 91t-73.5 285q0 164 50 398q82 382 213 549.5t315 167.5q145 0 215.5 -91t70.5 -302l-118 -23q1 17 1 49z" />
    <glyph glyph-name="uni20A5" unicode="&#x20a5;" horiz-adv-x="1377" 
d="M1304 867q0 -47 -12 -102l-163 -765h-120l161 754q10 47 10 88q0 72 -33 108.5t-94 36.5q-62 0 -118 -42t-97 -118t-61 -176l-139 -651h-109l-138 -381l-77 28l319 878l42 199q15 70 15 122q0 70 -30 105t-93 35q-61 0 -115.5 -40t-96.5 -115t-64 -178l-139 -653h-120
l226 1062h120l-23 -106q66 69 125 100t136 31q63 0 109.5 -31t67.5 -90l173 477l77 -28l-144 -395q86 67 182 67q102 0 162.5 -55t60.5 -165z" />
    <glyph glyph-name="uni20A6" unicode="&#x20a6;" 
d="M999 915l-20 -94h-106l-34 -156h106l-19 -94h-107l-121 -571h-130l-98 571h-247l-121 -571h-109l121 571h-105l19 94h106l34 156h-106l20 94h106l113 533h121l93 -533h269l113 533h109l-113 -533h106zM410 915l-49 287h-4l-61 -287h114zM427 821h-151l-33 -156h210z
M531 821l27 -156h172l33 156h-232zM575 571l58 -332h7l71 332h-136z" />
    <glyph glyph-name="uni20A8" unicode="&#x20a8;" horiz-adv-x="1357" 
d="M862 1184q0 -60 -16 -133q-31 -147 -105.5 -239.5t-190.5 -112.5q34 -20 54 -62t32 -111t21 -182l29 -344h-130l-26 351q-9 118 -24 184t-48 99t-94 33h-49l-142 -667h-124l308 1448h204q301 0 301 -264zM340 783h77q82 0 139 22.5t100.5 86.5t68.5 184q12 59 12 100
q0 92 -47 123.5t-127 31.5h-107zM1319 799q0 -16 -4 -56l-110 -16q5 37 5 63q0 129 -97 129q-46 0 -76.5 -39.5t-42.5 -101.5q-7 -37 -7 -56q0 -41 21 -75.5t74 -78.5q77 -68 111.5 -134t34.5 -140q0 -46 -10 -90q-23 -109 -90.5 -169t-171.5 -60q-116 0 -165 63t-49 171
q0 29 3 57l114 21q-5 -42 -5 -69q0 -146 103 -146q61 0 97 36.5t51 108.5q8 35 8 68q0 47 -22 92t-76 93q-76 66 -108 122t-32 122q0 42 10 86q21 95 80.5 155.5t160.5 60.5q94 0 143.5 -58t49.5 -159z" />
    <glyph glyph-name="uni20A9" unicode="&#x20a9;" horiz-adv-x="1343" 
d="M1415 915l-20 -94h-123l-62 -156h151l-19 -94h-169l-224 -571h-135l8 571h-288l-239 -571h-135l22 571h-163l19 94h147l6 156h-119l20 94h103l20 533h122l-28 -533h257l221 533h152l-7 -533h260l202 533h124l-209 -533h106zM826 915l5 364l-153 -364h148zM462 665l64 156
h-223l-8 -156h167zM825 821h-186l-65 -156h249zM931 821l-2 -156h168l59 156h-225zM290 571l-19 -366l152 366h-133zM928 571l-5 -366l139 366h-134z" />
    <glyph glyph-name="afii57636" unicode="&#x20aa;" horiz-adv-x="1176" 
d="M831 796q0 -61 -14 -124l-79 -372h-119l82 384q13 63 13 104q0 85 -50 125.5t-163 40.5h-182l-203 -954h-119l226 1061h297q154 0 232.5 -66.5t78.5 -198.5zM605 0h-329l162 761h119l-139 -654h182q131 0 207.5 63t106.5 207l146 684h119l-153 -721q-36 -169 -145 -254.5
t-276 -85.5z" />
    <glyph glyph-name="dong" unicode="&#x20ab;" 
d="M918 1216l-259 -1216h-120l26 120q-51 -72 -115.5 -108.5t-138.5 -36.5q-120 0 -186 80.5t-66 242.5q0 104 28 238q59 281 160 415.5t254 134.5q91 0 150.5 -41.5t85.5 -115.5l61 287h-229l19 93h230l33 157h120l-33 -157h121l-19 -93h-122zM679 746q0 120 -44 180
t-126 60q-108 0 -180 -108.5t-120 -348.5q-27 -135 -27 -228q0 -229 157 -229q106 0 184 110t125 328q31 137 31 236zM651 -169l-21 -102h-659l21 102h659z" />
    <glyph glyph-name="uni20AD" unicode="&#x20ad;" 
d="M908 1448h150l-507 -609h264l-21 -102h-272l236 -737h-136l-223 737h-19l-157 -737h-123l157 737h-132l21 102h132l130 609h123l-130 -609h8z" />
    <glyph glyph-name="uni20AE" unicode="&#x20ae;" 
d="M609 960l237 190l-24 -112l-237 -190l-44 -209l237 191l-24 -112l-237 -190l-112 -528h-119l88 412l-234 -188l24 112l234 188l44 208l-234 -188l24 112l234 188l105 495h-319l23 109h757l-23 -109h-319z" />
    <glyph glyph-name="uni20AF" unicode="&#x20af;" horiz-adv-x="1695" 
d="M1013 848q0 -291 -87.5 -481t-228 -278.5t-322.5 -88.5h-294l22 101q76 47 126 129.5t88.5 237t73.5 419.5l6 45q15 116 33.5 221t48.5 207q-106 -11 -168 -89t-101 -230l-108 32q44 179 142 282.5t270 110.5q61 156 143 221l64 -73q-49 -55 -88 -158q116 -25 201.5 -105
t132 -208.5t46.5 -294.5zM886 848q0 212 -74 343t-212 162q-29 -103 -46.5 -205t-37.5 -250l-3 -26q-34 -252 -66 -401t-66.5 -228.5t-82.5 -124.5h98q132 0 242.5 72t179 235.5t68.5 422.5zM1639 582q0 -151 -43 -291t-124.5 -228t-191.5 -88q-111 0 -156 81l-72 -462h-117
l135 865q28 178 74 284t108 151.5t145 45.5q114 0 178 -90.5t64 -267.5zM1512 579q0 252 -119 252q-76 0 -127 -98.5t-82 -312.5l-35 -240q16 -45 52 -70.5t79 -25.5q64 0 117 64.5t84 177.5t31 253z" />
    <glyph glyph-name="uni20B0" unicode="&#x20b0;" 
d="M909 1250q0 -51 -11 -101q-18 -82 -67.5 -173.5t-157.5 -218.5q53 -72 82 -139t29 -161q0 -66 -15 -136q-17 -80 -63.5 -159t-126 -133t-188.5 -54q-94 0 -153.5 23.5t-98.5 67.5l81 95q26 -36 66.5 -58.5t96.5 -22.5q68 0 123 35.5t92 96t53 135.5q11 48 11 97
q0 63 -18.5 116.5t-51.5 104.5l-218 -251l-73 196l-201 -283l-69 65l295 422l78 -215l126 153q-55 75 -84.5 146t-29.5 155q0 58 15 130q28 129 97 206t174 77q100 0 153.5 -56.5t53.5 -159.5zM789 1242q0 56 -24 85.5t-67 29.5q-59 0 -94 -47.5t-57 -150.5q-9 -46 -9 -87
q0 -62 18.5 -116t52.5 -108q86 103 121 175t50 144q9 42 9 75z" />
    <glyph glyph-name="uni20B1" unicode="&#x20b1;" 
d="M867 970q-6 -26 -10 -39h93l-20 -94h-108q-58 -121 -161.5 -193.5t-237.5 -72.5h-135l-122 -571h-118l178 837h-109l20 94h109l33 156h-109l20 94h109l57 267h191q159 0 240.5 -70.5t94.5 -196.5h121l-20 -94h-99q-5 -63 -17 -117zM753 1181q-13 73 -62.5 113t-136.5 40
h-104l-33 -153h336zM745 1018q8 40 11 69h-359l-33 -156h357q14 41 24 87zM680 837h-336l-32 -152h106q176 0 262 152z" />
    <glyph glyph-name="uni20B2" unicode="&#x20b2;" 
d="M836 716l-122 -576q-162 -161 -330 -165l-39 -182h-73l40 187q-108 19 -155.5 105t-47.5 235q0 166 59 443q71 337 184.5 512.5t274.5 189.5l29 134h73l-29 -136q113 -14 162 -105.5t49 -259.5l-112 -36q0 96 -9.5 157t-35.5 98t-75 46l-274 -1287q101 11 205 115l89 421
h-100l22 104h215zM224 321q0 -205 110 -239l272 1280q-101 -23 -180.5 -178t-143.5 -452q-27 -131 -42.5 -230.5t-15.5 -180.5z" />
    <glyph glyph-name="uni20B3" unicode="&#x20b3;" 
d="M724 535h138l-20 -94h-117l4 -441h-135l7 441h-321l-179 -441h-138l189 441h-114l20 94h134l66 156h-167l20 94h188l283 663h134l6 -663h193l-20 -94h-172zM607 785l7 482l-195 -482h188zM381 691l-63 -156h285l2 156h-224z" />
    <glyph glyph-name="uni20B4" unicode="&#x20b4;" 
d="M517 693q-16 -8 -29 -15.5t-23 -12.5h429l-19 -94h-560q-51 -43 -85.5 -100t-51.5 -136q-8 -42 -8 -75q0 -81 44 -130.5t134 -49.5q78 0 133 33t98 105t84 196l115 -17q-64 -215 -170 -318.5t-261 -103.5q-154 0 -224.5 76t-70.5 200q0 57 14 121q25 114 99 199h-107
l19 94h194q35 25 72 46.5l94 52.5q83 46 100 57h-426l20 94h540q88 84 112 199q10 44 10 88q0 76 -37.5 118t-118.5 42q-100 0 -163.5 -69.5t-106.5 -193.5l-113 19q61 166 155.5 257t230.5 91q90 0 151 -34.5t91 -95t30 -138.5q0 -45 -11 -97q-22 -105 -84 -186h131
l-20 -94h-204q-43 -34 -90.5 -62.5t-116.5 -65.5z" />
    <glyph glyph-name="uni20B5" unicode="&#x20b5;" 
d="M687 1364l-274 -1287q67 9 116 54.5t87 122.5t81 203l108 -24q-80 -235 -178 -346.5t-235 -111.5l-39 -182h-73l40 188q-109 22 -160.5 115t-51.5 254q0 167 52 409q71 331 191.5 513.5t283.5 192.5l29 134h73l-29 -136q81 -10 126.5 -55.5t65 -126t24.5 -207.5l-115 -21
q0 110 -9.5 173t-36 96.5t-76.5 41.5zM222 338q0 -227 119 -258l273 1282q-114 -24 -197.5 -193.5t-149.5 -478.5q-45 -212 -45 -352z" />
    <glyph glyph-name="glyph521" 
d="M692 1342q32 -25 51 -78t19 -122q0 -18 -1 -27h168l-22 -104h-163q-37 -141 -122.5 -225t-216.5 -91l-1 -6q28 -12 46.5 -40t31.5 -85t23 -155l40 -409h-133l-32 425q-7 97 -26.5 150.5t-51.5 74t-81 20.5h-56l22 104h144q110 0 182 56t108 181h-384l22 104h384
q2 28 2 39q0 90 -46 140t-131 50h-160l22 104h670l-22 -104z" />
    <glyph glyph-name="glyph522" 
d="M301 0h-200l134 631l-169 -100l22 104l169 100l41 190l-170 -100l23 104l169 100l89 419h115l-73 -341l307 181l-22 -104l-307 -181l-40 -190l306 181l-22 -104l-306 -181l-129 -605h63q101 0 180 66t141 207.5t110 368.5h118q-84 -398 -221 -572t-328 -174z" />
    <glyph glyph-name="glyph523" 
d="M82 601l21 99h134l159 748h228q154 0 235 -77t81 -229q0 -73 -17 -152q-23 -109 -80 -197.5t-144 -140t-196 -51.5h-172l-33 -156h349l-21 -99h-349l-74 -346h-115l74 346h-134l21 99h134l33 156h-134zM810 1030q13 58 13 112q0 97 -50.5 149.5t-155.5 52.5h-128
l-137 -644h121q141 0 221.5 81.5t115.5 248.5z" />
    <glyph glyph-name="glyph524" 
d="M168 313l-67 -313h-114l67 313q69 323 141.5 514t156.5 277.5t193 94.5l53 249h111l-53 -250q96 -21 143.5 -97.5t47.5 -234.5q0 -195 -77 -556l-66 -310h-114l66 310q79 375 79 562q0 111 -26 162t-76 56l-168 -790h-111l168 790q-92 -8 -179.5 -188t-174.5 -589z" />
    <glyph glyph-name="glyph525" horiz-adv-x="683" 
d="M490 1556l-162 260h169l82 -260h-89z" />
    <glyph glyph-name="glyph526" horiz-adv-x="683" 
d="M394 1567h-124l37 174h124zM703 1567h-123l37 174h123z" />
    <glyph glyph-name="glyph527" horiz-adv-x="683" 
d="M388 1556l133 260h190l-225 -260h-98z" />
    <glyph glyph-name="glyph528" horiz-adv-x="683" 
d="M617 1553l-85 190l-171 -190h-130l234 260h149l122 -260h-119z" />
    <glyph glyph-name="glyph529" horiz-adv-x="683" 
d="M491 1623l171 190h129l-234 -260h-149l-122 260h120z" />
    <glyph glyph-name="glyph530" horiz-adv-x="683" 
d="M247 1582l23 110h485l-23 -110h-485z" />
    <glyph glyph-name="glyph531" horiz-adv-x="683" 
d="M382 1787q0 -59 36.5 -94t96.5 -35q71 0 109.5 35t63.5 111h100q-31 -113 -99.5 -175t-180.5 -62q-66 0 -117 26.5t-79.5 74.5t-28.5 111q0 16 1 25h99z" />
    <glyph glyph-name="glyph532" horiz-adv-x="683" 
d="M402 1567l41 193h168l-41 -193h-168z" />
    <glyph glyph-name="glyph533" horiz-adv-x="719" 
d="M337 1775q0 53 26.5 98.5t72 72.5t99.5 27q52 0 98 -26t73 -71.5t27 -100.5q0 -53 -27 -98.5t-72.5 -72.5t-98.5 -27q-54 0 -99.5 27t-72 72.5t-26.5 98.5zM534 1900q-32 0 -60.5 -17t-46 -46t-17.5 -64q0 -52 36.5 -88.5t88.5 -36.5q35 0 64.5 17.5t46 46t16.5 61.5
q0 35 -17.5 64.5t-46.5 46t-64 16.5z" />
    <glyph glyph-name="glyph534" horiz-adv-x="683" 
d="M643 1586q-63 0 -142 43q-43 24 -68.5 33.5t-45.5 9.5q-39 0 -57 -20.5t-25 -65.5h-85q8 98 49 142.5t114 44.5q29 0 62 -10.5t78 -32.5q45 -23 72 -32.5t53 -9.5q31 0 46 20t23 66h83q-9 -188 -157 -188z" />
    <glyph glyph-name="glyph535" horiz-adv-x="683" 
d="M295 1553l125 259h198l-220 -259h-103zM593 1553l131 259h197l-219 -259h-109z" />
    <glyph glyph-name="glyph536" horiz-adv-x="448" 
d="M-53 -458l-1 76q75 0 96 99h-65l37 173h149l-40 -189q-16 -73 -60 -114.5t-116 -44.5z" />
    <glyph glyph-name="glyph537" horiz-adv-x="703" 
d="M523 1293q66 0 108 38t67 118h110q-30 -107 -104.5 -172t-180.5 -65q-112 0 -175.5 62t-63.5 175h109q0 -79 32 -117.5t98 -38.5z" />
    <glyph glyph-name="glyph538" horiz-adv-x="703" 
d="M598 1648q66 0 108 38t67 118h110q-31 -108 -105 -172.5t-180 -64.5q-113 0 -176 62.5t-63 174.5h109q0 -79 32 -117.5t98 -38.5z" />
    <glyph glyph-name="glyph539" horiz-adv-x="276" 
d="M192 999l-37 73q105 61 126 166l8 35h-74l41 193h169l-45 -212q-18 -84 -60.5 -141.5t-127.5 -113.5z" />
    <glyph glyph-name="glyph540" horiz-adv-x="600" 
d="M4 1206l103 260h195l-205 -260h-93z" />
  </font>
</defs>
</svg>
