<?xml version="1.0" standalone="no"?>
<!DOCTYPE svg PUBLIC "-//W3C//DTD SVG 1.1//EN" "http://www.w3.org/Graphics/SVG/1.1/DTD/svg11.dtd" >
<svg>
<metadata>
Created by FontForge 20090622 at Thu Jul 27 08:00:04 2017
 By deploy user
&#194;&#169; 2014 The Monotype Corporation. All Rights Reserved.
</metadata>
<defs>
<font id="ArialNova-LightItalic" horiz-adv-x="1139" >
  <font-face 
    font-family="Arial Nova Light"
    font-weight="300"
    font-style="italic"
    font-stretch="normal"
    units-per-em="2048"
    panose-1="2 11 3 4 2 2 2 9 2 4"
    ascent="1638"
    descent="-410"
    x-height="1061"
    cap-height="1466"
    bbox="-836 -430 2412 1882"
    underline-thickness="102"
    underline-position="-154"
    slope="-12"
    unicode-range="U+0020-U+2122"
  />
<missing-glyph horiz-adv-x="1024" 
d="M129 0v1536h768v-1536h-768zM256 1409v-1280h512v1280h-512z" />
    <glyph glyph-name=".notdef" horiz-adv-x="1024" 
d="M129 0v1536h768v-1536h-768zM256 1409v-1280h512v1280h-512z" />
    <glyph glyph-name="glyph1" horiz-adv-x="0" 
 />
    <glyph glyph-name="glyph2" horiz-adv-x="537" 
 />
    <glyph glyph-name="space" unicode=" " horiz-adv-x="537" 
 />
    <glyph glyph-name="exclam" unicode="!" horiz-adv-x="682" 
d="M302 362h-82l130 775l70 329h152l-70 -329zM97 0l39 185h175l-39 -185h-175z" />
    <glyph glyph-name="quotedbl" unicode="&#x22;" horiz-adv-x="569" 
d="M244 959h-91l27 268l51 239h147l-51 -239zM515 959h-90l26 268l51 239h148l-51 -239z" />
    <glyph glyph-name="numbersign" unicode="#" 
d="M438 1048h391l92 443h94l-92 -443h172v-92h-190l-91 -434h281v-92h-300l-99 -455h-94l99 455h-391l-99 -455h-94l99 455h-172v92h191l91 434h-282v92h300l92 443h94zM811 956h-391l-91 -434h391z" />
    <glyph glyph-name="dollar" unicode="$" 
d="M11 397l121 17q0 -157 63 -237.5t190 -94.5l134 628q-127 41 -200 90.5t-104 112t-31 147.5q0 124 62 221.5t175.5 152.5t263.5 57l23 108h76l-24 -112q150 -16 230 -106t89 -238l-121 -19q-4 115 -60 180t-160 79l-122 -574q132 -40 210 -94t111.5 -121t33.5 -154
q0 -114 -53.5 -221t-173 -175t-306.5 -69l-38 -182h-76l39 186q-175 18 -262.5 126.5t-89.5 291.5zM544 830l119 556q-111 -3 -190 -45t-120 -114.5t-41 -167.5q0 -55 18.5 -94.5t69 -72.5t144.5 -62zM590 689l-129 -609q125 4 210.5 54.5t127.5 132t42 178.5
q0 60 -23.5 103t-78 77t-149.5 64z" />
    <glyph glyph-name="percent" unicode="%" horiz-adv-x="1792" 
d="M158 990q0 141 47 255t136 180t211 66q89 0 154 -38.5t99.5 -109t34.5 -162.5q0 -147 -45 -259.5t-134 -176t-217 -63.5q-143 0 -214.5 82t-71.5 226zM346 -53h-105l1186 1544h104zM540 1393q-80 0 -139 -53t-91 -146t-32 -208q0 -101 40.5 -153.5t135.5 -52.5
q78 0 138.5 46t94 136t33.5 218q0 106 -49.5 159.5t-130.5 53.5zM936 284q0 141 47 255t136 180t211 66q89 0 154 -38.5t99.5 -109t34.5 -162.5q0 -147 -45 -259.5t-134 -176t-217 -63.5q-143 0 -214.5 82t-71.5 226zM1318 687q-78 0 -138 -53t-92 -146t-32 -208
q0 -101 40.5 -153.5t135.5 -52.5q78 0 138.5 46t94 136t33.5 218q0 106 -49.5 159.5t-130.5 53.5z" />
    <glyph glyph-name="ampersand" unicode="&#x26;" horiz-adv-x="1366" 
d="M1156 71l-96 -96q-41 40 -98.5 109.5t-83.5 111.5q-109 -114 -217.5 -167.5t-226.5 -53.5q-123 0 -213 49.5t-137.5 136t-47.5 193.5q0 105 45 183t139.5 146t259.5 151q-52 88 -75 163.5t-23 150.5q0 83 45.5 162.5t131.5 130t202 50.5q96 0 164 -36t103 -98t35 -139
q0 -122 -101 -228.5t-315 -202.5q105 -180 244 -391q53 71 90.5 129.5t90.5 154.5l121 -27q-71 -130 -116.5 -202t-112.5 -156q3 -3 62 -78.5t130 -145.5zM517 1138q0 -70 16.5 -128t58.5 -125q181 82 258.5 159.5t77.5 168.5q0 71 -44.5 117t-121.5 46q-70 0 -126 -30.5
t-87.5 -84.5t-31.5 -123zM808 292q-54 74 -152 236t-123 208q-143 -69 -219 -123.5t-107.5 -112.5t-31.5 -138q0 -66 32.5 -129t92 -103t134.5 -40q96 0 190.5 49.5t183.5 152.5z" />
    <glyph glyph-name="quotesingle" unicode="'" horiz-adv-x="347" 
d="M268 959h-90l27 268l51 239h147l-51 -239z" />
    <glyph glyph-name="parenleft" unicode="(" horiz-adv-x="682" 
d="M206 284q0 -196 35.5 -383t104.5 -331h-96q-81 150 -128 347.5t-47 358.5q0 220 58 416t186.5 391.5t339.5 407.5h96q-196 -233 -316 -432t-176.5 -387.5t-56.5 -387.5z" />
    <glyph glyph-name="parenright" unicode=")" horiz-adv-x="682" 
d="M388 777q0 196 -35.5 383t-104.5 331h96q81 -150 128 -347.5t47 -358.5q0 -220 -58 -416t-186.5 -391.5t-339.5 -407.5h-96q196 233 316 432t176.5 387.5t56.5 387.5z" />
    <glyph glyph-name="asterisk" unicode="*" horiz-adv-x="797" 
d="M453 1491l-5 -132l-14 -140l120 55l126 49l35 -104l-127 -37l-125 -29l89 -100l83 -105l-88 -65l-76 110l-72 117l-66 -116l-73 -111l-90 65l81 104l89 101l-133 30l-125 36l37 104l124 -49l119 -55l-14 139l-6 133h111z" />
    <glyph glyph-name="plus" unicode="+" horiz-adv-x="1148" 
d="M621 768h387v-94h-387v-430h-94v430h-387v94h387v429h94v-429z" />
    <glyph glyph-name="comma" unicode="," horiz-adv-x="569" 
d="M27 -272l-39 71q44 27 67.5 51.5t38 57.5t28.5 92h-81l39 185h175l-41 -193q-20 -93 -65.5 -155t-121.5 -109z" />
    <glyph glyph-name="hyphen" unicode="-" horiz-adv-x="682" 
d="M17 467l27 125h534l-27 -125h-534z" />
    <glyph glyph-name="period" unicode="." horiz-adv-x="569" 
d="M41 0l39 185h175l-39 -185h-175z" />
    <glyph glyph-name="slash" unicode="/" horiz-adv-x="569" 
d="M-68 -37h-96l798 1528h96z" />
    <glyph glyph-name="zero" unicode="0" 
d="M58 481q0 324 79 545t218 330.5t318 109.5q120 0 211 -63t141 -177t50 -263q0 -292 -65 -513.5t-203 -348t-350 -126.5q-124 0 -213.5 59.5t-137.5 173.5t-48 273zM662 1362q-153 0 -259 -109.5t-160 -310t-54 -469.5q0 -194 70 -294t206 -100q155 0 262.5 104t162 303.5
t54.5 483.5q0 125 -34 213t-97.5 133.5t-150.5 45.5z" />
    <glyph glyph-name="one" unicode="1" 
d="M451 0l262 1232q-98 -83 -198 -140.5t-226 -102.5l24 111q324 139 488 366h85l-311 -1466h-124z" />
    <glyph glyph-name="two" unicode="2" 
d="M-78 0q31 101 83 180.5t156.5 168.5t287.5 205q226 143 336.5 234t147 161t36.5 160q0 120 -73 186.5t-203 66.5q-133 0 -232.5 -78.5t-157.5 -239.5l-122 17q77 205 204.5 305t315.5 100q129 0 219.5 -44.5t136.5 -125.5t46 -189q0 -106 -44 -190.5t-145.5 -172.5
t-291.5 -212l-105 -68q-138 -89 -204.5 -136t-117.5 -96.5t-90 -112.5h788l-25 -119h-946z" />
    <glyph glyph-name="three" unicode="3" 
d="M978 469q0 -128 -68 -241.5t-190 -183t-276 -69.5q-200 0 -307 101.5t-114 294.5l129 18q0 -156 73.5 -233t212.5 -77q109 0 203 50t150 138.5t56 197.5q0 127 -69 193t-204 66h-131l36 102q220 0 338.5 82t118.5 237q0 62 -27.5 111t-82 77.5t-130.5 28.5
q-133 0 -226.5 -73.5t-151.5 -217.5l-120 27q87 187 206 277.5t299 90.5q110 0 193 -42t127.5 -115t44.5 -163q0 -128 -74.5 -218.5t-231.5 -143.5l-1 -4q100 -20 158.5 -101.5t58.5 -209.5z" />
    <glyph glyph-name="four" unicode="4" 
d="M787 475h200l-23 -110h-200l-78 -365h-124l78 365h-667l24 112l901 989h100zM828 1247h-4l-699 -772h538z" />
    <glyph glyph-name="five" unicode="5" 
d="M475 1334l-180 -503q89 62 169.5 87.5t157.5 25.5q121 0 206.5 -49t129.5 -136t44 -201q0 -158 -74 -291.5t-207 -212.5t-302 -79q-194 0 -291 97.5t-103 289.5l130 15q0 -155 66.5 -226.5t193.5 -71.5q124 0 228 59t165 168.5t61 253.5q0 84 -30.5 147t-88 98t-136.5 35
q-72 0 -130 -14t-119.5 -50.5t-137.5 -103.5l-101 14l279 760h725l-23 -112h-632z" />
    <glyph glyph-name="six" unicode="6" 
d="M736 1362q-129 0 -234 -82t-178.5 -226.5t-114.5 -332.5l3 -4q92 107 189.5 156t217.5 49t205.5 -47t129 -130.5t43.5 -192.5q0 -159 -75.5 -291t-202.5 -209t-274 -77q-127 0 -216 52.5t-134.5 150.5t-45.5 234q0 249 82 493t241 402.5t370 158.5q167 0 254 -90t96 -248
l-128 -14q-3 127 -60.5 187.5t-167.5 60.5zM601 818q-112 0 -209.5 -55.5t-155.5 -156t-58 -229.5q0 -88 30.5 -155t91 -105t147.5 -38q104 0 200 59.5t156.5 168t60.5 247.5q0 123 -69.5 193.5t-193.5 70.5z" />
    <glyph glyph-name="seven" unicode="7" 
d="M328 0h-140q79 286 183.5 509t254 420.5t368.5 404.5h-751l23 112h915l-19 -92q-215 -186 -372.5 -389t-270 -439.5t-191.5 -525.5z" />
    <glyph glyph-name="eight" unicode="8" 
d="M981 460q0 -135 -68.5 -246t-194 -175t-290.5 -64q-133 0 -226 47.5t-140.5 128.5t-47.5 183q0 162 97.5 283t274.5 177q-75 34 -118 103.5t-43 152.5q0 117 65.5 212t175 149.5t236.5 54.5q111 0 194 -41.5t128 -113.5t45 -161q0 -124 -66.5 -213t-227.5 -154
q95 -38 150.5 -125t55.5 -198zM693 1362q-96 0 -173 -40t-120.5 -109.5t-43.5 -152.5q0 -60 28.5 -112t81.5 -83t124 -31q104 0 183.5 42t122.5 113t43 155q0 63 -29.5 112.5t-85.5 77.5t-131 28zM565 732q-124 0 -218.5 -52t-146.5 -142t-52 -200q0 -79 35.5 -137.5
t99.5 -90t150 -31.5q116 0 211 47t149.5 134t54.5 202q0 79 -33 140t-97 95.5t-153 34.5z" />
    <glyph glyph-name="nine" unicode="9" 
d="M397 79q129 0 234 82t178.5 226.5t114.5 332.5l-3 4q-92 -107 -189.5 -156t-217.5 -49t-205.5 47t-129 130.5t-43.5 192.5q0 159 75.5 291t202.5 209t274 77q127 0 216 -52.5t134.5 -150.5t45.5 -234q0 -251 -81 -495.5t-239.5 -401.5t-372.5 -157q-113 0 -191 42
t-117.5 118t-41.5 178l128 14q3 -131 59 -189.5t169 -58.5zM532 623q112 0 209.5 55.5t155.5 156t58 229.5q0 135 -72 216.5t-210 81.5q-97 0 -191 -60t-153.5 -168.5t-59.5 -246.5q0 -123 69.5 -193.5t193.5 -70.5z" />
    <glyph glyph-name="colon" unicode=":" horiz-adv-x="569" 
d="M227 876l40 185h175l-40 -185h-175zM41 0l39 185h175l-39 -185h-175z" />
    <glyph glyph-name="semicolon" unicode=";" horiz-adv-x="569" 
d="M227 876l39 185h175l-39 -185h-175zM27 -272l-39 71q44 29 67.5 52.5t38 56.5t28.5 92h-81l39 185h175l-41 -193q-20 -93 -65.5 -155t-121.5 -109z" />
    <glyph glyph-name="less" unicode="&#x3c;" horiz-adv-x="1148" 
d="M248 719l760 -395v-101l-868 455v82l868 452v-100z" />
    <glyph glyph-name="equal" unicode="=" horiz-adv-x="1148" 
d="M140 913v95h868v-95h-868zM140 426v94h868v-94h-868z" />
    <glyph glyph-name="greater" unicode="&#x3e;" horiz-adv-x="1148" 
d="M140 223v101l760 395l-760 393v100l868 -452v-82z" />
    <glyph glyph-name="question" unicode="?" horiz-adv-x="1024" 
d="M355 420q21 99 52 164t82.5 117t141.5 115q101 71 150 113.5t73.5 95.5t24.5 131q0 105 -61.5 162.5t-172.5 57.5q-80 0 -142.5 -27.5t-116.5 -93.5t-100 -178l-130 23q81 204 202 297.5t296 93.5q113 0 196 -46.5t126.5 -123t43.5 -163.5t-27.5 -151t-92.5 -128
t-192 -158q-92 -67 -132 -107t-59.5 -84t-38.5 -132l-8 -36h-127zM244 0l40 185h175l-40 -185h-175z" />
    <glyph glyph-name="at" unicode="@" horiz-adv-x="1808" 
d="M912 -289q-259 0 -448 100t-290.5 293t-101.5 467q0 255 108.5 465t310.5 332.5t471 122.5q213 0 390 -91.5t280.5 -257.5t103.5 -379q0 -183 -65.5 -336t-177.5 -241.5t-245 -88.5q-83 0 -114 37t-31 98q0 13 1.5 29t4.5 29l-8 1q-75 -92 -161 -143t-177 -51
q-109 0 -187 52t-118.5 147.5t-40.5 222.5q0 165 66.5 306.5t183 225.5t260.5 84q103 0 180.5 -47.5t124.5 -144.5l35 167h117l-170 -790q-10 -46 -10 -76q0 -27 13.5 -40t36.5 -13q110 0 197 79t135 210.5t48 282.5q0 187 -84.5 331.5t-238 224.5t-354.5 80
q-250 0 -427 -115t-266.5 -304.5t-89.5 -410.5q0 -253 89 -424.5t254 -256.5t395 -85q150 0 287 31t237 86l40 -82q-108 -58 -256.5 -92.5t-307.5 -34.5zM927 1037q-99 0 -187 -68t-141.5 -186.5t-53.5 -261.5q0 -156 59.5 -238t162.5 -82q117 0 212.5 82.5t150.5 213
t55 265.5q0 82 -33 144.5t-92 96.5t-133 34z" />
    <glyph glyph-name="A" unicode="A" horiz-adv-x="1323" 
d="M1019 0l-83 465h-661l-271 -465h-156l873 1466h160l282 -1466h-144zM610 1038l-270 -458h576l-83 452q-27 147 -45 328h-4q-74 -153 -174 -322z" />
    <glyph glyph-name="B" unicode="B" horiz-adv-x="1313" 
d="M1229 1154q0 -136 -65 -229.5t-225 -155.5q112 -40 163.5 -117.5t51.5 -175.5q0 -136 -67 -244t-190.5 -170t-284.5 -62h-594l312 1466h513q187 0 286.5 -83t99.5 -229zM1083 1146q0 96 -67.5 145.5t-213.5 49.5h-360l-110 -520h381q117 0 200.5 41t126.5 114.5t43 169.5
zM1005 469q0 107 -70 168t-195 61h-435l-121 -573h430q121 0 209.5 44t135 122t46.5 178z" />
    <glyph glyph-name="C" unicode="C" horiz-adv-x="1457" 
d="M892 1372q-204 0 -353.5 -106t-228.5 -288t-79 -407q0 -231 102.5 -354t295.5 -123q367 0 545 374l129 -36q-110 -227 -277 -342t-403 -115q-168 0 -290 73t-186 206t-64 310q0 270 105.5 481t292.5 328.5t422 117.5q140 0 246 -47.5t171.5 -136t86.5 -209.5l-142 -33
q-25 151 -118.5 229t-254.5 78z" />
    <glyph glyph-name="D" unicode="D" horiz-adv-x="1434" 
d="M1354 917q0 -278 -96.5 -485.5t-277 -319.5t-429.5 -112h-533l312 1466h475q275 0 412 -145t137 -404zM1209 919q0 422 -408 422h-359l-258 -1216h359q211 0 360.5 93.5t227.5 271.5t78 429z" />
    <glyph glyph-name="E" unicode="E" horiz-adv-x="1192" 
d="M442 1341l-111 -522h691l-26 -125h-691l-121 -569h781l-27 -125h-920l312 1466h885l-27 -125h-746z" />
    <glyph glyph-name="F" unicode="F" horiz-adv-x="1105" 
d="M442 1341l-112 -526h620l-26 -125h-620l-147 -690h-139l312 1466h856l-27 -125h-717z" />
    <glyph glyph-name="G" unicode="G" horiz-adv-x="1532" 
d="M909 1372q-188 0 -343 -104t-245 -285.5t-90 -405.5q0 -152 54 -261t150 -165.5t221 -56.5q275 0 501 154l77 358h-465l26 125h602l-116 -545q-122 -82 -221.5 -127t-198 -64.5t-219.5 -19.5q-162 0 -289.5 74.5t-199 210.5t-71.5 313q0 252 109 462.5t300 333t427 122.5
q442 0 526 -418l-135 -38q-23 171 -120.5 254t-279.5 83z" />
    <glyph glyph-name="H" unicode="H" horiz-adv-x="1421" 
d="M1131 842l133 624h139l-312 -1466h-139l152 717h-795l-152 -717h-139l312 1466h139l-133 -624h795z" />
    <glyph glyph-name="I" unicode="I" horiz-adv-x="487" 
d="M18 0l312 1466h139l-312 -1466h-139z" />
    <glyph glyph-name="J" unicode="J" horiz-adv-x="977" 
d="M281 -25q-155 0 -237 79t-82 217q0 63 13 132l133 15q-11 -63 -11 -134q0 -98 45.5 -144t146.5 -46q85 0 145 31t101 100t66 185l224 1056h140l-229 -1076q-46 -220 -157 -317.5t-298 -97.5z" />
    <glyph glyph-name="K" unicode="K" horiz-adv-x="1246" 
d="M1182 1466h188l-692 -592l407 -874h-159l-355 790l-299 -247l-115 -543h-139l312 1466h139l-159 -741z" />
    <glyph glyph-name="L" unicode="L" horiz-adv-x="1088" 
d="M884 125l-27 -125h-839l312 1466h139l-285 -1341h700z" />
    <glyph glyph-name="M" unicode="M" horiz-adv-x="1690" 
d="M1459 1466h213l-312 -1466h-127l281 1323h-6l-764 -1323h-116l-196 1323h-6l-281 -1323h-127l312 1466h201l189 -1277z" />
    <glyph glyph-name="N" unicode="N" horiz-adv-x="1423" 
d="M1006 199l271 1267h128l-312 -1466h-149l-526 1260h-4l-268 -1260h-128l312 1466h140l529 -1267h7z" />
    <glyph glyph-name="O" unicode="O" horiz-adv-x="1584" 
d="M85 580q0 263 102 470.5t287 324t419 116.5q177 0 315 -76t214.5 -213t76.5 -315q0 -266 -106.5 -473.5t-295 -323t-425.5 -115.5q-170 0 -303.5 76t-208.5 213.5t-75 315.5zM888 1372q-204 0 -354 -105t-227 -285t-77 -401q0 -148 54.5 -257.5t157 -169.5t243.5 -60
q190 0 342.5 96.5t239.5 275t87 414.5q0 153 -56 263.5t-161 169.5t-249 59z" />
    <glyph glyph-name="P" unicode="P" horiz-adv-x="1235" 
d="M1225 1123q0 -146 -65 -259.5t-192.5 -178t-308.5 -64.5h-370l-132 -621h-139l312 1466h484q126 0 218.5 -41.5t142.5 -118.5t50 -183zM1078 1113q0 112 -72 170t-233 58h-331l-126 -595h330q209 0 320.5 94t111.5 273z" />
    <glyph glyph-name="Q" unicode="Q" horiz-adv-x="1584" 
d="M85 580q0 263 102 470.5t286.5 324t419.5 116.5q177 0 315 -76t214.5 -213t76.5 -315q0 -248 -93.5 -446.5t-259.5 -318.5q30 -24 94 -67t119 -71l-55 -93q-57 21 -126.5 65t-138.5 102q-168 -83 -367 -83q-170 0 -303.5 76t-208.5 213.5t-75 315.5zM888 1372
q-207 0 -355.5 -105t-225.5 -285t-77 -401q0 -148 54.5 -257.5t157 -169.5t243.5 -60q138 0 255 51q-52 42 -103.5 72.5t-116.5 52.5l50 99q78 -18 150.5 -61.5t128.5 -102.5q143 100 224 274t81 401q0 153 -56 263.5t-161 169.5t-249 59z" />
    <glyph glyph-name="R" unicode="R" horiz-adv-x="1296" 
d="M1261 1137q0 -190 -109 -306t-346 -151l-1 -6q41 -13 73 -46t65 -106.5t68 -203.5l86 -318h-145l-71 275q-43 169 -86 249.5t-102.5 107.5t-167.5 27h-228l-140 -659h-139l312 1466h525q121 0 212.5 -38t142.5 -112t51 -179zM1112 1130q0 211 -282 211h-388l-118 -557
h381q194 0 300.5 89t106.5 257z" />
    <glyph glyph-name="S" unicode="S" horiz-adv-x="1251" 
d="M740 1372q-116 0 -201.5 -39.5t-131 -108.5t-45.5 -158q0 -56 24 -99t84.5 -77t168.5 -58q165 -37 262.5 -87t143.5 -128t46 -200q0 -125 -70.5 -225.5t-203.5 -158.5t-312 -58q-234 0 -351 126t-124 339l133 21q8 -180 94 -273.5t250 -93.5q137 0 236.5 42.5t151 115
t51.5 167.5q0 80 -26.5 130t-103 88.5t-226.5 69.5q-196 41 -285 130t-89 226q0 120 69.5 218t190 154t267.5 56q215 0 333.5 -101.5t123.5 -310.5l-134 -14q-5 307 -326 307z" />
    <glyph glyph-name="T" unicode="T" 
d="M768 1341l-285 -1341h-139l285 1341h-448l26 125h1035l-26 -125h-448z" />
    <glyph glyph-name="U" unicode="U" horiz-adv-x="1424" 
d="M242 375q0 -144 85 -212.5t251 -68.5q142 0 240.5 44t160.5 136.5t94 240.5l202 951h138l-208 -978q-54 -256 -207 -384.5t-422 -128.5q-237 0 -353.5 103t-118.5 291q0 83 21 182l197 915h139l-202 -949q-17 -82 -17 -142z" />
    <glyph glyph-name="V" unicode="V" horiz-adv-x="1251" 
d="M494 150l752 1316h149l-859 -1466h-143l-225 1466h136l186 -1316h4z" />
    <glyph glyph-name="W" unicode="W" horiz-adv-x="1781" 
d="M359 197l596 1269h168l62 -1261h4l583 1261h140l-695 -1466h-140l-64 1315h-3l-621 -1315h-139l-69 1466h135l39 -1269h4z" />
    <glyph glyph-name="X" unicode="X" horiz-adv-x="1251" 
d="M1199 1466h159l-634 -696l363 -770h-153l-308 674l-598 -674h-176l718 787l-326 679h152l269 -587z" />
    <glyph glyph-name="Y" unicode="Y" horiz-adv-x="1221" 
d="M1199 1466h166l-715 -833l-135 -633h-139l135 633l-343 833h146l288 -709z" />
    <glyph glyph-name="Z" unicode="Z" horiz-adv-x="1199" 
d="M89 125h931l-27 -125h-1101l27 129l1148 1212h-816l27 125h996l-26 -120z" />
    <glyph glyph-name="bracketleft" unicode="[" horiz-adv-x="682" 
d="M417 1362l-354 -1665h346l-22 -103h-471l398 1872h471l-22 -104h-346z" />
    <glyph glyph-name="backslash" unicode="\" horiz-adv-x="569" 
d="M405 -37h-93l-151 1528h91z" />
    <glyph glyph-name="bracketright" unicode="]" horiz-adv-x="682" 
d="M-189 -406l22 104h346l354 1664h-346l22 104h471l-398 -1872h-471z" />
    <glyph glyph-name="asciicircum" unicode="^" horiz-adv-x="960" 
d="M759 666l-144 668l-428 -668h-109l524 800h68l184 -800h-95z" />
    <glyph glyph-name="underscore" unicode="_" horiz-adv-x="1024" 
d="M-12 -256v102h1048v-102h-1048z" />
    <glyph glyph-name="grave" unicode="`" horiz-adv-x="682" 
d="M456 1200l-173 266h169l102 -266h-98z" />
    <glyph glyph-name="a" unicode="a" horiz-adv-x="1081" 
d="M802 94q0 -44 11 -94h-133q-7 31 -7 71q0 35 7 89l-3 1q-181 -186 -379 -186q-159 0 -232.5 68.5t-73.5 183.5q0 107 43.5 179.5t146 119.5t278.5 71q209 29 318 67l8 39q14 68 14 116q0 82 -50 119.5t-170 37.5q-231 0 -321 -208l-123 18q63 145 179.5 222t268.5 77
q176 0 259.5 -64.5t83.5 -198.5q0 -62 -14 -126l-77 -367q-18 -87 -26 -141.5t-8 -93.5zM424 485q-114 -17 -179 -51.5t-91.5 -84t-26.5 -117.5q0 -72 49 -112t139 -40q64 0 148 33.5t135 83.5q44 43 66.5 74.5t41 84t39.5 152.5l12 55q-37 -16 -122.5 -37.5t-210.5 -40.5z
" />
    <glyph glyph-name="b" unicode="b" horiz-adv-x="1132" 
d="M298 904h4q89 98 178.5 139.5t182.5 41.5q185 0 278.5 -116t93.5 -316q0 -178 -73.5 -334.5t-201.5 -250t-283 -93.5q-125 0 -204.5 50.5t-125.5 151.5h-4l-37 -177h-123l312 1466h123zM654 976q-143 0 -246 -85t-156 -218t-53 -274q0 -148 70.5 -231.5t194.5 -83.5
q113 0 213 70.5t161.5 200.5t61.5 300q0 110 -33 182t-88 105.5t-125 33.5z" />
    <glyph glyph-name="c" unicode="c" horiz-adv-x="1064" 
d="M592 976q-123 0 -224.5 -68t-160.5 -197t-59 -302q0 -151 66.5 -238t194.5 -87q122 0 217.5 66t162.5 216l128 -24q-79 -189 -211.5 -278t-302.5 -89q-193 0 -291.5 116t-98.5 318q0 189 73.5 343.5t206.5 243.5t303 89q176 0 270.5 -84.5t117.5 -238.5l-131 -24
q-16 122 -84.5 180t-176.5 58z" />
    <glyph glyph-name="d" unicode="d" horiz-adv-x="1132" 
d="M837 0h-121l31 147h-4q-68 -86 -158.5 -129t-188.5 -43q-123 0 -209 53t-130 151.5t-44 234.5q0 184 77.5 338t208.5 243.5t280 89.5q118 0 195 -54.5t116 -145.5h6l123 581h129zM587 976q-124 0 -224.5 -78t-157.5 -208t-57 -279q0 -99 30.5 -173t87 -114t132.5 -40
q131 0 233 73.5t158.5 202.5t56.5 289q0 153 -68.5 240t-190.5 87z" />
    <glyph glyph-name="e" unicode="e" horiz-adv-x="1081" 
d="M148 385q0 -143 72.5 -222t202.5 -79q107 0 197.5 57.5t147.5 159.5l123 -20q-81 -153 -205 -229.5t-262 -76.5q-203 0 -307.5 112t-104.5 315q0 191 78 347.5t213 246t294 89.5q194 0 290.5 -103t96.5 -295q0 -72 -23 -181h-801q-12 -64 -12 -121zM856 695
q0 140 -64.5 211t-191.5 71q-92 0 -173.5 -43t-144 -124.5t-97.5 -195.5h666q5 48 5 81z" />
    <glyph glyph-name="f" unicode="f" horiz-adv-x="526" 
d="M589 1379q-81 0 -121.5 -41t-60.5 -134l-31 -143h206l-23 -105h-205l-203 -956h-129l203 956h-160l23 105h160l33 155q31 146 105.5 210.5t209.5 64.5q77 0 171 -21l-40 -109q-23 7 -64 12.5t-74 5.5z" />
    <glyph glyph-name="g" unicode="g" horiz-adv-x="1126" 
d="M1056 1061l-214 -1006q-38 -179 -108.5 -285t-176 -153t-256.5 -47q-176 0 -262.5 76.5t-86.5 216.5l121 -19q4 -166 226 -166q128 0 210.5 41.5t134 134t80.5 250.5l8 43h-3q-135 -159 -344 -159q-119 0 -202.5 52.5t-126 150t-42.5 231.5q0 178 77.5 330.5t207 242.5
t276.5 90q122 0 200.5 -57.5t114.5 -149.5h6l39 183h121zM582 977q-119 0 -218.5 -75.5t-157 -204t-57.5 -280.5q0 -98 29.5 -170.5t85.5 -111.5t134 -39q128 0 229.5 75t158.5 203t57 283q0 148 -68 234t-193 86z" />
    <glyph glyph-name="h" unicode="h" horiz-adv-x="1096" 
d="M826 708q10 49 10 91q0 90 -51.5 132t-154.5 42q-91 0 -173.5 -45.5t-136.5 -122.5q-52 -72 -82 -212l-126 -593h-129l312 1466h129l-120 -562q73 89 158.5 135t192.5 46q154 0 232 -73t78 -203q0 -51 -12 -108l-148 -701h-129z" />
    <glyph glyph-name="i" unicode="i" horiz-adv-x="407" 
d="M257 1288l38 178h129l-38 -178h-129zM-17 0l226 1061h129l-226 -1061h-129z" />
    <glyph glyph-name="j" unicode="j" horiz-adv-x="416" 
d="M392 1278h-129l40 188h129zM93 -133q-23 -108 -57.5 -172.5t-87.5 -94.5t-133 -30q-68 0 -127 22l39 109q34 -12 76 -12q51 0 80 16t48 57.5t37 125.5l249 1173h130z" />
    <glyph glyph-name="k" unicode="k" horiz-adv-x="1006" 
d="M259 601l578 460h178l-502 -401l309 -660h-146l-262 586l-190 -147l-93 -439h-129l312 1466h129z" />
    <glyph glyph-name="l" unicode="l" horiz-adv-x="407" 
d="M-17 0l312 1466h129l-312 -1466h-129z" />
    <glyph glyph-name="m" unicode="m" horiz-adv-x="1653" 
d="M1259 1085q80 0 140.5 -32t93 -90.5t32.5 -136.5q0 -58 -13 -120l-150 -706h-125l151 711q12 57 12 102q0 82 -43 121t-134 39q-85 0 -158 -44.5t-125.5 -129t-77.5 -200.5l-127 -599h-125l146 689q16 73 16 128q0 86 -40.5 121t-119.5 35q-93 0 -171.5 -52
t-132.5 -142.5t-78 -204.5l-122 -574h-125l226 1061h121l-33 -154h4q80 92 162 135t182 43q103 0 167 -47t83 -139q93 102 180 144t184 42z" />
    <glyph glyph-name="n" unicode="n" horiz-adv-x="1096" 
d="M826 708q10 49 10 91q0 90 -51.5 132t-154.5 42q-91 0 -173.5 -45.5t-136.5 -122.5q-52 -72 -82 -212l-126 -593h-129l226 1061h121l-36 -169q75 95 163 144t198 49q154 0 232 -73t78 -203q0 -51 -12 -108l-148 -701h-129z" />
    <glyph glyph-name="o" unicode="o" horiz-adv-x="1102" 
d="M12 405q0 203 78 358t211 238.5t294 83.5q129 0 221 -52.5t140 -150.5t48 -230q0 -198 -76.5 -352.5t-209 -239.5t-295.5 -85q-135 0 -227 53t-138 149.5t-46 227.5zM590 976q-122 0 -223.5 -69.5t-161.5 -200t-60 -304.5q0 -103 35 -174.5t97.5 -107.5t144.5 -36
q125 0 227 70t161.5 199.5t59.5 300.5q0 102 -35 174.5t-98.5 110t-146.5 37.5z" />
    <glyph glyph-name="p" unicode="p" horiz-adv-x="1132" 
d="M152 171h-4l-122 -577h-129l312 1467h121l-34 -159l5 1q88 99 175 140.5t195 41.5q114 0 196 -52.5t125 -149t43 -226.5q0 -191 -73.5 -347t-202.5 -245.5t-288 -89.5q-119 0 -196 48.5t-123 147.5zM652 976q-137 0 -240 -82t-158 -215t-55 -281t70.5 -231t194.5 -83
q123 0 222.5 77t156 208.5t56.5 289.5q0 146 -64.5 231.5t-182.5 85.5z" />
    <glyph glyph-name="q" unicode="q" horiz-adv-x="1132" 
d="M1063 1061l-312 -1467h-129l116 545h-4q-84 -89 -169.5 -126.5t-183.5 -37.5q-183 0 -275 119.5t-92 321.5q0 169 69.5 323.5t196.5 250t290 95.5q116 0 200 -54t127 -160h4l41 190h121zM572 976q-116 0 -214 -75t-155 -204.5t-57 -286.5q0 -99 29.5 -173t84.5 -113.5
t130 -39.5q126 0 229 70t163 197.5t60 291.5q0 151 -68.5 242t-201.5 91z" />
    <glyph glyph-name="r" unicode="r" horiz-adv-x="688" 
d="M567 956q-120 0 -208.5 -106.5t-125.5 -281.5l-121 -568h-129l226 1061h121l-36 -169l2 1q69 101 138 146.5t148 45.5q50 0 91 -10t82 -33l-68 -120q-63 34 -120 34z" />
    <glyph glyph-name="s" unicode="s" horiz-adv-x="961" 
d="M512 976q-76 0 -138.5 -25.5t-99 -72t-36.5 -108.5q0 -43 20.5 -71.5t72 -50.5t146.5 -40q113 -22 181.5 -56t101.5 -90.5t33 -144.5q0 -100 -58 -178t-159.5 -121t-227.5 -43q-181 0 -270.5 80.5t-97.5 225.5l131 20q4 -107 59.5 -162t176.5 -55q88 0 158 29t110 82.5
t40 124.5q0 48 -22 79.5t-80.5 55.5t-168.5 44q-148 27 -212.5 90.5t-64.5 174.5q0 90 54 163.5t149 115.5t208 42q160 0 244.5 -66.5t100.5 -191.5l-130 -18q-4 81 -60 124t-161 43z" />
    <glyph glyph-name="t" unicode="t" horiz-adv-x="596" 
d="M592 1061l-23 -105h-200l-148 -696q-11 -48 -11 -91q0 -41 21 -55t65 -14q54 0 100 13l-6 -111q-24 -6 -56 -10t-55 -4q-109 0 -154 39.5t-45 119.5q0 52 20 145l141 664h-153l23 105h152l54 254l148 92l-73 -346h200z" />
    <glyph glyph-name="u" unicode="u" horiz-adv-x="1096" 
d="M182 353q-10 -49 -10 -91q0 -90 51.5 -132t154.5 -42q91 0 173.5 45.5t136.5 122.5q52 72 82 212l126 593h129l-226 -1061h-121l36 169q-75 -95 -163 -144t-198 -49q-154 0 -232 73t-78 203q0 51 12 108l148 701h129z" />
    <glyph glyph-name="v" unicode="v" horiz-adv-x="976" 
d="M891 1061h140l-642 -1061h-114l-190 1061h126l148 -905z" />
    <glyph glyph-name="w" unicode="w" horiz-adv-x="1440" 
d="M296 156l432 905h115l50 -905h4l461 905h134l-567 -1061h-127l-46 872h-4l-415 -872h-129l-116 1061h126l78 -905h4z" />
    <glyph glyph-name="x" unicode="x" horiz-adv-x="972" 
d="M822 1061h165l-473 -504l282 -557h-143l-228 467l-396 -467h-165l504 562l-243 499h143l187 -412z" />
    <glyph glyph-name="y" unicode="y" horiz-adv-x="958" 
d="M350 147h4q53 104 160 288l364 626h135l-730 -1241q-81 -138 -154 -194t-164 -56q-57 0 -116 16l30 109q16 -6 39.5 -9t42.5 -3q50 0 85 19.5t67 61.5t79 124l67 117l-169 1056h129l95 -618q23 -147 36 -296z" />
    <glyph glyph-name="z" unicode="z" horiz-adv-x="929" 
d="M77 109h674l-23 -109h-834l23 109l807 847h-586l23 105h760l-18 -84z" />
    <glyph glyph-name="braceleft" unicode="{" horiz-adv-x="682" 
d="M305 298q0 -54 -13 -115l-60 -279q-14 -64 -14 -104q0 -62 31 -89.5t100 -27.5h14l-24 -113h-19q-218 0 -218 215q0 61 17 137l58 267q14 66 14 112q0 153 -148 164l28 132q85 6 137 50.5t76 101t38 123.5l64 301q24 113 64 182t107 102.5t171 33.5h19l-24 -113h-14
q-62 0 -102.5 -22t-66 -70t-42.5 -129l-62 -293q-31 -145 -97.5 -225t-175.5 -116q142 -54 142 -225z" />
    <glyph glyph-name="bar" unicode="|" horiz-adv-x="455" 
d="M279 -406h-103v1872h103v-1872z" />
    <glyph glyph-name="braceright" unicode="}" horiz-adv-x="682" 
d="M293 763q0 54 13 115l60 279q14 64 14 104q0 62 -31 89.5t-100 27.5h-14l24 113h19q218 0 218 -215q0 -61 -17 -137l-58 -267q-14 -66 -14 -112q0 -153 148 -164l-28 -132q-85 -6 -137 -50.5t-76 -101t-38 -123.5l-64 -301q-24 -113 -64 -182t-107 -102.5t-171 -33.5h-19
l24 113h14q62 0 102.5 22t66 70t42.5 129l62 293q31 145 97.5 225t175.5 116q-142 54 -142 225z" />
    <glyph glyph-name="asciitilde" unicode="~" horiz-adv-x="1148" 
d="M761 592q-52 0 -100.5 21.5t-115.5 65.5q-56 37 -94 55t-75 18q-100 0 -261 -134l26 121q126 109 241 109q54 0 103 -21.5t110 -64.5q55 -38 94.5 -56t80.5 -18q44 0 114.5 37.5t142.5 99.5l-26 -121q-89 -66 -138.5 -89t-101.5 -23z" />
    <glyph glyph-name="Euro" unicode="&#x20ac;" 
d="M249 490q0 -191 100 -301t293 -110q82 0 163 21t147 61l-28 -131q-64 -27 -140 -41t-140 -14q-175 0 -293.5 63t-176.5 178t-58 272q0 36 3 73h-130l39 94h101q15 85 36 161h-122l39 94h116q69 175 176.5 299.5t247.5 190.5t303 66q98 0 174.5 -17.5t146.5 -52.5
l-54 -114q-50 34 -124.5 57t-140.5 23q-127 0 -241 -52t-205.5 -153.5t-149.5 -246.5h701l-39 -94h-695q-23 -81 -36 -161h663l-39 -94h-634q-3 -57 -3 -71z" />
    <glyph glyph-name="quotesinglbase" unicode="&#x201a;" horiz-adv-x="455" 
d="M-30 -272l-39 71q44 29 67.5 52.5t38 56.5t28.5 92h-81l39 185h175l-41 -193q-20 -93 -65.5 -155t-121.5 -109z" />
    <glyph glyph-name="florin" unicode="&#x192;" 
d="M987 1354q-70 0 -116.5 -44t-87.5 -138l-67 -153h222l-41 -92h-219l-471 -1097q-58 -134 -138.5 -197t-183.5 -63q-49 0 -88 8t-84 23l34 101q53 -20 139 -20q52 0 87 17t66 60.5t67 127.5l445 1040h-198l37 92h198l83 183q40 89 80.5 145t98.5 87.5t141 31.5
q42 0 91.5 -9t83.5 -24l-32 -99q-77 20 -147 20z" />
    <glyph glyph-name="quotedblbase" unicode="&#x201e;" horiz-adv-x="797" 
d="M-30 -272l-39 71q44 29 67.5 52.5t38 56.5t28.5 92h-81l39 185h175l-41 -193q-20 -93 -65.5 -155t-121.5 -109zM312 -272l-39 71q44 29 67.5 52.5t38 56.5t28.5 92h-81l39 185h175l-41 -193q-20 -93 -65.5 -155t-121.5 -109z" />
    <glyph glyph-name="ellipsis" unicode="&#x2026;" horiz-adv-x="2048" 
d="M98 0l39 185h175l-39 -185h-175zM781 0l39 185h175l-39 -185h-175zM1464 0l39 185h175l-39 -185h-175z" />
    <glyph glyph-name="dagger" unicode="&#x2020;" horiz-adv-x="1109" 
d="M1080 1021l-23 -110h-400l-263 -1239h-129l263 1239h-400l23 110h400l95 445h129l-95 -445h400z" />
    <glyph glyph-name="daggerdbl" unicode="&#x2021;" horiz-adv-x="1109" 
d="M1091 1069l-24 -111h-400l-165 -778h400l-24 -111h-400l-84 -397h-129l84 397h-400l24 111h400l165 778h-400l24 111h400l84 397h129l-84 -397h400z" />
    <glyph glyph-name="circumflex" unicode="&#x2c6;" horiz-adv-x="682" 
d="M587 1200l-98 184l-180 -184h-140l254 266h148l140 -266h-124z" />
    <glyph glyph-name="perthousand" unicode="&#x2030;" horiz-adv-x="2586" 
d="M158 990q0 141 47 255t136 180t211 66q89 0 154 -38.5t99.5 -109t34.5 -162.5q0 -147 -45 -259.5t-134 -176t-217 -63.5q-143 0 -214.5 82t-71.5 226zM345 -53h-105l1186 1544h104zM540 1393q-80 0 -139 -53t-91 -146t-32 -208q0 -101 40.5 -153.5t135.5 -52.5
q78 0 138.5 46t94 136t33.5 218q0 106 -49.5 159.5t-130.5 53.5zM936 284q0 141 47 255t136 180t211 66q89 0 154 -38.5t99.5 -109t34.5 -162.5q0 -147 -45 -259.5t-134 -176t-217 -63.5q-143 0 -214.5 82t-71.5 226zM1730 284q0 141 47 255t136 180t211 66q89 0 154 -38.5
t99.5 -109t34.5 -162.5q0 -147 -45 -259.5t-134 -176t-217 -63.5q-143 0 -214.5 82t-71.5 226zM1318 687q-80 0 -139 -53t-91 -146t-32 -208q0 -101 40.5 -153.5t135.5 -52.5q78 0 138.5 46t94 136t33.5 218q0 106 -49.5 159.5t-130.5 53.5zM2112 687q-80 0 -139 -53
t-91 -146t-32 -208q0 -101 40.5 -153.5t135.5 -52.5q78 0 138.5 46t94 136t33.5 218q0 106 -49.5 159.5t-130.5 53.5z" />
    <glyph glyph-name="Scaron" unicode="&#x160;" horiz-adv-x="1251" 
d="M740 1372q-116 0 -201.5 -39.5t-131 -108.5t-45.5 -158q0 -56 24 -99t84.5 -77t168.5 -58q165 -37 262.5 -87t143.5 -128t46 -200q0 -125 -70.5 -225.5t-203.5 -158.5t-312 -58q-234 0 -351 126t-124 339l133 21q8 -180 94 -273.5t250 -93.5q137 0 236.5 42.5t151 115
t51.5 167.5q0 80 -26.5 130t-103 88.5t-226.5 69.5q-196 41 -285 130t-89 226q0 120 69.5 218t190 154t267.5 56q215 0 333.5 -101.5t123.5 -310.5l-134 -14q-5 307 -326 307zM711 1835l100 -184l178 184h141l-254 -266h-148l-140 266h123z" />
    <glyph glyph-name="guilsinglleft" unicode="&#x2039;" horiz-adv-x="715" 
d="M258 520l163 -448h-106l-200 458l390 449h108z" />
    <glyph glyph-name="OE" unicode="&#x152;" horiz-adv-x="2099" 
d="M85 580q0 250 89 458t253.5 330.5t381.5 122.5q101 0 189 -42.5t151 -121t92 -184.5l69 323h812l-27 -125h-688l-111 -522h633l-26 -125h-633l-121 -569h723l-27 -125h-847l41 191q-89 -104 -203.5 -160t-247.5 -56q-143 0 -257.5 76t-180 213.5t-65.5 315.5zM808 1372
q-178 0 -309 -105.5t-199.5 -286t-68.5 -399.5q0 -145 44 -255t128 -171t200 -61q165 0 293.5 98.5t200 277t71.5 410.5q0 152 -41 262.5t-122 170t-197 59.5z" />
    <glyph glyph-name="Zcaron" unicode="&#x17d;" horiz-adv-x="1199" 
d="M89 125h931l-27 -125h-1101l27 129l1148 1212h-816l27 125h996l-26 -120zM690 1835l100 -184l178 184h141l-254 -266h-148l-140 266h123z" />
    <glyph glyph-name="quoteleft" unicode="&#x2018;" horiz-adv-x="455" 
d="M432 1491l39 -71q-44 -29 -67.5 -52.5t-38 -56.5t-28.5 -92h81l-39 -185h-175l41 193q20 93 65.5 155t121.5 109z" />
    <glyph glyph-name="quoteright" unicode="&#x2019;" horiz-adv-x="455" 
d="M243 1009l-39 71q44 29 67.5 52.5t38 56.5t28.5 92h-81l39 185h175l-41 -193q-20 -93 -65.5 -155t-121.5 -109z" />
    <glyph glyph-name="quotedblleft" unicode="&#x201c;" horiz-adv-x="797" 
d="M432 1491l39 -71q-44 -29 -67.5 -52.5t-38 -56.5t-28.5 -92h81l-39 -185h-175l41 193q20 93 65.5 155t121.5 109zM774 1491l39 -71q-44 -29 -67.5 -52.5t-38 -56.5t-28.5 -92h81l-39 -185h-175l41 193q20 93 65.5 155t121.5 109z" />
    <glyph glyph-name="quotedblright" unicode="&#x201d;" horiz-adv-x="797" 
d="M243 1009l-39 71q44 29 67.5 52.5t38 56.5t28.5 92h-81l39 185h175l-41 -193q-20 -93 -65.5 -155t-121.5 -109zM585 1009l-39 71q44 29 67.5 52.5t38 56.5t28.5 92h-81l39 185h175l-41 -193q-20 -93 -65.5 -155t-121.5 -109z" />
    <glyph glyph-name="bullet" unicode="&#x2022;" horiz-adv-x="752" 
d="M125 718q0 68 34.5 125.5t93 91t125.5 33.5q66 0 123.5 -34.5t91.5 -92t34 -123.5q0 -67 -34 -125t-91 -92.5t-124 -34.5t-125.5 34t-93 91.5t-34.5 126.5z" />
    <glyph glyph-name="endash" unicode="&#x2013;" horiz-adv-x="1024" 
d="M-69 465l20 94h1048l-20 -94h-1048z" />
    <glyph glyph-name="emdash" unicode="&#x2014;" horiz-adv-x="2048" 
d="M-69 465l20 94h2072l-20 -94h-2072z" />
    <glyph glyph-name="tilde" unicode="&#x2dc;" horiz-adv-x="682" 
d="M586 1230q-66 0 -136 42q-41 24 -66 32.5t-47 8.5q-29 0 -47 -20t-30 -63h-105q25 96 71 142t122 46q63 0 133 -42q41 -24 66.5 -32.5t47.5 -8.5q29 0 47 20t30 63h105q-24 -91 -70.5 -139.5t-120.5 -48.5z" />
    <glyph glyph-name="trademark" unicode="&#x2122;" horiz-adv-x="1584" 
d="M386 1378v-727h-100v727h-256v88h612v-88h-256zM1096 835l211 631h157v-815h-100v667h-4l-233 -667h-70l-220 667h-4v-667h-100v815h156l203 -631h4z" />
    <glyph glyph-name="scaron" unicode="&#x161;" horiz-adv-x="961" 
d="M512 976q-76 0 -138.5 -25.5t-99 -72t-36.5 -108.5q0 -43 20.5 -71.5t72 -50.5t146.5 -40q113 -22 181.5 -56t101.5 -90.5t33 -144.5q0 -100 -58 -178t-159.5 -121t-227.5 -43q-181 0 -270.5 80.5t-97.5 225.5l131 20q4 -107 59.5 -162t176.5 -55q88 0 158 29t110 82.5
t40 124.5q0 48 -22 79.5t-80.5 55.5t-168.5 44q-148 27 -212.5 90.5t-64.5 174.5q0 90 54 163.5t149 115.5t208 42q160 0 244.5 -66.5t100.5 -191.5l-130 -18q-4 81 -60 124t-161 43zM501 1466l100 -184l178 184h141l-254 -266h-148l-140 266h123z" />
    <glyph glyph-name="guilsinglright" unicode="&#x203a;" horiz-adv-x="715" 
d="M368 531l-163 448h106l200 -458l-390 -449h-108z" />
    <glyph glyph-name="oe" unicode="&#x153;" horiz-adv-x="1841" 
d="M12 405q0 203 76 358t205.5 238.5t285.5 83.5q134 0 223.5 -67.5t129.5 -185.5q77 116 187 184.5t235 68.5q187 0 280 -103t93 -295q0 -72 -23 -181h-766q-12 -64 -12 -121q0 -143 69.5 -222t192.5 -79q102 0 188.5 57.5t140.5 159.5l117 -20q-78 -153 -196.5 -229.5
t-251.5 -76.5q-284 0 -356 232q-73 -111 -180 -171.5t-239 -60.5q-131 0 -220.5 53t-134 149.5t-44.5 227.5zM1599 695q0 140 -61 211t-182 71q-87 0 -164.5 -43t-136.5 -124.5t-92 -195.5h631q5 48 5 81zM573 976q-117 0 -214.5 -69.5t-154.5 -200t-57 -304.5
q0 -103 33.5 -174.5t93 -107.5t137.5 -36q120 0 216.5 69.5t152.5 199t56 301.5q0 102 -32.5 174.5t-91.5 110t-139 37.5z" />
    <glyph glyph-name="zcaron" unicode="&#x17e;" horiz-adv-x="929" 
d="M77 109h674l-23 -109h-834l23 109l807 847h-586l23 105h760l-18 -84zM468 1466l100 -184l178 184h141l-254 -266h-148l-140 266h123z" />
    <glyph glyph-name="Ydieresis" unicode="&#x178;" horiz-adv-x="1221" 
d="M1199 1466h166l-715 -833l-135 -633h-139l135 633l-343 833h146l288 -709zM697 1591h-123l34 162h123zM1006 1591h-123l34 162h123z" />
    <glyph glyph-name="uni00A0" unicode="&#xa0;" horiz-adv-x="537" 
 />
    <glyph glyph-name="exclamdown" unicode="&#xa1;" horiz-adv-x="682" 
d="M498 1061l-40 -185h-175l40 185h175zM293 699h82l-130 -775l-70 -329h-152l70 329z" />
    <glyph glyph-name="cent" unicode="&#xa2;" 
d="M779 925l-424 -832q33 -9 74 -9q122 0 217.5 66t162.5 216l128 -24q-79 -189 -211.5 -278t-302.5 -89q-65 0 -121 14l-195 -382l-80 34l193 379q-93 50 -140 150.5t-47 238.5q0 189 73.5 343.5t206.5 243.5t303 89q76 0 138 -17l196 384l80 -34l-195 -382
q138 -76 169 -274l-131 -24q-17 128 -94 187zM276 130l425 834q-40 12 -89 12q-121 0 -223.5 -68t-161.5 -197t-59 -302q0 -96 27.5 -167.5t80.5 -111.5z" />
    <glyph glyph-name="sterling" unicode="&#xa3;" 
d="M711 1362q-109 0 -191.5 -49.5t-128 -143t-45.5 -221.5q0 -38 4 -87t11 -92h357l-21 -102h-325l1 -64q0 -84 -24.5 -155t-82.5 -141t-161 -157l3 -5q43 15 91 23t89 8t85.5 -9.5t111.5 -28.5t113 -28.5t89 -9.5q102 0 227 62l25 -116q-71 -36 -142.5 -53.5t-134.5 -17.5
q-53 0 -100 12.5t-115 36.5q-65 23 -105.5 33.5t-84.5 10.5q-83 0 -151 -22t-147 -71l-35 125q120 89 188.5 165.5t97.5 151.5t29 163q0 18 -3 87h-191l21 102h159q-6 36 -9 83t-3 84q0 159 60 278.5t175.5 185.5t275.5 66q124 0 209.5 -46.5t130 -129t49.5 -191.5l-129 -22
q-1 134 -70.5 209.5t-202.5 75.5z" />
    <glyph glyph-name="currency" unicode="&#xa4;" 
d="M261 965l-163 163l64 64l163 -163q51 41 114 63t131 22t130.5 -22t113.5 -63l163 163l64 -64l-163 -163q40 -51 62.5 -114t22.5 -131t-22 -131t-63 -114l163 -163l-64 -64l-163 163q-51 -41 -113.5 -63t-130.5 -22q-69 0 -131.5 22t-113.5 63l-163 -163l-64 64l163 163
q-41 51 -63 113.5t-22 131.5q0 68 22 131t63 114zM570 419q82 0 150.5 40.5t109 109.5t40.5 151t-40.5 151t-109 109.5t-150.5 40.5t-151 -40.5t-109.5 -109.5t-40.5 -151t40.5 -151t109.5 -109.5t151 -40.5z" />
    <glyph glyph-name="yen" unicode="&#xa5;" 
d="M1129 1446h153l-579 -721h366l-20 -94h-422l-16 -20l-29 -136h434l-20 -94h-434l-81 -381h-131l81 381h-438l20 94h438l29 136l-6 20h-428l20 94h370l-277 721h137l266 -721z" />
    <glyph glyph-name="brokenbar" unicode="&#xa6;" horiz-adv-x="455" 
d="M279 713h-103v753h103v-753zM279 -406h-103v752h103v-752z" />
    <glyph glyph-name="section" unicode="&#xa7;" horiz-adv-x="1109" 
d="M669 147q50 -44 74.5 -102t24.5 -135q0 -95 -53.5 -172.5t-152.5 -122.5t-231 -45q-191 0 -283 92t-101 262v1l135 16q4 -139 65 -200t182 -61q146 0 228.5 62.5t82.5 173.5q0 47 -22.5 84t-73.5 73l-347 249q-79 57 -114 121t-35 151q0 199 317 334q-42 39 -65 95
t-23 124q0 98 53 176.5t145.5 123t207.5 44.5q176 0 256.5 -89.5t92.5 -243.5v-1l-134 -16q-4 120 -60.5 180t-151.5 60q-91 0 -154.5 -33.5t-94.5 -87t-31 -113.5q0 -44 20 -78t64 -67l322 -243q93 -70 129.5 -133t36.5 -152q0 -96 -75 -176.5t-234 -150.5zM175 601
q0 -44 24.5 -89t81.5 -86l309 -222q121 42 190.5 111t69.5 153q0 93 -105 172l-304 229q-124 -40 -195 -110.5t-71 -157.5z" />
    <glyph glyph-name="dieresis" unicode="&#xa8;" horiz-adv-x="682" 
d="M352 1222h-123l34 162h123zM661 1222h-123l34 162h123z" />
    <glyph glyph-name="copyright" unicode="&#xa9;" horiz-adv-x="1638" 
d="M61 733q0 211 105.5 384.5t280 273.5t372.5 100q209 0 383 -105t274.5 -279.5t100.5 -373.5q0 -210 -105 -383.5t-279.5 -274t-373.5 -100.5q-210 0 -384 105t-274 279.5t-100 373.5zM819 63q182 0 336 90t244 243.5t90 335.5t-90 336t-244 244.5t-336 90.5t-336 -90.5
t-244 -244.5t-90 -336t90 -335.5t244 -243.5t336 -90zM821 1078q-129 0 -200.5 -87.5t-71.5 -247.5q0 -98 33 -174t93.5 -118t141.5 -42q99 0 158.5 49t88.5 147l101 -30q-35 -120 -125.5 -189t-219.5 -69q-114 0 -200 51t-133.5 147t-47.5 226q0 132 47.5 228.5
t135.5 148.5t205 52q120 0 208 -60t122 -161l-99 -35q-25 80 -86 122t-151 42z" />
    <glyph glyph-name="ordfeminine" unicode="&#xaa;" horiz-adv-x="723" 
d="M653 827q0 -34 7 -63h-104q-5 37 -5 64q0 24 2 36q-62 -60 -130.5 -92.5t-132.5 -32.5q-90 0 -137.5 46t-47.5 132q0 103 64.5 162t220.5 82q173 25 231 51l5 26q8 42 8 67q0 56 -31 80t-101 24q-79 0 -125.5 -34t-80.5 -111l-94 20q48 109 119 158t184 49q123 0 179 -46
t56 -135q0 -40 -11 -90l-58 -263q-18 -79 -18 -130zM384 1078q-90 -15 -131.5 -51.5t-41.5 -109.5q0 -43 25 -67.5t70 -24.5q88 0 164 54q94 66 121 191l13 60q-68 -27 -220 -52z" />
    <glyph glyph-name="guillemotleft" unicode="&#xab;" 
d="M258 520l163 -448h-106l-200 458l390 449h108zM682 520l163 -448h-106l-200 458l390 449h108z" />
    <glyph glyph-name="logicalnot" unicode="&#xac;" horiz-adv-x="1148" 
d="M904 441v457h-764v95h858v-552h-94z" />
    <glyph glyph-name="uni00AD" unicode="&#xad;" horiz-adv-x="682" 
d="M17 467l27 125h534l-27 -125h-534z" />
    <glyph glyph-name="registered" unicode="&#xae;" horiz-adv-x="1638" 
d="M61 733q0 211 105.5 384.5t280 273.5t372.5 100q209 0 383 -105t274.5 -279.5t100.5 -373.5q0 -210 -105 -383.5t-278.5 -274t-374.5 -100.5q-210 0 -384 105t-274 279.5t-100 373.5zM819 63q182 0 336 90t244 243.5t90 335.5t-90 336t-244 244.5t-336 90.5t-336 -90.5
t-244 -244.5t-90 -336t90 -335.5t244 -243.5t336 -90zM1134 928q0 -89 -60.5 -144t-168.5 -66l-1 -4q41 -8 76.5 -43.5t78.5 -118.5l108 -208h-121l-92 190q-32 66 -57.5 96.5t-61 41.5t-100.5 11h-103v-340h-102v803h329q136 0 205.5 -59t69.5 -159zM1024 925
q0 65 -41.5 97t-139.5 32h-211v-279h178q113 0 163.5 36t50.5 114z" />
    <glyph glyph-name="glyph140" horiz-adv-x="682" 
d="M154 1227l23 110h584l-23 -110h-584z" />
    <glyph glyph-name="degree" unicode="&#xb0;" horiz-adv-x="705" 
d="M353 1491q76 0 140.5 -38t102 -102.5t37.5 -140.5t-37.5 -140.5t-102 -102.5t-140.5 -38t-140.5 38t-102.5 102.5t-38 140.5t38 140.5t102.5 102.5t140.5 38zM353 1011q54 0 99.5 26.5t72 72.5t26.5 100t-26.5 100t-72 72.5t-99.5 26.5t-99.5 -27t-72.5 -72.5t-27 -99.5
t27 -99.5t72.5 -72.5t99.5 -27z" />
    <glyph glyph-name="plusminus" unicode="&#xb1;" horiz-adv-x="1148" 
d="M621 768h387v-94h-387v-430h-94v430h-387v94h387v429h94v-429zM140 0v94h868v-94h-868z" />
    <glyph glyph-name="uni00B2" unicode="&#xb2;" horiz-adv-x="682" 
d="M52 714l1 7q8 48 43 96t115 108.5t220 141.5q68 39 106.5 69.5t57.5 64t19 76.5q0 45 -35 71t-95 26q-78 0 -123 -32t-77 -104l-103 17q50 115 123 163t182 48q120 0 181.5 -52.5t61.5 -142.5q0 -63 -46 -130.5t-171 -140.5q-144 -85 -203.5 -124t-83.5 -66h412l-20 -96
h-565z" />
    <glyph glyph-name="uni00B3" unicode="&#xb3;" horiz-adv-x="682" 
d="M672 949q0 -76 -41.5 -134t-113 -89.5t-159.5 -31.5q-125 0 -191 55.5t-76 155.5l114 15q7 -63 42.5 -96.5t107.5 -33.5q59 0 105.5 22t72 60t25.5 84q0 48 -37 74.5t-111 26.5q-30 0 -67 -5l35 89q118 3 168 42.5t50 99.5q0 44 -32 67.5t-87 23.5q-67 0 -113.5 -26.5
t-79.5 -88.5l-104 16q44 94 122 142.5t174 48.5q114 0 174 -48t60 -133q0 -66 -38.5 -107.5t-123.5 -67.5q60 -15 92 -57t32 -104z" />
    <glyph glyph-name="acute" unicode="&#xb4;" horiz-adv-x="682" 
d="M321 1200l210 266h180l-282 -266h-108z" />
    <glyph glyph-name="uni00B5" unicode="&#xb5;" horiz-adv-x="1107" 
d="M212 470q-19 -90 -19 -154q0 -232 221 -232q138 0 234 105.5t133 280.5l126 591h129l-226 -1061h-121l31 144q-74 -96 -147.5 -132.5t-164.5 -36.5q-105 0 -167.5 39t-99.5 118l-115 -538h-129l312 1467h129z" />
    <glyph glyph-name="paragraph" unicode="&#xb6;" horiz-adv-x="1109" 
d="M1074 1356l-375 -1762h-129l375 1762h-222l-375 -1762h-129l219 1031h-10q-157 0 -239 99t-82 276q0 126 63 232.5t183 170t284 63.5h617l-23 -110h-157z" />
    <glyph glyph-name="periodcentered" unicode="&#xb7;" horiz-adv-x="569" 
d="M175 630l39 185h175l-39 -185h-175z" />
    <glyph glyph-name="cedilla" unicode="&#xb8;" horiz-adv-x="682" 
d="M168 -90q73 -9 108 -41.5t35 -90.5q0 -87 -75 -135.5t-224 -48.5q-40 0 -73.5 2t-43.5 4l26 87q44 -4 81 -4q179 0 179 100q0 32 -32 52t-97 20l80 159h88z" />
    <glyph glyph-name="uni00B9" unicode="&#xb9;" horiz-adv-x="682" 
d="M345 714l130 610q-122 -98 -255 -139l18 84q90 35 160 82t136 115h77l-160 -752h-106z" />
    <glyph glyph-name="ordmasculine" unicode="&#xba;" horiz-adv-x="770" 
d="M125 1045q0 133 51.5 234.5t140.5 156.5t199 55q136 0 212 -84t76 -233q0 -132 -53.5 -231t-144 -151.5t-198.5 -52.5q-94 0 -157.5 40.5t-94.5 109.5t-31 156zM510 1405q-79 0 -141.5 -44.5t-97.5 -126.5t-35 -191q0 -104 46.5 -161t126.5 -57q82 0 147 44.5t102 125
t37 186.5q0 105 -48.5 164.5t-136.5 59.5z" />
    <glyph glyph-name="guillemotright" unicode="&#xbb;" 
d="M368 531l-163 448h106l200 -458l-390 -449h-108zM792 531l-163 448h106l200 -458l-390 -449h-108z" />
    <glyph glyph-name="onequarter" unicode="&#xbc;" horiz-adv-x="1628" 
d="M345 714l130 610q-122 -98 -255 -139l18 84q90 35 160 82t136 115h77l-160 -752h-106zM249 -53h-113l1301 1544h113zM1357 254h109l-18 -84h-109l-36 -170h-98l36 170h-381l18 84l504 498h81zM1330 586l-337 -332h266z" />
    <glyph glyph-name="onehalf" unicode="&#xbd;" horiz-adv-x="1628" 
d="M345 714l130 610q-122 -98 -255 -139l18 84q90 35 160 82t136 115h77l-160 -752h-106zM224 -53h-113l1301 1544h113zM846 0l1 7q8 48 43 96t115 108.5t220 141.5q68 39 106.5 69.5t57.5 64t19 76.5q0 45 -35 71t-95 26q-78 0 -123 -32t-77 -104l-103 17q50 115 123 163
t182 48q120 0 181.5 -52.5t61.5 -142.5q0 -63 -46 -130.5t-171 -140.5q-144 -85 -203.5 -124t-83.5 -66h412l-20 -96h-565z" />
    <glyph glyph-name="threequarters" unicode="&#xbe;" horiz-adv-x="1628" 
d="M672 949q0 -76 -41.5 -134t-113 -89.5t-159.5 -31.5q-125 0 -191 55.5t-76 155.5l114 15q7 -63 42.5 -96.5t107.5 -33.5q59 0 105.5 22t72 60t25.5 84q0 48 -37 74.5t-111 26.5q-30 0 -67 -5l35 89q118 3 168 42.5t50 99.5q0 44 -32 67.5t-87 23.5q-67 0 -113.5 -26.5
t-79.5 -88.5l-104 16q44 94 122 142.5t174 48.5q114 0 174 -48t60 -133q0 -66 -38.5 -107.5t-123.5 -67.5q60 -15 92 -57t32 -104zM254 -53h-113l1301 1544h113zM1357 254h109l-18 -84h-109l-36 -170h-98l36 170h-381l18 84l504 498h81zM1330 586l-337 -332h266z" />
    <glyph glyph-name="questiondown" unicode="&#xbf;" horiz-adv-x="1024" 
d="M694 1061l-40 -185h-175l40 185h175zM583 641q-21 -99 -52 -164t-82.5 -117t-141.5 -115q-101 -71 -150 -114.5t-73.5 -95.5t-24.5 -130q0 -105 61.5 -162.5t172.5 -57.5q80 0 143 27.5t116.5 93.5t99.5 178l130 -23q-81 -204 -201.5 -297.5t-296.5 -93.5
q-113 0 -196 46.5t-126.5 123t-43.5 163.5t27.5 151t92.5 128t192 158q92 67 132 107t59.5 84t38.5 132l8 36h127z" />
    <glyph glyph-name="Agrave" unicode="&#xc0;" horiz-adv-x="1323" 
d="M1019 0l-83 465h-661l-271 -465h-156l873 1466h160l282 -1466h-144zM610 1038l-270 -458h576l-83 452q-27 147 -45 328h-4q-74 -153 -174 -322zM845 1569l-173 266h169l102 -266h-98z" />
    <glyph glyph-name="Aacute" unicode="&#xc1;" horiz-adv-x="1323" 
d="M1019 0l-83 465h-661l-271 -465h-156l873 1466h160l282 -1466h-144zM610 1038l-270 -458h576l-83 452q-27 147 -45 328h-4q-74 -153 -174 -322zM710 1569l210 266h180l-282 -266h-108z" />
    <glyph glyph-name="Acircumflex" unicode="&#xc2;" horiz-adv-x="1323" 
d="M1019 0l-83 465h-661l-271 -465h-156l873 1466h160l282 -1466h-144zM610 1038l-270 -458h576l-83 452q-27 147 -45 328h-4q-74 -153 -174 -322zM965 1569l-98 184l-180 -184h-140l254 266h148l140 -266h-124z" />
    <glyph glyph-name="Atilde" unicode="&#xc3;" horiz-adv-x="1323" 
d="M1019 0l-83 465h-661l-271 -465h-156l873 1466h160l282 -1466h-144zM610 1038l-270 -458h576l-83 452q-27 147 -45 328h-4q-74 -153 -174 -322zM963 1599q-66 0 -136 42q-41 24 -66 32.5t-47 8.5q-29 0 -47 -20t-30 -63h-105q25 96 71 142t122 46q63 0 133 -42
q41 -24 66.5 -32.5t47.5 -8.5q29 0 47 20t30 63h105q-24 -91 -70.5 -139.5t-120.5 -48.5z" />
    <glyph glyph-name="Adieresis" unicode="&#xc4;" horiz-adv-x="1323" 
d="M1019 0l-83 465h-661l-271 -465h-156l873 1466h160l282 -1466h-144zM610 1038l-270 -458h576l-83 452q-27 147 -45 328h-4q-74 -153 -174 -322zM735 1591h-123l34 162h123zM1044 1591h-123l34 162h123z" />
    <glyph glyph-name="Aring" unicode="&#xc5;" horiz-adv-x="1323" 
d="M830 1797q49 0 90 -24t65 -65t24 -90q0 -59 -35 -106.5t-90 -64.5l279 -1447h-144l-83 465h-661l-271 -465h-156l876 1473q-34 24 -53.5 62.5t-19.5 82.5q0 49 24 90t65 65t90 24zM830 1504q47 0 80.5 33.5t33.5 80.5t-33.5 80.5t-80.5 33.5t-80.5 -33.5t-33.5 -80.5
t33.5 -80.5t80.5 -33.5zM610 1038l-270 -458h576l-83 452q-27 147 -45 328h-4q-74 -153 -174 -322z" />
    <glyph glyph-name="AE" unicode="&#xc6;" horiz-adv-x="1996" 
d="M1246 1341l-111 -522h691l-26 -125h-691l-121 -569h781l-27 -125h-920l99 465h-618l-323 -465h-156l1022 1466h1173l-27 -125h-746zM1107 1341h-199l-526 -761h563z" />
    <glyph glyph-name="Ccedilla" unicode="&#xc7;" horiz-adv-x="1457" 
d="M83 564q0 270 105.5 481t292.5 328.5t422 117.5q140 0 246 -47.5t171.5 -136t86.5 -209.5l-142 -33q-25 151 -118.5 229t-254.5 78q-204 0 -353.5 -105.5t-228.5 -288t-79 -407.5q0 -231 102.5 -354t295.5 -123q367 0 545 374l129 -36q-110 -227 -277 -342t-403 -115h-3
l-32 -65q73 -9 108 -41.5t35 -90.5q0 -82 -71.5 -133t-227.5 -51q-40 0 -73.5 2t-43.5 4l26 87q44 -4 81 -4q179 0 179 100q0 32 -31.5 52t-97.5 20l63 126q-144 18 -245 95t-154 202t-53 286z" />
    <glyph glyph-name="Egrave" unicode="&#xc8;" horiz-adv-x="1192" 
d="M442 1341l-111 -522h691l-26 -125h-691l-121 -569h781l-27 -125h-920l312 1466h885l-27 -125h-746zM800 1569l-173 266h169l102 -266h-98z" />
    <glyph glyph-name="Eacute" unicode="&#xc9;" horiz-adv-x="1192" 
d="M442 1341l-111 -522h691l-26 -125h-691l-121 -569h781l-27 -125h-920l312 1466h885l-27 -125h-746zM676 1569l210 266h180l-282 -266h-108z" />
    <glyph glyph-name="Ecircumflex" unicode="&#xca;" horiz-adv-x="1192" 
d="M442 1341l-111 -522h691l-26 -125h-691l-121 -569h781l-27 -125h-920l312 1466h885l-27 -125h-746zM942 1569l-98 184l-180 -184h-140l254 266h148l140 -266h-124z" />
    <glyph glyph-name="Edieresis" unicode="&#xcb;" horiz-adv-x="1192" 
d="M442 1341l-111 -522h691l-26 -125h-691l-121 -569h781l-27 -125h-920l312 1466h885l-27 -125h-746zM700 1591h-123l34 162h123zM1009 1591h-123l34 162h123z" />
    <glyph glyph-name="Igrave" unicode="&#xcc;" horiz-adv-x="487" 
d="M18 0l312 1466h139l-312 -1466h-139zM438 1569l-173 266h169l102 -266h-98z" />
    <glyph glyph-name="Iacute" unicode="&#xcd;" horiz-adv-x="487" 
d="M18 0l312 1466h139l-312 -1466h-139zM304 1569l210 266h180l-282 -266h-108z" />
    <glyph glyph-name="Icircumflex" unicode="&#xce;" horiz-adv-x="487" 
d="M18 0l312 1466h139l-312 -1466h-139zM570 1569l-98 184l-180 -184h-140l254 266h148l140 -266h-124z" />
    <glyph glyph-name="Idieresis" unicode="&#xcf;" horiz-adv-x="487" 
d="M18 0l312 1466h139l-312 -1466h-139zM334 1591h-123l34 162h123zM643 1591h-123l34 162h123z" />
    <glyph glyph-name="Eth" unicode="&#xd0;" horiz-adv-x="1434" 
d="M1354 917q0 -278 -96.5 -485t-277.5 -319.5t-429 -112.5h-533l144 676h-174l23 110h174l145 680h475q275 0 412 -145t137 -404zM1209 919q0 422 -408 422h-359l-118 -555h457l-23 -110h-457l-117 -551h359q211 0 360.5 93.5t227.5 271.5t78 429z" />
    <glyph glyph-name="Ntilde" unicode="&#xd1;" horiz-adv-x="1423" 
d="M1006 199l271 1267h128l-312 -1466h-149l-526 1260h-4l-268 -1260h-128l312 1466h140l529 -1267h7zM1041 1599q-66 0 -136 42q-41 24 -66 32.5t-47 8.5q-29 0 -47 -20t-30 -63h-105q25 96 71 142t122 46q63 0 133 -42q41 -24 66.5 -32.5t47.5 -8.5q29 0 47 20t30 63h105
q-24 -91 -70.5 -139.5t-120.5 -48.5z" />
    <glyph glyph-name="Ograve" unicode="&#xd2;" horiz-adv-x="1584" 
d="M85 580q0 263 102 470.5t287 324t419 116.5q177 0 315 -76t214.5 -213t76.5 -315q0 -266 -106.5 -473.5t-295 -323t-425.5 -115.5q-170 0 -303.5 76t-208.5 213.5t-75 315.5zM888 1372q-204 0 -354 -105t-227 -285t-77 -401q0 -148 54.5 -257.5t157 -169.5t243.5 -60
q190 0 342.5 96.5t239.5 275t87 414.5q0 153 -56 263.5t-161 169.5t-249 59zM940 1569l-173 266h169l102 -266h-98z" />
    <glyph glyph-name="Oacute" unicode="&#xd3;" horiz-adv-x="1584" 
d="M85 580q0 263 102 470.5t287 324t419 116.5q177 0 315 -76t214.5 -213t76.5 -315q0 -266 -106.5 -473.5t-295 -323t-425.5 -115.5q-170 0 -303.5 76t-208.5 213.5t-75 315.5zM888 1372q-204 0 -354 -105t-227 -285t-77 -401q0 -148 54.5 -257.5t157 -169.5t243.5 -60
q190 0 342.5 96.5t239.5 275t87 414.5q0 153 -56 263.5t-161 169.5t-249 59zM816 1569l210 266h180l-282 -266h-108z" />
    <glyph glyph-name="Ocircumflex" unicode="&#xd4;" horiz-adv-x="1584" 
d="M85 580q0 263 102 470.5t287 324t419 116.5q177 0 315 -76t214.5 -213t76.5 -315q0 -266 -106.5 -473.5t-295 -323t-425.5 -115.5q-170 0 -303.5 76t-208.5 213.5t-75 315.5zM888 1372q-204 0 -354 -105t-227 -285t-77 -401q0 -148 54.5 -257.5t157 -169.5t243.5 -60
q190 0 342.5 96.5t239.5 275t87 414.5q0 153 -56 263.5t-161 169.5t-249 59zM1092 1569l-98 184l-180 -184h-140l254 266h148l140 -266h-124z" />
    <glyph glyph-name="Otilde" unicode="&#xd5;" horiz-adv-x="1584" 
d="M85 580q0 263 102 470.5t287 324t419 116.5q177 0 315 -76t214.5 -213t76.5 -315q0 -266 -106.5 -473.5t-295 -323t-425.5 -115.5q-170 0 -303.5 76t-208.5 213.5t-75 315.5zM888 1372q-204 0 -354 -105t-227 -285t-77 -401q0 -148 54.5 -257.5t157 -169.5t243.5 -60
q190 0 342.5 96.5t239.5 275t87 414.5q0 153 -56 263.5t-161 169.5t-249 59zM1081 1599q-66 0 -136 42q-41 24 -66 32.5t-47 8.5q-29 0 -47 -20t-30 -63h-105q25 96 71 142t122 46q63 0 133 -42q41 -24 66.5 -32.5t47.5 -8.5q29 0 47 20t30 63h105q-24 -91 -70.5 -139.5
t-120.5 -48.5z" />
    <glyph glyph-name="Odieresis" unicode="&#xd6;" horiz-adv-x="1584" 
d="M85 580q0 263 102 470.5t287 324t419 116.5q177 0 315 -76t214.5 -213t76.5 -315q0 -266 -106.5 -473.5t-295 -323t-425.5 -115.5q-170 0 -303.5 76t-208.5 213.5t-75 315.5zM888 1372q-204 0 -354 -105t-227 -285t-77 -401q0 -148 54.5 -257.5t157 -169.5t243.5 -60
q190 0 342.5 96.5t239.5 275t87 414.5q0 153 -56 263.5t-161 169.5t-249 59zM846 1591h-123l34 162h123zM1155 1591h-123l34 162h123z" />
    <glyph glyph-name="multiply" unicode="&#xd7;" horiz-adv-x="1148" 
d="M1039 1118l-398 -397l398 -399l-66 -66l-399 399l-400 -399l-65 66l399 399l-399 397l65 66l400 -398l399 398z" />
    <glyph glyph-name="Oslash" unicode="&#xd8;" horiz-adv-x="1584" 
d="M284 109l-160 -174l-61 57l162 177q-68 79 -104 183.5t-36 227.5q0 263 102 470.5t286 324t420 116.5q124 0 229.5 -37.5t185.5 -108.5l156 170l61 -56l-160 -174q65 -78 99.5 -179t34.5 -219q0 -266 -106.5 -473.5t-295 -323t-425.5 -115.5q-114 0 -213 34.5t-175 99.5z
M317 268l904 982q-60 60 -144.5 91t-188.5 31q-207 0 -355.5 -105t-225.5 -285t-77 -401q0 -189 87 -313zM1273 1185l-901 -980q58 -54 137 -82.5t176 -28.5q190 0 342.5 96.5t239.5 275t87 414.5q0 182 -81 305z" />
    <glyph glyph-name="Ugrave" unicode="&#xd9;" horiz-adv-x="1424" 
d="M242 375q0 -144 85 -212.5t251 -68.5q142 0 240.5 44t160.5 136.5t94 240.5l202 951h138l-208 -978q-54 -256 -207 -384.5t-422 -128.5q-237 0 -353.5 103t-118.5 291q0 83 21 182l197 915h139l-202 -949q-17 -82 -17 -142zM921 1569l-173 266h169l102 -266h-98z" />
    <glyph glyph-name="Uacute" unicode="&#xda;" horiz-adv-x="1424" 
d="M242 375q0 -144 85 -212.5t251 -68.5q142 0 240.5 44t160.5 136.5t94 240.5l202 951h138l-208 -978q-54 -256 -207 -384.5t-422 -128.5q-237 0 -353.5 103t-118.5 291q0 83 21 182l197 915h139l-202 -949q-17 -82 -17 -142zM788 1569l210 266h180l-282 -266h-108z" />
    <glyph glyph-name="Ucircumflex" unicode="&#xdb;" horiz-adv-x="1424" 
d="M242 375q0 -144 85 -212.5t251 -68.5q142 0 240.5 44t160.5 136.5t94 240.5l202 951h138l-208 -978q-54 -256 -207 -384.5t-422 -128.5q-237 0 -353.5 103t-118.5 291q0 83 21 182l197 915h139l-202 -949q-17 -82 -17 -142zM1054 1569l-98 184l-180 -184h-140l254 266
h148l140 -266h-124z" />
    <glyph glyph-name="Udieresis" unicode="&#xdc;" horiz-adv-x="1424" 
d="M242 375q0 -144 85 -212.5t251 -68.5q142 0 240.5 44t160.5 136.5t94 240.5l202 951h138l-208 -978q-54 -256 -207 -384.5t-422 -128.5q-237 0 -353.5 103t-118.5 291q0 83 21 182l197 915h139l-202 -949q-17 -82 -17 -142zM817 1591h-123l34 162h123zM1126 1591h-123
l34 162h123z" />
    <glyph glyph-name="Yacute" unicode="&#xdd;" horiz-adv-x="1221" 
d="M1199 1466h166l-715 -833l-135 -633h-139l135 633l-343 833h146l288 -709zM685 1569l210 266h180l-282 -266h-108z" />
    <glyph glyph-name="Thorn" unicode="&#xde;" horiz-adv-x="1235" 
d="M1159 812q0 -146 -65 -259.5t-192.5 -178t-308.5 -64.5h-370l-66 -310h-139l312 1466h139l-66 -311h345q126 0 218.5 -41.5t142.5 -118.5t50 -183zM1012 802q0 112 -72 170t-233 58h-331l-126 -595h330q209 0 320.5 94t111.5 273z" />
    <glyph glyph-name="germandbls" unicode="&#xdf;" horiz-adv-x="1076" 
d="M780 585q62 -57 94 -114.5t32 -145.5q0 -95 -47 -175t-130.5 -127.5t-186.5 -47.5q-109 0 -182 42.5t-105 124.5l110 64q24 -65 70 -93.5t102 -28.5q66 0 119 31.5t83 86.5t30 122q0 46 -24.5 92.5t-80.5 98.5q-85 79 -117.5 128.5t-32.5 94.5q0 39 14 72.5t42.5 72
t97.5 123.5l19 23q51 63 73.5 93.5t35.5 62t13 68.5q0 59 -45.5 92.5t-137.5 33.5q-117 0 -187 -69.5t-99 -206.5l-234 -1103h-123l241 1121q36 168 139 269t260 101q166 0 244 -63t78 -175q0 -52 -18.5 -97.5t-50 -87t-91.5 -110.5q-68 -78 -101.5 -126.5t-33.5 -82.5
q0 -25 26 -59t104 -105z" />
    <glyph glyph-name="agrave" unicode="&#xe0;" horiz-adv-x="1081" 
d="M802 94q0 -44 11 -94h-133q-7 31 -7 71q0 35 7 89l-3 1q-181 -186 -379 -186q-159 0 -232.5 68.5t-73.5 183.5q0 107 43.5 179.5t146 119.5t278.5 71q209 29 318 67l8 39q14 68 14 116q0 82 -50 119.5t-170 37.5q-231 0 -321 -208l-123 18q63 145 179.5 222t268.5 77
q176 0 259.5 -64.5t83.5 -198.5q0 -62 -14 -126l-77 -367q-18 -87 -26 -141.5t-8 -93.5zM424 485q-114 -17 -179 -51.5t-91.5 -84t-26.5 -117.5q0 -72 49 -112t139 -40q64 0 148 33.5t135 83.5q44 43 66.5 74.5t41 84t39.5 152.5l12 55q-37 -16 -122.5 -37.5t-210.5 -40.5z
M645 1200l-173 266h169l102 -266h-98z" />
    <glyph glyph-name="aacute" unicode="&#xe1;" horiz-adv-x="1081" 
d="M802 94q0 -44 11 -94h-133q-7 31 -7 71q0 35 7 89l-3 1q-181 -186 -379 -186q-159 0 -232.5 68.5t-73.5 183.5q0 107 43.5 179.5t146 119.5t278.5 71q209 29 318 67l8 39q14 68 14 116q0 82 -50 119.5t-170 37.5q-231 0 -321 -208l-123 18q63 145 179.5 222t268.5 77
q176 0 259.5 -64.5t83.5 -198.5q0 -62 -14 -126l-77 -367q-18 -87 -26 -141.5t-8 -93.5zM424 485q-114 -17 -179 -51.5t-91.5 -84t-26.5 -117.5q0 -72 49 -112t139 -40q64 0 148 33.5t135 83.5q44 43 66.5 74.5t41 84t39.5 152.5l12 55q-37 -16 -122.5 -37.5t-210.5 -40.5z
M511 1200l210 266h180l-282 -266h-108z" />
    <glyph glyph-name="acircumflex" unicode="&#xe2;" horiz-adv-x="1081" 
d="M802 94q0 -44 11 -94h-133q-7 31 -7 71q0 35 7 89l-3 1q-181 -186 -379 -186q-159 0 -232.5 68.5t-73.5 183.5q0 107 43.5 179.5t146 119.5t278.5 71q209 29 318 67l8 39q14 68 14 116q0 82 -50 119.5t-170 37.5q-231 0 -321 -208l-123 18q63 145 179.5 222t268.5 77
q176 0 259.5 -64.5t83.5 -198.5q0 -62 -14 -126l-77 -367q-18 -87 -26 -141.5t-8 -93.5zM424 485q-114 -17 -179 -51.5t-91.5 -84t-26.5 -117.5q0 -72 49 -112t139 -40q64 0 148 33.5t135 83.5q44 43 66.5 74.5t41 84t39.5 152.5l12 55q-37 -16 -122.5 -37.5t-210.5 -40.5z
M777 1200l-98 184l-180 -184h-140l254 266h148l140 -266h-124z" />
    <glyph glyph-name="atilde" unicode="&#xe3;" horiz-adv-x="1081" 
d="M802 94q0 -44 11 -94h-133q-7 31 -7 71q0 35 7 89l-3 1q-181 -186 -379 -186q-159 0 -232.5 68.5t-73.5 183.5q0 107 43.5 179.5t146 119.5t278.5 71q209 29 318 67l8 39q14 68 14 116q0 82 -50 119.5t-170 37.5q-231 0 -321 -208l-123 18q63 145 179.5 222t268.5 77
q176 0 259.5 -64.5t83.5 -198.5q0 -62 -14 -126l-77 -367q-18 -87 -26 -141.5t-8 -93.5zM424 485q-114 -17 -179 -51.5t-91.5 -84t-26.5 -117.5q0 -72 49 -112t139 -40q64 0 148 33.5t135 83.5q44 43 66.5 74.5t41 84t39.5 152.5l12 55q-37 -16 -122.5 -37.5t-210.5 -40.5z
M775 1230q-66 0 -136 42q-41 24 -66 32.5t-47 8.5q-29 0 -47 -20t-30 -63h-105q25 96 71 142t122 46q63 0 133 -42q41 -24 66.5 -32.5t47.5 -8.5q29 0 47 20t30 63h105q-24 -91 -70.5 -139.5t-120.5 -48.5z" />
    <glyph glyph-name="adieresis" unicode="&#xe4;" horiz-adv-x="1081" 
d="M802 94q0 -44 11 -94h-133q-7 31 -7 71q0 35 7 89l-3 1q-181 -186 -379 -186q-159 0 -232.5 68.5t-73.5 183.5q0 107 43.5 179.5t146 119.5t278.5 71q209 29 318 67l8 39q14 68 14 116q0 82 -50 119.5t-170 37.5q-231 0 -321 -208l-123 18q63 145 179.5 222t268.5 77
q176 0 259.5 -64.5t83.5 -198.5q0 -62 -14 -126l-77 -367q-18 -87 -26 -141.5t-8 -93.5zM424 485q-114 -17 -179 -51.5t-91.5 -84t-26.5 -117.5q0 -72 49 -112t139 -40q64 0 148 33.5t135 83.5q44 43 66.5 74.5t41 84t39.5 152.5l12 55q-37 -16 -122.5 -37.5t-210.5 -40.5z
M541 1222h-123l34 162h123zM850 1222h-123l34 162h123z" />
    <glyph glyph-name="aring" unicode="&#xe5;" horiz-adv-x="1081" 
d="M802 94q0 -44 11 -94h-133q-7 31 -7 71q0 35 7 89l-3 1q-181 -186 -379 -186q-159 0 -232.5 68.5t-73.5 183.5q0 107 43.5 179.5t146 119.5t278.5 71q209 29 318 67l8 39q14 68 14 116q0 82 -50 119.5t-170 37.5q-231 0 -321 -208l-123 18q63 145 179.5 222t268.5 77
q176 0 259.5 -64.5t83.5 -198.5q0 -62 -14 -126l-77 -367q-18 -87 -26 -141.5t-8 -93.5zM424 485q-114 -17 -179 -51.5t-91.5 -84t-26.5 -117.5q0 -72 49 -112t139 -40q64 0 148 33.5t135 83.5q44 43 66.5 74.5t41 84t39.5 152.5l12 55q-37 -16 -122.5 -37.5t-210.5 -40.5z
M810 1513q49 0 90 -24t65 -65t24 -90t-24 -90t-65 -65t-90 -24t-90 24t-65 65t-24 90t24 90t65 65t90 24zM810 1220q47 0 80.5 33.5t33.5 80.5t-33.5 80.5t-80.5 33.5t-80.5 -33.5t-33.5 -80.5t33.5 -80.5t80.5 -33.5z" />
    <glyph glyph-name="ae" unicode="&#xe6;" horiz-adv-x="1727" 
d="M825 385q0 -143 69 -222t193 -79q101 0 187 57.5t140 159.5l123 -20q-78 -153 -197.5 -229.5t-253.5 -76.5q-283 0 -354 241q-201 -241 -445 -241q-153 0 -224 68.5t-71 183.5q0 107 42 179.5t141 119.5t270 71q203 29 308 67l8 39q14 68 14 116q0 82 -47.5 119.5
t-162.5 37.5q-220 0 -306 -208l-123 18q61 145 173.5 222t260.5 77q143 0 220.5 -46t97.5 -141q70 90 162 138.5t205 48.5q188 0 281.5 -103t93.5 -295q0 -72 -23 -181h-770q-12 -64 -12 -121zM1502 695q0 140 -61.5 211t-182.5 71q-88 0 -166 -43t-137 -124.5t-93 -195.5
h635q5 48 5 81zM412 485q-109 -17 -171.5 -51.5t-88 -84t-25.5 -117.5q0 -72 47 -112t134 -40q59 0 140.5 33.5t130.5 83.5q42 43 63.5 74.5t39.5 84t38 152.5l12 55q-36 -16 -118 -37.5t-202 -40.5z" />
    <glyph glyph-name="ccedilla" unicode="&#xe7;" horiz-adv-x="1064" 
d="M13 409q0 189 73.5 343.5t206.5 243.5t303 89q176 0 270.5 -84.5t117.5 -238.5l-131 -24q-16 122 -84.5 180t-176.5 58q-123 0 -224.5 -69t-160.5 -198t-59 -300q0 -151 66.5 -238t194.5 -87q122 0 217.5 66t162.5 216l128 -24q-75 -181 -200 -270t-286 -96l-33 -66
q73 -9 108 -41.5t35 -90.5q0 -82 -71.5 -133t-227.5 -51q-40 0 -73.5 2t-43.5 4l26 87q44 -4 81 -4q179 0 179 100q0 32 -31.5 52t-97.5 20l62 123q-164 18 -247.5 132t-83.5 299z" />
    <glyph glyph-name="egrave" unicode="&#xe8;" horiz-adv-x="1081" 
d="M148 385q0 -143 72.5 -222t202.5 -79q107 0 197.5 57.5t147.5 159.5l123 -20q-81 -153 -205 -229.5t-262 -76.5q-203 0 -307.5 112t-104.5 315q0 191 78 347.5t213 246t294 89.5q194 0 290.5 -103t96.5 -295q0 -72 -23 -181h-801q-12 -64 -12 -121zM856 695
q0 140 -64.5 211t-191.5 71q-92 0 -173.5 -43t-144 -124.5t-97.5 -195.5h666q5 48 5 81zM668 1200l-173 266h169l102 -266h-98z" />
    <glyph glyph-name="eacute" unicode="&#xe9;" horiz-adv-x="1081" 
d="M148 385q0 -143 72.5 -222t202.5 -79q107 0 197.5 57.5t147.5 159.5l123 -20q-81 -153 -205 -229.5t-262 -76.5q-203 0 -307.5 112t-104.5 315q0 191 78 347.5t213 246t294 89.5q194 0 290.5 -103t96.5 -295q0 -72 -23 -181h-801q-12 -64 -12 -121zM856 695
q0 140 -64.5 211t-191.5 71q-92 0 -173.5 -43t-144 -124.5t-97.5 -195.5h666q5 48 5 81zM534 1200l210 266h180l-282 -266h-108z" />
    <glyph glyph-name="ecircumflex" unicode="&#xea;" horiz-adv-x="1081" 
d="M148 385q0 -143 72.5 -222t202.5 -79q107 0 197.5 57.5t147.5 159.5l123 -20q-81 -153 -205 -229.5t-262 -76.5q-203 0 -307.5 112t-104.5 315q0 191 78 347.5t213 246t294 89.5q194 0 290.5 -103t96.5 -295q0 -72 -23 -181h-801q-12 -64 -12 -121zM856 695
q0 140 -64.5 211t-191.5 71q-92 0 -173.5 -43t-144 -124.5t-97.5 -195.5h666q5 48 5 81zM800 1200l-98 184l-180 -184h-140l254 266h148l140 -266h-124z" />
    <glyph glyph-name="edieresis" unicode="&#xeb;" horiz-adv-x="1081" 
d="M148 385q0 -143 72.5 -222t202.5 -79q107 0 197.5 57.5t147.5 159.5l123 -20q-81 -153 -205 -229.5t-262 -76.5q-203 0 -307.5 112t-104.5 315q0 191 78 347.5t213 246t294 89.5q194 0 290.5 -103t96.5 -295q0 -72 -23 -181h-801q-12 -64 -12 -121zM856 695
q0 140 -64.5 211t-191.5 71q-92 0 -173.5 -43t-144 -124.5t-97.5 -195.5h666q5 48 5 81zM564 1222h-123l34 162h123zM873 1222h-123l34 162h123z" />
    <glyph glyph-name="igrave" unicode="&#xec;" horiz-adv-x="407" 
d="M112 0h-129l226 1061h129zM316 1200l-173 266h169l102 -266h-98z" />
    <glyph glyph-name="iacute" unicode="&#xed;" horiz-adv-x="407" 
d="M112 0h-129l226 1061h129zM182 1200l210 266h180l-282 -266h-108z" />
    <glyph glyph-name="icircumflex" unicode="&#xee;" horiz-adv-x="407" 
d="M112 0h-129l226 1061h129zM448 1200l-98 184l-180 -184h-140l254 266h148l140 -266h-124z" />
    <glyph glyph-name="idieresis" unicode="&#xef;" horiz-adv-x="407" 
d="M112 0h-129l226 1061h129zM212 1222h-123l34 162h123zM521 1222h-123l34 162h123z" />
    <glyph glyph-name="eth" unicode="&#xf0;" horiz-adv-x="1102" 
d="M423 -25q-202 0 -306.5 112.5t-104.5 311.5q0 203 78 355t211 233.5t294 81.5q56 0 118.5 -18.5t97.5 -44.5l5 4q-35 118 -114 234l-319 -127l-18 85l286 112q-28 36 -71 77t-90 75h167q33 -29 91 -91l14 -15l248 99l18 -85l-214 -86q85 -111 137.5 -279.5t52.5 -342.5
q0 -208 -76 -364.5t-208.5 -241.5t-296.5 -85zM590 960q-122 0 -223 -67t-160.5 -195t-59.5 -302q0 -154 74.5 -233t200.5 -79q125 0 226.5 68.5t160.5 196.5t59 299q0 152 -75 232t-203 80z" />
    <glyph glyph-name="ntilde" unicode="&#xf1;" horiz-adv-x="1096" 
d="M826 708q10 49 10 91q0 90 -51.5 132t-154.5 42q-91 0 -173.5 -45.5t-136.5 -122.5q-52 -72 -82 -212l-126 -593h-129l226 1061h121l-36 -169q75 95 163 144t198 49q154 0 232 -73t78 -203q0 -51 -12 -108l-148 -701h-129zM815 1230q-66 0 -136 42q-41 24 -66 32.5
t-47 8.5q-29 0 -47 -20t-30 -63h-105q25 96 71 142t122 46q63 0 133 -42q41 -24 66.5 -32.5t47.5 -8.5q29 0 47 20t30 63h105q-24 -91 -70.5 -139.5t-120.5 -48.5z" />
    <glyph glyph-name="ograve" unicode="&#xf2;" horiz-adv-x="1102" 
d="M12 405q0 203 78 358t211 238.5t294 83.5q129 0 221 -52.5t140 -150.5t48 -230q0 -198 -76.5 -352.5t-209 -239.5t-295.5 -85q-135 0 -227 53t-138 149.5t-46 227.5zM590 976q-122 0 -223.5 -69.5t-161.5 -200t-60 -304.5q0 -103 35 -174.5t97.5 -107.5t144.5 -36
q125 0 227 70t161.5 199.5t59.5 300.5q0 102 -35 174.5t-98.5 110t-146.5 37.5zM669 1200l-173 266h169l102 -266h-98z" />
    <glyph glyph-name="oacute" unicode="&#xf3;" horiz-adv-x="1102" 
d="M12 405q0 203 78 358t211 238.5t294 83.5q129 0 221 -52.5t140 -150.5t48 -230q0 -198 -76.5 -352.5t-209 -239.5t-295.5 -85q-135 0 -227 53t-138 149.5t-46 227.5zM590 976q-122 0 -223.5 -69.5t-161.5 -200t-60 -304.5q0 -103 35 -174.5t97.5 -107.5t144.5 -36
q125 0 227 70t161.5 199.5t59.5 300.5q0 102 -35 174.5t-98.5 110t-146.5 37.5zM535 1200l210 266h180l-282 -266h-108z" />
    <glyph glyph-name="ocircumflex" unicode="&#xf4;" horiz-adv-x="1102" 
d="M12 405q0 203 78 358t211 238.5t294 83.5q129 0 221 -52.5t140 -150.5t48 -230q0 -198 -76.5 -352.5t-209 -239.5t-295.5 -85q-135 0 -227 53t-138 149.5t-46 227.5zM590 976q-122 0 -223.5 -69.5t-161.5 -200t-60 -304.5q0 -103 35 -174.5t97.5 -107.5t144.5 -36
q125 0 227 70t161.5 199.5t59.5 300.5q0 102 -35 174.5t-98.5 110t-146.5 37.5zM801 1200l-98 184l-180 -184h-140l254 266h148l140 -266h-124z" />
    <glyph glyph-name="otilde" unicode="&#xf5;" horiz-adv-x="1102" 
d="M12 405q0 203 78 358t211 238.5t294 83.5q129 0 221 -52.5t140 -150.5t48 -230q0 -198 -76.5 -352.5t-209 -239.5t-295.5 -85q-135 0 -227 53t-138 149.5t-46 227.5zM590 976q-122 0 -223.5 -69.5t-161.5 -200t-60 -304.5q0 -103 35 -174.5t97.5 -107.5t144.5 -36
q125 0 227 70t161.5 199.5t59.5 300.5q0 102 -35 174.5t-98.5 110t-146.5 37.5zM799 1230q-66 0 -136 42q-41 24 -66 32.5t-47 8.5q-29 0 -47 -20t-30 -63h-105q25 96 71 142t122 46q63 0 133 -42q41 -24 66.5 -32.5t47.5 -8.5q29 0 47 20t30 63h105q-24 -91 -70.5 -139.5
t-120.5 -48.5z" />
    <glyph glyph-name="odieresis" unicode="&#xf6;" horiz-adv-x="1102" 
d="M12 405q0 203 78 358t211 238.5t294 83.5q129 0 221 -52.5t140 -150.5t48 -230q0 -198 -76.5 -352.5t-209 -239.5t-295.5 -85q-135 0 -227 53t-138 149.5t-46 227.5zM590 976q-122 0 -223.5 -69.5t-161.5 -200t-60 -304.5q0 -103 35 -174.5t97.5 -107.5t144.5 -36
q125 0 227 70t161.5 199.5t59.5 300.5q0 102 -35 174.5t-98.5 110t-146.5 37.5zM565 1222h-123l34 162h123zM874 1222h-123l34 162h123z" />
    <glyph glyph-name="divide" unicode="&#xf7;" horiz-adv-x="1148" 
d="M500 989v148h148v-148h-148zM140 674v94h868v-94h-868zM500 305v148h148v-148h-148z" />
    <glyph glyph-name="oslash" unicode="&#xf8;" horiz-adv-x="1102" 
d="M12 405q0 203 78 358t211 238.5t294 83.5q94 0 169 -28.5t128 -83.5l160 166l57 -55l-169 -174q64 -105 64 -258q0 -198 -76.5 -352.5t-209 -239.5t-295.5 -85q-186 0 -292 101l-168 -174l-57 55l174 180q-68 105 -68 268zM177 237l624 643q-37 47 -90.5 71.5
t-120.5 24.5q-122 0 -223 -69.5t-160.5 -200t-59.5 -304.5q0 -94 30 -165zM842 808l-622 -641q37 -41 88 -62t114 -21q124 0 226 70t161 199t59 301q0 88 -26 154z" />
    <glyph glyph-name="ugrave" unicode="&#xf9;" horiz-adv-x="1096" 
d="M182 353q-10 -49 -10 -91q0 -90 51.5 -132t154.5 -42q91 0 173.5 45.5t136.5 122.5q52 72 82 212l126 593h129l-226 -1061h-121l36 169q-75 -95 -163 -144t-198 -49q-154 0 -232 73t-78 203q0 51 12 108l148 701h129zM665 1200l-173 266h169l102 -266h-98z" />
    <glyph glyph-name="uacute" unicode="&#xfa;" horiz-adv-x="1096" 
d="M182 353q-10 -49 -10 -91q0 -90 51.5 -132t154.5 -42q91 0 173.5 45.5t136.5 122.5q52 72 82 212l126 593h129l-226 -1061h-121l36 169q-75 -95 -163 -144t-198 -49q-154 0 -232 73t-78 203q0 51 12 108l148 701h129zM551 1200l210 266h180l-282 -266h-108z" />
    <glyph glyph-name="ucircumflex" unicode="&#xfb;" horiz-adv-x="1096" 
d="M182 353q-10 -49 -10 -91q0 -90 51.5 -132t154.5 -42q91 0 173.5 45.5t136.5 122.5q52 72 82 212l126 593h129l-226 -1061h-121l36 169q-75 -95 -163 -144t-198 -49q-154 0 -232 73t-78 203q0 51 12 108l148 701h129zM790 1200l-98 184l-180 -184h-140l254 266h148
l140 -266h-124z" />
    <glyph glyph-name="udieresis" unicode="&#xfc;" horiz-adv-x="1096" 
d="M182 353q-10 -49 -10 -91q0 -90 51.5 -132t154.5 -42q91 0 173.5 45.5t136.5 122.5q52 72 82 212l126 593h129l-226 -1061h-121l36 169q-75 -95 -163 -144t-198 -49q-154 0 -232 73t-78 203q0 51 12 108l148 701h129zM551 1222h-123l34 162h123zM860 1222h-123l34 162
h123z" />
    <glyph glyph-name="yacute" unicode="&#xfd;" horiz-adv-x="958" 
d="M350 147h4q53 104 160 288l364 626h135l-730 -1241q-81 -138 -154 -194t-164 -56q-57 0 -116 16l30 109q16 -6 39.5 -9t42.5 -3q50 0 85 19.5t67 61.5t79 124l67 117l-169 1056h129l95 -618q23 -147 36 -296zM501 1200l210 266h180l-282 -266h-108z" />
    <glyph glyph-name="thorn" unicode="&#xfe;" horiz-adv-x="1132" 
d="M152 171h-4l-122 -577h-129l398 1872h129l-119 -557l5 1q81 91 165.5 133t195.5 42q114 0 196 -52.5t125 -149t43 -226.5q0 -191 -73.5 -347t-202.5 -245.5t-288 -89.5q-119 0 -196 48.5t-123 147.5zM652 976q-137 0 -240 -82t-158 -215t-55 -281t70.5 -231t194.5 -83
q123 0 222.5 77t156 208.5t56.5 289.5q0 146 -64.5 231.5t-182.5 85.5z" />
    <glyph glyph-name="ydieresis" unicode="&#xff;" horiz-adv-x="958" 
d="M350 147h4q53 104 160 288l364 626h135l-730 -1241q-81 -138 -154 -194t-164 -56q-57 0 -116 16l30 109q16 -6 39.5 -9t42.5 -3q50 0 85 19.5t67 61.5t79 124l67 117l-169 1056h129l95 -618q23 -147 36 -296zM511 1222h-123l34 162h123zM820 1222h-123l34 162h123z" />
    <glyph glyph-name="glyph221" horiz-adv-x="1148" 
d="M140 674v94h868v-94h-868z" />
    <glyph glyph-name="glyph222" horiz-adv-x="967" 
d="M589 1379q-81 0 -121.5 -41t-60.5 -134l-31 -143h206l-23 -105h-205l-203 -956h-129l203 956h-160l23 105h160l33 155q31 146 105.5 210.5t209.5 64.5q77 0 171 -21l-40 -109q-23 7 -64 12.5t-74 5.5zM817 1288l38 178h129l-38 -178h-129zM543 0l226 1061h129l-226 -1061
h-129z" />
    <glyph glyph-name="glyph223" horiz-adv-x="967" 
d="M589 1379q-81 0 -121.5 -41t-60.5 -134l-31 -143h206l-23 -105h-205l-203 -956h-129l203 956h-160l23 105h160l33 155q31 146 105.5 210.5t209.5 64.5q77 0 171 -21l-40 -109q-23 7 -64 12.5t-74 5.5zM543 0l312 1466h129l-312 -1466h-129z" />
    <glyph glyph-name="macron" unicode="&#xaf;" horiz-adv-x="1024" 
d="M-12 1621v102h1048v-102h-1048z" />
    <glyph glyph-name="glyph225" horiz-adv-x="682" 
d="M563 968h109l-18 -84h-109l-36 -170h-98l36 170h-381l18 84l504 498h81zM536 1300l-337 -332h266z" />
    <glyph glyph-name="Amacron" unicode="&#x100;" horiz-adv-x="1323" 
d="M1019 0l-83 465h-661l-271 -465h-156l873 1466h160l282 -1466h-144zM610 1038l-270 -458h576l-83 452q-27 147 -45 328h-4q-74 -153 -174 -322zM532 1595l23 110h584l-23 -110h-584z" />
    <glyph glyph-name="amacron" unicode="&#x101;" horiz-adv-x="1081" 
d="M802 94q0 -44 11 -94h-133q-7 31 -7 71q0 35 7 89l-3 1q-181 -186 -379 -186q-159 0 -232.5 68.5t-73.5 183.5q0 107 43.5 179.5t146 119.5t278.5 71q209 29 318 67l8 39q14 68 14 116q0 82 -50 119.5t-170 37.5q-231 0 -321 -208l-123 18q63 145 179.5 222t268.5 77
q176 0 259.5 -64.5t83.5 -198.5q0 -62 -14 -126l-77 -367q-18 -87 -26 -141.5t-8 -93.5zM424 485q-114 -17 -179 -51.5t-91.5 -84t-26.5 -117.5q0 -72 49 -112t139 -40q64 0 148 33.5t135 83.5q44 43 66.5 74.5t41 84t39.5 152.5l12 55q-37 -16 -122.5 -37.5t-210.5 -40.5z
M344 1227l23 110h584l-23 -110h-584z" />
    <glyph glyph-name="Abreve" unicode="&#x102;" horiz-adv-x="1323" 
d="M1019 0l-83 465h-661l-271 -465h-156l873 1466h160l282 -1466h-144zM610 1038l-270 -458h576l-83 452q-27 147 -45 328h-4q-74 -153 -174 -322zM852 1674q71 0 117.5 31t78.5 106h105q-37 -113 -116 -177.5t-194 -64.5q-124 0 -186 62t-62 180h106q0 -72 35.5 -104.5
t115.5 -32.5z" />
    <glyph glyph-name="abreve" unicode="&#x103;" horiz-adv-x="1081" 
d="M802 94q0 -44 11 -94h-133q-7 31 -7 71q0 35 7 89l-3 1q-181 -186 -379 -186q-159 0 -232.5 68.5t-73.5 183.5q0 107 43.5 179.5t146 119.5t278.5 71q209 29 318 67l8 39q14 68 14 116q0 82 -50 119.5t-170 37.5q-231 0 -321 -208l-123 18q63 145 179.5 222t268.5 77
q176 0 259.5 -64.5t83.5 -198.5q0 -62 -14 -126l-77 -367q-18 -87 -26 -141.5t-8 -93.5zM424 485q-114 -17 -179 -51.5t-91.5 -84t-26.5 -117.5q0 -72 49 -112t139 -40q64 0 148 33.5t135 83.5q44 43 66.5 74.5t41 84t39.5 152.5l12 55q-37 -16 -122.5 -37.5t-210.5 -40.5z
M649 1305q71 0 117.5 31t78.5 106h105q-37 -113 -116 -177.5t-194 -64.5q-124 0 -186 62t-62 180h106q0 -72 35.5 -104.5t115.5 -32.5z" />
    <glyph glyph-name="Aogonek" unicode="&#x104;" horiz-adv-x="1323" 
d="M1185 -273l-20 -94q-31 -12 -67 -19t-67 -7q-74 0 -111 31.5t-37 105.5q0 58 36.5 126.5t99.5 130.5l-83 464h-661l-271 -465h-156l873 1466h160l282 -1466h-52q-56 -60 -89 -119t-33 -107q0 -30 18 -47.5t53 -17.5q59 0 125 18zM833 1032q-27 147 -45 328h-4
q-74 -153 -174 -322l-270 -458h576z" />
    <glyph glyph-name="aogonek" unicode="&#x105;" horiz-adv-x="1081" 
d="M802 94q0 -44 11 -94h-40q-56 -60 -89 -119t-33 -107q0 -30 18 -47.5t53 -17.5q59 0 125 18l-20 -94q-31 -12 -67 -19t-67 -7q-74 0 -111 31.5t-37 105.5q0 57 36 125.5t99 130.5q-7 31 -7 71q0 35 7 89l-3 1q-181 -186 -379 -186q-159 0 -232.5 68.5t-73.5 183.5
q0 107 43.5 179.5t146 119.5t278.5 71q209 28 318 67l8 39q14 68 14 116q0 82 -50 119.5t-170 37.5q-231 0 -321 -208l-123 18q63 145 179.5 222t268.5 77q176 0 259.5 -64.5t83.5 -198.5q0 -62 -14 -126l-77 -367q-18 -87 -26 -141.5t-8 -93.5zM745 508l12 55
q-37 -16 -122.5 -37.5t-210.5 -40.5q-114 -17 -179 -51.5t-91.5 -84t-26.5 -117.5q0 -72 49 -112t139 -40q62 0 147 33.5t136 83.5q44 43 66.5 74.5t41 84t39.5 152.5z" />
    <glyph glyph-name="Cacute" unicode="&#x106;" horiz-adv-x="1457" 
d="M892 1372q-204 0 -353.5 -106t-228.5 -288t-79 -407q0 -231 102.5 -354t295.5 -123q367 0 545 374l129 -36q-110 -227 -277 -342t-403 -115q-168 0 -290 73t-186 206t-64 310q0 270 105.5 481t292.5 328.5t422 117.5q140 0 246 -47.5t171.5 -136t86.5 -209.5l-142 -33
q-25 151 -118.5 229t-254.5 78zM864 1569l210 266h180l-282 -266h-108z" />
    <glyph glyph-name="cacute" unicode="&#x107;" horiz-adv-x="1064" 
d="M592 976q-123 0 -224.5 -68t-160.5 -197t-59 -302q0 -151 66.5 -238t194.5 -87q122 0 217.5 66t162.5 216l128 -24q-79 -189 -211.5 -278t-302.5 -89q-193 0 -291.5 116t-98.5 318q0 189 73.5 343.5t206.5 243.5t303 89q176 0 270.5 -84.5t117.5 -238.5l-131 -24
q-16 122 -84.5 180t-176.5 58zM537 1200l210 266h180l-282 -266h-108z" />
    <glyph glyph-name="Ccaron" unicode="&#x10c;" horiz-adv-x="1457" 
d="M892 1372q-204 0 -353.5 -106t-228.5 -288t-79 -407q0 -231 102.5 -354t295.5 -123q367 0 545 374l129 -36q-110 -227 -277 -342t-403 -115q-168 0 -290 73t-186 206t-64 310q0 270 105.5 481t292.5 328.5t422 117.5q140 0 246 -47.5t171.5 -136t86.5 -209.5l-142 -33
q-25 151 -118.5 229t-254.5 78zM855 1835l100 -184l178 184h141l-254 -266h-148l-140 266h123z" />
    <glyph glyph-name="ccaron" unicode="&#x10d;" horiz-adv-x="1064" 
d="M592 976q-123 0 -224.5 -68t-160.5 -197t-59 -302q0 -151 66.5 -238t194.5 -87q122 0 217.5 66t162.5 216l128 -24q-79 -189 -211.5 -278t-302.5 -89q-193 0 -291.5 116t-98.5 318q0 189 73.5 343.5t206.5 243.5t303 89q176 0 270.5 -84.5t117.5 -238.5l-131 -24
q-16 122 -84.5 180t-176.5 58zM548 1466l100 -184l178 184h141l-254 -266h-148l-140 266h123z" />
    <glyph glyph-name="Dcaron" unicode="&#x10e;" horiz-adv-x="1434" 
d="M1354 917q0 -278 -96.5 -485.5t-277 -319.5t-429.5 -112h-533l312 1466h475q275 0 412 -145t137 -404zM1209 919q0 422 -408 422h-359l-258 -1216h359q211 0 360.5 93.5t227.5 271.5t78 429zM758 1835l100 -184l178 184h141l-254 -266h-148l-140 266h123z" />
    <glyph glyph-name="dcaron" unicode="&#x10f;" horiz-adv-x="1317" 
d="M837 0h-121l31 147h-4q-68 -86 -158.5 -129t-188.5 -43q-123 0 -209 53t-130 151.5t-44 234.5q0 184 77.5 338t208.5 243.5t280 89.5q118 0 195 -54.5t116 -145.5h6l123 581h129zM587 976q-124 0 -224.5 -78t-157.5 -208t-57 -279q0 -99 30.5 -173t87 -114t132.5 -40
q131 0 233 73.5t158.5 202.5t56.5 289q0 153 -68.5 240t-190.5 87zM1253 1049l-39 71q43 23 65.5 42t35.5 45.5t24 73.5h-81l40 185h174l-37 -176q-18 -85 -62.5 -141.5t-119.5 -99.5z" />
    <glyph glyph-name="Dcroat" unicode="&#x110;" horiz-adv-x="1434" 
d="M1354 917q0 -278 -96.5 -485t-277.5 -319.5t-429 -112.5h-533l144 676h-174l23 110h174l145 680h475q275 0 412 -145t137 -404zM1209 919q0 422 -408 422h-359l-118 -555h457l-23 -110h-457l-117 -551h359q211 0 360.5 93.5t227.5 271.5t78 429z" />
    <glyph glyph-name="dcroat" unicode="&#x111;" horiz-adv-x="1132" 
d="M629 1314h357l33 152h129l-33 -152h140l-22 -102h-139l-257 -1212h-121l31 147h-4q-68 -86 -158.5 -129t-188.5 -43q-123 0 -209 53t-130 151.5t-44 234.5q0 184 77.5 338t207.5 243.5t281 89.5q118 0 195 -54.5t116 -145.5h6l69 327h-358zM587 976q-124 0 -224.5 -78
t-157.5 -208t-57 -279q0 -99 30.5 -173t87 -114t132.5 -40q131 0 233 73.5t158.5 202.5t56.5 289q0 153 -68.5 240t-190.5 87z" />
    <glyph glyph-name="Emacron" unicode="&#x112;" horiz-adv-x="1192" 
d="M442 1341l-111 -522h691l-26 -125h-691l-121 -569h781l-27 -125h-920l312 1466h885l-27 -125h-746zM508 1595l23 110h584l-23 -110h-584z" />
    <glyph glyph-name="emacron" unicode="&#x113;" horiz-adv-x="1081" 
d="M148 385q0 -143 72.5 -222t202.5 -79q107 0 197.5 57.5t147.5 159.5l123 -20q-81 -153 -205 -229.5t-262 -76.5q-203 0 -307.5 112t-104.5 315q0 191 78 347.5t213 246t294 89.5q194 0 290.5 -103t96.5 -295q0 -72 -23 -181h-801q-12 -64 -12 -121zM856 695
q0 140 -64.5 211t-191.5 71q-92 0 -173.5 -43t-144 -124.5t-97.5 -195.5h666q5 48 5 81zM366 1227l23 110h584l-23 -110h-584z" />
    <glyph glyph-name="Edotaccent" unicode="&#x116;" horiz-adv-x="1192" 
d="M442 1341l-111 -522h691l-26 -125h-691l-121 -569h781l-27 -125h-920l312 1466h885l-27 -125h-746zM730 1591l34 162h138l-34 -162h-138z" />
    <glyph glyph-name="edotaccent" unicode="&#x117;" horiz-adv-x="1081" 
d="M148 385q0 -143 72.5 -222t202.5 -79q107 0 197.5 57.5t147.5 159.5l123 -20q-81 -153 -205 -229.5t-262 -76.5q-203 0 -307.5 112t-104.5 315q0 191 78 347.5t213 246t294 89.5q194 0 290.5 -103t96.5 -295q0 -72 -23 -181h-801q-12 -64 -12 -121zM856 695
q0 140 -64.5 211t-191.5 71q-92 0 -173.5 -43t-144 -124.5t-97.5 -195.5h666q5 48 5 81zM589 1222l34 162h138l-34 -162h-138z" />
    <glyph glyph-name="Eogonek" unicode="&#x118;" horiz-adv-x="1192" 
d="M331 819h691l-26 -125h-691l-121 -569h781l-27 -125h-132q-56 -60 -89 -119t-33 -107q0 -30 18 -47.5t53 -17.5q59 0 125 18l-20 -94q-31 -12 -67 -19t-67 -7q-74 0 -111 31.5t-37 105.5q0 57 36 125.5t98 130.5h-694l312 1466h885l-27 -125h-746z" />
    <glyph glyph-name="eogonek" unicode="&#x119;" horiz-adv-x="1081" 
d="M148 385q0 -143 72.5 -222t202.5 -79q107 0 197.5 57.5t147.5 159.5l123 -20q-74 -139 -184.5 -215.5t-236.5 -88.5q-46 -54 -73.5 -107t-27.5 -96q0 -30 18 -47.5t53 -17.5q59 0 125 18l-20 -94q-31 -12 -67 -19t-67 -7q-74 0 -111 31.5t-37 105.5q0 52 30 113.5
t82 119.5q-179 13 -271 124t-92 301q0 191 78 347.5t212 246t295 89.5q194 0 290.5 -103t96.5 -295q0 -72 -23 -181h-801q-12 -65 -12 -121zM185 614h666q5 48 5 81q0 140 -64.5 211t-191.5 71q-92 0 -173.5 -43t-144 -124.5t-97.5 -195.5z" />
    <glyph glyph-name="Ecaron" unicode="&#x11a;" horiz-adv-x="1192" 
d="M442 1341l-111 -522h691l-26 -125h-691l-121 -569h781l-27 -125h-920l312 1466h885l-27 -125h-746zM699 1835l100 -184l178 184h141l-254 -266h-148l-140 266h123z" />
    <glyph glyph-name="ecaron" unicode="&#x11b;" horiz-adv-x="1081" 
d="M148 385q0 -143 72.5 -222t202.5 -79q107 0 197.5 57.5t147.5 159.5l123 -20q-81 -153 -205 -229.5t-262 -76.5q-203 0 -307.5 112t-104.5 315q0 191 78 347.5t213 246t294 89.5q194 0 290.5 -103t96.5 -295q0 -72 -23 -181h-801q-12 -64 -12 -121zM856 695
q0 140 -64.5 211t-191.5 71q-92 0 -173.5 -43t-144 -124.5t-97.5 -195.5h666q5 48 5 81zM574 1466l100 -184l178 184h141l-254 -266h-148l-140 266h123z" />
    <glyph glyph-name="Gbreve" unicode="&#x11e;" horiz-adv-x="1532" 
d="M909 1372q-188 0 -343 -104t-245 -285.5t-90 -405.5q0 -152 54 -261t150 -165.5t221 -56.5q275 0 501 154l77 358h-465l26 125h602l-116 -545q-122 -82 -221.5 -127t-198 -64.5t-219.5 -19.5q-162 0 -289.5 74.5t-199 210.5t-71.5 313q0 252 109 462.5t300 333t427 122.5
q442 0 526 -418l-135 -38q-23 171 -120.5 254t-279.5 83zM990 1674q71 0 117.5 31t78.5 106h105q-37 -113 -116 -177.5t-194 -64.5q-124 0 -186 62t-62 180h106q0 -72 35.5 -104.5t115.5 -32.5z" />
    <glyph glyph-name="gbreve" unicode="&#x11f;" horiz-adv-x="1126" 
d="M1056 1061l-214 -1006q-38 -179 -108.5 -285t-176 -153t-256.5 -47q-176 0 -262.5 76.5t-86.5 216.5l121 -19q4 -166 226 -166q128 0 210.5 41.5t134 134t80.5 250.5l8 43h-3q-135 -159 -344 -159q-119 0 -202.5 52.5t-126 150t-42.5 231.5q0 178 77.5 330.5t207 242.5
t276.5 90q122 0 200.5 -57.5t114.5 -149.5h6l39 183h121zM582 977q-119 0 -218.5 -75.5t-157 -204t-57.5 -280.5q0 -98 29.5 -170.5t85.5 -111.5t134 -39q128 0 229.5 75t158.5 203t57 283q0 148 -68 234t-193 86zM672 1305q71 0 117.5 31t78.5 106h105
q-37 -113 -116 -177.5t-194 -64.5q-124 0 -186 62t-62 180h106q0 -72 35.5 -104.5t115.5 -32.5z" />
    <glyph glyph-name="Gcommaaccent" unicode="&#x122;" horiz-adv-x="1532" 
d="M909 1372q-188 0 -343 -104t-245 -285.5t-90 -405.5q0 -152 54 -261t150 -165.5t221 -56.5q275 0 501 154l77 358h-465l26 125h602l-116 -545q-122 -82 -221.5 -127t-198 -64.5t-219.5 -19.5q-162 0 -289.5 74.5t-199 210.5t-71.5 313q0 252 109 462.5t300 333t427 122.5
q442 0 526 -418l-135 -38q-23 171 -120.5 254t-279.5 83zM494 -430l-11 80q51 10 77.5 34t34.5 64h-81l33 157h175l-30 -141q-15 -72 -60 -118.5t-138 -75.5z" />
    <glyph glyph-name="gcommaaccent" unicode="&#x123;" horiz-adv-x="1126" 
d="M1056 1061l-214 -1006q-38 -179 -108.5 -285t-176 -153t-256.5 -47q-176 0 -262.5 76.5t-86.5 216.5l121 -19q4 -166 226 -166q128 0 210.5 41.5t134 134t80.5 250.5l8 43h-3q-135 -159 -344 -159q-119 0 -202.5 52.5t-126 150t-42.5 231.5q0 178 77.5 330.5t207 242.5
t276.5 90q122 0 200.5 -57.5t114.5 -149.5h6l39 183h121zM582 977q-119 0 -218.5 -75.5t-157 -204t-57.5 -280.5q0 -98 29.5 -170.5t85.5 -111.5t134 -39q128 0 229.5 75t158.5 203t57 283q0 148 -68 234t-193 86zM779 1530l11 -80q-52 -10 -78 -36t-36 -72h81l-33 -157
h-175l32 151q15 72 61.5 120.5t136.5 73.5z" />
    <glyph glyph-name="Imacron" unicode="&#x12a;" horiz-adv-x="487" 
d="M18 0l312 1466h139l-312 -1466h-139zM134 1595l23 110h584l-23 -110h-584z" />
    <glyph glyph-name="imacron" unicode="&#x12b;" horiz-adv-x="407" 
d="M112 0h-129l226 1061h129zM12 1227l23 110h584l-23 -110h-584z" />
    <glyph glyph-name="Iogonek" unicode="&#x12e;" horiz-adv-x="487" 
d="M61 -291q59 0 125 18l-20 -94q-31 -12 -67 -19t-67 -7q-74 0 -111 31.5t-37 105.5q0 57 36 125.5t98 130.5l312 1466h139l-312 -1466h-45q-56 -60 -89 -120t-33 -106q0 -30 18 -47.5t53 -17.5z" />
    <glyph glyph-name="iogonek" unicode="&#x12f;" horiz-adv-x="407" 
d="M386 1288h-129l38 178h129zM-46 -226q0 -30 18 -47.5t53 -17.5q59 0 125 18l-20 -94q-31 -12 -67 -19t-67 -7q-74 0 -111 31.5t-37 105.5q0 57 36 125.5t99 131.5l226 1060h129l-226 -1061h-36q-56 -60 -89 -119t-33 -107z" />
    <glyph glyph-name="Idotaccent" unicode="&#x130;" horiz-adv-x="487" 
d="M18 0l312 1466h139l-312 -1466h-139zM356 1591l34 162h138l-34 -162h-138z" />
    <glyph glyph-name="dotlessi" unicode="&#x131;" horiz-adv-x="407" 
d="M112 0h-129l226 1061h129z" />
    <glyph glyph-name="Kcommaaccent" unicode="&#x136;" horiz-adv-x="1246" 
d="M1182 1466h188l-692 -592l407 -874h-159l-355 790l-299 -247l-115 -543h-139l312 1466h139l-159 -741zM324 -430l-11 80q51 10 77.5 34t34.5 64h-81l33 157h175l-30 -141q-15 -72 -60 -118.5t-138 -75.5z" />
    <glyph glyph-name="kcommaaccent" unicode="&#x137;" horiz-adv-x="1006" 
d="M259 601l578 460h178l-502 -401l309 -660h-146l-262 586l-190 -147l-93 -439h-129l312 1466h129zM204 -430l-11 80q51 10 77.5 34t34.5 64h-81l33 157h175l-30 -141q-15 -72 -60 -118.5t-138 -75.5z" />
    <glyph glyph-name="Lacute" unicode="&#x139;" horiz-adv-x="1088" 
d="M884 125l-27 -125h-839l312 1466h139l-285 -1341h700zM329 1569l210 266h180l-282 -266h-108z" />
    <glyph glyph-name="lacute" unicode="&#x13a;" horiz-adv-x="407" 
d="M-17 0l312 1466h129l-312 -1466h-129zM308 1569l210 266h180l-282 -266h-108z" />
    <glyph glyph-name="Lcommaaccent" unicode="&#x13b;" horiz-adv-x="1088" 
d="M884 125l-27 -125h-839l312 1466h139l-285 -1341h700zM244 -430l-11 80q51 10 77.5 34t34.5 64h-81l33 157h175l-30 -141q-15 -72 -60 -118.5t-138 -75.5z" />
    <glyph glyph-name="lcommaaccent" unicode="&#x13c;" horiz-adv-x="407" 
d="M-17 0l312 1466h129l-312 -1466h-129zM-114 -430l-11 80q51 10 77.5 34t34.5 64h-81l33 157h175l-30 -141q-15 -72 -60 -118.5t-138 -75.5z" />
    <glyph glyph-name="Lcaron" unicode="&#x13d;" horiz-adv-x="1088" 
d="M884 125l-27 -125h-839l312 1466h139l-285 -1341h700zM701 1049l-39 71q43 23 65.5 42t35.5 45.5t24 73.5h-81l40 185h174l-37 -176q-18 -85 -62.5 -141.5t-119.5 -99.5z" />
    <glyph glyph-name="lcaron" unicode="&#x13e;" horiz-adv-x="592" 
d="M-17 0l312 1466h129l-312 -1466h-129zM528 1049l-39 71q43 23 65.5 42t35.5 45.5t24 73.5h-81l40 185h174l-37 -176q-18 -85 -62.5 -141.5t-119.5 -99.5z" />
    <glyph glyph-name="Lslash" unicode="&#x141;" horiz-adv-x="1088" 
d="M857 0h-839l132 620l-206 -149l24 114l206 149l155 732h139l-132 -622l397 284l-25 -114l-396 -284l-129 -605h700z" />
    <glyph glyph-name="lslash" unicode="&#x142;" horiz-adv-x="407" 
d="M456 958l-23 -108l-164 -113l-157 -737h-129l136 637l-163 -112l23 108l163 112l153 721h129l-132 -621z" />
    <glyph glyph-name="Nacute" unicode="&#x143;" horiz-adv-x="1423" 
d="M1006 199l271 1267h128l-312 -1466h-149l-526 1260h-4l-268 -1260h-128l312 1466h140l529 -1267h7zM817 1569l210 266h180l-282 -266h-108z" />
    <glyph glyph-name="nacute" unicode="&#x144;" horiz-adv-x="1096" 
d="M826 708q10 49 10 91q0 90 -51.5 132t-154.5 42q-91 0 -173.5 -45.5t-136.5 -122.5q-52 -72 -82 -212l-126 -593h-129l226 1061h121l-36 -169q75 95 163 144t198 49q154 0 232 -73t78 -203q0 -51 -12 -108l-148 -701h-129zM571 1200l210 266h180l-282 -266h-108z" />
    <glyph glyph-name="Ncommaaccent" unicode="&#x145;" horiz-adv-x="1423" 
d="M1006 199l271 1267h128l-312 -1466h-149l-526 1260h-4l-268 -1260h-128l312 1466h140l529 -1267h7zM374 -430l-11 80q51 10 77.5 34t34.5 64h-81l33 157h175l-30 -141q-15 -72 -60 -118.5t-138 -75.5z" />
    <glyph glyph-name="ncommaaccent" unicode="&#x146;" horiz-adv-x="1096" 
d="M826 708q10 49 10 91q0 90 -51.5 132t-154.5 42q-91 0 -173.5 -45.5t-136.5 -122.5q-52 -72 -82 -212l-126 -593h-129l226 1061h121l-36 -169q75 95 163 144t198 49q154 0 232 -73t78 -203q0 -51 -12 -108l-148 -701h-129zM214 -430l-11 80q51 10 77.5 34t34.5 64h-81
l33 157h175l-30 -141q-15 -72 -60 -118.5t-138 -75.5z" />
    <glyph glyph-name="Ncaron" unicode="&#x147;" horiz-adv-x="1423" 
d="M1006 199l271 1267h128l-312 -1466h-149l-526 1260h-4l-268 -1260h-128l312 1466h140l529 -1267h7zM822 1835l100 -184l178 184h141l-254 -266h-148l-140 266h123z" />
    <glyph glyph-name="ncaron" unicode="&#x148;" horiz-adv-x="1096" 
d="M826 708q10 49 10 91q0 90 -51.5 132t-154.5 42q-91 0 -173.5 -45.5t-136.5 -122.5q-52 -72 -82 -212l-126 -593h-129l226 1061h121l-36 -169q75 95 163 144t198 49q154 0 232 -73t78 -203q0 -51 -12 -108l-148 -701h-129zM579 1466l100 -184l178 184h141l-254 -266h-148
l-140 266h123z" />
    <glyph glyph-name="Omacron" unicode="&#x14c;" horiz-adv-x="1584" 
d="M85 580q0 263 102 470.5t287 324t419 116.5q177 0 315 -76t214.5 -213t76.5 -315q0 -266 -106.5 -473.5t-295 -323t-425.5 -115.5q-170 0 -303.5 76t-208.5 213.5t-75 315.5zM888 1372q-204 0 -354 -105t-227 -285t-77 -401q0 -148 54.5 -257.5t157 -169.5t243.5 -60
q190 0 342.5 96.5t239.5 275t87 414.5q0 153 -56 263.5t-161 169.5t-249 59zM688 1595l23 110h584l-23 -110h-584z" />
    <glyph glyph-name="omacron" unicode="&#x14d;" horiz-adv-x="1102" 
d="M12 405q0 203 78 358t211 238.5t294 83.5q129 0 221 -52.5t140 -150.5t48 -230q0 -198 -76.5 -352.5t-209 -239.5t-295.5 -85q-135 0 -227 53t-138 149.5t-46 227.5zM590 976q-122 0 -223.5 -69.5t-161.5 -200t-60 -304.5q0 -103 35 -174.5t97.5 -107.5t144.5 -36
q125 0 227 70t161.5 199.5t59.5 300.5q0 102 -35 174.5t-98.5 110t-146.5 37.5zM367 1227l23 110h584l-23 -110h-584z" />
    <glyph glyph-name="Ohungarumlaut" unicode="&#x150;" horiz-adv-x="1584" 
d="M85 580q0 263 102 470.5t287 324t419 116.5q177 0 315 -76t214.5 -213t76.5 -315q0 -266 -106.5 -473.5t-295 -323t-425.5 -115.5q-170 0 -303.5 76t-208.5 213.5t-75 315.5zM888 1372q-204 0 -354 -105t-227 -285t-77 -401q0 -148 54.5 -257.5t157 -169.5t243.5 -60
q190 0 342.5 96.5t239.5 275t87 414.5q0 153 -56 263.5t-161 169.5t-249 59zM731 1569l210 266h180l-282 -266h-108zM996 1569l210 266h180l-282 -266h-108z" />
    <glyph glyph-name="ohungarumlaut" unicode="&#x151;" horiz-adv-x="1102" 
d="M12 405q0 203 78 358t211 238.5t294 83.5q129 0 221 -52.5t140 -150.5t48 -230q0 -198 -76.5 -352.5t-209 -239.5t-295.5 -85q-135 0 -227 53t-138 149.5t-46 227.5zM590 976q-122 0 -223.5 -69.5t-161.5 -200t-60 -304.5q0 -103 35 -174.5t97.5 -107.5t144.5 -36
q125 0 227 70t161.5 199.5t59.5 300.5q0 102 -35 174.5t-98.5 110t-146.5 37.5zM439 1200l210 266h180l-282 -266h-108zM704 1200l210 266h180l-282 -266h-108z" />
    <glyph glyph-name="Racute" unicode="&#x154;" horiz-adv-x="1296" 
d="M1261 1137q0 -190 -109 -306t-346 -151l-1 -6q41 -13 73 -46t65 -106.5t68 -203.5l86 -318h-145l-71 275q-43 169 -86 249.5t-102.5 107.5t-167.5 27h-228l-140 -659h-139l312 1466h525q121 0 212.5 -38t142.5 -112t51 -179zM1112 1130q0 211 -282 211h-388l-118 -557
h381q194 0 300.5 89t106.5 257zM705 1569l210 266h180l-282 -266h-108z" />
    <glyph glyph-name="racute" unicode="&#x155;" horiz-adv-x="688" 
d="M567 956q-120 0 -208.5 -106.5t-125.5 -281.5l-121 -568h-129l226 1061h121l-36 -169l2 1q69 101 138 146.5t148 45.5q50 0 91 -10t82 -33l-68 -120q-63 34 -120 34zM424 1200l210 266h180l-282 -266h-108z" />
    <glyph glyph-name="Rcommaaccent" unicode="&#x156;" horiz-adv-x="1296" 
d="M1261 1137q0 -190 -109 -306t-346 -151l-1 -6q41 -13 73 -46t65 -106.5t68 -203.5l86 -318h-145l-71 275q-43 169 -86 249.5t-102.5 107.5t-167.5 27h-228l-140 -659h-139l312 1466h525q121 0 212.5 -38t142.5 -112t51 -179zM1112 1130q0 211 -282 211h-388l-118 -557
h381q194 0 300.5 89t106.5 257zM359 -430l-11 80q51 10 77.5 34t34.5 64h-81l33 157h175l-30 -141q-15 -72 -60 -118.5t-138 -75.5z" />
    <glyph glyph-name="rcommaaccent" unicode="&#x157;" horiz-adv-x="688" 
d="M567 956q-120 0 -208.5 -106.5t-125.5 -281.5l-121 -568h-129l226 1061h121l-36 -169l2 1q69 101 138 146.5t148 45.5q50 0 91 -10t82 -33l-68 -120q-63 34 -120 34zM-110 -430l-11 80q51 10 77.5 34t34.5 64h-81l33 157h175l-30 -141q-15 -72 -60 -118.5t-138 -75.5z
" />
    <glyph glyph-name="Rcaron" unicode="&#x158;" horiz-adv-x="1296" 
d="M1261 1137q0 -190 -109 -306t-346 -151l-1 -6q41 -13 73 -46t65 -106.5t68 -203.5l86 -318h-145l-71 275q-43 169 -86 249.5t-102.5 107.5t-167.5 27h-228l-140 -659h-139l312 1466h525q121 0 212.5 -38t142.5 -112t51 -179zM1112 1130q0 211 -282 211h-388l-118 -557
h381q194 0 300.5 89t106.5 257zM719 1835l100 -184l178 184h141l-254 -266h-148l-140 266h123z" />
    <glyph glyph-name="rcaron" unicode="&#x159;" horiz-adv-x="688" 
d="M567 956q-120 0 -208.5 -106.5t-125.5 -281.5l-121 -568h-129l226 1061h121l-36 -169l2 1q69 101 138 146.5t148 45.5q50 0 91 -10t82 -33l-68 -120q-63 34 -120 34zM427 1466l100 -184l178 184h141l-254 -266h-148l-140 266h123z" />
    <glyph glyph-name="Sacute" unicode="&#x15a;" horiz-adv-x="1251" 
d="M740 1372q-116 0 -201.5 -39.5t-131 -108.5t-45.5 -158q0 -56 24 -99t84.5 -77t168.5 -58q165 -37 262.5 -87t143.5 -128t46 -200q0 -125 -70.5 -225.5t-203.5 -158.5t-312 -58q-234 0 -351 126t-124 339l133 21q8 -180 94 -273.5t250 -93.5q137 0 236.5 42.5t151 115
t51.5 167.5q0 80 -26.5 130t-103 88.5t-226.5 69.5q-196 41 -285 130t-89 226q0 120 69.5 218t190 154t267.5 56q215 0 333.5 -101.5t123.5 -310.5l-134 -14q-5 307 -326 307zM707 1569l210 266h180l-282 -266h-108z" />
    <glyph glyph-name="sacute" unicode="&#x15b;" horiz-adv-x="961" 
d="M512 976q-76 0 -138.5 -25.5t-99 -72t-36.5 -108.5q0 -43 20.5 -71.5t72 -50.5t146.5 -40q113 -22 181.5 -56t101.5 -90.5t33 -144.5q0 -100 -58 -178t-159.5 -121t-227.5 -43q-181 0 -270.5 80.5t-97.5 225.5l131 20q4 -107 59.5 -162t176.5 -55q88 0 158 29t110 82.5
t40 124.5q0 48 -22 79.5t-80.5 55.5t-168.5 44q-148 27 -212.5 90.5t-64.5 174.5q0 90 54 163.5t149 115.5t208 42q160 0 244.5 -66.5t100.5 -191.5l-130 -18q-4 81 -60 124t-161 43zM514 1200l210 266h180l-282 -266h-108z" />
    <glyph glyph-name="Scedilla" unicode="&#x15e;" horiz-adv-x="1251" 
d="M1091 417q0 -125 -70.5 -225.5t-203.5 -158.5t-312 -58h-4l-33 -65q73 -9 108 -41.5t35 -90.5q0 -82 -71.5 -133t-227.5 -51q-40 0 -73.5 2t-43.5 4l26 87q44 -4 81 -4q179 0 179 100q0 32 -31.5 52t-97.5 20l63 125q-189 24 -284 146.5t-101 313.5l133 21
q8 -180 94 -273.5t250 -93.5q137 0 236.5 42.5t151 116t51.5 166.5q0 80 -26.5 130t-103 88.5t-226.5 69.5q-197 41 -285.5 130t-88.5 226q0 120 69.5 218t190 154t267.5 56q215 0 333.5 -101.5t123.5 -310.5l-134 -14q-5 307 -326 307q-116 0 -201.5 -39t-131 -108.5
t-45.5 -158.5q0 -56 24 -99t84.5 -77t168.5 -58q165 -37 262.5 -87t143.5 -128t46 -200z" />
    <glyph glyph-name="scedilla" unicode="&#x15f;" horiz-adv-x="961" 
d="M793 317q0 -99 -56.5 -176.5t-156.5 -121t-224 -44.5l-33 -65q73 -9 108 -41.5t35 -90.5q0 -82 -71.5 -133t-227.5 -51q-40 0 -73.5 2t-43.5 4l26 87q44 -4 81 -4q179 0 179 100q0 32 -31.5 52t-97.5 20l63 124q-142 17 -212.5 95.5t-77.5 206.5l131 20q4 -107 59.5 -162
t176.5 -55q88 0 158 29t110 82.5t40 124.5q0 48 -22 79.5t-80.5 55.5t-168.5 44q-148 27 -212.5 90.5t-64.5 174.5q0 90 54 163.5t148 115.5t209 42q160 0 244.5 -67t100.5 -191l-130 -18q-4 81 -60 124t-161 43q-76 0 -138.5 -25.5t-99 -72t-36.5 -108.5q0 -43 20.5 -71.5
t72 -50.5t146.5 -40q113 -22 181.5 -56t101.5 -90.5t33 -144.5z" />
    <glyph glyph-name="Tcommaaccent" unicode="&#x162;" 
d="M1216 1341h-448l-285 -1341h-20l-45 -90q73 -9 108 -41.5t35 -90.5q0 -82 -71.5 -133t-227.5 -51q-40 0 -73.5 2t-43.5 4l26 87q44 -4 81 -4q179 0 179 100q0 32 -31.5 52t-97.5 20l73 145h-31l285 1341h-448l26 125h1035z" />
    <glyph glyph-name="tcommaaccent" unicode="&#x163;" horiz-adv-x="596" 
d="M210 169q0 -41 21 -55t65 -14q54 0 100 13l-6 -111q-24 -6 -56 -10t-55 -4q-15 0 -41 2l-40 -80q73 -9 108 -41.5t35 -90.5q0 -82 -71.5 -133t-227.5 -51q-40 0 -73.5 2t-43.5 4l26 87q44 -4 81 -4q179 0 179 100q0 32 -31.5 52t-97.5 20l77 152q-42 18 -60.5 53
t-18.5 87t20 145l141 664h-153l23 105h152l54 254l148 92l-73 -346h200l-23 -105h-200l-148 -696q-11 -48 -11 -91z" />
    <glyph glyph-name="Tcaron" unicode="&#x164;" 
d="M768 1341l-285 -1341h-139l285 1341h-448l26 125h1035l-26 -125h-448zM657 1835l100 -184l178 184h141l-254 -266h-148l-140 266h123z" />
    <glyph glyph-name="tcaron" unicode="&#x165;" horiz-adv-x="635" 
d="M592 1061l-23 -105h-200l-148 -696q-11 -48 -11 -91q0 -41 21 -55t65 -14q54 0 100 13l-6 -111q-24 -6 -56 -10t-55 -4q-109 0 -154 39.5t-45 119.5q0 52 20 145l141 664h-153l23 105h152l54 254l148 92l-73 -346h200zM580 1093l-39 71q43 23 65.5 42t35.5 45.5t24 73.5
h-81l40 185h174l-37 -176q-18 -85 -62.5 -141.5t-119.5 -99.5z" />
    <glyph glyph-name="glyph292" 
d="M768 1341l-285 -1341h-139l285 1341h-448l26 125h1035l-26 -125h-448zM254 -430l-11 80q51 10 77.5 34t34.5 64h-81l33 157h175l-30 -141q-15 -72 -60 -118.5t-138 -75.5z" />
    <glyph glyph-name="glyph293" horiz-adv-x="596" 
d="M592 1061l-23 -105h-200l-148 -696q-11 -48 -11 -91q0 -41 21 -55t65 -14q54 0 100 13l-6 -111q-24 -6 -56 -10t-55 -4q-109 0 -154 39.5t-45 119.5q0 52 20 145l141 664h-153l23 105h152l54 254l148 92l-73 -346h200zM54 -430l-11 80q51 10 77.5 34t34.5 64h-81l33 157
h175l-30 -141q-15 -72 -60 -118.5t-138 -75.5z" />
    <glyph glyph-name="Umacron" unicode="&#x16a;" horiz-adv-x="1424" 
d="M242 375q0 -144 85 -212.5t251 -68.5q142 0 240.5 44t160.5 136.5t94 240.5l202 951h138l-208 -978q-54 -256 -207 -384.5t-422 -128.5q-237 0 -353.5 103t-118.5 291q0 83 21 182l197 915h139l-202 -949q-17 -82 -17 -142zM619 1595l23 110h584l-23 -110h-584z" />
    <glyph glyph-name="umacron" unicode="&#x16b;" horiz-adv-x="1096" 
d="M182 353q-10 -49 -10 -91q0 -90 51.5 -132t154.5 -42q91 0 173.5 45.5t136.5 122.5q52 72 82 212l126 593h129l-226 -1061h-121l36 169q-75 -95 -163 -144t-198 -49q-154 0 -232 73t-78 203q0 51 12 108l148 701h129zM358 1227l23 110h584l-23 -110h-584z" />
    <glyph glyph-name="Uring" unicode="&#x16e;" horiz-adv-x="1424" 
d="M242 375q0 -144 85 -212.5t251 -68.5q142 0 240.5 44t160.5 136.5t94 240.5l202 951h138l-208 -978q-54 -256 -207 -384.5t-422 -128.5q-237 0 -353.5 103t-118.5 291q0 83 21 182l197 915h139l-202 -949q-17 -82 -17 -142zM909 1882q49 0 90 -24t65 -65t24 -90t-24 -90
t-65 -65t-90 -24t-90 24t-65 65t-24 90t24 90t65 65t90 24zM909 1589q47 0 80.5 33.5t33.5 80.5t-33.5 80.5t-80.5 33.5t-80.5 -33.5t-33.5 -80.5t33.5 -80.5t80.5 -33.5z" />
    <glyph glyph-name="uring" unicode="&#x16f;" horiz-adv-x="1096" 
d="M182 353q-10 -49 -10 -91q0 -90 51.5 -132t154.5 -42q91 0 173.5 45.5t136.5 122.5q52 72 82 212l126 593h129l-226 -1061h-121l36 169q-75 -95 -163 -144t-198 -49q-154 0 -232 73t-78 203q0 51 12 108l148 701h129zM660 1513q49 0 90 -24t65 -65t24 -90t-24 -90
t-65 -65t-90 -24t-90 24t-65 65t-24 90t24 90t65 65t90 24zM660 1220q47 0 80.5 33.5t33.5 80.5t-33.5 80.5t-80.5 33.5t-80.5 -33.5t-33.5 -80.5t33.5 -80.5t80.5 -33.5z" />
    <glyph glyph-name="Uhungarumlaut" unicode="&#x170;" horiz-adv-x="1424" 
d="M242 375q0 -144 85 -212.5t251 -68.5q142 0 240.5 44t160.5 136.5t94 240.5l202 951h138l-208 -978q-54 -256 -207 -384.5t-422 -128.5q-237 0 -353.5 103t-118.5 291q0 83 21 182l197 915h139l-202 -949q-17 -82 -17 -142zM670 1569l210 266h180l-282 -266h-108z
M935 1569l210 266h180l-282 -266h-108z" />
    <glyph glyph-name="uhungarumlaut" unicode="&#x171;" horiz-adv-x="1096" 
d="M182 353q-10 -49 -10 -91q0 -90 51.5 -132t154.5 -42q91 0 173.5 45.5t136.5 122.5q52 72 82 212l126 593h129l-226 -1061h-121l36 169q-75 -95 -163 -144t-198 -49q-154 0 -232 73t-78 203q0 51 12 108l148 701h129zM431 1200l210 266h180l-282 -266h-108zM696 1200
l210 266h180l-282 -266h-108z" />
    <glyph glyph-name="Uogonek" unicode="&#x172;" horiz-adv-x="1424" 
d="M1205 488q-50 -237 -185 -364.5t-367 -145.5q-47 -55 -74.5 -108t-27.5 -96q0 -30 18 -47.5t53 -17.5q59 0 125 18l-20 -94q-31 -12 -67 -19t-67 -7q-74 0 -111 31.5t-37 105.5q0 51 29.5 112.5t81.5 118.5q-227 5 -338.5 107.5t-113.5 286.5q0 83 21 182l197 915h139
l-202 -949q-17 -82 -17 -142q0 -144 85 -212.5t251 -68.5q142 0 240.5 44t160.5 136.5t94 240.5l202 951h138z" />
    <glyph glyph-name="uogonek" unicode="&#x173;" horiz-adv-x="1096" 
d="M718 -291q59 0 125 18l-20 -94q-31 -12 -67 -19t-67 -7q-74 0 -111 31.5t-37 105.5q0 58 37 127t101 132l35 166q-75 -95 -163 -144t-198 -49q-154 0 -232 73t-78 203q0 51 12 108l148 701h129l-150 -708q-10 -49 -10 -91q0 -90 51.5 -132t154.5 -42q91 0 173.5 45.5
t136.5 122.5q52 72 82 212l126 593h129l-226 -1061h-30q-56 -60 -89 -119t-33 -107q0 -30 18 -47.5t53 -17.5z" />
    <glyph glyph-name="Zacute" unicode="&#x179;" horiz-adv-x="1199" 
d="M89 125h931l-27 -125h-1101l27 129l1148 1212h-816l27 125h996l-26 -120zM679 1569l210 266h180l-282 -266h-108z" />
    <glyph glyph-name="zacute" unicode="&#x17a;" horiz-adv-x="929" 
d="M77 109h674l-23 -109h-834l23 109l807 847h-586l23 105h760l-18 -84zM471 1200l210 266h180l-282 -266h-108z" />
    <glyph glyph-name="Zdotaccent" unicode="&#x17b;" horiz-adv-x="1199" 
d="M89 125h931l-27 -125h-1101l27 129l1148 1212h-816l27 125h996l-26 -120zM721 1591l34 162h138l-34 -162h-138z" />
    <glyph glyph-name="zdotaccent" unicode="&#x17c;" horiz-adv-x="929" 
d="M77 109h674l-23 -109h-834l23 109l807 847h-586l23 105h760l-18 -84zM495 1222l34 162h138l-34 -162h-138z" />
    <glyph glyph-name="Ohorn" unicode="&#x1a0;" horiz-adv-x="1584" 
d="M85 580q0 251 102 459t295 330t446 122q134 0 246 -51t189 -145l-2 5q72 2 119.5 30.5t78.5 89t53 164.5h131q-35 -165 -112 -259.5t-207 -119.5q75 -141 75 -318q0 -261 -110.5 -469t-303 -325.5t-429.5 -117.5q-163 0 -293 76t-204 213.5t-74 315.5zM911 1372
q-210 0 -364 -105.5t-235 -286t-81 -399.5q0 -145 51.5 -255t150.5 -171t236 -61q195 0 350.5 98.5t244 277.5t88.5 410q0 153 -52.5 264t-151.5 169.5t-237 58.5z" />
    <glyph glyph-name="ohorn" unicode="&#x1a1;" horiz-adv-x="1157" 
d="M12 405q0 203 78 358t212.5 238.5t292.5 83.5q122 0 211 -47.5t139 -136.5q78 16 122.5 80.5t73.5 197.5h131q-33 -155 -103 -248t-185 -124q20 -72 20 -155q0 -198 -76.5 -352.5t-209 -239.5t-295.5 -85q-135 0 -227 53t-138 149.5t-46 227.5zM590 976
q-122 0 -223 -69.5t-160.5 -200t-59.5 -304.5q0 -103 34.5 -174.5t96.5 -107.5t144 -36q124 0 226 70t161 199t59 301q0 102 -34.5 174.5t-97.5 110t-146 37.5z" />
    <glyph glyph-name="Uhorn" unicode="&#x1af;" horiz-adv-x="1531" 
d="M242 375q0 -144 85 -212.5t251 -68.5q142 0 240.5 44t160.5 136.5t94 240.5l202 951h138l-35 -166q76 0 123.5 27.5t77 88t52.5 168.5h131q-41 -197 -136.5 -292t-269.5 -95l-151 -709q-54 -256 -207 -384.5t-422 -128.5q-237 0 -353.5 103t-118.5 291q0 83 21 182
l197 915h139l-202 -949q-17 -82 -17 -142z" />
    <glyph glyph-name="uhorn" unicode="&#x1b0;" horiz-adv-x="1259" 
d="M182 353q-10 -49 -10 -91q0 -90 51.5 -132t154.5 -42q91 0 173.5 45.5t136.5 122.5q52 72 82 212l126 593h129l-36 -166q76 0 123.5 27.5t77 88t52.5 168.5h131q-41 -195 -136.5 -291t-269.5 -96l-168 -792h-121l36 169q-75 -95 -163 -144t-198 -49q-154 0 -232 73
t-78 203q0 51 12 108l148 701h129z" />
    <glyph glyph-name="caron" unicode="&#x2c7;" horiz-adv-x="682" 
d="M349 1466l100 -184l178 184h141l-254 -266h-148l-140 266h123z" />
    <glyph glyph-name="breve" unicode="&#x2d8;" horiz-adv-x="682" 
d="M469 1305q71 0 117.5 31t78.5 106h105q-37 -113 -116 -177.5t-194 -64.5q-124 0 -186 62t-62 180h106q0 -72 35.5 -104.5t115.5 -32.5z" />
    <glyph glyph-name="dotaccent" unicode="&#x2d9;" horiz-adv-x="682" 
d="M376 1222l34 162h138l-34 -162h-138z" />
    <glyph glyph-name="glyph313" horiz-adv-x="682" 
d="M621 1513q49 0 90 -24t65 -65t24 -90t-24 -90t-65 -65t-90 -24t-90 24t-65 65t-24 90t24 90t65 65t90 24zM621 1220q47 0 80.5 33.5t33.5 80.5t-33.5 80.5t-80.5 33.5t-80.5 -33.5t-33.5 -80.5t33.5 -80.5t80.5 -33.5z" />
    <glyph glyph-name="ogonek" unicode="&#x2db;" horiz-adv-x="682" 
d="M158 -393q-74 0 -111 31.5t-37 105.5q0 61 40.5 133.5t108.5 136.5h92q-61 -62 -98 -126t-37 -114q0 -30 18 -47.5t53 -17.5q59 0 125 18l-20 -94q-31 -12 -67 -19t-67 -7z" />
    <glyph glyph-name="hungarumlaut" unicode="&#x2dd;" horiz-adv-x="682" 
d="M231 1200l210 266h180l-282 -266h-108zM496 1200l210 266h180l-282 -266h-108z" />
    <glyph glyph-name="gravecomb" unicode="&#x300;" horiz-adv-x="0" 
d="M-431 1200l-168 266h170l97 -266h-99z" />
    <glyph glyph-name="acutecomb" unicode="&#x301;" horiz-adv-x="0" 
d="M-561 1200l210 266h180l-282 -266h-108z" />
    <glyph glyph-name="tildecomb" unicode="&#x303;" horiz-adv-x="0" 
d="M-294 1230q-67 0 -136 42q-41 24 -66 32.5t-47 8.5q-29 0 -47 -20t-30 -63h-105q25 96 71.5 142t121.5 46q63 0 133 -42q41 -24 66 -32.5t48 -8.5q29 0 47 20t30 63h105q-23 -90 -70.5 -139t-120.5 -49z" />
    <glyph glyph-name="hookabovecomb" unicode="&#x309;" horiz-adv-x="0" 
d="M-361 1385q0 27 -27 41t-77 14q-44 0 -89 -4l10 87q11 2 39.5 4t53.5 2q116 0 170 -33.5t54 -104.5q0 -65 -50.5 -103.5t-164.5 -48.5l-8 -39h-88l22 104q63 0 96 9t46 26t13 46z" />
    <glyph glyph-name="dotbelowcomb" unicode="&#x323;" horiz-adv-x="0" 
d="M-836 -328l34 162h138l-34 -162h-138z" />
    <glyph glyph-name="tonos" unicode="&#x384;" horiz-adv-x="682" 
d="M356 1194l176 272h180l-248 -272h-108z" />
    <glyph glyph-name="dieresistonos" unicode="&#x385;" horiz-adv-x="682" 
d="M358 1204l111 272h160l-183 -272h-88zM324 1232h-123l34 162h123zM693 1232h-123l34 162h123z" />
    <glyph glyph-name="Alphatonos" unicode="&#x386;" horiz-adv-x="1323" 
d="M1019 0l-83 465h-661l-271 -465h-156l873 1466h160l282 -1466h-144zM610 1038l-270 -458h576l-83 452q-27 147 -45 328h-4q-74 -153 -174 -322zM98 1194l176 272h180l-248 -272h-108z" />
    <glyph glyph-name="Epsilontonos" unicode="&#x388;" horiz-adv-x="1416" 
d="M98 1194l176 272h180l-248 -272h-108zM666 1341l-111 -522h691l-26 -125h-691l-121 -569h781l-27 -125h-920l312 1466h885l-27 -125h-746z" />
    <glyph glyph-name="Etatonos" unicode="&#x389;" horiz-adv-x="1645" 
d="M98 1194l176 272h180l-248 -272h-108zM1355 842l133 624h139l-312 -1466h-139l152 717h-795l-152 -717h-139l312 1466h139l-133 -624h795z" />
    <glyph glyph-name="Iotatonos" unicode="&#x38a;" horiz-adv-x="711" 
d="M98 1194l176 272h180l-248 -272h-108zM242 0l312 1466h139l-312 -1466h-139z" />
    <glyph glyph-name="Omicrontonos" unicode="&#x38c;" horiz-adv-x="1688" 
d="M98 1194l176 272h180l-248 -272h-108zM189 580q0 263 102 470.5t287 324t419 116.5q177 0 315 -76t214.5 -213t76.5 -315q0 -266 -106.5 -473.5t-295 -323t-425.5 -115.5q-170 0 -303.5 76t-208.5 213.5t-75 315.5zM992 1372q-204 0 -354 -105t-227 -285t-77 -401
q0 -148 54.5 -257.5t157 -169.5t243.5 -60q190 0 342.5 96.5t239.5 275t87 414.5q0 153 -56 263.5t-161 169.5t-249 59z" />
    <glyph glyph-name="Upsilontonos" unicode="&#x38e;" horiz-adv-x="1525" 
d="M98 1194l176 272h180l-248 -272h-108zM1503 1466h166l-715 -833l-135 -633h-139l135 633l-343 833h146l288 -709z" />
    <glyph glyph-name="Omegatonos" unicode="&#x38f;" horiz-adv-x="1655" 
d="M98 1194l176 272h180l-248 -272h-108zM822 0l24 115q263 157 406.5 349.5t143.5 455.5q0 138 -52 240t-148.5 157t-226.5 55q-180 0 -319.5 -96.5t-216.5 -261.5t-77 -362q0 -165 68.5 -300t196.5 -237l-24 -115h-549l27 125h392q-64 46 -122 128t-95 192t-37 231
q0 228 106.5 415t282.5 293.5t375 106.5q177 0 305 -76t194 -204.5t66 -285.5q0 -172 -64 -323t-177 -271t-263 -206h358l-27 -125h-547z" />
    <glyph glyph-name="iotadieresistonos" unicode="&#x390;" horiz-adv-x="468" 
d="M150 154q0 -68 73 -68q22 0 51 4t50 11l-7 -101q-25 -10 -59 -16.5t-59 -6.5q-93 0 -135 42t-42 122q0 39 14 107l172 813h129l-178 -838q-9 -42 -9 -69zM226 1204l111 272h160l-183 -272h-88zM192 1232h-123l34 162h123zM561 1232h-123l34 162h123z" />
    <glyph glyph-name="Alpha" unicode="&#x391;" horiz-adv-x="1323" 
d="M1019 0l-83 465h-661l-271 -465h-156l873 1466h160l282 -1466h-144zM610 1038l-270 -458h576l-83 452q-27 147 -45 328h-4q-74 -153 -174 -322z" />
    <glyph glyph-name="Beta" unicode="&#x392;" horiz-adv-x="1313" 
d="M1229 1154q0 -136 -65 -229.5t-225 -155.5q112 -40 163.5 -117.5t51.5 -175.5q0 -136 -67 -244t-190.5 -170t-284.5 -62h-594l312 1466h513q187 0 286.5 -83t99.5 -229zM1083 1146q0 96 -67.5 145.5t-213.5 49.5h-360l-110 -520h381q117 0 200.5 41t126.5 114.5t43 169.5
zM1005 469q0 107 -70 168t-195 61h-435l-121 -573h430q121 0 209.5 44t135 122t46.5 178z" />
    <glyph glyph-name="Gamma" unicode="&#x393;" horiz-adv-x="1035" 
d="M1139 1466l-27 -125h-670l-285 -1341h-139l312 1466h809z" />
    <glyph glyph-name="Delta" unicode="&#x394;" horiz-adv-x="1325" 
d="M1126 0h-1240l20 95l817 1371h160l263 -1371zM611 1038l-534 -913h920l-163 907q-29 165 -45 328h-4q-67 -137 -174 -322z" />
    <glyph glyph-name="Epsilon" unicode="&#x395;" horiz-adv-x="1192" 
d="M442 1341l-111 -522h691l-26 -125h-691l-121 -569h781l-27 -125h-920l312 1466h885l-27 -125h-746z" />
    <glyph glyph-name="Zeta" unicode="&#x396;" horiz-adv-x="1199" 
d="M89 125h931l-27 -125h-1101l27 129l1148 1212h-816l27 125h996l-26 -120z" />
    <glyph glyph-name="Eta" unicode="&#x397;" horiz-adv-x="1421" 
d="M1131 842l133 624h139l-312 -1466h-139l152 717h-795l-152 -717h-139l312 1466h139l-133 -624h795z" />
    <glyph glyph-name="Theta" unicode="&#x398;" horiz-adv-x="1584" 
d="M85 580q0 251 102 459t293.5 330t447.5 122q165 0 295 -76t203 -213.5t73 -314.5q0 -261 -110.5 -469t-303 -325.5t-429.5 -117.5q-163 0 -293 76t-204 213.5t-74 315.5zM911 1372q-208 0 -363 -105.5t-236 -286t-81 -399.5q0 -145 51.5 -255t150.5 -171t236 -61
q195 0 350.5 98.5t244 277.5t88.5 410q0 153 -52.5 264t-151.5 169.5t-237 58.5zM1167 692h-768l27 125h768z" />
    <glyph glyph-name="Iota" unicode="&#x399;" horiz-adv-x="487" 
d="M18 0l312 1466h139l-312 -1466h-139z" />
    <glyph glyph-name="Kappa" unicode="&#x39a;" horiz-adv-x="1246" 
d="M1182 1466h188l-692 -592l407 -874h-159l-355 790l-299 -247l-115 -543h-139l312 1466h139l-159 -741z" />
    <glyph glyph-name="Lambda" unicode="&#x39b;" horiz-adv-x="1251" 
d="M759 1316l-757 -1316h-146l859 1466h143l225 -1466h-139l-181 1316h-4z" />
    <glyph glyph-name="Mu" unicode="&#x39c;" horiz-adv-x="1690" 
d="M1459 1466h213l-312 -1466h-127l281 1323h-6l-764 -1323h-116l-196 1323h-6l-281 -1323h-127l312 1466h201l189 -1277z" />
    <glyph glyph-name="Nu" unicode="&#x39d;" horiz-adv-x="1423" 
d="M1006 199l271 1267h128l-312 -1466h-149l-526 1260h-4l-268 -1260h-128l312 1466h140l529 -1267h7z" />
    <glyph glyph-name="Xi" unicode="&#x39e;" horiz-adv-x="1244" 
d="M1238 1341h-974l27 125h974zM1002 676h-784l26 125h784zM978 0h-1024l27 125h1024z" />
    <glyph glyph-name="Omicron" unicode="&#x39f;" horiz-adv-x="1584" 
d="M85 580q0 263 102 470.5t287 324t419 116.5q177 0 315 -76t214.5 -213t76.5 -315q0 -266 -106.5 -473.5t-295 -323t-425.5 -115.5q-170 0 -303.5 76t-208.5 213.5t-75 315.5zM888 1372q-204 0 -354 -105t-227 -285t-77 -401q0 -148 54.5 -257.5t157 -169.5t243.5 -60
q190 0 342.5 96.5t239.5 275t87 414.5q0 153 -56 263.5t-161 169.5t-249 59z" />
    <glyph glyph-name="Pi" unicode="&#x3a0;" horiz-adv-x="1421" 
d="M952 0l285 1341h-795l-285 -1341h-139l312 1466h1073l-312 -1466h-139z" />
    <glyph glyph-name="Rho" unicode="&#x3a1;" horiz-adv-x="1235" 
d="M1225 1123q0 -146 -65 -259.5t-192.5 -178t-308.5 -64.5h-370l-132 -621h-139l312 1466h484q126 0 218.5 -41.5t142.5 -118.5t50 -183zM1078 1113q0 112 -72 170t-233 58h-331l-126 -595h330q209 0 320.5 94t111.5 273z" />
    <glyph glyph-name="Sigma" unicode="&#x3a3;" horiz-adv-x="1091" 
d="M1137 1466l-27 -125h-762l380 -587v-1l-636 -628h805l-27 -125h-966l27 129l638 633l-378 584l26 120h920z" />
    <glyph glyph-name="Tau" unicode="&#x3a4;" 
d="M768 1341l-285 -1341h-139l285 1341h-448l26 125h1035l-26 -125h-448z" />
    <glyph glyph-name="Upsilon" unicode="&#x3a5;" horiz-adv-x="1221" 
d="M1199 1466h166l-715 -833l-135 -633h-139l135 633l-343 833h146l288 -709z" />
    <glyph glyph-name="Phi" unicode="&#x3a6;" horiz-adv-x="1571" 
d="M86 662q0 195 88.5 335.5t256.5 219t407 92.5l35 167h139l-35 -167q160 -10 274.5 -71t175.5 -166.5t61 -247.5q0 -195 -88.5 -335.5t-257 -219.5t-406.5 -92l-40 -187h-139l40 187q-160 10 -274.5 71t-175.5 166.5t-61 247.5zM623 296l189 894q-289 -19 -433.5 -160
t-144.5 -379q0 -162 94.5 -251t294.5 -104zM951 1190l-189 -894q289 19 433.5 160t144.5 379q0 162 -94.5 251t-294.5 104z" />
    <glyph glyph-name="Chi" unicode="&#x3a7;" horiz-adv-x="1251" 
d="M1199 1466h159l-634 -696l363 -770h-153l-308 674l-598 -674h-176l718 787l-326 679h152l269 -587z" />
    <glyph glyph-name="Psi" unicode="&#x3a8;" horiz-adv-x="1609" 
d="M1365 995l100 471h139l-110 -519q-52 -246 -215 -368.5t-464 -122.5l-97 -456h-139l97 457q-242 7 -358.5 111t-116.5 292q0 70 17 153l97 453h140l-100 -469q-15 -70 -15 -131q0 -143 90 -216.5t271 -73.5l189 890h139l-189 -890q149 0 252.5 39.5t171.5 131t101 248.5z
" />
    <glyph glyph-name="Omega" unicode="&#x3a9;" horiz-adv-x="1581" 
d="M748 0l24 115q263 157 406.5 349.5t143.5 455.5q0 138 -52 240t-148.5 157t-226.5 55q-180 0 -319.5 -96.5t-216.5 -261.5t-77 -362q0 -165 68.5 -300t196.5 -237l-24 -115h-549l27 125h392q-64 46 -122 128t-95 192t-37 231q0 228 106.5 415t282.5 293.5t375 106.5
q177 0 305 -76t194 -204.5t66 -285.5q0 -172 -64 -323t-177 -271t-263 -206h358l-27 -125h-547z" />
    <glyph glyph-name="Iotadieresis" unicode="&#x3aa;" horiz-adv-x="487" 
d="M18 0l312 1466h139l-312 -1466h-139zM334 1591h-123l34 162h123zM643 1591h-123l34 162h123z" />
    <glyph glyph-name="Upsilondieresis" unicode="&#x3ab;" horiz-adv-x="1221" 
d="M1199 1466h166l-715 -833l-135 -633h-139l135 633l-343 833h146l288 -709zM700 1591h-123l34 162h123zM1009 1591h-123l34 162h123z" />
    <glyph glyph-name="alphatonos" unicode="&#x3ac;" horiz-adv-x="1154" 
d="M897 825q60 154 102 236h131q-67 -117 -124.5 -254.5t-96.5 -269.5q-16 -111 -16 -228q0 -141 23 -309h-121l-6 51q-7 59 -10 92.5t-3 80.5h-4q-88 -133 -198.5 -191t-217.5 -58q-175 0 -260 116t-85 314q0 171 67 328t192 254.5t286 97.5q119 0 206.5 -66t118.5 -224h4z
M551 976q-110 0 -203 -76.5t-148 -208.5t-55 -289q0 -159 57.5 -238.5t160.5 -79.5q126 0 226 73t156.5 203t56.5 295q0 144 -63.5 232.5t-187.5 88.5zM521 1194l176 272h180l-248 -272h-108z" />
    <glyph glyph-name="epsilontonos" unicode="&#x3ad;" horiz-adv-x="927" 
d="M531 977q-74 0 -135.5 -26t-97 -74t-35.5 -108q0 -77 45.5 -122.5t129.5 -45.5h134l-23 -109h-130q-84 0 -147.5 -30t-98.5 -84.5t-35 -127.5q0 -46 24 -83.5t71 -59.5t111 -22q79 0 167.5 36.5t158.5 91.5l67 -82q-106 -81 -202 -118t-206 -37t-184 39t-109 100t-35 129
q0 109 63 187t184 118q-58 32 -87.5 89t-29.5 123q0 83 44 157t139 121t235 47q93 0 177.5 -30.5t142.5 -92.5l-95 -82q-92 96 -243 96zM488 1194l176 272h180l-248 -272h-108z" />
    <glyph glyph-name="etatonos" unicode="&#x3ae;" horiz-adv-x="1096" 
d="M826 708q10 49 10 91q0 90 -51.5 132t-154.5 42q-91 0 -173.5 -45.5t-136.5 -122.5q-52 -72 -82 -212l-126 -593h-129l226 1061h121l-36 -169q75 95 163 144t198 49q154 0 232 -73t78 -203q0 -51 -12 -108l-234 -1107h-129zM567 1194l176 272h180l-248 -272h-108z" />
    <glyph glyph-name="iotatonos" unicode="&#x3af;" horiz-adv-x="468" 
d="M150 154q0 -68 73 -68q22 0 51 4t50 11l-7 -101q-25 -10 -59 -16.5t-59 -6.5q-93 0 -135 42t-42 122q0 39 14 107l172 813h129l-178 -838q-9 -42 -9 -69zM220 1194l176 272h180l-248 -272h-108z" />
    <glyph glyph-name="upsilondieresistonos" unicode="&#x3b0;" horiz-adv-x="1054" 
d="M181 287q0 -98 49.5 -148.5t146.5 -50.5q179 0 278 103.5t135 268t36 383.5q0 48 -2.5 116t-7.5 102h129q4 -46 7 -114t3 -124q0 -848 -582 -848q-157 0 -239 80t-82 228q0 68 16 142l136 636h129l-140 -661q-12 -58 -12 -113zM537 1204l111 272h160l-183 -272h-88z
M503 1232h-123l34 162h123zM872 1232h-123l34 162h123z" />
    <glyph glyph-name="alpha" unicode="&#x3b1;" horiz-adv-x="1154" 
d="M897 825q60 154 102 236h131q-67 -117 -124.5 -254.5t-96.5 -269.5q-16 -111 -16 -228q0 -141 23 -309h-121l-6 51q-7 59 -10 92.5t-3 80.5h-4q-88 -133 -198.5 -191t-217.5 -58q-175 0 -260 116t-85 314q0 171 67 328t192 254.5t286 97.5q119 0 206.5 -66t118.5 -224h4z
M551 976q-110 0 -203 -76.5t-148 -208.5t-55 -289q0 -159 57.5 -238.5t160.5 -79.5q126 0 226 73t156.5 203t56.5 295q0 144 -63.5 232.5t-187.5 88.5z" />
    <glyph glyph-name="beta" unicode="&#x3b2;" horiz-adv-x="1085" 
d="M1021 1167q0 -125 -74.5 -215.5t-216.5 -144.5q101 -28 160.5 -112.5t59.5 -212.5q0 -137 -61.5 -253t-174.5 -185t-261 -69q-229 0 -304 181h-4l-119 -562h-129l305 1437q47 223 162.5 341.5t313.5 118.5q98 0 176 -40.5t122.5 -114.5t44.5 -169zM886 1170q0 98 -59 155
t-161 57q-93 0 -158 -36.5t-107.5 -113.5t-69.5 -203l-110 -516q-18 -84 -18 -153q0 -134 65 -205t193 -71q97 0 178 53t128.5 146t47.5 208q0 119 -68 184.5t-190 65.5h-112l23 109h79q87 0 165 38.5t126 111.5t48 170z" />
    <glyph glyph-name="gamma" unicode="&#x3b3;" horiz-adv-x="976" 
d="M893 1061h138l-629 -1041l-91 -426h-129l90 424l-187 1043h128l147 -907z" />
    <glyph glyph-name="delta" unicode="&#x3b4;" horiz-adv-x="1102" 
d="M1070 1361h-568q69 -86 165.5 -181.5t156.5 -146.5q97 -83 138.5 -180t41.5 -217q0 -193 -76.5 -343.5t-209 -234t-295.5 -83.5q-135 0 -227 51.5t-138 146t-46 222.5q0 185 73 336.5t213.5 240t335.5 88.5q-79 69 -153.5 149.5t-154.5 177.5l16 79h750zM590 956
q-122 0 -223 -68t-160.5 -195.5t-59.5 -297.5q0 -101 34.5 -171t96.5 -105t144 -35q124 0 226 68t161 194.5t59 294.5q0 100 -34.5 171t-97.5 107.5t-146 36.5z" />
    <glyph glyph-name="epsilon" unicode="&#x3b5;" horiz-adv-x="927" 
d="M531 977q-74 0 -135.5 -26t-97 -74t-35.5 -108q0 -77 45.5 -122.5t129.5 -45.5h134l-23 -109h-130q-84 0 -147.5 -30t-98.5 -84.5t-35 -127.5q0 -46 24 -83.5t71 -59.5t111 -22q79 0 167.5 36.5t158.5 91.5l67 -82q-106 -81 -202 -118t-206 -37t-184 39t-109 100t-35 129
q0 109 63 187t184 118q-58 32 -87.5 89t-29.5 123q0 83 44 157t139 121t235 47q93 0 177.5 -30.5t142.5 -92.5l-95 -82q-92 96 -243 96z" />
    <glyph glyph-name="zeta" unicode="&#x3b6;" horiz-adv-x="864" 
d="M140 389q0 -66 20 -109t65.5 -71.5t128.5 -48.5q141 -34 204 -98.5t63 -158.5q0 -93 -50 -169t-145.5 -120t-226.5 -44l-44 2l41 107q94 0 160 28t99.5 76.5t33.5 110.5q0 57 -43 92.5t-150 60.5q-292 66 -292 338q0 159 94 332.5t263.5 340t391.5 303.5h-418l23 105h620
l-17 -79q-299 -176 -482.5 -358.5t-261 -344t-77.5 -295.5z" />
    <glyph glyph-name="eta" unicode="&#x3b7;" horiz-adv-x="1096" 
d="M826 708q10 49 10 91q0 90 -51.5 132t-154.5 42q-91 0 -173.5 -45.5t-136.5 -122.5q-52 -72 -82 -212l-126 -593h-129l226 1061h121l-36 -169q75 95 163 144t198 49q154 0 232 -73t78 -203q0 -51 -12 -108l-234 -1107h-129z" />
    <glyph glyph-name="theta" unicode="&#x3b8;" horiz-adv-x="1058" 
d="M28 466q0 255 70 491t207 385t325 149q107 0 192 -55t134.5 -167t49.5 -277q0 -253 -77.5 -488t-217.5 -382t-319 -147q-176 0 -270 123t-94 368zM190 796h668q16 109 16 200q0 117 -29.5 204t-85.5 134.5t-134 47.5q-101 0 -189 -76t-151 -209.5t-95 -300.5zM839 691
h-665q-14 -104 -14 -227q0 -197 59.5 -288.5t177.5 -91.5q103 0 191 84.5t152 222.5t99 300z" />
    <glyph glyph-name="iota" unicode="&#x3b9;" horiz-adv-x="468" 
d="M150 154q0 -68 73 -68q22 0 51 4t50 11l-7 -101q-25 -10 -59 -16.5t-59 -6.5q-93 0 -135 42t-42 122q0 39 14 107l172 813h129l-178 -838q-9 -42 -9 -69z" />
    <glyph glyph-name="kappa" unicode="&#x3ba;" horiz-adv-x="1006" 
d="M259 601l578 460h178l-502 -401l309 -660h-146l-262 586l-190 -147l-93 -439h-129l226 1061h129z" />
    <glyph glyph-name="lambda" unicode="&#x3bb;" horiz-adv-x="928" 
d="M406 1466h114l237 -1466h-121l-94 591q-18 115 -25.5 176t-11.5 112h-4q-59 -112 -168 -296l-344 -583h-130l612 1033z" />
    <glyph glyph-name="mu" unicode="&#x3bc;" horiz-adv-x="1107" 
d="M212 470q-19 -90 -19 -154q0 -232 221 -232q138 0 234 105.5t133 280.5l126 591h129l-226 -1061h-121l31 144q-74 -96 -147.5 -132.5t-164.5 -36.5q-105 0 -167.5 39t-99.5 118l-115 -538h-129l312 1467h129z" />
    <glyph glyph-name="nu" unicode="&#x3bd;" horiz-adv-x="976" 
d="M882 1061h139q-87 -241 -269 -522.5t-408 -538.5h-92l-167 1061h125l130 -901q205 251 334 463t208 438z" />
    <glyph glyph-name="xi" unicode="&#x3be;" horiz-adv-x="812" 
d="M698 1381q-154 0 -235.5 -63.5t-81.5 -190.5q0 -81 59.5 -127.5t176.5 -46.5h81l-23 -109h-35q-139 0 -250 -71t-173 -182t-62 -225q0 -60 17 -100t55.5 -65.5t105.5 -40.5q118 -26 178.5 -95t60.5 -167q0 -106 -51 -179.5t-144.5 -111t-221.5 -37.5q-35 0 -49 2l41 107
q143 0 218.5 52.5t75.5 159.5q0 61 -38.5 97t-136.5 59q-126 31 -186.5 111t-60.5 200q0 143 63 254t161.5 180.5t206.5 95.5q-97 18 -147 85t-50 159q0 173 118 265.5t350 92.5h101l-23 -109h-101z" />
    <glyph glyph-name="omicron" unicode="&#x3bf;" horiz-adv-x="1102" 
d="M12 405q0 203 78 358t211 238.5t294 83.5q129 0 221 -52.5t140 -150.5t48 -230q0 -198 -76.5 -352.5t-209 -239.5t-295.5 -85q-135 0 -227 53t-138 149.5t-46 227.5zM590 976q-122 0 -223.5 -69.5t-161.5 -200t-60 -304.5q0 -103 35 -174.5t97.5 -107.5t144.5 -36
q125 0 227 70t161.5 199.5t59.5 300.5q0 102 -35 174.5t-98.5 110t-146.5 37.5z" />
    <glyph glyph-name="pi" unicode="&#x3c0;" horiz-adv-x="1208" 
d="M814 223q-9 -42 -9 -69q0 -39 17.5 -53.5t55.5 -14.5q23 0 54 4t52 11l-13 -101q-25 -10 -60 -16.5t-67 -6.5q-169 0 -169 165q0 42 13 105l152 709h-415l-203 -956h-129l203 956q-124 0 -228 -35l22 105q113 35 229 35h915l-23 -105h-241z" />
    <glyph glyph-name="rho" unicode="&#x3c1;" horiz-adv-x="1128" 
d="M651 1085q119 0 205 -57t130.5 -155t44.5 -218q0 -190 -72 -345.5t-201.5 -245t-295.5 -89.5q-111 0 -189 47t-126 142h-4l-121 -570h-129l213 1002q30 140 102 250.5t184.5 174.5t258.5 64zM626 976q-139 0 -235.5 -82t-144 -214.5t-47.5 -281.5t68.5 -231.5
t192.5 -82.5q123 0 222.5 77t156 208.5t56.5 288.5q0 148 -68.5 233t-200.5 85z" />
    <glyph glyph-name="sigma1" unicode="&#x3c2;" horiz-adv-x="954" 
d="M231 -321q92 0 158 27.5t100 74.5t34 105t-46 94t-156 67q-307 87 -307 377q0 181 86 332.5t238.5 240t344.5 88.5q71 0 143 -10t124 -31l-50 -109q-49 21 -111.5 31t-111.5 10q-151 0 -272 -74t-188.5 -200t-67.5 -275q0 -73 22 -123t72 -85t136 -59q153 -44 215 -108.5
t62 -158.5q0 -97 -56.5 -170t-156 -113t-224.5 -40q-99 0 -170 25l38 114q27 -13 66 -21.5t78 -8.5z" />
    <glyph glyph-name="sigma" unicode="&#x3c3;" horiz-adv-x="1211" 
d="M877 956q60 -58 93.5 -138.5t33.5 -180.5q0 -194 -76.5 -344.5t-209 -234t-295.5 -83.5q-135 0 -227 51.5t-138 146t-46 222.5q0 200 78.5 351t215 233t303.5 82h627l-22 -105h-337zM590 956q-122 0 -223 -68t-160.5 -195.5t-59.5 -297.5q0 -101 34.5 -171t96.5 -105
t144 -35q124 0 226 68t161 194.5t59 294.5q0 100 -34.5 171t-97.5 107.5t-146 36.5z" />
    <glyph glyph-name="tau" unicode="&#x3c4;" horiz-adv-x="781" 
d="M329 145q0 -33 15.5 -46t49.5 -13q23 0 54 4t52 11l-13 -101q-25 -10 -59.5 -16.5t-61.5 -6.5q-89 0 -127.5 38t-38.5 113q0 48 14 113l152 715h-28q-134 0 -254 -35l22 105q117 35 252 35h449l-23 -105h-288l-156 -733q-11 -52 -11 -78z" />
    <glyph glyph-name="upsilon" unicode="&#x3c5;" horiz-adv-x="1054" 
d="M181 287q0 -98 49.5 -148.5t146.5 -50.5q179 0 278 103.5t135 268t36 383.5q0 48 -2.5 116t-7.5 102h129q4 -46 7 -114t3 -124q0 -848 -582 -848q-157 0 -239 80t-82 228q0 68 16 142l136 636h129l-140 -661q-12 -58 -12 -113z" />
    <glyph glyph-name="phi" unicode="&#x3c6;" horiz-adv-x="1283" 
d="M439 87l161 757q26 122 89.5 181.5t164.5 59.5t176.5 -48t117 -139.5t41.5 -216.5q0 -195 -77 -351.5t-223 -250t-344 -101.5l-82 -384h-129l82 384q-129 10 -218.5 72.5t-135 162.5t-45.5 224q0 177 76 322.5t207 232t288 93.5l-35 -117q-128 -10 -219.5 -89
t-137.5 -197t-46 -245q0 -157 73 -245t216 -105zM727 832l-158 -745q140 9 251 86t173.5 208.5t62.5 299.5q0 93 -25 159.5t-71 101t-106 34.5q-56 0 -84.5 -38.5t-42.5 -105.5z" />
    <glyph glyph-name="chi" unicode="&#x3c7;" horiz-adv-x="971" 
d="M429 468l425 593h152l-536 -723l247 -744h-140l-196 646l-459 -646h-152l565 770l-219 697h140z" />
    <glyph glyph-name="psi" unicode="&#x3c8;" horiz-adv-x="1331" 
d="M1013 478l124 583h129l-134 -630q-46 -219 -183 -331t-376 -122l-82 -384h-129l82 384q-184 16 -280.5 113t-96.5 265q0 64 20 157l118 548h129l-124 -583q-14 -67 -14 -119q0 -119 63.5 -187t207.5 -82l206 971h129l-206 -970q119 7 200 46t134.5 121.5t82.5 219.5z" />
    <glyph glyph-name="omega" unicode="&#x3c9;" horiz-adv-x="1421" 
d="M156 334q0 -127 39.5 -188.5t110.5 -61.5q105 0 174 98.5t112 300.5l66 311h129l-66 -311q-27 -124 -27 -210q0 -95 35 -142t108 -47q99 0 173.5 77.5t115.5 218.5t41 325q0 84 -12 185t-35 171h138q19 -71 30.5 -174t11.5 -189q0 -220 -57.5 -383.5t-164 -251.5
t-248.5 -88q-99 0 -159.5 52.5t-71.5 167.5q-59 -116 -137.5 -168t-177.5 -52q-78 0 -137 40.5t-91.5 121.5t-32.5 199q0 181 71 355.5t205 369.5h140q-137 -183 -210 -372.5t-73 -354.5z" />
    <glyph glyph-name="iotadieresis" unicode="&#x3ca;" horiz-adv-x="468" 
d="M150 154q0 -68 73 -68q22 0 51 4t50 11l-7 -101q-25 -10 -59 -16.5t-59 -6.5q-93 0 -135 42t-42 122q0 39 14 107l172 813h129l-178 -838q-9 -42 -9 -69zM215 1222h-123l34 162h123zM524 1222h-123l34 162h123z" />
    <glyph glyph-name="upsilondieresis" unicode="&#x3cb;" horiz-adv-x="1054" 
d="M181 287q0 -98 49.5 -148.5t146.5 -50.5q179 0 278 103.5t135 268t36 383.5q0 48 -2.5 116t-7.5 102h129q4 -46 7 -114t3 -124q0 -848 -582 -848q-157 0 -239 80t-82 228q0 68 16 142l136 636h129l-140 -661q-12 -58 -12 -113zM531 1222h-123l34 162h123zM840 1222h-123
l34 162h123z" />
    <glyph glyph-name="omicrontonos" unicode="&#x3cc;" horiz-adv-x="1102" 
d="M12 405q0 203 78 358t211 238.5t294 83.5q129 0 221 -52.5t140 -150.5t48 -230q0 -198 -76.5 -352.5t-209 -239.5t-295.5 -85q-135 0 -227 53t-138 149.5t-46 227.5zM590 976q-122 0 -223.5 -69.5t-161.5 -200t-60 -304.5q0 -103 35 -174.5t97.5 -107.5t144.5 -36
q125 0 227 70t161.5 199.5t59.5 300.5q0 102 -35 174.5t-98.5 110t-146.5 37.5zM560 1194l176 272h180l-248 -272h-108z" />
    <glyph glyph-name="upsilontonos" unicode="&#x3cd;" horiz-adv-x="1054" 
d="M181 287q0 -98 49.5 -148.5t146.5 -50.5q179 0 278 103.5t135 268t36 383.5q0 48 -2.5 116t-7.5 102h129q4 -46 7 -114t3 -124q0 -848 -582 -848q-157 0 -239 80t-82 228q0 68 16 142l136 636h129l-140 -661q-12 -58 -12 -113zM534 1194l176 272h180l-248 -272h-108z" />
    <glyph glyph-name="omegatonos" unicode="&#x3ce;" horiz-adv-x="1421" 
d="M156 334q0 -127 39.5 -188.5t110.5 -61.5q105 0 174 98.5t112 300.5l66 311h129l-66 -311q-27 -124 -27 -210q0 -95 35 -142t108 -47q99 0 173.5 77.5t115.5 218.5t41 325q0 84 -12 185t-35 171h138q19 -71 30.5 -174t11.5 -189q0 -220 -57.5 -383.5t-164 -251.5
t-248.5 -88q-99 0 -159.5 52.5t-71.5 167.5q-59 -116 -137.5 -168t-177.5 -52q-78 0 -137 40.5t-91.5 121.5t-32.5 199q0 181 71 355.5t205 369.5h140q-137 -183 -210 -372.5t-73 -354.5zM719 1194l176 272h180l-248 -272h-108z" />
    <glyph glyph-name="afii10023" unicode="&#x401;" horiz-adv-x="1192" 
d="M442 1341l-111 -522h691l-26 -125h-691l-121 -569h781l-27 -125h-920l312 1466h885l-27 -125h-746zM700 1591h-123l34 162h123zM1009 1591h-123l34 162h123z" />
    <glyph glyph-name="afii10051" unicode="&#x402;" horiz-adv-x="1606" 
d="M933 94q110 0 199 55.5t140.5 155.5t51.5 229q0 133 -76.5 203.5t-212.5 70.5q-101 0 -204 -24t-197 -71l-151 -713h-139l285 1341h-448l26 125h1035l-26 -125h-448l-109 -511q105 50 200.5 73.5t194.5 23.5q130 0 224 -49t143.5 -137.5t49.5 -204.5q0 -169 -72.5 -296.5
t-197.5 -196t-279 -68.5q-129 0 -218 32l54 116q32 -15 73 -22t102 -7z" />
    <glyph glyph-name="afii10052" unicode="&#x403;" horiz-adv-x="1035" 
d="M1139 1466l-27 -125h-670l-285 -1341h-139l312 1466h809zM653 1605l210 266h180l-282 -266h-108z" />
    <glyph glyph-name="afii10053" unicode="&#x404;" horiz-adv-x="1457" 
d="M892 1372q-164 0 -294 -70t-216 -194.5t-124 -287.5h584l-26 -125h-579q-6 -61 -6 -124q0 -231 102.5 -354t295.5 -123q367 0 545 374l129 -36q-110 -227 -277 -342t-403 -115q-168 0 -290 73t-186 206t-64 310q0 270 105.5 481t292.5 328.5t422 117.5q140 0 246 -47.5
t171.5 -136t86.5 -209.5l-142 -33q-25 151 -118.5 229t-254.5 78z" />
    <glyph glyph-name="afii10054" unicode="&#x405;" horiz-adv-x="1251" 
d="M740 1372q-116 0 -201.5 -39.5t-131 -108.5t-45.5 -158q0 -56 24 -99t84.5 -77t168.5 -58q165 -37 262.5 -87t143.5 -128t46 -200q0 -125 -70.5 -225.5t-203.5 -158.5t-312 -58q-234 0 -351 126t-124 339l133 21q8 -180 94 -273.5t250 -93.5q137 0 236.5 42.5t151 115
t51.5 167.5q0 80 -26.5 130t-103 88.5t-226.5 69.5q-196 41 -285 130t-89 226q0 120 69.5 218t190 154t267.5 56q215 0 333.5 -101.5t123.5 -310.5l-134 -14q-5 307 -326 307z" />
    <glyph glyph-name="afii10055" unicode="&#x406;" horiz-adv-x="487" 
d="M18 0l312 1466h139l-312 -1466h-139z" />
    <glyph glyph-name="afii10056" unicode="&#x407;" horiz-adv-x="487" 
d="M18 0l312 1466h139l-312 -1466h-139zM334 1591h-123l34 162h123zM643 1591h-123l34 162h123z" />
    <glyph glyph-name="afii10057" unicode="&#x408;" horiz-adv-x="977" 
d="M281 -25q-155 0 -237 79t-82 217q0 63 13 132l133 15q-11 -63 -11 -134q0 -98 45.5 -144t146.5 -46q85 0 145 31t101 100t66 185l224 1056h140l-229 -1076q-46 -220 -157 -317.5t-298 -97.5z" />
    <glyph glyph-name="afii10058" unicode="&#x409;" horiz-adv-x="1916" 
d="M1772 485q0 -151 -67.5 -260t-195 -167t-306.5 -58h-425l286 1341h-535l-224 -1051q-36 -169 -114 -242t-203 -73q-45 0 -82 6t-58 15l37 117q46 -19 96 -19q69 0 117 49t74 172l245 1151h812l-132 -621h271q119 0 210.5 -43.5t142.5 -124.5t51 -192zM1196 125
q224 0 326.5 96t102.5 264q0 114 -76 174.5t-214 60.5h-265l-126 -595h252z" />
    <glyph glyph-name="afii10059" unicode="&#x40a;" horiz-adv-x="1916" 
d="M310 720l-153 -720h-139l312 1466h139l-132 -621h620l133 621h139l-132 -621h271q119 0 210.5 -43.5t142.5 -124.5t51 -192q0 -151 -67.5 -260t-195 -167t-306.5 -58h-425l153 720h-621zM1196 125q224 0 326.5 96t102.5 264q0 114 -76 174.5t-214 60.5h-265l-126 -595
h252z" />
    <glyph glyph-name="afii10060" unicode="&#x40b;" horiz-adv-x="1589" 
d="M629 1341h-448l26 125h1035l-26 -125h-448l-109 -511q113 50 206.5 73.5t198.5 23.5q169 0 261.5 -70t92.5 -234q0 -66 -21 -166l-96 -457h-139l99 468q18 88 18 143q0 101 -53.5 149t-175.5 48q-103 0 -201.5 -21.5t-214.5 -73.5l-151 -713h-139z" />
    <glyph glyph-name="afii10061" unicode="&#x40c;" horiz-adv-x="1181" 
d="M399 842q93 0 145.5 21t98 76.5t126.5 187.5l70 114q74 121 154 173t189 52h82l-26 -119h-65q-63 0 -112.5 -35t-96.5 -111l-91 -144q-59 -94 -98 -143t-75.5 -74.5t-91.5 -46.5l-1 -4q62 -17 103.5 -53.5t75.5 -104t73 -186.5l146 -445h-148l-128 406q-43 136 -82 201.5
t-98.5 90.5t-167.5 25h-70l-154 -723h-139l312 1466h139l-133 -624h63zM676 1605l210 266h180l-282 -266h-108z" />
    <glyph glyph-name="afii10062" unicode="&#x40e;" horiz-adv-x="1221" 
d="M639 597l581 869h157l-748 -1089q-108 -158 -189 -245t-149.5 -122t-145.5 -35q-49 0 -94 12.5t-71 28.5l26 123q20 -18 64.5 -31.5t78.5 -13.5q45 0 89 23.5t104.5 88t146.5 184.5l58 81l-360 995h147zM848 1663q77 0 128.5 35t85.5 112h121q-43 -122 -126 -182
t-219 -60q-137 0 -209 63.5t-72 178.5h122q0 -76 40.5 -111.5t128.5 -35.5z" />
    <glyph glyph-name="afii10145" unicode="&#x40f;" horiz-adv-x="1421" 
d="M469 1466l-285 -1341h795l285 1341h139l-312 -1466h-472l-86 -406h-129l86 406h-472l312 1466h139z" />
    <glyph glyph-name="afii10017" unicode="&#x410;" horiz-adv-x="1323" 
d="M1019 0l-83 465h-661l-271 -465h-156l873 1466h160l282 -1466h-144zM610 1038l-270 -458h576l-83 452q-27 147 -45 328h-4q-74 -153 -174 -322z" />
    <glyph glyph-name="afii10018" unicode="&#x411;" horiz-adv-x="1195" 
d="M442 1341l-105 -496h310q119 0 210.5 -43.5t142.5 -124.5t51 -192q0 -151 -67.5 -260t-195 -167t-306.5 -58h-464l312 1466h799l-27 -125h-660zM475 125q224 0 326.5 96t102.5 264q0 114 -76 174.5t-214 60.5h-304l-126 -595h291z" />
    <glyph glyph-name="afii10019" unicode="&#x412;" horiz-adv-x="1313" 
d="M1229 1154q0 -136 -65 -229.5t-225 -155.5q112 -40 163.5 -117.5t51.5 -175.5q0 -136 -67 -244t-190.5 -170t-284.5 -62h-594l312 1466h513q187 0 286.5 -83t99.5 -229zM1083 1146q0 96 -67.5 145.5t-213.5 49.5h-360l-110 -520h381q117 0 200.5 41t126.5 114.5t43 169.5
zM1005 469q0 107 -70 168t-195 61h-435l-121 -573h430q121 0 209.5 44t135 122t46.5 178z" />
    <glyph glyph-name="afii10020" unicode="&#x413;" horiz-adv-x="1035" 
d="M1139 1466l-27 -125h-670l-285 -1341h-139l312 1466h809z" />
    <glyph glyph-name="afii10021" unicode="&#x414;" horiz-adv-x="1310" 
d="M-117 125h128q142 239 236.5 486t160.5 558l63 297h803l-285 -1341h150l-113 -531h-129l86 406h-998l-86 -406h-129zM583 1341l-41 -194q-63 -295 -156 -544.5t-227 -477.5h691l258 1216h-525z" />
    <glyph glyph-name="afii10022" unicode="&#x415;" horiz-adv-x="1192" 
d="M442 1341l-111 -522h691l-26 -125h-691l-121 -569h781l-27 -125h-920l312 1466h885l-27 -125h-746z" />
    <glyph glyph-name="afii10024" unicode="&#x416;" horiz-adv-x="1815" 
d="M325 406l-301 -406h-160l335 445q90 120 152.5 187t119.5 103.5t127 53.5l1 4q-44 20 -72.5 54t-49 92t-40.5 154l-22 108q-12 56 -30 87.5t-45.5 45t-71.5 13.5h-65l26 119h56q81 0 132 -23t81.5 -74.5t47.5 -140.5l19 -101q24 -127 49.5 -184.5t72.5 -79t141 -21.5h33
l133 624h139l-133 -624h33q93 0 145 21t97.5 76.5t126.5 187.5l80 131q68 110 145 159t180 49h91l-26 -119h-65q-63 0 -112.5 -35t-96.5 -111l-68 -108q-61 -97 -105.5 -154.5t-87.5 -91.5t-95 -54l-1 -4q62 -17 103.5 -53.5t75.5 -104t73 -186.5l146 -445h-150l-128 406
q-43 136 -82 201.5t-98.5 90.5t-167.5 25h-38l-154 -723h-139l154 723h-28q-108 0 -178 -25t-137 -90.5t-168 -201.5z" />
    <glyph glyph-name="afii10025" unicode="&#x417;" horiz-adv-x="1180" 
d="M1020 483q0 -141 -72 -257.5t-200.5 -183.5t-288.5 -67q-213 0 -326 110.5t-118 305.5l148 25q1 -157 79 -239.5t223 -82.5q110 0 204 47.5t150.5 137.5t56.5 211q0 109 -70 171t-204 62h-111l26 119h111q95 0 169 45t114.5 117t40.5 150q0 104 -59.5 161t-175.5 57
q-124 0 -211 -69.5t-142 -206.5l-139 24q83 190 205.5 280.5t298.5 90.5q105 0 188.5 -38t131 -111t47.5 -173q0 -134 -71.5 -230t-227.5 -151l-1 -4q106 -20 165 -101.5t59 -199.5z" />
    <glyph glyph-name="afii10026" unicode="&#x418;" horiz-adv-x="1423" 
d="M965 0l264 1240h-4l-1058 -1240h-149l312 1466h128l-266 -1247h7l1066 1247h140l-312 -1466h-128z" />
    <glyph glyph-name="afii10027" unicode="&#x419;" horiz-adv-x="1423" 
d="M965 0l264 1240h-4l-1058 -1240h-149l312 1466h128l-266 -1247h7l1066 1247h140l-312 -1466h-128zM911 1663q77 0 128.5 35t85.5 112h121q-43 -122 -126 -182t-219 -60q-137 0 -209 63.5t-72 178.5h122q0 -76 40.5 -111.5t128.5 -35.5z" />
    <glyph glyph-name="afii10028" unicode="&#x41a;" horiz-adv-x="1181" 
d="M399 842q93 0 145.5 21t98 76.5t126.5 187.5l70 114q74 121 154 173t189 52h82l-26 -119h-65q-63 0 -112.5 -35t-96.5 -111l-91 -144q-59 -94 -98 -143t-75.5 -74.5t-91.5 -46.5l-1 -4q62 -17 103.5 -53.5t75.5 -104t73 -186.5l146 -445h-148l-128 406q-43 136 -82 201.5
t-98.5 90.5t-167.5 25h-70l-154 -723h-139l312 1466h139l-133 -624h63z" />
    <glyph glyph-name="afii10029" unicode="&#x41b;" horiz-adv-x="1288" 
d="M-19 94q69 0 117 49t74 172l245 1151h852l-311 -1466h-139l285 1341h-575l-224 -1051q-36 -169 -114 -242t-203 -73q-45 0 -82 6t-58 15l37 117q46 -19 96 -19z" />
    <glyph glyph-name="afii10030" unicode="&#x41c;" horiz-adv-x="1690" 
d="M1459 1466h213l-312 -1466h-127l281 1323h-6l-764 -1323h-116l-196 1323h-6l-281 -1323h-127l312 1466h201l189 -1277z" />
    <glyph glyph-name="afii10031" unicode="&#x41d;" horiz-adv-x="1421" 
d="M1131 842l133 624h139l-312 -1466h-139l152 717h-795l-152 -717h-139l312 1466h139l-133 -624h795z" />
    <glyph glyph-name="afii10032" unicode="&#x41e;" horiz-adv-x="1584" 
d="M85 580q0 263 102 470.5t287 324t419 116.5q177 0 315 -76t214.5 -213t76.5 -315q0 -266 -106.5 -473.5t-295 -323t-425.5 -115.5q-170 0 -303.5 76t-208.5 213.5t-75 315.5zM888 1372q-204 0 -354 -105t-227 -285t-77 -401q0 -148 54.5 -257.5t157 -169.5t243.5 -60
q190 0 342.5 96.5t239.5 275t87 414.5q0 153 -56 263.5t-161 169.5t-249 59z" />
    <glyph glyph-name="afii10033" unicode="&#x41f;" horiz-adv-x="1421" 
d="M952 0l285 1341h-795l-285 -1341h-139l312 1466h1073l-312 -1466h-139z" />
    <glyph glyph-name="afii10034" unicode="&#x420;" horiz-adv-x="1235" 
d="M1225 1123q0 -146 -65 -259.5t-192.5 -178t-308.5 -64.5h-370l-132 -621h-139l312 1466h484q126 0 218.5 -41.5t142.5 -118.5t50 -183zM1078 1113q0 112 -72 170t-233 58h-331l-126 -595h330q209 0 320.5 94t111.5 273z" />
    <glyph glyph-name="afii10035" unicode="&#x421;" horiz-adv-x="1457" 
d="M892 1372q-204 0 -353.5 -106t-228.5 -288t-79 -407q0 -231 102.5 -354t295.5 -123q367 0 545 374l129 -36q-110 -227 -277 -342t-403 -115q-168 0 -290 73t-186 206t-64 310q0 270 105.5 481t292.5 328.5t422 117.5q140 0 246 -47.5t171.5 -136t86.5 -209.5l-142 -33
q-25 151 -118.5 229t-254.5 78z" />
    <glyph glyph-name="afii10036" unicode="&#x422;" 
d="M768 1341l-285 -1341h-139l285 1341h-448l26 125h1035l-26 -125h-448z" />
    <glyph glyph-name="afii10037" unicode="&#x423;" horiz-adv-x="1221" 
d="M639 597l581 869h157l-748 -1089q-108 -158 -189 -245t-149.5 -122t-145.5 -35q-49 0 -94 12.5t-71 28.5l26 123q20 -18 64.5 -31.5t78.5 -13.5q45 0 89 23.5t104.5 88t146.5 184.5l58 81l-360 995h147z" />
    <glyph glyph-name="afii10038" unicode="&#x424;" horiz-adv-x="1495" 
d="M86 646q0 193 83 337t243 226t386 90l36 167h139l-36 -167q149 -10 256 -68t163.5 -157.5t56.5 -233.5q0 -193 -83 -337t-243 -226t-386 -90l-40 -187h-139l40 187q-149 10 -256 68t-163.5 157.5t-56.5 233.5zM587 306l186 874q-275 -19 -408.5 -157.5t-133.5 -378.5
q0 -157 93 -242.5t263 -95.5zM912 1180l-186 -874q275 19 408.5 157.5t133.5 378.5q0 157 -93 242.5t-263 95.5z" />
    <glyph glyph-name="afii10039" unicode="&#x425;" horiz-adv-x="1251" 
d="M1199 1466h159l-634 -696l363 -770h-153l-308 674l-598 -674h-176l718 787l-326 679h152l269 -587z" />
    <glyph glyph-name="afii10040" unicode="&#x426;" horiz-adv-x="1439" 
d="M18 0l312 1466h139l-285 -1341h795l285 1341h139l-285 -1341h150l-113 -531h-129l86 406h-1094z" />
    <glyph glyph-name="afii10041" unicode="&#x427;" horiz-adv-x="1313" 
d="M976 621q-139 -51 -238.5 -74t-189.5 -23q-190 0 -284.5 72t-94.5 237q0 78 21 178l98 455h139l-103 -483q-18 -88 -18 -141q0 -72 24.5 -115.5t77.5 -63.5t141 -20q116 0 221 23t231 72l154 728h139l-311 -1466h-139z" />
    <glyph glyph-name="afii10042" unicode="&#x428;" horiz-adv-x="1835" 
d="M469 1466l-285 -1341h535l285 1341h139l-285 -1341h535l285 1341h139l-312 -1466h-1487l312 1466h139z" />
    <glyph glyph-name="afii10043" unicode="&#x429;" horiz-adv-x="1853" 
d="M184 125h535l285 1341h139l-285 -1341h535l285 1341h139l-285 -1341h150l-113 -531h-129l86 406h-1508l312 1466h139z" />
    <glyph glyph-name="afii10044" unicode="&#x42a;" horiz-adv-x="1449" 
d="M723 1466l-132 -621h310q119 0 210.5 -43.5t142.5 -124.5t51 -192q0 -151 -67.5 -260t-195 -167t-306.5 -58h-464l285 1341h-428l27 125h567zM729 125q224 0 326.5 96t102.5 264q0 114 -76 174.5t-214 60.5h-304l-126 -595h291z" />
    <glyph glyph-name="afii10045" unicode="&#x42b;" horiz-adv-x="1587" 
d="M469 1466l-132 -621h270q119 0 210.5 -43.5t142.5 -124.5t51 -192q0 -151 -67.5 -260t-195 -167t-306.5 -58h-424l312 1466h139zM1118 0l312 1466h139l-312 -1466h-139zM435 125q224 0 326.5 96t102.5 264q0 114 -76 174.5t-214 60.5h-264l-126 -595h251z" />
    <glyph glyph-name="afii10046" unicode="&#x42c;" horiz-adv-x="1195" 
d="M469 1466l-132 -621h310q119 0 210.5 -43.5t142.5 -124.5t51 -192q0 -151 -67.5 -260t-195 -167t-306.5 -58h-464l312 1466h139zM475 125q224 0 326.5 96t102.5 264q0 114 -76 174.5t-214 60.5h-304l-126 -595h291z" />
    <glyph glyph-name="afii10047" unicode="&#x42d;" horiz-adv-x="1457" 
d="M834 1491q168 0 290 -73t186 -206t64 -310q0 -270 -105.5 -481t-292.5 -328.5t-422 -117.5q-141 0 -254.5 54.5t-181.5 158.5t-76 248l138 30q10 -175 108 -273.5t277 -98.5q173 0 307 76.5t219.5 212t116.5 312.5h-583l26 125h572q3 36 3 75q0 231 -102.5 354
t-295.5 123q-333 0 -511 -310l-129 37q109 195 268 293.5t378 98.5z" />
    <glyph glyph-name="afii10048" unicode="&#x42e;" horiz-adv-x="1963" 
d="M570 580q0 25 2 77h-275l-140 -657h-139l312 1466h139l-146 -684h262q34 211 134.5 371.5t254.5 249t344 88.5q164 0 291.5 -76t198.5 -213t71 -315q0 -266 -98.5 -473.5t-273 -323t-394.5 -115.5q-157 0 -280.5 76t-193 213.5t-69.5 315.5zM1309 1372
q-188 0 -323.5 -105t-206 -285t-70.5 -401q0 -148 49.5 -257.5t143.5 -169.5t222 -60q173 0 312 96.5t218.5 275t79.5 414.5q0 153 -51 263.5t-146.5 169.5t-227.5 59z" />
    <glyph glyph-name="afii10049" unicode="&#x42f;" horiz-adv-x="1296" 
d="M827 0l140 659h-212q-110 0 -190.5 -39.5t-158.5 -124.5t-191 -250l-167 -245h-161l222 318q93 133 155.5 208t107.5 110t90 47l1 6q-136 25 -210 109t-74 209q0 143 67.5 246.5t190 158t285.5 54.5h556l-312 -1466h-139zM724 1341q-201 0 -299.5 -87t-98.5 -250
q0 -220 309 -220h359l118 557h-388z" />
    <glyph glyph-name="afii10065" unicode="&#x430;" horiz-adv-x="1081" 
d="M802 94q0 -44 11 -94h-133q-7 31 -7 71q0 35 7 89l-3 1q-181 -186 -379 -186q-159 0 -232.5 68.5t-73.5 183.5q0 107 43.5 179.5t146 119.5t278.5 71q209 29 318 67l8 39q14 68 14 116q0 82 -50 119.5t-170 37.5q-231 0 -321 -208l-123 18q63 145 179.5 222t268.5 77
q176 0 259.5 -64.5t83.5 -198.5q0 -62 -14 -126l-77 -367q-18 -87 -26 -141.5t-8 -93.5zM424 485q-114 -17 -179 -51.5t-91.5 -84t-26.5 -117.5q0 -72 49 -112t139 -40q64 0 148 33.5t135 83.5q44 43 66.5 74.5t41 84t39.5 152.5l12 55q-37 -16 -122.5 -37.5t-210.5 -40.5z
" />
    <glyph glyph-name="afii10066" unicode="&#x431;" horiz-adv-x="1102" 
d="M609 1058q117 0 205.5 -51.5t137 -147.5t48.5 -225q0 -189 -71 -339t-203.5 -235t-311.5 -85q-187 0 -288.5 124.5t-101.5 365.5q0 127 35.5 297t106 326t169.5 240q162 138 397 138h254q19 0 31.5 9.5t16.5 24.5h100q-14 -67 -55.5 -105t-100.5 -38h-252
q-131 0 -226 -50.5t-162.5 -156.5t-113.5 -275l8 -4q81 96 177 141.5t200 45.5zM594 949q-115 0 -216 -60t-163 -174t-62 -268q0 -181 67.5 -272t201.5 -91q129 0 230 65t158 189.5t57 295.5q0 150 -73 232.5t-200 82.5z" />
    <glyph glyph-name="afii10067" unicode="&#x432;" horiz-adv-x="1004" 
d="M384 0h-401l226 1061h353q175 0 251 -67t76 -172q0 -100 -50.5 -163t-161.5 -105q79 -25 116.5 -83t37.5 -129q0 -99 -48.5 -176.5t-149 -121.5t-249.5 -44zM474 598q146 0 212 53t66 163q0 142 -209 142h-228l-76 -358h235zM390 105q165 0 235.5 63.5t70.5 172.5
q0 74 -55.5 113t-175.5 39h-248l-83 -388h256z" />
    <glyph glyph-name="afii10068" unicode="&#x433;" horiz-adv-x="717" 
d="M728 952h-414l-202 -952h-129l226 1061h543z" />
    <glyph glyph-name="afii10069" unicode="&#x434;" horiz-adv-x="1129" 
d="M393 1061h630l-202 -952h138l-98 -459h-123l74 350h-837l-74 -350h-123l98 459h95q123 148 203.5 301t129 306t89.5 345zM497 952q-54 -237 -144 -449.5t-235 -393.5h574l179 843h-374z" />
    <glyph glyph-name="afii10070" unicode="&#x435;" horiz-adv-x="1081" 
d="M148 385q0 -143 72.5 -222t202.5 -79q107 0 197.5 57.5t147.5 159.5l123 -20q-81 -153 -205 -229.5t-262 -76.5q-203 0 -307.5 112t-104.5 315q0 191 78 347.5t213 246t294 89.5q194 0 290.5 -103t96.5 -295q0 -72 -23 -181h-801q-12 -64 -12 -121zM856 695
q0 140 -64.5 211t-191.5 71q-92 0 -173.5 -43t-144 -124.5t-97.5 -195.5h666q5 48 5 81z" />
    <glyph glyph-name="afii10072" unicode="&#x436;" horiz-adv-x="1351" 
d="M301 337l-270 -337h-157l323 395q53 65 106.5 102t118.5 50q-55 28 -79 66.5t-40 110.5l-30 133q-10 46 -23 67t-32 26.5t-55 5.5h-46l23 105h68q58 0 91.5 -15t51.5 -47t32 -90l31 -130q18 -75 30 -106t43 -50t96 -20l98 458h129l-98 -458q57 0 91.5 15t57.5 42.5
t62 88.5q5 6 20 30l85 130q39 60 70.5 91t74 46t110.5 15h68l-23 -105h-46q-36 0 -56.5 -5.5t-42 -26.5t-51.5 -67l-86 -133q-46 -71 -87.5 -109.5t-109.5 -67.5q60 -13 98 -50.5t63 -101.5l155 -395h-143l-126 337q-24 65 -49 99t-61 48.5t-96 14.5l-106 -499h-129l106 499
q-59 0 -97.5 -15t-73 -46.5t-89.5 -100.5z" />
    <glyph glyph-name="afii10073" unicode="&#x437;" horiz-adv-x="957" 
d="M519 1086q151 0 241.5 -66.5t90.5 -197.5q0 -93 -47 -157.5t-170 -112.5q61 -30 95.5 -91t34.5 -131q0 -106 -51.5 -186t-150.5 -124t-237 -44q-149 0 -243 69t-123 205l118 39q21 -109 84 -156.5t170 -47.5q102 0 168.5 32.5t98 86.5t31.5 122q0 74 -46 123t-141 49
h-100l23 109h104q122 0 186 56t64 153q0 70 -50 115.5t-153 45.5q-95 0 -165 -42t-138 -146l-99 47q73 126 175 188t230 62z" />
    <glyph glyph-name="afii10074" unicode="&#x438;" horiz-adv-x="1100" 
d="M155 201l734 860h142l-226 -1061h-129l183 860l-734 -860h-142l226 1061h129z" />
    <glyph glyph-name="afii10075" unicode="&#x439;" horiz-adv-x="1100" 
d="M155 201l734 860h142l-226 -1061h-129l183 860l-734 -860h-142l226 1061h129zM677 1295q71 0 120 35.5t81 111.5h121q-42 -118 -124 -180t-195 -62q-140 0 -209.5 63t-69.5 179h122q0 -75 37.5 -111t116.5 -36z" />
    <glyph glyph-name="afii10076" unicode="&#x43a;" horiz-adv-x="899" 
d="M240 603q67 0 104 13.5t62.5 42.5t70.5 99l14 21l85 130q56 84 109 118t139 34h75l-23 -105h-46q-36 0 -57 -5.5t-43 -26.5t-52 -67l-86 -133q-47 -72 -87.5 -110.5t-107.5 -66.5q60 -13 98 -50.5t63 -101.5l155 -395h-144l-122 337q-24 65 -50.5 99t-67.5 48.5
t-111 14.5l-106 -499h-129l226 1061h129z" />
    <glyph glyph-name="afii10077" unicode="&#x43b;" horiz-adv-x="1103" 
d="M808 0h-129l202 952h-464l-148 -695q-31 -149 -102 -214.5t-187 -65.5q-44 0 -81 7t-57 16l40 104q42 -18 88 -18q64 0 108 42.5t69 162.5l164 770h722z" />
    <glyph glyph-name="afii10078" unicode="&#x43c;" horiz-adv-x="1286" 
d="M521 182l517 879h179l-226 -1061h-123l188 885l-520 -885h-98l-144 885l-188 -885h-123l226 1061h169z" />
    <glyph glyph-name="afii10079" unicode="&#x43d;" horiz-adv-x="1100" 
d="M240 600h564l98 461h129l-226 -1061h-129l104 491h-564l-104 -491h-129l226 1061h129z" />
    <glyph glyph-name="afii10080" unicode="&#x43e;" horiz-adv-x="1102" 
d="M12 405q0 203 78 358t211 238.5t294 83.5q129 0 221 -52.5t140 -150.5t48 -230q0 -198 -76.5 -352.5t-209 -239.5t-295.5 -85q-135 0 -227 53t-138 149.5t-46 227.5zM590 976q-122 0 -223.5 -69.5t-161.5 -200t-60 -304.5q0 -103 35 -174.5t97.5 -107.5t144.5 -36
q125 0 227 70t161.5 199.5t59.5 300.5q0 102 -35 174.5t-98.5 110t-146.5 37.5z" />
    <glyph glyph-name="afii10081" unicode="&#x43f;" horiz-adv-x="1100" 
d="M805 0h-129l202 952h-564l-202 -952h-129l226 1061h822z" />
    <glyph glyph-name="afii10082" unicode="&#x440;" horiz-adv-x="1132" 
d="M152 171h-4l-122 -577h-129l312 1467h121l-34 -159l5 1q88 99 175 140.5t195 41.5q114 0 196 -52.5t125 -149t43 -226.5q0 -191 -73.5 -347t-202.5 -245.5t-288 -89.5q-119 0 -196 48.5t-123 147.5zM652 976q-137 0 -240 -82t-158 -215t-55 -281t70.5 -231t194.5 -83
q123 0 222.5 77t156 208.5t56.5 289.5q0 146 -64.5 231.5t-182.5 85.5z" />
    <glyph glyph-name="afii10083" unicode="&#x441;" horiz-adv-x="1064" 
d="M592 976q-123 0 -224.5 -68t-160.5 -197t-59 -302q0 -151 66.5 -238t194.5 -87q122 0 217.5 66t162.5 216l128 -24q-79 -189 -211.5 -278t-302.5 -89q-193 0 -291.5 116t-98.5 318q0 189 73.5 343.5t206.5 243.5t303 89q176 0 270.5 -84.5t117.5 -238.5l-131 -24
q-16 122 -84.5 180t-176.5 58z" />
    <glyph glyph-name="afii10084" unicode="&#x442;" horiz-adv-x="801" 
d="M180 0l202 952h-292l23 109h713l-23 -109h-292l-202 -952h-129z" />
    <glyph glyph-name="afii10085" unicode="&#x443;" horiz-adv-x="958" 
d="M350 147h4q53 104 160 288l364 626h135l-730 -1241q-81 -138 -154 -194t-164 -56q-57 0 -116 16l30 109q16 -6 39.5 -9t42.5 -3q50 0 85 19.5t67 61.5t79 124l67 117l-169 1056h129l95 -618q23 -147 36 -296z" />
    <glyph glyph-name="afii10086" unicode="&#x444;" horiz-adv-x="1633" 
d="M314 -25q-96 0 -164.5 54t-104 148t-35.5 214q0 187 65 346.5t180 253.5t257 94q96 0 167.5 -46.5t105.5 -126.5l5 -1l117 555h129l-112 -533l5 1q75 88 148 119.5t160 31.5q96 0 164 -54.5t102.5 -147.5t34.5 -207q0 -191 -67 -351.5t-185.5 -255t-264.5 -94.5
q-95 0 -159.5 39.5t-102.5 121.5h-4l-116 -542h-129l111 520h-4q-63 -72 -137 -105.5t-166 -33.5zM337 84q108 0 198 74t142.5 206t52.5 300q0 142 -52.5 227t-156.5 85q-102 0 -188.5 -79.5t-137 -215t-50.5 -294.5q0 -140 50 -221.5t142 -81.5zM1214 976
q-121 0 -213 -87.5t-141 -225.5t-49 -283q0 -139 55.5 -217.5t153.5 -78.5q106 0 194 82t138.5 218.5t50.5 294.5q0 137 -49.5 217t-139.5 80z" />
    <glyph glyph-name="afii10087" unicode="&#x445;" horiz-adv-x="972" 
d="M822 1061h165l-473 -504l282 -557h-143l-228 467l-396 -467h-165l504 562l-243 499h143l187 -412z" />
    <glyph glyph-name="afii10088" unicode="&#x446;" horiz-adv-x="1137" 
d="M209 1061h129l-203 -952h564l203 952h129l-203 -952h138l-97 -459h-123l74 350h-837z" />
    <glyph glyph-name="afii10089" unicode="&#x447;" horiz-adv-x="1066" 
d="M225 650q0 -80 48.5 -121t152.5 -41q78 0 174 23t161 57l105 493h129l-225 -1061h-129l97 460q-184 -85 -338 -85q-146 0 -225 73.5t-79 201.5q0 34 13 101l65 310h129l-68 -319q-10 -50 -10 -92z" />
    <glyph glyph-name="afii10090" unicode="&#x448;" horiz-adv-x="1669" 
d="M135 109h502l203 952h129l-203 -952h502l203 952h129l-226 -1061h-1391l226 1061h129z" />
    <glyph glyph-name="afii10091" unicode="&#x449;" horiz-adv-x="1706" 
d="M209 1061h129l-203 -952h502l203 952h129l-203 -952h502l203 952h129l-203 -952h138l-97 -459h-123l74 350h-1406z" />
    <glyph glyph-name="afii10092" unicode="&#x44a;" horiz-adv-x="1198" 
d="M1047 367q0 -175 -112.5 -271t-350.5 -96h-381l202 952h-315l23 109h444l-93 -437h243q173 0 256.5 -70t83.5 -187zM600 105q163 0 236.5 67.5t73.5 186.5q0 78 -55 119t-175 41h-238l-88 -414h246z" />
    <glyph glyph-name="afii10093" unicode="&#x44b;" horiz-adv-x="1345" 
d="M807 367q0 -175 -112.5 -271t-350.5 -96h-361l226 1061h129l-93 -437h222q176 0 258 -70t82 -187zM1050 0h-129l226 1061h129zM360 105q160 0 235 67t75 187q0 78 -55 119t-175 41h-218l-88 -414h226z" />
    <glyph glyph-name="afii10094" unicode="&#x44c;" horiz-adv-x="988" 
d="M837 367q0 -175 -112.5 -271t-350.5 -96h-391l226 1061h129l-93 -437h252q173 0 256.5 -69t83.5 -188zM390 105q159 0 234.5 67t75.5 187q0 78 -55 119t-175 41h-248l-88 -414h256z" />
    <glyph glyph-name="afii10095" unicode="&#x44d;" horiz-adv-x="1064" 
d="M574 1085q127 0 214.5 -54t131.5 -152t44 -228q0 -189 -73.5 -343.5t-206.5 -243.5t-303 -89q-115 0 -202 42.5t-136.5 125t-52.5 200.5l130 23q2 -131 71.5 -206.5t193.5 -75.5q103 0 191.5 48t150.5 140t87 219h-442l23 109h432q2 32 2 51q0 151 -66.5 238t-194.5 87
q-113 0 -203 -56t-156 -182l-129 24q80 166 207.5 244.5t286.5 78.5z" />
    <glyph glyph-name="afii10096" unicode="&#x44e;" horiz-adv-x="1472" 
d="M462 405q0 44 3 86h-249l-104 -491h-129l226 1061h129l-98 -461h241q31 149 106.5 258.5t182 168t228.5 58.5q118 0 203 -52.5t129 -150t44 -230.5q0 -198 -70 -352.5t-192 -239.5t-272 -85q-124 0 -208.5 53t-127 149.5t-42.5 227.5zM989 976q-109 0 -199.5 -69.5
t-144.5 -200t-54 -304.5q0 -103 31.5 -174.5t87.5 -107.5t129 -36q111 0 202.5 70t145 199.5t53.5 300.5q0 102 -31.5 174.5t-88 110t-131.5 37.5z" />
    <glyph glyph-name="afii10097" unicode="&#x44f;" horiz-adv-x="989" 
d="M565 0l97 457h-61q-59 0 -99.5 -11.5t-85 -45t-108.5 -103.5l-274 -297h-158l292 316q69 74 115 110t86 41q-86 2 -147 35t-91.5 88.5t-30.5 124.5q0 167 106.5 256.5t342.5 89.5h371l-226 -1061h-129zM532 956q-147 0 -222 -63t-75 -179q0 -74 57.5 -113t193.5 -39h198
l84 394h-236z" />
    <glyph glyph-name="afii10071" unicode="&#x451;" horiz-adv-x="1081" 
d="M148 385q0 -143 72.5 -222t202.5 -79q107 0 197.5 57.5t147.5 159.5l123 -20q-81 -153 -205 -229.5t-262 -76.5q-203 0 -307.5 112t-104.5 315q0 191 78 347.5t213 246t294 89.5q194 0 290.5 -103t96.5 -295q0 -72 -23 -181h-801q-12 -64 -12 -121zM856 695
q0 140 -64.5 211t-191.5 71q-92 0 -173.5 -43t-144 -124.5t-97.5 -195.5h666q5 48 5 81zM564 1222h-123l34 162h123zM873 1222h-123l34 162h123z" />
    <glyph glyph-name="afii10099" unicode="&#x452;" horiz-adv-x="1096" 
d="M500 -430q-68 0 -127 22l39 109q34 -12 76 -12q51 0 80 16t48 57.5t37 125.5l173 820q10 49 10 91q0 90 -51.5 132t-154.5 42q-89 0 -172.5 -45.5t-137.5 -122.5q-52 -72 -82 -212l-126 -593h-129l258 1212h-139l21 102h139l33 152h129l-33 -152h358l-21 -102h-358
l-66 -308q73 89 158.5 135t192.5 46q154 0 232 -73t78 -203q0 -51 -12 -108l-175 -834q-23 -108 -57.5 -172.5t-87.5 -94.5t-133 -30z" />
    <glyph glyph-name="afii10100" unicode="&#x453;" horiz-adv-x="717" 
d="M728 952h-414l-202 -952h-129l226 1061h543zM389 1200l210 266h180l-282 -266h-108z" />
    <glyph glyph-name="afii10101" unicode="&#x454;" horiz-adv-x="1064" 
d="M592 976q-99 0 -184.5 -44.5t-147 -129.5t-90.5 -202h442l-23 -109h-437q-4 -36 -4 -82q0 -151 66.5 -238t194.5 -87q122 0 217.5 66t162.5 216l128 -24q-79 -189 -211.5 -278t-302.5 -89q-193 0 -291.5 116t-98.5 318q0 189 73.5 343.5t206.5 243.5t303 89
q176 0 270.5 -84.5t117.5 -238.5l-131 -24q-16 122 -84.5 180t-176.5 58z" />
    <glyph glyph-name="afii10102" unicode="&#x455;" horiz-adv-x="961" 
d="M512 976q-76 0 -138.5 -25.5t-99 -72t-36.5 -108.5q0 -43 20.5 -71.5t72 -50.5t146.5 -40q113 -22 181.5 -56t101.5 -90.5t33 -144.5q0 -100 -58 -178t-159.5 -121t-227.5 -43q-181 0 -270.5 80.5t-97.5 225.5l131 20q4 -107 59.5 -162t176.5 -55q88 0 158 29t110 82.5
t40 124.5q0 48 -22 79.5t-80.5 55.5t-168.5 44q-148 27 -212.5 90.5t-64.5 174.5q0 90 54 163.5t149 115.5t208 42q160 0 244.5 -66.5t100.5 -191.5l-130 -18q-4 81 -60 124t-161 43z" />
    <glyph glyph-name="afii10103" unicode="&#x456;" horiz-adv-x="407" 
d="M257 1288l38 178h129l-38 -178h-129zM-17 0l226 1061h129l-226 -1061h-129z" />
    <glyph glyph-name="afii10104" unicode="&#x457;" horiz-adv-x="407" 
d="M112 0h-129l226 1061h129zM212 1222h-123l34 162h123zM521 1222h-123l34 162h123z" />
    <glyph glyph-name="afii10105" unicode="&#x458;" horiz-adv-x="416" 
d="M392 1278h-129l40 188h129zM93 -133q-23 -108 -57.5 -172.5t-87.5 -94.5t-133 -30q-68 0 -127 22l39 109q34 -12 76 -12q51 0 80 16t48 57.5t37 125.5l249 1173h130z" />
    <glyph glyph-name="afii10106" unicode="&#x459;" horiz-adv-x="1594" 
d="M1443 367q0 -175 -112 -271t-351 -96h-341l202 952h-424l-148 -695q-31 -149 -102.5 -214.5t-186.5 -65.5q-44 0 -81 7t-57 16l40 104q42 -18 88 -18q65 0 108.5 43.5t68.5 161.5l164 770h682l-92 -437h202q175 0 257.5 -71t82.5 -186zM996 105q165 0 237.5 68.5
t72.5 185.5q0 78 -55 119t-175 41h-198l-88 -414h206z" />
    <glyph glyph-name="afii10107" unicode="&#x45a;" horiz-adv-x="1538" 
d="M1387 367q0 -175 -113 -271t-350 -96h-341l110 519h-471l-110 -519h-129l226 1061h129l-93 -437h471l93 437h129l-93 -437h202q176 0 258 -69.5t82 -187.5zM940 105q163 0 236.5 68t73.5 186q0 78 -55 119t-175 41h-198l-88 -414h206z" />
    <glyph glyph-name="afii10108" unicode="&#x45b;" horiz-adv-x="1096" 
d="M826 708q10 49 10 91q0 90 -51.5 132t-154.5 42q-91 0 -173.5 -45.5t-136.5 -122.5q-52 -72 -82 -212l-126 -593h-129l258 1212h-139l21 102h139l33 152h129l-33 -152h358l-21 -102h-358l-66 -308q73 89 158.5 135t192.5 46q154 0 232 -73t78 -203q0 -51 -12 -108
l-148 -701h-129z" />
    <glyph glyph-name="afii10109" unicode="&#x45c;" horiz-adv-x="899" 
d="M240 603q67 0 104 13.5t62.5 42.5t70.5 99l14 21l85 130q56 84 109 118t139 34h75l-23 -105h-46q-36 0 -57 -5.5t-43 -26.5t-52 -67l-86 -133q-47 -72 -87.5 -110.5t-107.5 -66.5q60 -13 98 -50.5t63 -101.5l155 -395h-144l-122 337q-24 65 -50.5 99t-67.5 48.5
t-111 14.5l-106 -499h-129l226 1061h129zM469 1200l210 266h180l-282 -266h-108z" />
    <glyph glyph-name="afii10110" unicode="&#x45e;" horiz-adv-x="958" 
d="M350 147h4q53 104 160 288l364 626h135l-730 -1241q-81 -138 -154 -194t-164 -56q-57 0 -116 16l30 109q16 -6 39.5 -9t42.5 -3q50 0 85 19.5t67 61.5t79 124l67 117l-169 1056h129l95 -618q23 -147 36 -296zM616 1295q71 0 120 35.5t81 111.5h121q-42 -118 -124 -180
t-195 -62q-140 0 -209.5 63t-69.5 179h122q0 -75 37.5 -111t116.5 -36z" />
    <glyph glyph-name="afii10193" unicode="&#x45f;" horiz-adv-x="1100" 
d="M209 1061h129l-203 -952h564l203 952h129l-226 -1061h-349l-74 -350h-124l74 350h-349z" />
    <glyph glyph-name="afii10050" unicode="&#x490;" horiz-adv-x="945" 
d="M18 0l312 1466h590l86 406h129l-113 -531h-580l-285 -1341h-139z" />
    <glyph glyph-name="afii10098" unicode="&#x491;" horiz-adv-x="754" 
d="M868 1466l-110 -514h-444l-202 -952h-129l226 1061h450l86 405h123z" />
    <glyph glyph-name="afii61352" unicode="&#x2116;" horiz-adv-x="1954" 
d="M817 244l260 1222h128l-312 -1466h-149l-336 1215h-4l-258 -1215h-128l312 1466h140l340 -1222h7zM1175 564q0 161 56 279t149.5 180t203.5 62q87 0 155 -39.5t106.5 -113t38.5 -173.5q0 -144 -55 -260.5t-152.5 -183t-221.5 -66.5q-92 0 -155 41t-94 112t-31 162z
M1574 980q-83 0 -144 -53t-93 -148t-32 -217q0 -104 39.5 -156t114.5 -52q95 0 161.5 56.5t100 151t33.5 206.5q0 100 -45 156t-135 56zM1092 0l23 110h594l-23 -110h-594z" />
    <glyph glyph-name="uni0496" unicode="&#x496;" horiz-adv-x="1885" 
d="M325 406l-301 -406h-160l335 445q90 120 152.5 187t119.5 103.5t127 53.5l1 4q-44 20 -72.5 54t-49 92t-40.5 154l-22 108q-12 56 -30 87.5t-45.5 45t-71.5 13.5h-65l26 119h56q81 0 132 -23t81.5 -74.5t47.5 -140.5l19 -101q24 -127 49.5 -184.5t72.5 -79t141 -21.5h33
l133 624h139l-133 -624h33q93 0 145 21t97.5 76.5t126.5 187.5l80 131q68 110 145 159t180 49h91l-26 -119h-65q-63 0 -112.5 -35t-96.5 -111l-68 -108q-61 -97 -105.5 -154.5t-87.5 -91.5t-95 -54l-1 -4q62 -17 103.5 -53.5t75.5 -104t73 -186.5l105 -320h130l-113 -531
h-129l86 406h-83l-128 406q-43 136 -82 201.5t-98.5 90.5t-167.5 25h-38l-154 -723h-139l154 723h-28q-108 0 -178 -25t-137 -90.5t-168 -201.5z" />
    <glyph glyph-name="uni0497" unicode="&#x497;" horiz-adv-x="1398" 
d="M301 337l-270 -337h-157l323 395q53 65 106.5 102t118.5 50q-55 28 -79 66.5t-40 110.5l-30 133q-10 46 -23 67t-32 26.5t-55 5.5h-46l23 105h68q58 0 91.5 -15t51.5 -47t32 -90l31 -130q18 -75 30 -106t43 -50t96 -20l98 458h129l-98 -458q57 0 91.5 15t57.5 42.5
t62 88.5q5 6 20 30l85 130q39 60 70.5 91t74 46t110.5 15h68l-23 -105h-46q-36 0 -56.5 -5.5t-42 -26.5t-51.5 -67l-86 -133q-46 -71 -87.5 -109.5t-109.5 -67.5q60 -13 98 -50.5t63 -101.5l112 -286h119l-97 -459h-123l74 350h-73l-126 337q-24 65 -49 99t-61 48.5
t-96 14.5l-106 -499h-129l106 499q-59 0 -97.5 -14t-73 -46.5t-89.5 -101.5z" />
    <glyph glyph-name="uni049A" unicode="&#x49a;" horiz-adv-x="1251" 
d="M399 842q93 0 145.5 21t98 76.5t126.5 187.5l70 114q74 121 154 173t189 52h82l-26 -119h-65q-63 0 -112.5 -35t-96.5 -111l-91 -144q-59 -94 -98 -143t-74.5 -75t-92.5 -46l-1 -4q62 -17 103.5 -53.5t75.5 -103t73 -187.5l105 -320h130l-113 -531h-129l86 406h-81
l-128 406q-43 136 -82 201.5t-98.5 90.5t-167.5 25h-70l-154 -723h-139l312 1466h139l-133 -624h63z" />
    <glyph glyph-name="uni049B" unicode="&#x49b;" horiz-adv-x="946" 
d="M240 603q67 0 104 13.5t62.5 42.5t70.5 99l14 21l85 130q56 84 109 118t139 34h75l-23 -105h-46q-36 0 -57 -5.5t-43 -26.5t-52 -67l-86 -133q-47 -72 -87.5 -110.5t-107.5 -66.5q60 -13 98 -50.5t63 -101.5l112 -286h119l-97 -459h-123l74 350h-74l-122 337
q-24 65 -50.5 99t-67.5 48.5t-111 14.5l-106 -499h-129l226 1061h129z" />
    <glyph glyph-name="uni04B0" unicode="&#x4b0;" horiz-adv-x="1221" 
d="M1199 1466h166l-635 -740h339l-23 -110h-400l-131 -616h-139l131 616h-400l23 110h342l-304 740h146l288 -709z" />
    <glyph glyph-name="uni04B1" unicode="&#x4b1;" horiz-adv-x="976" 
d="M182 -406l86 406h-321l22 102h306l-190 959h128l157 -858l523 858h138l-599 -959h306l-22 -102h-319l-86 -406h-129z" />
    <glyph glyph-name="uni04B2" unicode="&#x4b2;" horiz-adv-x="1315" 
d="M1199 1466h159l-634 -696l304 -645h130l-113 -531h-129l86 406h-68l-308 674l-598 -674h-176l718 787l-326 679h152l269 -587z" />
    <glyph glyph-name="uni04B3" unicode="&#x4b3;" horiz-adv-x="1019" 
d="M822 1061h165l-473 -504l227 -448h121l-97 -459h-123l74 350h-63l-228 467l-396 -467h-165l504 562l-243 499h143l187 -412z" />
    <glyph glyph-name="uni04B6" unicode="&#x4b6;" horiz-adv-x="1331" 
d="M548 524q-190 0 -284.5 72t-94.5 237q0 78 21 178l98 455h139l-103 -483q-18 -88 -18 -141q0 -72 24.5 -115.5t77.5 -63.5t141 -20q116 0 221 23t231 72l154 728h139l-285 -1341h150l-113 -531h-129l87 406h-160l132 621q-139 -51 -238.5 -74t-189.5 -23z" />
    <glyph glyph-name="uni04B7" unicode="&#x4b7;" horiz-adv-x="1102" 
d="M400 375q-146 0 -225 73.5t-79 201.5q0 34 13 101l65 310h129l-68 -319q-10 -50 -10 -92q0 -80 48.5 -121t152.5 -41q78 0 174 23.5t161 56.5l105 493h129l-202 -952h138l-98 -459h-123l75 350h-144l97 460q-184 -85 -338 -85z" />
    <glyph glyph-name="glyph497" horiz-adv-x="342" 
d="M-426 -53h-113l1301 1544h113z" />
    <glyph glyph-name="afii00208" unicode="&#x2015;" horiz-adv-x="2048" 
d="M243 465l20 94h1448l-20 -94h-1448z" />
    <glyph glyph-name="uni0E3F" unicode="&#xe3f;" 
d="M760 1599l-33 -156q160 -13 244.5 -90t84.5 -209q0 -136 -67.5 -233t-227.5 -159q113 -36 166.5 -108t53.5 -168q0 -134 -66.5 -240.5t-193.5 -169t-301 -66.5l-44 -207h-76l44 207h-331l308 1446h330l33 153h76zM422 1337l-113 -533h206l113 533h-206zM703 1334
l-112 -529q104 8 179 52.5t114 117t39 161.5q0 85 -54 136t-166 62zM287 696l-126 -587h206l125 587h-205zM568 696l-125 -587q126 3 217 50.5t138 128t47 179.5q0 106 -69.5 166t-207.5 63z" />
    <glyph glyph-name="franc" unicode="&#x20a3;" 
d="M410 1446h786l-24 -115h-657l-112 -526h560l-24 -115h-560l-59 -278h260l-22 -102h-260l-66 -310h-129l66 310h-201l22 102h201z" />
    <glyph glyph-name="lira" unicode="&#x20a4;" 
d="M361 744q1 -15 4.5 -46.5t4.5 -54.5h291l-20 -94h-273q-10 -104 -69 -194.5t-194 -204.5l3 -5q43 15 91 23t89 8q42 0 86 -9.5t111 -28.5t113 -28.5t89 -9.5q102 0 227 62l25 -116q-71 -36 -142.5 -53.5t-134.5 -17.5q-53 0 -100 12.5t-115 36.5q-65 23 -105.5 33.5
t-84.5 10.5q-83 0 -151 -22t-147 -71l-35 125q112 83 178.5 155.5t97.5 143t36 150.5h-247l20 94h226q-2 34 -6 72t-5 52l-3 32h-178l20 94h151q-1 14 -1 43q0 159 60 278.5t175.5 185.5t275.5 66q124 0 209.5 -46.5t130 -129t49.5 -191.5l-129 -22q-1 134 -70.5 209.5
t-202.5 75.5q-109 0 -191.5 -49.5t-128 -143t-45.5 -221.5q0 -38 1 -55h368l-20 -94h-340z" />
    <glyph glyph-name="peseta" unicode="&#x20a7;" horiz-adv-x="1903" 
d="M1282 992l-19 -88h-165l-141 -667q-11 -48 -11 -91q0 -41 21 -55t65 -14q54 0 100 13l-5 -101q-24 -6 -56 -10t-55 -4q-74 0 -115.5 18t-58.5 52.5t-17 88.5q0 52 20 145l134 625h-100q-55 -143 -190.5 -225t-340.5 -82h-107l-128 -597h-127l308 1446h210
q125 0 218 -42.5t142.5 -120.5t49.5 -184q0 -58 -10 -107h94l56 268l135 73l-72 -341h165zM779 1089q0 240 -303 240h-81l-129 -615h79q208 0 321 97.5t113 277.5zM1565 919q-46 0 -84.5 -21t-61 -59t-22.5 -87q0 -42 20.5 -74t50.5 -54t77 -50q112 -67 163.5 -139
t51.5 -156q0 -81 -35.5 -150t-110 -111.5t-185.5 -42.5q-152 0 -223.5 81.5t-71.5 209.5l125 21q0 -108 41 -161.5t134 -53.5q60 0 105 24.5t69.5 68t24.5 97.5q0 58 -32.5 105t-127.5 100q-103 58 -150.5 126.5t-47.5 155.5q0 74 37 135t105 96.5t157 35.5q130 0 199 -72.5
t69 -200.5l-122 -16q0 89 -36.5 140.5t-118.5 51.5z" />
    <glyph glyph-name="uni20A0" unicode="&#x20a0;" horiz-adv-x="1415" 
d="M828 933l-73 -342h486l-23 -108h-486l-79 -375h549l-23 -108h-667l83 391q-58 -12 -118 -12q-120 0 -205.5 54t-129.5 151.5t-44 226.5q0 193 76.5 342t211.5 231t305 82q132 0 224 -54.5t128 -157.5l-118 -47q-30 78 -88.5 116.5t-150.5 38.5q-140 0 -244 -73
t-159.5 -199t-55.5 -282q0 -149 68.5 -237t199.5 -88q64 0 124 20l114 538h643l-23 -108h-525z" />
    <glyph glyph-name="colonmonetary" unicode="&#x20a1;" 
d="M64 516q0 242 73.5 448t209.5 338t316 158l49 155h73l-47 -150l8 1q70 0 132 -20l54 169h73l-62 -197q83 -47 132 -135t59 -210l-127 -28q-4 87 -30 151.5t-72 103.5l-384 -1212q125 18 220.5 117.5t163.5 264.5l120 -38q-97 -223 -229 -336t-310 -120l-64 -202h-73
l64 204q-71 7 -134 40l-77 -244h-73l91 287q-77 68 -116.5 185t-39.5 270zM447 85l397 1252q-49 20 -107 20q-12 0 -34 -2l-387 -1219q53 -47 131 -51zM264 200l361 1140q-127 -38 -223.5 -156t-149 -292.5t-52.5 -376.5q0 -205 64 -315z" />
    <glyph glyph-name="uni20A2" unicode="&#x20a2;" 
d="M459 -25q-127 0 -216 67t-134 189t-45 285q0 261 84.5 478t240.5 344.5t357 127.5q113 0 197 -47t133 -135.5t58 -210.5l-127 -28q-6 150 -77 231t-193 81q-155 0 -278.5 -113t-191 -306t-67.5 -423q0 -155 41.5 -268t141.5 -150l163 762h115l-36 -169l2 1
q60 101 120.5 146.5t129.5 45.5q44 0 81.5 -10t78.5 -33l-68 -120q-56 34 -107 34q-107 0 -183.5 -105.5t-114.5 -282.5l-60 -280q253 25 401 384l120 -38q-99 -231 -238 -344t-328 -113z" />
    <glyph glyph-name="uni20A5" unicode="&#x20a5;" horiz-adv-x="1473" 
d="M924 1015l284 428l79 -45l-210 -316q23 3 47 3q104 0 162.5 -69.5t58.5 -189.5q0 -58 -13 -120l-150 -706h-115l153 721q12 57 12 102q0 82 -37 121t-113 39q-43 0 -81 -16l-229 -345l-132 -622h-115l78 368l-504 -759l-79 45l634 954l19 91q16 73 16 128q0 85 -35 120.5
t-102 35.5q-78 0 -144.5 -52t-114 -142.5t-71.5 -204.5l-124 -584h-115l226 1061h111l-33 -154h4q67 91 142.5 134.5t162.5 43.5q88 0 143 -47t71 -139q57 73 114 116z" />
    <glyph glyph-name="uni20A6" unicode="&#x20a6;" 
d="M847 0h-145l-161 571h-316l-121 -571h-124l121 571h-136l20 94h136l33 156h-136l20 94h136l113 531h136l150 -531h344l113 531h124l-113 -531h136l-20 -94h-136l-33 -156h136l-20 -94h-136zM363 1205h-4l-61 -290h146zM471 821h-193l-33 -156h270zM897 821h-297l44 -156
h220zM670 571l96 -337h7l71 337h-174z" />
    <glyph glyph-name="uni20A8" unicode="&#x20a8;" horiz-adv-x="1633" 
d="M949 1133q0 -191 -103 -302t-287 -132q61 -21 96 -69t51 -106t32 -152l5 -28l59 -344h-141l-44 302q-20 140 -44 212t-83.5 112.5t-176.5 40.5h-59l-142 -667h-126l307 1446h281q116 0 200.5 -37t129.5 -107t45 -169zM809 1130q0 114 -69 156.5t-180 42.5h-166l-116 -546
h111q134 0 225 28t143 104.5t52 214.5zM1295 919q-46 0 -84.5 -21t-61 -59t-22.5 -87q0 -42 20.5 -74t50.5 -54t77 -50q112 -67 163.5 -139t51.5 -156q0 -81 -35.5 -150t-110 -111.5t-185.5 -42.5q-152 0 -223.5 81.5t-71.5 209.5l125 21q0 -108 41 -161.5t134 -53.5
q60 0 105 24.5t69.5 68t24.5 97.5q0 58 -32.5 105t-127.5 100q-103 58 -150.5 126.5t-47.5 155.5q0 74 37 135t105 96.5t157 35.5q130 0 199 -72.5t69 -200.5l-122 -16q0 89 -36.5 140.5t-118.5 51.5z" />
    <glyph glyph-name="uni20A9" unicode="&#x20a9;" horiz-adv-x="1433" 
d="M1211 665h207l-20 -94h-226l-236 -571h-137l13 571h-265l-233 -571h-137l9 571h-221l20 94h203l2 156h-172l20 94h154l9 531h124l-11 -531h256l218 530h157l-15 -530h260l212 531h132l-220 -531h157l-20 -94h-176zM830 1266l-143 -351h134zM532 821h-221l-6 -156h164z
M818 821h-170l-63 -156h230zM1152 821h-225l-4 -156h167zM302 571l-14 -356l143 356h-129zM921 571l-10 -356l142 356h-132z" />
    <glyph glyph-name="afii57636" unicode="&#x20aa;" 
d="M-66 0l226 1061h323q145 0 222 -66t77 -189q0 -48 -12 -104l-85 -402h-130l85 412q9 44 9 79q0 82 -47.5 120t-138.5 38h-198l-202 -949h-129zM851 377l145 684h129l-155 -728q-34 -161 -138.5 -247t-270.5 -86h-348l162 761h129l-138 -649h177q131 0 205 63.5t103 201.5
z" />
    <glyph glyph-name="dong" unicode="&#x20ab;" 
d="M627 1304h357l31 142h129l-31 -142h147l-22 -102h-146l-255 -1202h-121l31 147h-4q-68 -86 -158.5 -129t-188.5 -43q-123 0 -209 53t-130 151.5t-44 234.5q0 184 77.5 338t207.5 243.5t281 89.5q118 0 195 -54.5t116 -145.5h6l67 317h-358zM587 976q-124 0 -224.5 -78
t-157.5 -208t-57 -279q0 -99 30.5 -173t87 -114t132.5 -40q131 0 233 73.5t158.5 202.5t56.5 289q0 153 -68.5 240t-190.5 87zM-89 -271l22 102h865l-22 -102h-865z" />
    <glyph glyph-name="uni20AD" unicode="&#x20ad;" 
d="M1094 1446h152l-703 -607h381l-22 -102h-374l420 -737h-159l-406 737h-11l-157 -737h-127l157 737h-194l22 102h194l129 607h127l-129 -607h6z" />
    <glyph glyph-name="uni20AE" unicode="&#x20ae;" 
d="M201 544l24 112l300 196l98 465h-448l28 129h1035l-28 -129h-448l-77 -365l304 198l-24 -112l-304 -198l-43 -203l304 197l-24 -112l-304 -197l-111 -525h-139l90 426l-304 -198l24 112l304 198l43 202z" />
    <glyph glyph-name="uni20AF" unicode="&#x20af;" horiz-adv-x="2175" 
d="M610 1466q38 78 80 129.5t95 91.5l67 -73q-36 -31 -65 -68t-55 -88q154 -22 274.5 -100t189 -206.5t68.5 -293.5q0 -292 -121.5 -485t-315 -283t-413.5 -90h-406l25 101q107 47 177.5 129.5t125 236.5t106.5 420q57 292 121 469q-163 -8 -260 -85t-145 -230l-117 32
q61 183 197.5 287t371.5 106zM687 1352q-55 -156 -122 -480q-52 -254 -99 -402t-99 -227.5t-124 -124.5h182q191 0 350 73t257.5 238.5t98.5 428.5q0 132 -52 238t-152 173t-240 83zM1791 940q95 0 165 -45t107 -126.5t37 -186.5q0 -150 -59 -290t-169 -228.5t-255 -88.5
q-81 0 -142 22.5t-91 58.5h-4l-98 -462h-118l176 830q52 244 166 380t285 136zM1789 831q-117 0 -199 -106.5t-124 -304.5l-50 -240q24 -46 78.5 -71t122.5 -25q88 0 169 65t130.5 178.5t49.5 251.5q0 115 -46.5 183.5t-130.5 68.5z" />
    <glyph glyph-name="uni20B0" unicode="&#x20b0;" 
d="M330 819l130 -220l158 154q-165 184 -165 352q0 98 40.5 180.5t116.5 131.5t179 49q68 0 126 -30t93.5 -90t35.5 -145q0 -76 -26.5 -140.5t-81 -132t-154.5 -167.5q90 -91 130.5 -177.5t40.5 -174.5q0 -126 -53.5 -223.5t-164 -154t-273.5 -56.5q-90 0 -163.5 20.5
t-121.5 60.5l65 105q38 -36 94.5 -58.5t123.5 -22.5q171 0 265.5 84t94.5 246q0 54 -15.5 97.5t-42 79.5t-70.5 84l-264 -257l-126 211l-255 -293l-85 65zM707 843q78 80 118 127.5t63 103t23 125.5q0 77 -39.5 117.5t-95.5 40.5q-63 0 -105.5 -34t-64.5 -90.5t-22 -124.5
q0 -60 28 -124.5t95 -140.5z" />
    <glyph glyph-name="uni20B1" unicode="&#x20b1;" 
d="M256 1087h-161l20 94h161l57 265h289q156 0 260 -70.5t137 -194.5h185l-20 -94h-152q0 -84 -20 -156h139l-20 -94h-156q-65 -123 -197 -194.5t-318 -71.5h-186l-122 -571h-127l178 837h-161l20 94h161zM595 1329h-160l-32 -148h476q-28 70 -97.5 109t-186.5 39zM874 931
q23 66 23 156h-514l-33 -156h524zM823 837h-493l-31 -149h158q124 0 217 38t149 111z" />
    <glyph glyph-name="uni20B2" unicode="&#x20b2;" 
d="M64 516q0 253 77 465t220.5 341.5t335.5 141.5l29 135h76l-29 -135q140 -11 217 -105t90 -261l-132 -36q-5 140 -54 213.5t-144 80.5l-270 -1272q163 3 293 99l91 429h-194l22 104h323l-122 -576q-182 -159 -436 -164l-39 -183h-76l39 186q-100 15 -171.5 86
t-108.5 186.5t-37 264.5zM405 91l268 1262q-142 -20 -249.5 -136t-165.5 -300t-58 -402q0 -164 46.5 -280.5t158.5 -143.5z" />
    <glyph glyph-name="uni20B3" unicode="&#x20b3;" 
d="M871 535h206l-20 -94h-176l46 -441h-140l-37 441h-488l-218 -441h-144l225 441h-167l20 94h195l79 156h-241l20 94h269l337 661h139l69 -661h285l-20 -94h-255zM678 1285l-246 -500h288zM728 691h-343l-77 -156h434z" />
    <glyph glyph-name="uni20B4" unicode="&#x20b4;" 
d="M541 692q-64 -13 -118 -27h681l-20 -94h-841q-36 -30 -60.5 -59.5t-41.5 -76.5t-17 -114q0 -109 71.5 -175t214.5 -66q106 0 183.5 33t137.5 106t110 195l118 -17q-77 -207 -217 -314.5t-345 -107.5q-138 0 -228 48.5t-131.5 125t-41.5 163.5q0 136 95 259h-106l20 94
h186q121 83 364 133q47 9 98 23h-615l20 94h785q53 43 82 93.5t29 135.5q0 100 -67 159t-204 59q-131 0 -220.5 -70.5t-142.5 -192.5l-118 19q50 112 114 188t158 118t224 42q126 0 212.5 -41t129 -111.5t42.5 -160.5q0 -70 -21.5 -126t-64.5 -112h161l-20 -94h-239
q-68 -48 -157.5 -77.5t-199.5 -51.5z" />
    <glyph glyph-name="uni20B5" unicode="&#x20b5;" 
d="M64 516q0 255 80.5 468.5t229 342.5t343.5 138l29 134h76l-29 -135q149 -15 238 -117.5t103 -273.5l-127 -28q-6 139 -68 219t-169 91l-270 -1270q255 23 405 385l120 -38q-97 -226 -231.5 -338.5t-316.5 -117.5l-39 -183h-76l39 186q-109 14 -184.5 84.5t-114 186
t-38.5 266.5zM424 87l270 1267q-146 -16 -258 -131.5t-174 -301.5t-62 -406q0 -171 51 -290t173 -138z" />
    <glyph glyph-name="glyph521" 
d="M1159 1352h-404q91 -83 91 -219l-1 -18h265l-20 -94h-255q-30 -147 -136.5 -227.5t-272.5 -100.5q62 -21 97 -68.5t51 -104.5t32 -150l4 -26l59 -344h-141l-44 302q-20 140 -44 212.5t-83.5 113.5t-176.5 41h-59l20 105h145q173 0 277 54t133 193h-504l20 94h493l1 15
q0 118 -72.5 170t-174.5 52h-198l20 94h898z" />
    <glyph glyph-name="glyph522" 
d="M398 803l422 192l-21 -103l-423 -192l-127 -596h93q216 0 354 153t209 489h132q-81 -385 -253 -565.5t-448 -180.5h-238l136 641l-241 -109l22 103l241 109l40 190l-241 -109l22 103l241 109l87 409h129l-74 -350l423 192l-22 -103l-423 -192z" />
    <glyph glyph-name="glyph523" 
d="M1125 1099q0 -146 -65 -259.5t-192.5 -178t-308.5 -64.5h-242l-34 -156h487l-23 -108h-487l-71 -333h-127l71 333h-185l23 108h185l33 156h-185l23 108h185l158 741h345q125 0 218 -42.5t142.5 -120.5t49.5 -184zM990 1089q0 115 -71.5 181.5t-229.5 66.5h-216l-133 -632
h214q137 0 235 46t149.5 132t51.5 206z" />
    <glyph glyph-name="glyph524" 
d="M137 313l-67 -313h-128l73 339q69 322 155 508.5t191 266t243 85.5l52 247h128l-52 -247q133 -21 205 -123t72 -312q0 -184 -58 -454l-66 -310h-128l66 310q62 291 62 470q0 160 -46 232t-130 78l-168 -790h-128l168 790q-93 -2 -165 -63t-141.5 -229.5t-137.5 -484.5z
" />
    <glyph glyph-name="glyph525" horiz-adv-x="682" 
d="M534 1568l-168 266h169l97 -266h-98z" />
    <glyph glyph-name="glyph526" horiz-adv-x="682" 
d="M430 1590h-123l35 164h123zM739 1590h-123l35 164h123z" />
    <glyph glyph-name="glyph527" horiz-adv-x="682" 
d="M399 1568l210 266h180l-282 -266h-108z" />
    <glyph glyph-name="glyph528" horiz-adv-x="682" 
d="M665 1568l-100 184l-178 -184h-140l254 266h148l140 -266h-124z" />
    <glyph glyph-name="glyph529" horiz-adv-x="682" 
d="M428 1834l100 -184l178 184h140l-254 -266h-148l-140 266h124z" />
    <glyph glyph-name="glyph530" horiz-adv-x="682" 
d="M232 1595l23 110h584l-23 -110h-584z" />
    <glyph glyph-name="glyph531" horiz-adv-x="682" 
d="M548 1673q72 0 118.5 31.5t77.5 105.5h105q-82 -242 -305 -242q-121 0 -187 61.5t-66 180.5h106q0 -73 36 -105t115 -32z" />
    <glyph glyph-name="glyph532" horiz-adv-x="682" 
d="M454 1590l34 162h138l-34 -162h-138z" />
    <glyph glyph-name="glyph533" horiz-adv-x="682" 
d="M702 1881q49 0 90 -24t65 -65t24 -90t-24 -90t-65 -65t-90 -24t-90 24t-65 65t-24 90t24 90t65 65t90 24zM702 1588q47 0 80.5 33.5t33.5 80.5t-33.5 80.5t-80.5 33.5t-80.5 -33.5t-33.5 -80.5t33.5 -80.5t80.5 -33.5z" />
    <glyph glyph-name="glyph534" horiz-adv-x="682" 
d="M669 1598q-73 0 -140 40q-43 25 -68 34t-45 9q-29 0 -47 -20t-30 -63h-105q22 96 66.5 142t122.5 46q70 0 137 -40q43 -25 68 -34t46 -9q29 0 47 20t30 63h105q-23 -93 -67 -140.5t-120 -47.5z" />
    <glyph glyph-name="glyph535" horiz-adv-x="682" 
d="M309 1568l210 266h180l-282 -266h-108zM574 1568l210 266h180l-282 -266h-108z" />
    <glyph glyph-name="glyph536" horiz-adv-x="682" 
d="M46 -328l34 162h138l-34 -162h-138z" />
    <glyph glyph-name="glyph537" horiz-adv-x="682" 
d="M24 -430l-11 80q51 10 77.5 34t34.5 64h-81l33 157h175l-30 -141q-15 -72 -60 -118.5t-138 -75.5z" />
    <glyph glyph-name="glyph538" horiz-adv-x="1331" 
d="M15 429q0 195 82 339t231 224t347 90l81 384h129l-81 -384q127 -9 223 -66.5t149 -156.5t53 -228q0 -195 -82 -339t-231 -224t-347 -90l-82 -384h-129l82 383v1q-127 9 -223 66.5t-149 156.5t-53 228zM464 88l188 885q-148 -14 -262 -81t-178 -184t-64 -277
q0 -100 38.5 -175.5t110 -119t167.5 -48.5zM780 972l-188 -885q148 14 262 81t178 184t64 277q0 100 -38.5 175.5t-110 119t-167.5 48.5z" />
    <glyph glyph-name="glyph539" horiz-adv-x="682" 
d="M579 1530l11 -80q-52 -10 -78 -36t-36 -72h81l-33 -157h-175l32 151q15 72 61.5 120.5t136.5 73.5z" />
    <glyph glyph-name="glyph540" horiz-adv-x="175" 
d="M111 1049l-39 71q43 23 65.5 42t35.5 45.5t24 73.5h-81l40 185h174l-37 -176q-18 -85 -62.5 -141.5t-119.5 -99.5z" />
    <glyph glyph-name="glyph541" horiz-adv-x="682" 
d="M468 1295q71 0 120 35.5t81 111.5h121q-42 -118 -124 -180t-195 -62q-140 0 -209.5 63t-69.5 179h122q0 -75 37.5 -111t116.5 -36z" />
    <glyph glyph-name="glyph542" horiz-adv-x="682" 
d="M548 1663q77 0 128.5 35t85.5 112h121q-43 -122 -126 -182t-219 -60q-137 0 -209 63.5t-72 178.5h122q0 -76 40.5 -111.5t128.5 -35.5z" />
  </font>
</defs>
</svg>
